G75*
G70*
%OFA0B0*%
%FSLAX24Y24*%
%IPPOS*%
%LPD*%
%AMOC8*
5,1,8,0,0,1.08239X$1,22.5*
%
%ADD10C,0.0070*%
%ADD11C,0.0050*%
%ADD12C,0.0160*%
%ADD13C,0.0040*%
%ADD14C,0.0080*%
%ADD15C,0.0000*%
%ADD16C,0.0060*%
D10*
X010925Y005255D02*
X011189Y005255D01*
X011057Y005255D02*
X011057Y005783D01*
X011189Y005783D01*
X011454Y005914D02*
X011454Y005651D01*
X011585Y005519D01*
X011981Y005519D01*
X011981Y005255D02*
X011981Y006046D01*
X011585Y006046D01*
X011454Y005914D01*
X011057Y006046D02*
X011057Y006178D01*
X012245Y005651D02*
X012245Y005519D01*
X012773Y005519D01*
X012773Y005387D02*
X012773Y005651D01*
X012641Y005783D01*
X012377Y005783D01*
X012245Y005651D01*
X012377Y005255D02*
X012641Y005255D01*
X012773Y005387D01*
X013037Y005255D02*
X013169Y005387D01*
X013169Y005914D01*
X013301Y005783D02*
X013037Y005783D01*
X013565Y005783D02*
X013828Y005783D01*
X013697Y005914D02*
X013697Y005387D01*
X013565Y005255D01*
X014093Y005519D02*
X014093Y005651D01*
X014225Y005783D01*
X014489Y005783D01*
X014620Y005651D01*
X014620Y005387D01*
X014489Y005255D01*
X014225Y005255D01*
X014093Y005519D02*
X014620Y005519D01*
X014885Y005255D02*
X014885Y005783D01*
X015412Y005783D02*
X015412Y005387D01*
X015280Y005255D01*
X014885Y005255D01*
X015677Y005519D02*
X016204Y005519D01*
X016204Y005387D02*
X016204Y005651D01*
X016072Y005783D01*
X015809Y005783D01*
X015677Y005651D01*
X015677Y005519D01*
X015809Y005255D02*
X016072Y005255D01*
X016204Y005387D01*
X016468Y005255D02*
X016732Y005255D01*
X016600Y005255D02*
X016600Y006046D01*
X016732Y006046D01*
X016997Y005914D02*
X016997Y005783D01*
X017129Y005651D01*
X017524Y005651D01*
X017129Y005651D02*
X016997Y005519D01*
X016997Y005387D01*
X017129Y005255D01*
X017524Y005255D01*
X017524Y006046D01*
X017129Y006046D01*
X016997Y005914D01*
D11*
X009025Y004652D02*
X008923Y004652D01*
X009025Y004652D02*
X009228Y004449D01*
X009429Y004449D02*
X009836Y004449D01*
X009836Y004347D02*
X009836Y004551D01*
X009734Y004652D01*
X009531Y004652D01*
X009429Y004551D01*
X009429Y004449D01*
X009531Y004245D02*
X009734Y004245D01*
X009836Y004347D01*
X010038Y004245D02*
X010241Y004245D01*
X010139Y004245D02*
X010139Y004856D01*
X010241Y004856D01*
X010545Y004856D02*
X010545Y004245D01*
X010646Y004245D02*
X010443Y004245D01*
X010847Y004347D02*
X010847Y004551D01*
X010949Y004652D01*
X011152Y004652D01*
X011254Y004551D01*
X011254Y004347D01*
X011152Y004245D01*
X010949Y004245D01*
X010847Y004347D01*
X010646Y004856D02*
X010545Y004856D01*
X011455Y004652D02*
X011557Y004652D01*
X011761Y004449D01*
X011761Y004652D02*
X011761Y004245D01*
X011962Y004245D02*
X012064Y004347D01*
X012064Y004754D01*
X012166Y004652D02*
X011962Y004652D01*
X012366Y004551D02*
X012366Y004245D01*
X012366Y004551D02*
X012468Y004652D01*
X012773Y004652D01*
X012773Y004245D01*
X012974Y004347D02*
X012974Y004551D01*
X013076Y004652D01*
X013279Y004652D01*
X013381Y004551D01*
X013381Y004347D01*
X013279Y004245D01*
X013076Y004245D01*
X012974Y004347D01*
X013582Y004245D02*
X013887Y004245D01*
X013989Y004347D01*
X013989Y004551D01*
X013887Y004652D01*
X013582Y004652D01*
X014797Y004551D02*
X014797Y004347D01*
X014899Y004245D01*
X015103Y004245D01*
X015204Y004347D01*
X015204Y004551D01*
X015103Y004652D01*
X014899Y004652D01*
X014797Y004551D01*
X015405Y004652D02*
X015608Y004245D01*
X015812Y004652D01*
X016013Y004652D02*
X016115Y004652D01*
X016318Y004449D01*
X016519Y004449D02*
X016519Y004551D01*
X016621Y004652D01*
X016824Y004652D01*
X016926Y004551D01*
X016926Y004347D01*
X016824Y004245D01*
X016621Y004245D01*
X016519Y004449D02*
X016926Y004449D01*
X017127Y004449D02*
X017229Y004551D01*
X017432Y004551D01*
X017534Y004652D01*
X017534Y004754D01*
X017432Y004856D01*
X017229Y004856D01*
X017127Y004754D01*
X017127Y004449D02*
X017127Y004347D01*
X017229Y004245D01*
X017432Y004245D01*
X017534Y004347D01*
X016318Y004245D02*
X016318Y004652D01*
X022759Y006554D02*
X022759Y006779D01*
X022834Y006854D01*
X023134Y006854D01*
X023209Y006779D01*
X023209Y006554D01*
X022759Y006554D01*
X022759Y007014D02*
X023209Y007014D01*
X023209Y007239D01*
X023134Y007315D01*
X022984Y007315D01*
X022909Y007239D01*
X022909Y007014D01*
X022909Y007164D02*
X022759Y007315D01*
X022759Y007475D02*
X022759Y007700D01*
X022834Y007775D01*
X023134Y007775D01*
X023209Y007700D01*
X023209Y007475D01*
X022759Y007475D01*
X023134Y007935D02*
X022984Y008085D01*
X022759Y008085D01*
X022984Y008085D02*
X023134Y008235D01*
X023209Y008235D01*
X023209Y007935D02*
X023134Y007935D01*
X009228Y004652D02*
X009228Y004245D01*
D12*
X009625Y007220D02*
X009627Y007279D01*
X009633Y007337D01*
X009643Y007395D01*
X009657Y007453D01*
X009674Y007509D01*
X009696Y007563D01*
X009721Y007617D01*
X009749Y007668D01*
X009781Y007718D01*
X009816Y007765D01*
X009855Y007809D01*
X009896Y007851D01*
X009940Y007890D01*
X009986Y007926D01*
X010035Y007959D01*
X010086Y007989D01*
X010139Y008014D01*
X010193Y008037D01*
X010249Y008055D01*
X010306Y008070D01*
X010364Y008081D01*
X010423Y008088D01*
X010481Y008091D01*
X010540Y008090D01*
X010599Y008085D01*
X010657Y008076D01*
X010714Y008063D01*
X010771Y008047D01*
X010826Y008026D01*
X010880Y008002D01*
X010931Y007974D01*
X010981Y007943D01*
X011029Y007909D01*
X011074Y007871D01*
X011117Y007831D01*
X011157Y007787D01*
X011194Y007741D01*
X011227Y007693D01*
X011258Y007643D01*
X011284Y007590D01*
X011308Y007536D01*
X011327Y007481D01*
X011343Y007424D01*
X011355Y007366D01*
X011363Y007308D01*
X011367Y007249D01*
X011367Y007191D01*
X011363Y007132D01*
X011355Y007074D01*
X011343Y007016D01*
X011327Y006959D01*
X011308Y006904D01*
X011284Y006850D01*
X011258Y006797D01*
X011227Y006747D01*
X011194Y006699D01*
X011157Y006653D01*
X011117Y006609D01*
X011074Y006569D01*
X011029Y006531D01*
X010981Y006497D01*
X010932Y006466D01*
X010880Y006438D01*
X010826Y006414D01*
X010771Y006393D01*
X010714Y006377D01*
X010657Y006364D01*
X010599Y006355D01*
X010540Y006350D01*
X010481Y006349D01*
X010423Y006352D01*
X010364Y006359D01*
X010306Y006370D01*
X010249Y006385D01*
X010193Y006403D01*
X010139Y006426D01*
X010086Y006451D01*
X010035Y006481D01*
X009986Y006514D01*
X009940Y006550D01*
X009896Y006589D01*
X009855Y006631D01*
X009816Y006675D01*
X009781Y006722D01*
X009749Y006772D01*
X009721Y006823D01*
X009696Y006877D01*
X009674Y006931D01*
X009657Y006987D01*
X009643Y007045D01*
X009633Y007103D01*
X009627Y007161D01*
X009625Y007220D01*
X031182Y017220D02*
X031184Y017279D01*
X031190Y017337D01*
X031200Y017395D01*
X031213Y017452D01*
X031231Y017508D01*
X031252Y017562D01*
X031276Y017616D01*
X031304Y017667D01*
X031336Y017716D01*
X031371Y017764D01*
X031409Y017808D01*
X031449Y017850D01*
X031493Y017890D01*
X031539Y017926D01*
X031587Y017959D01*
X031638Y017989D01*
X031690Y018016D01*
X031744Y018038D01*
X031799Y018058D01*
X031856Y018073D01*
X031913Y018085D01*
X031971Y018093D01*
X032030Y018097D01*
X032088Y018097D01*
X032147Y018093D01*
X032205Y018085D01*
X032262Y018073D01*
X032319Y018058D01*
X032374Y018038D01*
X032428Y018016D01*
X032480Y017989D01*
X032531Y017959D01*
X032579Y017926D01*
X032625Y017890D01*
X032669Y017850D01*
X032709Y017808D01*
X032747Y017764D01*
X032782Y017716D01*
X032814Y017667D01*
X032842Y017616D01*
X032866Y017562D01*
X032887Y017508D01*
X032905Y017452D01*
X032918Y017395D01*
X032928Y017337D01*
X032934Y017279D01*
X032936Y017220D01*
X032934Y017161D01*
X032928Y017103D01*
X032918Y017045D01*
X032905Y016988D01*
X032887Y016932D01*
X032866Y016878D01*
X032842Y016824D01*
X032814Y016773D01*
X032782Y016724D01*
X032747Y016676D01*
X032709Y016632D01*
X032669Y016590D01*
X032625Y016550D01*
X032579Y016514D01*
X032531Y016481D01*
X032480Y016451D01*
X032428Y016424D01*
X032374Y016402D01*
X032319Y016382D01*
X032262Y016367D01*
X032205Y016355D01*
X032147Y016347D01*
X032088Y016343D01*
X032030Y016343D01*
X031971Y016347D01*
X031913Y016355D01*
X031856Y016367D01*
X031799Y016382D01*
X031744Y016402D01*
X031690Y016424D01*
X031638Y016451D01*
X031587Y016481D01*
X031539Y016514D01*
X031493Y016550D01*
X031449Y016590D01*
X031409Y016632D01*
X031371Y016676D01*
X031336Y016724D01*
X031304Y016773D01*
X031276Y016824D01*
X031252Y016878D01*
X031231Y016932D01*
X031213Y016988D01*
X031200Y017045D01*
X031190Y017103D01*
X031184Y017161D01*
X031182Y017220D01*
D13*
X020322Y010787D02*
X020322Y010327D01*
X020322Y010481D02*
X020092Y010481D01*
X020015Y010557D01*
X020015Y010711D01*
X020092Y010787D01*
X020322Y010787D01*
X019862Y010787D02*
X019862Y010327D01*
X019555Y010327D01*
X019401Y010404D02*
X019325Y010327D01*
X019171Y010327D01*
X019094Y010404D01*
X019094Y010481D01*
X019171Y010557D01*
X019325Y010557D01*
X019401Y010634D01*
X019401Y010711D01*
X019325Y010787D01*
X019171Y010787D01*
X019094Y010711D01*
X018941Y010787D02*
X018941Y010327D01*
X018634Y010327D01*
X018787Y010557D02*
X018941Y010557D01*
X018941Y010787D02*
X018634Y010787D01*
X018481Y010787D02*
X018174Y010787D01*
X018327Y010787D02*
X018327Y010327D01*
X018250Y009787D02*
X018481Y009787D01*
X018481Y009327D01*
X018250Y009327D01*
X018174Y009404D01*
X018174Y009711D01*
X018250Y009787D01*
X018634Y009711D02*
X018634Y009404D01*
X018711Y009327D01*
X018941Y009327D01*
X018941Y009787D01*
X018711Y009787D01*
X018634Y009711D01*
X019094Y009787D02*
X019094Y009481D01*
X019248Y009327D01*
X019401Y009481D01*
X019401Y009787D01*
X020015Y010327D02*
X020169Y010481D01*
X019862Y010557D02*
X019708Y010557D01*
X019555Y010787D02*
X019862Y010787D01*
X019401Y008787D02*
X019401Y008481D01*
X019248Y008327D01*
X019094Y008481D01*
X019094Y008787D01*
X018941Y008711D02*
X018941Y008634D01*
X018864Y008557D01*
X018711Y008557D01*
X018634Y008481D01*
X018634Y008404D01*
X018711Y008327D01*
X018864Y008327D01*
X018941Y008404D01*
X018481Y008404D02*
X018404Y008327D01*
X018250Y008327D01*
X018174Y008404D01*
X018174Y008481D01*
X018250Y008557D01*
X018404Y008557D01*
X018481Y008634D01*
X018481Y008711D01*
X018404Y008787D01*
X018250Y008787D01*
X018174Y008711D01*
X018634Y008711D02*
X018711Y008787D01*
X018864Y008787D01*
X018941Y008711D01*
X018864Y007787D02*
X018711Y007787D01*
X018634Y007711D01*
X018634Y007557D02*
X018787Y007557D01*
X018634Y007557D02*
X018634Y007404D01*
X018711Y007327D01*
X018864Y007327D01*
X018941Y007404D01*
X018941Y007711D01*
X018864Y007787D01*
X019094Y007711D02*
X019094Y007557D01*
X019171Y007481D01*
X019401Y007481D01*
X019401Y007327D02*
X019401Y007787D01*
X019171Y007787D01*
X019094Y007711D01*
X018481Y007787D02*
X018481Y007327D01*
X018250Y007327D01*
X018174Y007404D01*
X018174Y007711D01*
X018250Y007787D01*
X018481Y007787D01*
X018404Y006787D02*
X018250Y006787D01*
X018174Y006711D01*
X018404Y006787D02*
X018481Y006711D01*
X018481Y006404D01*
X018404Y006327D01*
X018250Y006327D01*
X018174Y006404D01*
X018634Y006404D02*
X018634Y006557D01*
X018787Y006557D01*
X018634Y006404D02*
X018711Y006327D01*
X018864Y006327D01*
X018941Y006404D01*
X018941Y006711D01*
X018864Y006787D01*
X018711Y006787D01*
X018634Y006711D01*
X019094Y006711D02*
X019094Y006557D01*
X019171Y006481D01*
X019401Y006481D01*
X019401Y006327D02*
X019401Y006787D01*
X019171Y006787D01*
X019094Y006711D01*
D14*
X016809Y007665D02*
X016809Y008115D01*
X016279Y008215D01*
X016089Y008655D02*
X016399Y009105D01*
X016069Y009425D01*
X015619Y009115D01*
X015189Y009295D02*
X015089Y009835D01*
X014629Y009835D01*
X014529Y009295D01*
X014099Y009115D02*
X013639Y009425D01*
X013319Y009105D01*
X013629Y008655D01*
X013439Y008215D02*
X012909Y008115D01*
X012909Y007665D01*
X013429Y007565D01*
X013609Y007105D02*
X013319Y006675D01*
X013639Y006355D01*
X014059Y006635D01*
X014239Y006535D01*
X014569Y007335D01*
X015139Y007335D02*
X015469Y006535D01*
X015649Y006635D01*
X016069Y006345D01*
X016399Y006675D01*
X016099Y007105D01*
X016289Y007565D02*
X016809Y007665D01*
X015619Y009115D02*
X015561Y009148D01*
X015502Y009178D01*
X015441Y009205D01*
X015380Y009229D01*
X015317Y009251D01*
X015253Y009270D01*
X015189Y009285D01*
X016089Y008655D02*
X016125Y008597D01*
X016158Y008536D01*
X016189Y008474D01*
X016216Y008411D01*
X016240Y008347D01*
X016261Y008281D01*
X016279Y008215D01*
X014529Y009285D02*
X014455Y009266D01*
X014383Y009243D01*
X014312Y009216D01*
X014242Y009186D01*
X014175Y009152D01*
X014109Y009115D01*
X014569Y007335D02*
X014527Y007359D01*
X014488Y007387D01*
X014451Y007418D01*
X014416Y007452D01*
X014384Y007488D01*
X014356Y007527D01*
X014330Y007568D01*
X014308Y007611D01*
X014290Y007656D01*
X014275Y007702D01*
X014263Y007749D01*
X014256Y007796D01*
X014252Y007844D01*
X014253Y007893D01*
X014257Y007941D01*
X014265Y007988D01*
X014277Y008035D01*
X014292Y008081D01*
X014311Y008125D01*
X014334Y008168D01*
X014360Y008209D01*
X014389Y008247D01*
X014421Y008283D01*
X014456Y008317D01*
X014494Y008347D01*
X014533Y008374D01*
X014575Y008399D01*
X014619Y008419D01*
X014664Y008436D01*
X014710Y008450D01*
X014758Y008459D01*
X014806Y008465D01*
X014854Y008467D01*
X014902Y008465D01*
X014950Y008459D01*
X014998Y008450D01*
X015044Y008436D01*
X015089Y008419D01*
X015133Y008399D01*
X015175Y008374D01*
X015214Y008347D01*
X015252Y008317D01*
X015287Y008283D01*
X015319Y008247D01*
X015348Y008209D01*
X015374Y008168D01*
X015397Y008125D01*
X015416Y008081D01*
X015431Y008035D01*
X015443Y007988D01*
X015451Y007941D01*
X015455Y007893D01*
X015456Y007844D01*
X015452Y007796D01*
X015445Y007749D01*
X015433Y007702D01*
X015418Y007656D01*
X015400Y007611D01*
X015378Y007568D01*
X015352Y007527D01*
X015324Y007488D01*
X015292Y007452D01*
X015257Y007418D01*
X015220Y007387D01*
X015181Y007359D01*
X015139Y007335D01*
X013609Y007105D02*
X013574Y007167D01*
X013541Y007230D01*
X013512Y007295D01*
X013487Y007361D01*
X013464Y007428D01*
X013445Y007496D01*
X013429Y007566D01*
X016099Y007105D02*
X016134Y007167D01*
X016167Y007230D01*
X016196Y007295D01*
X016221Y007361D01*
X016244Y007428D01*
X016263Y007496D01*
X016279Y007566D01*
X013629Y008655D02*
X013593Y008596D01*
X013560Y008536D01*
X013530Y008474D01*
X013503Y008411D01*
X013478Y008347D01*
X013457Y008281D01*
X013439Y008215D01*
D15*
X009905Y007220D02*
X009907Y007268D01*
X009913Y007316D01*
X009923Y007363D01*
X009936Y007409D01*
X009954Y007454D01*
X009974Y007498D01*
X009999Y007540D01*
X010027Y007579D01*
X010057Y007616D01*
X010091Y007650D01*
X010128Y007682D01*
X010166Y007711D01*
X010207Y007736D01*
X010250Y007758D01*
X010295Y007776D01*
X010341Y007790D01*
X010388Y007801D01*
X010436Y007808D01*
X010484Y007811D01*
X010532Y007810D01*
X010580Y007805D01*
X010628Y007796D01*
X010674Y007784D01*
X010719Y007767D01*
X010763Y007747D01*
X010805Y007724D01*
X010845Y007697D01*
X010883Y007667D01*
X010918Y007634D01*
X010950Y007598D01*
X010980Y007560D01*
X011006Y007519D01*
X011028Y007476D01*
X011048Y007432D01*
X011063Y007387D01*
X011075Y007340D01*
X011083Y007292D01*
X011087Y007244D01*
X011087Y007196D01*
X011083Y007148D01*
X011075Y007100D01*
X011063Y007053D01*
X011048Y007008D01*
X011028Y006964D01*
X011006Y006921D01*
X010980Y006880D01*
X010950Y006842D01*
X010918Y006806D01*
X010883Y006773D01*
X010845Y006743D01*
X010805Y006716D01*
X010763Y006693D01*
X010719Y006673D01*
X010674Y006656D01*
X010628Y006644D01*
X010580Y006635D01*
X010532Y006630D01*
X010484Y006629D01*
X010436Y006632D01*
X010388Y006639D01*
X010341Y006650D01*
X010295Y006664D01*
X010250Y006682D01*
X010207Y006704D01*
X010166Y006729D01*
X010128Y006758D01*
X010091Y006790D01*
X010057Y006824D01*
X010027Y006861D01*
X009999Y006900D01*
X009974Y006942D01*
X009954Y006986D01*
X009936Y007031D01*
X009923Y007077D01*
X009913Y007124D01*
X009907Y007172D01*
X009905Y007220D01*
X031468Y017220D02*
X031470Y017268D01*
X031476Y017316D01*
X031486Y017363D01*
X031499Y017409D01*
X031517Y017454D01*
X031537Y017498D01*
X031562Y017540D01*
X031590Y017579D01*
X031620Y017616D01*
X031654Y017650D01*
X031691Y017682D01*
X031729Y017711D01*
X031770Y017736D01*
X031813Y017758D01*
X031858Y017776D01*
X031904Y017790D01*
X031951Y017801D01*
X031999Y017808D01*
X032047Y017811D01*
X032095Y017810D01*
X032143Y017805D01*
X032191Y017796D01*
X032237Y017784D01*
X032282Y017767D01*
X032326Y017747D01*
X032368Y017724D01*
X032408Y017697D01*
X032446Y017667D01*
X032481Y017634D01*
X032513Y017598D01*
X032543Y017560D01*
X032569Y017519D01*
X032591Y017476D01*
X032611Y017432D01*
X032626Y017387D01*
X032638Y017340D01*
X032646Y017292D01*
X032650Y017244D01*
X032650Y017196D01*
X032646Y017148D01*
X032638Y017100D01*
X032626Y017053D01*
X032611Y017008D01*
X032591Y016964D01*
X032569Y016921D01*
X032543Y016880D01*
X032513Y016842D01*
X032481Y016806D01*
X032446Y016773D01*
X032408Y016743D01*
X032368Y016716D01*
X032326Y016693D01*
X032282Y016673D01*
X032237Y016656D01*
X032191Y016644D01*
X032143Y016635D01*
X032095Y016630D01*
X032047Y016629D01*
X031999Y016632D01*
X031951Y016639D01*
X031904Y016650D01*
X031858Y016664D01*
X031813Y016682D01*
X031770Y016704D01*
X031729Y016729D01*
X031691Y016758D01*
X031654Y016790D01*
X031620Y016824D01*
X031590Y016861D01*
X031562Y016900D01*
X031537Y016942D01*
X031517Y016986D01*
X031499Y017031D01*
X031486Y017077D01*
X031476Y017124D01*
X031470Y017172D01*
X031468Y017220D01*
D16*
X023984Y007995D02*
X023384Y007995D01*
X023367Y007993D01*
X023350Y007989D01*
X023334Y007982D01*
X023320Y007972D01*
X023307Y007959D01*
X023297Y007945D01*
X023290Y007929D01*
X023286Y007912D01*
X023284Y007895D01*
X023284Y006795D01*
X023286Y006778D01*
X023290Y006761D01*
X023297Y006745D01*
X023307Y006731D01*
X023320Y006718D01*
X023334Y006708D01*
X023350Y006701D01*
X023367Y006697D01*
X023384Y006695D01*
X023984Y006695D01*
X024001Y006697D01*
X024018Y006701D01*
X024034Y006708D01*
X024048Y006718D01*
X024061Y006731D01*
X024071Y006745D01*
X024078Y006761D01*
X024082Y006778D01*
X024084Y006795D01*
X024084Y007895D01*
X024082Y007912D01*
X024078Y007929D01*
X024071Y007945D01*
X024061Y007959D01*
X024048Y007972D01*
X024034Y007982D01*
X024018Y007989D01*
X024001Y007993D01*
X023984Y007995D01*
M02*
