G75*
G70*
%OFA0B0*%
%FSLAX24Y24*%
%IPPOS*%
%LPD*%
%AMOC8*
5,1,8,0,0,1.08239X$1,22.5*
%
%ADD10C,0.0640*%
%ADD11C,0.0827*%
%ADD12R,0.0634X0.0634*%
%ADD13C,0.0700*%
%ADD14C,0.0634*%
%ADD15C,0.0560*%
%ADD16C,0.0800*%
%ADD17OC8,0.0640*%
%ADD18OC8,0.1040*%
D10*
X007884Y001095D02*
X008484Y001095D01*
X009384Y001095D02*
X009984Y001095D01*
X011384Y001095D02*
X011984Y001095D01*
X012884Y001095D02*
X013484Y001095D01*
X014884Y001095D02*
X015484Y001095D01*
X016384Y001095D02*
X016984Y001095D01*
X016984Y002095D02*
X016384Y002095D01*
X015484Y002095D02*
X014884Y002095D01*
X014884Y003095D02*
X015484Y003095D01*
X016384Y003095D02*
X016984Y003095D01*
X013484Y003095D02*
X012884Y003095D01*
X011984Y003095D02*
X011384Y003095D01*
X011384Y002095D02*
X011984Y002095D01*
X012884Y002095D02*
X013484Y002095D01*
X009984Y002095D02*
X009384Y002095D01*
X008484Y002095D02*
X007884Y002095D01*
X007884Y003095D02*
X008484Y003095D01*
X009384Y003095D02*
X009984Y003095D01*
X010684Y009670D02*
X010684Y010270D01*
X011684Y010270D02*
X011684Y009670D01*
X012684Y009670D02*
X012684Y010270D01*
X012684Y011170D02*
X012684Y011770D01*
X011684Y011770D02*
X011684Y011170D01*
X010684Y011170D02*
X010684Y011770D01*
X017309Y017545D02*
X017309Y018145D01*
X018309Y018145D02*
X018309Y017545D01*
X019309Y017545D02*
X019309Y018145D01*
X020309Y018145D02*
X020309Y017545D01*
X021309Y017545D02*
X021309Y018145D01*
X022309Y018145D02*
X022309Y017545D01*
X023309Y017545D02*
X023309Y018145D01*
X024309Y018145D02*
X024309Y017545D01*
X025559Y017545D02*
X025559Y018145D01*
X026559Y018145D02*
X026559Y017545D01*
X027559Y017545D02*
X027559Y018145D01*
X028559Y018145D02*
X028559Y017545D01*
X029559Y017545D02*
X029559Y018145D01*
X030559Y018145D02*
X030559Y017545D01*
X031559Y017545D02*
X031559Y018145D01*
X032559Y018145D02*
X032559Y017545D01*
X032609Y015345D02*
X032009Y015345D01*
X032009Y014345D02*
X032609Y014345D01*
X032609Y013345D02*
X032009Y013345D01*
X032009Y012345D02*
X032609Y012345D01*
X032609Y006845D02*
X032009Y006845D01*
X032009Y005845D02*
X032609Y005845D01*
X032609Y004845D02*
X032009Y004845D01*
X030859Y003095D02*
X030259Y003095D01*
X029359Y003095D02*
X028759Y003095D01*
X028759Y002095D02*
X029359Y002095D01*
X030259Y002095D02*
X030859Y002095D01*
X030859Y001095D02*
X030259Y001095D01*
X029359Y001095D02*
X028759Y001095D01*
X027359Y001095D02*
X026759Y001095D01*
X025859Y001095D02*
X025259Y001095D01*
X025259Y002095D02*
X025859Y002095D01*
X026759Y002095D02*
X027359Y002095D01*
X027359Y003095D02*
X026759Y003095D01*
X025859Y003095D02*
X025259Y003095D01*
X023609Y003095D02*
X023009Y003095D01*
X022109Y003095D02*
X021509Y003095D01*
X021509Y002095D02*
X022109Y002095D01*
X023009Y002095D02*
X023609Y002095D01*
X023609Y001095D02*
X023009Y001095D01*
X022109Y001095D02*
X021509Y001095D01*
D11*
X017309Y006595D03*
X017309Y007595D03*
X017309Y008595D03*
X017309Y009595D03*
X017309Y010595D03*
D12*
X001309Y020095D03*
D13*
X001309Y021095D03*
X003309Y021095D03*
D14*
X004309Y021095D03*
X005309Y021095D03*
X006309Y021095D03*
X007309Y021095D03*
X008309Y021095D03*
X009309Y021095D03*
X010309Y021095D03*
X011309Y021095D03*
X012309Y021095D03*
X013309Y021095D03*
X013309Y020095D03*
X012309Y020095D03*
X011309Y020095D03*
X010309Y020095D03*
X009309Y020095D03*
X008309Y020095D03*
X007309Y020095D03*
X006309Y020095D03*
X005309Y020095D03*
X004309Y020095D03*
X003309Y020095D03*
X002309Y020095D03*
X002309Y021095D03*
D15*
X021309Y016230D02*
X021309Y015710D01*
X022309Y015710D02*
X022309Y016230D01*
X023309Y016230D02*
X023309Y015710D01*
X024309Y015710D02*
X024309Y016230D01*
X025309Y016230D02*
X025309Y015710D01*
X026309Y015710D02*
X026309Y016230D01*
X027309Y016230D02*
X027309Y015710D01*
X028309Y015710D02*
X028309Y016230D01*
X029309Y016230D02*
X029309Y015710D01*
D16*
X024559Y009595D03*
X024559Y008595D03*
X024559Y007595D03*
X024559Y006595D03*
X024559Y005595D03*
D17*
X013309Y016095D03*
X012309Y016095D03*
X011309Y016095D03*
X010309Y016095D03*
X009309Y016095D03*
X009309Y017095D03*
X010309Y017095D03*
X011309Y017095D03*
X012309Y017095D03*
X013309Y017095D03*
D18*
X001809Y010595D03*
X001809Y009095D03*
X001809Y007595D03*
X032309Y008470D03*
X032309Y010095D03*
M02*
