G75*
G70*
%OFA0B0*%
%FSLAX24Y24*%
%IPPOS*%
%LPD*%
%AMOC8*
5,1,8,0,0,1.08239X$1,22.5*
%
%ADD10R,0.2100X0.0760*%
%ADD11R,0.0197X0.0591*%
%ADD12R,0.0591X0.0197*%
%ADD13R,0.0870X0.0240*%
%ADD14R,0.2299X0.1551*%
%ADD15R,0.0551X0.1181*%
%ADD16R,0.0512X0.0630*%
%ADD17R,0.0551X0.0394*%
%ADD18R,0.0394X0.0551*%
%ADD19R,0.1575X0.0630*%
%ADD20R,0.0512X0.0591*%
%ADD21R,0.0260X0.0800*%
%ADD22R,0.0480X0.0880*%
%ADD23R,0.1417X0.0866*%
%ADD24R,0.0630X0.0512*%
%ADD25R,0.0472X0.0472*%
%ADD26R,0.0787X0.0591*%
%ADD27R,0.0236X0.0866*%
%ADD28R,0.0630X0.0354*%
%ADD29R,0.0866X0.0551*%
%ADD30R,0.0591X0.0512*%
%ADD31R,0.0591X0.0787*%
D10*
X014034Y013845D03*
X017834Y013845D03*
D11*
X017939Y010879D03*
X018254Y010879D03*
X018569Y010879D03*
X018884Y010879D03*
X017624Y010879D03*
X017309Y010879D03*
X016994Y010879D03*
X016679Y010879D03*
X016364Y010879D03*
X016049Y010879D03*
X015734Y010879D03*
X015734Y006312D03*
X016049Y006312D03*
X016364Y006312D03*
X016679Y006312D03*
X016994Y006312D03*
X017309Y006312D03*
X017624Y006312D03*
X017939Y006312D03*
X018254Y006312D03*
X018569Y006312D03*
X018884Y006312D03*
D12*
X019592Y007021D03*
X019592Y007336D03*
X019592Y007651D03*
X019592Y007966D03*
X019592Y008281D03*
X019592Y008595D03*
X019592Y008910D03*
X019592Y009225D03*
X019592Y009540D03*
X019592Y009855D03*
X019592Y010170D03*
X015025Y010170D03*
X015025Y009855D03*
X015025Y009540D03*
X015025Y009225D03*
X015025Y008910D03*
X015025Y008595D03*
X015025Y008281D03*
X015025Y007966D03*
X015025Y007651D03*
X015025Y007336D03*
X015025Y007021D03*
D13*
X003589Y003595D03*
X003589Y003095D03*
X003589Y002595D03*
X003589Y002095D03*
X001529Y002095D03*
X001529Y002595D03*
X001529Y003095D03*
X001529Y003595D03*
D14*
X005559Y002044D03*
X005559Y005647D03*
D15*
X019309Y002915D03*
X019309Y001026D03*
D16*
X012683Y006470D03*
X011935Y006470D03*
X011935Y007283D03*
X012683Y007283D03*
X010683Y007283D03*
X009935Y007283D03*
X010060Y005720D03*
X010808Y005720D03*
X006058Y010095D03*
X005310Y010095D03*
X007185Y012345D03*
X007933Y012345D03*
X020310Y010720D03*
X021058Y010720D03*
X027685Y012845D03*
X028433Y012845D03*
X029435Y008470D03*
X030183Y008470D03*
D17*
X001876Y001095D03*
X002742Y000721D03*
X002742Y001469D03*
X014001Y006220D03*
X014867Y005846D03*
X014867Y006594D03*
D18*
X011683Y008529D03*
X010935Y008529D03*
X011309Y007662D03*
X004683Y010904D03*
X003935Y010904D03*
X004309Y010037D03*
D19*
X005661Y008095D03*
X008457Y008095D03*
X004332Y017595D03*
X001536Y017595D03*
D20*
X001435Y012845D03*
X002183Y012845D03*
X014935Y012470D03*
X015683Y012470D03*
X016560Y012470D03*
X017308Y012470D03*
X019122Y013033D03*
X019870Y013033D03*
X025560Y009595D03*
X026308Y009595D03*
X026560Y011220D03*
X027308Y011220D03*
X030810Y008470D03*
X031558Y008470D03*
X001933Y004345D03*
X001185Y004345D03*
D21*
X023559Y012135D03*
X024059Y012135D03*
X024559Y012135D03*
X025059Y012135D03*
X025559Y012135D03*
X026059Y012135D03*
X026559Y012135D03*
X027059Y012135D03*
X027059Y014555D03*
X026559Y014555D03*
X026059Y014555D03*
X025559Y014555D03*
X025059Y014555D03*
X024559Y014555D03*
X024059Y014555D03*
X023559Y014555D03*
D22*
X004719Y012875D03*
X003809Y012875D03*
X002899Y012875D03*
D23*
X003809Y015316D03*
D24*
X003184Y010469D03*
X003184Y009721D03*
X027271Y005595D03*
D25*
X006559Y012307D03*
X006559Y013134D03*
D26*
X029922Y007095D03*
X030946Y007095D03*
X030946Y005595D03*
X029922Y005595D03*
D27*
X028809Y007072D03*
X028309Y007072D03*
X027809Y007072D03*
X027309Y007072D03*
X027309Y009119D03*
X027809Y009119D03*
X028309Y009119D03*
X028809Y009119D03*
D28*
X028846Y006147D03*
X028846Y005044D03*
D29*
X029554Y010095D03*
X030814Y010095D03*
D30*
X005434Y012721D03*
X005434Y013469D03*
D31*
X030809Y012959D03*
X030809Y013982D03*
M02*
