G75*
G70*
%OFA0B0*%
%FSLAX24Y24*%
%IPPOS*%
%LPD*%
%AMOC8*
5,1,8,0,0,1.08239X$1,22.5*
%
%ADD10C,0.0000*%
%ADD11C,0.1300*%
%ADD12R,0.2140X0.0800*%
%ADD13C,0.0640*%
%ADD14R,0.0237X0.0631*%
%ADD15R,0.0631X0.0237*%
%ADD16R,0.0910X0.0280*%
%ADD17R,0.2339X0.1591*%
%ADD18R,0.0591X0.1221*%
%ADD19R,0.0552X0.0670*%
%ADD20R,0.0591X0.0434*%
%ADD21R,0.0434X0.0591*%
%ADD22R,0.1615X0.0670*%
%ADD23R,0.0634X0.0634*%
%ADD24C,0.0700*%
%ADD25C,0.0634*%
%ADD26R,0.0552X0.0631*%
%ADD27R,0.0631X0.0552*%
%ADD28C,0.0560*%
%ADD29R,0.0300X0.0840*%
%ADD30R,0.0520X0.0920*%
%ADD31R,0.1457X0.0906*%
%ADD32R,0.0670X0.0552*%
%ADD33C,0.0800*%
%ADD34R,0.0512X0.0512*%
%ADD35R,0.0827X0.0631*%
%ADD36R,0.0276X0.0906*%
%ADD37R,0.0670X0.0394*%
%ADD38R,0.0906X0.0591*%
%ADD39OC8,0.0640*%
%ADD40R,0.0631X0.0827*%
%ADD41C,0.0540*%
%ADD42OC8,0.0890*%
D10*
X014179Y019595D02*
X014181Y019645D01*
X014187Y019695D01*
X014197Y019744D01*
X014211Y019792D01*
X014228Y019839D01*
X014249Y019884D01*
X014274Y019928D01*
X014302Y019969D01*
X014334Y020008D01*
X014368Y020045D01*
X014405Y020079D01*
X014445Y020109D01*
X014487Y020136D01*
X014531Y020160D01*
X014577Y020181D01*
X014624Y020197D01*
X014672Y020210D01*
X014722Y020219D01*
X014771Y020224D01*
X014822Y020225D01*
X014872Y020222D01*
X014921Y020215D01*
X014970Y020204D01*
X015018Y020189D01*
X015064Y020171D01*
X015109Y020149D01*
X015152Y020123D01*
X015193Y020094D01*
X015232Y020062D01*
X015268Y020027D01*
X015300Y019989D01*
X015330Y019949D01*
X015357Y019906D01*
X015380Y019862D01*
X015399Y019816D01*
X015415Y019768D01*
X015427Y019719D01*
X015435Y019670D01*
X015439Y019620D01*
X015439Y019570D01*
X015435Y019520D01*
X015427Y019471D01*
X015415Y019422D01*
X015399Y019374D01*
X015380Y019328D01*
X015357Y019284D01*
X015330Y019241D01*
X015300Y019201D01*
X015268Y019163D01*
X015232Y019128D01*
X015193Y019096D01*
X015152Y019067D01*
X015109Y019041D01*
X015064Y019019D01*
X015018Y019001D01*
X014970Y018986D01*
X014921Y018975D01*
X014872Y018968D01*
X014822Y018965D01*
X014771Y018966D01*
X014722Y018971D01*
X014672Y018980D01*
X014624Y018993D01*
X014577Y019009D01*
X014531Y019030D01*
X014487Y019054D01*
X014445Y019081D01*
X014405Y019111D01*
X014368Y019145D01*
X014334Y019182D01*
X014302Y019221D01*
X014274Y019262D01*
X014249Y019306D01*
X014228Y019351D01*
X014211Y019398D01*
X014197Y019446D01*
X014187Y019495D01*
X014181Y019545D01*
X014179Y019595D01*
X031929Y001345D02*
X031931Y001395D01*
X031937Y001445D01*
X031947Y001494D01*
X031961Y001542D01*
X031978Y001589D01*
X031999Y001634D01*
X032024Y001678D01*
X032052Y001719D01*
X032084Y001758D01*
X032118Y001795D01*
X032155Y001829D01*
X032195Y001859D01*
X032237Y001886D01*
X032281Y001910D01*
X032327Y001931D01*
X032374Y001947D01*
X032422Y001960D01*
X032472Y001969D01*
X032521Y001974D01*
X032572Y001975D01*
X032622Y001972D01*
X032671Y001965D01*
X032720Y001954D01*
X032768Y001939D01*
X032814Y001921D01*
X032859Y001899D01*
X032902Y001873D01*
X032943Y001844D01*
X032982Y001812D01*
X033018Y001777D01*
X033050Y001739D01*
X033080Y001699D01*
X033107Y001656D01*
X033130Y001612D01*
X033149Y001566D01*
X033165Y001518D01*
X033177Y001469D01*
X033185Y001420D01*
X033189Y001370D01*
X033189Y001320D01*
X033185Y001270D01*
X033177Y001221D01*
X033165Y001172D01*
X033149Y001124D01*
X033130Y001078D01*
X033107Y001034D01*
X033080Y000991D01*
X033050Y000951D01*
X033018Y000913D01*
X032982Y000878D01*
X032943Y000846D01*
X032902Y000817D01*
X032859Y000791D01*
X032814Y000769D01*
X032768Y000751D01*
X032720Y000736D01*
X032671Y000725D01*
X032622Y000718D01*
X032572Y000715D01*
X032521Y000716D01*
X032472Y000721D01*
X032422Y000730D01*
X032374Y000743D01*
X032327Y000759D01*
X032281Y000780D01*
X032237Y000804D01*
X032195Y000831D01*
X032155Y000861D01*
X032118Y000895D01*
X032084Y000932D01*
X032052Y000971D01*
X032024Y001012D01*
X031999Y001056D01*
X031978Y001101D01*
X031961Y001148D01*
X031947Y001196D01*
X031937Y001245D01*
X031931Y001295D01*
X031929Y001345D01*
D11*
X032559Y001345D03*
X014809Y019595D03*
D12*
X014034Y013845D03*
X017834Y013845D03*
D13*
X012684Y011770D02*
X012684Y011170D01*
X012684Y010270D02*
X012684Y009670D01*
X011684Y009670D02*
X011684Y010270D01*
X011684Y011170D02*
X011684Y011770D01*
X010684Y011770D02*
X010684Y011170D01*
X010684Y010270D02*
X010684Y009670D01*
X011384Y003095D02*
X011984Y003095D01*
X012884Y003095D02*
X013484Y003095D01*
X013484Y002095D02*
X012884Y002095D01*
X011984Y002095D02*
X011384Y002095D01*
X011384Y001095D02*
X011984Y001095D01*
X012884Y001095D02*
X013484Y001095D01*
X014884Y001095D02*
X015484Y001095D01*
X016384Y001095D02*
X016984Y001095D01*
X016984Y002095D02*
X016384Y002095D01*
X015484Y002095D02*
X014884Y002095D01*
X014884Y003095D02*
X015484Y003095D01*
X016384Y003095D02*
X016984Y003095D01*
X021509Y003095D02*
X022109Y003095D01*
X023009Y003095D02*
X023609Y003095D01*
X023609Y002095D02*
X023009Y002095D01*
X022109Y002095D02*
X021509Y002095D01*
X021509Y001095D02*
X022109Y001095D01*
X023009Y001095D02*
X023609Y001095D01*
X025259Y001095D02*
X025859Y001095D01*
X026759Y001095D02*
X027359Y001095D01*
X027359Y002095D02*
X026759Y002095D01*
X025859Y002095D02*
X025259Y002095D01*
X025259Y003095D02*
X025859Y003095D01*
X026759Y003095D02*
X027359Y003095D01*
X028759Y003095D02*
X029359Y003095D01*
X030259Y003095D02*
X030859Y003095D01*
X030859Y002095D02*
X030259Y002095D01*
X029359Y002095D02*
X028759Y002095D01*
X028759Y001095D02*
X029359Y001095D01*
X030259Y001095D02*
X030859Y001095D01*
X032009Y004845D02*
X032609Y004845D01*
X032609Y005845D02*
X032009Y005845D01*
X032009Y006845D02*
X032609Y006845D01*
X032609Y012345D02*
X032009Y012345D01*
X032009Y013345D02*
X032609Y013345D01*
X032609Y014345D02*
X032009Y014345D01*
X032009Y015345D02*
X032609Y015345D01*
X032559Y017545D02*
X032559Y018145D01*
X031559Y018145D02*
X031559Y017545D01*
X030559Y017545D02*
X030559Y018145D01*
X029559Y018145D02*
X029559Y017545D01*
X028559Y017545D02*
X028559Y018145D01*
X027559Y018145D02*
X027559Y017545D01*
X026559Y017545D02*
X026559Y018145D01*
X025559Y018145D02*
X025559Y017545D01*
X024309Y017545D02*
X024309Y018145D01*
X023309Y018145D02*
X023309Y017545D01*
X022309Y017545D02*
X022309Y018145D01*
X021309Y018145D02*
X021309Y017545D01*
X020309Y017545D02*
X020309Y018145D01*
X019309Y018145D02*
X019309Y017545D01*
X018309Y017545D02*
X018309Y018145D01*
X017309Y018145D02*
X017309Y017545D01*
X009984Y003095D02*
X009384Y003095D01*
X008484Y003095D02*
X007884Y003095D01*
X007884Y002095D02*
X008484Y002095D01*
X009384Y002095D02*
X009984Y002095D01*
X009984Y001095D02*
X009384Y001095D01*
X008484Y001095D02*
X007884Y001095D01*
D14*
X015734Y006312D03*
X016049Y006312D03*
X016364Y006312D03*
X016679Y006312D03*
X016994Y006312D03*
X017309Y006312D03*
X017624Y006312D03*
X017939Y006312D03*
X018254Y006312D03*
X018569Y006312D03*
X018884Y006312D03*
X018884Y010879D03*
X018569Y010879D03*
X018254Y010879D03*
X017939Y010879D03*
X017624Y010879D03*
X017309Y010879D03*
X016994Y010879D03*
X016679Y010879D03*
X016364Y010879D03*
X016049Y010879D03*
X015734Y010879D03*
D15*
X015025Y010170D03*
X015025Y009855D03*
X015025Y009540D03*
X015025Y009225D03*
X015025Y008910D03*
X015025Y008595D03*
X015025Y008281D03*
X015025Y007966D03*
X015025Y007651D03*
X015025Y007336D03*
X015025Y007021D03*
X019592Y007021D03*
X019592Y007336D03*
X019592Y007651D03*
X019592Y007966D03*
X019592Y008281D03*
X019592Y008595D03*
X019592Y008910D03*
X019592Y009225D03*
X019592Y009540D03*
X019592Y009855D03*
X019592Y010170D03*
D16*
X003589Y003595D03*
X003589Y003095D03*
X003589Y002595D03*
X003589Y002095D03*
X001529Y002095D03*
X001529Y002595D03*
X001529Y003095D03*
X001529Y003595D03*
D17*
X005559Y002044D03*
X005559Y005647D03*
D18*
X019309Y002915D03*
X019309Y001026D03*
D19*
X012683Y006470D03*
X011935Y006470D03*
X011935Y007283D03*
X012683Y007283D03*
X010683Y007283D03*
X009935Y007283D03*
X010060Y005720D03*
X010808Y005720D03*
X006058Y010095D03*
X005310Y010095D03*
X007185Y012345D03*
X007933Y012345D03*
X020310Y010720D03*
X021058Y010720D03*
X027685Y013095D03*
X028433Y013095D03*
X029435Y008470D03*
X030183Y008470D03*
D20*
X001876Y001095D03*
X002742Y000721D03*
X002742Y001469D03*
X014001Y006220D03*
X014867Y005846D03*
X014867Y006594D03*
D21*
X011683Y008529D03*
X010935Y008529D03*
X011309Y007662D03*
X004683Y010904D03*
X003935Y010904D03*
X004309Y010037D03*
D22*
X005661Y008095D03*
X008457Y008095D03*
X004332Y017595D03*
X001536Y017595D03*
D23*
X001309Y020095D03*
D24*
X001309Y021095D03*
X003309Y021095D03*
D25*
X004309Y021095D03*
X005309Y021095D03*
X006309Y021095D03*
X007309Y021095D03*
X008309Y021095D03*
X009309Y021095D03*
X010309Y021095D03*
X011309Y021095D03*
X012309Y021095D03*
X013309Y021095D03*
X013309Y020095D03*
X012309Y020095D03*
X011309Y020095D03*
X010309Y020095D03*
X009309Y020095D03*
X008309Y020095D03*
X007309Y020095D03*
X006309Y020095D03*
X005309Y020095D03*
X004309Y020095D03*
X003309Y020095D03*
X002309Y020095D03*
X002309Y021095D03*
D26*
X002183Y012845D03*
X001435Y012845D03*
X001185Y004345D03*
X001933Y004345D03*
X014935Y012470D03*
X015683Y012470D03*
X016560Y012470D03*
X017308Y012470D03*
X019122Y013033D03*
X019870Y013033D03*
X026560Y011220D03*
X027308Y011220D03*
X030810Y008470D03*
X031558Y008470D03*
D27*
X026559Y008846D03*
X026559Y009594D03*
X005434Y012721D03*
X005434Y013469D03*
D28*
X021309Y015710D02*
X021309Y016230D01*
X022309Y016230D02*
X022309Y015710D01*
X023309Y015710D02*
X023309Y016230D01*
X024309Y016230D02*
X024309Y015710D01*
X025309Y015710D02*
X025309Y016230D01*
X026309Y016230D02*
X026309Y015710D01*
X027309Y015710D02*
X027309Y016230D01*
X028309Y016230D02*
X028309Y015710D01*
X029309Y015710D02*
X029309Y016230D01*
D29*
X027059Y014555D03*
X026559Y014555D03*
X026059Y014555D03*
X025559Y014555D03*
X025059Y014555D03*
X024559Y014555D03*
X024059Y014555D03*
X023559Y014555D03*
X023559Y012135D03*
X024059Y012135D03*
X024559Y012135D03*
X025059Y012135D03*
X025559Y012135D03*
X026059Y012135D03*
X026559Y012135D03*
X027059Y012135D03*
D30*
X004719Y012875D03*
X003809Y012875D03*
X002899Y012875D03*
D31*
X003809Y015316D03*
D32*
X003184Y010469D03*
X003184Y009721D03*
X027271Y005595D03*
D33*
X024559Y005595D03*
X024559Y006595D03*
X024559Y007595D03*
X024559Y008595D03*
X024559Y009595D03*
D34*
X006559Y012307D03*
X006559Y013134D03*
D35*
X029922Y007095D03*
X030946Y007095D03*
X030946Y005595D03*
X029922Y005595D03*
D36*
X028809Y007072D03*
X028309Y007072D03*
X027809Y007072D03*
X027309Y007072D03*
X027309Y009119D03*
X027809Y009119D03*
X028309Y009119D03*
X028809Y009119D03*
D37*
X028846Y006147D03*
X028846Y005044D03*
D38*
X029679Y010220D03*
X030939Y010220D03*
D39*
X013309Y016095D03*
X012309Y016095D03*
X011309Y016095D03*
X010309Y016095D03*
X009309Y016095D03*
X009309Y017095D03*
X010309Y017095D03*
X011309Y017095D03*
X012309Y017095D03*
X013309Y017095D03*
D40*
X030809Y013982D03*
X030809Y012959D03*
D41*
X029559Y011845D03*
X019309Y003845D03*
X010059Y012345D03*
X008934Y012345D03*
X006559Y010970D03*
X006309Y016595D03*
D42*
X001246Y014220D03*
X001809Y010095D03*
X001809Y009095D03*
X001809Y008095D03*
X003184Y006220D03*
X032309Y009220D03*
X032309Y010220D03*
M02*
