G75*
G70*
%OFA0B0*%
%FSLAX24Y24*%
%IPPOS*%
%LPD*%
%AMOC8*
5,1,8,0,0,1.08239X$1,22.5*
%
%ADD10C,0.0070*%
%ADD11C,0.0060*%
%ADD12C,0.0040*%
%ADD13C,0.0080*%
D10*
X013539Y004159D02*
X014066Y004159D01*
X014066Y004027D02*
X014066Y004291D01*
X013934Y004423D01*
X013670Y004423D01*
X013539Y004291D01*
X013539Y004159D01*
X013670Y003895D02*
X013934Y003895D01*
X014066Y004027D01*
X014330Y003895D02*
X014462Y004027D01*
X014462Y004554D01*
X014594Y004423D02*
X014330Y004423D01*
X014858Y004423D02*
X015122Y004423D01*
X014990Y004554D02*
X014990Y004027D01*
X014858Y003895D01*
X015386Y004159D02*
X015386Y004291D01*
X015518Y004423D01*
X015782Y004423D01*
X015913Y004291D01*
X015913Y004027D01*
X015782Y003895D01*
X015518Y003895D01*
X015386Y004159D02*
X015913Y004159D01*
X016178Y003895D02*
X016178Y004423D01*
X016705Y004423D02*
X016705Y004027D01*
X016574Y003895D01*
X016178Y003895D01*
X016970Y004159D02*
X016970Y004291D01*
X017102Y004423D01*
X017365Y004423D01*
X017497Y004291D01*
X017497Y004027D01*
X017365Y003895D01*
X017102Y003895D01*
X016970Y004159D02*
X017497Y004159D01*
X017762Y003895D02*
X018025Y003895D01*
X017893Y003895D02*
X017893Y004686D01*
X018025Y004686D01*
X018290Y004554D02*
X018290Y004423D01*
X018422Y004291D01*
X018817Y004291D01*
X018422Y004291D02*
X018290Y004159D01*
X018290Y004027D01*
X018422Y003895D01*
X018817Y003895D01*
X018817Y004686D01*
X018422Y004686D01*
X018290Y004554D01*
D11*
X018438Y004925D02*
X018758Y004925D01*
X018865Y005032D01*
X018865Y005246D01*
X018758Y005353D01*
X018438Y005353D01*
X018220Y005246D02*
X018220Y005032D01*
X018114Y004925D01*
X017900Y004925D01*
X017793Y005032D01*
X017793Y005246D01*
X017900Y005353D01*
X018114Y005353D01*
X018220Y005246D01*
X017576Y005353D02*
X017576Y004925D01*
X017149Y004925D02*
X017149Y005246D01*
X017256Y005353D01*
X017576Y005353D01*
X016931Y005353D02*
X016718Y005353D01*
X016825Y005459D02*
X016825Y005032D01*
X016718Y004925D01*
X016502Y004925D02*
X016502Y005353D01*
X016502Y005139D02*
X016288Y005353D01*
X016181Y005353D01*
X015965Y005246D02*
X015965Y005032D01*
X015858Y004925D01*
X015644Y004925D01*
X015537Y005032D01*
X015537Y005246D01*
X015644Y005353D01*
X015858Y005353D01*
X015965Y005246D01*
X015320Y005566D02*
X015213Y005566D01*
X015213Y004925D01*
X015320Y004925D02*
X015106Y004925D01*
X014890Y004925D02*
X014677Y004925D01*
X014784Y004925D02*
X014784Y005566D01*
X014890Y005566D01*
X014461Y005246D02*
X014354Y005353D01*
X014140Y005353D01*
X014034Y005246D01*
X014034Y005139D01*
X014461Y005139D01*
X014461Y005032D02*
X014461Y005246D01*
X014461Y005032D02*
X014354Y004925D01*
X014140Y004925D01*
X013816Y004925D02*
X013816Y005353D01*
X013602Y005353D02*
X013496Y005353D01*
X013602Y005353D02*
X013816Y005139D01*
X019727Y005032D02*
X019727Y005246D01*
X019834Y005353D01*
X020047Y005353D01*
X020154Y005246D01*
X020154Y005032D01*
X020047Y004925D01*
X019834Y004925D01*
X019727Y005032D01*
X020372Y005353D02*
X020585Y004925D01*
X020799Y005353D01*
X021015Y005353D02*
X021122Y005353D01*
X021336Y005139D01*
X021336Y004925D02*
X021336Y005353D01*
X021553Y005246D02*
X021553Y005139D01*
X021980Y005139D01*
X021980Y005246D02*
X021874Y005353D01*
X021660Y005353D01*
X021553Y005246D01*
X021660Y004925D02*
X021874Y004925D01*
X021980Y005032D01*
X021980Y005246D01*
X022198Y005139D02*
X022198Y005032D01*
X022305Y004925D01*
X022518Y004925D01*
X022625Y005032D01*
X022518Y005246D02*
X022305Y005246D01*
X022198Y005139D01*
X022198Y005459D02*
X022305Y005566D01*
X022518Y005566D01*
X022625Y005459D01*
X022625Y005353D01*
X022518Y005246D01*
D12*
X019276Y006327D02*
X019276Y006787D01*
X019046Y006787D01*
X018969Y006711D01*
X018969Y006557D01*
X019046Y006481D01*
X019276Y006481D01*
X018816Y006404D02*
X018739Y006327D01*
X018586Y006327D01*
X018509Y006404D01*
X018509Y006557D01*
X018662Y006557D01*
X018509Y006711D02*
X018586Y006787D01*
X018739Y006787D01*
X018816Y006711D01*
X018816Y006404D01*
X018356Y006404D02*
X018279Y006327D01*
X018125Y006327D01*
X018049Y006404D01*
X018356Y006404D02*
X018356Y006711D01*
X018279Y006787D01*
X018125Y006787D01*
X018049Y006711D01*
X018125Y007327D02*
X018049Y007404D01*
X018049Y007711D01*
X018125Y007787D01*
X018356Y007787D01*
X018356Y007327D01*
X018125Y007327D01*
X018509Y007404D02*
X018509Y007557D01*
X018662Y007557D01*
X018509Y007404D02*
X018586Y007327D01*
X018739Y007327D01*
X018816Y007404D01*
X018816Y007711D01*
X018739Y007787D01*
X018586Y007787D01*
X018509Y007711D01*
X018969Y007711D02*
X018969Y007557D01*
X019046Y007481D01*
X019276Y007481D01*
X019276Y007327D02*
X019276Y007787D01*
X019046Y007787D01*
X018969Y007711D01*
X019123Y008327D02*
X018969Y008481D01*
X018969Y008787D01*
X018816Y008711D02*
X018816Y008634D01*
X018739Y008557D01*
X018586Y008557D01*
X018509Y008481D01*
X018509Y008404D01*
X018586Y008327D01*
X018739Y008327D01*
X018816Y008404D01*
X019123Y008327D02*
X019276Y008481D01*
X019276Y008787D01*
X018816Y008711D02*
X018739Y008787D01*
X018586Y008787D01*
X018509Y008711D01*
X018356Y008711D02*
X018356Y008634D01*
X018279Y008557D01*
X018125Y008557D01*
X018049Y008481D01*
X018049Y008404D01*
X018125Y008327D01*
X018279Y008327D01*
X018356Y008404D01*
X018356Y008711D02*
X018279Y008787D01*
X018125Y008787D01*
X018049Y008711D01*
X018125Y009327D02*
X018049Y009404D01*
X018049Y009711D01*
X018125Y009787D01*
X018356Y009787D01*
X018356Y009327D01*
X018125Y009327D01*
X018509Y009404D02*
X018509Y009711D01*
X018586Y009787D01*
X018816Y009787D01*
X018816Y009327D01*
X018586Y009327D01*
X018509Y009404D01*
X018969Y009481D02*
X018969Y009787D01*
X018969Y009481D02*
X019123Y009327D01*
X019276Y009481D01*
X019276Y009787D01*
X019200Y010327D02*
X019276Y010404D01*
X019200Y010327D02*
X019046Y010327D01*
X018969Y010404D01*
X018969Y010481D01*
X019046Y010557D01*
X019200Y010557D01*
X019276Y010634D01*
X019276Y010711D01*
X019200Y010787D01*
X019046Y010787D01*
X018969Y010711D01*
X018816Y010787D02*
X018816Y010327D01*
X018509Y010327D01*
X018662Y010557D02*
X018816Y010557D01*
X018816Y010787D02*
X018509Y010787D01*
X018356Y010787D02*
X018049Y010787D01*
X018202Y010787D02*
X018202Y010327D01*
X019430Y010327D02*
X019737Y010327D01*
X019737Y010787D01*
X019430Y010787D01*
X019583Y010557D02*
X019737Y010557D01*
X019890Y010557D02*
X019967Y010481D01*
X020197Y010481D01*
X020044Y010481D02*
X019890Y010327D01*
X019890Y010557D02*
X019890Y010711D01*
X019967Y010787D01*
X020197Y010787D01*
X020197Y010327D01*
D13*
X012964Y007975D02*
X012434Y008075D01*
X012434Y008525D01*
X012954Y008625D01*
X013144Y009085D02*
X012844Y009515D01*
X013174Y009845D01*
X013594Y009555D01*
X013774Y009655D01*
X014104Y008855D01*
X014674Y008855D02*
X015004Y009655D01*
X015184Y009555D01*
X015604Y009835D01*
X015924Y009515D01*
X015634Y009085D01*
X015814Y008625D02*
X016334Y008525D01*
X016334Y008075D01*
X015804Y007975D01*
X015614Y007535D02*
X015924Y007085D01*
X015604Y006765D01*
X015144Y007075D01*
X014714Y006895D02*
X014614Y006355D01*
X014154Y006355D01*
X014054Y006895D01*
X013624Y007075D02*
X013174Y006765D01*
X012844Y007085D01*
X013154Y007535D01*
X013624Y007075D02*
X013682Y007042D01*
X013741Y007012D01*
X013802Y006985D01*
X013863Y006961D01*
X013926Y006939D01*
X013990Y006920D01*
X014054Y006905D01*
X013154Y007535D02*
X013118Y007593D01*
X013085Y007654D01*
X013054Y007716D01*
X013027Y007779D01*
X013003Y007843D01*
X012982Y007909D01*
X012964Y007975D01*
X014714Y006905D02*
X014788Y006924D01*
X014860Y006947D01*
X014931Y006974D01*
X015001Y007004D01*
X015068Y007038D01*
X015134Y007075D01*
X014674Y008855D02*
X014716Y008831D01*
X014755Y008803D01*
X014792Y008772D01*
X014827Y008738D01*
X014859Y008702D01*
X014887Y008663D01*
X014913Y008622D01*
X014935Y008579D01*
X014953Y008534D01*
X014968Y008488D01*
X014980Y008441D01*
X014987Y008394D01*
X014991Y008346D01*
X014990Y008297D01*
X014986Y008249D01*
X014978Y008202D01*
X014966Y008155D01*
X014951Y008109D01*
X014932Y008065D01*
X014909Y008022D01*
X014883Y007981D01*
X014854Y007943D01*
X014822Y007907D01*
X014787Y007873D01*
X014749Y007843D01*
X014710Y007816D01*
X014668Y007791D01*
X014624Y007771D01*
X014579Y007754D01*
X014533Y007740D01*
X014485Y007731D01*
X014437Y007725D01*
X014389Y007723D01*
X014341Y007725D01*
X014293Y007731D01*
X014245Y007740D01*
X014199Y007754D01*
X014154Y007771D01*
X014110Y007791D01*
X014068Y007816D01*
X014029Y007843D01*
X013991Y007873D01*
X013956Y007907D01*
X013924Y007943D01*
X013895Y007981D01*
X013869Y008022D01*
X013846Y008065D01*
X013827Y008109D01*
X013812Y008155D01*
X013800Y008202D01*
X013792Y008249D01*
X013788Y008297D01*
X013787Y008346D01*
X013791Y008394D01*
X013798Y008441D01*
X013810Y008488D01*
X013825Y008534D01*
X013843Y008579D01*
X013865Y008622D01*
X013891Y008663D01*
X013919Y008702D01*
X013951Y008738D01*
X013986Y008772D01*
X014023Y008803D01*
X014062Y008831D01*
X014104Y008855D01*
X013144Y009086D02*
X013109Y009024D01*
X013076Y008961D01*
X013047Y008896D01*
X013022Y008830D01*
X012999Y008763D01*
X012980Y008695D01*
X012964Y008625D01*
X015614Y007536D02*
X015650Y007595D01*
X015683Y007655D01*
X015713Y007717D01*
X015740Y007780D01*
X015765Y007844D01*
X015786Y007910D01*
X015804Y007976D01*
X015814Y008625D02*
X015798Y008695D01*
X015779Y008763D01*
X015756Y008830D01*
X015731Y008896D01*
X015702Y008961D01*
X015669Y009024D01*
X015634Y009086D01*
M02*
