G75*
G70*
%OFA0B0*%
%FSLAX24Y24*%
%IPPOS*%
%LPD*%
%AMOC8*
5,1,8,0,0,1.08239X$1,22.5*
%
%ADD10R,0.2100X0.0760*%
%ADD11R,0.0197X0.0591*%
%ADD12R,0.0591X0.0197*%
%ADD13R,0.0870X0.0240*%
%ADD14R,0.2299X0.1551*%
%ADD15R,0.0551X0.1181*%
%ADD16R,0.0512X0.0630*%
%ADD17R,0.0551X0.0394*%
%ADD18R,0.0394X0.0551*%
%ADD19R,0.1575X0.0630*%
%ADD20R,0.0512X0.0591*%
%ADD21R,0.0591X0.0512*%
%ADD22R,0.0260X0.0800*%
%ADD23R,0.0480X0.0880*%
%ADD24R,0.1417X0.0866*%
%ADD25R,0.0630X0.0512*%
%ADD26R,0.0472X0.0472*%
%ADD27R,0.0787X0.0591*%
%ADD28R,0.0236X0.0866*%
%ADD29R,0.0630X0.0354*%
%ADD30R,0.0866X0.0551*%
%ADD31R,0.0591X0.0787*%
%ADD32C,0.0000*%
D10*
X014159Y013845D03*
X017959Y013845D03*
D11*
X018064Y010879D03*
X018379Y010879D03*
X018694Y010879D03*
X019009Y010879D03*
X017749Y010879D03*
X017434Y010879D03*
X017119Y010879D03*
X016804Y010879D03*
X016489Y010879D03*
X016174Y010879D03*
X015859Y010879D03*
X015859Y006312D03*
X016174Y006312D03*
X016489Y006312D03*
X016804Y006312D03*
X017119Y006312D03*
X017434Y006312D03*
X017749Y006312D03*
X018064Y006312D03*
X018379Y006312D03*
X018694Y006312D03*
X019009Y006312D03*
D12*
X019717Y007021D03*
X019717Y007336D03*
X019717Y007651D03*
X019717Y007966D03*
X019717Y008281D03*
X019717Y008595D03*
X019717Y008910D03*
X019717Y009225D03*
X019717Y009540D03*
X019717Y009855D03*
X019717Y010170D03*
X015150Y010170D03*
X015150Y009855D03*
X015150Y009540D03*
X015150Y009225D03*
X015150Y008910D03*
X015150Y008595D03*
X015150Y008281D03*
X015150Y007966D03*
X015150Y007651D03*
X015150Y007336D03*
X015150Y007021D03*
D13*
X003714Y003595D03*
X003714Y003095D03*
X003714Y002595D03*
X003714Y002095D03*
X001654Y002095D03*
X001654Y002595D03*
X001654Y003095D03*
X001654Y003595D03*
D14*
X005684Y002044D03*
X005684Y005647D03*
D15*
X019434Y002915D03*
X019434Y001026D03*
D16*
X013183Y006470D03*
X012435Y006470D03*
X012435Y007283D03*
X013183Y007283D03*
X010683Y005220D03*
X009935Y005220D03*
X006183Y010095D03*
X005435Y010095D03*
X007310Y012345D03*
X008058Y012345D03*
X020435Y010720D03*
X021183Y010720D03*
X027810Y013970D03*
X028558Y013970D03*
X029560Y008470D03*
X030308Y008470D03*
D17*
X001501Y001095D03*
X002367Y000721D03*
X002367Y001469D03*
X014126Y006220D03*
X014992Y005846D03*
X014992Y006594D03*
X010867Y013346D03*
X010001Y013720D03*
X010867Y014094D03*
D18*
X004808Y010904D03*
X004060Y010904D03*
X004434Y010037D03*
D19*
X005786Y008095D03*
X008582Y008095D03*
X004457Y017595D03*
X001661Y017595D03*
D20*
X001560Y012845D03*
X002308Y012845D03*
X001933Y004345D03*
X001185Y004345D03*
X015060Y012470D03*
X015808Y012470D03*
X016685Y012470D03*
X017433Y012470D03*
X026685Y012095D03*
X027433Y012095D03*
X030935Y008470D03*
X031683Y008470D03*
D21*
X026684Y008846D03*
X026684Y009594D03*
X019871Y013034D03*
X019871Y013782D03*
X005559Y013469D03*
X005559Y012721D03*
D22*
X023684Y013135D03*
X024184Y013135D03*
X024684Y013135D03*
X025184Y013135D03*
X025684Y013135D03*
X026184Y013135D03*
X026684Y013135D03*
X027184Y013135D03*
X027184Y015555D03*
X026684Y015555D03*
X026184Y015555D03*
X025684Y015555D03*
X025184Y015555D03*
X024684Y015555D03*
X024184Y015555D03*
X023684Y015555D03*
D23*
X004844Y012875D03*
X003934Y012875D03*
X003024Y012875D03*
D24*
X003934Y015316D03*
D25*
X003309Y010469D03*
X003309Y009721D03*
X012434Y008844D03*
X012434Y008096D03*
X027396Y005595D03*
D26*
X006684Y012307D03*
X006684Y013134D03*
D27*
X030047Y007095D03*
X031071Y007095D03*
X031071Y005595D03*
X030047Y005595D03*
D28*
X028934Y007072D03*
X028434Y007072D03*
X027934Y007072D03*
X027434Y007072D03*
X027434Y009119D03*
X027934Y009119D03*
X028434Y009119D03*
X028934Y009119D03*
D29*
X028971Y006147D03*
X028971Y005044D03*
D30*
X030054Y010220D03*
X031314Y010220D03*
D31*
X030934Y012334D03*
X030934Y013357D03*
D32*
X031468Y017220D02*
X031470Y017268D01*
X031476Y017316D01*
X031486Y017363D01*
X031499Y017409D01*
X031517Y017454D01*
X031537Y017498D01*
X031562Y017540D01*
X031590Y017579D01*
X031620Y017616D01*
X031654Y017650D01*
X031691Y017682D01*
X031729Y017711D01*
X031770Y017736D01*
X031813Y017758D01*
X031858Y017776D01*
X031904Y017790D01*
X031951Y017801D01*
X031999Y017808D01*
X032047Y017811D01*
X032095Y017810D01*
X032143Y017805D01*
X032191Y017796D01*
X032237Y017784D01*
X032282Y017767D01*
X032326Y017747D01*
X032368Y017724D01*
X032408Y017697D01*
X032446Y017667D01*
X032481Y017634D01*
X032513Y017598D01*
X032543Y017560D01*
X032569Y017519D01*
X032591Y017476D01*
X032611Y017432D01*
X032626Y017387D01*
X032638Y017340D01*
X032646Y017292D01*
X032650Y017244D01*
X032650Y017196D01*
X032646Y017148D01*
X032638Y017100D01*
X032626Y017053D01*
X032611Y017008D01*
X032591Y016964D01*
X032569Y016921D01*
X032543Y016880D01*
X032513Y016842D01*
X032481Y016806D01*
X032446Y016773D01*
X032408Y016743D01*
X032368Y016716D01*
X032326Y016693D01*
X032282Y016673D01*
X032237Y016656D01*
X032191Y016644D01*
X032143Y016635D01*
X032095Y016630D01*
X032047Y016629D01*
X031999Y016632D01*
X031951Y016639D01*
X031904Y016650D01*
X031858Y016664D01*
X031813Y016682D01*
X031770Y016704D01*
X031729Y016729D01*
X031691Y016758D01*
X031654Y016790D01*
X031620Y016824D01*
X031590Y016861D01*
X031562Y016900D01*
X031537Y016942D01*
X031517Y016986D01*
X031499Y017031D01*
X031486Y017077D01*
X031476Y017124D01*
X031470Y017172D01*
X031468Y017220D01*
X009905Y007220D02*
X009907Y007268D01*
X009913Y007316D01*
X009923Y007363D01*
X009936Y007409D01*
X009954Y007454D01*
X009974Y007498D01*
X009999Y007540D01*
X010027Y007579D01*
X010057Y007616D01*
X010091Y007650D01*
X010128Y007682D01*
X010166Y007711D01*
X010207Y007736D01*
X010250Y007758D01*
X010295Y007776D01*
X010341Y007790D01*
X010388Y007801D01*
X010436Y007808D01*
X010484Y007811D01*
X010532Y007810D01*
X010580Y007805D01*
X010628Y007796D01*
X010674Y007784D01*
X010719Y007767D01*
X010763Y007747D01*
X010805Y007724D01*
X010845Y007697D01*
X010883Y007667D01*
X010918Y007634D01*
X010950Y007598D01*
X010980Y007560D01*
X011006Y007519D01*
X011028Y007476D01*
X011048Y007432D01*
X011063Y007387D01*
X011075Y007340D01*
X011083Y007292D01*
X011087Y007244D01*
X011087Y007196D01*
X011083Y007148D01*
X011075Y007100D01*
X011063Y007053D01*
X011048Y007008D01*
X011028Y006964D01*
X011006Y006921D01*
X010980Y006880D01*
X010950Y006842D01*
X010918Y006806D01*
X010883Y006773D01*
X010845Y006743D01*
X010805Y006716D01*
X010763Y006693D01*
X010719Y006673D01*
X010674Y006656D01*
X010628Y006644D01*
X010580Y006635D01*
X010532Y006630D01*
X010484Y006629D01*
X010436Y006632D01*
X010388Y006639D01*
X010341Y006650D01*
X010295Y006664D01*
X010250Y006682D01*
X010207Y006704D01*
X010166Y006729D01*
X010128Y006758D01*
X010091Y006790D01*
X010057Y006824D01*
X010027Y006861D01*
X009999Y006900D01*
X009974Y006942D01*
X009954Y006986D01*
X009936Y007031D01*
X009923Y007077D01*
X009913Y007124D01*
X009907Y007172D01*
X009905Y007220D01*
M02*
