G75*
G70*
%OFA0B0*%
%FSLAX24Y24*%
%IPPOS*%
%LPD*%
%AMOC8*
5,1,8,0,0,1.08239X$1,22.5*
%
%ADD10C,0.0070*%
%ADD11C,0.0080*%
%ADD12C,0.0040*%
%ADD13C,0.0060*%
%ADD14C,0.0001*%
%ADD15C,0.0020*%
%ADD16C,0.0050*%
%ADD17C,0.0100*%
%ADD18C,0.0030*%
%ADD19C,0.0260*%
%ADD20R,0.0260X0.0300*%
%ADD21R,0.0260X0.0260*%
%ADD22R,0.0079X0.0079*%
D10*
X003481Y018520D02*
X003876Y018520D01*
X004008Y018652D01*
X004008Y018784D01*
X003876Y018916D01*
X003481Y018916D01*
X003481Y019311D02*
X003481Y018520D01*
X003876Y018916D02*
X004008Y019048D01*
X004008Y019179D01*
X003876Y019311D01*
X003481Y019311D01*
X004273Y019311D02*
X004405Y019311D01*
X004405Y018520D01*
X004536Y018520D02*
X004273Y018520D01*
X004801Y018652D02*
X004801Y018916D01*
X004933Y019048D01*
X005196Y019048D01*
X005328Y018916D01*
X005328Y018784D01*
X004801Y018784D01*
X004801Y018652D02*
X004933Y018520D01*
X005196Y018520D01*
X005593Y018652D02*
X005724Y018520D01*
X006120Y018520D01*
X006120Y019048D01*
X006384Y018916D02*
X006516Y019048D01*
X006780Y019048D01*
X006912Y018916D01*
X006912Y018784D01*
X006384Y018784D01*
X006384Y018652D02*
X006384Y018916D01*
X006384Y018652D02*
X006516Y018520D01*
X006780Y018520D01*
X007308Y018652D02*
X007308Y019179D01*
X007176Y019048D02*
X007440Y019048D01*
X007704Y019048D02*
X007968Y019048D01*
X007836Y019179D02*
X007836Y018652D01*
X007968Y018520D01*
X008232Y018652D02*
X008232Y018916D01*
X008364Y019048D01*
X008628Y019048D01*
X008759Y018916D01*
X008759Y018784D01*
X008232Y018784D01*
X008232Y018652D02*
X008364Y018520D01*
X008628Y018520D01*
X009024Y018520D02*
X009024Y019311D01*
X009419Y019311D01*
X009551Y019179D01*
X009551Y018916D01*
X009419Y018784D01*
X009024Y018784D01*
X009816Y018520D02*
X010080Y018520D01*
X009948Y018520D02*
X009948Y019048D01*
X009816Y019048D01*
X009948Y019311D02*
X009948Y019443D01*
X007440Y018520D02*
X007308Y018652D01*
X005593Y018652D02*
X005593Y019048D01*
D11*
X004838Y015221D02*
X004224Y015221D01*
X005099Y014795D02*
X002519Y014795D01*
X002519Y013395D01*
X005099Y013395D01*
X005099Y014795D01*
X015419Y010328D02*
X015577Y010485D01*
X019041Y010485D01*
X019199Y010328D01*
X019199Y006863D01*
X019041Y006706D01*
X015577Y006706D01*
X015419Y006863D01*
X015419Y010328D01*
X006888Y006080D02*
X006888Y001621D01*
X004230Y001621D02*
X004230Y006080D01*
X027331Y005992D02*
X027331Y006324D01*
X028412Y006324D01*
X028787Y005824D02*
X028787Y005367D01*
X028412Y004867D02*
X027331Y004867D01*
X027331Y005199D01*
X031929Y002135D02*
X032019Y002225D01*
X032149Y002135D01*
X032269Y002185D01*
X032299Y002345D01*
X032429Y002345D01*
X032459Y002185D01*
X032579Y002135D01*
X032719Y002225D01*
X032809Y002135D01*
X032719Y002005D01*
X032769Y001885D01*
X032919Y001855D01*
X032919Y001725D01*
X032779Y001695D01*
X032719Y001565D01*
X032809Y001435D01*
X032719Y001345D01*
X032599Y001425D01*
X032539Y001395D01*
X032449Y001625D01*
X032289Y001625D02*
X032189Y001395D01*
X032139Y001425D01*
X032019Y001345D01*
X031929Y001435D01*
X032009Y001565D01*
X031959Y001695D01*
X031809Y001725D01*
X031809Y001855D01*
X031959Y001875D01*
X032019Y002005D01*
X031929Y002135D01*
X032289Y001625D02*
X032267Y001638D01*
X032247Y001654D01*
X032229Y001673D01*
X032214Y001695D01*
X032203Y001718D01*
X032195Y001743D01*
X032191Y001768D01*
X032190Y001794D01*
X032193Y001820D01*
X032200Y001845D01*
X032211Y001868D01*
X032224Y001890D01*
X032241Y001910D01*
X032260Y001927D01*
X032282Y001942D01*
X032306Y001952D01*
X032330Y001960D01*
X032356Y001964D01*
X032382Y001964D01*
X032408Y001960D01*
X032432Y001952D01*
X032456Y001942D01*
X032478Y001927D01*
X032497Y001910D01*
X032514Y001890D01*
X032527Y001868D01*
X032538Y001845D01*
X032545Y001820D01*
X032548Y001794D01*
X032547Y001768D01*
X032543Y001743D01*
X032535Y001718D01*
X032524Y001695D01*
X032509Y001673D01*
X032491Y001654D01*
X032471Y001638D01*
X032449Y001625D01*
D12*
X001013Y001115D02*
X000783Y001115D01*
X000783Y001576D01*
X001013Y001576D01*
X001090Y001499D01*
X001090Y001192D01*
X001013Y001115D01*
X001243Y001115D02*
X001550Y001422D01*
X001550Y001499D01*
X001474Y001576D01*
X001320Y001576D01*
X001243Y001499D01*
X001243Y001115D02*
X001550Y001115D01*
X004079Y001144D02*
X004309Y001144D01*
X004386Y001221D01*
X004386Y001374D01*
X004309Y001451D01*
X004079Y001451D01*
X004079Y000990D01*
X004232Y001144D02*
X004386Y000990D01*
X004539Y001067D02*
X004616Y000990D01*
X004769Y000990D01*
X004846Y001067D01*
X004846Y001144D01*
X004769Y001221D01*
X004616Y001221D01*
X004539Y001297D01*
X004539Y001374D01*
X004616Y001451D01*
X004769Y001451D01*
X004846Y001374D01*
X005000Y001451D02*
X005000Y000990D01*
X005307Y000990D01*
X005460Y000990D02*
X005460Y001451D01*
X005767Y000990D01*
X005767Y001451D01*
X005920Y001374D02*
X005920Y001297D01*
X005997Y001221D01*
X006151Y001221D01*
X006227Y001144D01*
X006227Y001067D01*
X006151Y000990D01*
X005997Y000990D01*
X005920Y001067D01*
X006381Y000990D02*
X006688Y000990D01*
X006534Y001221D02*
X006381Y001221D01*
X006227Y001374D02*
X006151Y001451D01*
X005997Y001451D01*
X005920Y001374D01*
X006381Y001451D02*
X006381Y000990D01*
X006381Y001451D02*
X006688Y001451D01*
X005307Y001451D02*
X005000Y001451D01*
X005000Y001221D02*
X005153Y001221D01*
X002224Y004740D02*
X002070Y004740D01*
X001993Y004817D01*
X001840Y004817D02*
X001763Y004740D01*
X001610Y004740D01*
X001533Y004817D01*
X001533Y005124D01*
X001610Y005201D01*
X001763Y005201D01*
X001840Y005124D01*
X001993Y005201D02*
X001993Y004971D01*
X002147Y005047D01*
X002224Y005047D01*
X002300Y004971D01*
X002300Y004817D01*
X002224Y004740D01*
X002300Y005201D02*
X001993Y005201D01*
X005445Y007387D02*
X005445Y007702D01*
X005445Y007387D02*
X006350Y006481D01*
X008673Y006481D01*
X008673Y007702D01*
X009783Y008240D02*
X010013Y008240D01*
X010090Y008317D01*
X010090Y008624D01*
X010013Y008701D01*
X009783Y008701D01*
X009783Y008240D01*
X010243Y008317D02*
X010320Y008240D01*
X010474Y008240D01*
X010550Y008317D01*
X010550Y008394D01*
X010474Y008471D01*
X010243Y008471D01*
X010243Y008317D01*
X010243Y008471D02*
X010397Y008624D01*
X010550Y008701D01*
X012079Y008138D02*
X012309Y008138D01*
X012386Y008062D01*
X012386Y007908D01*
X012309Y007831D01*
X012079Y007831D01*
X012079Y007678D02*
X012079Y008138D01*
X012232Y007831D02*
X012386Y007678D01*
X012539Y007678D02*
X012846Y007678D01*
X012693Y007678D02*
X012693Y008138D01*
X012539Y007985D01*
X013000Y008062D02*
X013000Y007755D01*
X013307Y008062D01*
X013307Y007755D01*
X013230Y007678D01*
X013076Y007678D01*
X013000Y007755D01*
X013000Y008062D02*
X013076Y008138D01*
X013230Y008138D01*
X013307Y008062D01*
X012772Y006076D02*
X012772Y005615D01*
X012925Y005615D02*
X012618Y005615D01*
X012465Y005615D02*
X012158Y005615D01*
X012005Y005615D02*
X011851Y005769D01*
X011928Y005769D02*
X011698Y005769D01*
X011698Y005615D02*
X011698Y006076D01*
X011928Y006076D01*
X012005Y005999D01*
X012005Y005846D01*
X011928Y005769D01*
X012158Y005922D02*
X012312Y006076D01*
X012312Y005615D01*
X012618Y005922D02*
X012772Y006076D01*
X013908Y005374D02*
X013985Y005451D01*
X014138Y005451D01*
X014215Y005374D01*
X014215Y005067D01*
X014138Y004990D01*
X013985Y004990D01*
X013908Y005067D01*
X013908Y005374D01*
X014062Y005144D02*
X014215Y004990D01*
X014368Y005221D02*
X014675Y005221D01*
X014599Y005451D02*
X014599Y004990D01*
X014368Y005221D02*
X014599Y005451D01*
X010925Y005249D02*
X010849Y005326D01*
X010695Y005326D01*
X010618Y005249D01*
X010925Y005249D02*
X010925Y005172D01*
X010618Y004865D01*
X010925Y004865D01*
X010465Y004865D02*
X010158Y004865D01*
X010005Y004865D02*
X009851Y005019D01*
X009928Y005019D02*
X009698Y005019D01*
X009698Y004865D02*
X009698Y005326D01*
X009928Y005326D01*
X010005Y005249D01*
X010005Y005096D01*
X009928Y005019D01*
X010158Y005172D02*
X010312Y005326D01*
X010312Y004865D01*
X010241Y006303D02*
X010164Y006380D01*
X010241Y006303D02*
X010394Y006303D01*
X010471Y006380D01*
X010471Y006687D01*
X010394Y006763D01*
X010241Y006763D01*
X010164Y006687D01*
X010164Y006610D01*
X010241Y006533D01*
X010471Y006533D01*
X010011Y006533D02*
X009934Y006456D01*
X009704Y006456D01*
X009704Y006303D02*
X009704Y006763D01*
X009934Y006763D01*
X010011Y006687D01*
X010011Y006533D01*
X009857Y006456D02*
X010011Y006303D01*
X008575Y007741D02*
X008555Y007664D01*
X008532Y007589D01*
X008504Y007515D01*
X008473Y007443D01*
X008438Y007372D01*
X008400Y007303D01*
X008358Y007237D01*
X008313Y007172D01*
X008265Y007110D01*
X008213Y007050D01*
X008159Y006993D01*
X008102Y006939D01*
X008042Y006887D01*
X007980Y006839D01*
X007915Y006794D01*
X007848Y006753D01*
X007779Y006715D01*
X007708Y006680D01*
X007636Y006649D01*
X007562Y006621D01*
X007487Y006598D01*
X007411Y006578D01*
X007333Y006562D01*
X007255Y006550D01*
X007177Y006542D01*
X007098Y006538D01*
X007020Y006538D01*
X006941Y006542D01*
X006863Y006550D01*
X006785Y006562D01*
X006707Y006578D01*
X006631Y006598D01*
X006556Y006621D01*
X006482Y006649D01*
X006410Y006680D01*
X006339Y006715D01*
X006270Y006753D01*
X006203Y006794D01*
X006138Y006839D01*
X006076Y006887D01*
X006016Y006939D01*
X005959Y006993D01*
X005905Y007050D01*
X005853Y007110D01*
X005805Y007172D01*
X005760Y007237D01*
X005718Y007303D01*
X005680Y007372D01*
X005645Y007443D01*
X005614Y007515D01*
X005586Y007589D01*
X005563Y007664D01*
X005543Y007741D01*
X005445Y008489D02*
X005445Y008804D01*
X006350Y009710D01*
X008673Y009710D01*
X008673Y008489D01*
X008575Y008449D02*
X008555Y008526D01*
X008532Y008601D01*
X008504Y008675D01*
X008473Y008747D01*
X008438Y008818D01*
X008400Y008887D01*
X008358Y008953D01*
X008313Y009018D01*
X008265Y009080D01*
X008213Y009140D01*
X008159Y009197D01*
X008102Y009251D01*
X008042Y009303D01*
X007980Y009351D01*
X007915Y009396D01*
X007848Y009437D01*
X007779Y009475D01*
X007708Y009510D01*
X007636Y009541D01*
X007562Y009569D01*
X007487Y009592D01*
X007411Y009612D01*
X007333Y009628D01*
X007255Y009640D01*
X007177Y009648D01*
X007098Y009652D01*
X007020Y009652D01*
X006941Y009648D01*
X006863Y009640D01*
X006785Y009628D01*
X006707Y009612D01*
X006631Y009592D01*
X006556Y009569D01*
X006482Y009541D01*
X006410Y009510D01*
X006339Y009475D01*
X006270Y009437D01*
X006203Y009396D01*
X006138Y009351D01*
X006076Y009303D01*
X006016Y009251D01*
X005959Y009197D01*
X005905Y009140D01*
X005853Y009080D01*
X005805Y009018D01*
X005760Y008953D01*
X005718Y008887D01*
X005680Y008818D01*
X005645Y008747D01*
X005614Y008675D01*
X005586Y008601D01*
X005563Y008526D01*
X005543Y008449D01*
X004675Y009192D02*
X004599Y009115D01*
X004445Y009115D01*
X004368Y009192D01*
X004215Y009192D02*
X004215Y009499D01*
X004138Y009576D01*
X003908Y009576D01*
X003908Y009115D01*
X004138Y009115D01*
X004215Y009192D01*
X004522Y009346D02*
X004599Y009346D01*
X004675Y009269D01*
X004675Y009192D01*
X004599Y009346D02*
X004675Y009422D01*
X004675Y009499D01*
X004599Y009576D01*
X004445Y009576D01*
X004368Y009499D01*
X003596Y010865D02*
X003289Y010865D01*
X003136Y010865D02*
X002982Y011019D01*
X003059Y011019D02*
X002829Y011019D01*
X002829Y010865D02*
X002829Y011326D01*
X003059Y011326D01*
X003136Y011249D01*
X003136Y011096D01*
X003059Y011019D01*
X003289Y011172D02*
X003443Y011326D01*
X003443Y010865D01*
X002175Y011942D02*
X002099Y011865D01*
X001945Y011865D01*
X001868Y011942D01*
X001715Y011942D02*
X001638Y011865D01*
X001485Y011865D01*
X001408Y011942D01*
X001408Y012249D01*
X001485Y012326D01*
X001638Y012326D01*
X001715Y012249D01*
X001868Y012249D02*
X001945Y012326D01*
X002099Y012326D01*
X002175Y012249D01*
X002175Y012172D01*
X002099Y012096D01*
X002175Y012019D01*
X002175Y011942D01*
X002099Y012096D02*
X002022Y012096D01*
X002470Y012415D02*
X002656Y012415D01*
X002563Y012415D02*
X002563Y012696D01*
X002470Y012602D01*
X003321Y012645D02*
X003367Y012692D01*
X003461Y012692D01*
X003508Y012645D01*
X003508Y012599D01*
X003321Y012412D01*
X003508Y012412D01*
X004231Y012462D02*
X004277Y012415D01*
X004371Y012415D01*
X004418Y012462D01*
X004418Y012509D01*
X004371Y012556D01*
X004324Y012556D01*
X004371Y012556D02*
X004418Y012602D01*
X004418Y012649D01*
X004371Y012696D01*
X004277Y012696D01*
X004231Y012649D01*
X004453Y012692D02*
X004453Y012846D01*
X004530Y012922D01*
X004684Y013076D02*
X004684Y013383D01*
X004914Y013306D02*
X004453Y013306D01*
X004684Y013076D01*
X004837Y012922D02*
X004914Y012846D01*
X004914Y012692D01*
X004837Y012615D01*
X004530Y012615D01*
X004453Y012692D01*
X005578Y012701D02*
X006039Y012701D01*
X006039Y013008D01*
X006039Y013161D02*
X005578Y013161D01*
X005578Y013391D01*
X005655Y013468D01*
X005962Y013468D01*
X006039Y013391D01*
X006039Y013161D01*
X005809Y012854D02*
X005809Y012701D01*
X005578Y012701D02*
X005578Y013008D01*
X006039Y012547D02*
X006039Y012240D01*
X005578Y012240D01*
X006698Y011826D02*
X006928Y011826D01*
X007005Y011749D01*
X007005Y011596D01*
X006928Y011519D01*
X006698Y011519D01*
X006851Y011519D02*
X007005Y011365D01*
X007158Y011365D02*
X007465Y011365D01*
X007312Y011365D02*
X007312Y011826D01*
X007158Y011672D01*
X007618Y011596D02*
X007925Y011596D01*
X007849Y011826D02*
X007849Y011365D01*
X007618Y011596D02*
X007849Y011826D01*
X006698Y011826D02*
X006698Y011365D01*
X006638Y010326D02*
X006408Y010326D01*
X006408Y009865D01*
X006408Y010019D02*
X006638Y010019D01*
X006715Y010096D01*
X006715Y010249D01*
X006638Y010326D01*
X006868Y010249D02*
X006945Y010326D01*
X007099Y010326D01*
X007175Y010249D01*
X007175Y010172D01*
X006868Y009865D01*
X007175Y009865D01*
X006715Y009865D02*
X006562Y010019D01*
X006039Y013622D02*
X005732Y013929D01*
X005655Y013929D01*
X005578Y013852D01*
X005578Y013698D01*
X005655Y013622D01*
X006039Y013622D02*
X006039Y013929D01*
X004719Y015115D02*
X004719Y015396D01*
X004579Y015256D01*
X004766Y015256D01*
X003826Y014596D02*
X003596Y014366D01*
X003903Y014366D01*
X003826Y014596D02*
X003826Y014135D01*
X003443Y014212D02*
X003366Y014135D01*
X003213Y014135D01*
X003136Y014212D01*
X003136Y014519D01*
X003213Y014596D01*
X003366Y014596D01*
X003443Y014519D01*
X002982Y014596D02*
X002829Y014596D01*
X002906Y014596D02*
X002906Y014135D01*
X002982Y014135D02*
X002829Y014135D01*
X003643Y015981D02*
X001320Y015981D01*
X001320Y017202D01*
X001320Y017989D02*
X001320Y019210D01*
X003643Y019210D01*
X004548Y018304D01*
X004548Y017989D01*
X004626Y018019D02*
X004933Y018019D01*
X004933Y018096D01*
X004856Y018172D01*
X004703Y018172D01*
X004626Y018096D01*
X004626Y017942D01*
X004703Y017865D01*
X004856Y017865D01*
X004472Y017865D02*
X004319Y018019D01*
X004396Y018019D02*
X004166Y018019D01*
X004166Y017865D02*
X004166Y018326D01*
X004396Y018326D01*
X004472Y018249D01*
X004472Y018096D01*
X004396Y018019D01*
X005086Y018172D02*
X005240Y017865D01*
X005393Y018172D01*
X005547Y017942D02*
X005623Y017942D01*
X005623Y017865D01*
X005547Y017865D01*
X005547Y017942D01*
X006237Y017865D02*
X006544Y017865D01*
X006391Y017865D02*
X006391Y018326D01*
X006237Y018172D01*
X006698Y017942D02*
X006774Y017942D01*
X006774Y017865D01*
X006698Y017865D01*
X006698Y017942D01*
X006928Y017942D02*
X006928Y018249D01*
X007005Y018326D01*
X007158Y018326D01*
X007235Y018249D01*
X006928Y017942D01*
X007005Y017865D01*
X007158Y017865D01*
X007235Y017942D01*
X007235Y018249D01*
X007388Y017942D02*
X007465Y017942D01*
X007465Y017865D01*
X007388Y017865D01*
X007388Y017942D01*
X007618Y017942D02*
X007618Y018249D01*
X007695Y018326D01*
X007849Y018326D01*
X007925Y018249D01*
X007618Y017942D01*
X007695Y017865D01*
X007849Y017865D01*
X007925Y017942D01*
X007925Y018249D01*
X004548Y017202D02*
X004548Y016887D01*
X003643Y015981D01*
X004450Y017241D02*
X004430Y017164D01*
X004407Y017089D01*
X004379Y017015D01*
X004348Y016943D01*
X004313Y016872D01*
X004275Y016803D01*
X004233Y016737D01*
X004188Y016672D01*
X004140Y016610D01*
X004088Y016550D01*
X004034Y016493D01*
X003977Y016439D01*
X003917Y016387D01*
X003855Y016339D01*
X003790Y016294D01*
X003723Y016253D01*
X003654Y016215D01*
X003583Y016180D01*
X003511Y016149D01*
X003437Y016121D01*
X003362Y016098D01*
X003286Y016078D01*
X003208Y016062D01*
X003130Y016050D01*
X003052Y016042D01*
X002973Y016038D01*
X002895Y016038D01*
X002816Y016042D01*
X002738Y016050D01*
X002660Y016062D01*
X002582Y016078D01*
X002506Y016098D01*
X002431Y016121D01*
X002357Y016149D01*
X002285Y016180D01*
X002214Y016215D01*
X002145Y016253D01*
X002078Y016294D01*
X002013Y016339D01*
X001951Y016387D01*
X001891Y016439D01*
X001834Y016493D01*
X001780Y016550D01*
X001728Y016610D01*
X001680Y016672D01*
X001635Y016737D01*
X001593Y016803D01*
X001555Y016872D01*
X001520Y016943D01*
X001489Y017015D01*
X001461Y017089D01*
X001438Y017164D01*
X001418Y017241D01*
X001418Y017949D02*
X001438Y018026D01*
X001461Y018101D01*
X001489Y018175D01*
X001520Y018247D01*
X001555Y018318D01*
X001593Y018387D01*
X001635Y018453D01*
X001680Y018518D01*
X001728Y018580D01*
X001780Y018640D01*
X001834Y018697D01*
X001891Y018751D01*
X001951Y018803D01*
X002013Y018851D01*
X002078Y018896D01*
X002145Y018937D01*
X002214Y018975D01*
X002285Y019010D01*
X002357Y019041D01*
X002431Y019069D01*
X002506Y019092D01*
X002582Y019112D01*
X002660Y019128D01*
X002738Y019140D01*
X002816Y019148D01*
X002895Y019152D01*
X002973Y019152D01*
X003052Y019148D01*
X003130Y019140D01*
X003208Y019128D01*
X003286Y019112D01*
X003362Y019092D01*
X003437Y019069D01*
X003511Y019041D01*
X003583Y019010D01*
X003654Y018975D01*
X003723Y018937D01*
X003790Y018896D01*
X003855Y018851D01*
X003917Y018803D01*
X003977Y018751D01*
X004034Y018697D01*
X004088Y018640D01*
X004140Y018580D01*
X004188Y018518D01*
X004233Y018453D01*
X004275Y018387D01*
X004313Y018318D01*
X004348Y018247D01*
X004379Y018175D01*
X004407Y018101D01*
X004430Y018026D01*
X004450Y017949D01*
X013454Y012624D02*
X013454Y012317D01*
X013531Y012240D01*
X013684Y012240D01*
X013761Y012317D01*
X013914Y012240D02*
X014221Y012240D01*
X014068Y012240D02*
X014068Y012701D01*
X013914Y012547D01*
X013761Y012624D02*
X013684Y012701D01*
X013531Y012701D01*
X013454Y012624D01*
X014375Y012547D02*
X014528Y012701D01*
X014528Y012240D01*
X014375Y012240D02*
X014682Y012240D01*
X016198Y011874D02*
X016198Y011567D01*
X016274Y011490D01*
X016428Y011490D01*
X016505Y011567D01*
X016658Y011490D02*
X016965Y011490D01*
X016812Y011490D02*
X016812Y011951D01*
X016658Y011797D01*
X016505Y011874D02*
X016428Y011951D01*
X016274Y011951D01*
X016198Y011874D01*
X017118Y011874D02*
X017118Y011567D01*
X017425Y011874D01*
X017425Y011567D01*
X017349Y011490D01*
X017195Y011490D01*
X017118Y011567D01*
X017118Y011874D02*
X017195Y011951D01*
X017349Y011951D01*
X017425Y011874D01*
X020266Y012880D02*
X020343Y012803D01*
X020497Y012803D01*
X020573Y012880D01*
X020727Y012880D02*
X020727Y012803D01*
X020727Y012880D02*
X021034Y013187D01*
X021034Y013263D01*
X020727Y013263D01*
X020573Y013187D02*
X020497Y013263D01*
X020343Y013263D01*
X020266Y013187D01*
X020266Y012880D01*
X021454Y011451D02*
X021684Y011451D01*
X021761Y011374D01*
X021761Y011221D01*
X021684Y011144D01*
X021454Y011144D01*
X021607Y011144D02*
X021761Y010990D01*
X021914Y010990D02*
X021914Y011067D01*
X022221Y011374D01*
X022221Y011451D01*
X021914Y011451D01*
X021454Y011451D02*
X021454Y010990D01*
X025283Y011067D02*
X025360Y010990D01*
X025513Y010990D01*
X025590Y011067D01*
X025743Y011067D02*
X025820Y010990D01*
X025974Y010990D01*
X026050Y011067D01*
X026050Y011144D01*
X025974Y011221D01*
X025743Y011221D01*
X025743Y011067D01*
X025743Y011221D02*
X025897Y011374D01*
X026050Y011451D01*
X025590Y011374D02*
X025513Y011451D01*
X025360Y011451D01*
X025283Y011374D01*
X025283Y011067D01*
X027198Y011865D02*
X027198Y012326D01*
X027428Y012326D01*
X027505Y012249D01*
X027505Y012096D01*
X027428Y012019D01*
X027198Y012019D01*
X027351Y012019D02*
X027505Y011865D01*
X027658Y011865D02*
X027965Y011865D01*
X027812Y011865D02*
X027812Y012326D01*
X027658Y012172D01*
X028118Y012249D02*
X028195Y012326D01*
X028349Y012326D01*
X028425Y012249D01*
X028425Y012172D01*
X028349Y012096D01*
X028425Y012019D01*
X028425Y011942D01*
X028349Y011865D01*
X028195Y011865D01*
X028118Y011942D01*
X028272Y012096D02*
X028349Y012096D01*
X030179Y013156D02*
X030179Y014100D01*
X030435Y014100D01*
X031183Y014100D02*
X031439Y014100D01*
X031439Y013156D01*
X031163Y012880D01*
X030455Y012880D02*
X030179Y013156D01*
X030454Y013018D02*
X030419Y013048D01*
X030387Y013080D01*
X030357Y013115D01*
X030330Y013153D01*
X030306Y013192D01*
X030286Y013233D01*
X030268Y013276D01*
X030255Y013320D01*
X030245Y013365D01*
X030238Y013410D01*
X030235Y013456D01*
X030236Y013502D01*
X030240Y013548D01*
X030249Y013593D01*
X030260Y013638D01*
X030276Y013681D01*
X030294Y013723D01*
X030317Y013764D01*
X030342Y013802D01*
X030370Y013839D01*
X030401Y013873D01*
X030435Y013904D01*
X031183Y013903D02*
X031217Y013871D01*
X031248Y013836D01*
X031277Y013799D01*
X031302Y013760D01*
X031324Y013719D01*
X031343Y013676D01*
X031358Y013631D01*
X031369Y013586D01*
X031377Y013540D01*
X031381Y013493D01*
X031381Y013447D01*
X031377Y013400D01*
X031369Y013354D01*
X031358Y013309D01*
X031343Y013264D01*
X031324Y013221D01*
X031302Y013180D01*
X031277Y013141D01*
X031248Y013104D01*
X031217Y013069D01*
X031183Y013037D01*
X031011Y010922D02*
X029790Y010922D01*
X029357Y010489D01*
X029495Y009760D02*
X029521Y009712D01*
X029550Y009665D01*
X029583Y009620D01*
X029619Y009578D01*
X029658Y009539D01*
X029699Y009502D01*
X029743Y009469D01*
X029789Y009438D01*
X029838Y009412D01*
X029888Y009389D01*
X029940Y009369D01*
X029993Y009353D01*
X030047Y009341D01*
X030101Y009333D01*
X030156Y009329D01*
X030212Y009329D01*
X030267Y009333D01*
X030321Y009341D01*
X030375Y009353D01*
X030428Y009369D01*
X030480Y009389D01*
X030530Y009412D01*
X030579Y009438D01*
X030625Y009469D01*
X030669Y009502D01*
X030710Y009539D01*
X030749Y009578D01*
X030785Y009620D01*
X030818Y009665D01*
X030847Y009712D01*
X030873Y009760D01*
X031011Y009761D02*
X031011Y009269D01*
X029790Y009269D01*
X029357Y009702D01*
X029263Y009326D02*
X029033Y009326D01*
X029033Y008865D01*
X029033Y009019D02*
X029263Y009019D01*
X029340Y009096D01*
X029340Y009249D01*
X029263Y009326D01*
X029493Y009249D02*
X029570Y009326D01*
X029724Y009326D01*
X029800Y009249D01*
X029800Y009172D01*
X029724Y009096D01*
X029800Y009019D01*
X029800Y008942D01*
X029724Y008865D01*
X029570Y008865D01*
X029493Y008942D01*
X029340Y008865D02*
X029187Y009019D01*
X029647Y009096D02*
X029724Y009096D01*
X030579Y009249D02*
X030579Y008942D01*
X030656Y008865D01*
X030809Y008865D01*
X030886Y008942D01*
X031039Y008865D02*
X031346Y008865D01*
X031193Y008865D02*
X031193Y009326D01*
X031039Y009172D01*
X030886Y009249D02*
X030809Y009326D01*
X030656Y009326D01*
X030579Y009249D01*
X031500Y009326D02*
X031807Y009326D01*
X031807Y009249D01*
X031500Y008942D01*
X031500Y008865D01*
X030749Y007725D02*
X029804Y007725D01*
X029804Y007469D01*
X030001Y007469D02*
X030033Y007503D01*
X030068Y007534D01*
X030105Y007563D01*
X030144Y007588D01*
X030185Y007610D01*
X030228Y007629D01*
X030273Y007644D01*
X030318Y007655D01*
X030364Y007663D01*
X030411Y007667D01*
X030457Y007667D01*
X030504Y007663D01*
X030550Y007655D01*
X030595Y007644D01*
X030640Y007629D01*
X030683Y007610D01*
X030724Y007588D01*
X030763Y007563D01*
X030800Y007534D01*
X030835Y007503D01*
X030867Y007469D01*
X031024Y007450D02*
X030749Y007725D01*
X030887Y006740D02*
X030857Y006705D01*
X030825Y006673D01*
X030790Y006643D01*
X030752Y006616D01*
X030713Y006592D01*
X030672Y006572D01*
X030629Y006554D01*
X030585Y006541D01*
X030540Y006531D01*
X030495Y006524D01*
X030449Y006521D01*
X030403Y006522D01*
X030357Y006526D01*
X030312Y006535D01*
X030267Y006546D01*
X030224Y006562D01*
X030182Y006580D01*
X030141Y006603D01*
X030103Y006628D01*
X030066Y006656D01*
X030032Y006687D01*
X030001Y006721D01*
X029804Y006721D02*
X029804Y006466D01*
X030749Y006466D01*
X031024Y006741D01*
X030749Y006225D02*
X031024Y005950D01*
X030749Y006225D02*
X029804Y006225D01*
X029804Y005969D01*
X030001Y005969D02*
X030033Y006003D01*
X030068Y006034D01*
X030105Y006063D01*
X030144Y006088D01*
X030185Y006110D01*
X030228Y006129D01*
X030273Y006144D01*
X030318Y006155D01*
X030364Y006163D01*
X030411Y006167D01*
X030457Y006167D01*
X030504Y006163D01*
X030550Y006155D01*
X030595Y006144D01*
X030640Y006129D01*
X030683Y006110D01*
X030724Y006088D01*
X030763Y006063D01*
X030800Y006034D01*
X030835Y006003D01*
X030867Y005969D01*
X030887Y005240D02*
X030857Y005205D01*
X030825Y005173D01*
X030790Y005143D01*
X030752Y005116D01*
X030713Y005092D01*
X030672Y005072D01*
X030629Y005054D01*
X030585Y005041D01*
X030540Y005031D01*
X030495Y005024D01*
X030449Y005021D01*
X030403Y005022D01*
X030357Y005026D01*
X030312Y005035D01*
X030267Y005046D01*
X030224Y005062D01*
X030182Y005080D01*
X030141Y005103D01*
X030103Y005128D01*
X030066Y005156D01*
X030032Y005187D01*
X030001Y005221D01*
X029804Y005221D02*
X029804Y004966D01*
X030749Y004966D01*
X031024Y005241D01*
X027039Y005166D02*
X026885Y005013D01*
X026885Y005089D02*
X026885Y004859D01*
X027039Y004859D02*
X026578Y004859D01*
X026578Y005089D01*
X026655Y005166D01*
X026809Y005166D01*
X026885Y005089D01*
X026732Y005320D02*
X026578Y005473D01*
X027039Y005473D01*
X027039Y005320D02*
X027039Y005627D01*
X026962Y005780D02*
X027039Y005857D01*
X027039Y006010D01*
X026962Y006087D01*
X026809Y006087D01*
X026732Y006010D01*
X026732Y005934D01*
X026809Y005780D01*
X026578Y005780D01*
X026578Y006087D01*
X026528Y007365D02*
X026528Y007519D01*
X026528Y007442D02*
X026989Y007442D01*
X026989Y007365D02*
X026989Y007519D01*
X026912Y007672D02*
X026605Y007672D01*
X026528Y007749D01*
X026528Y007903D01*
X026605Y007979D01*
X026759Y008133D02*
X026759Y008363D01*
X026835Y008440D01*
X026912Y008440D01*
X026989Y008363D01*
X026989Y008210D01*
X026912Y008133D01*
X026759Y008133D01*
X026605Y008286D01*
X026528Y008440D01*
X026557Y008740D02*
X026250Y008740D01*
X026557Y009047D01*
X026557Y009124D01*
X026480Y009201D01*
X026326Y009201D01*
X026250Y009124D01*
X025943Y009201D02*
X025943Y008740D01*
X026096Y008740D02*
X025789Y008740D01*
X025636Y008817D02*
X025559Y008740D01*
X025406Y008740D01*
X025329Y008817D01*
X025329Y009124D01*
X025406Y009201D01*
X025559Y009201D01*
X025636Y009124D01*
X025789Y009047D02*
X025943Y009201D01*
X026912Y007979D02*
X026989Y007903D01*
X026989Y007749D01*
X026912Y007672D01*
X029495Y010430D02*
X029521Y010478D01*
X029550Y010525D01*
X029583Y010570D01*
X029619Y010612D01*
X029658Y010651D01*
X029699Y010688D01*
X029743Y010721D01*
X029789Y010752D01*
X029838Y010778D01*
X029888Y010801D01*
X029940Y010821D01*
X029993Y010837D01*
X030047Y010849D01*
X030101Y010857D01*
X030156Y010861D01*
X030212Y010861D01*
X030267Y010857D01*
X030321Y010849D01*
X030375Y010837D01*
X030428Y010821D01*
X030480Y010801D01*
X030530Y010778D01*
X030579Y010752D01*
X030625Y010721D01*
X030669Y010688D01*
X030710Y010651D01*
X030749Y010612D01*
X030785Y010570D01*
X030818Y010525D01*
X030847Y010478D01*
X030873Y010430D01*
X031011Y010430D02*
X031011Y010922D01*
X020588Y002581D02*
X019919Y003250D01*
X019683Y003250D01*
X018935Y003250D02*
X018699Y003250D01*
X018029Y002581D01*
X018029Y000691D01*
X018935Y000691D01*
X019683Y000691D02*
X020588Y000691D01*
X020588Y002581D01*
X018935Y003131D02*
X018871Y003109D01*
X018808Y003082D01*
X018746Y003052D01*
X018687Y003019D01*
X018629Y002983D01*
X018573Y002943D01*
X018520Y002900D01*
X018469Y002855D01*
X018421Y002807D01*
X018376Y002756D01*
X018333Y002702D01*
X018294Y002646D01*
X018257Y002589D01*
X018224Y002529D01*
X018195Y002467D01*
X018169Y002404D01*
X018146Y002340D01*
X018127Y002274D01*
X018112Y002207D01*
X018101Y002140D01*
X018093Y002072D01*
X018089Y002004D01*
X018089Y001936D01*
X018093Y001868D01*
X018101Y001800D01*
X018112Y001733D01*
X018127Y001666D01*
X018146Y001600D01*
X018169Y001536D01*
X018195Y001473D01*
X018224Y001411D01*
X018257Y001351D01*
X018294Y001294D01*
X018333Y001238D01*
X018376Y001184D01*
X018421Y001133D01*
X018469Y001085D01*
X018520Y001040D01*
X018573Y000997D01*
X018629Y000957D01*
X018687Y000921D01*
X018746Y000888D01*
X018808Y000858D01*
X018871Y000831D01*
X018935Y000809D01*
X019683Y000809D02*
X019747Y000831D01*
X019810Y000858D01*
X019872Y000888D01*
X019931Y000921D01*
X019989Y000957D01*
X020045Y000997D01*
X020098Y001040D01*
X020149Y001085D01*
X020197Y001133D01*
X020242Y001184D01*
X020285Y001238D01*
X020324Y001294D01*
X020361Y001351D01*
X020394Y001411D01*
X020423Y001473D01*
X020449Y001536D01*
X020472Y001600D01*
X020491Y001666D01*
X020506Y001733D01*
X020517Y001800D01*
X020525Y001868D01*
X020529Y001936D01*
X020529Y002004D01*
X020525Y002072D01*
X020517Y002140D01*
X020506Y002207D01*
X020491Y002274D01*
X020472Y002340D01*
X020449Y002404D01*
X020423Y002467D01*
X020394Y002529D01*
X020361Y002589D01*
X020324Y002646D01*
X020285Y002702D01*
X020242Y002756D01*
X020197Y002807D01*
X020149Y002855D01*
X020098Y002900D01*
X020045Y002943D01*
X019989Y002983D01*
X019931Y003019D01*
X019872Y003052D01*
X019810Y003082D01*
X019747Y003109D01*
X019683Y003131D01*
D13*
X021309Y003345D02*
X021309Y002845D01*
X021559Y002595D01*
X021309Y002345D01*
X021309Y001845D01*
X021559Y001595D01*
X021309Y001345D01*
X021309Y000845D01*
X021559Y000595D01*
X022059Y000595D01*
X022309Y000845D01*
X022309Y001345D01*
X022059Y001595D01*
X022309Y001845D01*
X022309Y002345D01*
X022059Y002595D01*
X022309Y002845D01*
X022309Y003345D01*
X022059Y003595D01*
X021559Y003595D01*
X021309Y003345D01*
X022809Y003345D02*
X022809Y002845D01*
X023059Y002595D01*
X022809Y002345D01*
X022809Y001845D01*
X023059Y001595D01*
X022809Y001345D01*
X022809Y000845D01*
X023059Y000595D01*
X023559Y000595D01*
X023809Y000845D01*
X023809Y001345D01*
X023559Y001595D01*
X023809Y001845D01*
X023809Y002345D01*
X023559Y002595D01*
X023809Y002845D01*
X023809Y003345D01*
X023559Y003595D01*
X023059Y003595D01*
X022809Y003345D01*
X025059Y003345D02*
X025059Y002845D01*
X025309Y002595D01*
X025059Y002345D01*
X025059Y001845D01*
X025309Y001595D01*
X025059Y001345D01*
X025059Y000845D01*
X025309Y000595D01*
X025809Y000595D01*
X026059Y000845D01*
X026059Y001345D01*
X025809Y001595D01*
X026059Y001845D01*
X026059Y002345D01*
X025809Y002595D01*
X026059Y002845D01*
X026059Y003345D01*
X025809Y003595D01*
X025309Y003595D01*
X025059Y003345D01*
X026559Y003345D02*
X026559Y002845D01*
X026809Y002595D01*
X026559Y002345D01*
X026559Y001845D01*
X026809Y001595D01*
X026559Y001345D01*
X026559Y000845D01*
X026809Y000595D01*
X027309Y000595D01*
X027559Y000845D01*
X027559Y001345D01*
X027309Y001595D01*
X027559Y001845D01*
X027559Y002345D01*
X027309Y002595D01*
X027559Y002845D01*
X027559Y003345D01*
X027309Y003595D01*
X026809Y003595D01*
X026559Y003345D01*
X028559Y003345D02*
X028559Y002845D01*
X028809Y002595D01*
X028559Y002345D01*
X028559Y001845D01*
X028809Y001595D01*
X028559Y001345D01*
X028559Y000845D01*
X028809Y000595D01*
X029309Y000595D01*
X029559Y000845D01*
X029559Y001345D01*
X029309Y001595D01*
X029559Y001845D01*
X029559Y002345D01*
X029309Y002595D01*
X029559Y002845D01*
X029559Y003345D01*
X029309Y003595D01*
X028809Y003595D01*
X028559Y003345D01*
X030059Y003345D02*
X030059Y002845D01*
X030309Y002595D01*
X030059Y002345D01*
X030059Y001845D01*
X030309Y001595D01*
X030059Y001345D01*
X030059Y000845D01*
X030309Y000595D01*
X030809Y000595D01*
X031059Y000845D01*
X031059Y001345D01*
X030809Y001595D01*
X031059Y001845D01*
X031059Y002345D01*
X030809Y002595D01*
X031059Y002845D01*
X031059Y003345D01*
X030809Y003595D01*
X030309Y003595D01*
X030059Y003345D01*
X031809Y004595D02*
X032059Y004345D01*
X032559Y004345D01*
X032809Y004595D01*
X032809Y005095D01*
X032559Y005345D01*
X032809Y005595D01*
X032809Y006095D01*
X032559Y006345D01*
X032809Y006595D01*
X032809Y007095D01*
X032559Y007345D01*
X032059Y007345D01*
X031809Y007095D01*
X031809Y006595D01*
X032059Y006345D01*
X031809Y006095D01*
X031809Y005595D01*
X032059Y005345D01*
X031809Y005095D01*
X031809Y004595D01*
X031809Y007970D02*
X031809Y008170D01*
X031809Y007970D02*
X032009Y007970D01*
X032609Y007970D02*
X032809Y007970D01*
X032809Y008170D01*
X032809Y008770D02*
X032809Y008970D01*
X032609Y008970D01*
X032009Y008970D02*
X031809Y008970D01*
X031809Y008770D01*
X031809Y009595D02*
X031809Y009795D01*
X031809Y009595D02*
X032009Y009595D01*
X032609Y009595D02*
X032809Y009595D01*
X032809Y009795D01*
X032809Y010395D02*
X032809Y010595D01*
X032609Y010595D01*
X032009Y010595D02*
X031809Y010595D01*
X031809Y010395D01*
X032059Y011845D02*
X031809Y012095D01*
X031809Y012595D01*
X032059Y012845D01*
X031809Y013095D01*
X031809Y013595D01*
X032059Y013845D01*
X031809Y014095D01*
X031809Y014595D01*
X032059Y014845D01*
X031809Y015095D01*
X031809Y015595D01*
X032059Y015845D01*
X032559Y015845D01*
X032809Y015595D01*
X032809Y015095D01*
X032559Y014845D01*
X032809Y014595D01*
X032809Y014095D01*
X032559Y013845D01*
X032809Y013595D01*
X032809Y013095D01*
X032559Y012845D01*
X032809Y012595D01*
X032809Y012095D01*
X032559Y011845D01*
X032059Y011845D01*
X027309Y012725D02*
X027309Y013145D01*
X027309Y013545D01*
X027309Y013965D01*
X027307Y013988D01*
X027302Y014011D01*
X027293Y014033D01*
X027280Y014053D01*
X027265Y014071D01*
X027247Y014086D01*
X027227Y014099D01*
X027205Y014108D01*
X027182Y014113D01*
X027159Y014115D01*
X027309Y013545D02*
X027282Y013543D01*
X027255Y013538D01*
X027229Y013528D01*
X027205Y013516D01*
X027183Y013500D01*
X027163Y013482D01*
X027146Y013460D01*
X027131Y013437D01*
X027121Y013412D01*
X027113Y013386D01*
X027109Y013359D01*
X027109Y013331D01*
X027113Y013304D01*
X027121Y013278D01*
X027131Y013253D01*
X027146Y013230D01*
X027163Y013208D01*
X027183Y013190D01*
X027205Y013174D01*
X027229Y013162D01*
X027255Y013152D01*
X027282Y013147D01*
X027309Y013145D01*
X027309Y012725D02*
X027307Y012702D01*
X027302Y012679D01*
X027293Y012657D01*
X027280Y012637D01*
X027265Y012619D01*
X027247Y012604D01*
X027227Y012591D01*
X027205Y012582D01*
X027182Y012577D01*
X027159Y012575D01*
X023459Y012575D02*
X023436Y012577D01*
X023413Y012582D01*
X023391Y012591D01*
X023371Y012604D01*
X023353Y012619D01*
X023338Y012637D01*
X023325Y012657D01*
X023316Y012679D01*
X023311Y012702D01*
X023309Y012725D01*
X023309Y013965D01*
X023311Y013988D01*
X023316Y014011D01*
X023325Y014033D01*
X023338Y014053D01*
X023353Y014071D01*
X023371Y014086D01*
X023391Y014099D01*
X023413Y014108D01*
X023436Y014113D01*
X023459Y014115D01*
X021009Y015570D02*
X029609Y015570D01*
X029659Y015620D02*
X028959Y015620D01*
X028959Y016320D01*
X029659Y016320D01*
X029659Y015620D01*
X029609Y015570D02*
X029635Y015572D01*
X029661Y015577D01*
X029686Y015585D01*
X029709Y015597D01*
X029731Y015611D01*
X029750Y015629D01*
X029768Y015648D01*
X029782Y015670D01*
X029794Y015693D01*
X029802Y015718D01*
X029807Y015744D01*
X029809Y015770D01*
X029809Y016170D01*
X029807Y016196D01*
X029802Y016222D01*
X029794Y016247D01*
X029782Y016270D01*
X029768Y016292D01*
X029750Y016311D01*
X029731Y016329D01*
X029709Y016343D01*
X029686Y016355D01*
X029661Y016363D01*
X029635Y016368D01*
X029609Y016370D01*
X021009Y016370D01*
X020983Y016368D01*
X020957Y016363D01*
X020932Y016355D01*
X020909Y016343D01*
X020887Y016329D01*
X020868Y016311D01*
X020850Y016292D01*
X020836Y016270D01*
X020824Y016247D01*
X020816Y016222D01*
X020811Y016196D01*
X020809Y016170D01*
X020809Y015770D01*
X020811Y015744D01*
X020816Y015718D01*
X020824Y015693D01*
X020836Y015670D01*
X020850Y015648D01*
X020868Y015629D01*
X020887Y015611D01*
X020909Y015597D01*
X020932Y015585D01*
X020957Y015577D01*
X020983Y015572D01*
X021009Y015570D01*
X018184Y014695D02*
X018184Y014295D01*
X018184Y014695D02*
X018182Y014712D01*
X018178Y014729D01*
X018171Y014745D01*
X018161Y014759D01*
X018148Y014772D01*
X018134Y014782D01*
X018118Y014789D01*
X018101Y014793D01*
X018084Y014795D01*
X013784Y014795D01*
X013767Y014793D01*
X013750Y014789D01*
X013734Y014782D01*
X013720Y014772D01*
X013707Y014759D01*
X013697Y014745D01*
X013690Y014729D01*
X013686Y014712D01*
X013684Y014695D01*
X013684Y014295D01*
X013684Y013395D02*
X013684Y012995D01*
X013686Y012978D01*
X013690Y012961D01*
X013697Y012945D01*
X013707Y012931D01*
X013720Y012918D01*
X013734Y012908D01*
X013750Y012901D01*
X013767Y012897D01*
X013784Y012895D01*
X018084Y012895D01*
X018101Y012897D01*
X018118Y012901D01*
X018134Y012908D01*
X018148Y012918D01*
X018161Y012931D01*
X018171Y012945D01*
X018178Y012961D01*
X018182Y012978D01*
X018184Y012995D01*
X018184Y013395D01*
X016184Y013595D02*
X016184Y013845D01*
X016184Y014095D01*
X016034Y014095D02*
X015834Y014095D01*
X015834Y013595D01*
X016034Y013595D01*
X016034Y014095D01*
X015684Y014095D02*
X015684Y013845D01*
X015684Y013595D01*
X013184Y011720D02*
X013184Y011220D01*
X012934Y010970D01*
X012434Y010970D01*
X012184Y011220D01*
X011934Y010970D01*
X011434Y010970D01*
X011184Y011220D01*
X010934Y010970D01*
X010434Y010970D01*
X010184Y011220D01*
X010184Y011720D01*
X010434Y011970D01*
X010934Y011970D01*
X011184Y011720D01*
X011434Y011970D01*
X011934Y011970D01*
X012184Y011720D01*
X012434Y011970D01*
X012934Y011970D01*
X013184Y011720D01*
X012934Y010470D02*
X012434Y010470D01*
X012184Y010220D01*
X011934Y010470D01*
X011434Y010470D01*
X011184Y010220D01*
X010934Y010470D01*
X010434Y010470D01*
X010184Y010220D01*
X010184Y009720D01*
X010434Y009470D01*
X010934Y009470D01*
X011184Y009720D01*
X011434Y009470D01*
X011934Y009470D01*
X012184Y009720D01*
X012434Y009470D01*
X012934Y009470D01*
X013184Y009720D01*
X013184Y010220D01*
X012934Y010470D01*
X014554Y008883D02*
X014554Y008456D01*
X014554Y008669D02*
X013913Y008669D01*
X014127Y008456D01*
X014020Y008238D02*
X013913Y008132D01*
X013913Y007918D01*
X014020Y007811D01*
X014447Y007811D01*
X014554Y007918D01*
X014554Y008132D01*
X014447Y008238D01*
X014554Y007595D02*
X014554Y007382D01*
X014554Y007488D02*
X013913Y007488D01*
X013913Y007382D02*
X013913Y007595D01*
X011869Y007835D02*
X011649Y007835D01*
X011869Y007835D02*
X011869Y008155D01*
X010969Y007835D02*
X010749Y007835D01*
X010749Y008155D01*
X004869Y010210D02*
X004649Y010210D01*
X004869Y010210D02*
X004869Y010530D01*
X003969Y010210D02*
X003749Y010210D01*
X003749Y010530D01*
X002309Y010295D02*
X002309Y010095D01*
X002109Y010095D01*
X002109Y009595D02*
X002309Y009595D01*
X002309Y009395D01*
X001509Y009595D02*
X001309Y009595D01*
X001309Y009395D01*
X001309Y008795D02*
X001309Y008595D01*
X001509Y008595D01*
X001509Y008095D02*
X001309Y008095D01*
X001309Y007895D01*
X001309Y007295D02*
X001309Y007095D01*
X001509Y007095D01*
X002109Y007095D02*
X002309Y007095D01*
X002309Y007295D01*
X002309Y007895D02*
X002309Y008095D01*
X002109Y008095D01*
X002109Y008595D02*
X002309Y008595D01*
X002309Y008795D01*
X001509Y010095D02*
X001309Y010095D01*
X001309Y010295D01*
X001309Y010895D02*
X001309Y011095D01*
X001509Y011095D01*
X002109Y011095D02*
X002309Y011095D01*
X002309Y010895D01*
X008809Y015845D02*
X009059Y015595D01*
X009559Y015595D01*
X009809Y015845D01*
X010059Y015595D01*
X010559Y015595D01*
X010809Y015845D01*
X011059Y015595D01*
X011559Y015595D01*
X011809Y015845D01*
X012059Y015595D01*
X012559Y015595D01*
X012809Y015845D01*
X013059Y015595D01*
X013559Y015595D01*
X013809Y015845D01*
X013809Y017345D01*
X013559Y017595D01*
X013059Y017595D01*
X012809Y017345D01*
X012559Y017595D01*
X012059Y017595D01*
X011809Y017345D01*
X011559Y017595D01*
X011059Y017595D01*
X010809Y017345D01*
X010559Y017595D01*
X010059Y017595D01*
X009809Y017345D01*
X009559Y017595D01*
X009059Y017595D01*
X008809Y017345D01*
X008809Y015845D01*
X016809Y018445D02*
X016809Y019545D01*
X017809Y019545D01*
X018809Y019545D01*
X018809Y018445D01*
X017809Y018445D01*
X016809Y018445D01*
X017809Y018445D02*
X017809Y019545D01*
X018809Y019545D02*
X019809Y019545D01*
X020809Y019545D01*
X021809Y019545D01*
X021809Y018445D01*
X020809Y018445D01*
X019809Y018445D01*
X018809Y018445D01*
X019809Y018445D02*
X019809Y019545D01*
X020809Y019545D02*
X020809Y018445D01*
X021809Y018445D02*
X022809Y018445D01*
X023809Y018445D01*
X023809Y019545D01*
X022809Y019545D01*
X021809Y019545D01*
X022809Y019545D02*
X022809Y018445D01*
X023809Y018445D02*
X024809Y018445D01*
X024809Y019545D01*
X023809Y019545D01*
X025059Y019545D02*
X026059Y019545D01*
X027059Y019545D01*
X027059Y018445D01*
X026059Y018445D01*
X025059Y018445D01*
X025059Y019545D01*
X026059Y019545D02*
X026059Y018445D01*
X027059Y018445D02*
X028059Y018445D01*
X028059Y019545D01*
X027059Y019545D01*
X028059Y019545D02*
X029059Y019545D01*
X030059Y019545D01*
X030059Y018445D01*
X029059Y018445D01*
X028059Y018445D01*
X029059Y018445D02*
X029059Y019545D01*
X030059Y019545D02*
X031059Y019545D01*
X032059Y019545D01*
X032059Y018445D01*
X031059Y018445D01*
X030059Y018445D01*
X031059Y018445D02*
X031059Y019545D01*
X032059Y019545D02*
X033059Y019545D01*
X033059Y018445D01*
X032059Y018445D01*
X032159Y020625D02*
X031946Y020625D01*
X031839Y020732D01*
X032266Y021159D01*
X032266Y020732D01*
X032159Y020625D01*
X031839Y020732D02*
X031839Y021159D01*
X031946Y021266D01*
X032159Y021266D01*
X032266Y021159D01*
X030266Y020625D02*
X029839Y020625D01*
X030052Y020625D02*
X030052Y021266D01*
X029839Y021053D01*
X028266Y021053D02*
X028266Y021159D01*
X028159Y021266D01*
X027946Y021266D01*
X027839Y021159D01*
X028266Y021053D02*
X027839Y020625D01*
X028266Y020625D01*
X026266Y020732D02*
X026159Y020625D01*
X025946Y020625D01*
X025839Y020732D01*
X026052Y020946D02*
X026159Y020946D01*
X026266Y020839D01*
X026266Y020732D01*
X026159Y020946D02*
X026266Y021053D01*
X026266Y021159D01*
X026159Y021266D01*
X025946Y021266D01*
X025839Y021159D01*
X024016Y020946D02*
X023589Y020946D01*
X023909Y021266D01*
X023909Y020625D01*
X022016Y020732D02*
X021909Y020625D01*
X021696Y020625D01*
X021589Y020732D01*
X021589Y020946D02*
X021802Y021053D01*
X021909Y021053D01*
X022016Y020946D01*
X022016Y020732D01*
X021589Y020946D02*
X021589Y021266D01*
X022016Y021266D01*
X020016Y021266D02*
X019802Y021159D01*
X019589Y020946D01*
X019909Y020946D01*
X020016Y020839D01*
X020016Y020732D01*
X019909Y020625D01*
X019696Y020625D01*
X019589Y020732D01*
X019589Y020946D01*
X018016Y021159D02*
X017589Y020732D01*
X017589Y020625D01*
X018016Y021159D02*
X018016Y021266D01*
X017589Y021266D01*
X016934Y003595D02*
X016434Y003595D01*
X016184Y003345D01*
X016184Y002845D01*
X016434Y002595D01*
X016184Y002345D01*
X016184Y001845D01*
X016434Y001595D01*
X016184Y001345D01*
X016184Y000845D01*
X016434Y000595D01*
X016934Y000595D01*
X017184Y000845D01*
X017184Y001345D01*
X016934Y001595D01*
X017184Y001845D01*
X017184Y002345D01*
X016934Y002595D01*
X017184Y002845D01*
X017184Y003345D01*
X016934Y003595D01*
X015684Y003345D02*
X015684Y002845D01*
X015434Y002595D01*
X015684Y002345D01*
X015684Y001845D01*
X015434Y001595D01*
X015684Y001345D01*
X015684Y000845D01*
X015434Y000595D01*
X014934Y000595D01*
X014684Y000845D01*
X014684Y001345D01*
X014934Y001595D01*
X014684Y001845D01*
X014684Y002345D01*
X014934Y002595D01*
X014684Y002845D01*
X014684Y003345D01*
X014934Y003595D01*
X015434Y003595D01*
X015684Y003345D01*
X013684Y003345D02*
X013684Y002845D01*
X013434Y002595D01*
X013684Y002345D01*
X013684Y001845D01*
X013434Y001595D01*
X013684Y001345D01*
X013684Y000845D01*
X013434Y000595D01*
X012934Y000595D01*
X012684Y000845D01*
X012684Y001345D01*
X012934Y001595D01*
X012684Y001845D01*
X012684Y002345D01*
X012934Y002595D01*
X012684Y002845D01*
X012684Y003345D01*
X012934Y003595D01*
X013434Y003595D01*
X013684Y003345D01*
X012184Y003345D02*
X012184Y002845D01*
X011934Y002595D01*
X012184Y002345D01*
X012184Y001845D01*
X011934Y001595D01*
X012184Y001345D01*
X012184Y000845D01*
X011934Y000595D01*
X011434Y000595D01*
X011184Y000845D01*
X011184Y001345D01*
X011434Y001595D01*
X011184Y001845D01*
X011184Y002345D01*
X011434Y002595D01*
X011184Y002845D01*
X011184Y003345D01*
X011434Y003595D01*
X011934Y003595D01*
X012184Y003345D01*
X010184Y003345D02*
X010184Y002845D01*
X009934Y002595D01*
X010184Y002345D01*
X010184Y001845D01*
X009934Y001595D01*
X010184Y001345D01*
X010184Y000845D01*
X009934Y000595D01*
X009434Y000595D01*
X009184Y000845D01*
X009184Y001345D01*
X009434Y001595D01*
X009184Y001845D01*
X009184Y002345D01*
X009434Y002595D01*
X009184Y002845D01*
X009184Y003345D01*
X009434Y003595D01*
X009934Y003595D01*
X010184Y003345D01*
X008684Y003345D02*
X008684Y002845D01*
X008434Y002595D01*
X008684Y002345D01*
X008684Y001845D01*
X008434Y001595D01*
X008684Y001345D01*
X008684Y000845D01*
X008434Y000595D01*
X007934Y000595D01*
X007684Y000845D01*
X007684Y001345D01*
X007934Y001595D01*
X007684Y001845D01*
X007684Y002345D01*
X007934Y002595D01*
X007684Y002845D01*
X007684Y003345D01*
X007934Y003595D01*
X008434Y003595D01*
X008684Y003345D01*
X003269Y003775D02*
X001849Y003775D01*
X001849Y001916D02*
X003269Y001916D01*
X002369Y001655D02*
X002049Y001655D01*
X002049Y001435D01*
X002049Y000755D02*
X002049Y000535D01*
X002369Y000535D01*
D14*
X013915Y013389D02*
X013931Y013400D01*
X013930Y013400D02*
X013963Y013355D01*
X013998Y013313D01*
X014037Y013274D01*
X014077Y013237D01*
X014121Y013204D01*
X014166Y013173D01*
X014214Y013146D01*
X014263Y013122D01*
X014314Y013101D01*
X014367Y013084D01*
X014420Y013071D01*
X014474Y013062D01*
X014529Y013056D01*
X014584Y013054D01*
X014584Y013036D01*
X014584Y013035D01*
X014527Y013037D01*
X014471Y013043D01*
X014416Y013053D01*
X014361Y013066D01*
X014308Y013083D01*
X014256Y013104D01*
X014205Y013129D01*
X014156Y013157D01*
X014110Y013188D01*
X014065Y013223D01*
X014023Y013260D01*
X013984Y013301D01*
X013948Y013344D01*
X013915Y013389D01*
X013915Y013390D01*
X013949Y013344D01*
X013985Y013301D01*
X014024Y013261D01*
X014066Y013224D01*
X014110Y013189D01*
X014157Y013158D01*
X014206Y013130D01*
X014256Y013105D01*
X014308Y013084D01*
X014362Y013067D01*
X014416Y013054D01*
X014472Y013044D01*
X014527Y013038D01*
X014584Y013036D01*
X014584Y013037D01*
X014527Y013039D01*
X014472Y013045D01*
X014416Y013055D01*
X014362Y013068D01*
X014309Y013085D01*
X014257Y013106D01*
X014206Y013131D01*
X014157Y013159D01*
X014111Y013190D01*
X014067Y013224D01*
X014025Y013262D01*
X013986Y013302D01*
X013949Y013345D01*
X013916Y013390D01*
X013917Y013391D01*
X013950Y013345D01*
X013986Y013303D01*
X014025Y013263D01*
X014067Y013225D01*
X014111Y013191D01*
X014158Y013160D01*
X014207Y013132D01*
X014257Y013107D01*
X014309Y013086D01*
X014362Y013069D01*
X014417Y013056D01*
X014472Y013046D01*
X014528Y013040D01*
X014584Y013038D01*
X014584Y013039D01*
X014528Y013041D01*
X014472Y013047D01*
X014417Y013057D01*
X014363Y013070D01*
X014309Y013087D01*
X014257Y013108D01*
X014207Y013133D01*
X014159Y013160D01*
X014112Y013192D01*
X014068Y013226D01*
X014026Y013263D01*
X013987Y013303D01*
X013951Y013346D01*
X013918Y013391D01*
X013919Y013392D01*
X013952Y013347D01*
X013988Y013304D01*
X014027Y013264D01*
X014068Y013227D01*
X014113Y013192D01*
X014159Y013161D01*
X014208Y013133D01*
X014258Y013109D01*
X014310Y013088D01*
X014363Y013071D01*
X014417Y013058D01*
X014472Y013048D01*
X014528Y013042D01*
X014584Y013040D01*
X014584Y013041D01*
X014528Y013043D01*
X014472Y013049D01*
X014417Y013058D01*
X014363Y013072D01*
X014310Y013089D01*
X014258Y013110D01*
X014208Y013134D01*
X014160Y013162D01*
X014113Y013193D01*
X014069Y013227D01*
X014028Y013265D01*
X013989Y013305D01*
X013953Y013347D01*
X013920Y013392D01*
X013920Y013393D01*
X013953Y013348D01*
X013989Y013305D01*
X014028Y013265D01*
X014070Y013228D01*
X014114Y013194D01*
X014160Y013163D01*
X014208Y013135D01*
X014259Y013111D01*
X014310Y013090D01*
X014363Y013073D01*
X014417Y013059D01*
X014472Y013050D01*
X014528Y013044D01*
X014584Y013042D01*
X014584Y013043D01*
X014528Y013045D01*
X014472Y013051D01*
X014418Y013060D01*
X014364Y013074D01*
X014311Y013091D01*
X014259Y013112D01*
X014209Y013136D01*
X014161Y013164D01*
X014114Y013195D01*
X014070Y013229D01*
X014029Y013266D01*
X013990Y013306D01*
X013954Y013349D01*
X013921Y013393D01*
X013922Y013394D01*
X013955Y013349D01*
X013991Y013307D01*
X014030Y013267D01*
X014071Y013230D01*
X014115Y013196D01*
X014161Y013165D01*
X014209Y013137D01*
X014259Y013113D01*
X014311Y013092D01*
X014364Y013075D01*
X014418Y013061D01*
X014473Y013052D01*
X014528Y013046D01*
X014584Y013044D01*
X014584Y013045D01*
X014528Y013047D01*
X014473Y013053D01*
X014418Y013062D01*
X014364Y013076D01*
X014311Y013093D01*
X014260Y013114D01*
X014210Y013138D01*
X014162Y013166D01*
X014116Y013196D01*
X014072Y013231D01*
X014030Y013268D01*
X013992Y013307D01*
X013956Y013350D01*
X013923Y013395D01*
X013924Y013395D01*
X013956Y013350D01*
X013992Y013308D01*
X014031Y013268D01*
X014072Y013231D01*
X014116Y013197D01*
X014162Y013166D01*
X014210Y013139D01*
X014260Y013115D01*
X014312Y013094D01*
X014364Y013077D01*
X014418Y013063D01*
X014473Y013054D01*
X014528Y013048D01*
X014584Y013046D01*
X014584Y013047D01*
X014528Y013049D01*
X014473Y013055D01*
X014418Y013064D01*
X014365Y013078D01*
X014312Y013095D01*
X014261Y013115D01*
X014211Y013140D01*
X014163Y013167D01*
X014117Y013198D01*
X014073Y013232D01*
X014032Y013269D01*
X013993Y013309D01*
X013957Y013351D01*
X013924Y013396D01*
X013925Y013396D01*
X013958Y013352D01*
X013994Y013309D01*
X014032Y013270D01*
X014074Y013233D01*
X014117Y013199D01*
X014163Y013168D01*
X014211Y013141D01*
X014261Y013116D01*
X014312Y013096D01*
X014365Y013079D01*
X014419Y013065D01*
X014473Y013056D01*
X014528Y013050D01*
X014584Y013048D01*
X014584Y013049D01*
X014528Y013051D01*
X014473Y013057D01*
X014419Y013066D01*
X014365Y013080D01*
X014313Y013097D01*
X014261Y013117D01*
X014212Y013141D01*
X014164Y013169D01*
X014118Y013200D01*
X014074Y013234D01*
X014033Y013270D01*
X013995Y013310D01*
X013959Y013352D01*
X013926Y013397D01*
X013927Y013397D01*
X013960Y013353D01*
X013995Y013311D01*
X014034Y013271D01*
X014075Y013234D01*
X014118Y013201D01*
X014164Y013170D01*
X014212Y013142D01*
X014262Y013118D01*
X014313Y013098D01*
X014366Y013081D01*
X014419Y013067D01*
X014473Y013058D01*
X014528Y013052D01*
X014584Y013050D01*
X014584Y013051D01*
X014528Y013053D01*
X014474Y013059D01*
X014419Y013068D01*
X014366Y013082D01*
X014313Y013099D01*
X014262Y013119D01*
X014213Y013143D01*
X014165Y013171D01*
X014119Y013201D01*
X014076Y013235D01*
X014034Y013272D01*
X013996Y013311D01*
X013960Y013354D01*
X013928Y013398D01*
X013929Y013399D01*
X013961Y013354D01*
X013997Y013312D01*
X014035Y013273D01*
X014076Y013236D01*
X014120Y013202D01*
X014165Y013171D01*
X014213Y013144D01*
X014263Y013120D01*
X014314Y013099D01*
X014366Y013083D01*
X014420Y013069D01*
X014474Y013060D01*
X014528Y013054D01*
X014584Y013052D01*
X014584Y013053D01*
X014529Y013055D01*
X014474Y013061D01*
X014420Y013070D01*
X014366Y013083D01*
X014314Y013100D01*
X014263Y013121D01*
X014214Y013145D01*
X014166Y013172D01*
X014120Y013203D01*
X014077Y013237D01*
X014036Y013273D01*
X013997Y013313D01*
X013962Y013355D01*
X013929Y013399D01*
X014363Y013386D02*
X014371Y013403D01*
X014370Y013403D02*
X014404Y013388D01*
X014439Y013376D01*
X014474Y013366D01*
X014510Y013360D01*
X014547Y013355D01*
X014584Y013354D01*
X014584Y013336D01*
X014584Y013335D01*
X014545Y013336D01*
X014507Y013341D01*
X014470Y013348D01*
X014433Y013358D01*
X014397Y013370D01*
X014362Y013386D01*
X014363Y013387D01*
X014397Y013371D01*
X014433Y013359D01*
X014470Y013349D01*
X014508Y013342D01*
X014545Y013337D01*
X014584Y013336D01*
X014584Y013337D01*
X014546Y013338D01*
X014508Y013343D01*
X014470Y013350D01*
X014434Y013360D01*
X014398Y013372D01*
X014363Y013388D01*
X014398Y013373D01*
X014434Y013361D01*
X014471Y013351D01*
X014508Y013344D01*
X014546Y013339D01*
X014584Y013338D01*
X014584Y013339D01*
X014546Y013340D01*
X014508Y013345D01*
X014471Y013352D01*
X014434Y013362D01*
X014399Y013374D01*
X014364Y013389D01*
X014364Y013390D01*
X014399Y013375D01*
X014435Y013363D01*
X014471Y013353D01*
X014508Y013346D01*
X014546Y013341D01*
X014584Y013340D01*
X014584Y013341D01*
X014546Y013342D01*
X014508Y013347D01*
X014471Y013354D01*
X014435Y013364D01*
X014399Y013376D01*
X014365Y013391D01*
X014365Y013392D01*
X014400Y013377D01*
X014435Y013365D01*
X014472Y013355D01*
X014509Y013348D01*
X014546Y013343D01*
X014584Y013342D01*
X014584Y013343D01*
X014546Y013344D01*
X014509Y013349D01*
X014472Y013356D01*
X014435Y013365D01*
X014400Y013378D01*
X014366Y013393D01*
X014366Y013394D01*
X014400Y013379D01*
X014436Y013366D01*
X014472Y013357D01*
X014509Y013350D01*
X014546Y013345D01*
X014584Y013344D01*
X014584Y013345D01*
X014546Y013346D01*
X014509Y013351D01*
X014472Y013358D01*
X014436Y013367D01*
X014401Y013380D01*
X014367Y013395D01*
X014367Y013396D01*
X014401Y013381D01*
X014436Y013368D01*
X014472Y013359D01*
X014509Y013352D01*
X014546Y013347D01*
X014584Y013346D01*
X014584Y013347D01*
X014546Y013348D01*
X014509Y013353D01*
X014473Y013360D01*
X014437Y013369D01*
X014402Y013382D01*
X014367Y013397D01*
X014368Y013397D01*
X014402Y013383D01*
X014437Y013370D01*
X014473Y013361D01*
X014509Y013354D01*
X014546Y013349D01*
X014584Y013348D01*
X014584Y013349D01*
X014546Y013350D01*
X014510Y013355D01*
X014473Y013362D01*
X014437Y013371D01*
X014402Y013384D01*
X014368Y013398D01*
X014369Y013399D01*
X014403Y013384D01*
X014438Y013372D01*
X014473Y013363D01*
X014510Y013356D01*
X014546Y013351D01*
X014584Y013350D01*
X014584Y013351D01*
X014547Y013352D01*
X014510Y013357D01*
X014474Y013364D01*
X014438Y013373D01*
X014403Y013385D01*
X014369Y013400D01*
X014370Y013401D01*
X014403Y013386D01*
X014438Y013374D01*
X014474Y013364D01*
X014510Y013358D01*
X014547Y013353D01*
X014584Y013352D01*
X014584Y013353D01*
X014547Y013354D01*
X014510Y013359D01*
X014474Y013365D01*
X014438Y013375D01*
X014404Y013387D01*
X014370Y013402D01*
X014584Y014354D02*
X014584Y014335D01*
X014584Y014336D02*
X014547Y014335D01*
X014510Y014330D01*
X014474Y014324D01*
X014439Y014314D01*
X014404Y014302D01*
X014370Y014287D01*
X014363Y014304D01*
X014362Y014304D01*
X014397Y014320D01*
X014433Y014332D01*
X014470Y014342D01*
X014507Y014349D01*
X014545Y014354D01*
X014584Y014355D01*
X014584Y014354D01*
X014545Y014353D01*
X014508Y014348D01*
X014470Y014341D01*
X014433Y014331D01*
X014397Y014319D01*
X014363Y014303D01*
X014363Y014302D01*
X014398Y014318D01*
X014434Y014330D01*
X014470Y014340D01*
X014508Y014347D01*
X014546Y014352D01*
X014584Y014353D01*
X014584Y014352D01*
X014546Y014351D01*
X014508Y014346D01*
X014471Y014339D01*
X014434Y014329D01*
X014398Y014317D01*
X014363Y014302D01*
X014364Y014301D01*
X014399Y014316D01*
X014434Y014328D01*
X014471Y014338D01*
X014508Y014345D01*
X014546Y014350D01*
X014584Y014351D01*
X014584Y014350D01*
X014546Y014349D01*
X014508Y014344D01*
X014471Y014337D01*
X014435Y014327D01*
X014399Y014315D01*
X014364Y014300D01*
X014365Y014299D01*
X014399Y014314D01*
X014435Y014326D01*
X014471Y014336D01*
X014508Y014343D01*
X014546Y014348D01*
X014584Y014349D01*
X014584Y014348D01*
X014546Y014347D01*
X014509Y014342D01*
X014472Y014335D01*
X014435Y014325D01*
X014400Y014313D01*
X014365Y014298D01*
X014366Y014297D01*
X014400Y014312D01*
X014435Y014325D01*
X014472Y014334D01*
X014509Y014341D01*
X014546Y014346D01*
X014584Y014347D01*
X014584Y014346D01*
X014546Y014345D01*
X014509Y014340D01*
X014472Y014333D01*
X014436Y014324D01*
X014400Y014311D01*
X014366Y014296D01*
X014367Y014295D01*
X014401Y014310D01*
X014436Y014323D01*
X014472Y014332D01*
X014509Y014339D01*
X014546Y014344D01*
X014584Y014345D01*
X014584Y014344D01*
X014546Y014343D01*
X014509Y014338D01*
X014472Y014331D01*
X014436Y014322D01*
X014401Y014309D01*
X014367Y014294D01*
X014367Y014293D01*
X014402Y014308D01*
X014437Y014321D01*
X014473Y014330D01*
X014509Y014337D01*
X014546Y014342D01*
X014584Y014343D01*
X014584Y014342D01*
X014546Y014341D01*
X014509Y014336D01*
X014473Y014329D01*
X014437Y014320D01*
X014402Y014307D01*
X014368Y014293D01*
X014368Y014292D01*
X014402Y014306D01*
X014437Y014319D01*
X014473Y014328D01*
X014510Y014335D01*
X014546Y014340D01*
X014584Y014341D01*
X014584Y014340D01*
X014546Y014339D01*
X014510Y014334D01*
X014473Y014327D01*
X014438Y014318D01*
X014403Y014306D01*
X014369Y014291D01*
X014369Y014290D01*
X014403Y014305D01*
X014438Y014317D01*
X014474Y014326D01*
X014510Y014333D01*
X014547Y014338D01*
X014584Y014339D01*
X014584Y014338D01*
X014547Y014337D01*
X014510Y014332D01*
X014474Y014326D01*
X014438Y014316D01*
X014403Y014304D01*
X014370Y014289D01*
X014370Y014288D01*
X014404Y014303D01*
X014438Y014315D01*
X014474Y014325D01*
X014510Y014331D01*
X014547Y014336D01*
X014584Y014337D01*
X014584Y014654D02*
X014584Y014635D01*
X014583Y014636D02*
X014529Y014634D01*
X014474Y014628D01*
X014420Y014619D01*
X014367Y014606D01*
X014314Y014589D01*
X014263Y014568D01*
X014214Y014544D01*
X014166Y014517D01*
X014121Y014486D01*
X014077Y014453D01*
X014037Y014416D01*
X013998Y014377D01*
X013963Y014335D01*
X013930Y014290D01*
X013915Y014301D01*
X013948Y014346D01*
X013984Y014389D01*
X014023Y014430D01*
X014065Y014467D01*
X014110Y014502D01*
X014156Y014533D01*
X014205Y014561D01*
X014256Y014585D01*
X014308Y014606D01*
X014361Y014624D01*
X014416Y014637D01*
X014471Y014647D01*
X014527Y014653D01*
X014583Y014655D01*
X014583Y014654D01*
X014527Y014652D01*
X014471Y014646D01*
X014416Y014636D01*
X014362Y014623D01*
X014308Y014606D01*
X014256Y014585D01*
X014206Y014560D01*
X014157Y014532D01*
X014110Y014501D01*
X014066Y014466D01*
X014024Y014429D01*
X013985Y014389D01*
X013949Y014346D01*
X013915Y014300D01*
X013916Y014300D01*
X013949Y014345D01*
X013986Y014388D01*
X014025Y014428D01*
X014067Y014466D01*
X014111Y014500D01*
X014157Y014531D01*
X014206Y014559D01*
X014257Y014584D01*
X014309Y014605D01*
X014362Y014622D01*
X014416Y014635D01*
X014472Y014645D01*
X014527Y014651D01*
X014583Y014653D01*
X014583Y014652D01*
X014527Y014650D01*
X014472Y014644D01*
X014417Y014634D01*
X014362Y014621D01*
X014309Y014604D01*
X014257Y014583D01*
X014207Y014558D01*
X014158Y014530D01*
X014111Y014499D01*
X014067Y014465D01*
X014025Y014427D01*
X013986Y014387D01*
X013950Y014345D01*
X013917Y014299D01*
X013918Y014299D01*
X013951Y014344D01*
X013987Y014387D01*
X014026Y014427D01*
X014068Y014464D01*
X014112Y014498D01*
X014158Y014530D01*
X014207Y014557D01*
X014257Y014582D01*
X014309Y014603D01*
X014362Y014620D01*
X014417Y014633D01*
X014472Y014643D01*
X014528Y014649D01*
X014583Y014651D01*
X014583Y014650D01*
X014528Y014648D01*
X014472Y014642D01*
X014417Y014632D01*
X014363Y014619D01*
X014310Y014602D01*
X014258Y014581D01*
X014207Y014557D01*
X014159Y014529D01*
X014113Y014498D01*
X014068Y014463D01*
X014027Y014426D01*
X013988Y014386D01*
X013952Y014343D01*
X013919Y014298D01*
X013920Y014298D01*
X013953Y014343D01*
X013989Y014385D01*
X014027Y014425D01*
X014069Y014462D01*
X014113Y014497D01*
X014160Y014528D01*
X014208Y014556D01*
X014258Y014580D01*
X014310Y014601D01*
X014363Y014618D01*
X014417Y014632D01*
X014472Y014641D01*
X014528Y014647D01*
X014583Y014649D01*
X014583Y014648D01*
X014528Y014646D01*
X014472Y014640D01*
X014417Y014631D01*
X014363Y014617D01*
X014310Y014600D01*
X014259Y014579D01*
X014208Y014555D01*
X014160Y014527D01*
X014114Y014496D01*
X014070Y014462D01*
X014028Y014425D01*
X013989Y014385D01*
X013953Y014342D01*
X013920Y014297D01*
X013921Y014297D01*
X013954Y014341D01*
X013990Y014384D01*
X014029Y014424D01*
X014070Y014461D01*
X014114Y014495D01*
X014161Y014526D01*
X014209Y014554D01*
X014259Y014578D01*
X014311Y014599D01*
X014364Y014616D01*
X014418Y014630D01*
X014472Y014639D01*
X014528Y014645D01*
X014583Y014647D01*
X014583Y014646D01*
X014528Y014644D01*
X014473Y014638D01*
X014418Y014629D01*
X014364Y014615D01*
X014311Y014598D01*
X014259Y014577D01*
X014209Y014553D01*
X014161Y014525D01*
X014115Y014494D01*
X014071Y014460D01*
X014030Y014423D01*
X013991Y014383D01*
X013955Y014341D01*
X013922Y014296D01*
X013923Y014295D01*
X013956Y014340D01*
X013992Y014383D01*
X014030Y014422D01*
X014072Y014459D01*
X014116Y014493D01*
X014162Y014524D01*
X014210Y014552D01*
X014260Y014576D01*
X014311Y014597D01*
X014364Y014614D01*
X014418Y014628D01*
X014473Y014637D01*
X014528Y014643D01*
X014583Y014645D01*
X014583Y014644D01*
X014528Y014642D01*
X014473Y014636D01*
X014418Y014627D01*
X014364Y014613D01*
X014312Y014596D01*
X014260Y014575D01*
X014210Y014551D01*
X014162Y014524D01*
X014116Y014493D01*
X014072Y014459D01*
X014031Y014422D01*
X013992Y014382D01*
X013956Y014340D01*
X013924Y014295D01*
X013924Y014294D01*
X013957Y014339D01*
X013993Y014381D01*
X014032Y014421D01*
X014073Y014458D01*
X014117Y014492D01*
X014163Y014523D01*
X014211Y014550D01*
X014261Y014575D01*
X014312Y014595D01*
X014365Y014612D01*
X014418Y014626D01*
X014473Y014635D01*
X014528Y014641D01*
X014583Y014643D01*
X014583Y014642D01*
X014528Y014640D01*
X014473Y014634D01*
X014419Y014625D01*
X014365Y014611D01*
X014312Y014594D01*
X014261Y014574D01*
X014211Y014549D01*
X014163Y014522D01*
X014117Y014491D01*
X014074Y014457D01*
X014032Y014420D01*
X013994Y014381D01*
X013958Y014338D01*
X013925Y014294D01*
X013926Y014293D01*
X013959Y014338D01*
X013995Y014380D01*
X014033Y014420D01*
X014074Y014456D01*
X014118Y014490D01*
X014164Y014521D01*
X014212Y014549D01*
X014261Y014573D01*
X014313Y014593D01*
X014365Y014610D01*
X014419Y014624D01*
X014473Y014633D01*
X014528Y014639D01*
X014583Y014641D01*
X014583Y014640D01*
X014528Y014638D01*
X014473Y014632D01*
X014419Y014623D01*
X014366Y014609D01*
X014313Y014592D01*
X014262Y014572D01*
X014212Y014548D01*
X014164Y014520D01*
X014118Y014489D01*
X014075Y014456D01*
X014034Y014419D01*
X013995Y014379D01*
X013960Y014337D01*
X013927Y014293D01*
X013928Y014292D01*
X013960Y014336D01*
X013996Y014379D01*
X014034Y014418D01*
X014076Y014455D01*
X014119Y014489D01*
X014165Y014519D01*
X014213Y014547D01*
X014262Y014571D01*
X014313Y014591D01*
X014366Y014608D01*
X014419Y014622D01*
X014474Y014631D01*
X014528Y014637D01*
X014583Y014639D01*
X014583Y014638D01*
X014528Y014636D01*
X014474Y014630D01*
X014419Y014621D01*
X014366Y014607D01*
X014314Y014591D01*
X014263Y014570D01*
X014213Y014546D01*
X014165Y014518D01*
X014120Y014488D01*
X014076Y014454D01*
X014035Y014417D01*
X013997Y014378D01*
X013961Y014336D01*
X013929Y014291D01*
X013962Y014335D01*
X013997Y014377D01*
X014036Y014417D01*
X014077Y014453D01*
X014120Y014487D01*
X014166Y014518D01*
X014214Y014545D01*
X014263Y014569D01*
X014314Y014590D01*
X014366Y014607D01*
X014420Y014620D01*
X014474Y014629D01*
X014529Y014635D01*
X014583Y014637D01*
X017284Y013036D02*
X017284Y013055D01*
X017285Y013054D02*
X017339Y013056D01*
X017394Y013062D01*
X017448Y013071D01*
X017501Y013084D01*
X017554Y013101D01*
X017605Y013122D01*
X017654Y013146D01*
X017702Y013173D01*
X017747Y013204D01*
X017791Y013238D01*
X017832Y013274D01*
X017870Y013313D01*
X017905Y013355D01*
X017938Y013400D01*
X017953Y013390D01*
X017953Y013389D01*
X017920Y013344D01*
X017884Y013301D01*
X017845Y013260D01*
X017803Y013223D01*
X017758Y013188D01*
X017712Y013157D01*
X017663Y013129D01*
X017612Y013105D01*
X017560Y013084D01*
X017507Y013066D01*
X017452Y013053D01*
X017397Y013043D01*
X017341Y013037D01*
X017285Y013035D01*
X017285Y013036D01*
X017341Y013038D01*
X017397Y013044D01*
X017452Y013054D01*
X017506Y013067D01*
X017560Y013084D01*
X017612Y013105D01*
X017662Y013130D01*
X017711Y013158D01*
X017758Y013189D01*
X017802Y013224D01*
X017844Y013261D01*
X017883Y013301D01*
X017919Y013344D01*
X017953Y013390D01*
X017952Y013390D01*
X017919Y013345D01*
X017882Y013302D01*
X017843Y013262D01*
X017801Y013224D01*
X017757Y013190D01*
X017711Y013159D01*
X017662Y013131D01*
X017611Y013106D01*
X017559Y013085D01*
X017506Y013068D01*
X017452Y013055D01*
X017396Y013045D01*
X017341Y013039D01*
X017285Y013037D01*
X017285Y013038D01*
X017341Y013040D01*
X017396Y013046D01*
X017451Y013056D01*
X017506Y013069D01*
X017559Y013086D01*
X017611Y013107D01*
X017661Y013132D01*
X017710Y013160D01*
X017757Y013191D01*
X017801Y013225D01*
X017843Y013263D01*
X017882Y013303D01*
X017918Y013346D01*
X017951Y013391D01*
X017950Y013391D01*
X017917Y013346D01*
X017881Y013303D01*
X017842Y013263D01*
X017800Y013226D01*
X017756Y013192D01*
X017710Y013160D01*
X017661Y013133D01*
X017611Y013108D01*
X017559Y013087D01*
X017506Y013070D01*
X017451Y013057D01*
X017396Y013047D01*
X017340Y013041D01*
X017285Y013039D01*
X017285Y013040D01*
X017340Y013042D01*
X017396Y013048D01*
X017451Y013058D01*
X017505Y013071D01*
X017558Y013088D01*
X017610Y013109D01*
X017661Y013133D01*
X017709Y013161D01*
X017755Y013192D01*
X017800Y013227D01*
X017841Y013264D01*
X017880Y013304D01*
X017916Y013347D01*
X017949Y013392D01*
X017948Y013392D01*
X017915Y013347D01*
X017879Y013305D01*
X017841Y013265D01*
X017799Y013228D01*
X017755Y013193D01*
X017708Y013162D01*
X017660Y013134D01*
X017610Y013110D01*
X017558Y013089D01*
X017505Y013072D01*
X017451Y013058D01*
X017396Y013049D01*
X017340Y013043D01*
X017285Y013041D01*
X017285Y013042D01*
X017340Y013044D01*
X017396Y013050D01*
X017451Y013059D01*
X017505Y013073D01*
X017558Y013090D01*
X017609Y013111D01*
X017660Y013135D01*
X017708Y013163D01*
X017754Y013194D01*
X017798Y013228D01*
X017840Y013265D01*
X017879Y013305D01*
X017915Y013348D01*
X017948Y013393D01*
X017947Y013394D01*
X017914Y013349D01*
X017878Y013306D01*
X017839Y013266D01*
X017798Y013229D01*
X017754Y013195D01*
X017707Y013164D01*
X017659Y013136D01*
X017609Y013112D01*
X017557Y013091D01*
X017504Y013074D01*
X017450Y013060D01*
X017396Y013051D01*
X017340Y013045D01*
X017285Y013043D01*
X017285Y013044D01*
X017340Y013046D01*
X017395Y013052D01*
X017450Y013061D01*
X017504Y013075D01*
X017557Y013092D01*
X017609Y013113D01*
X017659Y013137D01*
X017707Y013165D01*
X017753Y013196D01*
X017797Y013230D01*
X017838Y013267D01*
X017877Y013307D01*
X017913Y013349D01*
X017946Y013394D01*
X017945Y013395D01*
X017912Y013350D01*
X017876Y013307D01*
X017838Y013268D01*
X017796Y013231D01*
X017752Y013197D01*
X017706Y013166D01*
X017658Y013138D01*
X017608Y013114D01*
X017557Y013093D01*
X017504Y013076D01*
X017450Y013062D01*
X017395Y013053D01*
X017340Y013047D01*
X017285Y013045D01*
X017285Y013046D01*
X017340Y013048D01*
X017395Y013054D01*
X017450Y013063D01*
X017504Y013077D01*
X017556Y013094D01*
X017608Y013115D01*
X017658Y013139D01*
X017706Y013166D01*
X017752Y013197D01*
X017796Y013231D01*
X017837Y013268D01*
X017876Y013308D01*
X017912Y013350D01*
X017944Y013395D01*
X017944Y013396D01*
X017911Y013351D01*
X017875Y013309D01*
X017836Y013269D01*
X017795Y013232D01*
X017751Y013198D01*
X017705Y013167D01*
X017657Y013140D01*
X017607Y013115D01*
X017556Y013095D01*
X017503Y013078D01*
X017450Y013064D01*
X017395Y013055D01*
X017340Y013049D01*
X017285Y013047D01*
X017285Y013048D01*
X017340Y013050D01*
X017395Y013056D01*
X017449Y013065D01*
X017503Y013079D01*
X017556Y013096D01*
X017607Y013116D01*
X017657Y013141D01*
X017705Y013168D01*
X017751Y013199D01*
X017794Y013233D01*
X017836Y013270D01*
X017874Y013309D01*
X017910Y013352D01*
X017943Y013396D01*
X017942Y013397D01*
X017909Y013352D01*
X017874Y013310D01*
X017835Y013271D01*
X017794Y013234D01*
X017750Y013200D01*
X017704Y013169D01*
X017656Y013141D01*
X017607Y013117D01*
X017555Y013097D01*
X017503Y013080D01*
X017449Y013066D01*
X017395Y013057D01*
X017340Y013051D01*
X017285Y013049D01*
X017285Y013050D01*
X017340Y013052D01*
X017395Y013058D01*
X017449Y013067D01*
X017503Y013081D01*
X017555Y013098D01*
X017606Y013118D01*
X017656Y013142D01*
X017704Y013170D01*
X017750Y013201D01*
X017793Y013234D01*
X017834Y013271D01*
X017873Y013311D01*
X017908Y013353D01*
X017941Y013397D01*
X017940Y013398D01*
X017908Y013354D01*
X017872Y013311D01*
X017834Y013272D01*
X017793Y013235D01*
X017749Y013201D01*
X017703Y013171D01*
X017655Y013143D01*
X017606Y013119D01*
X017555Y013099D01*
X017502Y013082D01*
X017449Y013068D01*
X017394Y013059D01*
X017340Y013053D01*
X017285Y013051D01*
X017285Y013052D01*
X017340Y013054D01*
X017394Y013060D01*
X017449Y013069D01*
X017502Y013083D01*
X017554Y013100D01*
X017605Y013120D01*
X017655Y013144D01*
X017703Y013172D01*
X017748Y013202D01*
X017792Y013236D01*
X017833Y013273D01*
X017871Y013312D01*
X017907Y013354D01*
X017939Y013399D01*
X017906Y013355D01*
X017871Y013313D01*
X017832Y013273D01*
X017791Y013237D01*
X017748Y013203D01*
X017702Y013172D01*
X017654Y013145D01*
X017605Y013121D01*
X017554Y013100D01*
X017502Y013084D01*
X017448Y013070D01*
X017394Y013061D01*
X017339Y013055D01*
X017285Y013053D01*
X017284Y013336D02*
X017284Y013355D01*
X017284Y013354D02*
X017321Y013355D01*
X017358Y013360D01*
X017394Y013366D01*
X017429Y013376D01*
X017464Y013388D01*
X017498Y013403D01*
X017505Y013386D01*
X017506Y013386D01*
X017471Y013370D01*
X017435Y013358D01*
X017398Y013348D01*
X017361Y013341D01*
X017323Y013336D01*
X017284Y013335D01*
X017284Y013336D01*
X017323Y013337D01*
X017360Y013342D01*
X017398Y013349D01*
X017435Y013359D01*
X017471Y013371D01*
X017505Y013387D01*
X017505Y013388D01*
X017470Y013372D01*
X017434Y013360D01*
X017398Y013350D01*
X017360Y013343D01*
X017322Y013338D01*
X017284Y013337D01*
X017284Y013338D01*
X017322Y013339D01*
X017360Y013344D01*
X017397Y013351D01*
X017434Y013361D01*
X017470Y013373D01*
X017505Y013388D01*
X017504Y013389D01*
X017469Y013374D01*
X017434Y013362D01*
X017397Y013352D01*
X017360Y013345D01*
X017322Y013340D01*
X017284Y013339D01*
X017284Y013340D01*
X017322Y013341D01*
X017360Y013346D01*
X017397Y013353D01*
X017433Y013363D01*
X017469Y013375D01*
X017504Y013390D01*
X017503Y013391D01*
X017469Y013376D01*
X017433Y013364D01*
X017397Y013354D01*
X017360Y013347D01*
X017322Y013342D01*
X017284Y013341D01*
X017284Y013342D01*
X017322Y013343D01*
X017359Y013348D01*
X017396Y013355D01*
X017433Y013365D01*
X017468Y013377D01*
X017503Y013392D01*
X017502Y013393D01*
X017468Y013378D01*
X017433Y013365D01*
X017396Y013356D01*
X017359Y013349D01*
X017322Y013344D01*
X017284Y013343D01*
X017284Y013344D01*
X017322Y013345D01*
X017359Y013350D01*
X017396Y013357D01*
X017432Y013366D01*
X017468Y013379D01*
X017502Y013394D01*
X017501Y013395D01*
X017467Y013380D01*
X017432Y013367D01*
X017396Y013358D01*
X017359Y013351D01*
X017322Y013346D01*
X017284Y013345D01*
X017284Y013346D01*
X017322Y013347D01*
X017359Y013352D01*
X017396Y013359D01*
X017432Y013368D01*
X017467Y013381D01*
X017501Y013396D01*
X017501Y013397D01*
X017466Y013382D01*
X017431Y013369D01*
X017395Y013360D01*
X017359Y013353D01*
X017322Y013348D01*
X017284Y013347D01*
X017284Y013348D01*
X017322Y013349D01*
X017359Y013354D01*
X017395Y013361D01*
X017431Y013370D01*
X017466Y013383D01*
X017500Y013397D01*
X017500Y013398D01*
X017466Y013384D01*
X017431Y013371D01*
X017395Y013362D01*
X017358Y013355D01*
X017322Y013350D01*
X017284Y013349D01*
X017284Y013350D01*
X017322Y013351D01*
X017358Y013356D01*
X017395Y013363D01*
X017430Y013372D01*
X017465Y013384D01*
X017499Y013399D01*
X017499Y013400D01*
X017465Y013385D01*
X017430Y013373D01*
X017394Y013364D01*
X017358Y013357D01*
X017321Y013352D01*
X017284Y013351D01*
X017284Y013352D01*
X017321Y013353D01*
X017358Y013358D01*
X017394Y013364D01*
X017430Y013374D01*
X017465Y013386D01*
X017498Y013401D01*
X017498Y013402D01*
X017464Y013387D01*
X017430Y013375D01*
X017394Y013365D01*
X017358Y013359D01*
X017321Y013354D01*
X017284Y013353D01*
X017505Y014304D02*
X017497Y014287D01*
X017498Y014287D02*
X017464Y014302D01*
X017429Y014314D01*
X017394Y014324D01*
X017358Y014330D01*
X017321Y014335D01*
X017284Y014336D01*
X017284Y014354D01*
X017284Y014355D01*
X017323Y014354D01*
X017361Y014349D01*
X017398Y014342D01*
X017435Y014332D01*
X017471Y014320D01*
X017506Y014304D01*
X017505Y014303D01*
X017471Y014319D01*
X017435Y014331D01*
X017398Y014341D01*
X017360Y014348D01*
X017323Y014353D01*
X017284Y014354D01*
X017284Y014353D01*
X017322Y014352D01*
X017360Y014347D01*
X017398Y014340D01*
X017434Y014330D01*
X017470Y014318D01*
X017505Y014302D01*
X017470Y014317D01*
X017434Y014329D01*
X017397Y014339D01*
X017360Y014346D01*
X017322Y014351D01*
X017284Y014352D01*
X017284Y014351D01*
X017322Y014350D01*
X017360Y014345D01*
X017397Y014338D01*
X017434Y014328D01*
X017469Y014316D01*
X017504Y014301D01*
X017504Y014300D01*
X017469Y014315D01*
X017433Y014327D01*
X017397Y014337D01*
X017360Y014344D01*
X017322Y014349D01*
X017284Y014350D01*
X017284Y014349D01*
X017322Y014348D01*
X017360Y014343D01*
X017397Y014336D01*
X017433Y014326D01*
X017469Y014314D01*
X017503Y014299D01*
X017503Y014298D01*
X017468Y014313D01*
X017433Y014325D01*
X017396Y014335D01*
X017359Y014342D01*
X017322Y014347D01*
X017284Y014348D01*
X017284Y014347D01*
X017322Y014346D01*
X017359Y014341D01*
X017396Y014334D01*
X017433Y014325D01*
X017468Y014312D01*
X017502Y014297D01*
X017502Y014296D01*
X017468Y014311D01*
X017432Y014324D01*
X017396Y014333D01*
X017359Y014340D01*
X017322Y014345D01*
X017284Y014346D01*
X017284Y014345D01*
X017322Y014344D01*
X017359Y014339D01*
X017396Y014332D01*
X017432Y014323D01*
X017467Y014310D01*
X017501Y014295D01*
X017501Y014294D01*
X017467Y014309D01*
X017432Y014322D01*
X017396Y014331D01*
X017359Y014338D01*
X017322Y014343D01*
X017284Y014344D01*
X017284Y014343D01*
X017322Y014342D01*
X017359Y014337D01*
X017395Y014330D01*
X017431Y014321D01*
X017466Y014308D01*
X017501Y014293D01*
X017500Y014293D01*
X017466Y014307D01*
X017431Y014320D01*
X017395Y014329D01*
X017359Y014336D01*
X017322Y014341D01*
X017284Y014342D01*
X017284Y014341D01*
X017322Y014340D01*
X017358Y014335D01*
X017395Y014328D01*
X017431Y014319D01*
X017466Y014306D01*
X017500Y014292D01*
X017499Y014291D01*
X017465Y014306D01*
X017430Y014318D01*
X017395Y014327D01*
X017358Y014334D01*
X017322Y014339D01*
X017284Y014340D01*
X017284Y014339D01*
X017321Y014338D01*
X017358Y014333D01*
X017394Y014326D01*
X017430Y014317D01*
X017465Y014305D01*
X017499Y014290D01*
X017498Y014289D01*
X017465Y014304D01*
X017430Y014316D01*
X017394Y014326D01*
X017358Y014332D01*
X017321Y014337D01*
X017284Y014338D01*
X017284Y014337D01*
X017321Y014336D01*
X017358Y014331D01*
X017394Y014325D01*
X017430Y014315D01*
X017464Y014303D01*
X017498Y014288D01*
X017953Y014301D02*
X017937Y014290D01*
X017938Y014290D02*
X017905Y014335D01*
X017870Y014377D01*
X017831Y014416D01*
X017791Y014453D01*
X017747Y014486D01*
X017702Y014517D01*
X017654Y014544D01*
X017605Y014568D01*
X017554Y014589D01*
X017501Y014606D01*
X017448Y014619D01*
X017394Y014628D01*
X017339Y014634D01*
X017284Y014636D01*
X017284Y014654D01*
X017284Y014655D01*
X017341Y014653D01*
X017397Y014647D01*
X017452Y014637D01*
X017507Y014624D01*
X017560Y014607D01*
X017612Y014586D01*
X017663Y014561D01*
X017712Y014533D01*
X017758Y014502D01*
X017803Y014467D01*
X017845Y014430D01*
X017884Y014389D01*
X017920Y014346D01*
X017953Y014301D01*
X017953Y014300D01*
X017919Y014346D01*
X017883Y014389D01*
X017844Y014429D01*
X017802Y014466D01*
X017758Y014501D01*
X017711Y014532D01*
X017662Y014560D01*
X017612Y014585D01*
X017560Y014606D01*
X017506Y014623D01*
X017452Y014636D01*
X017396Y014646D01*
X017341Y014652D01*
X017284Y014654D01*
X017284Y014653D01*
X017341Y014651D01*
X017396Y014645D01*
X017452Y014635D01*
X017506Y014622D01*
X017559Y014605D01*
X017611Y014584D01*
X017662Y014559D01*
X017711Y014531D01*
X017757Y014500D01*
X017801Y014466D01*
X017843Y014428D01*
X017882Y014388D01*
X017919Y014345D01*
X017952Y014300D01*
X017951Y014299D01*
X017918Y014345D01*
X017882Y014387D01*
X017843Y014427D01*
X017801Y014465D01*
X017757Y014499D01*
X017710Y014530D01*
X017661Y014558D01*
X017611Y014583D01*
X017559Y014604D01*
X017506Y014621D01*
X017451Y014634D01*
X017396Y014644D01*
X017340Y014650D01*
X017284Y014652D01*
X017284Y014651D01*
X017340Y014649D01*
X017396Y014643D01*
X017451Y014633D01*
X017505Y014620D01*
X017559Y014603D01*
X017611Y014582D01*
X017661Y014557D01*
X017709Y014530D01*
X017756Y014498D01*
X017800Y014464D01*
X017842Y014427D01*
X017881Y014387D01*
X017917Y014344D01*
X017950Y014299D01*
X017949Y014298D01*
X017916Y014343D01*
X017880Y014386D01*
X017841Y014426D01*
X017800Y014463D01*
X017755Y014498D01*
X017709Y014529D01*
X017660Y014557D01*
X017610Y014581D01*
X017558Y014602D01*
X017505Y014619D01*
X017451Y014632D01*
X017396Y014642D01*
X017340Y014648D01*
X017284Y014650D01*
X017284Y014649D01*
X017340Y014647D01*
X017396Y014641D01*
X017451Y014632D01*
X017505Y014618D01*
X017558Y014601D01*
X017610Y014580D01*
X017660Y014556D01*
X017708Y014528D01*
X017755Y014497D01*
X017799Y014463D01*
X017840Y014425D01*
X017879Y014385D01*
X017915Y014343D01*
X017948Y014298D01*
X017948Y014297D01*
X017915Y014342D01*
X017879Y014385D01*
X017840Y014425D01*
X017798Y014462D01*
X017754Y014496D01*
X017708Y014527D01*
X017660Y014555D01*
X017609Y014579D01*
X017558Y014600D01*
X017505Y014617D01*
X017451Y014631D01*
X017396Y014640D01*
X017340Y014646D01*
X017284Y014648D01*
X017284Y014647D01*
X017340Y014645D01*
X017396Y014639D01*
X017450Y014630D01*
X017504Y014616D01*
X017557Y014599D01*
X017609Y014578D01*
X017659Y014554D01*
X017707Y014526D01*
X017754Y014495D01*
X017798Y014461D01*
X017839Y014424D01*
X017878Y014384D01*
X017914Y014341D01*
X017947Y014297D01*
X017946Y014296D01*
X017913Y014341D01*
X017877Y014383D01*
X017838Y014423D01*
X017797Y014460D01*
X017753Y014494D01*
X017707Y014525D01*
X017659Y014553D01*
X017609Y014577D01*
X017557Y014598D01*
X017504Y014615D01*
X017450Y014629D01*
X017395Y014638D01*
X017340Y014644D01*
X017284Y014646D01*
X017284Y014645D01*
X017340Y014643D01*
X017395Y014637D01*
X017450Y014628D01*
X017504Y014614D01*
X017557Y014597D01*
X017608Y014576D01*
X017658Y014552D01*
X017706Y014524D01*
X017752Y014494D01*
X017796Y014459D01*
X017838Y014422D01*
X017876Y014383D01*
X017912Y014340D01*
X017945Y014295D01*
X017944Y014295D01*
X017912Y014340D01*
X017876Y014382D01*
X017837Y014422D01*
X017796Y014459D01*
X017752Y014493D01*
X017706Y014524D01*
X017658Y014551D01*
X017608Y014575D01*
X017556Y014596D01*
X017504Y014613D01*
X017450Y014627D01*
X017395Y014636D01*
X017340Y014642D01*
X017284Y014644D01*
X017284Y014643D01*
X017340Y014641D01*
X017395Y014635D01*
X017450Y014626D01*
X017503Y014612D01*
X017556Y014595D01*
X017607Y014575D01*
X017657Y014550D01*
X017705Y014523D01*
X017751Y014492D01*
X017795Y014458D01*
X017836Y014421D01*
X017875Y014381D01*
X017911Y014339D01*
X017944Y014294D01*
X017943Y014294D01*
X017910Y014338D01*
X017874Y014381D01*
X017836Y014420D01*
X017794Y014457D01*
X017751Y014491D01*
X017705Y014522D01*
X017657Y014549D01*
X017607Y014574D01*
X017556Y014594D01*
X017503Y014611D01*
X017449Y014625D01*
X017395Y014634D01*
X017340Y014640D01*
X017284Y014642D01*
X017284Y014641D01*
X017340Y014639D01*
X017395Y014633D01*
X017449Y014624D01*
X017503Y014610D01*
X017555Y014593D01*
X017607Y014573D01*
X017656Y014549D01*
X017704Y014521D01*
X017750Y014490D01*
X017794Y014456D01*
X017835Y014420D01*
X017873Y014380D01*
X017909Y014338D01*
X017942Y014293D01*
X017941Y014293D01*
X017908Y014337D01*
X017873Y014379D01*
X017834Y014419D01*
X017793Y014456D01*
X017750Y014489D01*
X017704Y014520D01*
X017656Y014548D01*
X017606Y014572D01*
X017555Y014592D01*
X017502Y014609D01*
X017449Y014623D01*
X017395Y014632D01*
X017340Y014638D01*
X017284Y014640D01*
X017284Y014639D01*
X017340Y014637D01*
X017394Y014631D01*
X017449Y014622D01*
X017502Y014608D01*
X017555Y014591D01*
X017606Y014571D01*
X017655Y014547D01*
X017703Y014519D01*
X017749Y014489D01*
X017792Y014455D01*
X017834Y014418D01*
X017872Y014379D01*
X017908Y014336D01*
X017940Y014292D01*
X017939Y014291D01*
X017907Y014336D01*
X017871Y014378D01*
X017833Y014417D01*
X017792Y014454D01*
X017748Y014488D01*
X017703Y014519D01*
X017655Y014546D01*
X017605Y014570D01*
X017554Y014591D01*
X017502Y014607D01*
X017448Y014621D01*
X017394Y014630D01*
X017340Y014636D01*
X017284Y014638D01*
X017284Y014637D01*
X017339Y014635D01*
X017394Y014629D01*
X017448Y014620D01*
X017502Y014607D01*
X017554Y014590D01*
X017605Y014569D01*
X017654Y014545D01*
X017702Y014518D01*
X017748Y014487D01*
X017791Y014453D01*
X017832Y014417D01*
X017871Y014377D01*
X017906Y014335D01*
X017939Y014291D01*
D15*
X017284Y014345D02*
X014584Y014345D01*
X014584Y014645D02*
X017284Y014645D01*
X016334Y013845D02*
X016184Y013845D01*
X015684Y013845D02*
X015534Y013845D01*
X014584Y013345D02*
X017284Y013345D01*
X017284Y013045D02*
X014584Y013045D01*
X023309Y013975D02*
X027309Y013975D01*
X002029Y003555D02*
X002031Y003578D01*
X002037Y003600D01*
X002046Y003622D01*
X002059Y003641D01*
X002074Y003658D01*
X002092Y003672D01*
X002113Y003683D01*
X002135Y003691D01*
X002157Y003695D01*
X002181Y003695D01*
X002203Y003691D01*
X002225Y003683D01*
X002246Y003672D01*
X002264Y003658D01*
X002279Y003641D01*
X002292Y003622D01*
X002301Y003600D01*
X002307Y003578D01*
X002309Y003555D01*
X002307Y003532D01*
X002301Y003510D01*
X002292Y003488D01*
X002279Y003469D01*
X002264Y003452D01*
X002246Y003438D01*
X002225Y003427D01*
X002203Y003419D01*
X002181Y003415D01*
X002157Y003415D01*
X002135Y003419D01*
X002113Y003427D01*
X002092Y003438D01*
X002074Y003452D01*
X002059Y003469D01*
X002046Y003488D01*
X002037Y003510D01*
X002031Y003532D01*
X002029Y003555D01*
D16*
X002534Y003945D02*
X002684Y003945D01*
X002609Y003945D02*
X002609Y004396D01*
X002534Y004396D02*
X002684Y004396D01*
X002841Y004321D02*
X002841Y004021D01*
X002916Y003945D01*
X003066Y003945D01*
X003141Y004021D01*
X003301Y004021D02*
X003376Y003945D01*
X003526Y003945D01*
X003601Y004021D01*
X003601Y004096D01*
X003526Y004171D01*
X003451Y004171D01*
X003526Y004171D02*
X003601Y004246D01*
X003601Y004321D01*
X003526Y004396D01*
X003376Y004396D01*
X003301Y004321D01*
X003141Y004321D02*
X003066Y004396D01*
X002916Y004396D01*
X002841Y004321D01*
X007663Y004096D02*
X007663Y004021D01*
X007738Y003946D01*
X007888Y003946D01*
X007963Y003871D01*
X007963Y003796D01*
X007888Y003720D01*
X007738Y003720D01*
X007663Y003796D01*
X007663Y004096D02*
X007738Y004171D01*
X007888Y004171D01*
X007963Y004096D01*
X008123Y003946D02*
X008349Y003946D01*
X008424Y003871D01*
X008424Y003796D01*
X008349Y003720D01*
X008199Y003720D01*
X008123Y003796D01*
X008123Y003946D01*
X008274Y004096D01*
X008424Y004171D01*
X009334Y004146D02*
X009334Y004071D01*
X009409Y003996D01*
X009559Y003996D01*
X009634Y003921D01*
X009634Y003846D01*
X009559Y003770D01*
X009409Y003770D01*
X009334Y003846D01*
X009334Y004146D02*
X009409Y004221D01*
X009559Y004221D01*
X009634Y004146D01*
X009794Y004221D02*
X010095Y004221D01*
X010095Y004146D01*
X009794Y003846D01*
X009794Y003770D01*
X011163Y003796D02*
X011238Y003720D01*
X011388Y003720D01*
X011463Y003796D01*
X011463Y003871D01*
X011388Y003946D01*
X011238Y003946D01*
X011163Y004021D01*
X011163Y004096D01*
X011238Y004171D01*
X011388Y004171D01*
X011463Y004096D01*
X011623Y004096D02*
X011623Y004021D01*
X011699Y003946D01*
X011849Y003946D01*
X011924Y003871D01*
X011924Y003796D01*
X011849Y003720D01*
X011699Y003720D01*
X011623Y003796D01*
X011623Y003871D01*
X011699Y003946D01*
X011849Y003946D02*
X011924Y004021D01*
X011924Y004096D01*
X011849Y004171D01*
X011699Y004171D01*
X011623Y004096D01*
X012834Y004071D02*
X012909Y003996D01*
X013059Y003996D01*
X013134Y003921D01*
X013134Y003846D01*
X013059Y003770D01*
X012909Y003770D01*
X012834Y003846D01*
X012834Y004071D02*
X012834Y004146D01*
X012909Y004221D01*
X013059Y004221D01*
X013134Y004146D01*
X013294Y004146D02*
X013294Y004071D01*
X013369Y003996D01*
X013595Y003996D01*
X013595Y003846D02*
X013595Y004146D01*
X013519Y004221D01*
X013369Y004221D01*
X013294Y004146D01*
X013294Y003846D02*
X013369Y003770D01*
X013519Y003770D01*
X013595Y003846D01*
X014459Y003846D02*
X014534Y003770D01*
X014684Y003770D01*
X014759Y003846D01*
X014759Y003921D01*
X014684Y003996D01*
X014534Y003996D01*
X014459Y004071D01*
X014459Y004146D01*
X014534Y004221D01*
X014684Y004221D01*
X014759Y004146D01*
X014919Y004071D02*
X015069Y004221D01*
X015069Y003770D01*
X014919Y003770D02*
X015220Y003770D01*
X015380Y003846D02*
X015680Y004146D01*
X015680Y003846D01*
X015605Y003770D01*
X015455Y003770D01*
X015380Y003846D01*
X015380Y004146D01*
X015455Y004221D01*
X015605Y004221D01*
X015680Y004146D01*
X015953Y004096D02*
X015953Y004021D01*
X016028Y003946D01*
X016178Y003946D01*
X016253Y003871D01*
X016253Y003796D01*
X016178Y003720D01*
X016028Y003720D01*
X015953Y003796D01*
X015953Y004096D02*
X016028Y004171D01*
X016178Y004171D01*
X016253Y004096D01*
X016413Y004021D02*
X016563Y004171D01*
X016563Y003720D01*
X016413Y003720D02*
X016713Y003720D01*
X016873Y003720D02*
X017174Y003720D01*
X017024Y003720D02*
X017024Y004171D01*
X016873Y004021D01*
X013434Y004595D02*
X026059Y004595D01*
X026059Y010595D01*
X013434Y010595D01*
X013434Y004595D01*
X009819Y009770D02*
X009819Y009996D01*
X009970Y010146D01*
X009970Y010221D01*
X009819Y009996D02*
X009669Y010146D01*
X009669Y010221D01*
X009509Y010146D02*
X009434Y010221D01*
X009284Y010221D01*
X009209Y010146D01*
X009209Y010071D01*
X009284Y009996D01*
X009434Y009996D01*
X009509Y009921D01*
X009509Y009846D01*
X009434Y009770D01*
X009284Y009770D01*
X009209Y009846D01*
X009284Y011270D02*
X009209Y011346D01*
X009284Y011270D02*
X009434Y011270D01*
X009509Y011346D01*
X009509Y011421D01*
X009434Y011496D01*
X009284Y011496D01*
X009209Y011571D01*
X009209Y011646D01*
X009284Y011721D01*
X009434Y011721D01*
X009509Y011646D01*
X009669Y011721D02*
X009970Y011270D01*
X009669Y011270D02*
X009970Y011721D01*
X012834Y013046D02*
X012909Y012970D01*
X013059Y012970D01*
X013134Y013046D01*
X013134Y013346D01*
X013059Y013421D01*
X012909Y013421D01*
X012834Y013346D01*
X012834Y013046D01*
X012984Y013121D02*
X013134Y012970D01*
X013294Y012970D02*
X013595Y012970D01*
X013444Y012970D02*
X013444Y013421D01*
X013294Y013271D01*
X009434Y014970D02*
X009134Y014970D01*
X009284Y014970D02*
X009284Y015421D01*
X009134Y015271D01*
X009059Y017770D02*
X008909Y017770D01*
X008834Y017846D01*
X008909Y017996D02*
X009059Y017996D01*
X009134Y017921D01*
X009134Y017846D01*
X009059Y017770D01*
X008909Y017996D02*
X008834Y018071D01*
X008834Y018146D01*
X008909Y018221D01*
X009059Y018221D01*
X009134Y018146D01*
X009294Y018221D02*
X009294Y017921D01*
X009444Y017770D01*
X009595Y017921D01*
X009595Y018221D01*
X009755Y018221D02*
X009755Y017996D01*
X009905Y018071D01*
X009980Y018071D01*
X010055Y017996D01*
X010055Y017846D01*
X009980Y017770D01*
X009830Y017770D01*
X009755Y017846D01*
X009755Y018221D02*
X010055Y018221D01*
X013134Y018071D02*
X013284Y018221D01*
X013284Y017770D01*
X013134Y017770D02*
X013434Y017770D01*
X013594Y017846D02*
X013895Y018146D01*
X013895Y017846D01*
X013819Y017770D01*
X013669Y017770D01*
X013594Y017846D01*
X013594Y018146D01*
X013669Y018221D01*
X013819Y018221D01*
X013895Y018146D01*
X013829Y019613D02*
X013829Y021582D01*
X000758Y021582D01*
X000758Y019613D01*
X013829Y019613D01*
X017083Y018821D02*
X017234Y018670D01*
X017083Y018821D02*
X017534Y018821D01*
X017534Y018971D02*
X017534Y018670D01*
X018083Y018746D02*
X018159Y018670D01*
X018083Y018746D02*
X018083Y018896D01*
X018159Y018971D01*
X018234Y018971D01*
X018534Y018670D01*
X018534Y018971D01*
X019083Y018896D02*
X019159Y018971D01*
X019234Y018971D01*
X019309Y018896D01*
X019384Y018971D01*
X019459Y018971D01*
X019534Y018896D01*
X019534Y018746D01*
X019459Y018670D01*
X019309Y018821D02*
X019309Y018896D01*
X019083Y018896D02*
X019083Y018746D01*
X019159Y018670D01*
X020083Y018896D02*
X020309Y018670D01*
X020309Y018971D01*
X020534Y018896D02*
X020083Y018896D01*
X021083Y018971D02*
X021083Y018670D01*
X021309Y018670D01*
X021234Y018821D01*
X021234Y018896D01*
X021309Y018971D01*
X021459Y018971D01*
X021534Y018896D01*
X021534Y018746D01*
X021459Y018670D01*
X022083Y018971D02*
X022159Y018821D01*
X022309Y018670D01*
X022309Y018896D01*
X022384Y018971D01*
X022459Y018971D01*
X022534Y018896D01*
X022534Y018746D01*
X022459Y018670D01*
X022309Y018670D01*
X023083Y018670D02*
X023083Y018971D01*
X023159Y018971D01*
X023459Y018670D01*
X023534Y018670D01*
X024083Y018746D02*
X024083Y018896D01*
X024159Y018971D01*
X024234Y018971D01*
X024309Y018896D01*
X024309Y018746D01*
X024234Y018670D01*
X024159Y018670D01*
X024083Y018746D01*
X024309Y018746D02*
X024384Y018670D01*
X024459Y018670D01*
X024534Y018746D01*
X024534Y018896D01*
X024459Y018971D01*
X024384Y018971D01*
X024309Y018896D01*
X025333Y018821D02*
X025784Y018821D01*
X025784Y018971D02*
X025784Y018670D01*
X025484Y018670D02*
X025333Y018821D01*
X026333Y018896D02*
X026333Y018746D01*
X026409Y018670D01*
X026333Y018896D02*
X026409Y018971D01*
X026484Y018971D01*
X026784Y018670D01*
X026784Y018971D01*
X027333Y018896D02*
X027409Y018971D01*
X027484Y018971D01*
X027559Y018896D01*
X027634Y018971D01*
X027709Y018971D01*
X027784Y018896D01*
X027784Y018746D01*
X027709Y018670D01*
X027559Y018821D02*
X027559Y018896D01*
X027333Y018896D02*
X027333Y018746D01*
X027409Y018670D01*
X028333Y018896D02*
X028559Y018670D01*
X028559Y018971D01*
X028784Y018896D02*
X028333Y018896D01*
X029333Y018971D02*
X029333Y018670D01*
X029559Y018670D01*
X029484Y018821D01*
X029484Y018896D01*
X029559Y018971D01*
X029709Y018971D01*
X029784Y018896D01*
X029784Y018746D01*
X029709Y018670D01*
X030333Y018971D02*
X030409Y018821D01*
X030559Y018670D01*
X030559Y018896D01*
X030634Y018971D01*
X030709Y018971D01*
X030784Y018896D01*
X030784Y018746D01*
X030709Y018670D01*
X030559Y018670D01*
X031333Y018670D02*
X031333Y018971D01*
X031409Y018971D01*
X031709Y018670D01*
X031784Y018670D01*
X032333Y018746D02*
X032409Y018670D01*
X032484Y018670D01*
X032559Y018746D01*
X032559Y018896D01*
X032634Y018971D01*
X032709Y018971D01*
X032784Y018896D01*
X032784Y018746D01*
X032709Y018670D01*
X032634Y018670D01*
X032559Y018746D01*
X032559Y018896D02*
X032484Y018971D01*
X032409Y018971D01*
X032333Y018896D01*
X032333Y018746D01*
X032534Y016160D02*
X032534Y015860D01*
X032534Y016010D02*
X032083Y016010D01*
X032234Y015860D01*
X032983Y015635D02*
X032983Y015410D01*
X033434Y015410D01*
X033284Y015410D02*
X033284Y015635D01*
X033209Y015710D01*
X033059Y015710D01*
X032983Y015635D01*
X032983Y015253D02*
X032983Y015103D01*
X032983Y015178D02*
X033434Y015178D01*
X033434Y015103D02*
X033434Y015253D01*
X033434Y014943D02*
X033284Y014793D01*
X033284Y014868D02*
X033284Y014643D01*
X033434Y014643D02*
X032983Y014643D01*
X032983Y014868D01*
X033059Y014943D01*
X033209Y014943D01*
X033284Y014868D01*
X032983Y014483D02*
X032983Y014182D01*
X032983Y014332D02*
X033434Y014332D01*
X033359Y014022D02*
X033434Y013947D01*
X033434Y013797D01*
X033359Y013722D01*
X033209Y013797D02*
X033209Y013947D01*
X033284Y014022D01*
X033359Y014022D01*
X033209Y013797D02*
X033134Y013722D01*
X033059Y013722D01*
X032983Y013797D01*
X032983Y013947D01*
X033059Y014022D01*
X033209Y013562D02*
X033209Y013262D01*
X033359Y013101D02*
X033059Y013101D01*
X032983Y013026D01*
X032983Y012801D01*
X033434Y012801D01*
X033434Y013026D01*
X033359Y013101D01*
X033434Y012641D02*
X033434Y012341D01*
X032983Y012341D01*
X032983Y012641D01*
X033209Y012491D02*
X033209Y012341D01*
X033434Y012181D02*
X033434Y011880D01*
X032983Y011880D01*
X032534Y011535D02*
X032083Y011535D01*
X032309Y011310D01*
X032309Y011610D01*
X033334Y010717D02*
X033334Y010416D01*
X033334Y010256D02*
X033184Y010256D01*
X033108Y010181D01*
X033108Y009956D01*
X033559Y009956D01*
X033409Y009956D02*
X033409Y010181D01*
X033334Y010256D01*
X033184Y010566D02*
X033484Y010566D01*
X033559Y009796D02*
X033108Y009796D01*
X033334Y009796D02*
X033334Y009495D01*
X033559Y009495D02*
X033108Y009495D01*
X033334Y009217D02*
X033334Y008916D01*
X033334Y008756D02*
X033409Y008681D01*
X033409Y008456D01*
X033559Y008456D02*
X033108Y008456D01*
X033108Y008681D01*
X033184Y008756D01*
X033334Y008756D01*
X033334Y008296D02*
X033334Y007995D01*
X033559Y007995D02*
X033108Y007995D01*
X033108Y008296D02*
X033559Y008296D01*
X031409Y005592D02*
X031409Y005291D01*
X031183Y005516D01*
X031634Y005516D01*
X031484Y005131D02*
X031183Y005131D01*
X031484Y005131D02*
X031634Y004981D01*
X031484Y004831D01*
X031183Y004831D01*
X031259Y004671D02*
X031183Y004596D01*
X031183Y004446D01*
X031259Y004370D01*
X031334Y004370D01*
X031409Y004446D01*
X031409Y004596D01*
X031484Y004671D01*
X031559Y004671D01*
X031634Y004596D01*
X031634Y004446D01*
X031559Y004370D01*
X030799Y004171D02*
X030498Y004171D01*
X030498Y003946D01*
X030649Y004021D01*
X030724Y004021D01*
X030799Y003946D01*
X030799Y003796D01*
X030724Y003720D01*
X030574Y003720D01*
X030498Y003796D01*
X030338Y003796D02*
X030263Y003720D01*
X030113Y003720D01*
X030038Y003796D01*
X030113Y003946D02*
X030263Y003946D01*
X030338Y003871D01*
X030338Y003796D01*
X030113Y003946D02*
X030038Y004021D01*
X030038Y004096D01*
X030113Y004171D01*
X030263Y004171D01*
X030338Y004096D01*
X029299Y003946D02*
X028998Y003946D01*
X029224Y004171D01*
X029224Y003720D01*
X028838Y003796D02*
X028763Y003720D01*
X028613Y003720D01*
X028538Y003796D01*
X028613Y003946D02*
X028763Y003946D01*
X028838Y003871D01*
X028838Y003796D01*
X028613Y003946D02*
X028538Y004021D01*
X028538Y004096D01*
X028613Y004171D01*
X028763Y004171D01*
X028838Y004096D01*
X027299Y004096D02*
X027299Y004021D01*
X027224Y003946D01*
X027299Y003871D01*
X027299Y003796D01*
X027224Y003720D01*
X027074Y003720D01*
X026998Y003796D01*
X026838Y003796D02*
X026763Y003720D01*
X026613Y003720D01*
X026538Y003796D01*
X026613Y003946D02*
X026763Y003946D01*
X026838Y003871D01*
X026838Y003796D01*
X026613Y003946D02*
X026538Y004021D01*
X026538Y004096D01*
X026613Y004171D01*
X026763Y004171D01*
X026838Y004096D01*
X026998Y004096D02*
X027074Y004171D01*
X027224Y004171D01*
X027299Y004096D01*
X027224Y003946D02*
X027149Y003946D01*
X025799Y004021D02*
X025498Y003720D01*
X025799Y003720D01*
X025338Y003796D02*
X025263Y003720D01*
X025113Y003720D01*
X025038Y003796D01*
X025113Y003946D02*
X025263Y003946D01*
X025338Y003871D01*
X025338Y003796D01*
X025113Y003946D02*
X025038Y004021D01*
X025038Y004096D01*
X025113Y004171D01*
X025263Y004171D01*
X025338Y004096D01*
X025498Y004096D02*
X025574Y004171D01*
X025724Y004171D01*
X025799Y004096D01*
X025799Y004021D01*
X023549Y003720D02*
X023248Y003720D01*
X023399Y003720D02*
X023399Y004171D01*
X023248Y004021D01*
X023088Y004096D02*
X023013Y004171D01*
X022863Y004171D01*
X022788Y004096D01*
X022788Y004021D01*
X022863Y003946D01*
X023013Y003946D01*
X023088Y003871D01*
X023088Y003796D01*
X023013Y003720D01*
X022863Y003720D01*
X022788Y003796D01*
X022049Y003796D02*
X021974Y003720D01*
X021824Y003720D01*
X021748Y003796D01*
X022049Y004096D01*
X022049Y003796D01*
X022049Y004096D02*
X021974Y004171D01*
X021824Y004171D01*
X021748Y004096D01*
X021748Y003796D01*
X021588Y003796D02*
X021513Y003720D01*
X021363Y003720D01*
X021288Y003796D01*
X021363Y003946D02*
X021513Y003946D01*
X021588Y003871D01*
X021588Y003796D01*
X021363Y003946D02*
X021288Y004021D01*
X021288Y004096D01*
X021363Y004171D01*
X021513Y004171D01*
X021588Y004096D01*
X027483Y012893D02*
X027483Y013043D01*
X027483Y012968D02*
X027934Y012968D01*
X027934Y012893D02*
X027934Y013043D01*
X027859Y013200D02*
X027559Y013200D01*
X027483Y013275D01*
X027483Y013425D01*
X027559Y013500D01*
X027483Y013660D02*
X027709Y013660D01*
X027634Y013810D01*
X027634Y013885D01*
X027709Y013960D01*
X027859Y013960D01*
X027934Y013885D01*
X027934Y013735D01*
X027859Y013660D01*
X027859Y013500D02*
X027934Y013425D01*
X027934Y013275D01*
X027859Y013200D01*
X027483Y013660D02*
X027483Y013960D01*
X028453Y014995D02*
X028453Y015446D01*
X028678Y015446D01*
X028753Y015371D01*
X028753Y015221D01*
X028678Y015146D01*
X028453Y015146D01*
X028603Y015146D02*
X028753Y014995D01*
X028913Y014995D02*
X028913Y015446D01*
X029213Y014995D01*
X029213Y015446D01*
X029373Y015296D02*
X029524Y015446D01*
X029524Y014995D01*
X029674Y014995D02*
X029373Y014995D01*
X029875Y015805D02*
X030102Y015805D01*
X029988Y015805D02*
X029988Y016146D01*
X029875Y016032D01*
X026305Y016870D02*
X026005Y016870D01*
X026155Y016870D02*
X026155Y017321D01*
X026005Y017171D01*
X025845Y017021D02*
X025845Y017321D01*
X025845Y017021D02*
X025694Y016870D01*
X025544Y017021D01*
X025544Y017321D01*
X025384Y017246D02*
X025309Y017321D01*
X025159Y017321D01*
X025084Y017246D01*
X025084Y017171D01*
X025159Y017096D01*
X025309Y017096D01*
X025384Y017021D01*
X025384Y016946D01*
X025309Y016870D01*
X025159Y016870D01*
X025084Y016946D01*
X001673Y019731D02*
X001673Y020459D01*
X001673Y020460D02*
X000945Y020460D01*
X000945Y019731D01*
X001673Y019731D01*
X001220Y019087D02*
X001220Y018636D01*
X001070Y018636D02*
X001371Y018636D01*
X001070Y018936D02*
X001220Y019087D01*
X016834Y017246D02*
X016834Y017171D01*
X016909Y017096D01*
X017059Y017096D01*
X017134Y017021D01*
X017134Y016946D01*
X017059Y016870D01*
X016909Y016870D01*
X016834Y016946D01*
X017294Y017021D02*
X017444Y016870D01*
X017595Y017021D01*
X017595Y017321D01*
X017755Y017246D02*
X017830Y017321D01*
X017980Y017321D01*
X018055Y017246D01*
X018055Y017171D01*
X017755Y016870D01*
X018055Y016870D01*
X017294Y017021D02*
X017294Y017321D01*
X017134Y017246D02*
X017059Y017321D01*
X016909Y017321D01*
X016834Y017246D01*
D17*
X015623Y007021D02*
X015625Y007041D01*
X015630Y007061D01*
X015640Y007079D01*
X015652Y007096D01*
X015667Y007110D01*
X015685Y007120D01*
X015704Y007128D01*
X015724Y007132D01*
X015744Y007132D01*
X015764Y007128D01*
X015783Y007120D01*
X015801Y007110D01*
X015816Y007096D01*
X015828Y007079D01*
X015838Y007061D01*
X015843Y007041D01*
X015845Y007021D01*
X015843Y007001D01*
X015838Y006981D01*
X015828Y006963D01*
X015816Y006946D01*
X015801Y006932D01*
X015783Y006922D01*
X015764Y006914D01*
X015744Y006910D01*
X015724Y006910D01*
X015704Y006914D01*
X015685Y006922D01*
X015667Y006932D01*
X015652Y006946D01*
X015640Y006963D01*
X015630Y006981D01*
X015625Y007001D01*
X015623Y007021D01*
D18*
X020082Y003441D02*
X020082Y003194D01*
X020144Y003132D01*
X020267Y003132D01*
X020329Y003194D01*
X020450Y003194D02*
X020512Y003132D01*
X020636Y003132D01*
X020697Y003194D01*
X020697Y003441D01*
X020636Y003503D01*
X020512Y003503D01*
X020450Y003441D01*
X020450Y003379D01*
X020512Y003317D01*
X020697Y003317D01*
X020329Y003441D02*
X020267Y003503D01*
X020144Y003503D01*
X020082Y003441D01*
X025065Y005464D02*
X025113Y005415D01*
X025210Y005415D01*
X025258Y005464D01*
X025258Y005561D01*
X025162Y005561D01*
X025258Y005657D02*
X025210Y005706D01*
X025113Y005706D01*
X025065Y005657D01*
X025065Y005464D01*
X025360Y005415D02*
X025360Y005706D01*
X025553Y005415D01*
X025553Y005706D01*
X025654Y005706D02*
X025799Y005706D01*
X025848Y005657D01*
X025848Y005464D01*
X025799Y005415D01*
X025654Y005415D01*
X025654Y005706D01*
X025751Y006415D02*
X025751Y006561D01*
X025848Y006657D01*
X025848Y006706D01*
X025751Y006561D02*
X025654Y006657D01*
X025654Y006706D01*
X025553Y006657D02*
X025505Y006706D01*
X025360Y006706D01*
X025360Y006415D01*
X025360Y006512D02*
X025505Y006512D01*
X025553Y006561D01*
X025553Y006657D01*
X025456Y006512D02*
X025553Y006415D01*
X025258Y006464D02*
X025258Y006657D01*
X025210Y006706D01*
X025065Y006706D01*
X025065Y006415D01*
X025210Y006415D01*
X025258Y006464D01*
X025210Y007415D02*
X025113Y007415D01*
X025065Y007464D01*
X025113Y007561D02*
X025210Y007561D01*
X025258Y007512D01*
X025258Y007464D01*
X025210Y007415D01*
X025360Y007415D02*
X025505Y007415D01*
X025553Y007464D01*
X025553Y007657D01*
X025505Y007706D01*
X025360Y007706D01*
X025360Y007415D01*
X025258Y007657D02*
X025210Y007706D01*
X025113Y007706D01*
X025065Y007657D01*
X025065Y007609D01*
X025113Y007561D01*
X025654Y007561D02*
X025848Y007561D01*
X025848Y007609D02*
X025848Y007415D01*
X025654Y007415D02*
X025654Y007609D01*
X025751Y007706D01*
X025848Y007609D01*
X025848Y008415D02*
X025654Y008415D01*
X025654Y008706D01*
X025553Y008657D02*
X025505Y008706D01*
X025408Y008706D01*
X025360Y008657D01*
X025360Y008464D01*
X025408Y008415D01*
X025505Y008415D01*
X025553Y008464D01*
X025258Y008464D02*
X025258Y008512D01*
X025210Y008561D01*
X025113Y008561D01*
X025065Y008609D01*
X025065Y008657D01*
X025113Y008706D01*
X025210Y008706D01*
X025258Y008657D01*
X025258Y008464D02*
X025210Y008415D01*
X025113Y008415D01*
X025065Y008464D01*
X025162Y009415D02*
X025065Y009512D01*
X025065Y009706D01*
X025258Y009706D02*
X025258Y009512D01*
X025162Y009415D01*
X025360Y009464D02*
X025408Y009415D01*
X025505Y009415D01*
X025553Y009464D01*
X025654Y009464D02*
X025703Y009415D01*
X025799Y009415D01*
X025848Y009464D01*
X025848Y009657D02*
X025799Y009706D01*
X025703Y009706D01*
X025654Y009657D01*
X025654Y009464D01*
X025553Y009657D02*
X025505Y009706D01*
X025408Y009706D01*
X025360Y009657D01*
X025360Y009464D01*
X029799Y008108D02*
X029799Y007861D01*
X029861Y007799D01*
X029984Y007799D01*
X030046Y007861D01*
X030168Y007799D02*
X030414Y007799D01*
X030291Y007799D02*
X030291Y008170D01*
X030168Y008046D01*
X030046Y008108D02*
X029984Y008170D01*
X029861Y008170D01*
X029799Y008108D01*
X030536Y007985D02*
X030783Y007985D01*
X030721Y008170D02*
X030721Y007799D01*
X030536Y007985D02*
X030721Y008170D01*
X030739Y011055D02*
X030862Y011055D01*
X030924Y011117D01*
X030924Y011178D01*
X030862Y011240D01*
X030677Y011240D01*
X030677Y011117D01*
X030739Y011055D01*
X030556Y011055D02*
X030309Y011055D01*
X030432Y011055D02*
X030432Y011425D01*
X030309Y011302D01*
X030187Y011364D02*
X030126Y011425D01*
X030002Y011425D01*
X029940Y011364D01*
X029940Y011117D01*
X030002Y011055D01*
X030126Y011055D01*
X030187Y011117D01*
X030677Y011240D02*
X030800Y011364D01*
X030924Y011425D01*
X031574Y013398D02*
X031821Y013398D01*
X031883Y013460D01*
X031883Y013584D01*
X031821Y013645D01*
X031821Y013767D02*
X031759Y013767D01*
X031698Y013828D01*
X031698Y013952D01*
X031759Y014014D01*
X031821Y014014D01*
X031883Y013952D01*
X031883Y013828D01*
X031821Y013767D01*
X031698Y013828D02*
X031636Y013767D01*
X031574Y013767D01*
X031513Y013828D01*
X031513Y013952D01*
X031574Y014014D01*
X031636Y014014D01*
X031698Y013952D01*
X031574Y013645D02*
X031513Y013584D01*
X031513Y013460D01*
X031574Y013398D01*
X030783Y004920D02*
X030536Y004920D01*
X030536Y004735D01*
X030659Y004796D01*
X030721Y004796D01*
X030783Y004735D01*
X030783Y004611D01*
X030721Y004549D01*
X030598Y004549D01*
X030536Y004611D01*
X030414Y004549D02*
X030168Y004549D01*
X030291Y004549D02*
X030291Y004920D01*
X030168Y004796D01*
X030046Y004858D02*
X029984Y004920D01*
X029861Y004920D01*
X029799Y004858D01*
X029799Y004611D01*
X029861Y004549D01*
X029984Y004549D01*
X030046Y004611D01*
X007641Y007199D02*
X007395Y007199D01*
X007518Y007199D02*
X007518Y007569D01*
X007395Y007446D01*
X007273Y007507D02*
X007211Y007569D01*
X007088Y007569D01*
X007026Y007507D01*
X007026Y007260D01*
X007088Y007199D01*
X007211Y007199D01*
X007273Y007260D01*
X001875Y015497D02*
X001628Y015497D01*
X001875Y015744D01*
X001875Y015806D01*
X001813Y015868D01*
X001690Y015868D01*
X001628Y015806D01*
X001507Y015806D02*
X001445Y015868D01*
X001322Y015868D01*
X001260Y015806D01*
X001260Y015559D01*
X001322Y015497D01*
X001445Y015497D01*
X001507Y015559D01*
D19*
X017309Y019845D02*
X017309Y021695D01*
X018309Y021695D02*
X018309Y019845D01*
X019309Y019845D02*
X019309Y021695D01*
X020309Y021695D02*
X020309Y019845D01*
X021309Y019845D02*
X021309Y021695D01*
X022309Y021695D02*
X022309Y019845D01*
X023309Y019845D02*
X023309Y021695D01*
X024309Y021695D02*
X024309Y019845D01*
X025559Y019845D02*
X025559Y021695D01*
X026559Y021695D02*
X026559Y019845D01*
X027559Y019845D02*
X027559Y021695D01*
X028559Y021695D02*
X028559Y019845D01*
X029559Y019845D02*
X029559Y021695D01*
X030559Y021695D02*
X030559Y019845D01*
X031559Y019845D02*
X031559Y021695D01*
X032559Y021695D02*
X032559Y019845D01*
D20*
X032559Y019695D03*
X031559Y019695D03*
X030559Y019695D03*
X029559Y019695D03*
X028559Y019695D03*
X027559Y019695D03*
X026559Y019695D03*
X025559Y019695D03*
X024309Y019695D03*
X023309Y019695D03*
X022309Y019695D03*
X021309Y019695D03*
X020309Y019695D03*
X019309Y019695D03*
X018309Y019695D03*
X017309Y019695D03*
D21*
X017309Y018315D03*
X018309Y018315D03*
X019309Y018315D03*
X020309Y018315D03*
X021309Y018315D03*
X022309Y018315D03*
X023309Y018315D03*
X024309Y018315D03*
X025559Y018315D03*
X026559Y018315D03*
X027559Y018315D03*
X028559Y018315D03*
X029559Y018315D03*
X030559Y018315D03*
X031559Y018315D03*
X032559Y018315D03*
D22*
X006559Y012760D03*
M02*
