G75*
G70*
%OFA0B0*%
%FSLAX24Y24*%
%IPPOS*%
%LPD*%
%AMOC8*
5,1,8,0,0,1.08239X$1,22.5*
%
%ADD10C,0.0000*%
D10*
X014179Y019595D02*
X014181Y019645D01*
X014187Y019695D01*
X014197Y019744D01*
X014211Y019792D01*
X014228Y019839D01*
X014249Y019884D01*
X014274Y019928D01*
X014302Y019969D01*
X014334Y020008D01*
X014368Y020045D01*
X014405Y020079D01*
X014445Y020109D01*
X014487Y020136D01*
X014531Y020160D01*
X014577Y020181D01*
X014624Y020197D01*
X014672Y020210D01*
X014722Y020219D01*
X014771Y020224D01*
X014822Y020225D01*
X014872Y020222D01*
X014921Y020215D01*
X014970Y020204D01*
X015018Y020189D01*
X015064Y020171D01*
X015109Y020149D01*
X015152Y020123D01*
X015193Y020094D01*
X015232Y020062D01*
X015268Y020027D01*
X015300Y019989D01*
X015330Y019949D01*
X015357Y019906D01*
X015380Y019862D01*
X015399Y019816D01*
X015415Y019768D01*
X015427Y019719D01*
X015435Y019670D01*
X015439Y019620D01*
X015439Y019570D01*
X015435Y019520D01*
X015427Y019471D01*
X015415Y019422D01*
X015399Y019374D01*
X015380Y019328D01*
X015357Y019284D01*
X015330Y019241D01*
X015300Y019201D01*
X015268Y019163D01*
X015232Y019128D01*
X015193Y019096D01*
X015152Y019067D01*
X015109Y019041D01*
X015064Y019019D01*
X015018Y019001D01*
X014970Y018986D01*
X014921Y018975D01*
X014872Y018968D01*
X014822Y018965D01*
X014771Y018966D01*
X014722Y018971D01*
X014672Y018980D01*
X014624Y018993D01*
X014577Y019009D01*
X014531Y019030D01*
X014487Y019054D01*
X014445Y019081D01*
X014405Y019111D01*
X014368Y019145D01*
X014334Y019182D01*
X014302Y019221D01*
X014274Y019262D01*
X014249Y019306D01*
X014228Y019351D01*
X014211Y019398D01*
X014197Y019446D01*
X014187Y019495D01*
X014181Y019545D01*
X014179Y019595D01*
X031929Y001345D02*
X031931Y001395D01*
X031937Y001445D01*
X031947Y001494D01*
X031961Y001542D01*
X031978Y001589D01*
X031999Y001634D01*
X032024Y001678D01*
X032052Y001719D01*
X032084Y001758D01*
X032118Y001795D01*
X032155Y001829D01*
X032195Y001859D01*
X032237Y001886D01*
X032281Y001910D01*
X032327Y001931D01*
X032374Y001947D01*
X032422Y001960D01*
X032472Y001969D01*
X032521Y001974D01*
X032572Y001975D01*
X032622Y001972D01*
X032671Y001965D01*
X032720Y001954D01*
X032768Y001939D01*
X032814Y001921D01*
X032859Y001899D01*
X032902Y001873D01*
X032943Y001844D01*
X032982Y001812D01*
X033018Y001777D01*
X033050Y001739D01*
X033080Y001699D01*
X033107Y001656D01*
X033130Y001612D01*
X033149Y001566D01*
X033165Y001518D01*
X033177Y001469D01*
X033185Y001420D01*
X033189Y001370D01*
X033189Y001320D01*
X033185Y001270D01*
X033177Y001221D01*
X033165Y001172D01*
X033149Y001124D01*
X033130Y001078D01*
X033107Y001034D01*
X033080Y000991D01*
X033050Y000951D01*
X033018Y000913D01*
X032982Y000878D01*
X032943Y000846D01*
X032902Y000817D01*
X032859Y000791D01*
X032814Y000769D01*
X032768Y000751D01*
X032720Y000736D01*
X032671Y000725D01*
X032622Y000718D01*
X032572Y000715D01*
X032521Y000716D01*
X032472Y000721D01*
X032422Y000730D01*
X032374Y000743D01*
X032327Y000759D01*
X032281Y000780D01*
X032237Y000804D01*
X032195Y000831D01*
X032155Y000861D01*
X032118Y000895D01*
X032084Y000932D01*
X032052Y000971D01*
X032024Y001012D01*
X031999Y001056D01*
X031978Y001101D01*
X031961Y001148D01*
X031947Y001196D01*
X031937Y001245D01*
X031931Y001295D01*
X031929Y001345D01*
M02*
