G75*
G70*
%OFA0B0*%
%FSLAX24Y24*%
%IPPOS*%
%LPD*%
%AMOC8*
5,1,8,0,0,1.08239X$1,22.5*
%
%ADD10R,0.2100X0.0760*%
%ADD11C,0.0600*%
%ADD12R,0.0197X0.0591*%
%ADD13R,0.0591X0.0197*%
%ADD14R,0.0870X0.0240*%
%ADD15R,0.2299X0.1551*%
%ADD16R,0.0551X0.1181*%
%ADD17R,0.0512X0.0630*%
%ADD18R,0.0551X0.0394*%
%ADD19R,0.0394X0.0551*%
%ADD20R,0.1575X0.0630*%
%ADD21R,0.0594X0.0594*%
%ADD22C,0.0660*%
%ADD23C,0.0594*%
%ADD24R,0.0512X0.0591*%
%ADD25C,0.0520*%
%ADD26R,0.0260X0.0800*%
%ADD27R,0.0480X0.0880*%
%ADD28R,0.1417X0.0866*%
%ADD29R,0.0630X0.0512*%
%ADD30C,0.0760*%
%ADD31R,0.0472X0.0472*%
%ADD32R,0.0787X0.0591*%
%ADD33R,0.0236X0.0866*%
%ADD34R,0.0630X0.0354*%
%ADD35R,0.0866X0.0551*%
%ADD36OC8,0.0600*%
%ADD37OC8,0.1000*%
%ADD38R,0.0591X0.0512*%
%ADD39R,0.0591X0.0787*%
%ADD40C,0.0160*%
%ADD41C,0.0320*%
%ADD42C,0.0560*%
D10*
X014034Y013845D03*
X017834Y013845D03*
D11*
X012684Y011770D02*
X012684Y011170D01*
X011684Y011170D02*
X011684Y011770D01*
X010684Y011770D02*
X010684Y011170D01*
X010684Y010270D02*
X010684Y009670D01*
X011684Y009670D02*
X011684Y010270D01*
X012684Y010270D02*
X012684Y009670D01*
X012884Y003095D02*
X013484Y003095D01*
X013484Y002095D02*
X012884Y002095D01*
X011984Y002095D02*
X011384Y002095D01*
X011384Y003095D02*
X011984Y003095D01*
X009984Y003095D02*
X009384Y003095D01*
X008484Y003095D02*
X007884Y003095D01*
X007884Y002095D02*
X008484Y002095D01*
X009384Y002095D02*
X009984Y002095D01*
X009984Y001095D02*
X009384Y001095D01*
X008484Y001095D02*
X007884Y001095D01*
X011384Y001095D02*
X011984Y001095D01*
X012884Y001095D02*
X013484Y001095D01*
X014884Y001095D02*
X015484Y001095D01*
X016384Y001095D02*
X016984Y001095D01*
X016984Y002095D02*
X016384Y002095D01*
X015484Y002095D02*
X014884Y002095D01*
X014884Y003095D02*
X015484Y003095D01*
X016384Y003095D02*
X016984Y003095D01*
X021509Y003095D02*
X022109Y003095D01*
X023009Y003095D02*
X023609Y003095D01*
X023609Y002095D02*
X023009Y002095D01*
X022109Y002095D02*
X021509Y002095D01*
X021509Y001095D02*
X022109Y001095D01*
X023009Y001095D02*
X023609Y001095D01*
X025259Y001095D02*
X025859Y001095D01*
X026759Y001095D02*
X027359Y001095D01*
X028759Y001095D02*
X029359Y001095D01*
X030259Y001095D02*
X030859Y001095D01*
X030859Y002095D02*
X030259Y002095D01*
X029359Y002095D02*
X028759Y002095D01*
X028759Y003095D02*
X029359Y003095D01*
X030259Y003095D02*
X030859Y003095D01*
X032009Y004845D02*
X032609Y004845D01*
X032609Y005845D02*
X032009Y005845D01*
X032009Y006845D02*
X032609Y006845D01*
X027359Y003095D02*
X026759Y003095D01*
X025859Y003095D02*
X025259Y003095D01*
X025259Y002095D02*
X025859Y002095D01*
X026759Y002095D02*
X027359Y002095D01*
X032009Y012345D02*
X032609Y012345D01*
X032609Y013345D02*
X032009Y013345D01*
X032009Y014345D02*
X032609Y014345D01*
X032609Y015345D02*
X032009Y015345D01*
X031559Y017545D02*
X031559Y018145D01*
X030559Y018145D02*
X030559Y017545D01*
X029559Y017545D02*
X029559Y018145D01*
X028559Y018145D02*
X028559Y017545D01*
X027559Y017545D02*
X027559Y018145D01*
X026559Y018145D02*
X026559Y017545D01*
X025559Y017545D02*
X025559Y018145D01*
X024309Y018145D02*
X024309Y017545D01*
X023309Y017545D02*
X023309Y018145D01*
X022309Y018145D02*
X022309Y017545D01*
X021309Y017545D02*
X021309Y018145D01*
X020309Y018145D02*
X020309Y017545D01*
X019309Y017545D02*
X019309Y018145D01*
X018309Y018145D02*
X018309Y017545D01*
X017309Y017545D02*
X017309Y018145D01*
X032559Y018145D02*
X032559Y017545D01*
D12*
X018884Y010879D03*
X018569Y010879D03*
X018254Y010879D03*
X017939Y010879D03*
X017624Y010879D03*
X017309Y010879D03*
X016994Y010879D03*
X016679Y010879D03*
X016364Y010879D03*
X016049Y010879D03*
X015734Y010879D03*
X015734Y006312D03*
X016049Y006312D03*
X016364Y006312D03*
X016679Y006312D03*
X016994Y006312D03*
X017309Y006312D03*
X017624Y006312D03*
X017939Y006312D03*
X018254Y006312D03*
X018569Y006312D03*
X018884Y006312D03*
D13*
X019592Y007021D03*
X019592Y007336D03*
X019592Y007651D03*
X019592Y007966D03*
X019592Y008281D03*
X019592Y008595D03*
X019592Y008910D03*
X019592Y009225D03*
X019592Y009540D03*
X019592Y009855D03*
X019592Y010170D03*
X015025Y010170D03*
X015025Y009855D03*
X015025Y009540D03*
X015025Y009225D03*
X015025Y008910D03*
X015025Y008595D03*
X015025Y008281D03*
X015025Y007966D03*
X015025Y007651D03*
X015025Y007336D03*
X015025Y007021D03*
D14*
X003589Y003595D03*
X003589Y003095D03*
X003589Y002595D03*
X003589Y002095D03*
X001529Y002095D03*
X001529Y002595D03*
X001529Y003095D03*
X001529Y003595D03*
D15*
X005559Y002044D03*
X005559Y005647D03*
D16*
X019309Y002915D03*
X019309Y001026D03*
D17*
X012683Y006470D03*
X011935Y006470D03*
X011935Y007283D03*
X012683Y007283D03*
X010683Y007283D03*
X009935Y007283D03*
X010060Y005720D03*
X010808Y005720D03*
X006058Y010095D03*
X005310Y010095D03*
X007185Y012345D03*
X007933Y012345D03*
X020310Y010720D03*
X021058Y010720D03*
X027685Y012845D03*
X028433Y012845D03*
X029435Y008470D03*
X030183Y008470D03*
D18*
X014867Y006594D03*
X014001Y006220D03*
X014867Y005846D03*
X002742Y001469D03*
X002742Y000721D03*
X001876Y001095D03*
D19*
X011309Y007662D03*
X011683Y008529D03*
X010935Y008529D03*
X004683Y010904D03*
X003935Y010904D03*
X004309Y010037D03*
D20*
X005661Y008095D03*
X008457Y008095D03*
X004332Y017595D03*
X001536Y017595D03*
D21*
X001309Y020095D03*
D22*
X001309Y021095D03*
X003309Y021095D03*
D23*
X004309Y021095D03*
X005309Y021095D03*
X006309Y021095D03*
X007309Y021095D03*
X008309Y021095D03*
X009309Y021095D03*
X010309Y021095D03*
X011309Y021095D03*
X012309Y021095D03*
X013309Y021095D03*
X013309Y020095D03*
X012309Y020095D03*
X011309Y020095D03*
X010309Y020095D03*
X009309Y020095D03*
X008309Y020095D03*
X007309Y020095D03*
X006309Y020095D03*
X005309Y020095D03*
X004309Y020095D03*
X003309Y020095D03*
X002309Y020095D03*
X002309Y021095D03*
D24*
X002183Y012845D03*
X001435Y012845D03*
X001185Y004345D03*
X001933Y004345D03*
X014935Y012470D03*
X015683Y012470D03*
X016560Y012470D03*
X017308Y012470D03*
X019122Y013033D03*
X019870Y013033D03*
X025560Y009595D03*
X026308Y009595D03*
X026560Y011220D03*
X027308Y011220D03*
X030810Y008470D03*
X031558Y008470D03*
D25*
X029309Y015710D02*
X029309Y016230D01*
X028309Y016230D02*
X028309Y015710D01*
X027309Y015710D02*
X027309Y016230D01*
X026309Y016230D02*
X026309Y015710D01*
X025309Y015710D02*
X025309Y016230D01*
X024309Y016230D02*
X024309Y015710D01*
X023309Y015710D02*
X023309Y016230D01*
X022309Y016230D02*
X022309Y015710D01*
X021309Y015710D02*
X021309Y016230D01*
D26*
X023559Y014555D03*
X024059Y014555D03*
X024559Y014555D03*
X025059Y014555D03*
X025559Y014555D03*
X026059Y014555D03*
X026559Y014555D03*
X027059Y014555D03*
X027059Y012135D03*
X026559Y012135D03*
X026059Y012135D03*
X025559Y012135D03*
X025059Y012135D03*
X024559Y012135D03*
X024059Y012135D03*
X023559Y012135D03*
D27*
X004719Y012875D03*
X003809Y012875D03*
X002899Y012875D03*
D28*
X003809Y015316D03*
D29*
X003184Y010469D03*
X003184Y009721D03*
X027271Y005595D03*
D30*
X024559Y005595D03*
X024559Y006595D03*
X024559Y007595D03*
X024559Y008595D03*
X024559Y009595D03*
X024559Y011345D03*
X022934Y012158D03*
X020309Y011470D03*
X018996Y011720D03*
X018371Y012345D03*
X015059Y011470D03*
X011309Y013345D03*
X008809Y014095D03*
X007809Y014095D03*
X005059Y015345D03*
X004684Y016220D03*
X005809Y016095D03*
X003059Y018345D03*
X001184Y014720D03*
X005809Y010970D03*
X009059Y009095D03*
X012809Y008345D03*
X009059Y005720D03*
X007559Y004595D03*
X003184Y004345D03*
X001184Y005220D03*
X004059Y007595D03*
X014309Y015095D03*
X015809Y014845D03*
X014309Y018470D03*
X011809Y018970D03*
X018809Y020595D03*
X029184Y012845D03*
X028309Y011220D03*
X021434Y008470D03*
X021434Y007470D03*
X021434Y006470D03*
X021059Y005095D03*
X031059Y020595D03*
D31*
X006559Y013134D03*
X006559Y012307D03*
D32*
X029922Y007095D03*
X030946Y007095D03*
X030946Y005595D03*
X029922Y005595D03*
D33*
X028809Y007072D03*
X028309Y007072D03*
X027809Y007072D03*
X027309Y007072D03*
X027309Y009119D03*
X027809Y009119D03*
X028309Y009119D03*
X028809Y009119D03*
D34*
X028846Y006147D03*
X028846Y005044D03*
D35*
X029554Y010095D03*
X030814Y010095D03*
D36*
X013309Y016095D03*
X012309Y016095D03*
X011309Y016095D03*
X010309Y016095D03*
X009309Y016095D03*
X009309Y017095D03*
X010309Y017095D03*
X011309Y017095D03*
X012309Y017095D03*
X013309Y017095D03*
D37*
X001809Y010595D03*
X001809Y009095D03*
X001809Y007595D03*
X032309Y008470D03*
X032309Y010095D03*
D38*
X005434Y012721D03*
X005434Y013469D03*
D39*
X030809Y012959D03*
X030809Y013982D03*
D40*
X000809Y001801D02*
X000809Y000595D01*
X001470Y000595D01*
X001413Y000619D01*
X001320Y000712D01*
X001270Y000833D01*
X001270Y001358D01*
X001291Y001408D01*
X001181Y001518D01*
X001129Y001645D01*
X001028Y001645D01*
X000907Y001696D01*
X000814Y001789D01*
X000809Y001801D01*
X000809Y001680D02*
X000944Y001680D01*
X000809Y001522D02*
X001180Y001522D01*
X001272Y001363D02*
X000809Y001363D01*
X000809Y001205D02*
X001270Y001205D01*
X001270Y001046D02*
X000809Y001046D01*
X000809Y000970D02*
X001184Y000595D01*
X001934Y000595D01*
X002059Y000720D01*
X002491Y000720D01*
X002742Y000721D01*
X002760Y000729D02*
X007571Y000729D01*
X007632Y000685D01*
X007700Y000651D01*
X007771Y000627D01*
X007846Y000615D01*
X008164Y000615D01*
X008164Y001075D01*
X008204Y001075D01*
X008204Y000615D01*
X008522Y000615D01*
X008596Y000627D01*
X008668Y000651D01*
X008735Y000685D01*
X008797Y000729D01*
X008850Y000783D01*
X008894Y000844D01*
X008929Y000911D01*
X008934Y000927D01*
X008939Y000911D01*
X008973Y000844D01*
X009018Y000783D01*
X009071Y000729D01*
X009132Y000685D01*
X009200Y000651D01*
X009271Y000627D01*
X009346Y000615D01*
X009664Y000615D01*
X009664Y001075D01*
X009704Y001075D01*
X009704Y000615D01*
X010022Y000615D01*
X010096Y000627D01*
X010168Y000651D01*
X010235Y000685D01*
X010297Y000729D01*
X010350Y000783D01*
X010394Y000844D01*
X010429Y000911D01*
X010452Y000983D01*
X010464Y001058D01*
X010464Y001075D01*
X009704Y001075D01*
X009704Y001115D01*
X010464Y001115D01*
X010464Y001133D01*
X010452Y001208D01*
X010429Y001280D01*
X010394Y001347D01*
X010350Y001408D01*
X010297Y001462D01*
X010264Y001485D01*
X011104Y001485D01*
X011071Y001462D01*
X011018Y001408D01*
X010973Y001347D01*
X010939Y001280D01*
X010916Y001208D01*
X010904Y001133D01*
X010904Y001115D01*
X011664Y001115D01*
X011664Y001075D01*
X011704Y001075D01*
X011704Y000615D01*
X012022Y000615D01*
X012096Y000627D01*
X012168Y000651D01*
X012235Y000685D01*
X012297Y000729D01*
X012350Y000783D01*
X012394Y000844D01*
X012429Y000911D01*
X012434Y000927D01*
X012439Y000911D01*
X012473Y000844D01*
X012518Y000783D01*
X012571Y000729D01*
X012632Y000685D01*
X012700Y000651D01*
X012771Y000627D01*
X012846Y000615D01*
X013164Y000615D01*
X013164Y001075D01*
X013204Y001075D01*
X013204Y000615D01*
X013522Y000615D01*
X013596Y000627D01*
X013668Y000651D01*
X013735Y000685D01*
X013797Y000729D01*
X013850Y000783D01*
X013894Y000844D01*
X013929Y000911D01*
X013952Y000983D01*
X013964Y001058D01*
X013964Y001075D01*
X013204Y001075D01*
X013204Y001115D01*
X013964Y001115D01*
X013964Y001133D01*
X013952Y001208D01*
X013929Y001280D01*
X013894Y001347D01*
X013850Y001408D01*
X013797Y001462D01*
X013764Y001485D01*
X014604Y001485D01*
X014571Y001462D01*
X014518Y001408D01*
X014473Y001347D01*
X014439Y001280D01*
X014416Y001208D01*
X014404Y001133D01*
X014404Y001115D01*
X015164Y001115D01*
X015164Y001075D01*
X015204Y001075D01*
X015204Y000615D01*
X015522Y000615D01*
X015596Y000627D01*
X015668Y000651D01*
X015735Y000685D01*
X015797Y000729D01*
X015850Y000783D01*
X015894Y000844D01*
X015929Y000911D01*
X015934Y000927D01*
X015939Y000911D01*
X015973Y000844D01*
X016018Y000783D01*
X016071Y000729D01*
X016132Y000685D01*
X016200Y000651D01*
X016271Y000627D01*
X016346Y000615D01*
X016664Y000615D01*
X016664Y001075D01*
X016704Y001075D01*
X016704Y000615D01*
X017022Y000615D01*
X017096Y000627D01*
X017168Y000651D01*
X017235Y000685D01*
X017297Y000729D01*
X017350Y000783D01*
X017394Y000844D01*
X017429Y000911D01*
X017452Y000983D01*
X017464Y001058D01*
X017464Y001075D01*
X016704Y001075D01*
X016704Y001115D01*
X017464Y001115D01*
X017464Y001133D01*
X017452Y001208D01*
X017429Y001280D01*
X017394Y001347D01*
X017350Y001408D01*
X017297Y001462D01*
X017264Y001485D01*
X017680Y001485D01*
X017904Y001578D01*
X018562Y002235D01*
X018713Y002235D01*
X018754Y002138D01*
X018846Y002045D01*
X018968Y001995D01*
X019650Y001995D01*
X019771Y002045D01*
X019864Y002138D01*
X019876Y002166D01*
X020463Y001578D01*
X020688Y001485D01*
X021229Y001485D01*
X021196Y001462D01*
X021143Y001408D01*
X021098Y001347D01*
X021064Y001280D01*
X021041Y001208D01*
X021029Y001133D01*
X021029Y001115D01*
X021789Y001115D01*
X021789Y001075D01*
X021829Y001075D01*
X021829Y000615D01*
X022147Y000615D01*
X022221Y000627D01*
X022293Y000651D01*
X022360Y000685D01*
X022422Y000729D01*
X022475Y000783D01*
X022519Y000844D01*
X022554Y000911D01*
X022559Y000927D01*
X022564Y000911D01*
X022598Y000844D01*
X022643Y000783D01*
X022696Y000729D01*
X022757Y000685D01*
X022825Y000651D01*
X022896Y000627D01*
X022971Y000615D01*
X023289Y000615D01*
X023289Y001075D01*
X023329Y001075D01*
X023329Y000615D01*
X023647Y000615D01*
X023721Y000627D01*
X023793Y000651D01*
X023860Y000685D01*
X023922Y000729D01*
X023975Y000783D01*
X024019Y000844D01*
X024054Y000911D01*
X024077Y000983D01*
X024089Y001058D01*
X024089Y001075D01*
X023329Y001075D01*
X023329Y001115D01*
X024089Y001115D01*
X024089Y001133D01*
X024077Y001208D01*
X024054Y001280D01*
X024019Y001347D01*
X023975Y001408D01*
X023922Y001462D01*
X023889Y001485D01*
X024979Y001485D01*
X024946Y001462D01*
X024893Y001408D01*
X024848Y001347D01*
X024814Y001280D01*
X024791Y001208D01*
X024779Y001133D01*
X024779Y001115D01*
X025539Y001115D01*
X025539Y001075D01*
X025579Y001075D01*
X025579Y000615D01*
X025897Y000615D01*
X025971Y000627D01*
X026043Y000651D01*
X026110Y000685D01*
X026172Y000729D01*
X026225Y000783D01*
X026269Y000844D01*
X026304Y000911D01*
X026309Y000927D01*
X026314Y000911D01*
X026348Y000844D01*
X026393Y000783D01*
X026446Y000729D01*
X026507Y000685D01*
X026575Y000651D01*
X026646Y000627D01*
X026721Y000615D01*
X027039Y000615D01*
X027039Y001075D01*
X027079Y001075D01*
X027079Y000615D01*
X027397Y000615D01*
X027471Y000627D01*
X027543Y000651D01*
X027610Y000685D01*
X027672Y000729D01*
X027725Y000783D01*
X027769Y000844D01*
X027804Y000911D01*
X027827Y000983D01*
X027839Y001058D01*
X027839Y001075D01*
X027079Y001075D01*
X027079Y001115D01*
X027839Y001115D01*
X027839Y001133D01*
X027827Y001208D01*
X027804Y001280D01*
X027769Y001347D01*
X027725Y001408D01*
X027672Y001462D01*
X027639Y001485D01*
X028479Y001485D01*
X028446Y001462D01*
X028393Y001408D01*
X028348Y001347D01*
X028314Y001280D01*
X028291Y001208D01*
X028279Y001133D01*
X028279Y001115D01*
X029039Y001115D01*
X029039Y001075D01*
X029079Y001075D01*
X029079Y000615D01*
X029397Y000615D01*
X029471Y000627D01*
X029543Y000651D01*
X029610Y000685D01*
X029672Y000729D01*
X029725Y000783D01*
X029769Y000844D01*
X029804Y000911D01*
X029809Y000927D01*
X029814Y000911D01*
X029848Y000844D01*
X029893Y000783D01*
X029946Y000729D01*
X030007Y000685D01*
X030075Y000651D01*
X030146Y000627D01*
X030221Y000615D01*
X030539Y000615D01*
X030539Y001075D01*
X030579Y001075D01*
X030579Y000615D01*
X030897Y000615D01*
X030971Y000627D01*
X031043Y000651D01*
X031110Y000685D01*
X031172Y000729D01*
X031225Y000783D01*
X031269Y000844D01*
X031304Y000911D01*
X031327Y000983D01*
X031339Y001058D01*
X031339Y001075D01*
X030579Y001075D01*
X030579Y001115D01*
X031339Y001115D01*
X031339Y001133D01*
X031327Y001208D01*
X031304Y001280D01*
X031269Y001347D01*
X031225Y001408D01*
X031172Y001462D01*
X031110Y001506D01*
X031098Y001512D01*
X031216Y001561D01*
X031393Y001739D01*
X031489Y001970D01*
X031489Y002221D01*
X031393Y002452D01*
X031250Y002595D01*
X031393Y002739D01*
X031489Y002970D01*
X031489Y003221D01*
X031393Y003452D01*
X031216Y003630D01*
X030984Y003725D01*
X030134Y003725D01*
X029902Y003630D01*
X029809Y003536D01*
X029716Y003630D01*
X029484Y003725D01*
X029469Y003725D01*
X029469Y004177D01*
X029406Y004328D01*
X029047Y004687D01*
X029185Y004687D01*
X029231Y004699D01*
X029272Y004723D01*
X029305Y004757D01*
X029329Y004798D01*
X029341Y004843D01*
X029341Y005021D01*
X029341Y005020D01*
X029463Y004970D01*
X030381Y004970D01*
X030434Y004992D01*
X030486Y004970D01*
X031405Y004970D01*
X031526Y005020D01*
X031594Y005088D01*
X031564Y005030D01*
X031541Y004958D01*
X031529Y004883D01*
X031529Y004865D01*
X032289Y004865D01*
X032289Y004825D01*
X032329Y004825D01*
X032329Y004365D01*
X032647Y004365D01*
X032721Y004377D01*
X032793Y004401D01*
X032860Y004435D01*
X032922Y004479D01*
X032975Y004533D01*
X033019Y004594D01*
X033054Y004661D01*
X033077Y004733D01*
X033089Y004808D01*
X033089Y004825D01*
X032329Y004825D01*
X032329Y004865D01*
X033089Y004865D01*
X033089Y004883D01*
X033077Y004958D01*
X033054Y005030D01*
X033019Y005097D01*
X032975Y005158D01*
X032922Y005212D01*
X032860Y005256D01*
X032848Y005262D01*
X032966Y005311D01*
X033143Y005489D01*
X033239Y005720D01*
X033239Y005971D01*
X033143Y006202D01*
X033000Y006345D01*
X033143Y006489D01*
X033239Y006720D01*
X033239Y006971D01*
X033143Y007202D01*
X032966Y007380D01*
X032734Y007475D01*
X031884Y007475D01*
X031795Y007439D01*
X031791Y007443D01*
X031651Y007501D01*
X031619Y007578D01*
X031526Y007671D01*
X031405Y007721D01*
X030486Y007721D01*
X030434Y007699D01*
X030381Y007721D01*
X029463Y007721D01*
X029341Y007671D01*
X029249Y007578D01*
X029198Y007456D01*
X029198Y006735D01*
X029233Y006651D01*
X029227Y006654D01*
X029107Y006654D01*
X029107Y007072D01*
X029107Y007529D01*
X029095Y007574D01*
X029071Y007615D01*
X029038Y007649D01*
X028996Y007673D01*
X028951Y007685D01*
X028809Y007685D01*
X028809Y007072D01*
X028809Y007072D01*
X029107Y007072D01*
X028809Y007072D01*
X028809Y007072D01*
X028809Y007685D01*
X028710Y007685D01*
X028707Y007692D01*
X028614Y007785D01*
X028493Y007835D01*
X028125Y007835D01*
X028004Y007785D01*
X027911Y007692D01*
X027908Y007685D01*
X027809Y007685D01*
X027809Y007072D01*
X027809Y007072D01*
X027809Y007685D01*
X027710Y007685D01*
X027707Y007692D01*
X027614Y007785D01*
X027493Y007835D01*
X027125Y007835D01*
X027004Y007785D01*
X026911Y007692D01*
X026861Y007571D01*
X026861Y006573D01*
X026911Y006452D01*
X027004Y006359D01*
X027125Y006309D01*
X027493Y006309D01*
X027614Y006359D01*
X027707Y006452D01*
X027710Y006459D01*
X027809Y006459D01*
X027899Y006459D01*
X027899Y006015D01*
X027889Y006005D01*
X027880Y006005D01*
X027866Y006038D01*
X027773Y006131D01*
X027652Y006181D01*
X026891Y006181D01*
X026770Y006131D01*
X026677Y006038D01*
X026627Y005917D01*
X026627Y005274D01*
X026677Y005153D01*
X026770Y005060D01*
X026891Y005010D01*
X027652Y005010D01*
X027773Y005060D01*
X027866Y005153D01*
X027880Y005185D01*
X028140Y005185D01*
X028291Y005248D01*
X028406Y005363D01*
X028656Y005613D01*
X028667Y005639D01*
X029198Y005639D01*
X029198Y005398D01*
X029185Y005401D01*
X028855Y005401D01*
X028855Y005053D01*
X028838Y005053D01*
X028838Y005401D01*
X028508Y005401D01*
X028462Y005389D01*
X028421Y005365D01*
X028387Y005332D01*
X028364Y005291D01*
X028351Y005245D01*
X028351Y005053D01*
X028838Y005053D01*
X028838Y005036D01*
X028351Y005036D01*
X028351Y005005D01*
X023979Y005005D01*
X023969Y005015D01*
X023969Y006181D01*
X024157Y005994D01*
X024163Y005991D01*
X024132Y005960D01*
X024080Y005889D01*
X024040Y005810D01*
X024013Y005727D01*
X023999Y005640D01*
X023999Y005595D01*
X023999Y005551D01*
X024013Y005464D01*
X024040Y005381D01*
X024080Y005302D01*
X024132Y005231D01*
X024194Y005168D01*
X024265Y005117D01*
X024344Y005076D01*
X024428Y005049D01*
X024515Y005035D01*
X024559Y005035D01*
X024603Y005035D01*
X024690Y005049D01*
X024774Y005076D01*
X024852Y005117D01*
X024924Y005168D01*
X024986Y005231D01*
X025038Y005302D01*
X025078Y005381D01*
X025105Y005464D01*
X025119Y005551D01*
X025119Y005595D01*
X024559Y005595D01*
X024559Y005035D01*
X024559Y005595D01*
X024559Y005595D01*
X024559Y005595D01*
X023999Y005595D01*
X024559Y005595D01*
X024559Y005595D01*
X025119Y005595D01*
X025119Y005640D01*
X025105Y005727D01*
X025078Y005810D01*
X025038Y005889D01*
X024986Y005960D01*
X026644Y005960D01*
X026627Y005801D02*
X025081Y005801D01*
X025118Y005643D02*
X026627Y005643D01*
X026627Y005484D02*
X025108Y005484D01*
X025050Y005326D02*
X026627Y005326D01*
X026671Y005167D02*
X024923Y005167D01*
X024559Y005167D02*
X024559Y005167D01*
X024559Y005326D02*
X024559Y005326D01*
X024559Y005484D02*
X024559Y005484D01*
X024195Y005167D02*
X023969Y005167D01*
X023975Y005009D02*
X028351Y005009D01*
X028351Y005167D02*
X027872Y005167D01*
X028369Y005326D02*
X028384Y005326D01*
X028528Y005484D02*
X029198Y005484D01*
X028855Y005326D02*
X028838Y005326D01*
X028838Y005167D02*
X028855Y005167D01*
X029341Y005009D02*
X029369Y005009D01*
X029341Y004850D02*
X032289Y004850D01*
X032289Y004825D02*
X031529Y004825D01*
X031529Y004808D01*
X031541Y004733D01*
X031564Y004661D01*
X031598Y004594D01*
X031643Y004533D01*
X031696Y004479D01*
X031757Y004435D01*
X031825Y004401D01*
X031896Y004377D01*
X031971Y004365D01*
X032289Y004365D01*
X032289Y004825D01*
X032329Y004850D02*
X033559Y004850D01*
X033559Y004692D02*
X033064Y004692D01*
X032976Y004533D02*
X033559Y004533D01*
X033559Y004375D02*
X032707Y004375D01*
X032329Y004375D02*
X032289Y004375D01*
X032289Y004533D02*
X032329Y004533D01*
X032329Y004692D02*
X032289Y004692D01*
X031911Y004375D02*
X029359Y004375D01*
X029453Y004216D02*
X033559Y004216D01*
X033559Y004058D02*
X029469Y004058D01*
X029469Y003899D02*
X033559Y003899D01*
X033559Y003741D02*
X029469Y003741D01*
X029763Y003582D02*
X029855Y003582D01*
X029059Y003095D02*
X029059Y004095D01*
X028559Y004595D01*
X023809Y004595D01*
X023559Y004845D01*
X023559Y009220D01*
X022059Y010720D01*
X021058Y010720D01*
X021059Y011720D01*
X020746Y012033D01*
X019996Y012033D01*
X019684Y011720D01*
X019684Y011283D01*
X019371Y010970D01*
X018871Y010970D01*
X018871Y010845D01*
X018900Y010879D01*
X018884Y010879D01*
X018569Y010879D02*
X018559Y011283D01*
X018996Y011720D01*
X018246Y012158D02*
X018371Y012345D01*
X018246Y012158D02*
X018246Y010970D01*
X018254Y010879D01*
X018809Y010220D02*
X017434Y010220D01*
X017309Y010345D01*
X017309Y010879D01*
X017309Y011470D01*
X017809Y011970D01*
X017809Y012595D01*
X018246Y013033D01*
X019122Y013033D01*
X019184Y013095D01*
X019184Y014970D01*
X018684Y015470D01*
X015434Y015470D01*
X015059Y015845D01*
X014309Y015095D01*
X014970Y014836D02*
X018739Y014836D01*
X018774Y014801D02*
X018774Y014555D01*
X016718Y014555D01*
X016597Y014505D01*
X016504Y014412D01*
X016454Y014291D01*
X016454Y013400D01*
X016504Y013279D01*
X016521Y013262D01*
X016463Y013204D01*
X016354Y013096D01*
X016238Y013096D01*
X016219Y013088D01*
X016219Y013302D01*
X016156Y013453D01*
X015531Y014078D01*
X015416Y014193D01*
X015414Y014194D01*
X015414Y014291D01*
X015364Y014412D01*
X015271Y014505D01*
X015150Y014555D01*
X014773Y014555D01*
X014911Y014693D01*
X015019Y014954D01*
X015019Y015226D01*
X015059Y015266D01*
X015086Y015238D01*
X015202Y015123D01*
X015352Y015060D01*
X018514Y015060D01*
X018774Y014801D01*
X018774Y014677D02*
X014895Y014677D01*
X015238Y014519D02*
X016630Y014519D01*
X016483Y014360D02*
X015385Y014360D01*
X015414Y014202D02*
X016454Y014202D01*
X016454Y014043D02*
X015566Y014043D01*
X015724Y013885D02*
X016454Y013885D01*
X016454Y013726D02*
X015883Y013726D01*
X016041Y013568D02*
X016454Y013568D01*
X016454Y013409D02*
X016174Y013409D01*
X016219Y013251D02*
X016510Y013251D01*
X016230Y013092D02*
X016219Y013092D01*
X015809Y013220D02*
X015184Y013845D01*
X014034Y013845D01*
X013845Y014555D02*
X012918Y014555D01*
X012797Y014505D01*
X012704Y014412D01*
X012654Y014291D01*
X012654Y013400D01*
X012704Y013279D01*
X012797Y013186D01*
X012918Y013135D01*
X015150Y013135D01*
X015266Y013184D01*
X015356Y013094D01*
X015240Y013046D01*
X015147Y012953D01*
X015144Y012946D01*
X014983Y012946D01*
X014983Y012518D01*
X014887Y012518D01*
X014887Y012423D01*
X014499Y012423D01*
X014499Y012151D01*
X014511Y012106D01*
X014535Y012065D01*
X014568Y012031D01*
X014598Y012014D01*
X014457Y011873D01*
X014349Y011612D01*
X014349Y011329D01*
X014457Y011068D01*
X014657Y010869D01*
X014918Y010760D01*
X015200Y010760D01*
X015306Y010804D01*
X015306Y010599D01*
X014664Y010599D01*
X014543Y010548D01*
X014450Y010456D01*
X014400Y010334D01*
X013314Y011420D01*
X013314Y011896D01*
X013218Y012127D01*
X013041Y012305D01*
X012809Y012400D01*
X012559Y012400D01*
X012327Y012305D01*
X012184Y012161D01*
X012041Y012305D01*
X011809Y012400D01*
X011559Y012400D01*
X011327Y012305D01*
X011150Y012127D01*
X011101Y012009D01*
X011094Y012022D01*
X011050Y012083D01*
X010997Y012137D01*
X010935Y012181D01*
X010868Y012215D01*
X010796Y012239D01*
X010722Y012250D01*
X010704Y012250D01*
X010704Y011490D01*
X010664Y011490D01*
X010664Y011450D01*
X010704Y011450D01*
X010704Y009990D01*
X010664Y009990D01*
X010664Y009950D01*
X010704Y009950D01*
X010704Y009190D01*
X010722Y009190D01*
X010796Y009202D01*
X010868Y009226D01*
X010935Y009260D01*
X010997Y009304D01*
X011050Y009358D01*
X011094Y009419D01*
X011101Y009432D01*
X011150Y009314D01*
X011327Y009136D01*
X011559Y009040D01*
X011809Y009040D01*
X012041Y009136D01*
X012184Y009280D01*
X012327Y009136D01*
X012559Y009040D01*
X012809Y009040D01*
X013041Y009136D01*
X013218Y009314D01*
X013314Y009545D01*
X013314Y009560D01*
X013389Y009560D01*
X013399Y009551D01*
X013399Y008764D01*
X013461Y008613D01*
X013827Y008248D01*
X013977Y008185D01*
X014400Y008185D01*
X014400Y007681D01*
X014072Y007681D01*
X013259Y007688D01*
X013219Y007785D01*
X013126Y007878D01*
X013004Y007928D01*
X012361Y007928D01*
X012309Y007906D01*
X012256Y007928D01*
X011836Y007928D01*
X011836Y008004D01*
X011807Y008073D01*
X011903Y008073D01*
X011949Y008085D01*
X011990Y008109D01*
X012024Y008142D01*
X012047Y008183D01*
X012060Y008229D01*
X012060Y008510D01*
X011701Y008510D01*
X011701Y008547D01*
X011664Y008547D01*
X011664Y008984D01*
X011462Y008984D01*
X011419Y008973D01*
X011411Y008991D01*
X011319Y009084D01*
X011197Y009134D01*
X010672Y009134D01*
X010551Y009084D01*
X010458Y008991D01*
X010408Y008870D01*
X010408Y008701D01*
X010094Y009015D01*
X010094Y013302D01*
X010031Y013453D01*
X009916Y013568D01*
X009519Y013965D01*
X009519Y014237D01*
X009411Y014498D01*
X009211Y014697D01*
X008950Y014805D01*
X008668Y014805D01*
X008407Y014697D01*
X008309Y014600D01*
X008211Y014697D01*
X007950Y014805D01*
X007668Y014805D01*
X007407Y014697D01*
X007207Y014498D01*
X007099Y014237D01*
X007099Y013954D01*
X007207Y013693D01*
X007407Y013494D01*
X007668Y013385D01*
X007939Y013385D01*
X008899Y012426D01*
X008899Y009798D01*
X008657Y009697D01*
X008457Y009498D01*
X008349Y009237D01*
X008349Y008954D01*
X008457Y008693D01*
X008560Y008590D01*
X008534Y008590D01*
X008534Y008173D01*
X008379Y008173D01*
X008379Y008590D01*
X007645Y008590D01*
X007600Y008578D01*
X007559Y008554D01*
X007525Y008521D01*
X007501Y008480D01*
X007489Y008434D01*
X007489Y008173D01*
X008379Y008173D01*
X008379Y008018D01*
X007489Y008018D01*
X007489Y007757D01*
X007501Y007711D01*
X007525Y007670D01*
X007559Y007636D01*
X007600Y007613D01*
X007645Y007601D01*
X008379Y007601D01*
X008379Y008018D01*
X008534Y008018D01*
X008534Y008173D01*
X009424Y008173D01*
X009424Y008434D01*
X009413Y008474D01*
X009457Y008492D01*
X010156Y007794D01*
X010147Y007785D01*
X010144Y007778D01*
X009983Y007778D01*
X009983Y007331D01*
X009887Y007331D01*
X009887Y007778D01*
X009655Y007778D01*
X009609Y007766D01*
X009568Y007742D01*
X009535Y007708D01*
X009511Y007667D01*
X009499Y007622D01*
X009499Y007331D01*
X009887Y007331D01*
X009887Y007235D01*
X009983Y007235D01*
X009983Y006788D01*
X010144Y006788D01*
X010147Y006781D01*
X010240Y006688D01*
X010361Y006638D01*
X011004Y006638D01*
X011126Y006688D01*
X011219Y006781D01*
X011257Y006873D01*
X011361Y006873D01*
X011399Y006781D01*
X011492Y006688D01*
X011499Y006685D01*
X011499Y006518D01*
X011887Y006518D01*
X011887Y006423D01*
X011499Y006423D01*
X011499Y006132D01*
X011499Y006130D01*
X011382Y006130D01*
X011344Y006222D01*
X011251Y006315D01*
X011129Y006365D01*
X010486Y006365D01*
X010434Y006344D01*
X010381Y006365D01*
X009738Y006365D01*
X009617Y006315D01*
X009543Y006241D01*
X009461Y006322D01*
X009200Y006430D01*
X008918Y006430D01*
X008657Y006322D01*
X008457Y006123D01*
X008349Y005862D01*
X008349Y005579D01*
X008457Y005318D01*
X008657Y005119D01*
X008918Y005010D01*
X009200Y005010D01*
X009272Y005040D01*
X007959Y003821D01*
X007952Y003818D01*
X007899Y003766D01*
X007856Y003725D01*
X007759Y003725D01*
X007527Y003630D01*
X007350Y003452D01*
X007254Y003221D01*
X007254Y002970D01*
X007350Y002739D01*
X007383Y002705D01*
X007038Y002705D01*
X007038Y002886D01*
X006988Y003007D01*
X006895Y003100D01*
X006774Y003150D01*
X004354Y003150D01*
X004354Y003185D01*
X005390Y003185D01*
X005541Y003248D01*
X005656Y003363D01*
X005906Y003613D01*
X005969Y003764D01*
X005969Y004541D01*
X006774Y004541D01*
X006895Y004591D01*
X006988Y004684D01*
X007038Y004805D01*
X007038Y006488D01*
X006988Y006609D01*
X006895Y006702D01*
X006774Y006752D01*
X006169Y006752D01*
X006169Y007451D01*
X006514Y007451D01*
X006636Y007501D01*
X006728Y007594D01*
X006779Y007715D01*
X006779Y008476D01*
X006728Y008597D01*
X006636Y008690D01*
X006514Y008740D01*
X006159Y008740D01*
X006076Y008941D01*
X005904Y009113D01*
X005566Y009451D01*
X005631Y009451D01*
X005753Y009501D01*
X005846Y009594D01*
X005848Y009601D01*
X006010Y009601D01*
X006010Y010048D01*
X006106Y010048D01*
X006106Y010143D01*
X006494Y010143D01*
X006494Y010434D01*
X006482Y010480D01*
X006458Y010521D01*
X006424Y010554D01*
X006407Y010564D01*
X006411Y010568D01*
X006519Y010829D01*
X006519Y011112D01*
X006411Y011373D01*
X006211Y011572D01*
X005950Y011680D01*
X005668Y011680D01*
X005407Y011572D01*
X005207Y011373D01*
X005099Y011112D01*
X005099Y010840D01*
X005076Y010818D01*
X005076Y010817D01*
X005060Y010801D01*
X005060Y010885D01*
X004701Y010885D01*
X004701Y010922D01*
X004664Y010922D01*
X004664Y011359D01*
X004462Y011359D01*
X004419Y011348D01*
X004411Y011366D01*
X004319Y011459D01*
X004197Y011509D01*
X003672Y011509D01*
X003551Y011459D01*
X003458Y011366D01*
X003408Y011245D01*
X003408Y011055D01*
X002803Y011055D01*
X002682Y011005D01*
X002627Y010951D01*
X002299Y011279D01*
X002299Y011307D01*
X002555Y011649D01*
X002599Y011693D01*
X002613Y011726D01*
X002634Y011754D01*
X002650Y011815D01*
X002674Y011873D01*
X002674Y011909D01*
X002683Y011943D01*
X002674Y012005D01*
X002674Y012105D01*
X003205Y012105D01*
X003326Y012156D01*
X003419Y012249D01*
X003443Y012307D01*
X003458Y012291D01*
X003499Y012268D01*
X003545Y012255D01*
X003769Y012255D01*
X003769Y012835D01*
X003849Y012835D01*
X003849Y012255D01*
X004073Y012255D01*
X004118Y012268D01*
X004159Y012291D01*
X004175Y012307D01*
X004199Y012249D01*
X004292Y012156D01*
X004413Y012105D01*
X005025Y012105D01*
X005097Y012136D01*
X005795Y012136D01*
X005916Y012186D01*
X005993Y012262D01*
X005993Y012005D01*
X006043Y011884D01*
X006136Y011791D01*
X006257Y011741D01*
X006766Y011741D01*
X006863Y011701D01*
X007506Y011701D01*
X007628Y011751D01*
X007721Y011844D01*
X007723Y011851D01*
X007885Y011851D01*
X007885Y012298D01*
X007981Y012298D01*
X007981Y012393D01*
X008369Y012393D01*
X008369Y012684D01*
X008357Y012730D01*
X008333Y012771D01*
X008299Y012804D01*
X008258Y012828D01*
X008212Y012840D01*
X007981Y012840D01*
X007981Y012393D01*
X007885Y012393D01*
X007885Y012840D01*
X007723Y012840D01*
X007721Y012847D01*
X007628Y012940D01*
X007506Y012990D01*
X007125Y012990D01*
X007125Y013436D01*
X007075Y013557D01*
X006982Y013650D01*
X006861Y013700D01*
X006469Y013700D01*
X006469Y014426D01*
X006854Y014810D01*
X012515Y014810D01*
X012666Y014873D01*
X013259Y015465D01*
X013570Y015465D01*
X013790Y015685D01*
X013895Y015685D01*
X013707Y015498D01*
X013599Y015237D01*
X013599Y014954D01*
X013707Y014693D01*
X013845Y014555D01*
X013723Y014677D02*
X009231Y014677D01*
X009389Y014519D02*
X012830Y014519D01*
X012683Y014360D02*
X009468Y014360D01*
X009519Y014202D02*
X012654Y014202D01*
X012654Y014043D02*
X009519Y014043D01*
X009599Y013885D02*
X012654Y013885D01*
X012654Y013726D02*
X009758Y013726D01*
X009916Y013568D02*
X012654Y013568D01*
X012654Y013409D02*
X010049Y013409D01*
X010094Y013251D02*
X012732Y013251D01*
X013045Y012300D02*
X014499Y012300D01*
X014502Y012141D02*
X013204Y012141D01*
X013278Y011983D02*
X014567Y011983D01*
X014437Y011824D02*
X013314Y011824D01*
X013314Y011666D02*
X014371Y011666D01*
X014349Y011507D02*
X013314Y011507D01*
X013385Y011349D02*
X014349Y011349D01*
X014406Y011190D02*
X013544Y011190D01*
X013702Y011032D02*
X014493Y011032D01*
X014652Y010873D02*
X013861Y010873D01*
X014019Y010715D02*
X015306Y010715D01*
X015184Y010720D02*
X014434Y010720D01*
X014563Y010556D02*
X014178Y010556D01*
X014336Y010398D02*
X014426Y010398D01*
X014400Y010334D02*
X014400Y010334D01*
X014184Y009970D02*
X014184Y009095D01*
X014371Y008908D01*
X015025Y008910D01*
X014871Y008908D01*
X015025Y008595D02*
X014059Y008595D01*
X013809Y008845D01*
X013809Y009720D01*
X013559Y009970D01*
X012684Y009970D01*
X013273Y009447D02*
X013399Y009447D01*
X013399Y009288D02*
X013193Y009288D01*
X013025Y009130D02*
X013399Y009130D01*
X013399Y008971D02*
X011950Y008971D01*
X011949Y008972D02*
X011903Y008984D01*
X011701Y008984D01*
X011701Y008547D01*
X012060Y008547D01*
X012060Y008828D01*
X012047Y008874D01*
X012024Y008915D01*
X011990Y008948D01*
X011949Y008972D01*
X012025Y009130D02*
X012342Y009130D01*
X012060Y008813D02*
X013399Y008813D01*
X013444Y008654D02*
X012060Y008654D01*
X012060Y008496D02*
X013579Y008496D01*
X013737Y008337D02*
X012060Y008337D01*
X012045Y008179D02*
X014400Y008179D01*
X014400Y008020D02*
X011829Y008020D01*
X011309Y007662D02*
X011309Y007283D01*
X011935Y007283D01*
X011309Y007283D02*
X010683Y007283D01*
X010684Y007595D01*
X010684Y007845D01*
X009684Y008845D01*
X009684Y013220D01*
X008809Y014095D01*
X008387Y014677D02*
X008231Y014677D01*
X007809Y014095D02*
X009309Y012595D01*
X009309Y009345D01*
X009059Y009095D01*
X008407Y008813D02*
X006129Y008813D01*
X006046Y008971D02*
X008349Y008971D01*
X008349Y009130D02*
X005887Y009130D01*
X005729Y009288D02*
X008370Y009288D01*
X008436Y009447D02*
X005570Y009447D01*
X006010Y009605D02*
X006106Y009605D01*
X006106Y009601D02*
X006337Y009601D01*
X006383Y009613D01*
X006424Y009636D01*
X006458Y009670D01*
X006482Y009711D01*
X006494Y009757D01*
X006494Y010048D01*
X006106Y010048D01*
X006106Y009601D01*
X006106Y009764D02*
X006010Y009764D01*
X006010Y009922D02*
X006106Y009922D01*
X006106Y010081D02*
X008899Y010081D01*
X008899Y010239D02*
X006494Y010239D01*
X006494Y010398D02*
X008899Y010398D01*
X008899Y010556D02*
X006421Y010556D01*
X006472Y010715D02*
X008899Y010715D01*
X008899Y010873D02*
X006519Y010873D01*
X006519Y011032D02*
X008899Y011032D01*
X008899Y011190D02*
X006486Y011190D01*
X006421Y011349D02*
X008899Y011349D01*
X008899Y011507D02*
X006276Y011507D01*
X005985Y011666D02*
X008899Y011666D01*
X008899Y011824D02*
X007701Y011824D01*
X007885Y011983D02*
X007981Y011983D01*
X007981Y011851D02*
X008212Y011851D01*
X008258Y011863D01*
X008299Y011886D01*
X008333Y011920D01*
X008357Y011961D01*
X008369Y012007D01*
X008369Y012298D01*
X007981Y012298D01*
X007981Y011851D01*
X007981Y012141D02*
X007885Y012141D01*
X007981Y012300D02*
X008899Y012300D01*
X008899Y012141D02*
X008369Y012141D01*
X008362Y011983D02*
X008899Y011983D01*
X008866Y012458D02*
X008369Y012458D01*
X008369Y012617D02*
X008708Y012617D01*
X008549Y012775D02*
X008328Y012775D01*
X008391Y012934D02*
X007634Y012934D01*
X007885Y012775D02*
X007981Y012775D01*
X007981Y012617D02*
X007885Y012617D01*
X007885Y012458D02*
X007981Y012458D01*
X007185Y012345D02*
X006684Y012345D01*
X006559Y012307D01*
X005993Y012141D02*
X005809Y012141D01*
X006002Y011983D02*
X002677Y011983D01*
X002654Y011824D02*
X006102Y011824D01*
X005633Y011666D02*
X002572Y011666D01*
X002449Y011507D02*
X003668Y011507D01*
X003451Y011349D02*
X002330Y011349D01*
X002388Y011190D02*
X003408Y011190D01*
X002747Y011032D02*
X002546Y011032D01*
X001809Y010595D02*
X000809Y009720D01*
X000809Y006720D01*
X001934Y005595D01*
X001934Y004345D01*
X001933Y004345D01*
X001934Y004219D01*
X001934Y003720D01*
X001809Y003595D01*
X001529Y003595D01*
X001233Y004393D02*
X001137Y004393D01*
X001137Y004821D01*
X000905Y004821D01*
X000859Y004808D01*
X000818Y004785D01*
X000809Y004775D01*
X000809Y006141D01*
X001524Y005426D01*
X001524Y004935D01*
X001490Y004921D01*
X001397Y004828D01*
X001394Y004821D01*
X001233Y004821D01*
X001233Y004393D01*
X001233Y004533D02*
X001137Y004533D01*
X001137Y004692D02*
X001233Y004692D01*
X001420Y004850D02*
X000809Y004850D01*
X000809Y005009D02*
X001524Y005009D01*
X001524Y005167D02*
X000809Y005167D01*
X000809Y005220D02*
X000809Y002595D01*
X000809Y000970D01*
X000809Y000888D02*
X001270Y000888D01*
X001313Y000729D02*
X000809Y000729D01*
X001809Y001162D02*
X001809Y001470D01*
X001529Y001750D01*
X001529Y002095D01*
X002309Y002095D01*
X002559Y002345D01*
X002559Y003720D01*
X003184Y004345D01*
X003833Y004058D02*
X005149Y004058D01*
X005149Y004015D02*
X005139Y004005D01*
X004186Y004005D01*
X004090Y004045D01*
X003828Y004045D01*
X003894Y004204D01*
X003894Y004487D01*
X003786Y004748D01*
X003586Y004947D01*
X003325Y005055D01*
X003043Y005055D01*
X002782Y004947D01*
X002582Y004748D01*
X002519Y004595D01*
X002519Y004706D01*
X002469Y004828D01*
X002376Y004921D01*
X002344Y004934D01*
X002344Y005677D01*
X002281Y005828D01*
X001219Y006890D01*
X001219Y007224D01*
X001527Y006915D01*
X001809Y006915D01*
X002091Y006915D01*
X002489Y007314D01*
X002489Y007595D01*
X001809Y007595D01*
X001809Y006915D01*
X001809Y007595D01*
X001809Y007595D01*
X001809Y007595D01*
X002489Y007595D01*
X002489Y007877D01*
X002101Y008265D01*
X002153Y008265D01*
X002373Y008485D01*
X004548Y008485D01*
X004544Y008476D01*
X004544Y007715D01*
X004594Y007594D01*
X004687Y007501D01*
X004808Y007451D01*
X004949Y007451D01*
X004949Y006752D01*
X004344Y006752D01*
X004222Y006702D01*
X004130Y006609D01*
X004079Y006488D01*
X004079Y004805D01*
X004130Y004684D01*
X004222Y004591D01*
X004344Y004541D01*
X005149Y004541D01*
X005149Y004015D01*
X005149Y004216D02*
X003894Y004216D01*
X003894Y004375D02*
X005149Y004375D01*
X005149Y004533D02*
X003874Y004533D01*
X003809Y004692D02*
X004126Y004692D01*
X004079Y004850D02*
X003683Y004850D01*
X003437Y005009D02*
X004079Y005009D01*
X004079Y005167D02*
X002344Y005167D01*
X002344Y005009D02*
X002930Y005009D01*
X002685Y004850D02*
X002446Y004850D01*
X002519Y004692D02*
X002559Y004692D01*
X002344Y005326D02*
X004079Y005326D01*
X004079Y005484D02*
X002344Y005484D01*
X002344Y005643D02*
X004079Y005643D01*
X004079Y005801D02*
X002292Y005801D01*
X002149Y005960D02*
X004079Y005960D01*
X004079Y006118D02*
X001991Y006118D01*
X001832Y006277D02*
X004079Y006277D01*
X004079Y006435D02*
X001674Y006435D01*
X001515Y006594D02*
X004123Y006594D01*
X004949Y006752D02*
X001357Y006752D01*
X001219Y006911D02*
X004949Y006911D01*
X004949Y007069D02*
X002245Y007069D01*
X002403Y007228D02*
X004949Y007228D01*
X004949Y007386D02*
X002489Y007386D01*
X002489Y007545D02*
X004643Y007545D01*
X004549Y007703D02*
X002489Y007703D01*
X002489Y007862D02*
X004544Y007862D01*
X004544Y008020D02*
X002346Y008020D01*
X002187Y008179D02*
X004544Y008179D01*
X004544Y008337D02*
X002225Y008337D01*
X003184Y009095D02*
X003184Y009721D01*
X003559Y010470D02*
X003934Y010095D01*
X004059Y010095D01*
X004309Y010037D01*
X004559Y010095D01*
X005310Y010095D01*
X005309Y010470D01*
X005809Y010970D01*
X005342Y011507D02*
X004201Y011507D01*
X004419Y011349D02*
X004424Y011349D01*
X004664Y011349D02*
X004701Y011349D01*
X004701Y011359D02*
X004701Y010922D01*
X005060Y010922D01*
X005060Y011203D01*
X005047Y011249D01*
X005024Y011290D01*
X004990Y011323D01*
X004949Y011347D01*
X004903Y011359D01*
X004701Y011359D01*
X004701Y011190D02*
X004664Y011190D01*
X004664Y011032D02*
X004701Y011032D01*
X005060Y011032D02*
X005099Y011032D01*
X005099Y010873D02*
X005060Y010873D01*
X005060Y011190D02*
X005132Y011190D01*
X005197Y011349D02*
X004941Y011349D01*
X004326Y012141D02*
X003291Y012141D01*
X003440Y012300D02*
X003450Y012300D01*
X003769Y012300D02*
X003849Y012300D01*
X003849Y012458D02*
X003769Y012458D01*
X003769Y012617D02*
X003849Y012617D01*
X003849Y012775D02*
X003769Y012775D01*
X003769Y012915D02*
X003769Y013495D01*
X003545Y013495D01*
X003499Y013483D01*
X003458Y013460D01*
X003443Y013444D01*
X003419Y013502D01*
X003326Y013595D01*
X003205Y013645D01*
X002674Y013645D01*
X002674Y016018D01*
X002887Y016230D01*
X004031Y016230D01*
X004211Y016305D01*
X004586Y016680D01*
X004724Y016818D01*
X004779Y016951D01*
X005185Y016951D01*
X005239Y016973D01*
X005319Y016893D01*
X005319Y016610D01*
X005207Y016498D01*
X005099Y016237D01*
X005099Y015954D01*
X005207Y015693D01*
X005407Y015494D01*
X005668Y015385D01*
X005950Y015385D01*
X006211Y015494D01*
X006411Y015693D01*
X006519Y015954D01*
X006519Y016237D01*
X006411Y016498D01*
X006299Y016610D01*
X006299Y017193D01*
X006224Y017373D01*
X006086Y017511D01*
X005586Y018011D01*
X005406Y018085D01*
X005404Y018085D01*
X005399Y018097D01*
X005306Y018190D01*
X005185Y018240D01*
X004693Y018240D01*
X004656Y018328D01*
X004541Y018443D01*
X004291Y018693D01*
X004140Y018755D01*
X003653Y018755D01*
X003473Y018935D01*
X004139Y018935D01*
X004452Y018623D01*
X004602Y018560D01*
X006014Y018560D01*
X006274Y018301D01*
X006274Y017639D01*
X006336Y017488D01*
X006452Y017373D01*
X008194Y015630D01*
X006602Y015630D01*
X006452Y015568D01*
X005827Y014943D01*
X005827Y014943D01*
X005711Y014828D01*
X005649Y014677D01*
X005649Y013905D01*
X005482Y013905D01*
X005482Y013517D01*
X005386Y013517D01*
X005386Y013905D01*
X005115Y013905D01*
X005069Y013893D01*
X005028Y013869D01*
X004995Y013836D01*
X004971Y013795D01*
X004959Y013749D01*
X004959Y013645D01*
X004413Y013645D01*
X004292Y013595D01*
X004199Y013502D01*
X004175Y013444D01*
X004159Y013460D01*
X004118Y013483D01*
X004073Y013495D01*
X003849Y013495D01*
X003849Y012915D01*
X003769Y012915D01*
X003769Y012934D02*
X003849Y012934D01*
X003849Y013092D02*
X003769Y013092D01*
X003769Y013251D02*
X003849Y013251D01*
X003849Y013409D02*
X003769Y013409D01*
X003353Y013568D02*
X004265Y013568D01*
X004959Y013726D02*
X002674Y013726D01*
X002674Y013885D02*
X005055Y013885D01*
X005386Y013885D02*
X005482Y013885D01*
X005482Y013726D02*
X005386Y013726D01*
X005386Y013568D02*
X005482Y013568D01*
X006059Y013220D02*
X006559Y013220D01*
X006559Y013134D01*
X007125Y013092D02*
X008232Y013092D01*
X008074Y013251D02*
X007125Y013251D01*
X007125Y013409D02*
X007610Y013409D01*
X007332Y013568D02*
X007064Y013568D01*
X007193Y013726D02*
X006469Y013726D01*
X006469Y013885D02*
X007128Y013885D01*
X007099Y014043D02*
X006469Y014043D01*
X006469Y014202D02*
X007099Y014202D01*
X007150Y014360D02*
X006469Y014360D01*
X006562Y014519D02*
X007228Y014519D01*
X007387Y014677D02*
X006721Y014677D01*
X006684Y015220D02*
X006059Y014595D01*
X006059Y013220D01*
X006059Y012970D01*
X005809Y012720D01*
X005434Y012721D01*
X004684Y012720D01*
X004719Y012875D01*
X004178Y012300D02*
X004168Y012300D01*
X005649Y014043D02*
X002674Y014043D01*
X002674Y014202D02*
X005649Y014202D01*
X005649Y014360D02*
X002674Y014360D01*
X002674Y014519D02*
X005649Y014519D01*
X005649Y014677D02*
X002674Y014677D01*
X002674Y014836D02*
X002926Y014836D01*
X002920Y014859D02*
X002932Y014813D01*
X002956Y014772D01*
X002990Y014738D01*
X003031Y014715D01*
X003077Y014702D01*
X003729Y014702D01*
X003729Y015236D01*
X002920Y015236D01*
X002920Y014859D01*
X002920Y014994D02*
X002674Y014994D01*
X002674Y015153D02*
X002920Y015153D01*
X002674Y015311D02*
X003729Y015311D01*
X003729Y015236D02*
X003729Y015396D01*
X003729Y015929D01*
X003077Y015929D01*
X003031Y015916D01*
X002990Y015893D01*
X002956Y015859D01*
X002932Y015818D01*
X002920Y015772D01*
X002920Y015396D01*
X003729Y015396D01*
X003889Y015396D01*
X003889Y015929D01*
X004541Y015929D01*
X004587Y015916D01*
X004628Y015893D01*
X004662Y015859D01*
X004685Y015818D01*
X004698Y015772D01*
X004698Y015396D01*
X003889Y015396D01*
X003889Y015236D01*
X004698Y015236D01*
X004698Y014859D01*
X004685Y014813D01*
X004662Y014772D01*
X004628Y014738D01*
X004587Y014715D01*
X004541Y014702D01*
X003889Y014702D01*
X003889Y015236D01*
X003729Y015236D01*
X003729Y015153D02*
X003889Y015153D01*
X003889Y015311D02*
X006195Y015311D01*
X006154Y015470D02*
X006354Y015470D01*
X006346Y015628D02*
X006598Y015628D01*
X006450Y015787D02*
X008038Y015787D01*
X007879Y015945D02*
X006515Y015945D01*
X006519Y016104D02*
X007721Y016104D01*
X007562Y016262D02*
X006508Y016262D01*
X006443Y016421D02*
X007404Y016421D01*
X007245Y016579D02*
X006329Y016579D01*
X006299Y016738D02*
X007087Y016738D01*
X006928Y016896D02*
X006299Y016896D01*
X006299Y017055D02*
X006770Y017055D01*
X006611Y017213D02*
X006290Y017213D01*
X006225Y017372D02*
X006453Y017372D01*
X006319Y017530D02*
X006067Y017530D01*
X005908Y017689D02*
X006274Y017689D01*
X006274Y017848D02*
X005750Y017848D01*
X005591Y018006D02*
X006274Y018006D01*
X006274Y018165D02*
X005332Y018165D01*
X004658Y018323D02*
X006252Y018323D01*
X006093Y018482D02*
X004503Y018482D01*
X004435Y018640D02*
X004344Y018640D01*
X004276Y018799D02*
X003610Y018799D01*
X004059Y018345D02*
X003059Y018345D01*
X002309Y018345D01*
X001809Y018845D01*
X001809Y020595D01*
X001309Y021095D01*
X000809Y021529D02*
X000809Y021845D01*
X010479Y021845D01*
X010461Y021828D01*
X010418Y021722D01*
X010184Y021722D01*
X009954Y021627D01*
X009809Y021482D01*
X009664Y021627D01*
X009434Y021722D01*
X009184Y021722D01*
X008954Y021627D01*
X008809Y021482D01*
X008664Y021627D01*
X008434Y021722D01*
X008184Y021722D01*
X007954Y021627D01*
X007809Y021482D01*
X007664Y021627D01*
X007434Y021722D01*
X007184Y021722D01*
X006954Y021627D01*
X006809Y021482D01*
X006664Y021627D01*
X006434Y021722D01*
X006184Y021722D01*
X005954Y021627D01*
X005809Y021482D01*
X005664Y021627D01*
X005434Y021722D01*
X005184Y021722D01*
X004954Y021627D01*
X004809Y021482D01*
X004664Y021627D01*
X004434Y021722D01*
X004184Y021722D01*
X003954Y021627D01*
X003777Y021451D01*
X003743Y021366D01*
X003698Y021428D01*
X003641Y021484D01*
X003576Y021532D01*
X003505Y021568D01*
X003428Y021593D01*
X003349Y021605D01*
X003327Y021605D01*
X003327Y021114D01*
X003290Y021114D01*
X003290Y021605D01*
X003269Y021605D01*
X003189Y021593D01*
X003113Y021568D01*
X003042Y021532D01*
X002977Y021484D01*
X002920Y021428D01*
X002875Y021366D01*
X002840Y021451D01*
X002664Y021627D01*
X002434Y021722D01*
X002184Y021722D01*
X001954Y021627D01*
X001832Y021505D01*
X001683Y021655D01*
X001440Y021755D01*
X001178Y021755D01*
X000935Y021655D01*
X000809Y021529D01*
X000809Y021652D02*
X000932Y021652D01*
X000809Y021810D02*
X010454Y021810D01*
X010809Y021595D02*
X011184Y021970D01*
X014309Y021970D01*
X014434Y021845D01*
X032809Y021845D01*
X033559Y021095D01*
X033559Y013720D01*
X033184Y013345D01*
X032309Y013345D01*
X033000Y012845D02*
X033090Y012935D01*
X033265Y012935D01*
X033416Y012998D01*
X033531Y013113D01*
X033559Y013141D01*
X033559Y000595D01*
X019764Y000595D01*
X019764Y000968D01*
X019367Y000968D01*
X019367Y001083D01*
X019764Y001083D01*
X019764Y001640D01*
X019752Y001686D01*
X019728Y001727D01*
X019695Y001760D01*
X019654Y001784D01*
X019608Y001796D01*
X019367Y001796D01*
X019367Y001083D01*
X019251Y001083D01*
X019251Y000968D01*
X018853Y000968D01*
X018853Y000595D01*
X003198Y000595D01*
X003198Y000703D01*
X002760Y000703D01*
X002760Y000740D01*
X003198Y000740D01*
X003198Y000942D01*
X003186Y000985D01*
X003204Y000993D01*
X003297Y001086D01*
X003348Y001207D01*
X003348Y001645D01*
X004079Y001645D01*
X004079Y001203D01*
X004130Y001082D01*
X004222Y000989D01*
X004344Y000939D01*
X006774Y000939D01*
X006895Y000989D01*
X006988Y001082D01*
X007038Y001203D01*
X007038Y001485D01*
X007604Y001485D01*
X007571Y001462D01*
X007518Y001408D01*
X007473Y001347D01*
X007439Y001280D01*
X007416Y001208D01*
X007404Y001133D01*
X007404Y001115D01*
X008164Y001115D01*
X008164Y001075D01*
X007404Y001075D01*
X007404Y001058D01*
X007416Y000983D01*
X007439Y000911D01*
X007473Y000844D01*
X007518Y000783D01*
X007571Y000729D01*
X007451Y000888D02*
X003198Y000888D01*
X003258Y001046D02*
X004165Y001046D01*
X004079Y001205D02*
X003347Y001205D01*
X003348Y001363D02*
X004079Y001363D01*
X004079Y001522D02*
X003348Y001522D01*
X002724Y000740D02*
X002443Y000740D01*
X002431Y000712D01*
X002422Y000703D01*
X002724Y000703D01*
X002724Y000740D01*
X002724Y000729D02*
X002439Y000729D01*
X001876Y001095D02*
X001809Y001162D01*
X000809Y002390D02*
X000809Y002801D01*
X000814Y002789D01*
X000907Y002696D01*
X000914Y002693D01*
X000914Y002595D01*
X000914Y002498D01*
X000907Y002495D01*
X000814Y002402D01*
X000809Y002390D01*
X000809Y002473D02*
X000885Y002473D01*
X000914Y002595D02*
X001529Y002595D01*
X001529Y002595D01*
X000809Y002595D01*
X000809Y002631D02*
X000914Y002631D01*
X000914Y002595D02*
X001529Y002595D01*
X000814Y002790D02*
X000809Y002790D01*
X003184Y003595D02*
X005309Y003595D01*
X005559Y003845D01*
X005559Y005595D01*
X005559Y005647D01*
X007038Y005643D02*
X008349Y005643D01*
X008349Y005801D02*
X007038Y005801D01*
X007038Y005960D02*
X008390Y005960D01*
X008455Y006118D02*
X007038Y006118D01*
X007038Y006277D02*
X008611Y006277D01*
X009506Y006277D02*
X009579Y006277D01*
X009655Y006788D02*
X009887Y006788D01*
X009887Y007235D01*
X009499Y007235D01*
X009499Y006944D01*
X009511Y006899D01*
X009535Y006857D01*
X009568Y006824D01*
X009609Y006800D01*
X009655Y006788D01*
X009508Y006911D02*
X006169Y006911D01*
X006169Y007069D02*
X009499Y007069D01*
X009499Y007228D02*
X006169Y007228D01*
X006169Y007386D02*
X009499Y007386D01*
X009499Y007545D02*
X006680Y007545D01*
X006774Y007703D02*
X007506Y007703D01*
X007489Y007862D02*
X006779Y007862D01*
X006779Y008020D02*
X008379Y008020D01*
X008534Y008020D02*
X009929Y008020D01*
X010088Y007862D02*
X009424Y007862D01*
X009424Y007757D02*
X009424Y008018D01*
X008534Y008018D01*
X008534Y007601D01*
X009268Y007601D01*
X009313Y007613D01*
X009354Y007636D01*
X009388Y007670D01*
X009412Y007711D01*
X009424Y007757D01*
X009407Y007703D02*
X009532Y007703D01*
X009887Y007703D02*
X009983Y007703D01*
X009983Y007545D02*
X009887Y007545D01*
X009887Y007386D02*
X009983Y007386D01*
X009983Y007228D02*
X009887Y007228D01*
X009887Y007069D02*
X009983Y007069D01*
X009983Y006911D02*
X009887Y006911D01*
X010176Y006752D02*
X006169Y006752D01*
X006995Y006594D02*
X011499Y006594D01*
X011428Y006752D02*
X011190Y006752D01*
X011289Y006277D02*
X011499Y006277D01*
X011887Y006435D02*
X007038Y006435D01*
X007038Y005484D02*
X008388Y005484D01*
X008454Y005326D02*
X007038Y005326D01*
X007038Y005167D02*
X008608Y005167D01*
X008897Y004692D02*
X006991Y004692D01*
X007038Y004850D02*
X009067Y004850D01*
X009238Y005009D02*
X007038Y005009D01*
X005969Y004533D02*
X008726Y004533D01*
X008555Y004375D02*
X005969Y004375D01*
X005969Y004216D02*
X008385Y004216D01*
X008214Y004058D02*
X005969Y004058D01*
X005969Y003899D02*
X008043Y003899D01*
X007873Y003741D02*
X005959Y003741D01*
X005876Y003582D02*
X007480Y003582D01*
X007338Y003424D02*
X005717Y003424D01*
X005559Y003265D02*
X007272Y003265D01*
X007254Y003107D02*
X006878Y003107D01*
X007012Y002948D02*
X007263Y002948D01*
X007329Y002790D02*
X007038Y002790D01*
X008184Y003095D02*
X008184Y003470D01*
X009934Y005095D01*
X017309Y005095D01*
X017934Y005720D01*
X017934Y006307D01*
X017939Y006312D01*
X018246Y006305D02*
X018254Y006312D01*
X018246Y006305D02*
X018246Y005533D01*
X017434Y004720D01*
X010434Y004720D01*
X009684Y003970D01*
X009684Y003095D01*
X011684Y003095D02*
X011684Y003845D01*
X012184Y004345D01*
X017621Y004345D01*
X018559Y005283D01*
X018559Y006302D01*
X018569Y006312D01*
X018871Y006300D02*
X018884Y006312D01*
X018871Y006300D02*
X018871Y005033D01*
X017809Y003970D01*
X013434Y003970D01*
X013184Y003720D01*
X013184Y003095D01*
X015184Y003095D02*
X015184Y003470D01*
X015309Y003595D01*
X017934Y003595D01*
X020121Y005783D01*
X020121Y007533D01*
X019996Y007658D01*
X019592Y007651D01*
X019585Y007658D01*
X019592Y007966D02*
X019597Y007970D01*
X020059Y007970D01*
X020434Y007595D01*
X020434Y005595D01*
X017934Y003095D01*
X016684Y003095D01*
X018165Y001839D02*
X020203Y001839D01*
X020361Y001680D02*
X019754Y001680D01*
X019764Y001522D02*
X020599Y001522D01*
X021040Y001205D02*
X019764Y001205D01*
X019764Y001363D02*
X021110Y001363D01*
X021029Y001075D02*
X021029Y001058D01*
X021041Y000983D01*
X021064Y000911D01*
X021098Y000844D01*
X021143Y000783D01*
X021196Y000729D01*
X021257Y000685D01*
X021325Y000651D01*
X021396Y000627D01*
X021471Y000615D01*
X021789Y000615D01*
X021789Y001075D01*
X021029Y001075D01*
X021031Y001046D02*
X019367Y001046D01*
X019251Y001046D02*
X017462Y001046D01*
X017453Y001205D02*
X018853Y001205D01*
X018853Y001083D02*
X019251Y001083D01*
X019251Y001796D01*
X019010Y001796D01*
X018964Y001784D01*
X018923Y001760D01*
X018889Y001727D01*
X018866Y001686D01*
X018853Y001640D01*
X018853Y001083D01*
X018853Y000888D02*
X017417Y000888D01*
X017297Y000729D02*
X018853Y000729D01*
X019251Y001205D02*
X019367Y001205D01*
X019367Y001363D02*
X019251Y001363D01*
X019251Y001522D02*
X019367Y001522D01*
X019367Y001680D02*
X019251Y001680D01*
X018864Y001680D02*
X018007Y001680D01*
X017768Y001522D02*
X018853Y001522D01*
X018853Y001363D02*
X017382Y001363D01*
X016704Y001046D02*
X016664Y001046D01*
X016664Y001075D02*
X015904Y001075D01*
X015204Y001075D01*
X015204Y001115D01*
X016664Y001115D01*
X016664Y001075D01*
X016664Y000888D02*
X016704Y000888D01*
X016704Y000729D02*
X016664Y000729D01*
X016071Y000729D02*
X015797Y000729D01*
X015917Y000888D02*
X015951Y000888D01*
X015204Y000888D02*
X015164Y000888D01*
X015164Y001046D02*
X015204Y001046D01*
X015164Y001075D02*
X015164Y000615D01*
X014846Y000615D01*
X014771Y000627D01*
X014700Y000651D01*
X014632Y000685D01*
X014571Y000729D01*
X014518Y000783D01*
X014473Y000844D01*
X014439Y000911D01*
X014416Y000983D01*
X014404Y001058D01*
X014404Y001075D01*
X015164Y001075D01*
X015164Y000729D02*
X015204Y000729D01*
X014571Y000729D02*
X013797Y000729D01*
X013917Y000888D02*
X014451Y000888D01*
X014406Y001046D02*
X013962Y001046D01*
X013953Y001205D02*
X014415Y001205D01*
X014485Y001363D02*
X013882Y001363D01*
X013204Y001046D02*
X013164Y001046D01*
X013164Y001075D02*
X012404Y001075D01*
X011704Y001075D01*
X011704Y001115D01*
X013164Y001115D01*
X013164Y001075D01*
X013164Y000888D02*
X013204Y000888D01*
X013204Y000729D02*
X013164Y000729D01*
X012571Y000729D02*
X012297Y000729D01*
X012417Y000888D02*
X012451Y000888D01*
X011704Y000888D02*
X011664Y000888D01*
X011664Y001046D02*
X011704Y001046D01*
X011664Y001075D02*
X011664Y000615D01*
X011346Y000615D01*
X011271Y000627D01*
X011200Y000651D01*
X011132Y000685D01*
X011071Y000729D01*
X011018Y000783D01*
X010973Y000844D01*
X010939Y000911D01*
X010916Y000983D01*
X010904Y001058D01*
X010904Y001075D01*
X011664Y001075D01*
X011664Y000729D02*
X011704Y000729D01*
X011071Y000729D02*
X010297Y000729D01*
X010417Y000888D02*
X010951Y000888D01*
X010906Y001046D02*
X010462Y001046D01*
X010453Y001205D02*
X010915Y001205D01*
X010985Y001363D02*
X010382Y001363D01*
X009704Y001046D02*
X009664Y001046D01*
X009664Y001075D02*
X008904Y001075D01*
X008204Y001075D01*
X008204Y001115D01*
X009664Y001115D01*
X009664Y001075D01*
X009664Y000888D02*
X009704Y000888D01*
X009704Y000729D02*
X009664Y000729D01*
X009071Y000729D02*
X008797Y000729D01*
X008917Y000888D02*
X008951Y000888D01*
X008204Y000888D02*
X008164Y000888D01*
X008164Y001046D02*
X008204Y001046D01*
X008204Y000729D02*
X008164Y000729D01*
X007406Y001046D02*
X006953Y001046D01*
X007038Y001205D02*
X007415Y001205D01*
X007485Y001363D02*
X007038Y001363D01*
X005559Y002095D02*
X005309Y002595D01*
X003589Y002595D01*
X001524Y005326D02*
X000809Y005326D01*
X000809Y005484D02*
X001465Y005484D01*
X001307Y005643D02*
X000809Y005643D01*
X000809Y005801D02*
X001148Y005801D01*
X000990Y005960D02*
X000809Y005960D01*
X000809Y006118D02*
X000831Y006118D01*
X001219Y007069D02*
X001373Y007069D01*
X001809Y007069D02*
X001809Y007069D01*
X001809Y007228D02*
X001809Y007228D01*
X001809Y007386D02*
X001809Y007386D01*
X001809Y007545D02*
X001809Y007545D01*
X000809Y010265D02*
X000809Y017101D01*
X001459Y017101D01*
X001459Y017518D01*
X001614Y017518D01*
X001614Y017673D01*
X002504Y017673D01*
X002504Y017897D01*
X002657Y017744D01*
X002918Y017635D01*
X003200Y017635D01*
X003214Y017641D01*
X003214Y017215D01*
X003216Y017210D01*
X002586Y017210D01*
X002453Y017155D01*
X002468Y017170D01*
X002491Y017211D01*
X002504Y017257D01*
X002504Y017518D01*
X001614Y017518D01*
X001614Y017101D01*
X002347Y017101D01*
X002380Y017109D01*
X002268Y016998D01*
X001768Y016498D01*
X001694Y016318D01*
X001694Y016123D01*
X001694Y013374D01*
X001647Y013328D01*
X001644Y013321D01*
X001483Y013321D01*
X001483Y012893D01*
X001387Y012893D01*
X001387Y012798D01*
X000999Y012798D01*
X000999Y012526D01*
X001011Y012481D01*
X001035Y012440D01*
X001068Y012406D01*
X001109Y012382D01*
X001155Y012370D01*
X001387Y012370D01*
X001387Y012798D01*
X001483Y012798D01*
X001483Y012370D01*
X001644Y012370D01*
X001647Y012363D01*
X001694Y012317D01*
X001694Y012134D01*
X001438Y011792D01*
X001393Y011748D01*
X001380Y011715D01*
X001358Y011686D01*
X001343Y011626D01*
X001319Y011568D01*
X001319Y011532D01*
X001310Y011498D01*
X001319Y011436D01*
X001319Y011279D01*
X000979Y010939D01*
X000979Y010414D01*
X000809Y010265D01*
X000809Y010398D02*
X000961Y010398D01*
X000979Y010556D02*
X000809Y010556D01*
X000809Y010715D02*
X000979Y010715D01*
X000979Y010873D02*
X000809Y010873D01*
X000809Y011032D02*
X001072Y011032D01*
X001230Y011190D02*
X000809Y011190D01*
X000809Y011349D02*
X001319Y011349D01*
X001313Y011507D02*
X000809Y011507D01*
X000809Y011666D02*
X001353Y011666D01*
X001462Y011824D02*
X000809Y011824D01*
X000809Y011983D02*
X001581Y011983D01*
X001694Y012141D02*
X000809Y012141D01*
X000809Y012300D02*
X001694Y012300D01*
X001483Y012458D02*
X001387Y012458D01*
X001387Y012617D02*
X001483Y012617D01*
X001483Y012775D02*
X001387Y012775D01*
X001387Y012893D02*
X000999Y012893D01*
X000999Y013164D01*
X001011Y013210D01*
X001035Y013251D01*
X000809Y013251D01*
X000809Y013409D02*
X001694Y013409D01*
X001694Y013568D02*
X000809Y013568D01*
X000809Y013726D02*
X001694Y013726D01*
X001694Y013885D02*
X000809Y013885D01*
X000809Y014043D02*
X001694Y014043D01*
X001694Y014202D02*
X000809Y014202D01*
X000809Y014360D02*
X001694Y014360D01*
X001694Y014519D02*
X000809Y014519D01*
X000809Y014677D02*
X001694Y014677D01*
X001694Y014836D02*
X000809Y014836D01*
X000809Y014994D02*
X001694Y014994D01*
X001694Y015153D02*
X000809Y015153D01*
X000809Y015311D02*
X001694Y015311D01*
X001694Y015470D02*
X000809Y015470D01*
X000809Y015628D02*
X001694Y015628D01*
X001694Y015787D02*
X000809Y015787D01*
X000809Y015945D02*
X001694Y015945D01*
X001694Y016104D02*
X000809Y016104D01*
X000809Y016262D02*
X001694Y016262D01*
X001737Y016421D02*
X000809Y016421D01*
X000809Y016579D02*
X001850Y016579D01*
X002008Y016738D02*
X000809Y016738D01*
X000809Y016896D02*
X002167Y016896D01*
X002325Y017055D02*
X000809Y017055D01*
X001459Y017213D02*
X001614Y017213D01*
X001614Y017372D02*
X001459Y017372D01*
X001614Y017530D02*
X003214Y017530D01*
X003214Y017372D02*
X002504Y017372D01*
X002492Y017213D02*
X003215Y017213D01*
X002788Y017689D02*
X002504Y017689D01*
X002504Y017848D02*
X002553Y017848D01*
X001984Y018090D02*
X001614Y018090D01*
X001614Y017673D01*
X001459Y017673D01*
X001459Y018090D01*
X000809Y018090D01*
X000809Y019535D01*
X000825Y019519D01*
X000946Y019469D01*
X001399Y019469D01*
X001399Y018764D01*
X001461Y018613D01*
X001961Y018113D01*
X001984Y018090D01*
X001910Y018165D02*
X000809Y018165D01*
X000684Y018095D02*
X000684Y021845D01*
X001309Y021845D01*
X001686Y021652D02*
X002013Y021652D01*
X002605Y021652D02*
X004013Y021652D01*
X003820Y021493D02*
X003629Y021493D01*
X003327Y021493D02*
X003290Y021493D01*
X003290Y021335D02*
X003327Y021335D01*
X003327Y021176D02*
X003290Y021176D01*
X002988Y021493D02*
X002798Y021493D01*
X003809Y020595D02*
X007559Y020595D01*
X007809Y020345D01*
X007809Y018470D01*
X008309Y017970D01*
X011809Y017970D01*
X012309Y017470D01*
X012309Y017095D01*
X012765Y017530D02*
X012853Y017530D01*
X012809Y017486D02*
X012702Y017594D01*
X012656Y017703D01*
X012541Y017818D01*
X012041Y018318D01*
X011890Y018380D01*
X008479Y018380D01*
X008219Y018640D01*
X013024Y018640D01*
X012961Y018578D02*
X012899Y018427D01*
X012899Y017576D01*
X012809Y017486D01*
X012899Y017689D02*
X012662Y017689D01*
X012512Y017848D02*
X012899Y017848D01*
X012899Y018006D02*
X012353Y018006D01*
X012195Y018165D02*
X012899Y018165D01*
X012899Y018323D02*
X012029Y018323D01*
X012921Y018482D02*
X008378Y018482D01*
X008219Y018640D02*
X008219Y019469D01*
X008434Y019469D01*
X008664Y019564D01*
X008809Y019709D01*
X008954Y019564D01*
X009184Y019469D01*
X009434Y019469D01*
X009664Y019564D01*
X009809Y019709D01*
X009954Y019564D01*
X010184Y019469D01*
X010434Y019469D01*
X010664Y019564D01*
X010809Y019709D01*
X010954Y019564D01*
X011184Y019469D01*
X011434Y019469D01*
X011664Y019564D01*
X011809Y019709D01*
X011954Y019564D01*
X012184Y019469D01*
X012434Y019469D01*
X012664Y019564D01*
X012809Y019709D01*
X012954Y019564D01*
X013184Y019469D01*
X013434Y019469D01*
X013664Y019564D01*
X013840Y019740D01*
X013936Y019971D01*
X013936Y020185D01*
X015889Y020185D01*
X015899Y020176D01*
X015899Y017139D01*
X015961Y016988D01*
X016711Y016238D01*
X016827Y016123D01*
X016977Y016060D01*
X019764Y016060D01*
X019774Y016051D01*
X019774Y014889D01*
X019836Y014738D01*
X020461Y014113D01*
X020577Y013998D01*
X020727Y013935D01*
X021389Y013935D01*
X022555Y012770D01*
X022532Y012760D01*
X022332Y012560D01*
X022224Y012299D01*
X022224Y012017D01*
X022332Y011756D01*
X022532Y011556D01*
X022793Y011448D01*
X023075Y011448D01*
X023199Y011499D01*
X023242Y011456D01*
X023363Y011405D01*
X023755Y011405D01*
X023849Y011445D01*
X023849Y011204D01*
X023957Y010943D01*
X024157Y010744D01*
X024418Y010635D01*
X024700Y010635D01*
X024961Y010744D01*
X025161Y010943D01*
X025269Y011204D01*
X025269Y011411D01*
X025309Y011428D01*
X025363Y011405D01*
X025755Y011405D01*
X025809Y011428D01*
X025863Y011405D01*
X026124Y011405D01*
X026124Y011268D01*
X026512Y011268D01*
X026512Y011173D01*
X026124Y011173D01*
X026124Y010901D01*
X026136Y010856D01*
X026160Y010815D01*
X026193Y010781D01*
X026234Y010757D01*
X026280Y010745D01*
X026512Y010745D01*
X026512Y011173D01*
X026608Y011173D01*
X026608Y010745D01*
X026769Y010745D01*
X026772Y010738D01*
X026865Y010645D01*
X026901Y010630D01*
X023229Y010630D01*
X021166Y012693D01*
X021015Y012755D01*
X020306Y012755D01*
X020306Y012985D01*
X019918Y012985D01*
X019918Y013081D01*
X019822Y013081D01*
X019822Y013508D01*
X019661Y013508D01*
X019658Y013515D01*
X019594Y013579D01*
X019594Y015052D01*
X019531Y015203D01*
X019416Y015318D01*
X018916Y015818D01*
X018765Y015880D01*
X015604Y015880D01*
X015469Y016015D01*
X015469Y018677D01*
X015406Y018828D01*
X015291Y018943D01*
X014791Y019443D01*
X014640Y019505D01*
X013977Y019505D01*
X013827Y019443D01*
X013711Y019328D01*
X012961Y018578D01*
X013182Y018799D02*
X008219Y018799D01*
X008219Y018957D02*
X013341Y018957D01*
X013499Y019116D02*
X008219Y019116D01*
X008219Y019274D02*
X013658Y019274D01*
X013816Y019433D02*
X008219Y019433D01*
X008691Y019591D02*
X008927Y019591D01*
X008809Y019595D02*
X008809Y021470D01*
X008798Y021493D02*
X008820Y021493D01*
X009013Y021652D02*
X008605Y021652D01*
X008013Y021652D02*
X007605Y021652D01*
X007798Y021493D02*
X007820Y021493D01*
X007013Y021652D02*
X006605Y021652D01*
X006798Y021493D02*
X006820Y021493D01*
X006013Y021652D02*
X005605Y021652D01*
X005798Y021493D02*
X005820Y021493D01*
X005013Y021652D02*
X004605Y021652D01*
X004798Y021493D02*
X004820Y021493D01*
X003809Y020595D02*
X003309Y020095D01*
X004309Y020095D02*
X005059Y019345D01*
X006434Y019345D01*
X007059Y018720D01*
X007059Y017970D01*
X008934Y016095D01*
X009309Y016095D01*
X008809Y015595D02*
X006684Y017720D01*
X006684Y018470D01*
X006184Y018970D01*
X004684Y018970D01*
X004309Y019345D01*
X002559Y019345D01*
X002309Y019595D01*
X002309Y020095D01*
X001399Y019433D02*
X000809Y019433D01*
X000809Y019274D02*
X001399Y019274D01*
X001399Y019116D02*
X000809Y019116D01*
X000809Y018957D02*
X001399Y018957D01*
X001399Y018799D02*
X000809Y018799D01*
X000809Y018640D02*
X001450Y018640D01*
X001593Y018482D02*
X000809Y018482D01*
X000809Y018323D02*
X001752Y018323D01*
X001614Y018006D02*
X001459Y018006D01*
X001459Y017848D02*
X001614Y017848D01*
X001614Y017689D02*
X001459Y017689D01*
X002760Y016104D02*
X005099Y016104D01*
X005102Y015945D02*
X002674Y015945D01*
X002674Y015787D02*
X002924Y015787D01*
X002920Y015628D02*
X002674Y015628D01*
X002674Y015470D02*
X002920Y015470D01*
X003729Y015470D02*
X003889Y015470D01*
X003889Y015628D02*
X003729Y015628D01*
X003729Y015787D02*
X003889Y015787D01*
X004109Y016262D02*
X005110Y016262D01*
X005175Y016421D02*
X004327Y016421D01*
X004486Y016579D02*
X005289Y016579D01*
X005319Y016738D02*
X004644Y016738D01*
X004757Y016896D02*
X005315Y016896D01*
X004332Y017595D02*
X004309Y017845D01*
X004309Y018095D01*
X004059Y018345D01*
X006309Y020095D02*
X007434Y018970D01*
X007434Y018220D01*
X008559Y017095D01*
X009309Y017095D01*
X010809Y016595D02*
X010809Y015845D01*
X010559Y015595D01*
X008809Y015595D01*
X006684Y015220D02*
X012434Y015220D01*
X013309Y016095D01*
X014059Y016095D01*
X014309Y016345D01*
X014309Y018470D01*
X014559Y019095D02*
X015059Y018595D01*
X015059Y015845D01*
X015469Y016104D02*
X016872Y016104D01*
X016687Y016262D02*
X015469Y016262D01*
X015469Y016421D02*
X016529Y016421D01*
X016370Y016579D02*
X015469Y016579D01*
X015469Y016738D02*
X016212Y016738D01*
X016053Y016896D02*
X015469Y016896D01*
X015469Y017055D02*
X015934Y017055D01*
X015899Y017213D02*
X015469Y017213D01*
X015469Y017372D02*
X015899Y017372D01*
X015899Y017530D02*
X015469Y017530D01*
X015469Y017689D02*
X015899Y017689D01*
X015899Y017848D02*
X015469Y017848D01*
X015469Y018006D02*
X015899Y018006D01*
X015899Y018165D02*
X015469Y018165D01*
X015469Y018323D02*
X015899Y018323D01*
X015899Y018482D02*
X015469Y018482D01*
X015469Y018640D02*
X015899Y018640D01*
X015899Y018799D02*
X015419Y018799D01*
X015277Y018957D02*
X015899Y018957D01*
X015899Y019116D02*
X015119Y019116D01*
X014960Y019274D02*
X015899Y019274D01*
X015899Y019433D02*
X014802Y019433D01*
X014559Y019095D02*
X014059Y019095D01*
X013309Y018345D01*
X013309Y017095D01*
X013733Y015628D02*
X013838Y015628D01*
X013696Y015470D02*
X013574Y015470D01*
X013630Y015311D02*
X013105Y015311D01*
X012946Y015153D02*
X013599Y015153D01*
X013599Y014994D02*
X012788Y014994D01*
X012577Y014836D02*
X013648Y014836D01*
X015019Y014994D02*
X018580Y014994D01*
X019264Y015470D02*
X019774Y015470D01*
X019774Y015628D02*
X019106Y015628D01*
X018947Y015787D02*
X019774Y015787D01*
X019774Y015945D02*
X015539Y015945D01*
X015172Y015153D02*
X015019Y015153D01*
X017059Y013970D02*
X017070Y013732D01*
X017309Y013970D01*
X017834Y013845D01*
X017184Y013845D02*
X017059Y013970D01*
X017184Y013845D02*
X017184Y013345D01*
X016695Y012857D01*
X016695Y012481D01*
X016560Y012470D01*
X016684Y012345D02*
X016695Y012357D01*
X016684Y012345D02*
X016684Y010908D01*
X016679Y011142D01*
X016679Y010879D01*
X016994Y010879D02*
X016996Y011658D01*
X017309Y011970D01*
X017308Y012470D01*
X016364Y011603D02*
X015871Y012220D01*
X015871Y012658D01*
X015684Y012470D01*
X015683Y012470D01*
X015809Y012346D01*
X015809Y013220D01*
X015353Y013092D02*
X010094Y013092D01*
X010094Y012934D02*
X014611Y012934D01*
X014609Y012933D02*
X014568Y012910D01*
X014535Y012876D01*
X014511Y012835D01*
X014499Y012789D01*
X014499Y012518D01*
X014887Y012518D01*
X014887Y012946D01*
X014655Y012946D01*
X014609Y012933D01*
X014499Y012775D02*
X010094Y012775D01*
X010094Y012617D02*
X014499Y012617D01*
X014887Y012617D02*
X014983Y012617D01*
X014983Y012775D02*
X014887Y012775D01*
X014887Y012934D02*
X014983Y012934D01*
X014887Y012458D02*
X010094Y012458D01*
X010094Y012300D02*
X011322Y012300D01*
X011164Y012141D02*
X010990Y012141D01*
X010704Y012141D02*
X010664Y012141D01*
X010664Y012250D02*
X010646Y012250D01*
X010571Y012239D01*
X010500Y012215D01*
X010432Y012181D01*
X010371Y012137D01*
X010318Y012083D01*
X010273Y012022D01*
X010239Y011955D01*
X010216Y011883D01*
X010204Y011808D01*
X010204Y011490D01*
X010664Y011490D01*
X010664Y012250D01*
X010664Y011983D02*
X010704Y011983D01*
X010704Y011824D02*
X010664Y011824D01*
X010664Y011666D02*
X010704Y011666D01*
X010704Y011507D02*
X010664Y011507D01*
X010664Y011450D02*
X010204Y011450D01*
X010204Y011133D01*
X010216Y011058D01*
X010239Y010986D01*
X010273Y010919D01*
X010318Y010858D01*
X010371Y010804D01*
X010432Y010760D01*
X010500Y010726D01*
X010516Y010720D01*
X010500Y010715D01*
X010432Y010681D01*
X010371Y010637D01*
X010318Y010583D01*
X010273Y010522D01*
X010239Y010455D01*
X010216Y010383D01*
X010204Y010308D01*
X010204Y009990D01*
X010664Y009990D01*
X010664Y010690D01*
X010664Y011450D01*
X010664Y011349D02*
X010704Y011349D01*
X010704Y011190D02*
X010664Y011190D01*
X010664Y011032D02*
X010704Y011032D01*
X010704Y010873D02*
X010664Y010873D01*
X010664Y010715D02*
X010704Y010715D01*
X010704Y010556D02*
X010664Y010556D01*
X010664Y010398D02*
X010704Y010398D01*
X010704Y010239D02*
X010664Y010239D01*
X010664Y010081D02*
X010704Y010081D01*
X010664Y009950D02*
X010204Y009950D01*
X010204Y009633D01*
X010216Y009558D01*
X010239Y009486D01*
X010273Y009419D01*
X010318Y009358D01*
X010371Y009304D01*
X010432Y009260D01*
X010500Y009226D01*
X010571Y009202D01*
X010646Y009190D01*
X010664Y009190D01*
X010664Y009950D01*
X010664Y009922D02*
X010704Y009922D01*
X010704Y009764D02*
X010664Y009764D01*
X010664Y009605D02*
X010704Y009605D01*
X010704Y009447D02*
X010664Y009447D01*
X010664Y009288D02*
X010704Y009288D01*
X010662Y009130D02*
X010094Y009130D01*
X010094Y009288D02*
X010393Y009288D01*
X010259Y009447D02*
X010094Y009447D01*
X010094Y009605D02*
X010208Y009605D01*
X010204Y009764D02*
X010094Y009764D01*
X010094Y009922D02*
X010204Y009922D01*
X010204Y010081D02*
X010094Y010081D01*
X010094Y010239D02*
X010204Y010239D01*
X010221Y010398D02*
X010094Y010398D01*
X010094Y010556D02*
X010298Y010556D01*
X010499Y010715D02*
X010094Y010715D01*
X010094Y010873D02*
X010306Y010873D01*
X010224Y011032D02*
X010094Y011032D01*
X010094Y011190D02*
X010204Y011190D01*
X010204Y011349D02*
X010094Y011349D01*
X010094Y011507D02*
X010204Y011507D01*
X010204Y011666D02*
X010094Y011666D01*
X010094Y011824D02*
X010206Y011824D01*
X010253Y011983D02*
X010094Y011983D01*
X010094Y012141D02*
X010378Y012141D01*
X012045Y012300D02*
X012322Y012300D01*
X012684Y011470D02*
X014184Y009970D01*
X015184Y010720D02*
X015809Y010095D01*
X015651Y010081D02*
X016994Y010081D01*
X016961Y010113D02*
X016899Y010264D01*
X016899Y010277D01*
X016843Y010254D01*
X015651Y010254D01*
X015651Y007500D01*
X015651Y007185D01*
X015651Y006937D01*
X017158Y006937D01*
X017211Y006915D01*
X017211Y006927D01*
X017274Y007078D01*
X017389Y007193D01*
X017514Y007318D01*
X017665Y007380D01*
X018524Y007380D01*
X018524Y009810D01*
X017352Y009810D01*
X017202Y009873D01*
X017086Y009988D01*
X017086Y009988D01*
X016961Y010113D01*
X016909Y010239D02*
X015651Y010239D01*
X015651Y009922D02*
X017152Y009922D01*
X016996Y010876D02*
X016994Y010879D01*
X016996Y010876D02*
X016996Y008658D01*
X017309Y008345D01*
X017309Y006312D01*
X017621Y006314D02*
X017624Y006312D01*
X017621Y005908D01*
X017184Y005470D01*
X015684Y005470D01*
X015434Y005720D01*
X015434Y005970D01*
X015184Y006220D01*
X014001Y006220D01*
X014434Y005845D02*
X014867Y005846D01*
X014434Y005845D02*
X014309Y005720D01*
X010808Y005720D01*
X010059Y005720D02*
X009059Y005720D01*
X008534Y007703D02*
X008379Y007703D01*
X008379Y007862D02*
X008534Y007862D01*
X008534Y008179D02*
X008379Y008179D01*
X008379Y008337D02*
X008534Y008337D01*
X008534Y008496D02*
X008379Y008496D01*
X008496Y008654D02*
X006671Y008654D01*
X006770Y008496D02*
X007511Y008496D01*
X007489Y008337D02*
X006779Y008337D01*
X006779Y008179D02*
X007489Y008179D01*
X009424Y008179D02*
X009771Y008179D01*
X009612Y008337D02*
X009424Y008337D01*
X010138Y008971D02*
X010450Y008971D01*
X010408Y008813D02*
X010296Y008813D01*
X010975Y009288D02*
X011175Y009288D01*
X011207Y009130D02*
X011342Y009130D01*
X011664Y008971D02*
X011701Y008971D01*
X011701Y008813D02*
X011664Y008813D01*
X011664Y008654D02*
X011701Y008654D01*
X013141Y007862D02*
X014400Y007862D01*
X014400Y007703D02*
X013252Y007703D01*
X012683Y007283D02*
X014070Y007271D01*
X014384Y007271D01*
X014621Y007033D01*
X015025Y007021D01*
X014866Y006595D02*
X014867Y006594D01*
X015310Y006594D01*
X015559Y006345D01*
X015701Y006345D01*
X015734Y006312D01*
X015651Y007069D02*
X017270Y007069D01*
X017424Y007228D02*
X015651Y007228D01*
X015651Y007386D02*
X018524Y007386D01*
X018524Y007545D02*
X015651Y007545D01*
X015651Y007703D02*
X018524Y007703D01*
X018524Y007862D02*
X015651Y007862D01*
X015651Y008020D02*
X018524Y008020D01*
X018524Y008179D02*
X015651Y008179D01*
X015651Y008337D02*
X018524Y008337D01*
X018524Y008496D02*
X015651Y008496D01*
X015651Y008654D02*
X018524Y008654D01*
X018524Y008813D02*
X015651Y008813D01*
X015651Y008971D02*
X018524Y008971D01*
X018524Y009130D02*
X015651Y009130D01*
X015651Y009288D02*
X018524Y009288D01*
X018524Y009447D02*
X015651Y009447D01*
X015651Y009605D02*
X018524Y009605D01*
X018524Y009764D02*
X015651Y009764D01*
X016049Y010879D02*
X016059Y011033D01*
X016059Y011345D01*
X015934Y011470D01*
X015059Y011470D01*
X015559Y012470D02*
X015683Y012470D01*
X016364Y011603D02*
X016364Y010879D01*
X018809Y010220D02*
X018871Y010158D01*
X019434Y010720D01*
X020310Y010720D01*
X020309Y011470D01*
X020934Y012345D02*
X019434Y012345D01*
X019184Y012595D01*
X019184Y012970D01*
X019122Y013033D02*
X019246Y013033D01*
X019822Y013092D02*
X019918Y013092D01*
X019918Y013081D02*
X019918Y013508D01*
X020150Y013508D01*
X020196Y013496D01*
X020237Y013472D01*
X020270Y013439D01*
X020294Y013398D01*
X020306Y013352D01*
X020306Y013081D01*
X019918Y013081D01*
X019918Y013251D02*
X019822Y013251D01*
X019822Y013409D02*
X019918Y013409D01*
X019605Y013568D02*
X021757Y013568D01*
X021915Y013409D02*
X020287Y013409D01*
X020306Y013251D02*
X022074Y013251D01*
X022232Y013092D02*
X020306Y013092D01*
X020306Y012934D02*
X022391Y012934D01*
X022549Y012775D02*
X020306Y012775D01*
X020934Y012345D02*
X023059Y010220D01*
X027934Y010220D01*
X028309Y009845D01*
X030809Y012345D01*
X030809Y012959D01*
X031396Y013511D02*
X031384Y013539D01*
X031291Y013632D01*
X031284Y013635D01*
X031284Y013915D01*
X030877Y013915D01*
X030877Y014050D01*
X031284Y014050D01*
X031284Y014400D01*
X031272Y014445D01*
X031248Y014487D01*
X031215Y014520D01*
X031174Y014544D01*
X031128Y014556D01*
X030877Y014556D01*
X030877Y014050D01*
X030741Y014050D01*
X030741Y014556D01*
X030490Y014556D01*
X030444Y014544D01*
X030403Y014520D01*
X030370Y014487D01*
X030346Y014445D01*
X030344Y014438D01*
X030344Y014676D01*
X031791Y016123D01*
X031906Y016238D01*
X031969Y016389D01*
X031969Y017065D01*
X032059Y017155D01*
X032202Y017011D01*
X032434Y016915D01*
X032684Y016915D01*
X032774Y016953D01*
X032774Y015797D01*
X032721Y015814D01*
X032647Y015825D01*
X032329Y015825D01*
X032329Y015365D01*
X032289Y015365D01*
X032289Y015325D01*
X031529Y015325D01*
X031529Y015308D01*
X031541Y015233D01*
X031564Y015161D01*
X031598Y015094D01*
X031643Y015033D01*
X031696Y014979D01*
X031757Y014935D01*
X031770Y014928D01*
X031652Y014880D01*
X031475Y014702D01*
X031379Y014471D01*
X031379Y014220D01*
X031475Y013989D01*
X031618Y013845D01*
X031475Y013702D01*
X031396Y013511D01*
X031419Y013568D02*
X031355Y013568D01*
X031284Y013726D02*
X031499Y013726D01*
X031578Y013885D02*
X031284Y013885D01*
X031452Y014043D02*
X030877Y014043D01*
X030877Y014202D02*
X030741Y014202D01*
X030741Y014360D02*
X030877Y014360D01*
X030877Y014519D02*
X030741Y014519D01*
X030402Y014519D02*
X030344Y014519D01*
X030346Y014677D02*
X031464Y014677D01*
X031399Y014519D02*
X031216Y014519D01*
X031284Y014360D02*
X031379Y014360D01*
X031386Y014202D02*
X031284Y014202D01*
X031608Y014836D02*
X030504Y014836D01*
X030663Y014994D02*
X031681Y014994D01*
X031568Y015153D02*
X030821Y015153D01*
X030980Y015311D02*
X031529Y015311D01*
X031529Y015365D02*
X032289Y015365D01*
X032289Y015825D01*
X031971Y015825D01*
X031896Y015814D01*
X031825Y015790D01*
X031757Y015756D01*
X031696Y015712D01*
X031643Y015658D01*
X031598Y015597D01*
X031564Y015530D01*
X031541Y015458D01*
X031529Y015383D01*
X031529Y015365D01*
X031545Y015470D02*
X031138Y015470D01*
X031297Y015628D02*
X031621Y015628D01*
X031455Y015787D02*
X031818Y015787D01*
X031614Y015945D02*
X032774Y015945D01*
X032774Y016104D02*
X031772Y016104D01*
X031917Y016262D02*
X032774Y016262D01*
X032774Y016421D02*
X031969Y016421D01*
X031969Y016579D02*
X032774Y016579D01*
X032774Y016738D02*
X031969Y016738D01*
X031969Y016896D02*
X032774Y016896D01*
X032158Y017055D02*
X031969Y017055D01*
X031559Y016470D02*
X031559Y017845D01*
X030559Y017845D02*
X030559Y017095D01*
X030309Y016845D01*
X027559Y016845D01*
X027309Y016595D01*
X027309Y015970D01*
X026559Y015220D01*
X026559Y014555D01*
X027059Y014555D02*
X027099Y014595D01*
X027934Y014595D01*
X028309Y014970D01*
X028309Y015970D01*
X028891Y015573D02*
X028901Y015542D01*
X028933Y015480D01*
X028973Y015424D01*
X029022Y015375D01*
X029078Y015334D01*
X029140Y015303D01*
X029206Y015281D01*
X029274Y015270D01*
X029309Y015270D01*
X029343Y015270D01*
X029412Y015281D01*
X029478Y015303D01*
X029539Y015334D01*
X029596Y015375D01*
X029644Y015424D01*
X029685Y015480D01*
X029717Y015542D01*
X029738Y015607D01*
X029749Y015676D01*
X029749Y015970D01*
X029309Y015970D01*
X029309Y015270D01*
X029309Y015970D01*
X029309Y015970D01*
X029309Y015970D01*
X029934Y015970D01*
X030059Y016345D01*
X030434Y016345D01*
X031059Y016970D01*
X031059Y018720D01*
X031162Y018640D02*
X030955Y018640D01*
X030916Y018680D02*
X030684Y018775D01*
X030434Y018775D01*
X030202Y018680D01*
X030059Y018536D01*
X029916Y018680D01*
X029684Y018775D01*
X029434Y018775D01*
X029202Y018680D01*
X029059Y018536D01*
X028916Y018680D01*
X028684Y018775D01*
X028434Y018775D01*
X028202Y018680D01*
X028059Y018536D01*
X027916Y018680D01*
X027684Y018775D01*
X027434Y018775D01*
X027202Y018680D01*
X027059Y018536D01*
X026916Y018680D01*
X026684Y018775D01*
X026434Y018775D01*
X026202Y018680D01*
X026059Y018536D01*
X025916Y018680D01*
X025684Y018775D01*
X025434Y018775D01*
X025202Y018680D01*
X025025Y018502D01*
X024934Y018283D01*
X024843Y018502D01*
X024666Y018680D01*
X024434Y018775D01*
X024184Y018775D01*
X023952Y018680D01*
X023809Y018536D01*
X023666Y018680D01*
X023434Y018775D01*
X023184Y018775D01*
X022952Y018680D01*
X022809Y018536D01*
X022666Y018680D01*
X022434Y018775D01*
X022184Y018775D01*
X021952Y018680D01*
X021809Y018536D01*
X021666Y018680D01*
X021434Y018775D01*
X021184Y018775D01*
X020952Y018680D01*
X020809Y018536D01*
X020666Y018680D01*
X020434Y018775D01*
X020184Y018775D01*
X019952Y018680D01*
X019809Y018536D01*
X019666Y018680D01*
X019434Y018775D01*
X019184Y018775D01*
X018952Y018680D01*
X018809Y018536D01*
X018666Y018680D01*
X018434Y018775D01*
X018184Y018775D01*
X017952Y018680D01*
X017809Y018536D01*
X017666Y018680D01*
X017434Y018775D01*
X017184Y018775D01*
X017094Y018738D01*
X017094Y020677D01*
X017031Y020828D01*
X016916Y020943D01*
X016799Y021060D01*
X032389Y021060D01*
X032774Y020676D01*
X032774Y018738D01*
X032684Y018775D01*
X032434Y018775D01*
X032202Y018680D01*
X032059Y018536D01*
X031916Y018680D01*
X031684Y018775D01*
X031434Y018775D01*
X031202Y018680D01*
X031059Y018536D01*
X030916Y018680D01*
X030162Y018640D02*
X029955Y018640D01*
X029162Y018640D02*
X028955Y018640D01*
X028162Y018640D02*
X027955Y018640D01*
X027162Y018640D02*
X026955Y018640D01*
X026162Y018640D02*
X025955Y018640D01*
X025162Y018640D02*
X024705Y018640D01*
X024852Y018482D02*
X025016Y018482D01*
X024950Y018323D02*
X024917Y018323D01*
X024309Y017845D02*
X024309Y015970D01*
X024309Y015845D01*
X025059Y015095D01*
X025059Y014555D01*
X024559Y014555D02*
X024559Y015095D01*
X024434Y015220D01*
X024184Y015220D01*
X023434Y015970D01*
X023309Y015970D01*
X023309Y016095D02*
X023309Y016595D01*
X022309Y017595D01*
X022309Y017845D01*
X022705Y018640D02*
X022912Y018640D01*
X023705Y018640D02*
X023912Y018640D01*
X021912Y018640D02*
X021705Y018640D01*
X020912Y018640D02*
X020705Y018640D01*
X019912Y018640D02*
X019705Y018640D01*
X018912Y018640D02*
X018705Y018640D01*
X017912Y018640D02*
X017705Y018640D01*
X017094Y018799D02*
X032774Y018799D01*
X032774Y018957D02*
X017094Y018957D01*
X017094Y019116D02*
X032774Y019116D01*
X032774Y019274D02*
X017094Y019274D01*
X017094Y019433D02*
X032774Y019433D01*
X032774Y019591D02*
X017094Y019591D01*
X017094Y019750D02*
X032774Y019750D01*
X032774Y019908D02*
X017094Y019908D01*
X017094Y020067D02*
X032774Y020067D01*
X032774Y020225D02*
X017094Y020225D01*
X017094Y020384D02*
X032774Y020384D01*
X032774Y020542D02*
X017094Y020542D01*
X017084Y020701D02*
X032749Y020701D01*
X032591Y020859D02*
X017000Y020859D01*
X016916Y020943D02*
X016916Y020943D01*
X016842Y021018D02*
X032432Y021018D01*
X032559Y021470D02*
X033184Y020845D01*
X033184Y014720D01*
X032809Y014345D01*
X032309Y014345D01*
X032289Y015470D02*
X032329Y015470D01*
X032329Y015628D02*
X032289Y015628D01*
X032289Y015787D02*
X032329Y015787D01*
X031559Y016470D02*
X029934Y014845D01*
X029934Y012220D01*
X028934Y011220D01*
X028309Y011220D01*
X027309Y011220D01*
X027309Y011221D01*
X027308Y011220D01*
X027309Y011221D02*
X027309Y011845D01*
X027059Y012095D01*
X027059Y012135D01*
X026559Y012135D02*
X026559Y011555D01*
X026608Y011555D01*
X026608Y011268D01*
X026512Y011268D01*
X026512Y011555D01*
X026559Y011555D01*
X026559Y012135D01*
X026559Y012135D01*
X026559Y011221D01*
X026560Y011220D01*
X026512Y011190D02*
X025263Y011190D01*
X025269Y011349D02*
X026124Y011349D01*
X026124Y011032D02*
X025198Y011032D01*
X025091Y010873D02*
X026131Y010873D01*
X026512Y010873D02*
X026608Y010873D01*
X026608Y011032D02*
X026512Y011032D01*
X026512Y011349D02*
X026608Y011349D01*
X026608Y011507D02*
X026512Y011507D01*
X026559Y011666D02*
X026559Y011666D01*
X026559Y011824D02*
X026559Y011824D01*
X026559Y011983D02*
X026559Y011983D01*
X026059Y012135D02*
X026059Y012720D01*
X026184Y012845D01*
X027685Y012845D01*
X027111Y013255D02*
X026102Y013255D01*
X025952Y013193D01*
X025871Y013113D01*
X025791Y013193D01*
X025416Y013568D01*
X025265Y013630D01*
X023354Y013630D01*
X021916Y015068D01*
X021765Y015130D01*
X021450Y015130D01*
X021643Y015210D01*
X021809Y015376D01*
X021975Y015210D01*
X022192Y015120D01*
X022426Y015120D01*
X022534Y015165D01*
X022711Y014988D01*
X022827Y014873D01*
X022977Y014810D01*
X023249Y014810D01*
X023249Y014555D01*
X023249Y014132D01*
X023261Y014086D01*
X023285Y014045D01*
X023318Y014011D01*
X023359Y013988D01*
X023405Y013975D01*
X023559Y013975D01*
X023646Y013975D01*
X023649Y013969D01*
X023742Y013876D01*
X023863Y013825D01*
X024255Y013825D01*
X024309Y013848D01*
X024363Y013825D01*
X024755Y013825D01*
X024809Y013848D01*
X024863Y013825D01*
X025255Y013825D01*
X025309Y013848D01*
X025363Y013825D01*
X025755Y013825D01*
X025809Y013848D01*
X025863Y013825D01*
X026255Y013825D01*
X026309Y013848D01*
X026363Y013825D01*
X026755Y013825D01*
X026809Y013848D01*
X026863Y013825D01*
X027255Y013825D01*
X027376Y013876D01*
X027469Y013969D01*
X027519Y014090D01*
X027519Y014185D01*
X028015Y014185D01*
X028166Y014248D01*
X028281Y014363D01*
X028656Y014738D01*
X028719Y014889D01*
X028719Y015286D01*
X028809Y015376D01*
X028891Y015573D01*
X028848Y015470D02*
X028940Y015470D01*
X029123Y015311D02*
X028744Y015311D01*
X028719Y015153D02*
X029662Y015153D01*
X029586Y015078D02*
X029524Y014927D01*
X029524Y013473D01*
X029325Y013555D01*
X029043Y013555D01*
X028820Y013463D01*
X028754Y013490D01*
X028111Y013490D01*
X028059Y013469D01*
X028006Y013490D01*
X027363Y013490D01*
X027242Y013440D01*
X027149Y013347D01*
X027111Y013255D01*
X027211Y013409D02*
X025575Y013409D01*
X025733Y013251D02*
X026092Y013251D01*
X025559Y012845D02*
X025559Y012135D01*
X025059Y012135D02*
X025059Y012595D01*
X024809Y012845D01*
X023059Y012845D01*
X021559Y014345D01*
X020809Y014345D01*
X020184Y014970D01*
X020184Y016220D01*
X019934Y016470D01*
X017059Y016470D01*
X016309Y017220D01*
X016309Y020345D01*
X016059Y020595D01*
X012809Y020595D01*
X012309Y021095D01*
X011809Y021345D02*
X011809Y020595D01*
X012309Y020095D01*
X012691Y019591D02*
X012927Y019591D01*
X013691Y019591D02*
X015899Y019591D01*
X015899Y019750D02*
X013844Y019750D01*
X013910Y019908D02*
X015899Y019908D01*
X015899Y020067D02*
X013936Y020067D01*
X013309Y021095D02*
X016184Y021095D01*
X016684Y020595D01*
X016684Y017345D01*
X017184Y016845D01*
X020059Y016845D01*
X020559Y016345D01*
X020559Y015095D01*
X020934Y014720D01*
X021684Y014720D01*
X023184Y013220D01*
X025184Y013220D01*
X025559Y012845D01*
X025416Y013568D02*
X029524Y013568D01*
X029524Y013726D02*
X023258Y013726D01*
X023434Y013720D02*
X022184Y014970D01*
X022148Y014836D02*
X022916Y014836D01*
X022705Y014994D02*
X021990Y014994D01*
X022113Y015153D02*
X021505Y015153D01*
X021744Y015311D02*
X021873Y015311D01*
X022505Y015153D02*
X022547Y015153D01*
X023059Y015220D02*
X023809Y015220D01*
X024059Y014970D01*
X024059Y014555D01*
X023599Y014555D02*
X023559Y014555D01*
X023559Y013975D01*
X023559Y014555D01*
X023559Y014555D01*
X023559Y014555D01*
X023599Y014555D01*
X023599Y014555D01*
X023559Y014555D02*
X023559Y014810D01*
X023559Y014810D01*
X023559Y014555D01*
X023249Y014555D01*
X023559Y014555D01*
X023559Y014555D01*
X023559Y014555D01*
X023559Y014519D02*
X023559Y014519D01*
X023559Y014677D02*
X023559Y014677D01*
X023249Y014677D02*
X022307Y014677D01*
X022465Y014519D02*
X023249Y014519D01*
X023249Y014360D02*
X022624Y014360D01*
X022782Y014202D02*
X023249Y014202D01*
X023286Y014043D02*
X022941Y014043D01*
X023099Y013885D02*
X023733Y013885D01*
X023559Y014043D02*
X023559Y014043D01*
X023559Y014202D02*
X023559Y014202D01*
X023559Y014360D02*
X023559Y014360D01*
X023434Y013720D02*
X027434Y013720D01*
X027385Y013885D02*
X029524Y013885D01*
X029524Y014043D02*
X027500Y014043D01*
X028055Y014202D02*
X029524Y014202D01*
X029524Y014360D02*
X028279Y014360D01*
X028437Y014519D02*
X029524Y014519D01*
X029524Y014677D02*
X028596Y014677D01*
X028697Y014836D02*
X029524Y014836D01*
X029552Y014994D02*
X028719Y014994D01*
X029309Y015311D02*
X029309Y015311D01*
X029309Y015470D02*
X029309Y015470D01*
X029309Y015628D02*
X029309Y015628D01*
X029309Y015787D02*
X029309Y015787D01*
X029309Y015945D02*
X029309Y015945D01*
X029309Y015970D02*
X029749Y015970D01*
X029749Y016265D01*
X029738Y016334D01*
X029717Y016399D01*
X029698Y016435D01*
X030390Y016435D01*
X030541Y016498D01*
X030791Y016748D01*
X030906Y016863D01*
X030969Y017014D01*
X030969Y017065D01*
X031059Y017155D01*
X031149Y017065D01*
X031149Y016640D01*
X029586Y015078D01*
X029495Y015311D02*
X029820Y015311D01*
X029678Y015470D02*
X029979Y015470D01*
X030137Y015628D02*
X029741Y015628D01*
X029749Y015787D02*
X030296Y015787D01*
X030454Y015945D02*
X029749Y015945D01*
X029749Y016104D02*
X030613Y016104D01*
X030771Y016262D02*
X029749Y016262D01*
X029706Y016421D02*
X030930Y016421D01*
X031088Y016579D02*
X030623Y016579D01*
X030781Y016738D02*
X031149Y016738D01*
X031149Y016896D02*
X030920Y016896D01*
X030969Y017055D02*
X031149Y017055D01*
X031955Y018640D02*
X032162Y018640D01*
X032559Y021470D02*
X014184Y021470D01*
X014059Y021595D01*
X012059Y021595D01*
X011809Y021345D01*
X010809Y021595D02*
X010809Y020595D01*
X010309Y020095D01*
X010691Y019591D02*
X010927Y019591D01*
X011691Y019591D02*
X011927Y019591D01*
X009927Y019591D02*
X009691Y019591D01*
X009809Y019595D02*
X009809Y021595D01*
X009798Y021493D02*
X009820Y021493D01*
X010013Y021652D02*
X009605Y021652D01*
X011309Y017095D02*
X010809Y016595D01*
X006037Y015153D02*
X004698Y015153D01*
X004698Y014994D02*
X005878Y014994D01*
X005720Y014836D02*
X004691Y014836D01*
X003889Y014836D02*
X003729Y014836D01*
X003729Y014994D02*
X003889Y014994D01*
X004698Y015470D02*
X005464Y015470D01*
X005272Y015628D02*
X004698Y015628D01*
X004694Y015787D02*
X005168Y015787D01*
X001483Y013251D02*
X001387Y013251D01*
X001387Y013321D02*
X001155Y013321D01*
X001109Y013308D01*
X001068Y013285D01*
X001035Y013251D01*
X000999Y013092D02*
X000809Y013092D01*
X000809Y012934D02*
X000999Y012934D01*
X000999Y012775D02*
X000809Y012775D01*
X000809Y012617D02*
X000999Y012617D01*
X001024Y012458D02*
X000809Y012458D01*
X001387Y012893D02*
X001387Y013321D01*
X001387Y013092D02*
X001483Y013092D01*
X001483Y012934D02*
X001387Y012934D01*
X003184Y010469D02*
X003309Y010470D01*
X003559Y010470D01*
X006356Y009605D02*
X008565Y009605D01*
X008817Y009764D02*
X006494Y009764D01*
X006494Y009922D02*
X008899Y009922D01*
X012683Y006470D02*
X013309Y006470D01*
X013434Y006595D01*
X014866Y006595D01*
X017621Y006845D02*
X017621Y006314D01*
X017621Y006845D02*
X017746Y006970D01*
X018809Y006970D01*
X018934Y007095D01*
X018934Y010095D01*
X018871Y010158D01*
X019559Y010158D02*
X022184Y010158D01*
X023184Y009158D01*
X023184Y004595D01*
X023559Y004220D01*
X026809Y004220D01*
X027059Y003970D01*
X027059Y003095D01*
X025559Y003095D02*
X025559Y003595D01*
X025309Y003845D01*
X023309Y003845D01*
X022809Y004345D01*
X022809Y009095D01*
X022059Y009845D01*
X019602Y009845D01*
X019592Y009855D01*
X019605Y010158D02*
X019592Y010170D01*
X019592Y009540D02*
X019600Y009533D01*
X021934Y009533D01*
X022434Y009033D01*
X022434Y004095D01*
X023309Y003220D01*
X023309Y003095D01*
X021809Y003095D02*
X021809Y003845D01*
X022059Y004095D01*
X022059Y008970D01*
X021809Y009220D01*
X019597Y009220D01*
X019592Y009225D01*
X019592Y008910D02*
X019621Y008908D01*
X020934Y008908D01*
X021434Y008470D01*
X021431Y008473D01*
X020496Y008595D02*
X021434Y007470D01*
X020809Y007720D02*
X020809Y007095D01*
X021434Y006470D01*
X020844Y006056D02*
X021032Y005869D01*
X021293Y005760D01*
X021575Y005760D01*
X021649Y005791D01*
X021649Y004265D01*
X021577Y004193D01*
X021461Y004078D01*
X021399Y003927D01*
X021399Y003725D01*
X021384Y003725D01*
X021152Y003630D01*
X020975Y003452D01*
X020879Y003221D01*
X020879Y002970D01*
X020937Y002830D01*
X020576Y003191D01*
X020404Y003363D01*
X020180Y003455D01*
X019914Y003455D01*
X019914Y003572D01*
X019864Y003693D01*
X019771Y003786D01*
X019650Y003836D01*
X019254Y003836D01*
X020666Y005248D01*
X020781Y005363D01*
X020844Y005514D01*
X020844Y006056D01*
X020844Y005960D02*
X020940Y005960D01*
X020844Y005801D02*
X021194Y005801D01*
X020844Y005643D02*
X021649Y005643D01*
X021649Y005484D02*
X020832Y005484D01*
X020744Y005326D02*
X021649Y005326D01*
X021649Y005167D02*
X020586Y005167D01*
X020427Y005009D02*
X021649Y005009D01*
X021649Y004850D02*
X020269Y004850D01*
X020110Y004692D02*
X021649Y004692D01*
X021649Y004533D02*
X019952Y004533D01*
X019793Y004375D02*
X021649Y004375D01*
X021600Y004216D02*
X019635Y004216D01*
X019476Y004058D02*
X021453Y004058D01*
X021399Y003899D02*
X019318Y003899D01*
X019816Y003741D02*
X021399Y003741D01*
X021105Y003582D02*
X019910Y003582D01*
X020256Y003424D02*
X020963Y003424D01*
X020897Y003265D02*
X020502Y003265D01*
X020660Y003107D02*
X020879Y003107D01*
X020888Y002948D02*
X020819Y002948D01*
X019886Y002156D02*
X019872Y002156D01*
X020044Y001997D02*
X019657Y001997D01*
X018961Y001997D02*
X018324Y001997D01*
X018482Y002156D02*
X018746Y002156D01*
X019764Y000888D02*
X021076Y000888D01*
X021196Y000729D02*
X019764Y000729D01*
X021789Y000729D02*
X021829Y000729D01*
X021829Y000888D02*
X021789Y000888D01*
X021789Y001046D02*
X021829Y001046D01*
X021829Y001075D02*
X021829Y001115D01*
X023289Y001115D01*
X023289Y001075D01*
X022529Y001075D01*
X021829Y001075D01*
X022422Y000729D02*
X022696Y000729D01*
X022576Y000888D02*
X022542Y000888D01*
X023289Y000888D02*
X023329Y000888D01*
X023329Y001046D02*
X023289Y001046D01*
X023289Y000729D02*
X023329Y000729D01*
X023922Y000729D02*
X024946Y000729D01*
X025007Y000685D01*
X025075Y000651D01*
X025146Y000627D01*
X025221Y000615D01*
X025539Y000615D01*
X025539Y001075D01*
X024779Y001075D01*
X024779Y001058D01*
X024791Y000983D01*
X024814Y000911D01*
X024848Y000844D01*
X024893Y000783D01*
X024946Y000729D01*
X024826Y000888D02*
X024042Y000888D01*
X024087Y001046D02*
X024781Y001046D01*
X024790Y001205D02*
X024078Y001205D01*
X024007Y001363D02*
X024860Y001363D01*
X025539Y001046D02*
X025579Y001046D01*
X025579Y001075D02*
X025579Y001115D01*
X027039Y001115D01*
X027039Y001075D01*
X026279Y001075D01*
X025579Y001075D01*
X025579Y000888D02*
X025539Y000888D01*
X025539Y000729D02*
X025579Y000729D01*
X026172Y000729D02*
X026446Y000729D01*
X026326Y000888D02*
X026292Y000888D01*
X027039Y000888D02*
X027079Y000888D01*
X027079Y001046D02*
X027039Y001046D01*
X027039Y000729D02*
X027079Y000729D01*
X027672Y000729D02*
X028446Y000729D01*
X028507Y000685D01*
X028575Y000651D01*
X028646Y000627D01*
X028721Y000615D01*
X029039Y000615D01*
X029039Y001075D01*
X028279Y001075D01*
X028279Y001058D01*
X028291Y000983D01*
X028314Y000911D01*
X028348Y000844D01*
X028393Y000783D01*
X028446Y000729D01*
X028326Y000888D02*
X027792Y000888D01*
X027837Y001046D02*
X028281Y001046D01*
X028290Y001205D02*
X027828Y001205D01*
X027757Y001363D02*
X028360Y001363D01*
X029039Y001046D02*
X029079Y001046D01*
X029079Y001075D02*
X029079Y001115D01*
X030539Y001115D01*
X030539Y001075D01*
X029839Y001075D01*
X029079Y001075D01*
X029079Y000888D02*
X029039Y000888D01*
X029039Y000729D02*
X029079Y000729D01*
X029672Y000729D02*
X029946Y000729D01*
X029826Y000888D02*
X029792Y000888D01*
X030539Y000888D02*
X030579Y000888D01*
X030579Y001046D02*
X030539Y001046D01*
X030539Y000729D02*
X030579Y000729D01*
X031172Y000729D02*
X033559Y000729D01*
X033559Y000888D02*
X031292Y000888D01*
X031337Y001046D02*
X033559Y001046D01*
X033559Y001205D02*
X031328Y001205D01*
X031257Y001363D02*
X033559Y001363D01*
X033559Y001522D02*
X031121Y001522D01*
X031335Y001680D02*
X033559Y001680D01*
X033559Y001839D02*
X031435Y001839D01*
X031489Y001997D02*
X033559Y001997D01*
X033559Y002156D02*
X031489Y002156D01*
X031450Y002314D02*
X033559Y002314D01*
X033559Y002473D02*
X031372Y002473D01*
X031286Y002631D02*
X033559Y002631D01*
X033559Y002790D02*
X031414Y002790D01*
X031480Y002948D02*
X033559Y002948D01*
X033559Y003107D02*
X031489Y003107D01*
X031470Y003265D02*
X033559Y003265D01*
X033559Y003424D02*
X031405Y003424D01*
X031263Y003582D02*
X033559Y003582D01*
X031642Y004533D02*
X029201Y004533D01*
X029203Y004692D02*
X031554Y004692D01*
X031557Y005009D02*
X031499Y005009D01*
X031559Y005595D02*
X030946Y005595D01*
X031559Y005595D02*
X031809Y005845D01*
X032309Y005845D01*
X033068Y006277D02*
X033559Y006277D01*
X033559Y006435D02*
X033090Y006435D01*
X033187Y006594D02*
X033559Y006594D01*
X033559Y006752D02*
X033239Y006752D01*
X033239Y006911D02*
X033559Y006911D01*
X033559Y007069D02*
X033198Y007069D01*
X033117Y007228D02*
X033559Y007228D01*
X033559Y007386D02*
X032949Y007386D01*
X033559Y007545D02*
X031633Y007545D01*
X031447Y007703D02*
X033559Y007703D01*
X033559Y007862D02*
X032662Y007862D01*
X032591Y007790D02*
X032989Y008189D01*
X032989Y008470D01*
X032309Y008470D01*
X032309Y007790D01*
X032591Y007790D01*
X032309Y007790D02*
X032309Y008470D01*
X032309Y008470D01*
X032309Y008470D01*
X031629Y008470D01*
X031629Y008423D01*
X031606Y008423D01*
X031606Y008518D01*
X031629Y008518D01*
X031629Y008470D01*
X032309Y008470D01*
X032309Y008470D01*
X032989Y008470D01*
X032989Y008752D01*
X032591Y009150D01*
X032309Y009150D01*
X032309Y008470D01*
X032309Y008470D01*
X032309Y009150D01*
X032027Y009150D01*
X031822Y008946D01*
X031606Y008946D01*
X031606Y008518D01*
X031510Y008518D01*
X031510Y008946D01*
X031348Y008946D01*
X031346Y008953D01*
X031253Y009046D01*
X031131Y009096D01*
X030552Y009096D01*
X030504Y009115D01*
X029861Y009115D01*
X029809Y009094D01*
X029776Y009107D01*
X029792Y009124D01*
X029794Y009125D01*
X029850Y009182D01*
X029906Y009238D01*
X029907Y009240D01*
X029908Y009241D01*
X029938Y009315D01*
X029969Y009389D01*
X029969Y009391D01*
X029969Y009392D01*
X029969Y009472D01*
X029969Y009490D01*
X030053Y009490D01*
X030174Y009540D01*
X030184Y009550D01*
X030194Y009540D01*
X030315Y009490D01*
X031313Y009490D01*
X031434Y009540D01*
X031527Y009633D01*
X031547Y009683D01*
X031965Y009265D01*
X032653Y009265D01*
X033139Y009752D01*
X033139Y010439D01*
X032653Y010925D01*
X031965Y010925D01*
X031547Y010508D01*
X031527Y010558D01*
X031434Y010651D01*
X031313Y010701D01*
X030315Y010701D01*
X030194Y010651D01*
X030184Y010641D01*
X030174Y010651D01*
X030053Y010701D01*
X029744Y010701D01*
X030979Y011935D01*
X031528Y011935D01*
X031652Y011811D01*
X031884Y011715D01*
X032734Y011715D01*
X032966Y011811D01*
X033143Y011989D01*
X033239Y012220D01*
X033239Y012471D01*
X033143Y012702D01*
X033000Y012845D01*
X033070Y012775D02*
X033559Y012775D01*
X033559Y012617D02*
X033178Y012617D01*
X033239Y012458D02*
X033559Y012458D01*
X033559Y012300D02*
X033239Y012300D01*
X033206Y012141D02*
X033559Y012141D01*
X033559Y011983D02*
X033137Y011983D01*
X032979Y011824D02*
X033559Y011824D01*
X033559Y011666D02*
X030709Y011666D01*
X030551Y011507D02*
X033559Y011507D01*
X033559Y011349D02*
X030392Y011349D01*
X030234Y011190D02*
X033559Y011190D01*
X033559Y011032D02*
X030075Y011032D01*
X029917Y010873D02*
X031913Y010873D01*
X031755Y010715D02*
X029758Y010715D01*
X029554Y010095D02*
X029559Y009470D01*
X029184Y009095D01*
X029434Y008845D01*
X029435Y008470D01*
X028849Y008356D02*
X028849Y008090D01*
X028899Y007969D01*
X028992Y007876D01*
X029113Y007826D01*
X029756Y007826D01*
X029809Y007847D01*
X029861Y007826D01*
X030504Y007826D01*
X030552Y007845D01*
X031131Y007845D01*
X031253Y007895D01*
X031346Y007988D01*
X031348Y007995D01*
X031510Y007995D01*
X031510Y008423D01*
X031606Y008423D01*
X031606Y007995D01*
X031822Y007995D01*
X032027Y007790D01*
X032309Y007790D01*
X032309Y007862D02*
X032309Y007862D01*
X032309Y008020D02*
X032309Y008020D01*
X032309Y008179D02*
X032309Y008179D01*
X032309Y008337D02*
X032309Y008337D01*
X032309Y008496D02*
X032309Y008496D01*
X032309Y008654D02*
X032309Y008654D01*
X032309Y008813D02*
X032309Y008813D01*
X032309Y008971D02*
X032309Y008971D01*
X032309Y009130D02*
X032309Y009130D01*
X032611Y009130D02*
X033559Y009130D01*
X033559Y009288D02*
X032676Y009288D01*
X032834Y009447D02*
X033559Y009447D01*
X033559Y009605D02*
X032993Y009605D01*
X033139Y009764D02*
X033559Y009764D01*
X033559Y009922D02*
X033139Y009922D01*
X033139Y010081D02*
X033559Y010081D01*
X033559Y010239D02*
X033139Y010239D01*
X033139Y010398D02*
X033559Y010398D01*
X033559Y010556D02*
X033022Y010556D01*
X032863Y010715D02*
X033559Y010715D01*
X033559Y010873D02*
X032705Y010873D01*
X032309Y010095D02*
X030814Y010095D01*
X031499Y009605D02*
X031625Y009605D01*
X031784Y009447D02*
X029969Y009447D01*
X029928Y009288D02*
X031942Y009288D01*
X032007Y009130D02*
X029799Y009130D01*
X029184Y009095D02*
X028809Y009095D01*
X028809Y009119D01*
X028309Y009119D02*
X028309Y009845D01*
X026982Y009810D02*
X026911Y009739D01*
X026861Y009618D01*
X026861Y008620D01*
X026911Y008499D01*
X027004Y008406D01*
X027125Y008356D01*
X027493Y008356D01*
X027559Y008383D01*
X027625Y008356D01*
X027993Y008356D01*
X028059Y008383D01*
X028125Y008356D01*
X028493Y008356D01*
X028559Y008383D01*
X028625Y008356D01*
X028849Y008356D01*
X028849Y008337D02*
X025221Y008337D01*
X025269Y008454D02*
X025269Y008737D01*
X025161Y008998D01*
X025153Y009006D01*
X025238Y008970D01*
X025881Y008970D01*
X026003Y009020D01*
X026096Y009113D01*
X026098Y009120D01*
X026260Y009120D01*
X026260Y009548D01*
X026356Y009548D01*
X026356Y009643D01*
X026744Y009643D01*
X026744Y009810D01*
X026982Y009810D01*
X026936Y009764D02*
X026744Y009764D01*
X026861Y009605D02*
X026356Y009605D01*
X026356Y009548D02*
X026744Y009548D01*
X026744Y009276D01*
X026732Y009231D01*
X026708Y009190D01*
X026674Y009156D01*
X026633Y009132D01*
X026587Y009120D01*
X026356Y009120D01*
X026356Y009548D01*
X026356Y009447D02*
X026260Y009447D01*
X026260Y009288D02*
X026356Y009288D01*
X026356Y009130D02*
X026260Y009130D01*
X026624Y009130D02*
X026861Y009130D01*
X026861Y009288D02*
X026744Y009288D01*
X026744Y009447D02*
X026861Y009447D01*
X026861Y008971D02*
X025885Y008971D01*
X025235Y008971D02*
X025172Y008971D01*
X025237Y008813D02*
X026861Y008813D01*
X026861Y008654D02*
X025269Y008654D01*
X025269Y008496D02*
X026914Y008496D01*
X026923Y007703D02*
X025269Y007703D01*
X025269Y007737D02*
X025161Y007998D01*
X025063Y008095D01*
X025161Y008193D01*
X025269Y008454D01*
X025146Y008179D02*
X028849Y008179D01*
X028878Y008020D02*
X025138Y008020D01*
X025217Y007862D02*
X029025Y007862D01*
X028695Y007703D02*
X029421Y007703D01*
X029235Y007545D02*
X029103Y007545D01*
X029107Y007386D02*
X029198Y007386D01*
X029198Y007228D02*
X029107Y007228D01*
X029107Y007069D02*
X029198Y007069D01*
X029198Y006911D02*
X029107Y006911D01*
X029107Y006752D02*
X029198Y006752D01*
X029621Y006345D02*
X029929Y006348D01*
X029934Y005845D01*
X029922Y005595D01*
X029434Y006158D02*
X029621Y006345D01*
X029434Y006158D02*
X028996Y006158D01*
X028846Y006147D01*
X028309Y005845D02*
X028059Y005595D01*
X027271Y005595D01*
X026757Y006118D02*
X025086Y006118D01*
X025161Y006193D02*
X024961Y005994D01*
X024955Y005991D01*
X024986Y005960D01*
X025161Y006193D02*
X025269Y006454D01*
X025269Y006737D01*
X025161Y006998D01*
X025063Y007095D01*
X025161Y007193D01*
X025269Y007454D01*
X025269Y007737D01*
X025269Y007545D02*
X026861Y007545D01*
X026861Y007386D02*
X025241Y007386D01*
X025175Y007228D02*
X026861Y007228D01*
X026861Y007069D02*
X025089Y007069D01*
X025197Y006911D02*
X026861Y006911D01*
X026861Y006752D02*
X025262Y006752D01*
X025269Y006594D02*
X026861Y006594D01*
X026927Y006435D02*
X025261Y006435D01*
X025195Y006277D02*
X027899Y006277D01*
X027899Y006435D02*
X027690Y006435D01*
X027809Y006459D02*
X027809Y007072D01*
X027809Y006459D01*
X027809Y006594D02*
X027809Y006594D01*
X027809Y006752D02*
X027809Y006752D01*
X027809Y006911D02*
X027809Y006911D01*
X027809Y007069D02*
X027809Y007069D01*
X027809Y007072D02*
X027809Y007072D01*
X027809Y007228D02*
X027809Y007228D01*
X027809Y007386D02*
X027809Y007386D01*
X027809Y007545D02*
X027809Y007545D01*
X027695Y007703D02*
X027923Y007703D01*
X028809Y007545D02*
X028809Y007545D01*
X028809Y007386D02*
X028809Y007386D01*
X028809Y007228D02*
X028809Y007228D01*
X028309Y007072D02*
X028309Y005845D01*
X027899Y006118D02*
X027786Y006118D01*
X029929Y006348D02*
X029922Y007095D01*
X030423Y007703D02*
X030445Y007703D01*
X031172Y007862D02*
X031956Y007862D01*
X031606Y008020D02*
X031510Y008020D01*
X031510Y008179D02*
X031606Y008179D01*
X031606Y008337D02*
X031510Y008337D01*
X031606Y008496D02*
X031629Y008496D01*
X031606Y008654D02*
X031510Y008654D01*
X031510Y008813D02*
X031606Y008813D01*
X031848Y008971D02*
X031327Y008971D01*
X030810Y008470D02*
X030183Y008470D01*
X030946Y007095D02*
X031559Y007095D01*
X031809Y006845D01*
X032309Y006845D01*
X033178Y006118D02*
X033559Y006118D01*
X033559Y005960D02*
X033239Y005960D01*
X033239Y005801D02*
X033559Y005801D01*
X033559Y005643D02*
X033207Y005643D01*
X033139Y005484D02*
X033559Y005484D01*
X033559Y005326D02*
X032980Y005326D01*
X032966Y005167D02*
X033559Y005167D01*
X033559Y005009D02*
X033060Y005009D01*
X032821Y008020D02*
X033559Y008020D01*
X033559Y008179D02*
X032979Y008179D01*
X032989Y008337D02*
X033559Y008337D01*
X033559Y008496D02*
X032989Y008496D01*
X032989Y008654D02*
X033559Y008654D01*
X033559Y008813D02*
X032928Y008813D01*
X032770Y008971D02*
X033559Y008971D01*
X031596Y010556D02*
X031527Y010556D01*
X031639Y011824D02*
X030868Y011824D01*
X030809Y012345D02*
X032309Y012345D01*
X033088Y012934D02*
X033559Y012934D01*
X033559Y013092D02*
X033511Y013092D01*
X029184Y012845D02*
X028433Y012845D01*
X026059Y014555D02*
X026059Y015345D01*
X026309Y015595D01*
X026309Y015970D01*
X025559Y015345D02*
X025559Y014555D01*
X025559Y015345D02*
X025309Y015595D01*
X025309Y015970D01*
X025309Y016595D01*
X025559Y016845D01*
X026309Y016845D01*
X026559Y017095D01*
X026559Y017845D01*
X023059Y015220D02*
X022309Y015970D01*
X022309Y016595D01*
X022059Y016845D01*
X020559Y016845D01*
X020309Y017095D01*
X020309Y017845D01*
X019774Y015311D02*
X019423Y015311D01*
X019552Y015153D02*
X019774Y015153D01*
X019774Y014994D02*
X019594Y014994D01*
X019594Y014836D02*
X019796Y014836D01*
X019897Y014677D02*
X019594Y014677D01*
X019594Y014519D02*
X020056Y014519D01*
X020214Y014360D02*
X019594Y014360D01*
X019594Y014202D02*
X020373Y014202D01*
X020531Y014043D02*
X019594Y014043D01*
X019594Y013885D02*
X021440Y013885D01*
X021598Y013726D02*
X019594Y013726D01*
X021242Y012617D02*
X022389Y012617D01*
X022290Y012458D02*
X021401Y012458D01*
X021559Y012300D02*
X022224Y012300D01*
X022224Y012141D02*
X021718Y012141D01*
X021876Y011983D02*
X022238Y011983D01*
X022304Y011824D02*
X022035Y011824D01*
X022193Y011666D02*
X022422Y011666D01*
X022352Y011507D02*
X022649Y011507D01*
X022510Y011349D02*
X023849Y011349D01*
X023855Y011190D02*
X022669Y011190D01*
X022827Y011032D02*
X023920Y011032D01*
X024027Y010873D02*
X022986Y010873D01*
X023144Y010715D02*
X024226Y010715D01*
X024892Y010715D02*
X026795Y010715D01*
X025560Y009595D02*
X024559Y009595D01*
X024559Y011345D02*
X024559Y012135D01*
X024059Y012135D02*
X024059Y011720D01*
X023684Y011345D01*
X023559Y012135D02*
X022934Y012158D01*
X020496Y008595D02*
X019592Y008595D01*
X019592Y008281D02*
X020249Y008281D01*
X020809Y007720D01*
X023969Y006118D02*
X024032Y006118D01*
X023969Y005960D02*
X024132Y005960D01*
X024037Y005801D02*
X023969Y005801D01*
X023969Y005643D02*
X023999Y005643D01*
X024009Y005484D02*
X023969Y005484D01*
X023969Y005326D02*
X024068Y005326D01*
D41*
X005809Y016095D02*
X005809Y017095D01*
X005309Y017595D01*
X004332Y017595D01*
X004309Y017345D01*
X004309Y017095D01*
X003934Y016720D01*
X002684Y016720D01*
X002184Y016220D01*
X002184Y012845D01*
X002809Y012845D01*
X002899Y012875D01*
X002184Y012845D02*
X002183Y012845D01*
X002184Y012345D01*
X002184Y011970D01*
X001809Y011470D01*
X001809Y010595D01*
D42*
X001809Y009095D02*
X003184Y009095D01*
X005059Y009095D01*
X005559Y008595D01*
X005559Y005647D01*
X005559Y005595D02*
X005309Y005595D01*
X005559Y005845D01*
X005809Y002095D02*
X005559Y002044D01*
X005809Y002095D02*
X008184Y002095D01*
X016684Y002095D01*
X017559Y002095D01*
X018309Y002845D01*
X019559Y002845D01*
X019309Y002915D01*
X019559Y002845D02*
X020059Y002845D01*
X020809Y002095D01*
X021809Y002095D01*
X026309Y002095D01*
X030559Y002095D02*
X021809Y002095D01*
X011684Y009970D02*
X011684Y011470D01*
M02*
