G75*
G70*
%OFA0B0*%
%FSLAX24Y24*%
%IPPOS*%
%LPD*%
%AMOC8*
5,1,8,0,0,1.08239X$1,22.5*
%
%ADD10C,0.0600*%
%ADD11C,0.0787*%
%ADD12R,0.0594X0.0594*%
%ADD13C,0.0660*%
%ADD14C,0.0594*%
%ADD15C,0.0520*%
%ADD16C,0.0760*%
%ADD17OC8,0.0600*%
%ADD18OC8,0.1000*%
%ADD19C,0.0160*%
%ADD20C,0.0320*%
%ADD21C,0.0560*%
D10*
X007884Y001095D02*
X008484Y001095D01*
X009384Y001095D02*
X009984Y001095D01*
X011384Y001095D02*
X011984Y001095D01*
X012884Y001095D02*
X013484Y001095D01*
X014884Y001095D02*
X015484Y001095D01*
X016384Y001095D02*
X016984Y001095D01*
X016984Y002095D02*
X016384Y002095D01*
X015484Y002095D02*
X014884Y002095D01*
X014884Y003095D02*
X015484Y003095D01*
X016384Y003095D02*
X016984Y003095D01*
X013484Y003095D02*
X012884Y003095D01*
X011984Y003095D02*
X011384Y003095D01*
X011384Y002095D02*
X011984Y002095D01*
X012884Y002095D02*
X013484Y002095D01*
X009984Y002095D02*
X009384Y002095D01*
X008484Y002095D02*
X007884Y002095D01*
X007884Y003095D02*
X008484Y003095D01*
X009384Y003095D02*
X009984Y003095D01*
X010684Y009670D02*
X010684Y010270D01*
X011684Y010270D02*
X011684Y009670D01*
X012684Y009670D02*
X012684Y010270D01*
X012684Y011170D02*
X012684Y011770D01*
X011684Y011770D02*
X011684Y011170D01*
X010684Y011170D02*
X010684Y011770D01*
X017309Y017545D02*
X017309Y018145D01*
X018309Y018145D02*
X018309Y017545D01*
X019309Y017545D02*
X019309Y018145D01*
X020309Y018145D02*
X020309Y017545D01*
X021309Y017545D02*
X021309Y018145D01*
X022309Y018145D02*
X022309Y017545D01*
X023309Y017545D02*
X023309Y018145D01*
X024309Y018145D02*
X024309Y017545D01*
X025559Y017545D02*
X025559Y018145D01*
X026559Y018145D02*
X026559Y017545D01*
X027559Y017545D02*
X027559Y018145D01*
X028559Y018145D02*
X028559Y017545D01*
X029559Y017545D02*
X029559Y018145D01*
X030559Y018145D02*
X030559Y017545D01*
X031559Y017545D02*
X031559Y018145D01*
X032559Y018145D02*
X032559Y017545D01*
X032609Y015345D02*
X032009Y015345D01*
X032009Y014345D02*
X032609Y014345D01*
X032609Y013345D02*
X032009Y013345D01*
X032009Y012345D02*
X032609Y012345D01*
X032609Y006845D02*
X032009Y006845D01*
X032009Y005845D02*
X032609Y005845D01*
X032609Y004845D02*
X032009Y004845D01*
X030859Y003095D02*
X030259Y003095D01*
X029359Y003095D02*
X028759Y003095D01*
X028759Y002095D02*
X029359Y002095D01*
X030259Y002095D02*
X030859Y002095D01*
X030859Y001095D02*
X030259Y001095D01*
X029359Y001095D02*
X028759Y001095D01*
X027359Y001095D02*
X026759Y001095D01*
X025859Y001095D02*
X025259Y001095D01*
X025259Y002095D02*
X025859Y002095D01*
X026759Y002095D02*
X027359Y002095D01*
X027359Y003095D02*
X026759Y003095D01*
X025859Y003095D02*
X025259Y003095D01*
X023609Y003095D02*
X023009Y003095D01*
X022109Y003095D02*
X021509Y003095D01*
X021509Y002095D02*
X022109Y002095D01*
X023009Y002095D02*
X023609Y002095D01*
X023609Y001095D02*
X023009Y001095D01*
X022109Y001095D02*
X021509Y001095D01*
D11*
X017309Y006595D03*
X017309Y007595D03*
X017309Y008595D03*
X017309Y009595D03*
X017309Y010595D03*
D12*
X001309Y020095D03*
D13*
X001309Y021095D03*
X003309Y021095D03*
D14*
X004309Y021095D03*
X005309Y021095D03*
X006309Y021095D03*
X007309Y021095D03*
X008309Y021095D03*
X009309Y021095D03*
X010309Y021095D03*
X011309Y021095D03*
X012309Y021095D03*
X013309Y021095D03*
X013309Y020095D03*
X012309Y020095D03*
X011309Y020095D03*
X010309Y020095D03*
X009309Y020095D03*
X008309Y020095D03*
X007309Y020095D03*
X006309Y020095D03*
X005309Y020095D03*
X004309Y020095D03*
X003309Y020095D03*
X002309Y020095D03*
X002309Y021095D03*
D15*
X021309Y016230D02*
X021309Y015710D01*
X022309Y015710D02*
X022309Y016230D01*
X023309Y016230D02*
X023309Y015710D01*
X024309Y015710D02*
X024309Y016230D01*
X025309Y016230D02*
X025309Y015710D01*
X026309Y015710D02*
X026309Y016230D01*
X027309Y016230D02*
X027309Y015710D01*
X028309Y015710D02*
X028309Y016230D01*
X029309Y016230D02*
X029309Y015710D01*
D16*
X029184Y012845D03*
X028309Y011220D03*
X024559Y011345D03*
X022934Y012158D03*
X020309Y011470D03*
X018996Y011720D03*
X018371Y012345D03*
X015059Y011470D03*
X011309Y013345D03*
X008809Y014095D03*
X007809Y014095D03*
X005059Y015345D03*
X004684Y016220D03*
X005809Y016095D03*
X003059Y018345D03*
X001184Y014720D03*
X005809Y010970D03*
X009059Y009095D03*
X012809Y008345D03*
X009059Y005720D03*
X007559Y004595D03*
X003184Y004345D03*
X001184Y005220D03*
X004059Y007595D03*
X014309Y015095D03*
X015809Y014845D03*
X014309Y018470D03*
X011809Y018970D03*
X018809Y020595D03*
X031059Y020595D03*
X024559Y009595D03*
X024559Y008595D03*
X024559Y007595D03*
X024559Y006595D03*
X024559Y005595D03*
X021434Y006470D03*
X021434Y007470D03*
X021434Y008470D03*
X021059Y005095D03*
D17*
X013309Y016095D03*
X012309Y016095D03*
X011309Y016095D03*
X010309Y016095D03*
X009309Y016095D03*
X009309Y017095D03*
X010309Y017095D03*
X011309Y017095D03*
X012309Y017095D03*
X013309Y017095D03*
D18*
X001809Y010595D03*
X001809Y009095D03*
X001809Y007595D03*
X032309Y008470D03*
X032309Y010095D03*
D19*
X000809Y019535D02*
X000809Y000595D01*
X033559Y000595D01*
X033559Y021845D01*
X014389Y021845D01*
X014729Y021505D01*
X016015Y021505D01*
X016166Y021443D01*
X016281Y021328D01*
X016781Y020828D01*
X016844Y020677D01*
X016844Y018571D01*
X016899Y018626D01*
X016899Y018677D01*
X016961Y018828D01*
X017461Y019328D01*
X017577Y019443D01*
X017727Y019505D01*
X018890Y019505D01*
X019041Y019443D01*
X019309Y019175D01*
X019461Y019328D01*
X019577Y019443D01*
X019727Y019505D01*
X020890Y019505D01*
X021041Y019443D01*
X021309Y019175D01*
X021461Y019328D01*
X021577Y019443D01*
X021727Y019505D01*
X022890Y019505D01*
X023041Y019443D01*
X023309Y019175D01*
X023461Y019328D01*
X023577Y019443D01*
X023727Y019505D01*
X025140Y019505D01*
X025291Y019443D01*
X025559Y019175D01*
X025711Y019328D01*
X025827Y019443D01*
X025977Y019505D01*
X027140Y019505D01*
X027291Y019443D01*
X027559Y019175D01*
X027711Y019328D01*
X027827Y019443D01*
X027977Y019505D01*
X029140Y019505D01*
X029291Y019443D01*
X029559Y019175D01*
X029711Y019328D01*
X029827Y019443D01*
X029977Y019505D01*
X031140Y019505D01*
X031291Y019443D01*
X031791Y018943D01*
X031906Y018828D01*
X031969Y018677D01*
X031969Y018626D01*
X032059Y018536D01*
X032202Y018680D01*
X032434Y018775D01*
X032684Y018775D01*
X032916Y018680D01*
X033093Y018502D01*
X033189Y018271D01*
X033189Y017420D01*
X033093Y017189D01*
X032969Y017065D01*
X032969Y017014D01*
X032906Y016863D01*
X032531Y016488D01*
X032416Y016373D01*
X032265Y016310D01*
X029742Y016310D01*
X029749Y016265D01*
X029749Y015970D01*
X029309Y015970D01*
X029309Y015270D01*
X029343Y015270D01*
X029412Y015281D01*
X029478Y015303D01*
X029539Y015334D01*
X029596Y015375D01*
X029644Y015424D01*
X029685Y015480D01*
X029717Y015542D01*
X029738Y015607D01*
X029749Y015676D01*
X029749Y015970D01*
X029309Y015970D01*
X029309Y015970D01*
X029309Y015270D01*
X029274Y015270D01*
X029206Y015281D01*
X029140Y015303D01*
X029078Y015334D01*
X029022Y015375D01*
X028973Y015424D01*
X028933Y015480D01*
X028901Y015542D01*
X028891Y015573D01*
X028809Y015376D01*
X028643Y015210D01*
X028426Y015120D01*
X028192Y015120D01*
X027975Y015210D01*
X027809Y015376D01*
X027643Y015210D01*
X027426Y015120D01*
X027192Y015120D01*
X026975Y015210D01*
X026809Y015376D01*
X026643Y015210D01*
X026426Y015120D01*
X026192Y015120D01*
X025975Y015210D01*
X025809Y015376D01*
X025643Y015210D01*
X025426Y015120D01*
X025192Y015120D01*
X024975Y015210D01*
X024809Y015376D01*
X024643Y015210D01*
X024426Y015120D01*
X024192Y015120D01*
X023975Y015210D01*
X023809Y015376D01*
X023643Y015210D01*
X023426Y015120D01*
X023192Y015120D01*
X022975Y015210D01*
X022809Y015376D01*
X022643Y015210D01*
X022426Y015120D01*
X022192Y015120D01*
X021975Y015210D01*
X021809Y015376D01*
X021719Y015286D01*
X021719Y015015D01*
X021729Y015005D01*
X029765Y015005D01*
X029916Y014943D01*
X030166Y014693D01*
X030281Y014578D01*
X030344Y014427D01*
X030344Y012139D01*
X030281Y011988D01*
X029916Y011623D01*
X029765Y011560D01*
X028937Y011560D01*
X029019Y011362D01*
X029019Y011079D01*
X028911Y010818D01*
X028719Y010626D01*
X028719Y010014D01*
X028656Y009863D01*
X028541Y009748D01*
X028041Y009248D01*
X027890Y009185D01*
X025153Y009185D01*
X025063Y009095D01*
X025161Y008998D01*
X025269Y008737D01*
X025269Y008454D01*
X025161Y008193D01*
X025063Y008095D01*
X025161Y007998D01*
X025269Y007737D01*
X025269Y007454D01*
X025161Y007193D01*
X025063Y007095D01*
X025161Y006998D01*
X025269Y006737D01*
X025269Y006454D01*
X025161Y006193D01*
X024961Y005994D01*
X024955Y005991D01*
X024986Y005960D01*
X031379Y005960D01*
X031379Y005971D02*
X031379Y005720D01*
X031475Y005489D01*
X031652Y005311D01*
X031770Y005262D01*
X031757Y005256D01*
X031696Y005212D01*
X031643Y005158D01*
X031598Y005097D01*
X031564Y005030D01*
X031541Y004958D01*
X031529Y004883D01*
X031529Y004865D01*
X032289Y004865D01*
X032289Y004825D01*
X032329Y004825D01*
X032329Y004365D01*
X032647Y004365D01*
X032721Y004377D01*
X032793Y004401D01*
X032860Y004435D01*
X032922Y004479D01*
X032975Y004533D01*
X033019Y004594D01*
X033054Y004661D01*
X033077Y004733D01*
X033089Y004808D01*
X033089Y004825D01*
X032329Y004825D01*
X032329Y004865D01*
X033089Y004865D01*
X033089Y004883D01*
X033077Y004958D01*
X033054Y005030D01*
X033019Y005097D01*
X032975Y005158D01*
X032922Y005212D01*
X032860Y005256D01*
X032848Y005262D01*
X032966Y005311D01*
X033143Y005489D01*
X033239Y005720D01*
X033239Y005971D01*
X033143Y006202D01*
X033000Y006345D01*
X033143Y006489D01*
X033239Y006720D01*
X033239Y006971D01*
X033143Y007202D01*
X032966Y007380D01*
X032734Y007475D01*
X031884Y007475D01*
X031652Y007380D01*
X031475Y007202D01*
X031379Y006971D01*
X031379Y006720D01*
X031475Y006489D01*
X031618Y006345D01*
X031475Y006202D01*
X031379Y005971D01*
X031440Y006118D02*
X025086Y006118D01*
X024986Y005960D02*
X025038Y005889D01*
X025078Y005810D01*
X025105Y005727D01*
X025119Y005640D01*
X025119Y005595D01*
X024559Y005595D01*
X024559Y005035D01*
X024603Y005035D01*
X024690Y005049D01*
X024774Y005076D01*
X024852Y005117D01*
X024924Y005168D01*
X024986Y005231D01*
X025038Y005302D01*
X025078Y005381D01*
X025105Y005464D01*
X025119Y005551D01*
X025119Y005595D01*
X024559Y005595D01*
X024559Y005595D01*
X024559Y005035D01*
X024515Y005035D01*
X024428Y005049D01*
X024344Y005076D01*
X024265Y005117D01*
X024194Y005168D01*
X024132Y005231D01*
X024080Y005302D01*
X024040Y005381D01*
X024013Y005464D01*
X023999Y005551D01*
X023999Y005595D01*
X024559Y005595D01*
X024559Y005595D01*
X024559Y005595D01*
X023999Y005595D01*
X023999Y005640D01*
X024013Y005727D01*
X024040Y005810D01*
X024080Y005889D01*
X024132Y005960D01*
X024163Y005991D01*
X024157Y005994D01*
X023957Y006193D01*
X023849Y006454D01*
X023849Y006737D01*
X023957Y006998D01*
X024055Y007095D01*
X023957Y007193D01*
X023849Y007454D01*
X023849Y007726D01*
X021844Y009731D01*
X021844Y009065D01*
X022036Y008873D01*
X022144Y008612D01*
X022144Y008329D01*
X022036Y008068D01*
X021938Y007970D01*
X022036Y007873D01*
X022144Y007612D01*
X022144Y007329D01*
X022036Y007068D01*
X021938Y006970D01*
X022036Y006873D01*
X022144Y006612D01*
X022144Y006329D01*
X022036Y006068D01*
X021836Y005869D01*
X021575Y005760D01*
X021293Y005760D01*
X021032Y005869D01*
X020840Y006060D01*
X020602Y006060D01*
X020452Y006123D01*
X020389Y006185D01*
X017922Y006185D01*
X017719Y005982D01*
X017453Y005872D01*
X017165Y005872D01*
X016899Y005982D01*
X016695Y006186D01*
X016585Y006452D01*
X016585Y006739D01*
X016695Y007005D01*
X016785Y007095D01*
X016695Y007186D01*
X016585Y007452D01*
X016585Y007739D01*
X016695Y008005D01*
X016891Y008202D01*
X016871Y008222D01*
X016818Y008295D01*
X016777Y008375D01*
X016749Y008461D01*
X016741Y008515D01*
X017229Y008515D01*
X017229Y008675D01*
X016741Y008675D01*
X016749Y008730D01*
X016777Y008816D01*
X016818Y008896D01*
X016871Y008969D01*
X016891Y008989D01*
X016695Y009186D01*
X016689Y009201D01*
X016577Y009248D01*
X016327Y009498D01*
X016211Y009613D01*
X016149Y009764D01*
X015469Y009764D01*
X015469Y009922D02*
X016149Y009922D01*
X016149Y009764D02*
X016149Y011177D01*
X016211Y011328D01*
X016586Y011703D01*
X016702Y011818D01*
X016852Y011880D01*
X017194Y011880D01*
X017139Y011935D01*
X015598Y011935D01*
X015661Y011873D01*
X015769Y011612D01*
X015769Y011329D01*
X015661Y011068D01*
X015469Y010876D01*
X015469Y004890D01*
X015854Y004505D01*
X030390Y004505D01*
X030541Y004443D01*
X030656Y004328D01*
X030656Y004328D01*
X030906Y004078D01*
X030969Y003927D01*
X030969Y003725D01*
X030984Y003725D01*
X031216Y003630D01*
X031393Y003452D01*
X031489Y003221D01*
X031489Y002970D01*
X031393Y002739D01*
X031250Y002595D01*
X031393Y002452D01*
X031489Y002221D01*
X031489Y001970D01*
X031393Y001739D01*
X031216Y001561D01*
X031098Y001512D01*
X031110Y001506D01*
X031172Y001462D01*
X031225Y001408D01*
X031269Y001347D01*
X031304Y001280D01*
X031327Y001208D01*
X031339Y001133D01*
X031339Y001115D01*
X030579Y001115D01*
X030579Y001075D01*
X030579Y000615D01*
X030897Y000615D01*
X030971Y000627D01*
X031043Y000651D01*
X031110Y000685D01*
X031172Y000729D01*
X031225Y000783D01*
X031269Y000844D01*
X031304Y000911D01*
X031327Y000983D01*
X031339Y001058D01*
X031339Y001075D01*
X030579Y001075D01*
X030539Y001075D01*
X030539Y000615D01*
X030221Y000615D01*
X030146Y000627D01*
X030075Y000651D01*
X030007Y000685D01*
X029946Y000729D01*
X029893Y000783D01*
X029848Y000844D01*
X029814Y000911D01*
X029809Y000927D01*
X029804Y000911D01*
X029769Y000844D01*
X029725Y000783D01*
X029672Y000729D01*
X029610Y000685D01*
X029543Y000651D01*
X029471Y000627D01*
X029397Y000615D01*
X029079Y000615D01*
X029079Y001075D01*
X029039Y001075D01*
X029039Y000615D01*
X028721Y000615D01*
X028646Y000627D01*
X028575Y000651D01*
X028507Y000685D01*
X028446Y000729D01*
X028393Y000783D01*
X028348Y000844D01*
X028314Y000911D01*
X028291Y000983D01*
X028279Y001058D01*
X028279Y001075D01*
X029039Y001075D01*
X029039Y001115D01*
X028279Y001115D01*
X028279Y001133D01*
X028291Y001208D01*
X028314Y001280D01*
X028348Y001347D01*
X028393Y001408D01*
X028446Y001462D01*
X028479Y001485D01*
X027639Y001485D01*
X027672Y001462D01*
X027725Y001408D01*
X027769Y001347D01*
X027804Y001280D01*
X027827Y001208D01*
X027839Y001133D01*
X027839Y001115D01*
X027079Y001115D01*
X027079Y001075D01*
X027079Y000615D01*
X027397Y000615D01*
X027471Y000627D01*
X027543Y000651D01*
X027610Y000685D01*
X027672Y000729D01*
X027725Y000783D01*
X027769Y000844D01*
X027804Y000911D01*
X027827Y000983D01*
X027839Y001058D01*
X027839Y001075D01*
X027079Y001075D01*
X027039Y001075D01*
X027039Y000615D01*
X026721Y000615D01*
X026646Y000627D01*
X026575Y000651D01*
X026507Y000685D01*
X026446Y000729D01*
X026393Y000783D01*
X026348Y000844D01*
X026314Y000911D01*
X026309Y000927D01*
X026304Y000911D01*
X026269Y000844D01*
X026225Y000783D01*
X026172Y000729D01*
X026110Y000685D01*
X026043Y000651D01*
X025971Y000627D01*
X025897Y000615D01*
X025579Y000615D01*
X025579Y001075D01*
X025539Y001075D01*
X025539Y000615D01*
X025221Y000615D01*
X025146Y000627D01*
X025075Y000651D01*
X025007Y000685D01*
X024946Y000729D01*
X024893Y000783D01*
X024848Y000844D01*
X024814Y000911D01*
X024791Y000983D01*
X024779Y001058D01*
X024779Y001075D01*
X025539Y001075D01*
X025539Y001115D01*
X024779Y001115D01*
X024779Y001133D01*
X024791Y001208D01*
X024814Y001280D01*
X024848Y001347D01*
X024893Y001408D01*
X024946Y001462D01*
X024979Y001485D01*
X023889Y001485D01*
X023922Y001462D01*
X023975Y001408D01*
X024019Y001347D01*
X024054Y001280D01*
X024077Y001208D01*
X024089Y001133D01*
X024089Y001115D01*
X023329Y001115D01*
X023329Y001075D01*
X023329Y000615D01*
X023647Y000615D01*
X023721Y000627D01*
X023793Y000651D01*
X023860Y000685D01*
X023922Y000729D01*
X023975Y000783D01*
X024019Y000844D01*
X024054Y000911D01*
X024077Y000983D01*
X024089Y001058D01*
X024089Y001075D01*
X023329Y001075D01*
X023289Y001075D01*
X023289Y000615D01*
X022971Y000615D01*
X022896Y000627D01*
X022825Y000651D01*
X022757Y000685D01*
X022696Y000729D01*
X022643Y000783D01*
X022598Y000844D01*
X022564Y000911D01*
X022559Y000927D01*
X022554Y000911D01*
X022519Y000844D01*
X022475Y000783D01*
X022422Y000729D01*
X022360Y000685D01*
X022293Y000651D01*
X022221Y000627D01*
X022147Y000615D01*
X021829Y000615D01*
X021829Y001075D01*
X021789Y001075D01*
X021789Y000615D01*
X021471Y000615D01*
X021396Y000627D01*
X021325Y000651D01*
X021257Y000685D01*
X021196Y000729D01*
X021143Y000783D01*
X021098Y000844D01*
X021064Y000911D01*
X021041Y000983D01*
X021029Y001058D01*
X021029Y001075D01*
X021789Y001075D01*
X021789Y001115D01*
X021029Y001115D01*
X021029Y001133D01*
X021041Y001208D01*
X021064Y001280D01*
X021098Y001347D01*
X021143Y001408D01*
X021196Y001462D01*
X021229Y001485D01*
X017264Y001485D01*
X017297Y001462D01*
X017350Y001408D01*
X017394Y001347D01*
X017429Y001280D01*
X017452Y001208D01*
X017464Y001133D01*
X017464Y001115D01*
X016704Y001115D01*
X016704Y001075D01*
X016704Y000615D01*
X017022Y000615D01*
X017096Y000627D01*
X017168Y000651D01*
X017235Y000685D01*
X017297Y000729D01*
X017350Y000783D01*
X017394Y000844D01*
X017429Y000911D01*
X017452Y000983D01*
X017464Y001058D01*
X017464Y001075D01*
X016704Y001075D01*
X016664Y001075D01*
X016664Y000615D01*
X016346Y000615D01*
X016271Y000627D01*
X016200Y000651D01*
X016132Y000685D01*
X016071Y000729D01*
X016018Y000783D01*
X015973Y000844D01*
X015939Y000911D01*
X015934Y000927D01*
X015929Y000911D01*
X015894Y000844D01*
X015850Y000783D01*
X015797Y000729D01*
X015735Y000685D01*
X015668Y000651D01*
X015596Y000627D01*
X015522Y000615D01*
X015204Y000615D01*
X015204Y001075D01*
X015164Y001075D01*
X015164Y000615D01*
X014846Y000615D01*
X014771Y000627D01*
X014700Y000651D01*
X014632Y000685D01*
X014571Y000729D01*
X014518Y000783D01*
X014473Y000844D01*
X014439Y000911D01*
X014416Y000983D01*
X014404Y001058D01*
X014404Y001075D01*
X015164Y001075D01*
X015164Y001115D01*
X014404Y001115D01*
X014404Y001133D01*
X014416Y001208D01*
X014439Y001280D01*
X014473Y001347D01*
X014518Y001408D01*
X014571Y001462D01*
X014604Y001485D01*
X013764Y001485D01*
X013797Y001462D01*
X013850Y001408D01*
X013894Y001347D01*
X013929Y001280D01*
X013952Y001208D01*
X013964Y001133D01*
X013964Y001115D01*
X013204Y001115D01*
X013204Y001075D01*
X013204Y000615D01*
X013522Y000615D01*
X013596Y000627D01*
X013668Y000651D01*
X013735Y000685D01*
X013797Y000729D01*
X013850Y000783D01*
X013894Y000844D01*
X013929Y000911D01*
X013952Y000983D01*
X013964Y001058D01*
X013964Y001075D01*
X013204Y001075D01*
X013164Y001075D01*
X013164Y000615D01*
X012846Y000615D01*
X012771Y000627D01*
X012700Y000651D01*
X012632Y000685D01*
X012571Y000729D01*
X012518Y000783D01*
X012473Y000844D01*
X012439Y000911D01*
X012434Y000927D01*
X012429Y000911D01*
X012394Y000844D01*
X012350Y000783D01*
X012297Y000729D01*
X012235Y000685D01*
X012168Y000651D01*
X012096Y000627D01*
X012022Y000615D01*
X011704Y000615D01*
X011704Y001075D01*
X011664Y001075D01*
X011664Y000615D01*
X011346Y000615D01*
X011271Y000627D01*
X011200Y000651D01*
X011132Y000685D01*
X011071Y000729D01*
X011018Y000783D01*
X010973Y000844D01*
X010939Y000911D01*
X010916Y000983D01*
X010904Y001058D01*
X010904Y001075D01*
X011664Y001075D01*
X011664Y001115D01*
X010904Y001115D01*
X010904Y001133D01*
X010916Y001208D01*
X010939Y001280D01*
X010973Y001347D01*
X011018Y001408D01*
X011071Y001462D01*
X011104Y001485D01*
X010264Y001485D01*
X010297Y001462D01*
X010350Y001408D01*
X010394Y001347D01*
X010429Y001280D01*
X010452Y001208D01*
X010464Y001133D01*
X010464Y001115D01*
X009704Y001115D01*
X009704Y001075D01*
X009704Y000615D01*
X010022Y000615D01*
X010096Y000627D01*
X010168Y000651D01*
X010235Y000685D01*
X010297Y000729D01*
X010350Y000783D01*
X010394Y000844D01*
X010429Y000911D01*
X010452Y000983D01*
X010464Y001058D01*
X010464Y001075D01*
X009704Y001075D01*
X009664Y001075D01*
X009664Y000615D01*
X009346Y000615D01*
X009271Y000627D01*
X009200Y000651D01*
X009132Y000685D01*
X009071Y000729D01*
X009018Y000783D01*
X008973Y000844D01*
X008939Y000911D01*
X008934Y000927D01*
X008929Y000911D01*
X008894Y000844D01*
X008850Y000783D01*
X008797Y000729D01*
X008735Y000685D01*
X008668Y000651D01*
X008596Y000627D01*
X008522Y000615D01*
X008204Y000615D01*
X008204Y001075D01*
X008164Y001075D01*
X008164Y000615D01*
X007846Y000615D01*
X007771Y000627D01*
X007700Y000651D01*
X007632Y000685D01*
X007571Y000729D01*
X007518Y000783D01*
X007473Y000844D01*
X007439Y000911D01*
X007416Y000983D01*
X007404Y001058D01*
X007404Y001075D01*
X008164Y001075D01*
X008164Y001115D01*
X007404Y001115D01*
X007404Y001133D01*
X007416Y001208D01*
X007439Y001280D01*
X007473Y001347D01*
X007518Y001408D01*
X007571Y001462D01*
X007632Y001506D01*
X007645Y001512D01*
X007527Y001561D01*
X007350Y001739D01*
X007254Y001970D01*
X007254Y002221D01*
X007350Y002452D01*
X007493Y002595D01*
X007350Y002739D01*
X007254Y002970D01*
X007254Y003221D01*
X007350Y003452D01*
X007527Y003630D01*
X007759Y003725D01*
X008609Y003725D01*
X008841Y003630D01*
X008934Y003536D01*
X009027Y003630D01*
X009259Y003725D01*
X010074Y003725D01*
X010074Y007717D01*
X010167Y007941D01*
X010338Y008113D01*
X011074Y008848D01*
X011074Y009391D01*
X011050Y009358D01*
X010997Y009304D01*
X010935Y009260D01*
X010868Y009226D01*
X010796Y009202D01*
X010722Y009190D01*
X010704Y009190D01*
X010704Y009950D01*
X010664Y009950D01*
X010664Y009190D01*
X010646Y009190D01*
X010571Y009202D01*
X010500Y009226D01*
X010432Y009260D01*
X010371Y009304D01*
X010318Y009358D01*
X010273Y009419D01*
X010239Y009486D01*
X010216Y009558D01*
X010204Y009633D01*
X010204Y009950D01*
X010664Y009950D01*
X010664Y009990D01*
X010204Y009990D01*
X010204Y010308D01*
X010216Y010383D01*
X010239Y010455D01*
X010273Y010522D01*
X010318Y010583D01*
X010371Y010637D01*
X010432Y010681D01*
X010500Y010715D01*
X010516Y010720D01*
X010500Y010726D01*
X010432Y010760D01*
X010371Y010804D01*
X010318Y010858D01*
X010273Y010919D01*
X010239Y010986D01*
X010216Y011058D01*
X010204Y011133D01*
X010204Y011450D01*
X010664Y011450D01*
X010704Y011450D01*
X010704Y009990D01*
X010664Y009990D01*
X010664Y010750D01*
X010664Y011450D01*
X010664Y011490D01*
X010204Y011490D01*
X010204Y011661D01*
X010041Y011498D01*
X009890Y011435D01*
X006854Y011435D01*
X006519Y011101D01*
X006519Y010829D01*
X006411Y010568D01*
X006211Y010369D01*
X005950Y010260D01*
X005668Y010260D01*
X005407Y010369D01*
X005207Y010568D01*
X005099Y010829D01*
X005099Y011112D01*
X005207Y011373D01*
X005407Y011572D01*
X005668Y011680D01*
X005939Y011680D01*
X006069Y011810D01*
X005479Y011810D01*
X003594Y009926D01*
X003594Y004940D01*
X003786Y004748D01*
X003894Y004487D01*
X003894Y004204D01*
X003786Y003943D01*
X003586Y003744D01*
X003325Y003635D01*
X003043Y003635D01*
X002782Y003744D01*
X002582Y003943D01*
X002474Y004204D01*
X002474Y004487D01*
X002582Y004748D01*
X002774Y004940D01*
X002774Y010177D01*
X002836Y010328D01*
X002952Y010443D01*
X005077Y012568D01*
X005227Y012630D01*
X009389Y012630D01*
X009827Y013068D01*
X009977Y013130D01*
X018078Y013130D01*
X018229Y013068D01*
X018241Y013055D01*
X018513Y013055D01*
X018774Y012947D01*
X018973Y012748D01*
X019081Y012487D01*
X019081Y012430D01*
X019138Y012430D01*
X019399Y012322D01*
X019598Y012123D01*
X019704Y011866D01*
X019707Y011873D01*
X019907Y012072D01*
X020168Y012180D01*
X020450Y012180D01*
X020711Y012072D01*
X020911Y011873D01*
X021019Y011612D01*
X021019Y011329D01*
X020911Y011068D01*
X020848Y011005D01*
X021265Y011005D01*
X021274Y011002D01*
X021274Y011801D01*
X019389Y013685D01*
X017602Y013685D01*
X017452Y013748D01*
X015014Y016185D01*
X013939Y016185D01*
X013939Y015835D01*
X013570Y015465D01*
X013048Y015465D01*
X012703Y015811D01*
X012508Y015615D01*
X012329Y015615D01*
X012329Y016075D01*
X012289Y016075D01*
X012289Y015615D01*
X012110Y015615D01*
X011915Y015811D01*
X011570Y015465D01*
X011509Y015465D01*
X011041Y014998D01*
X010890Y014935D01*
X008977Y014935D01*
X008827Y014998D01*
X008711Y015113D01*
X008711Y015113D01*
X008469Y015356D01*
X008469Y015015D01*
X008679Y014805D01*
X008950Y014805D01*
X009211Y014697D01*
X009411Y014498D01*
X009479Y014333D01*
X009518Y014373D01*
X009656Y014511D01*
X009836Y014585D01*
X013106Y014585D01*
X013599Y015078D01*
X013599Y015237D01*
X013707Y015498D01*
X013907Y015697D01*
X014168Y015805D01*
X014450Y015805D01*
X014711Y015697D01*
X014911Y015498D01*
X015019Y015237D01*
X015019Y014954D01*
X014911Y014693D01*
X014711Y014494D01*
X014450Y014385D01*
X014292Y014385D01*
X013586Y013680D01*
X013406Y013605D01*
X010137Y013605D01*
X009461Y012930D01*
X009281Y012855D01*
X006086Y012855D01*
X005906Y012930D01*
X005768Y013068D01*
X005393Y013443D01*
X005319Y013623D01*
X005319Y015581D01*
X005207Y015693D01*
X005099Y015954D01*
X005099Y016237D01*
X005207Y016498D01*
X005407Y016697D01*
X005668Y016805D01*
X005950Y016805D01*
X006211Y016697D01*
X006411Y016498D01*
X006519Y016237D01*
X006519Y015954D01*
X006411Y015693D01*
X006299Y015581D01*
X006299Y013923D01*
X006387Y013835D01*
X007148Y013835D01*
X007099Y013954D01*
X007099Y014237D01*
X007149Y014357D01*
X007149Y018426D01*
X007139Y018435D01*
X005727Y018435D01*
X005577Y018498D01*
X005461Y018613D01*
X004555Y019519D01*
X004434Y019469D01*
X004184Y019469D01*
X003954Y019564D01*
X003809Y019709D01*
X003664Y019564D01*
X003434Y019469D01*
X003184Y019469D01*
X002954Y019564D01*
X002809Y019709D01*
X002664Y019564D01*
X002434Y019469D01*
X002219Y019469D01*
X002219Y019015D01*
X002472Y018762D01*
X002657Y018947D01*
X002918Y019055D01*
X003200Y019055D01*
X003461Y018947D01*
X003661Y018748D01*
X003769Y018487D01*
X003769Y018204D01*
X003661Y017943D01*
X003461Y017744D01*
X003200Y017635D01*
X002918Y017635D01*
X002657Y017744D01*
X002465Y017935D01*
X002227Y017935D01*
X002077Y017998D01*
X001961Y018113D01*
X001461Y018613D01*
X001399Y018764D01*
X001399Y019469D01*
X000946Y019469D01*
X000825Y019519D01*
X000809Y019535D01*
X000809Y019433D02*
X001399Y019433D01*
X001399Y019274D02*
X000809Y019274D01*
X000809Y019116D02*
X001399Y019116D01*
X001399Y018957D02*
X000809Y018957D01*
X000809Y018799D02*
X001399Y018799D01*
X001450Y018640D02*
X000809Y018640D01*
X000809Y018482D02*
X001593Y018482D01*
X001752Y018323D02*
X000809Y018323D01*
X000809Y018165D02*
X001910Y018165D01*
X002069Y018006D02*
X000809Y018006D01*
X000809Y017848D02*
X002553Y017848D01*
X002788Y017689D02*
X000809Y017689D01*
X000809Y017530D02*
X007149Y017530D01*
X007149Y017372D02*
X000809Y017372D01*
X000809Y017213D02*
X007149Y017213D01*
X007149Y017055D02*
X000809Y017055D01*
X000809Y016896D02*
X007149Y016896D01*
X007149Y016738D02*
X006113Y016738D01*
X006329Y016579D02*
X007149Y016579D01*
X007149Y016421D02*
X006443Y016421D01*
X006508Y016262D02*
X007149Y016262D01*
X007149Y016104D02*
X006519Y016104D01*
X006515Y015945D02*
X007149Y015945D01*
X007149Y015787D02*
X006450Y015787D01*
X006346Y015628D02*
X007149Y015628D01*
X007149Y015470D02*
X006299Y015470D01*
X006299Y015311D02*
X007149Y015311D01*
X007149Y015153D02*
X006299Y015153D01*
X006299Y014994D02*
X007149Y014994D01*
X007149Y014836D02*
X006299Y014836D01*
X006299Y014677D02*
X007149Y014677D01*
X007149Y014519D02*
X006299Y014519D01*
X006299Y014360D02*
X007149Y014360D01*
X007099Y014202D02*
X006299Y014202D01*
X006299Y014043D02*
X007099Y014043D01*
X007128Y013885D02*
X006337Y013885D01*
X005585Y013251D02*
X000809Y013251D01*
X000809Y013409D02*
X005427Y013409D01*
X005342Y013568D02*
X000809Y013568D01*
X000809Y013726D02*
X005319Y013726D01*
X005319Y013885D02*
X000809Y013885D01*
X000809Y014043D02*
X005319Y014043D01*
X005319Y014202D02*
X000809Y014202D01*
X000809Y014360D02*
X005319Y014360D01*
X005319Y014519D02*
X000809Y014519D01*
X000809Y014677D02*
X005319Y014677D01*
X005319Y014836D02*
X000809Y014836D01*
X000809Y014994D02*
X005319Y014994D01*
X005319Y015153D02*
X000809Y015153D01*
X000809Y015311D02*
X005319Y015311D01*
X005319Y015470D02*
X000809Y015470D01*
X000809Y015628D02*
X005272Y015628D01*
X005168Y015787D02*
X000809Y015787D01*
X000809Y015945D02*
X005102Y015945D01*
X005099Y016104D02*
X000809Y016104D01*
X000809Y016262D02*
X005110Y016262D01*
X005175Y016421D02*
X000809Y016421D01*
X000809Y016579D02*
X005289Y016579D01*
X005505Y016738D02*
X000809Y016738D01*
X002309Y018345D02*
X003059Y018345D01*
X003705Y018640D02*
X005435Y018640D01*
X005276Y018799D02*
X003610Y018799D01*
X003438Y018957D02*
X005118Y018957D01*
X004959Y019116D02*
X002219Y019116D01*
X002219Y019274D02*
X004801Y019274D01*
X004642Y019433D02*
X002219Y019433D01*
X002691Y019591D02*
X002927Y019591D01*
X003691Y019591D02*
X003927Y019591D01*
X004809Y019845D02*
X005809Y018845D01*
X007309Y018845D01*
X007559Y018595D01*
X007559Y014345D01*
X007809Y014095D01*
X008059Y014845D02*
X008809Y014095D01*
X009468Y014360D02*
X009506Y014360D01*
X009389Y014519D02*
X009676Y014519D01*
X009231Y014677D02*
X013198Y014677D01*
X013356Y014836D02*
X008648Y014836D01*
X008490Y014994D02*
X008835Y014994D01*
X008672Y015153D02*
X008469Y015153D01*
X008469Y015311D02*
X008513Y015311D01*
X008559Y015845D02*
X009059Y015345D01*
X010809Y015345D01*
X011309Y015845D01*
X011309Y016095D01*
X011733Y015628D02*
X012097Y015628D01*
X012289Y015628D02*
X012329Y015628D01*
X012329Y015787D02*
X012289Y015787D01*
X012289Y015945D02*
X012329Y015945D01*
X012521Y015628D02*
X012885Y015628D01*
X013043Y015470D02*
X011574Y015470D01*
X011355Y015311D02*
X013630Y015311D01*
X013599Y015153D02*
X011196Y015153D01*
X011033Y014994D02*
X013515Y014994D01*
X013574Y015470D02*
X013696Y015470D01*
X013733Y015628D02*
X013838Y015628D01*
X013891Y015787D02*
X014123Y015787D01*
X013939Y015945D02*
X015254Y015945D01*
X015413Y015787D02*
X014495Y015787D01*
X014780Y015628D02*
X015571Y015628D01*
X015730Y015470D02*
X014922Y015470D01*
X014988Y015311D02*
X015888Y015311D01*
X016047Y015153D02*
X015019Y015153D01*
X015019Y014994D02*
X016205Y014994D01*
X016364Y014836D02*
X014970Y014836D01*
X014895Y014677D02*
X016522Y014677D01*
X016681Y014519D02*
X014736Y014519D01*
X014267Y014360D02*
X016839Y014360D01*
X016998Y014202D02*
X014108Y014202D01*
X013950Y014043D02*
X017156Y014043D01*
X017315Y013885D02*
X013791Y013885D01*
X013633Y013726D02*
X017503Y013726D01*
X017684Y014095D02*
X015184Y016595D01*
X011809Y016595D01*
X011309Y017095D01*
X011765Y017530D02*
X011853Y017530D01*
X011809Y017486D02*
X011570Y017725D01*
X011048Y017725D01*
X010809Y017486D01*
X010719Y017576D01*
X010719Y018927D01*
X010656Y019078D01*
X010541Y019193D01*
X010266Y019469D01*
X010434Y019469D01*
X010664Y019564D01*
X010809Y019709D01*
X010954Y019564D01*
X011184Y019469D01*
X011434Y019469D01*
X011664Y019564D01*
X011809Y019709D01*
X011954Y019564D01*
X012184Y019469D01*
X012434Y019469D01*
X012664Y019564D01*
X012809Y019709D01*
X012954Y019564D01*
X013184Y019469D01*
X013434Y019469D01*
X013664Y019564D01*
X013840Y019740D01*
X013936Y019971D01*
X013936Y020185D01*
X015639Y020185D01*
X015649Y020176D01*
X015649Y017710D01*
X015019Y018340D01*
X015019Y018612D01*
X014911Y018873D01*
X014711Y019072D01*
X014450Y019180D01*
X014168Y019180D01*
X013907Y019072D01*
X013707Y018873D01*
X013599Y018612D01*
X013599Y018329D01*
X013629Y018255D01*
X012602Y018255D01*
X012452Y018193D01*
X012077Y017818D01*
X011961Y017703D01*
X011916Y017594D01*
X011809Y017486D01*
X011956Y017689D02*
X011606Y017689D01*
X012106Y017848D02*
X010719Y017848D01*
X010719Y018006D02*
X012265Y018006D01*
X012423Y018165D02*
X010719Y018165D01*
X010719Y018323D02*
X013601Y018323D01*
X013599Y018482D02*
X010719Y018482D01*
X010719Y018640D02*
X013611Y018640D01*
X013676Y018799D02*
X010719Y018799D01*
X010706Y018957D02*
X013791Y018957D01*
X014011Y019116D02*
X010619Y019116D01*
X010460Y019274D02*
X015649Y019274D01*
X015649Y019116D02*
X014607Y019116D01*
X014826Y018957D02*
X015649Y018957D01*
X015649Y018799D02*
X014941Y018799D01*
X015007Y018640D02*
X015649Y018640D01*
X015649Y018482D02*
X015019Y018482D01*
X015036Y018323D02*
X015649Y018323D01*
X015649Y018165D02*
X015195Y018165D01*
X015353Y018006D02*
X015649Y018006D01*
X015649Y017848D02*
X015512Y017848D01*
X016059Y017220D02*
X018059Y015220D01*
X019934Y015220D01*
X021809Y013345D01*
X024309Y013345D01*
X024559Y013095D01*
X024559Y011345D01*
X024184Y010595D02*
X025684Y010595D01*
X025934Y010845D01*
X025934Y011720D01*
X026184Y011970D01*
X029684Y011970D01*
X029934Y012220D01*
X029934Y014345D01*
X029684Y014595D01*
X021559Y014595D01*
X021309Y014845D01*
X021309Y015970D01*
X018934Y015970D01*
X018309Y016595D01*
X018309Y017845D01*
X019309Y017845D02*
X019309Y018595D01*
X019809Y019095D01*
X020809Y019095D01*
X021309Y018595D01*
X021809Y019095D01*
X022809Y019095D01*
X023309Y018595D01*
X023809Y019095D01*
X025059Y019095D01*
X025559Y018595D01*
X026059Y019095D01*
X027059Y019095D01*
X027559Y018595D01*
X028059Y019095D01*
X029059Y019095D01*
X029559Y018595D01*
X030059Y019095D01*
X031059Y019095D01*
X031559Y018595D01*
X031559Y017845D01*
X032559Y017845D02*
X032559Y017095D01*
X032184Y016720D01*
X028684Y016720D01*
X028309Y016345D01*
X028309Y015970D01*
X028848Y015470D02*
X028940Y015470D01*
X029123Y015311D02*
X028744Y015311D01*
X028505Y015153D02*
X031568Y015153D01*
X031564Y015161D02*
X031598Y015094D01*
X031643Y015033D01*
X031696Y014979D01*
X031757Y014935D01*
X031770Y014928D01*
X031652Y014880D01*
X031475Y014702D01*
X031379Y014471D01*
X031379Y014220D01*
X031475Y013989D01*
X031618Y013845D01*
X031475Y013702D01*
X031379Y013471D01*
X031379Y013220D01*
X031475Y012989D01*
X031618Y012845D01*
X031475Y012702D01*
X031379Y012471D01*
X031379Y012220D01*
X031475Y011989D01*
X031652Y011811D01*
X031884Y011715D01*
X032734Y011715D01*
X032966Y011811D01*
X033143Y011989D01*
X033239Y012220D01*
X033239Y012471D01*
X033143Y012702D01*
X033000Y012845D01*
X033143Y012989D01*
X033239Y013220D01*
X033239Y013471D01*
X033143Y013702D01*
X033000Y013845D01*
X033143Y013989D01*
X033239Y014220D01*
X033239Y014471D01*
X033143Y014702D01*
X032966Y014880D01*
X032848Y014928D01*
X032860Y014935D01*
X032922Y014979D01*
X032975Y015033D01*
X033019Y015094D01*
X033054Y015161D01*
X033077Y015233D01*
X033089Y015308D01*
X033089Y015325D01*
X032329Y015325D01*
X032329Y015365D01*
X033089Y015365D01*
X033089Y015383D01*
X033077Y015458D01*
X033054Y015530D01*
X033019Y015597D01*
X032975Y015658D01*
X032922Y015712D01*
X032860Y015756D01*
X032793Y015790D01*
X032721Y015814D01*
X032647Y015825D01*
X032329Y015825D01*
X032329Y015365D01*
X032289Y015365D01*
X032289Y015325D01*
X031529Y015325D01*
X031529Y015308D01*
X031541Y015233D01*
X031564Y015161D01*
X031529Y015311D02*
X029495Y015311D01*
X029309Y015311D02*
X029309Y015311D01*
X029309Y015470D02*
X029309Y015470D01*
X029309Y015628D02*
X029309Y015628D01*
X029309Y015787D02*
X029309Y015787D01*
X029309Y015945D02*
X029309Y015945D01*
X029309Y015970D02*
X029309Y015970D01*
X029749Y015945D02*
X033559Y015945D01*
X033559Y015787D02*
X032800Y015787D01*
X032997Y015628D02*
X033559Y015628D01*
X033559Y015470D02*
X033073Y015470D01*
X033089Y015311D02*
X033559Y015311D01*
X033559Y015153D02*
X033050Y015153D01*
X032937Y014994D02*
X033559Y014994D01*
X033559Y014836D02*
X033009Y014836D01*
X033153Y014677D02*
X033559Y014677D01*
X033559Y014519D02*
X033219Y014519D01*
X033239Y014360D02*
X033559Y014360D01*
X033559Y014202D02*
X033231Y014202D01*
X033166Y014043D02*
X033559Y014043D01*
X033559Y013885D02*
X033039Y013885D01*
X033119Y013726D02*
X033559Y013726D01*
X033559Y013568D02*
X033199Y013568D01*
X033239Y013409D02*
X033559Y013409D01*
X033559Y013251D02*
X033239Y013251D01*
X033186Y013092D02*
X033559Y013092D01*
X033559Y012934D02*
X033088Y012934D01*
X033070Y012775D02*
X033559Y012775D01*
X033559Y012617D02*
X033178Y012617D01*
X033239Y012458D02*
X033559Y012458D01*
X033559Y012300D02*
X033239Y012300D01*
X033206Y012141D02*
X033559Y012141D01*
X033559Y011983D02*
X033137Y011983D01*
X032979Y011824D02*
X033559Y011824D01*
X033559Y011666D02*
X029959Y011666D01*
X030118Y011824D02*
X031639Y011824D01*
X031480Y011983D02*
X030276Y011983D01*
X030344Y012141D02*
X031411Y012141D01*
X031379Y012300D02*
X030344Y012300D01*
X030344Y012458D02*
X031379Y012458D01*
X031439Y012617D02*
X030344Y012617D01*
X030344Y012775D02*
X031548Y012775D01*
X031529Y012934D02*
X030344Y012934D01*
X030344Y013092D02*
X031432Y013092D01*
X031379Y013251D02*
X030344Y013251D01*
X030344Y013409D02*
X031379Y013409D01*
X031419Y013568D02*
X030344Y013568D01*
X030344Y013726D02*
X031499Y013726D01*
X031578Y013885D02*
X030344Y013885D01*
X030344Y014043D02*
X031452Y014043D01*
X031386Y014202D02*
X030344Y014202D01*
X030344Y014360D02*
X031379Y014360D01*
X031399Y014519D02*
X030306Y014519D01*
X030182Y014677D02*
X031464Y014677D01*
X031608Y014836D02*
X030023Y014836D01*
X029792Y014994D02*
X031681Y014994D01*
X031529Y015365D02*
X032289Y015365D01*
X032289Y015825D01*
X031971Y015825D01*
X031896Y015814D01*
X031825Y015790D01*
X031757Y015756D01*
X031696Y015712D01*
X031643Y015658D01*
X031598Y015597D01*
X031564Y015530D01*
X031541Y015458D01*
X031529Y015383D01*
X031529Y015365D01*
X031545Y015470D02*
X029678Y015470D01*
X029741Y015628D02*
X031621Y015628D01*
X031818Y015787D02*
X029749Y015787D01*
X029749Y016104D02*
X033559Y016104D01*
X033559Y016262D02*
X029749Y016262D01*
X028113Y015153D02*
X027505Y015153D01*
X027744Y015311D02*
X027873Y015311D01*
X027113Y015153D02*
X026505Y015153D01*
X026744Y015311D02*
X026873Y015311D01*
X026113Y015153D02*
X025505Y015153D01*
X025744Y015311D02*
X025873Y015311D01*
X025113Y015153D02*
X024505Y015153D01*
X024744Y015311D02*
X024873Y015311D01*
X024113Y015153D02*
X023505Y015153D01*
X023744Y015311D02*
X023873Y015311D01*
X023113Y015153D02*
X022505Y015153D01*
X022744Y015311D02*
X022873Y015311D01*
X022113Y015153D02*
X021719Y015153D01*
X021744Y015311D02*
X021873Y015311D01*
X022309Y015970D02*
X022309Y016595D01*
X022059Y016845D01*
X020559Y016845D01*
X020309Y017095D01*
X020309Y017845D01*
X021309Y017845D02*
X021309Y018595D01*
X021210Y019274D02*
X021408Y019274D01*
X021566Y019433D02*
X021052Y019433D01*
X019566Y019433D02*
X019052Y019433D01*
X019210Y019274D02*
X019408Y019274D01*
X018809Y019095D02*
X019309Y018595D01*
X018809Y019095D02*
X017809Y019095D01*
X017309Y018595D01*
X017309Y017845D01*
X016434Y017345D02*
X016434Y020595D01*
X015934Y021095D01*
X014559Y021095D01*
X013809Y021845D01*
X006559Y021845D01*
X006309Y021595D01*
X006309Y021095D01*
X005899Y021572D02*
X005809Y021482D01*
X005664Y021627D01*
X005434Y021722D01*
X005184Y021722D01*
X004954Y021627D01*
X004809Y021482D01*
X004664Y021627D01*
X004434Y021722D01*
X004184Y021722D01*
X003954Y021627D01*
X003777Y021451D01*
X003743Y021366D01*
X003698Y021428D01*
X003641Y021484D01*
X003576Y021532D01*
X003505Y021568D01*
X003428Y021593D01*
X003349Y021605D01*
X003327Y021605D01*
X003327Y021114D01*
X003290Y021114D01*
X003290Y021605D01*
X003269Y021605D01*
X003189Y021593D01*
X003113Y021568D01*
X003042Y021532D01*
X002977Y021484D01*
X002920Y021428D01*
X002875Y021366D01*
X002840Y021451D01*
X002664Y021627D01*
X002434Y021722D01*
X002184Y021722D01*
X001954Y021627D01*
X001832Y021505D01*
X001683Y021655D01*
X001440Y021755D01*
X001178Y021755D01*
X000935Y021655D01*
X000809Y021529D01*
X000809Y021845D01*
X005979Y021845D01*
X005961Y021828D01*
X005899Y021677D01*
X005899Y021572D01*
X005899Y021652D02*
X005605Y021652D01*
X005798Y021493D02*
X005820Y021493D01*
X005954Y021810D02*
X000809Y021810D01*
X000809Y021652D02*
X000932Y021652D01*
X001686Y021652D02*
X002013Y021652D01*
X002605Y021652D02*
X004013Y021652D01*
X003820Y021493D02*
X003629Y021493D01*
X003327Y021493D02*
X003290Y021493D01*
X003290Y021335D02*
X003327Y021335D01*
X003327Y021176D02*
X003290Y021176D01*
X002988Y021493D02*
X002798Y021493D01*
X001809Y020595D02*
X001809Y018845D01*
X002309Y018345D01*
X002436Y018799D02*
X002508Y018799D01*
X002680Y018957D02*
X002277Y018957D01*
X003565Y017848D02*
X007149Y017848D01*
X007149Y018006D02*
X003687Y018006D01*
X003752Y018165D02*
X007149Y018165D01*
X007149Y018323D02*
X003769Y018323D01*
X003769Y018482D02*
X005616Y018482D01*
X006309Y019345D02*
X007559Y019345D01*
X008059Y018845D01*
X008059Y014845D01*
X008559Y015845D02*
X008559Y019095D01*
X008309Y019345D01*
X008309Y020095D01*
X008809Y020595D02*
X008809Y019595D01*
X009809Y018595D01*
X009809Y016595D01*
X010309Y016095D01*
X010309Y017095D02*
X010309Y018845D01*
X009809Y019345D01*
X009809Y020595D01*
X009309Y021095D01*
X008809Y020595D02*
X008309Y021095D01*
X005809Y020595D02*
X005809Y019845D01*
X006309Y019345D01*
X004809Y019845D02*
X004809Y020595D01*
X004309Y021095D01*
X004798Y021493D02*
X004820Y021493D01*
X005013Y021652D02*
X004605Y021652D01*
X005309Y021095D02*
X005809Y020595D01*
X001809Y020595D02*
X001309Y021095D01*
X003329Y017689D02*
X007149Y017689D01*
X010302Y019433D02*
X015649Y019433D01*
X015649Y019591D02*
X013691Y019591D01*
X013844Y019750D02*
X015649Y019750D01*
X015649Y019908D02*
X013910Y019908D01*
X013936Y020067D02*
X015649Y020067D01*
X016059Y020345D02*
X016059Y017220D01*
X016434Y017345D02*
X018184Y015595D01*
X020059Y015595D01*
X021934Y013720D01*
X028934Y013720D01*
X029184Y013470D01*
X029184Y012845D01*
X028958Y011507D02*
X033559Y011507D01*
X033559Y011349D02*
X029019Y011349D01*
X029019Y011190D02*
X033559Y011190D01*
X033559Y011032D02*
X028999Y011032D01*
X028934Y010873D02*
X031913Y010873D01*
X031965Y010925D02*
X031479Y010439D01*
X031479Y009752D01*
X031965Y009265D01*
X032653Y009265D01*
X033139Y009752D01*
X033139Y010439D01*
X032653Y010925D01*
X031965Y010925D01*
X031755Y010715D02*
X028807Y010715D01*
X028719Y010556D02*
X031596Y010556D01*
X031479Y010398D02*
X028719Y010398D01*
X028719Y010239D02*
X031479Y010239D01*
X031479Y010081D02*
X028719Y010081D01*
X028681Y009922D02*
X031479Y009922D01*
X031479Y009764D02*
X028557Y009764D01*
X028399Y009605D02*
X031625Y009605D01*
X031784Y009447D02*
X028240Y009447D01*
X028082Y009288D02*
X031942Y009288D01*
X032027Y009150D02*
X031629Y008752D01*
X031629Y008470D01*
X031629Y008189D01*
X032027Y007790D01*
X032309Y007790D01*
X032591Y007790D01*
X032989Y008189D01*
X032989Y008470D01*
X032309Y008470D01*
X032309Y007790D01*
X032309Y008470D01*
X032309Y008470D01*
X032309Y008470D01*
X031629Y008470D01*
X032309Y008470D01*
X032309Y008470D01*
X032989Y008470D01*
X032989Y008752D01*
X032591Y009150D01*
X032309Y009150D01*
X032309Y008470D01*
X032309Y008470D01*
X032309Y009150D01*
X032027Y009150D01*
X032007Y009130D02*
X025097Y009130D01*
X025172Y008971D02*
X031848Y008971D01*
X031690Y008813D02*
X025237Y008813D01*
X025269Y008654D02*
X031629Y008654D01*
X031629Y008496D02*
X025269Y008496D01*
X025221Y008337D02*
X031629Y008337D01*
X031639Y008179D02*
X025146Y008179D01*
X025138Y008020D02*
X031797Y008020D01*
X031956Y007862D02*
X025217Y007862D01*
X025269Y007703D02*
X033559Y007703D01*
X033559Y007545D02*
X025269Y007545D01*
X025241Y007386D02*
X031669Y007386D01*
X031500Y007228D02*
X025175Y007228D01*
X025089Y007069D02*
X031420Y007069D01*
X031379Y006911D02*
X025197Y006911D01*
X025262Y006752D02*
X031379Y006752D01*
X031431Y006594D02*
X025269Y006594D01*
X025261Y006435D02*
X031528Y006435D01*
X031549Y006277D02*
X025195Y006277D01*
X025081Y005801D02*
X031379Y005801D01*
X031411Y005643D02*
X025118Y005643D01*
X025108Y005484D02*
X031479Y005484D01*
X031637Y005326D02*
X025050Y005326D01*
X024923Y005167D02*
X031652Y005167D01*
X031557Y005009D02*
X015469Y005009D01*
X015469Y005167D02*
X024195Y005167D01*
X024068Y005326D02*
X015469Y005326D01*
X015469Y005484D02*
X024009Y005484D01*
X023999Y005643D02*
X015469Y005643D01*
X015469Y005801D02*
X021194Y005801D01*
X020940Y005960D02*
X017666Y005960D01*
X017855Y006118D02*
X020462Y006118D01*
X020684Y006470D02*
X021434Y006470D01*
X021997Y006911D02*
X023921Y006911D01*
X023855Y006752D02*
X022086Y006752D01*
X022144Y006594D02*
X023849Y006594D01*
X023857Y006435D02*
X022144Y006435D01*
X022122Y006277D02*
X023922Y006277D01*
X024032Y006118D02*
X022057Y006118D01*
X021927Y005960D02*
X024132Y005960D01*
X024037Y005801D02*
X021674Y005801D01*
X020684Y006470D02*
X020559Y006595D01*
X017309Y006595D01*
X016657Y006277D02*
X015469Y006277D01*
X015469Y006435D02*
X016592Y006435D01*
X016585Y006594D02*
X015469Y006594D01*
X015469Y006752D02*
X016591Y006752D01*
X016656Y006911D02*
X015469Y006911D01*
X015469Y007069D02*
X016759Y007069D01*
X016678Y007228D02*
X015469Y007228D01*
X015469Y007386D02*
X016612Y007386D01*
X016585Y007545D02*
X015469Y007545D01*
X015469Y007703D02*
X016585Y007703D01*
X016636Y007862D02*
X015469Y007862D01*
X015469Y008020D02*
X016710Y008020D01*
X016869Y008179D02*
X015469Y008179D01*
X015469Y008337D02*
X016796Y008337D01*
X016744Y008496D02*
X015469Y008496D01*
X015469Y008654D02*
X017229Y008654D01*
X017389Y008654D02*
X020742Y008654D01*
X020724Y008612D02*
X020724Y008329D01*
X020832Y008068D01*
X020930Y007970D01*
X020906Y007947D01*
X020765Y008005D01*
X017922Y008005D01*
X017726Y008202D01*
X017746Y008222D01*
X017800Y008295D01*
X017841Y008375D01*
X017868Y008461D01*
X017877Y008515D01*
X017389Y008515D01*
X017389Y008675D01*
X017877Y008675D01*
X017868Y008730D01*
X017841Y008816D01*
X017800Y008896D01*
X017746Y008969D01*
X017726Y008989D01*
X017922Y009186D01*
X018033Y009452D01*
X018033Y009739D01*
X017922Y010005D01*
X017832Y010095D01*
X017922Y010185D01*
X021014Y010185D01*
X021024Y010176D01*
X021024Y009065D01*
X020832Y008873D01*
X020724Y008612D01*
X020724Y008496D02*
X017874Y008496D01*
X017821Y008337D02*
X020724Y008337D01*
X020786Y008179D02*
X017749Y008179D01*
X017907Y008020D02*
X020880Y008020D01*
X020684Y007595D02*
X020809Y007470D01*
X021434Y007470D01*
X022102Y007228D02*
X023943Y007228D01*
X023877Y007386D02*
X022144Y007386D01*
X022144Y007545D02*
X023849Y007545D01*
X023849Y007703D02*
X022106Y007703D01*
X022040Y007862D02*
X023713Y007862D01*
X023554Y008020D02*
X021988Y008020D01*
X022082Y008179D02*
X023396Y008179D01*
X023237Y008337D02*
X022144Y008337D01*
X022144Y008496D02*
X023079Y008496D01*
X022920Y008654D02*
X022126Y008654D01*
X022060Y008813D02*
X022762Y008813D01*
X022603Y008971D02*
X021937Y008971D01*
X021844Y009130D02*
X022445Y009130D01*
X022286Y009288D02*
X021844Y009288D01*
X021844Y009447D02*
X022128Y009447D01*
X021969Y009605D02*
X021844Y009605D01*
X021024Y009605D02*
X018033Y009605D01*
X018031Y009447D02*
X021024Y009447D01*
X021024Y009288D02*
X017965Y009288D01*
X017867Y009130D02*
X021024Y009130D01*
X020931Y008971D02*
X017744Y008971D01*
X017841Y008813D02*
X020807Y008813D01*
X021434Y008470D02*
X021434Y010345D01*
X021184Y010595D01*
X017309Y010595D01*
X017847Y010081D02*
X021024Y010081D01*
X021024Y009922D02*
X017957Y009922D01*
X018022Y009764D02*
X021024Y009764D01*
X021684Y010470D02*
X021684Y011970D01*
X019559Y014095D01*
X017684Y014095D01*
X017809Y014470D02*
X014434Y017845D01*
X012684Y017845D01*
X012309Y017470D01*
X012309Y017095D01*
X011011Y017689D02*
X010719Y017689D01*
X010765Y017530D02*
X010853Y017530D01*
X011891Y015787D02*
X011939Y015787D01*
X012679Y015787D02*
X012726Y015787D01*
X013939Y016104D02*
X015096Y016104D01*
X014309Y018470D02*
X017934Y014845D01*
X019809Y014845D01*
X022434Y012220D01*
X022434Y010720D01*
X023559Y009595D01*
X024559Y009595D01*
X027809Y009595D01*
X028309Y010095D01*
X028309Y011220D01*
X024184Y010595D02*
X022934Y012158D01*
X022059Y012095D02*
X019684Y014470D01*
X017809Y014470D01*
X019507Y013568D02*
X010099Y013568D01*
X009941Y013409D02*
X019665Y013409D01*
X019824Y013251D02*
X009782Y013251D01*
X009886Y013092D02*
X009624Y013092D01*
X009693Y012934D02*
X009465Y012934D01*
X009534Y012775D02*
X000809Y012775D01*
X000809Y012617D02*
X005195Y012617D01*
X004967Y012458D02*
X000809Y012458D01*
X000809Y012300D02*
X004809Y012300D01*
X004650Y012141D02*
X000809Y012141D01*
X000809Y011983D02*
X004492Y011983D01*
X004333Y011824D02*
X000809Y011824D01*
X000809Y011666D02*
X004175Y011666D01*
X004016Y011507D02*
X000809Y011507D01*
X000809Y011349D02*
X001389Y011349D01*
X001465Y011425D02*
X000979Y010939D01*
X000979Y010252D01*
X001385Y009845D01*
X000979Y009439D01*
X000979Y008752D01*
X001465Y008265D01*
X001517Y008265D01*
X001129Y007877D01*
X001129Y007595D01*
X001129Y007314D01*
X001527Y006915D01*
X001809Y006915D01*
X002091Y006915D01*
X002489Y007314D01*
X002489Y007595D01*
X001809Y007595D01*
X001809Y006915D01*
X001809Y007595D01*
X001809Y007595D01*
X001809Y007595D01*
X001129Y007595D01*
X001809Y007595D01*
X001809Y007595D01*
X002489Y007595D01*
X002489Y007877D01*
X002101Y008265D01*
X002153Y008265D01*
X002639Y008752D01*
X002639Y009439D01*
X002233Y009845D01*
X002639Y010252D01*
X002639Y010939D01*
X002153Y011425D01*
X001465Y011425D01*
X001230Y011190D02*
X000809Y011190D01*
X000809Y011032D02*
X001072Y011032D01*
X000979Y010873D02*
X000809Y010873D01*
X000809Y010715D02*
X000979Y010715D01*
X000979Y010556D02*
X000809Y010556D01*
X000809Y010398D02*
X000979Y010398D01*
X000991Y010239D02*
X000809Y010239D01*
X000809Y010081D02*
X001150Y010081D01*
X001308Y009922D02*
X000809Y009922D01*
X000809Y009764D02*
X001304Y009764D01*
X001145Y009605D02*
X000809Y009605D01*
X000809Y009447D02*
X000987Y009447D01*
X000979Y009288D02*
X000809Y009288D01*
X000809Y009130D02*
X000979Y009130D01*
X000979Y008971D02*
X000809Y008971D01*
X000809Y008813D02*
X000979Y008813D01*
X001076Y008654D02*
X000809Y008654D01*
X000809Y008496D02*
X001235Y008496D01*
X001393Y008337D02*
X000809Y008337D01*
X000809Y008179D02*
X001431Y008179D01*
X001272Y008020D02*
X000809Y008020D01*
X000809Y007862D02*
X001129Y007862D01*
X001129Y007703D02*
X000809Y007703D01*
X000809Y007545D02*
X001129Y007545D01*
X001129Y007386D02*
X000809Y007386D01*
X000809Y007228D02*
X001215Y007228D01*
X001373Y007069D02*
X000809Y007069D01*
X000809Y006911D02*
X002774Y006911D01*
X002774Y007069D02*
X002245Y007069D01*
X002403Y007228D02*
X002774Y007228D01*
X002774Y007386D02*
X002489Y007386D01*
X002489Y007545D02*
X002774Y007545D01*
X002774Y007703D02*
X002489Y007703D01*
X002489Y007862D02*
X002774Y007862D01*
X002774Y008020D02*
X002346Y008020D01*
X002187Y008179D02*
X002774Y008179D01*
X002774Y008337D02*
X002225Y008337D01*
X002383Y008496D02*
X002774Y008496D01*
X002774Y008654D02*
X002542Y008654D01*
X002639Y008813D02*
X002774Y008813D01*
X002774Y008971D02*
X002639Y008971D01*
X002639Y009130D02*
X002774Y009130D01*
X002774Y009288D02*
X002639Y009288D01*
X002631Y009447D02*
X002774Y009447D01*
X002774Y009605D02*
X002473Y009605D01*
X002314Y009764D02*
X002774Y009764D01*
X002774Y009922D02*
X002310Y009922D01*
X002468Y010081D02*
X002774Y010081D01*
X002800Y010239D02*
X002627Y010239D01*
X002639Y010398D02*
X002907Y010398D01*
X003065Y010556D02*
X002639Y010556D01*
X002639Y010715D02*
X003224Y010715D01*
X003382Y010873D02*
X002639Y010873D01*
X002546Y011032D02*
X003541Y011032D01*
X003699Y011190D02*
X002388Y011190D01*
X002229Y011349D02*
X003858Y011349D01*
X004383Y010715D02*
X005146Y010715D01*
X005099Y010873D02*
X004542Y010873D01*
X004700Y011032D02*
X005099Y011032D01*
X005132Y011190D02*
X004859Y011190D01*
X005017Y011349D02*
X005197Y011349D01*
X005176Y011507D02*
X005342Y011507D01*
X005334Y011666D02*
X005633Y011666D01*
X005309Y012220D02*
X003184Y010095D01*
X003184Y004345D01*
X003833Y004058D02*
X010074Y004058D01*
X010074Y004216D02*
X003894Y004216D01*
X003894Y004375D02*
X010074Y004375D01*
X010074Y004533D02*
X003874Y004533D01*
X003809Y004692D02*
X010074Y004692D01*
X010074Y004850D02*
X003683Y004850D01*
X003594Y005009D02*
X010074Y005009D01*
X010074Y005167D02*
X009510Y005167D01*
X009461Y005119D02*
X009661Y005318D01*
X009769Y005579D01*
X009769Y005862D01*
X009661Y006123D01*
X009469Y006315D01*
X009469Y008501D01*
X009661Y008693D01*
X009769Y008954D01*
X009769Y009237D01*
X009661Y009498D01*
X009461Y009697D01*
X009200Y009805D01*
X008918Y009805D01*
X008657Y009697D01*
X008457Y009498D01*
X008349Y009237D01*
X008349Y008954D01*
X008457Y008693D01*
X008649Y008501D01*
X008649Y006315D01*
X008457Y006123D01*
X008349Y005862D01*
X008349Y005579D01*
X008457Y005318D01*
X008657Y005119D01*
X008918Y005010D01*
X009200Y005010D01*
X009461Y005119D01*
X009664Y005326D02*
X010074Y005326D01*
X010074Y005484D02*
X009730Y005484D01*
X009769Y005643D02*
X010074Y005643D01*
X010074Y005801D02*
X009769Y005801D01*
X009728Y005960D02*
X010074Y005960D01*
X010074Y006118D02*
X009663Y006118D01*
X009506Y006277D02*
X010074Y006277D01*
X010074Y006435D02*
X009469Y006435D01*
X009469Y006594D02*
X010074Y006594D01*
X010074Y006752D02*
X009469Y006752D01*
X009469Y006911D02*
X010074Y006911D01*
X010074Y007069D02*
X009469Y007069D01*
X009469Y007228D02*
X010074Y007228D01*
X010074Y007386D02*
X009469Y007386D01*
X009469Y007545D02*
X010074Y007545D01*
X010074Y007703D02*
X009469Y007703D01*
X009469Y007862D02*
X010134Y007862D01*
X010246Y008020D02*
X009469Y008020D01*
X009469Y008179D02*
X010405Y008179D01*
X010563Y008337D02*
X009469Y008337D01*
X009469Y008496D02*
X010722Y008496D01*
X010880Y008654D02*
X009622Y008654D01*
X009710Y008813D02*
X011039Y008813D01*
X011074Y008971D02*
X009769Y008971D01*
X009769Y009130D02*
X011074Y009130D01*
X011074Y009288D02*
X010975Y009288D01*
X010704Y009288D02*
X010664Y009288D01*
X010664Y009447D02*
X010704Y009447D01*
X010704Y009605D02*
X010664Y009605D01*
X010664Y009764D02*
X010704Y009764D01*
X010704Y009922D02*
X010664Y009922D01*
X010664Y010081D02*
X010704Y010081D01*
X010704Y010239D02*
X010664Y010239D01*
X010664Y010398D02*
X010704Y010398D01*
X010704Y010556D02*
X010664Y010556D01*
X010664Y010715D02*
X010704Y010715D01*
X010704Y010873D02*
X010664Y010873D01*
X010664Y011032D02*
X010704Y011032D01*
X010704Y011190D02*
X010664Y011190D01*
X010664Y011349D02*
X010704Y011349D01*
X010204Y011349D02*
X006767Y011349D01*
X006609Y011190D02*
X010204Y011190D01*
X010224Y011032D02*
X006519Y011032D01*
X006519Y010873D02*
X010306Y010873D01*
X010499Y010715D02*
X006472Y010715D01*
X006399Y010556D02*
X010298Y010556D01*
X010221Y010398D02*
X006240Y010398D01*
X005809Y010970D02*
X006684Y011845D01*
X009809Y011845D01*
X010309Y012345D01*
X017309Y012345D01*
X017934Y011720D01*
X018996Y011720D01*
X019656Y011983D02*
X019817Y011983D01*
X019579Y012141D02*
X020074Y012141D01*
X020544Y012141D02*
X020933Y012141D01*
X020800Y011983D02*
X021092Y011983D01*
X021250Y011824D02*
X020931Y011824D01*
X020996Y011666D02*
X021274Y011666D01*
X021274Y011507D02*
X021019Y011507D01*
X021019Y011349D02*
X021274Y011349D01*
X021274Y011190D02*
X020961Y011190D01*
X020874Y011032D02*
X021274Y011032D01*
X022059Y010595D02*
X022059Y012095D01*
X020775Y012300D02*
X019421Y012300D01*
X019081Y012458D02*
X020616Y012458D01*
X020458Y012617D02*
X019027Y012617D01*
X018945Y012775D02*
X020299Y012775D01*
X020141Y012934D02*
X018787Y012934D01*
X018170Y013092D02*
X019982Y013092D01*
X018371Y012345D02*
X017996Y012720D01*
X010059Y012720D01*
X009559Y012220D01*
X005309Y012220D01*
X005902Y012934D02*
X000809Y012934D01*
X000809Y013092D02*
X005744Y013092D01*
X005219Y010556D02*
X004225Y010556D01*
X004066Y010398D02*
X005377Y010398D01*
X003908Y010239D02*
X010204Y010239D01*
X010204Y010081D02*
X003749Y010081D01*
X003594Y009922D02*
X010204Y009922D01*
X010204Y009764D02*
X009300Y009764D01*
X009553Y009605D02*
X010208Y009605D01*
X010259Y009447D02*
X009682Y009447D01*
X009747Y009288D02*
X010393Y009288D01*
X009059Y009095D02*
X009059Y005720D01*
X008388Y005484D02*
X003594Y005484D01*
X003594Y005326D02*
X008454Y005326D01*
X008608Y005167D02*
X003594Y005167D01*
X003594Y005643D02*
X008349Y005643D01*
X008349Y005801D02*
X003594Y005801D01*
X003594Y005960D02*
X008390Y005960D01*
X008455Y006118D02*
X003594Y006118D01*
X003594Y006277D02*
X008611Y006277D01*
X008649Y006435D02*
X003594Y006435D01*
X003594Y006594D02*
X008649Y006594D01*
X008649Y006752D02*
X003594Y006752D01*
X003594Y006911D02*
X008649Y006911D01*
X008649Y007069D02*
X003594Y007069D01*
X003594Y007228D02*
X008649Y007228D01*
X008649Y007386D02*
X003594Y007386D01*
X003594Y007545D02*
X008649Y007545D01*
X008649Y007703D02*
X003594Y007703D01*
X003594Y007862D02*
X008649Y007862D01*
X008649Y008020D02*
X003594Y008020D01*
X003594Y008179D02*
X008649Y008179D01*
X008649Y008337D02*
X003594Y008337D01*
X003594Y008496D02*
X008649Y008496D01*
X008496Y008654D02*
X003594Y008654D01*
X003594Y008813D02*
X008407Y008813D01*
X008349Y008971D02*
X003594Y008971D01*
X003594Y009130D02*
X008349Y009130D01*
X008370Y009288D02*
X003594Y009288D01*
X003594Y009447D02*
X008436Y009447D01*
X008565Y009605D02*
X003594Y009605D01*
X003594Y009764D02*
X008817Y009764D01*
X010051Y011507D02*
X010204Y011507D01*
X013125Y010720D02*
X013218Y010627D01*
X013314Y010396D01*
X013314Y009545D01*
X013218Y009314D01*
X013041Y009136D01*
X012809Y009040D01*
X012559Y009040D01*
X012327Y009136D01*
X012294Y009170D01*
X012294Y008474D01*
X012201Y008250D01*
X011294Y007343D01*
X011294Y003725D01*
X012109Y003725D01*
X012341Y003630D01*
X012434Y003536D01*
X012527Y003630D01*
X012759Y003725D01*
X013609Y003725D01*
X013841Y003630D01*
X014018Y003452D01*
X014114Y003221D01*
X014114Y002970D01*
X014018Y002739D01*
X013985Y002705D01*
X014383Y002705D01*
X014350Y002739D01*
X014254Y002970D01*
X014254Y003221D01*
X014350Y003452D01*
X014527Y003630D01*
X014759Y003725D01*
X015506Y003725D01*
X015452Y003748D01*
X014827Y004373D01*
X014711Y004488D01*
X014649Y004639D01*
X014649Y010876D01*
X014457Y011068D01*
X014349Y011329D01*
X014349Y011612D01*
X014457Y011873D01*
X014520Y011935D01*
X013297Y011935D01*
X013314Y011896D01*
X013314Y011045D01*
X013218Y010814D01*
X013125Y010720D01*
X013130Y010715D02*
X014649Y010715D01*
X014649Y010873D02*
X013243Y010873D01*
X013308Y011032D02*
X014493Y011032D01*
X014406Y011190D02*
X013314Y011190D01*
X013314Y011349D02*
X014349Y011349D01*
X014349Y011507D02*
X013314Y011507D01*
X013314Y011666D02*
X014371Y011666D01*
X014437Y011824D02*
X013314Y011824D01*
X015059Y011470D02*
X015059Y004720D01*
X015684Y004095D01*
X030309Y004095D01*
X030559Y003845D01*
X030559Y003095D01*
X031286Y002631D02*
X033559Y002631D01*
X033559Y002473D02*
X031372Y002473D01*
X031450Y002314D02*
X033559Y002314D01*
X033559Y002156D02*
X031489Y002156D01*
X031489Y001997D02*
X033559Y001997D01*
X033559Y001839D02*
X031435Y001839D01*
X031335Y001680D02*
X033559Y001680D01*
X033559Y001522D02*
X031121Y001522D01*
X031257Y001363D02*
X033559Y001363D01*
X033559Y001205D02*
X031328Y001205D01*
X031337Y001046D02*
X033559Y001046D01*
X033559Y000888D02*
X031292Y000888D01*
X031172Y000729D02*
X033559Y000729D01*
X030579Y000729D02*
X030539Y000729D01*
X030539Y000888D02*
X030579Y000888D01*
X030579Y001046D02*
X030539Y001046D01*
X030539Y001075D02*
X029839Y001075D01*
X029079Y001075D01*
X029079Y001115D01*
X030539Y001115D01*
X030539Y001075D01*
X029946Y000729D02*
X029672Y000729D01*
X029792Y000888D02*
X029826Y000888D01*
X029079Y000888D02*
X029039Y000888D01*
X029039Y001046D02*
X029079Y001046D01*
X029079Y000729D02*
X029039Y000729D01*
X028446Y000729D02*
X027672Y000729D01*
X027792Y000888D02*
X028326Y000888D01*
X028281Y001046D02*
X027837Y001046D01*
X027828Y001205D02*
X028290Y001205D01*
X028360Y001363D02*
X027757Y001363D01*
X027079Y001046D02*
X027039Y001046D01*
X027039Y001075D02*
X026279Y001075D01*
X025579Y001075D01*
X025579Y001115D01*
X027039Y001115D01*
X027039Y001075D01*
X027039Y000888D02*
X027079Y000888D01*
X027079Y000729D02*
X027039Y000729D01*
X026446Y000729D02*
X026172Y000729D01*
X026292Y000888D02*
X026326Y000888D01*
X025579Y000888D02*
X025539Y000888D01*
X025539Y001046D02*
X025579Y001046D01*
X025579Y000729D02*
X025539Y000729D01*
X024946Y000729D02*
X023922Y000729D01*
X024042Y000888D02*
X024826Y000888D01*
X024781Y001046D02*
X024087Y001046D01*
X024078Y001205D02*
X024790Y001205D01*
X024860Y001363D02*
X024007Y001363D01*
X023329Y001046D02*
X023289Y001046D01*
X023289Y001075D02*
X022529Y001075D01*
X021829Y001075D01*
X021829Y001115D01*
X023289Y001115D01*
X023289Y001075D01*
X023289Y000888D02*
X023329Y000888D01*
X023329Y000729D02*
X023289Y000729D01*
X022696Y000729D02*
X022422Y000729D01*
X022542Y000888D02*
X022576Y000888D01*
X021829Y000888D02*
X021789Y000888D01*
X021789Y001046D02*
X021829Y001046D01*
X021829Y000729D02*
X021789Y000729D01*
X021196Y000729D02*
X017297Y000729D01*
X017417Y000888D02*
X021076Y000888D01*
X021031Y001046D02*
X017462Y001046D01*
X017453Y001205D02*
X021040Y001205D01*
X021110Y001363D02*
X017382Y001363D01*
X016704Y001046D02*
X016664Y001046D01*
X016664Y001075D02*
X015964Y001075D01*
X015204Y001075D01*
X015204Y001115D01*
X016664Y001115D01*
X016664Y001075D01*
X016664Y000888D02*
X016704Y000888D01*
X016704Y000729D02*
X016664Y000729D01*
X016071Y000729D02*
X015797Y000729D01*
X015917Y000888D02*
X015951Y000888D01*
X015204Y000888D02*
X015164Y000888D01*
X015164Y001046D02*
X015204Y001046D01*
X015204Y000729D02*
X015164Y000729D01*
X014571Y000729D02*
X013797Y000729D01*
X013917Y000888D02*
X014451Y000888D01*
X014406Y001046D02*
X013962Y001046D01*
X013953Y001205D02*
X014415Y001205D01*
X014485Y001363D02*
X013882Y001363D01*
X013204Y001046D02*
X013164Y001046D01*
X013164Y001075D02*
X012404Y001075D01*
X011704Y001075D01*
X011704Y001115D01*
X013164Y001115D01*
X013164Y001075D01*
X013164Y000888D02*
X013204Y000888D01*
X013204Y000729D02*
X013164Y000729D01*
X012571Y000729D02*
X012297Y000729D01*
X012417Y000888D02*
X012451Y000888D01*
X011704Y000888D02*
X011664Y000888D01*
X011664Y001046D02*
X011704Y001046D01*
X011704Y000729D02*
X011664Y000729D01*
X011071Y000729D02*
X010297Y000729D01*
X010417Y000888D02*
X010951Y000888D01*
X010906Y001046D02*
X010462Y001046D01*
X010453Y001205D02*
X010915Y001205D01*
X010985Y001363D02*
X010382Y001363D01*
X009704Y001046D02*
X009664Y001046D01*
X009664Y001075D02*
X008904Y001075D01*
X008204Y001075D01*
X008204Y001115D01*
X009664Y001115D01*
X009664Y001075D01*
X009664Y000888D02*
X009704Y000888D01*
X009704Y000729D02*
X009664Y000729D01*
X009071Y000729D02*
X008797Y000729D01*
X008917Y000888D02*
X008951Y000888D01*
X008204Y000888D02*
X008164Y000888D01*
X008164Y001046D02*
X008204Y001046D01*
X008204Y000729D02*
X008164Y000729D01*
X007571Y000729D02*
X000809Y000729D01*
X000809Y000888D02*
X007451Y000888D01*
X007406Y001046D02*
X000809Y001046D01*
X000809Y001205D02*
X007415Y001205D01*
X007485Y001363D02*
X000809Y001363D01*
X000809Y001522D02*
X007622Y001522D01*
X007408Y001680D02*
X000809Y001680D01*
X000809Y001839D02*
X007308Y001839D01*
X007254Y001997D02*
X000809Y001997D01*
X000809Y002156D02*
X007254Y002156D01*
X007293Y002314D02*
X000809Y002314D01*
X000809Y002473D02*
X007370Y002473D01*
X007457Y002631D02*
X000809Y002631D01*
X000809Y002790D02*
X007329Y002790D01*
X007263Y002948D02*
X000809Y002948D01*
X000809Y003107D02*
X007254Y003107D01*
X007272Y003265D02*
X000809Y003265D01*
X000809Y003424D02*
X007338Y003424D01*
X007480Y003582D02*
X000809Y003582D01*
X000809Y003741D02*
X002788Y003741D01*
X002626Y003899D02*
X000809Y003899D01*
X000809Y004058D02*
X002534Y004058D01*
X002474Y004216D02*
X000809Y004216D01*
X000809Y004375D02*
X002474Y004375D01*
X002493Y004533D02*
X000809Y004533D01*
X000809Y004692D02*
X002559Y004692D01*
X002685Y004850D02*
X000809Y004850D01*
X000809Y005009D02*
X002774Y005009D01*
X002774Y005167D02*
X000809Y005167D01*
X000809Y005326D02*
X002774Y005326D01*
X002774Y005484D02*
X000809Y005484D01*
X000809Y005643D02*
X002774Y005643D01*
X002774Y005801D02*
X000809Y005801D01*
X000809Y005960D02*
X002774Y005960D01*
X002774Y006118D02*
X000809Y006118D01*
X000809Y006277D02*
X002774Y006277D01*
X002774Y006435D02*
X000809Y006435D01*
X000809Y006594D02*
X002774Y006594D01*
X002774Y006752D02*
X000809Y006752D01*
X001809Y007069D02*
X001809Y007069D01*
X001809Y007228D02*
X001809Y007228D01*
X001809Y007386D02*
X001809Y007386D01*
X001809Y007545D02*
X001809Y007545D01*
X003742Y003899D02*
X010074Y003899D01*
X010074Y003741D02*
X003580Y003741D01*
X008888Y003582D02*
X008980Y003582D01*
X011294Y003741D02*
X015468Y003741D01*
X015300Y003899D02*
X011294Y003899D01*
X011294Y004058D02*
X015142Y004058D01*
X014983Y004216D02*
X011294Y004216D01*
X011294Y004375D02*
X014825Y004375D01*
X014693Y004533D02*
X011294Y004533D01*
X011294Y004692D02*
X014649Y004692D01*
X014649Y004850D02*
X011294Y004850D01*
X011294Y005009D02*
X014649Y005009D01*
X014649Y005167D02*
X011294Y005167D01*
X011294Y005326D02*
X014649Y005326D01*
X014649Y005484D02*
X011294Y005484D01*
X011294Y005643D02*
X014649Y005643D01*
X014649Y005801D02*
X011294Y005801D01*
X011294Y005960D02*
X014649Y005960D01*
X014649Y006118D02*
X011294Y006118D01*
X011294Y006277D02*
X014649Y006277D01*
X014649Y006435D02*
X011294Y006435D01*
X011294Y006594D02*
X014649Y006594D01*
X014649Y006752D02*
X011294Y006752D01*
X011294Y006911D02*
X014649Y006911D01*
X014649Y007069D02*
X011294Y007069D01*
X011294Y007228D02*
X014649Y007228D01*
X014649Y007386D02*
X011338Y007386D01*
X011496Y007545D02*
X014649Y007545D01*
X014649Y007703D02*
X011655Y007703D01*
X011813Y007862D02*
X014649Y007862D01*
X014649Y008020D02*
X011972Y008020D01*
X012130Y008179D02*
X014649Y008179D01*
X014649Y008337D02*
X012237Y008337D01*
X012294Y008496D02*
X014649Y008496D01*
X014649Y008654D02*
X012294Y008654D01*
X012294Y008813D02*
X014649Y008813D01*
X014649Y008971D02*
X012294Y008971D01*
X012294Y009130D02*
X012342Y009130D01*
X013025Y009130D02*
X014649Y009130D01*
X014649Y009288D02*
X013193Y009288D01*
X013273Y009447D02*
X014649Y009447D01*
X014649Y009605D02*
X013314Y009605D01*
X013314Y009764D02*
X014649Y009764D01*
X014649Y009922D02*
X013314Y009922D01*
X013314Y010081D02*
X014649Y010081D01*
X014649Y010239D02*
X013314Y010239D01*
X013313Y010398D02*
X014649Y010398D01*
X014649Y010556D02*
X013247Y010556D01*
X015469Y010556D02*
X016149Y010556D01*
X016149Y010398D02*
X015469Y010398D01*
X015469Y010239D02*
X016149Y010239D01*
X016149Y010081D02*
X015469Y010081D01*
X015469Y009605D02*
X016219Y009605D01*
X016378Y009447D02*
X015469Y009447D01*
X015469Y009288D02*
X016536Y009288D01*
X016751Y009130D02*
X015469Y009130D01*
X015469Y008971D02*
X016874Y008971D01*
X016776Y008813D02*
X015469Y008813D01*
X016559Y009845D02*
X016809Y009595D01*
X017309Y009595D01*
X016559Y009845D02*
X016559Y011095D01*
X016934Y011470D01*
X017684Y011470D01*
X018059Y011095D01*
X019934Y011095D01*
X020309Y011470D01*
X021684Y010470D02*
X024559Y007595D01*
X024029Y007069D02*
X022036Y007069D01*
X020684Y007595D02*
X017309Y007595D01*
X016762Y006118D02*
X015469Y006118D01*
X015469Y005960D02*
X016952Y005960D01*
X015667Y004692D02*
X031554Y004692D01*
X031564Y004661D02*
X031541Y004733D01*
X031529Y004808D01*
X031529Y004825D01*
X032289Y004825D01*
X032289Y004365D01*
X031971Y004365D01*
X031896Y004377D01*
X031825Y004401D01*
X031757Y004435D01*
X031696Y004479D01*
X031643Y004533D01*
X031598Y004594D01*
X031564Y004661D01*
X031642Y004533D02*
X015826Y004533D01*
X015509Y004850D02*
X032289Y004850D01*
X032329Y004850D02*
X033559Y004850D01*
X033559Y004692D02*
X033064Y004692D01*
X032976Y004533D02*
X033559Y004533D01*
X033559Y004375D02*
X032707Y004375D01*
X032329Y004375D02*
X032289Y004375D01*
X032289Y004533D02*
X032329Y004533D01*
X032329Y004692D02*
X032289Y004692D01*
X031911Y004375D02*
X030609Y004375D01*
X030768Y004216D02*
X033559Y004216D01*
X033559Y004058D02*
X030915Y004058D01*
X030969Y003899D02*
X033559Y003899D01*
X033559Y003741D02*
X030969Y003741D01*
X031263Y003582D02*
X033559Y003582D01*
X033559Y003424D02*
X031405Y003424D01*
X031470Y003265D02*
X033559Y003265D01*
X033559Y003107D02*
X031489Y003107D01*
X031480Y002948D02*
X033559Y002948D01*
X033559Y002790D02*
X031414Y002790D01*
X033060Y005009D02*
X033559Y005009D01*
X033559Y005167D02*
X032966Y005167D01*
X032980Y005326D02*
X033559Y005326D01*
X033559Y005484D02*
X033139Y005484D01*
X033207Y005643D02*
X033559Y005643D01*
X033559Y005801D02*
X033239Y005801D01*
X033239Y005960D02*
X033559Y005960D01*
X033559Y006118D02*
X033178Y006118D01*
X033068Y006277D02*
X033559Y006277D01*
X033559Y006435D02*
X033090Y006435D01*
X033187Y006594D02*
X033559Y006594D01*
X033559Y006752D02*
X033239Y006752D01*
X033239Y006911D02*
X033559Y006911D01*
X033559Y007069D02*
X033198Y007069D01*
X033117Y007228D02*
X033559Y007228D01*
X033559Y007386D02*
X032949Y007386D01*
X032662Y007862D02*
X033559Y007862D01*
X033559Y008020D02*
X032821Y008020D01*
X032979Y008179D02*
X033559Y008179D01*
X033559Y008337D02*
X032989Y008337D01*
X032989Y008496D02*
X033559Y008496D01*
X033559Y008654D02*
X032989Y008654D01*
X032928Y008813D02*
X033559Y008813D01*
X033559Y008971D02*
X032770Y008971D01*
X032611Y009130D02*
X033559Y009130D01*
X033559Y009288D02*
X032676Y009288D01*
X032834Y009447D02*
X033559Y009447D01*
X033559Y009605D02*
X032993Y009605D01*
X033139Y009764D02*
X033559Y009764D01*
X033559Y009922D02*
X033139Y009922D01*
X033139Y010081D02*
X033559Y010081D01*
X033559Y010239D02*
X033139Y010239D01*
X033139Y010398D02*
X033559Y010398D01*
X033559Y010556D02*
X033022Y010556D01*
X032863Y010715D02*
X033559Y010715D01*
X033559Y010873D02*
X032705Y010873D01*
X032309Y009130D02*
X032309Y009130D01*
X032309Y008971D02*
X032309Y008971D01*
X032309Y008813D02*
X032309Y008813D01*
X032309Y008654D02*
X032309Y008654D01*
X032309Y008496D02*
X032309Y008496D01*
X032309Y008337D02*
X032309Y008337D01*
X032309Y008179D02*
X032309Y008179D01*
X032309Y008020D02*
X032309Y008020D01*
X032309Y007862D02*
X032309Y007862D01*
X024559Y008595D02*
X024059Y008595D01*
X022059Y010595D01*
X016717Y011824D02*
X015681Y011824D01*
X015746Y011666D02*
X016550Y011666D01*
X016391Y011507D02*
X015769Y011507D01*
X015769Y011349D02*
X016233Y011349D01*
X016154Y011190D02*
X015711Y011190D01*
X015624Y011032D02*
X016149Y011032D01*
X016149Y010873D02*
X015469Y010873D01*
X015469Y010715D02*
X016149Y010715D01*
X023309Y015970D02*
X023309Y016595D01*
X022309Y017595D01*
X022309Y017845D01*
X023309Y017845D02*
X023309Y018595D01*
X023210Y019274D02*
X023408Y019274D01*
X023566Y019433D02*
X023052Y019433D01*
X025302Y019433D02*
X025816Y019433D01*
X025658Y019274D02*
X025460Y019274D01*
X025559Y018595D02*
X025559Y017845D01*
X024309Y017845D02*
X024309Y015970D01*
X026309Y015970D02*
X026309Y016595D01*
X026559Y016845D01*
X027809Y016845D01*
X028559Y017595D01*
X028559Y017845D01*
X029559Y017845D02*
X029559Y018595D01*
X029460Y019274D02*
X029658Y019274D01*
X029816Y019433D02*
X029302Y019433D01*
X027816Y019433D02*
X027302Y019433D01*
X027460Y019274D02*
X027658Y019274D01*
X027559Y018595D02*
X027559Y017845D01*
X031302Y019433D02*
X033559Y019433D01*
X033559Y019591D02*
X016844Y019591D01*
X016844Y019433D02*
X017566Y019433D01*
X017408Y019274D02*
X016844Y019274D01*
X016844Y019116D02*
X017249Y019116D01*
X017091Y018957D02*
X016844Y018957D01*
X016844Y018799D02*
X016949Y018799D01*
X016899Y018640D02*
X016844Y018640D01*
X016844Y019750D02*
X033559Y019750D01*
X033559Y019908D02*
X016844Y019908D01*
X016844Y020067D02*
X033559Y020067D01*
X033559Y020225D02*
X016844Y020225D01*
X016844Y020384D02*
X033559Y020384D01*
X033559Y020542D02*
X016844Y020542D01*
X016834Y020701D02*
X033559Y020701D01*
X033559Y020859D02*
X016750Y020859D01*
X016592Y021018D02*
X033559Y021018D01*
X033559Y021176D02*
X016433Y021176D01*
X016275Y021335D02*
X033559Y021335D01*
X033559Y021493D02*
X016046Y021493D01*
X015809Y020595D02*
X016059Y020345D01*
X015809Y020595D02*
X011809Y020595D01*
X011309Y021095D01*
X011691Y019591D02*
X011927Y019591D01*
X012691Y019591D02*
X012927Y019591D01*
X010927Y019591D02*
X010691Y019591D01*
X014424Y021810D02*
X033559Y021810D01*
X033559Y021652D02*
X014583Y021652D01*
X031460Y019274D02*
X033559Y019274D01*
X033559Y019116D02*
X031619Y019116D01*
X031777Y018957D02*
X033559Y018957D01*
X033559Y018799D02*
X031919Y018799D01*
X031969Y018640D02*
X032162Y018640D01*
X032955Y018640D02*
X033559Y018640D01*
X033559Y018482D02*
X033102Y018482D01*
X033167Y018323D02*
X033559Y018323D01*
X033559Y018165D02*
X033189Y018165D01*
X033189Y018006D02*
X033559Y018006D01*
X033559Y017848D02*
X033189Y017848D01*
X033189Y017689D02*
X033559Y017689D01*
X033559Y017530D02*
X033189Y017530D01*
X033169Y017372D02*
X033559Y017372D01*
X033559Y017213D02*
X033103Y017213D01*
X032969Y017055D02*
X033559Y017055D01*
X033559Y016896D02*
X032920Y016896D01*
X032781Y016738D02*
X033559Y016738D01*
X033559Y016579D02*
X032623Y016579D01*
X032464Y016421D02*
X033559Y016421D01*
X032329Y015787D02*
X032289Y015787D01*
X032289Y015628D02*
X032329Y015628D01*
X032329Y015470D02*
X032289Y015470D01*
X024559Y005484D02*
X024559Y005484D01*
X024559Y005326D02*
X024559Y005326D01*
X024559Y005167D02*
X024559Y005167D01*
X014480Y003582D02*
X013888Y003582D01*
X014030Y003424D02*
X014338Y003424D01*
X014272Y003265D02*
X014095Y003265D01*
X014114Y003107D02*
X014254Y003107D01*
X014263Y002948D02*
X014105Y002948D01*
X014039Y002790D02*
X014329Y002790D01*
X012480Y003582D02*
X012388Y003582D01*
D20*
X009184Y013345D02*
X006184Y013345D01*
X005809Y013720D01*
X005809Y016095D01*
X009184Y013345D02*
X009934Y014095D01*
X013309Y014095D01*
X014309Y015095D01*
D21*
X011684Y011470D02*
X011684Y009970D01*
X011684Y008595D01*
X010684Y007595D01*
X010684Y002095D01*
X009684Y002095D01*
X008184Y002095D01*
X010684Y002095D02*
X011684Y002095D01*
X013184Y002095D01*
X015184Y002095D01*
X016684Y002095D01*
X021809Y002095D01*
X026309Y002095D01*
X027059Y002095D02*
X025559Y002095D01*
X023309Y002095D01*
X021809Y002095D01*
X027059Y002095D02*
X029059Y002095D01*
X030559Y002095D01*
M02*
