G75*
G70*
%OFA0B0*%
%FSLAX24Y24*%
%IPPOS*%
%LPD*%
%AMOC8*
5,1,8,0,0,1.08239X$1,22.5*
%
%ADD10C,0.0640*%
%ADD11C,0.0827*%
%ADD12C,0.0560*%
%ADD13C,0.0800*%
%ADD14OC8,0.0640*%
%ADD15OC8,0.0890*%
%ADD16R,0.0634X0.0634*%
%ADD17C,0.0700*%
%ADD18C,0.0634*%
%ADD19C,0.0000*%
%ADD20C,0.1221*%
%ADD21R,0.0670X0.0500*%
%ADD22R,0.0720X0.0060*%
D10*
X008009Y001095D02*
X008609Y001095D01*
X009509Y001095D02*
X010109Y001095D01*
X011509Y001095D02*
X012109Y001095D01*
X013009Y001095D02*
X013609Y001095D01*
X013609Y002095D02*
X013009Y002095D01*
X012109Y002095D02*
X011509Y002095D01*
X011509Y003095D02*
X012109Y003095D01*
X013009Y003095D02*
X013609Y003095D01*
X015009Y003095D02*
X015609Y003095D01*
X016509Y003095D02*
X017109Y003095D01*
X017109Y002095D02*
X016509Y002095D01*
X015609Y002095D02*
X015009Y002095D01*
X015009Y001095D02*
X015609Y001095D01*
X016509Y001095D02*
X017109Y001095D01*
X021634Y001095D02*
X022234Y001095D01*
X023134Y001095D02*
X023734Y001095D01*
X023734Y002095D02*
X023134Y002095D01*
X022234Y002095D02*
X021634Y002095D01*
X021634Y003095D02*
X022234Y003095D01*
X023134Y003095D02*
X023734Y003095D01*
X025384Y003095D02*
X025984Y003095D01*
X026884Y003095D02*
X027484Y003095D01*
X027484Y002095D02*
X026884Y002095D01*
X025984Y002095D02*
X025384Y002095D01*
X025384Y001095D02*
X025984Y001095D01*
X026884Y001095D02*
X027484Y001095D01*
X028884Y001095D02*
X029484Y001095D01*
X030384Y001095D02*
X030984Y001095D01*
X030984Y002095D02*
X030384Y002095D01*
X029484Y002095D02*
X028884Y002095D01*
X028884Y003095D02*
X029484Y003095D01*
X030384Y003095D02*
X030984Y003095D01*
X032134Y004845D02*
X032734Y004845D01*
X032734Y005845D02*
X032134Y005845D01*
X032134Y006845D02*
X032734Y006845D01*
X032734Y012345D02*
X032134Y012345D01*
X032134Y013345D02*
X032734Y013345D01*
X032734Y014345D02*
X032134Y014345D01*
X032134Y015345D02*
X032734Y015345D01*
X032684Y019045D02*
X032684Y019645D01*
X031684Y019645D02*
X031684Y019045D01*
X030684Y019045D02*
X030684Y019645D01*
X029684Y019645D02*
X029684Y019045D01*
X028684Y019045D02*
X028684Y019645D01*
X027684Y019645D02*
X027684Y019045D01*
X026684Y019045D02*
X026684Y019645D01*
X025684Y019645D02*
X025684Y019045D01*
X024434Y019045D02*
X024434Y019645D01*
X023434Y019645D02*
X023434Y019045D01*
X022434Y019045D02*
X022434Y019645D01*
X021434Y019645D02*
X021434Y019045D01*
X020434Y019045D02*
X020434Y019645D01*
X019434Y019645D02*
X019434Y019045D01*
X018434Y019045D02*
X018434Y019645D01*
X017434Y019645D02*
X017434Y019045D01*
X012809Y011770D02*
X012809Y011170D01*
X011809Y011170D02*
X011809Y011770D01*
X010809Y011770D02*
X010809Y011170D01*
X010809Y010270D02*
X010809Y009670D01*
X011809Y009670D02*
X011809Y010270D01*
X012809Y010270D02*
X012809Y009670D01*
X010109Y003095D02*
X009509Y003095D01*
X008609Y003095D02*
X008009Y003095D01*
X008009Y002095D02*
X008609Y002095D01*
X009509Y002095D02*
X010109Y002095D01*
D11*
X017434Y006595D03*
X017434Y007595D03*
X017434Y008595D03*
X017434Y009595D03*
X017434Y010595D03*
D12*
X021434Y016960D02*
X021434Y017480D01*
X022434Y017480D02*
X022434Y016960D01*
X023434Y016960D02*
X023434Y017480D01*
X024434Y017480D02*
X024434Y016960D01*
X025434Y016960D02*
X025434Y017480D01*
X026434Y017480D02*
X026434Y016960D01*
X027434Y016960D02*
X027434Y017480D01*
X028434Y017480D02*
X028434Y016960D01*
X029434Y016960D02*
X029434Y017480D01*
D13*
X024684Y009595D03*
X024684Y008595D03*
X024684Y007595D03*
X024684Y006595D03*
X024684Y005595D03*
D14*
X013434Y016095D03*
X012434Y016095D03*
X011434Y016095D03*
X010434Y016095D03*
X009434Y016095D03*
X009434Y017095D03*
X010434Y017095D03*
X011434Y017095D03*
X012434Y017095D03*
X013434Y017095D03*
D15*
X001934Y010095D03*
X001934Y009095D03*
X001934Y008095D03*
X003309Y006220D03*
X001371Y014220D03*
X032434Y010220D03*
X032434Y009220D03*
D16*
X001434Y020095D03*
D17*
X001434Y021095D03*
X003434Y021095D03*
D18*
X004434Y021095D03*
X005434Y021095D03*
X006434Y021095D03*
X007434Y021095D03*
X008434Y021095D03*
X009434Y021095D03*
X010434Y021095D03*
X011434Y021095D03*
X012434Y021095D03*
X013434Y021095D03*
X013434Y020095D03*
X012434Y020095D03*
X011434Y020095D03*
X010434Y020095D03*
X009434Y020095D03*
X008434Y020095D03*
X007434Y020095D03*
X006434Y020095D03*
X005434Y020095D03*
X004434Y020095D03*
X003434Y020095D03*
X002434Y020095D03*
X002434Y021095D03*
D19*
X009905Y007220D02*
X009907Y007268D01*
X009913Y007316D01*
X009923Y007363D01*
X009936Y007409D01*
X009954Y007454D01*
X009974Y007498D01*
X009999Y007540D01*
X010027Y007579D01*
X010057Y007616D01*
X010091Y007650D01*
X010128Y007682D01*
X010166Y007711D01*
X010207Y007736D01*
X010250Y007758D01*
X010295Y007776D01*
X010341Y007790D01*
X010388Y007801D01*
X010436Y007808D01*
X010484Y007811D01*
X010532Y007810D01*
X010580Y007805D01*
X010628Y007796D01*
X010674Y007784D01*
X010719Y007767D01*
X010763Y007747D01*
X010805Y007724D01*
X010845Y007697D01*
X010883Y007667D01*
X010918Y007634D01*
X010950Y007598D01*
X010980Y007560D01*
X011006Y007519D01*
X011028Y007476D01*
X011048Y007432D01*
X011063Y007387D01*
X011075Y007340D01*
X011083Y007292D01*
X011087Y007244D01*
X011087Y007196D01*
X011083Y007148D01*
X011075Y007100D01*
X011063Y007053D01*
X011048Y007008D01*
X011028Y006964D01*
X011006Y006921D01*
X010980Y006880D01*
X010950Y006842D01*
X010918Y006806D01*
X010883Y006773D01*
X010845Y006743D01*
X010805Y006716D01*
X010763Y006693D01*
X010719Y006673D01*
X010674Y006656D01*
X010628Y006644D01*
X010580Y006635D01*
X010532Y006630D01*
X010484Y006629D01*
X010436Y006632D01*
X010388Y006639D01*
X010341Y006650D01*
X010295Y006664D01*
X010250Y006682D01*
X010207Y006704D01*
X010166Y006729D01*
X010128Y006758D01*
X010091Y006790D01*
X010057Y006824D01*
X010027Y006861D01*
X009999Y006900D01*
X009974Y006942D01*
X009954Y006986D01*
X009936Y007031D01*
X009923Y007077D01*
X009913Y007124D01*
X009907Y007172D01*
X009905Y007220D01*
X031468Y017220D02*
X031470Y017268D01*
X031476Y017316D01*
X031486Y017363D01*
X031499Y017409D01*
X031517Y017454D01*
X031537Y017498D01*
X031562Y017540D01*
X031590Y017579D01*
X031620Y017616D01*
X031654Y017650D01*
X031691Y017682D01*
X031729Y017711D01*
X031770Y017736D01*
X031813Y017758D01*
X031858Y017776D01*
X031904Y017790D01*
X031951Y017801D01*
X031999Y017808D01*
X032047Y017811D01*
X032095Y017810D01*
X032143Y017805D01*
X032191Y017796D01*
X032237Y017784D01*
X032282Y017767D01*
X032326Y017747D01*
X032368Y017724D01*
X032408Y017697D01*
X032446Y017667D01*
X032481Y017634D01*
X032513Y017598D01*
X032543Y017560D01*
X032569Y017519D01*
X032591Y017476D01*
X032611Y017432D01*
X032626Y017387D01*
X032638Y017340D01*
X032646Y017292D01*
X032650Y017244D01*
X032650Y017196D01*
X032646Y017148D01*
X032638Y017100D01*
X032626Y017053D01*
X032611Y017008D01*
X032591Y016964D01*
X032569Y016921D01*
X032543Y016880D01*
X032513Y016842D01*
X032481Y016806D01*
X032446Y016773D01*
X032408Y016743D01*
X032368Y016716D01*
X032326Y016693D01*
X032282Y016673D01*
X032237Y016656D01*
X032191Y016644D01*
X032143Y016635D01*
X032095Y016630D01*
X032047Y016629D01*
X031999Y016632D01*
X031951Y016639D01*
X031904Y016650D01*
X031858Y016664D01*
X031813Y016682D01*
X031770Y016704D01*
X031729Y016729D01*
X031691Y016758D01*
X031654Y016790D01*
X031620Y016824D01*
X031590Y016861D01*
X031562Y016900D01*
X031537Y016942D01*
X031517Y016986D01*
X031499Y017031D01*
X031486Y017077D01*
X031476Y017124D01*
X031470Y017172D01*
X031468Y017220D01*
D20*
X032059Y017220D03*
X010496Y007220D03*
D21*
X023684Y007145D03*
X023684Y006545D03*
D22*
X023684Y006845D03*
M02*
