%
M48
M72
T01C0.0236
T02C0.0315
T03C0.0320
T04C0.0394
T05C0.0400
T06C0.0520
T07C0.1181
%
T01
X7684Y4595
X8934Y5220
X4184Y7595
X3309Y5220
X1309Y5220
X8934Y10095
X7934Y10783
X5934Y10970
X7934Y14095
X8934Y14095
X5934Y16095
X4934Y16345
X11934Y18970
X14559Y17595
X14684Y15345
X18559Y12283
X19434Y12283
X20434Y11470
X23059Y13095
X24684Y12220
X28184Y12095
X29309Y14595
X21559Y8595
X21559Y7595
X21559Y6595
X21184Y5095
X20684Y3470
X13934Y7970
X13934Y11595
X15184Y11470
T02
X24684Y9595
X24684Y8595
X24684Y7595
X24684Y6595
X24684Y5595
T03
X24434Y17220
X25434Y17220
X26434Y17220
X27434Y17220
X28434Y17220
X29434Y17220
X23434Y17220
X22434Y17220
X21434Y17220
T04
X13434Y20095
X12434Y20095
X11434Y20095
X10434Y20095
X9434Y20095
X8434Y20095
X7434Y20095
X6434Y20095
X5434Y20095
X4434Y20095
X3434Y20095
X2434Y20095
X1434Y20095
X1434Y21095
X2434Y21095
X3434Y21095
X4434Y21095
X5434Y21095
X6434Y21095
X7434Y21095
X8434Y21095
X9434Y21095
X10434Y21095
X11434Y21095
X12434Y21095
X13434Y21095
T05
X17434Y19345
X18434Y19345
X19434Y19345
X20434Y19345
X21434Y19345
X22434Y19345
X23434Y19345
X24434Y19345
X25684Y19345
X26684Y19345
X27684Y19345
X28684Y19345
X29684Y19345
X30684Y19345
X31684Y19345
X32684Y19345
X32434Y15345
X32434Y14345
X32434Y13345
X32434Y12345
X32434Y9220
X32434Y8220
X32434Y6345
X32434Y5345
X32434Y4345
X30684Y3095
X30684Y2095
X30684Y1095
X29184Y1095
X29184Y2095
X29184Y3095
X27184Y3095
X27184Y2095
X25684Y2095
X25684Y3095
X23434Y3095
X23434Y2095
X21934Y2095
X21934Y3095
X21934Y1095
X23434Y1095
X25684Y1095
X27184Y1095
X16809Y1095
X16809Y2095
X16809Y3095
X15309Y3095
X15309Y2095
X15309Y1095
X13309Y1095
X13309Y2095
X13309Y3095
X11809Y3095
X11809Y2095
X11809Y1095
X9809Y1095
X8309Y1095
X8309Y2095
X8309Y3095
X9809Y3095
X9809Y2095
X1934Y8095
X1934Y9095
X1934Y10095
X10809Y9970
X11809Y9970
X12809Y9970
X12809Y11470
X11809Y11470
X10809Y11470
X10434Y16095
X11434Y16095
X12434Y16095
X13434Y16095
X13434Y17095
X12434Y17095
X11434Y17095
X10434Y17095
X9434Y17095
X9434Y16095
T06
X1371Y14220
X3309Y6220
T07
X10496Y7220
X32059Y17220
M30
