G75*
G70*
%OFA0B0*%
%FSLAX24Y24*%
%IPPOS*%
%LPD*%
%AMOC8*
5,1,8,0,0,1.08239X$1,22.5*
%
%ADD10C,0.0600*%
%ADD11C,0.0787*%
%ADD12C,0.0520*%
%ADD13C,0.0760*%
%ADD14OC8,0.0600*%
%ADD15OC8,0.0850*%
%ADD16R,0.0594X0.0594*%
%ADD17C,0.0660*%
%ADD18C,0.0594*%
%ADD19C,0.0000*%
%ADD20R,0.0630X0.0460*%
%ADD21C,0.0160*%
%ADD22C,0.0320*%
%ADD23C,0.0560*%
D10*
X008009Y001095D02*
X008609Y001095D01*
X009509Y001095D02*
X010109Y001095D01*
X011509Y001095D02*
X012109Y001095D01*
X013009Y001095D02*
X013609Y001095D01*
X013609Y002095D02*
X013009Y002095D01*
X012109Y002095D02*
X011509Y002095D01*
X011509Y003095D02*
X012109Y003095D01*
X013009Y003095D02*
X013609Y003095D01*
X015009Y003095D02*
X015609Y003095D01*
X016509Y003095D02*
X017109Y003095D01*
X017109Y002095D02*
X016509Y002095D01*
X015609Y002095D02*
X015009Y002095D01*
X015009Y001095D02*
X015609Y001095D01*
X016509Y001095D02*
X017109Y001095D01*
X021634Y001095D02*
X022234Y001095D01*
X023134Y001095D02*
X023734Y001095D01*
X023734Y002095D02*
X023134Y002095D01*
X022234Y002095D02*
X021634Y002095D01*
X021634Y003095D02*
X022234Y003095D01*
X023134Y003095D02*
X023734Y003095D01*
X025384Y003095D02*
X025984Y003095D01*
X026884Y003095D02*
X027484Y003095D01*
X027484Y002095D02*
X026884Y002095D01*
X025984Y002095D02*
X025384Y002095D01*
X025384Y001095D02*
X025984Y001095D01*
X026884Y001095D02*
X027484Y001095D01*
X028884Y001095D02*
X029484Y001095D01*
X030384Y001095D02*
X030984Y001095D01*
X030984Y002095D02*
X030384Y002095D01*
X029484Y002095D02*
X028884Y002095D01*
X028884Y003095D02*
X029484Y003095D01*
X030384Y003095D02*
X030984Y003095D01*
X032134Y004345D02*
X032734Y004345D01*
X032734Y005345D02*
X032134Y005345D01*
X032134Y006345D02*
X032734Y006345D01*
X032734Y012345D02*
X032134Y012345D01*
X032134Y013345D02*
X032734Y013345D01*
X032734Y014345D02*
X032134Y014345D01*
X032134Y015345D02*
X032734Y015345D01*
X032684Y019045D02*
X032684Y019645D01*
X031684Y019645D02*
X031684Y019045D01*
X030684Y019045D02*
X030684Y019645D01*
X029684Y019645D02*
X029684Y019045D01*
X028684Y019045D02*
X028684Y019645D01*
X027684Y019645D02*
X027684Y019045D01*
X026684Y019045D02*
X026684Y019645D01*
X025684Y019645D02*
X025684Y019045D01*
X024434Y019045D02*
X024434Y019645D01*
X023434Y019645D02*
X023434Y019045D01*
X022434Y019045D02*
X022434Y019645D01*
X021434Y019645D02*
X021434Y019045D01*
X020434Y019045D02*
X020434Y019645D01*
X019434Y019645D02*
X019434Y019045D01*
X018434Y019045D02*
X018434Y019645D01*
X017434Y019645D02*
X017434Y019045D01*
X012809Y011770D02*
X012809Y011170D01*
X011809Y011170D02*
X011809Y011770D01*
X010809Y011770D02*
X010809Y011170D01*
X010809Y010270D02*
X010809Y009670D01*
X011809Y009670D02*
X011809Y010270D01*
X012809Y010270D02*
X012809Y009670D01*
X010109Y003095D02*
X009509Y003095D01*
X008609Y003095D02*
X008009Y003095D01*
X008009Y002095D02*
X008609Y002095D01*
X009509Y002095D02*
X010109Y002095D01*
D11*
X017434Y006595D03*
X017434Y007595D03*
X017434Y008595D03*
X017434Y009595D03*
X017434Y010595D03*
D12*
X021434Y016960D02*
X021434Y017480D01*
X022434Y017480D02*
X022434Y016960D01*
X023434Y016960D02*
X023434Y017480D01*
X024434Y017480D02*
X024434Y016960D01*
X025434Y016960D02*
X025434Y017480D01*
X026434Y017480D02*
X026434Y016960D01*
X027434Y016960D02*
X027434Y017480D01*
X028434Y017480D02*
X028434Y016960D01*
X029434Y016960D02*
X029434Y017480D01*
D13*
X029309Y014595D03*
X028184Y012095D03*
X024684Y012220D03*
X023059Y013095D03*
X020434Y011470D03*
X019434Y012283D03*
X018559Y012283D03*
X015184Y011470D03*
X013934Y011595D03*
X008934Y010095D03*
X007934Y010783D03*
X005934Y010970D03*
X007934Y014095D03*
X008934Y014095D03*
X005934Y016095D03*
X004934Y016345D03*
X011934Y018970D03*
X014559Y017595D03*
X014684Y015345D03*
X024684Y009595D03*
X024684Y008595D03*
X024684Y007595D03*
X024684Y006595D03*
X024684Y005595D03*
X021559Y006595D03*
X021559Y007595D03*
X021559Y008595D03*
X021184Y005095D03*
X020684Y003470D03*
X013934Y007970D03*
X008934Y005220D03*
X007684Y004595D03*
X003309Y005220D03*
X001309Y005220D03*
X004184Y007595D03*
D14*
X009434Y016095D03*
X010434Y016095D03*
X011434Y016095D03*
X012434Y016095D03*
X013434Y016095D03*
X013434Y017095D03*
X012434Y017095D03*
X011434Y017095D03*
X010434Y017095D03*
X009434Y017095D03*
D15*
X001371Y014220D03*
X001934Y010095D03*
X001934Y009095D03*
X001934Y008095D03*
X003309Y006220D03*
X032434Y008220D03*
X032434Y009220D03*
D16*
X001434Y020095D03*
D17*
X001434Y021095D03*
X003434Y021095D03*
D18*
X004434Y021095D03*
X005434Y021095D03*
X006434Y021095D03*
X007434Y021095D03*
X008434Y021095D03*
X009434Y021095D03*
X010434Y021095D03*
X011434Y021095D03*
X012434Y021095D03*
X013434Y021095D03*
X013434Y020095D03*
X012434Y020095D03*
X011434Y020095D03*
X010434Y020095D03*
X009434Y020095D03*
X008434Y020095D03*
X007434Y020095D03*
X006434Y020095D03*
X005434Y020095D03*
X004434Y020095D03*
X003434Y020095D03*
X002434Y020095D03*
X002434Y021095D03*
D19*
X009905Y007220D02*
X009907Y007268D01*
X009913Y007316D01*
X009923Y007363D01*
X009936Y007409D01*
X009954Y007454D01*
X009974Y007498D01*
X009999Y007540D01*
X010027Y007579D01*
X010057Y007616D01*
X010091Y007650D01*
X010128Y007682D01*
X010166Y007711D01*
X010207Y007736D01*
X010250Y007758D01*
X010295Y007776D01*
X010341Y007790D01*
X010388Y007801D01*
X010436Y007808D01*
X010484Y007811D01*
X010532Y007810D01*
X010580Y007805D01*
X010628Y007796D01*
X010674Y007784D01*
X010719Y007767D01*
X010763Y007747D01*
X010805Y007724D01*
X010845Y007697D01*
X010883Y007667D01*
X010918Y007634D01*
X010950Y007598D01*
X010980Y007560D01*
X011006Y007519D01*
X011028Y007476D01*
X011048Y007432D01*
X011063Y007387D01*
X011075Y007340D01*
X011083Y007292D01*
X011087Y007244D01*
X011087Y007196D01*
X011083Y007148D01*
X011075Y007100D01*
X011063Y007053D01*
X011048Y007008D01*
X011028Y006964D01*
X011006Y006921D01*
X010980Y006880D01*
X010950Y006842D01*
X010918Y006806D01*
X010883Y006773D01*
X010845Y006743D01*
X010805Y006716D01*
X010763Y006693D01*
X010719Y006673D01*
X010674Y006656D01*
X010628Y006644D01*
X010580Y006635D01*
X010532Y006630D01*
X010484Y006629D01*
X010436Y006632D01*
X010388Y006639D01*
X010341Y006650D01*
X010295Y006664D01*
X010250Y006682D01*
X010207Y006704D01*
X010166Y006729D01*
X010128Y006758D01*
X010091Y006790D01*
X010057Y006824D01*
X010027Y006861D01*
X009999Y006900D01*
X009974Y006942D01*
X009954Y006986D01*
X009936Y007031D01*
X009923Y007077D01*
X009913Y007124D01*
X009907Y007172D01*
X009905Y007220D01*
X031468Y017220D02*
X031470Y017268D01*
X031476Y017316D01*
X031486Y017363D01*
X031499Y017409D01*
X031517Y017454D01*
X031537Y017498D01*
X031562Y017540D01*
X031590Y017579D01*
X031620Y017616D01*
X031654Y017650D01*
X031691Y017682D01*
X031729Y017711D01*
X031770Y017736D01*
X031813Y017758D01*
X031858Y017776D01*
X031904Y017790D01*
X031951Y017801D01*
X031999Y017808D01*
X032047Y017811D01*
X032095Y017810D01*
X032143Y017805D01*
X032191Y017796D01*
X032237Y017784D01*
X032282Y017767D01*
X032326Y017747D01*
X032368Y017724D01*
X032408Y017697D01*
X032446Y017667D01*
X032481Y017634D01*
X032513Y017598D01*
X032543Y017560D01*
X032569Y017519D01*
X032591Y017476D01*
X032611Y017432D01*
X032626Y017387D01*
X032638Y017340D01*
X032646Y017292D01*
X032650Y017244D01*
X032650Y017196D01*
X032646Y017148D01*
X032638Y017100D01*
X032626Y017053D01*
X032611Y017008D01*
X032591Y016964D01*
X032569Y016921D01*
X032543Y016880D01*
X032513Y016842D01*
X032481Y016806D01*
X032446Y016773D01*
X032408Y016743D01*
X032368Y016716D01*
X032326Y016693D01*
X032282Y016673D01*
X032237Y016656D01*
X032191Y016644D01*
X032143Y016635D01*
X032095Y016630D01*
X032047Y016629D01*
X031999Y016632D01*
X031951Y016639D01*
X031904Y016650D01*
X031858Y016664D01*
X031813Y016682D01*
X031770Y016704D01*
X031729Y016729D01*
X031691Y016758D01*
X031654Y016790D01*
X031620Y016824D01*
X031590Y016861D01*
X031562Y016900D01*
X031537Y016942D01*
X031517Y016986D01*
X031499Y017031D01*
X031486Y017077D01*
X031476Y017124D01*
X031470Y017172D01*
X031468Y017220D01*
D20*
X023684Y007645D03*
X023684Y007045D03*
D21*
X000934Y000595D02*
X000934Y013802D01*
X001121Y013615D01*
X001321Y013615D01*
X001321Y014170D01*
X001421Y014170D01*
X001421Y013615D01*
X001622Y013615D01*
X001976Y013970D01*
X001976Y014170D01*
X001421Y014170D01*
X001421Y014270D01*
X001976Y014270D01*
X001976Y014471D01*
X001622Y014825D01*
X001421Y014825D01*
X001421Y014270D01*
X001321Y014270D01*
X001321Y014825D01*
X001121Y014825D01*
X000934Y014639D01*
X000934Y019606D01*
X000978Y019561D01*
X001081Y019519D01*
X001574Y019519D01*
X001574Y019024D01*
X001629Y018892D01*
X002129Y018392D01*
X002230Y018290D01*
X002362Y018235D01*
X003785Y018235D01*
X005463Y016558D01*
X005374Y016469D01*
X005274Y016227D01*
X005274Y015964D01*
X005374Y015722D01*
X005494Y015602D01*
X005494Y013633D01*
X005561Y013471D01*
X005936Y013096D01*
X006060Y012972D01*
X006221Y012905D01*
X009396Y012905D01*
X009558Y012972D01*
X010241Y013655D01*
X013521Y013655D01*
X013683Y013722D01*
X014646Y014685D01*
X014815Y014685D01*
X015058Y014786D01*
X015243Y014972D01*
X015344Y015214D01*
X015344Y015477D01*
X015243Y015719D01*
X015102Y015860D01*
X017410Y015860D01*
X021074Y012196D01*
X021074Y011650D01*
X020993Y011844D01*
X020808Y012030D01*
X020565Y012130D01*
X020303Y012130D01*
X020060Y012030D01*
X020032Y012002D01*
X020094Y012152D01*
X020094Y012414D01*
X019993Y012657D01*
X019808Y012842D01*
X019565Y012943D01*
X019303Y012943D01*
X019060Y012842D01*
X018996Y012779D01*
X018933Y012842D01*
X018690Y012943D01*
X018428Y012943D01*
X018414Y012937D01*
X018325Y013026D01*
X018193Y013080D01*
X010112Y013080D01*
X009980Y013026D01*
X009535Y012580D01*
X005362Y012580D01*
X005230Y012526D01*
X003105Y010401D01*
X003004Y010299D01*
X002949Y010167D01*
X002949Y006857D01*
X002604Y006512D01*
X002604Y005928D01*
X002844Y005689D01*
X002749Y005594D01*
X002649Y005352D01*
X002649Y005089D01*
X002749Y004847D01*
X002935Y004661D01*
X003178Y004560D01*
X003440Y004560D01*
X003683Y004661D01*
X003868Y004847D01*
X003969Y005089D01*
X003969Y005352D01*
X003868Y005594D01*
X003774Y005689D01*
X004014Y005928D01*
X004014Y006512D01*
X003669Y006857D01*
X003669Y009946D01*
X005583Y011860D01*
X006315Y011860D01*
X006079Y011625D01*
X006065Y011630D01*
X005803Y011630D01*
X005560Y011530D01*
X005374Y011344D01*
X005274Y011102D01*
X005274Y010839D01*
X005374Y010597D01*
X005560Y010411D01*
X005803Y010310D01*
X006065Y010310D01*
X006308Y010411D01*
X006493Y010597D01*
X006594Y010839D01*
X006594Y011102D01*
X006588Y011116D01*
X006958Y011485D01*
X010005Y011485D01*
X010138Y011540D01*
X010329Y011731D01*
X010329Y011490D01*
X010789Y011490D01*
X010789Y011450D01*
X010829Y011450D01*
X010829Y009990D01*
X010789Y009990D01*
X010789Y009950D01*
X010829Y009950D01*
X010829Y009190D01*
X010847Y009190D01*
X010921Y009202D01*
X010993Y009226D01*
X011060Y009260D01*
X011122Y009304D01*
X011175Y009358D01*
X011219Y009419D01*
X011249Y009477D01*
X011249Y009109D01*
X011334Y008903D01*
X011499Y008739D01*
X011499Y005452D01*
X010492Y004445D01*
X010492Y004445D01*
X010334Y004288D01*
X010249Y004082D01*
X010249Y003665D01*
X010224Y003675D01*
X009393Y003675D01*
X009180Y003587D01*
X009059Y003466D01*
X008937Y003587D01*
X008724Y003675D01*
X007893Y003675D01*
X007680Y003587D01*
X007517Y003424D01*
X000934Y003424D01*
X000934Y003582D02*
X007676Y003582D01*
X007517Y003424D02*
X007429Y003211D01*
X007429Y002980D01*
X007517Y002767D01*
X007680Y002604D01*
X007700Y002595D01*
X007680Y002587D01*
X007517Y002424D01*
X007429Y002211D01*
X007429Y001980D01*
X007517Y001767D01*
X007680Y001604D01*
X007830Y001542D01*
X007825Y001540D01*
X007757Y001506D01*
X007696Y001462D01*
X007643Y001408D01*
X007598Y001347D01*
X007564Y001280D01*
X007541Y001208D01*
X007529Y001133D01*
X007529Y001115D01*
X008289Y001115D01*
X008289Y001075D01*
X008329Y001075D01*
X008329Y000615D01*
X008647Y000615D01*
X008721Y000627D01*
X008793Y000651D01*
X008860Y000685D01*
X008922Y000729D01*
X008975Y000783D01*
X009019Y000844D01*
X009054Y000911D01*
X009059Y000927D01*
X009064Y000911D01*
X009098Y000844D01*
X009143Y000783D01*
X009196Y000729D01*
X009257Y000685D01*
X009325Y000651D01*
X009396Y000627D01*
X009471Y000615D01*
X009789Y000615D01*
X009789Y001075D01*
X009829Y001075D01*
X009829Y000615D01*
X010147Y000615D01*
X010221Y000627D01*
X010293Y000651D01*
X010360Y000685D01*
X010422Y000729D01*
X010475Y000783D01*
X010519Y000844D01*
X010554Y000911D01*
X010577Y000983D01*
X010589Y001058D01*
X010589Y001075D01*
X009829Y001075D01*
X009829Y001115D01*
X010589Y001115D01*
X010589Y001133D01*
X010577Y001208D01*
X010554Y001280D01*
X010519Y001347D01*
X010475Y001408D01*
X010422Y001462D01*
X010360Y001506D01*
X010303Y001535D01*
X011315Y001535D01*
X011257Y001506D01*
X011196Y001462D01*
X011143Y001408D01*
X011098Y001347D01*
X011064Y001280D01*
X011041Y001208D01*
X011029Y001133D01*
X011029Y001115D01*
X011789Y001115D01*
X011789Y001075D01*
X011829Y001075D01*
X011829Y000615D01*
X012147Y000615D01*
X012221Y000627D01*
X012293Y000651D01*
X012360Y000685D01*
X012422Y000729D01*
X012475Y000783D01*
X012519Y000844D01*
X012554Y000911D01*
X012559Y000927D01*
X012564Y000911D01*
X012598Y000844D01*
X012643Y000783D01*
X012696Y000729D01*
X012757Y000685D01*
X012825Y000651D01*
X012896Y000627D01*
X012971Y000615D01*
X013289Y000615D01*
X013289Y001075D01*
X013329Y001075D01*
X013329Y000615D01*
X013647Y000615D01*
X013721Y000627D01*
X013793Y000651D01*
X013860Y000685D01*
X013922Y000729D01*
X013975Y000783D01*
X014019Y000844D01*
X014054Y000911D01*
X014077Y000983D01*
X014089Y001058D01*
X014089Y001075D01*
X013329Y001075D01*
X013329Y001115D01*
X014089Y001115D01*
X014089Y001133D01*
X014077Y001208D01*
X014054Y001280D01*
X014019Y001347D01*
X013975Y001408D01*
X013922Y001462D01*
X013860Y001506D01*
X013803Y001535D01*
X014815Y001535D01*
X014757Y001506D01*
X014696Y001462D01*
X014643Y001408D01*
X014598Y001347D01*
X014564Y001280D01*
X014541Y001208D01*
X014529Y001133D01*
X014529Y001115D01*
X015289Y001115D01*
X015289Y001075D01*
X015329Y001075D01*
X015329Y000615D01*
X015647Y000615D01*
X015721Y000627D01*
X015793Y000651D01*
X015860Y000685D01*
X015922Y000729D01*
X015975Y000783D01*
X016019Y000844D01*
X016054Y000911D01*
X016059Y000927D01*
X016064Y000911D01*
X016098Y000844D01*
X016143Y000783D01*
X016196Y000729D01*
X016257Y000685D01*
X016325Y000651D01*
X016396Y000627D01*
X016471Y000615D01*
X016789Y000615D01*
X016789Y001075D01*
X016829Y001075D01*
X016829Y000615D01*
X017147Y000615D01*
X017221Y000627D01*
X017293Y000651D01*
X017360Y000685D01*
X017422Y000729D01*
X017475Y000783D01*
X017519Y000844D01*
X017554Y000911D01*
X017577Y000983D01*
X017589Y001058D01*
X017589Y001075D01*
X016829Y001075D01*
X016829Y001115D01*
X017589Y001115D01*
X017589Y001133D01*
X017577Y001208D01*
X017554Y001280D01*
X017519Y001347D01*
X017475Y001408D01*
X017422Y001462D01*
X017360Y001506D01*
X017303Y001535D01*
X021440Y001535D01*
X021382Y001506D01*
X021321Y001462D01*
X021268Y001408D01*
X021223Y001347D01*
X021189Y001280D01*
X021166Y001208D01*
X021154Y001133D01*
X021154Y001115D01*
X021914Y001115D01*
X021914Y001075D01*
X021954Y001075D01*
X021954Y000615D01*
X022272Y000615D01*
X022346Y000627D01*
X022418Y000651D01*
X022485Y000685D01*
X022547Y000729D01*
X022600Y000783D01*
X022644Y000844D01*
X022679Y000911D01*
X022684Y000927D01*
X022689Y000911D01*
X022723Y000844D01*
X022768Y000783D01*
X022821Y000729D01*
X022882Y000685D01*
X022950Y000651D01*
X023021Y000627D01*
X023096Y000615D01*
X023414Y000615D01*
X023414Y001075D01*
X023454Y001075D01*
X023454Y000615D01*
X023772Y000615D01*
X023846Y000627D01*
X023918Y000651D01*
X023985Y000685D01*
X024047Y000729D01*
X024100Y000783D01*
X024144Y000844D01*
X024179Y000911D01*
X024202Y000983D01*
X024214Y001058D01*
X024214Y001075D01*
X023454Y001075D01*
X023454Y001115D01*
X024214Y001115D01*
X024214Y001133D01*
X024202Y001208D01*
X024179Y001280D01*
X024144Y001347D01*
X024100Y001408D01*
X024047Y001462D01*
X023985Y001506D01*
X023928Y001535D01*
X025190Y001535D01*
X025132Y001506D01*
X025071Y001462D01*
X025018Y001408D01*
X024973Y001347D01*
X024939Y001280D01*
X024916Y001208D01*
X024904Y001133D01*
X024904Y001115D01*
X025664Y001115D01*
X025664Y001075D01*
X025704Y001075D01*
X025704Y000615D01*
X026022Y000615D01*
X026096Y000627D01*
X026168Y000651D01*
X026235Y000685D01*
X026297Y000729D01*
X026350Y000783D01*
X026394Y000844D01*
X026429Y000911D01*
X026434Y000927D01*
X026439Y000911D01*
X026473Y000844D01*
X026518Y000783D01*
X026571Y000729D01*
X026632Y000685D01*
X026700Y000651D01*
X026771Y000627D01*
X026846Y000615D01*
X027164Y000615D01*
X027164Y001075D01*
X027204Y001075D01*
X027204Y000615D01*
X027522Y000615D01*
X027596Y000627D01*
X027668Y000651D01*
X027735Y000685D01*
X027797Y000729D01*
X027850Y000783D01*
X027894Y000844D01*
X027929Y000911D01*
X027952Y000983D01*
X027964Y001058D01*
X027964Y001075D01*
X027204Y001075D01*
X027204Y001115D01*
X027964Y001115D01*
X027964Y001133D01*
X027952Y001208D01*
X027929Y001280D01*
X027894Y001347D01*
X027850Y001408D01*
X027797Y001462D01*
X027735Y001506D01*
X027678Y001535D01*
X028690Y001535D01*
X028632Y001506D01*
X028571Y001462D01*
X028518Y001408D01*
X028473Y001347D01*
X028439Y001280D01*
X028416Y001208D01*
X028404Y001133D01*
X028404Y001115D01*
X029164Y001115D01*
X029164Y001075D01*
X029204Y001075D01*
X029204Y000615D01*
X029522Y000615D01*
X029596Y000627D01*
X029668Y000651D01*
X029735Y000685D01*
X029797Y000729D01*
X029850Y000783D01*
X029894Y000844D01*
X029929Y000911D01*
X029934Y000927D01*
X029939Y000911D01*
X029973Y000844D01*
X030018Y000783D01*
X030071Y000729D01*
X030132Y000685D01*
X030200Y000651D01*
X030271Y000627D01*
X030346Y000615D01*
X030664Y000615D01*
X030664Y001075D01*
X030704Y001075D01*
X030704Y000615D01*
X031022Y000615D01*
X031096Y000627D01*
X031168Y000651D01*
X031235Y000685D01*
X031297Y000729D01*
X031350Y000783D01*
X031394Y000844D01*
X031429Y000911D01*
X031452Y000983D01*
X031464Y001058D01*
X031464Y001075D01*
X030704Y001075D01*
X030704Y001115D01*
X031464Y001115D01*
X031464Y001133D01*
X031452Y001208D01*
X031429Y001280D01*
X031394Y001347D01*
X031350Y001408D01*
X031297Y001462D01*
X031235Y001506D01*
X031168Y001540D01*
X031163Y001542D01*
X031312Y001604D01*
X031476Y001767D01*
X031564Y001980D01*
X031564Y002211D01*
X031476Y002424D01*
X031312Y002587D01*
X031292Y002595D01*
X031312Y002604D01*
X031476Y002767D01*
X031564Y002980D01*
X031564Y003211D01*
X031476Y003424D01*
X033684Y003424D01*
X033684Y003582D02*
X031317Y003582D01*
X031312Y003587D02*
X031099Y003675D01*
X031044Y003675D01*
X031044Y003917D01*
X030989Y004049D01*
X030489Y004549D01*
X030388Y004651D01*
X030255Y004705D01*
X015958Y004705D01*
X015544Y005120D01*
X015544Y010905D01*
X015558Y010911D01*
X015743Y011097D01*
X015844Y011339D01*
X015844Y011602D01*
X015743Y011844D01*
X015602Y011985D01*
X017472Y011985D01*
X017627Y011830D01*
X016987Y011830D01*
X016855Y011776D01*
X016754Y011674D01*
X016379Y011299D01*
X016324Y011167D01*
X016324Y009774D01*
X016379Y009642D01*
X016480Y009540D01*
X016730Y009290D01*
X016852Y009240D01*
X016863Y009214D01*
X017052Y009025D01*
X016996Y008969D01*
X016943Y008896D01*
X016902Y008816D01*
X016874Y008730D01*
X016866Y008675D01*
X017354Y008675D01*
X017354Y008515D01*
X016866Y008515D01*
X016874Y008461D01*
X016902Y008375D01*
X016943Y008295D01*
X016996Y008222D01*
X017052Y008166D01*
X016863Y007977D01*
X016760Y007729D01*
X016760Y007461D01*
X016863Y007214D01*
X016981Y007095D01*
X016863Y006977D01*
X016760Y006729D01*
X016760Y006461D01*
X016863Y006214D01*
X017052Y006024D01*
X017300Y005922D01*
X017568Y005922D01*
X017815Y006024D01*
X018005Y006214D01*
X018014Y006235D01*
X020994Y006235D01*
X020999Y006222D01*
X021185Y006036D01*
X021428Y005935D01*
X021690Y005935D01*
X021933Y006036D01*
X022118Y006222D01*
X022219Y006464D01*
X022219Y006727D01*
X022118Y006969D01*
X021992Y007095D01*
X022118Y007222D01*
X022219Y007464D01*
X022219Y007727D01*
X022118Y007969D01*
X021992Y008095D01*
X022118Y008222D01*
X022219Y008464D01*
X022219Y008727D01*
X022118Y008969D01*
X021933Y009155D01*
X021919Y009161D01*
X021919Y009351D01*
X023184Y008086D01*
X023131Y008034D01*
X023089Y007931D01*
X023089Y007360D01*
X023095Y007345D01*
X023089Y007331D01*
X023089Y006760D01*
X023131Y006657D01*
X023210Y006578D01*
X023313Y006535D01*
X023371Y006535D01*
X023379Y006517D01*
X023480Y006415D01*
X023605Y006290D01*
X023737Y006235D01*
X024119Y006235D01*
X024124Y006222D01*
X024310Y006036D01*
X024327Y006029D01*
X024319Y006023D01*
X024257Y005960D01*
X024205Y005889D01*
X024165Y005810D01*
X024138Y005727D01*
X024124Y005640D01*
X024124Y005595D01*
X024124Y005551D01*
X024138Y005464D01*
X024165Y005381D01*
X024205Y005302D01*
X024257Y005231D01*
X024319Y005168D01*
X024390Y005117D01*
X024469Y005076D01*
X024553Y005049D01*
X024640Y005035D01*
X024684Y005035D01*
X024728Y005035D01*
X024815Y005049D01*
X024899Y005076D01*
X024977Y005117D01*
X025049Y005168D01*
X025111Y005231D01*
X025163Y005302D01*
X025203Y005381D01*
X025230Y005464D01*
X025244Y005551D01*
X025244Y005595D01*
X024684Y005595D01*
X024684Y005035D01*
X024684Y005595D01*
X024684Y005595D01*
X024684Y005595D01*
X024124Y005595D01*
X024684Y005595D01*
X024684Y005595D01*
X025244Y005595D01*
X025244Y005640D01*
X025230Y005727D01*
X025203Y005810D01*
X025163Y005889D01*
X025111Y005960D01*
X031699Y005960D01*
X031642Y006017D02*
X031805Y005854D01*
X031825Y005845D01*
X031805Y005837D01*
X031642Y005674D01*
X031554Y005461D01*
X031554Y005230D01*
X031642Y005017D01*
X031805Y004854D01*
X031955Y004792D01*
X031950Y004790D01*
X031882Y004756D01*
X031821Y004712D01*
X031768Y004658D01*
X031723Y004597D01*
X031689Y004530D01*
X031666Y004458D01*
X031654Y004383D01*
X031654Y004365D01*
X032414Y004365D01*
X032414Y004325D01*
X032454Y004325D01*
X032454Y003865D01*
X032772Y003865D01*
X032846Y003877D01*
X032918Y003901D01*
X032985Y003935D01*
X033047Y003979D01*
X033100Y004033D01*
X033144Y004094D01*
X033179Y004161D01*
X033202Y004233D01*
X033214Y004308D01*
X033214Y004325D01*
X032454Y004325D01*
X032454Y004365D01*
X033214Y004365D01*
X033214Y004383D01*
X033202Y004458D01*
X033179Y004530D01*
X033144Y004597D01*
X033100Y004658D01*
X033047Y004712D01*
X032985Y004756D01*
X032918Y004790D01*
X032913Y004792D01*
X033062Y004854D01*
X033226Y005017D01*
X033314Y005230D01*
X033314Y005461D01*
X033226Y005674D01*
X033062Y005837D01*
X033042Y005845D01*
X033062Y005854D01*
X033226Y006017D01*
X033314Y006230D01*
X033314Y006461D01*
X033226Y006674D01*
X033062Y006837D01*
X032849Y006925D01*
X032018Y006925D01*
X031805Y006837D01*
X031642Y006674D01*
X031554Y006461D01*
X031554Y006230D01*
X031642Y006017D01*
X031600Y006118D02*
X025140Y006118D01*
X025058Y006036D02*
X025243Y006222D01*
X025344Y006464D01*
X025344Y006727D01*
X025243Y006969D01*
X025117Y007095D01*
X025243Y007222D01*
X025344Y007464D01*
X025344Y007727D01*
X025243Y007969D01*
X025117Y008095D01*
X025243Y008222D01*
X025344Y008464D01*
X025344Y008727D01*
X025243Y008969D01*
X025117Y009095D01*
X025243Y009222D01*
X025249Y009235D01*
X027755Y009235D01*
X027888Y009290D01*
X027989Y009392D01*
X028388Y009790D01*
X028489Y009892D01*
X028544Y010024D01*
X028544Y011530D01*
X028558Y011536D01*
X028743Y011722D01*
X028844Y011964D01*
X028844Y012227D01*
X028743Y012469D01*
X028558Y012655D01*
X028315Y012755D01*
X028053Y012755D01*
X027810Y012655D01*
X027624Y012469D01*
X027524Y012227D01*
X027524Y011964D01*
X027624Y011722D01*
X027810Y011536D01*
X027824Y011530D01*
X027824Y010245D01*
X027535Y009955D01*
X025249Y009955D01*
X025243Y009969D01*
X025058Y010155D01*
X024815Y010255D01*
X024553Y010255D01*
X024310Y010155D01*
X024124Y009969D01*
X024119Y009955D01*
X023833Y009955D01*
X022919Y010870D01*
X022919Y012101D01*
X023730Y011290D01*
X023862Y011235D01*
X025505Y011235D01*
X025638Y011290D01*
X027333Y012985D01*
X029755Y012985D01*
X029888Y013040D01*
X030239Y013392D01*
X030294Y013524D01*
X030294Y015042D01*
X030239Y015174D01*
X030138Y015276D01*
X029888Y015526D01*
X029755Y015580D01*
X028862Y015580D01*
X028730Y015526D01*
X028629Y015424D01*
X028160Y014955D01*
X022333Y014955D01*
X021794Y015495D01*
X021794Y016557D01*
X021892Y016655D01*
X021934Y016756D01*
X021976Y016655D01*
X022128Y016503D01*
X022326Y016420D01*
X022541Y016420D01*
X022740Y016503D01*
X022892Y016655D01*
X022934Y016756D01*
X022976Y016655D01*
X023128Y016503D01*
X023326Y016420D01*
X023541Y016420D01*
X023740Y016503D01*
X023892Y016655D01*
X023934Y016756D01*
X023976Y016655D01*
X024128Y016503D01*
X024326Y016420D01*
X024541Y016420D01*
X024740Y016503D01*
X024892Y016655D01*
X024934Y016756D01*
X024976Y016655D01*
X025128Y016503D01*
X025326Y016420D01*
X025541Y016420D01*
X025740Y016503D01*
X025892Y016655D01*
X025934Y016756D01*
X025976Y016655D01*
X026128Y016503D01*
X026326Y016420D01*
X026541Y016420D01*
X026740Y016503D01*
X026892Y016655D01*
X026934Y016756D01*
X026976Y016655D01*
X027128Y016503D01*
X027326Y016420D01*
X027541Y016420D01*
X027740Y016503D01*
X027892Y016655D01*
X027934Y016756D01*
X027976Y016655D01*
X028128Y016503D01*
X028326Y016420D01*
X028541Y016420D01*
X028740Y016503D01*
X028892Y016655D01*
X028974Y016853D01*
X028974Y017588D01*
X028892Y017786D01*
X028794Y017884D01*
X028794Y017946D01*
X028958Y018110D01*
X032380Y018110D01*
X032513Y018165D01*
X032614Y018267D01*
X032823Y018475D01*
X033012Y018554D01*
X033176Y018717D01*
X033264Y018930D01*
X033264Y019761D01*
X033176Y019974D01*
X033012Y020137D01*
X032799Y020225D01*
X032568Y020225D01*
X032567Y020225D02*
X031813Y020225D01*
X031823Y020216D02*
X031388Y020651D01*
X031255Y020705D01*
X030112Y020705D01*
X029980Y020651D01*
X029879Y020549D01*
X029684Y020355D01*
X029388Y020651D01*
X029255Y020705D01*
X028112Y020705D01*
X027980Y020651D01*
X027879Y020549D01*
X027684Y020355D01*
X027388Y020651D01*
X027255Y020705D01*
X026112Y020705D01*
X025980Y020651D01*
X025879Y020549D01*
X025684Y020355D01*
X025388Y020651D01*
X025255Y020705D01*
X023862Y020705D01*
X023730Y020651D01*
X023629Y020549D01*
X023434Y020355D01*
X023138Y020651D01*
X023005Y020705D01*
X021862Y020705D01*
X021730Y020651D01*
X021629Y020549D01*
X021434Y020355D01*
X021138Y020651D01*
X021005Y020705D01*
X019862Y020705D01*
X019730Y020651D01*
X019629Y020549D01*
X019434Y020355D01*
X019138Y020651D01*
X019005Y020705D01*
X017862Y020705D01*
X017730Y020651D01*
X017629Y020549D01*
X017295Y020216D01*
X017105Y020137D01*
X016942Y019974D01*
X016919Y019918D01*
X016919Y020667D01*
X016864Y020799D01*
X016364Y021299D01*
X016263Y021401D01*
X016130Y021455D01*
X014833Y021455D01*
X014443Y021845D01*
X033684Y021845D01*
X033684Y000595D01*
X000934Y000595D01*
X000934Y000729D02*
X007696Y000729D01*
X007757Y000685D01*
X007825Y000651D01*
X007896Y000627D01*
X007971Y000615D01*
X008289Y000615D01*
X008289Y001075D01*
X007529Y001075D01*
X007529Y001058D01*
X007541Y000983D01*
X007564Y000911D01*
X007598Y000844D01*
X007643Y000783D01*
X007696Y000729D01*
X007576Y000888D02*
X000934Y000888D01*
X000934Y001046D02*
X007531Y001046D01*
X007540Y001205D02*
X000934Y001205D01*
X000934Y001363D02*
X007610Y001363D01*
X007789Y001522D02*
X000934Y001522D01*
X000934Y001680D02*
X007604Y001680D01*
X007487Y001839D02*
X000934Y001839D01*
X000934Y001997D02*
X007429Y001997D01*
X007429Y002156D02*
X000934Y002156D01*
X000934Y002314D02*
X007472Y002314D01*
X007566Y002473D02*
X000934Y002473D01*
X000934Y002631D02*
X007653Y002631D01*
X007508Y002790D02*
X000934Y002790D01*
X000934Y002948D02*
X007442Y002948D01*
X007429Y003107D02*
X000934Y003107D01*
X000934Y003265D02*
X007451Y003265D01*
X008942Y003582D02*
X009176Y003582D01*
X009065Y004560D02*
X008803Y004560D01*
X008560Y004661D01*
X008374Y004847D01*
X008274Y005089D01*
X008274Y005352D01*
X008374Y005594D01*
X008560Y005780D01*
X008574Y005786D01*
X008574Y009530D01*
X008560Y009536D01*
X008374Y009722D01*
X008274Y009964D01*
X008274Y010227D01*
X008374Y010469D01*
X008560Y010655D01*
X008803Y010755D01*
X009065Y010755D01*
X009308Y010655D01*
X009493Y010469D01*
X009594Y010227D01*
X009594Y009964D01*
X009493Y009722D01*
X009308Y009536D01*
X009294Y009530D01*
X009294Y005786D01*
X009308Y005780D01*
X009493Y005594D01*
X009594Y005352D01*
X009594Y005089D01*
X009493Y004847D01*
X009308Y004661D01*
X009065Y004560D01*
X009339Y004692D02*
X010738Y004692D01*
X010580Y004533D02*
X000934Y004533D01*
X000934Y004375D02*
X010421Y004375D01*
X010305Y004216D02*
X000934Y004216D01*
X000934Y004058D02*
X010249Y004058D01*
X010249Y003899D02*
X000934Y003899D01*
X000934Y003741D02*
X010249Y003741D01*
X011369Y003739D02*
X012534Y004903D01*
X012619Y005109D01*
X012619Y005332D01*
X012619Y008859D01*
X012619Y009082D01*
X012599Y009130D01*
X012693Y009090D01*
X012924Y009090D01*
X013137Y009179D01*
X013301Y009342D01*
X013389Y009555D01*
X013389Y010386D01*
X013301Y010599D01*
X013179Y010720D01*
X013301Y010842D01*
X013389Y011055D01*
X013389Y011886D01*
X013348Y011985D01*
X014765Y011985D01*
X014624Y011844D01*
X014524Y011602D01*
X014524Y011339D01*
X014624Y011097D01*
X014810Y010911D01*
X014824Y010905D01*
X014824Y004899D01*
X014879Y004767D01*
X014980Y004665D01*
X015605Y004040D01*
X015737Y003985D01*
X030035Y003985D01*
X030324Y003696D01*
X030324Y003675D01*
X030268Y003675D01*
X030055Y003587D01*
X029934Y003466D01*
X029812Y003587D01*
X029599Y003675D01*
X028768Y003675D01*
X028555Y003587D01*
X028392Y003424D01*
X027976Y003424D01*
X027812Y003587D01*
X027599Y003675D01*
X026768Y003675D01*
X026555Y003587D01*
X026434Y003466D01*
X026312Y003587D01*
X026099Y003675D01*
X025268Y003675D01*
X025055Y003587D01*
X024892Y003424D01*
X024226Y003424D01*
X024062Y003587D01*
X023849Y003675D01*
X023018Y003675D01*
X022805Y003587D01*
X022684Y003466D01*
X022562Y003587D01*
X022349Y003675D01*
X021518Y003675D01*
X021305Y003587D01*
X021142Y003424D01*
X017601Y003424D01*
X017437Y003587D01*
X017224Y003675D01*
X016393Y003675D01*
X016180Y003587D01*
X016059Y003466D01*
X015937Y003587D01*
X015724Y003675D01*
X014893Y003675D01*
X014680Y003587D01*
X014517Y003424D01*
X014101Y003424D01*
X013937Y003587D01*
X013724Y003675D01*
X012893Y003675D01*
X012680Y003587D01*
X012559Y003466D01*
X012437Y003587D01*
X012224Y003675D01*
X011393Y003675D01*
X011369Y003665D01*
X011369Y003739D01*
X011371Y003741D02*
X030279Y003741D01*
X030121Y003899D02*
X011530Y003899D01*
X011688Y004058D02*
X015587Y004058D01*
X015429Y004216D02*
X011847Y004216D01*
X012005Y004375D02*
X015270Y004375D01*
X015112Y004533D02*
X012164Y004533D01*
X012322Y004692D02*
X014953Y004692D01*
X014844Y004850D02*
X012481Y004850D01*
X012577Y005009D02*
X014824Y005009D01*
X014824Y005167D02*
X012619Y005167D01*
X012619Y005326D02*
X014824Y005326D01*
X014824Y005484D02*
X012619Y005484D01*
X012619Y005643D02*
X014824Y005643D01*
X014824Y005801D02*
X012619Y005801D01*
X012619Y005960D02*
X014824Y005960D01*
X014824Y006118D02*
X012619Y006118D01*
X012619Y006277D02*
X014824Y006277D01*
X014824Y006435D02*
X012619Y006435D01*
X012619Y006594D02*
X014824Y006594D01*
X014824Y006752D02*
X012619Y006752D01*
X012619Y006911D02*
X014824Y006911D01*
X014824Y007069D02*
X012619Y007069D01*
X012619Y007228D02*
X014824Y007228D01*
X014824Y007386D02*
X012619Y007386D01*
X012619Y007545D02*
X014824Y007545D01*
X014824Y007703D02*
X012619Y007703D01*
X012619Y007862D02*
X014824Y007862D01*
X014824Y008020D02*
X012619Y008020D01*
X012619Y008179D02*
X014824Y008179D01*
X014824Y008337D02*
X012619Y008337D01*
X012619Y008496D02*
X014824Y008496D01*
X014824Y008654D02*
X012619Y008654D01*
X012619Y008813D02*
X014824Y008813D01*
X014824Y008971D02*
X012619Y008971D01*
X013020Y009130D02*
X014824Y009130D01*
X014824Y009288D02*
X013247Y009288D01*
X013344Y009447D02*
X014824Y009447D01*
X014824Y009605D02*
X013389Y009605D01*
X013389Y009764D02*
X014824Y009764D01*
X014824Y009922D02*
X013389Y009922D01*
X013389Y010081D02*
X014824Y010081D01*
X014824Y010239D02*
X013389Y010239D01*
X013384Y010398D02*
X014824Y010398D01*
X014824Y010556D02*
X013318Y010556D01*
X013185Y010715D02*
X014824Y010715D01*
X014824Y010873D02*
X013314Y010873D01*
X013379Y011032D02*
X014689Y011032D01*
X014585Y011190D02*
X013389Y011190D01*
X013389Y011349D02*
X014524Y011349D01*
X014524Y011507D02*
X013389Y011507D01*
X013389Y011666D02*
X014550Y011666D01*
X014616Y011824D02*
X013389Y011824D01*
X013349Y011983D02*
X014763Y011983D01*
X015184Y011470D02*
X015184Y004970D01*
X015809Y004345D01*
X030184Y004345D01*
X030684Y003845D01*
X030684Y003095D01*
X031312Y003587D02*
X031476Y003424D01*
X031541Y003265D02*
X033684Y003265D01*
X033684Y003107D02*
X031564Y003107D01*
X031551Y002948D02*
X033684Y002948D01*
X033684Y002790D02*
X031485Y002790D01*
X031340Y002631D02*
X033684Y002631D01*
X033684Y002473D02*
X031427Y002473D01*
X031521Y002314D02*
X033684Y002314D01*
X033684Y002156D02*
X031564Y002156D01*
X031564Y001997D02*
X033684Y001997D01*
X033684Y001839D02*
X031505Y001839D01*
X031389Y001680D02*
X033684Y001680D01*
X033684Y001522D02*
X031204Y001522D01*
X031382Y001363D02*
X033684Y001363D01*
X033684Y001205D02*
X031453Y001205D01*
X031462Y001046D02*
X033684Y001046D01*
X033684Y000888D02*
X031417Y000888D01*
X031297Y000729D02*
X033684Y000729D01*
X030704Y000729D02*
X030664Y000729D01*
X030664Y000888D02*
X030704Y000888D01*
X030704Y001046D02*
X030664Y001046D01*
X030664Y001075D02*
X029964Y001075D01*
X029204Y001075D01*
X029204Y001115D01*
X030664Y001115D01*
X030664Y001075D01*
X030071Y000729D02*
X029797Y000729D01*
X029917Y000888D02*
X029951Y000888D01*
X029204Y000888D02*
X029164Y000888D01*
X029164Y001046D02*
X029204Y001046D01*
X029164Y001075D02*
X029164Y000615D01*
X028846Y000615D01*
X028771Y000627D01*
X028700Y000651D01*
X028632Y000685D01*
X028571Y000729D01*
X028518Y000783D01*
X028473Y000844D01*
X028439Y000911D01*
X028416Y000983D01*
X028404Y001058D01*
X028404Y001075D01*
X029164Y001075D01*
X029164Y000729D02*
X029204Y000729D01*
X028571Y000729D02*
X027797Y000729D01*
X027917Y000888D02*
X028451Y000888D01*
X028406Y001046D02*
X027962Y001046D01*
X027953Y001205D02*
X028415Y001205D01*
X028485Y001363D02*
X027882Y001363D01*
X027704Y001522D02*
X028664Y001522D01*
X028504Y002655D02*
X027864Y002655D01*
X027976Y002767D01*
X028064Y002980D01*
X028064Y003211D01*
X027976Y003424D01*
X028041Y003265D02*
X028326Y003265D01*
X028304Y003211D02*
X028304Y002980D01*
X028392Y002767D01*
X028504Y002655D01*
X028383Y002790D02*
X027985Y002790D01*
X028051Y002948D02*
X028317Y002948D01*
X028304Y003107D02*
X028064Y003107D01*
X028304Y003211D02*
X028392Y003424D01*
X028551Y003582D02*
X027817Y003582D01*
X026551Y003582D02*
X026317Y003582D01*
X025051Y003582D02*
X024067Y003582D01*
X024226Y003424D02*
X024314Y003211D01*
X024314Y002980D01*
X024226Y002767D01*
X024114Y002655D01*
X025004Y002655D01*
X024892Y002767D01*
X024804Y002980D01*
X024804Y003211D01*
X024892Y003424D01*
X024826Y003265D02*
X024291Y003265D01*
X024314Y003107D02*
X024804Y003107D01*
X024817Y002948D02*
X024301Y002948D01*
X024235Y002790D02*
X024883Y002790D01*
X025164Y001522D02*
X023954Y001522D01*
X024132Y001363D02*
X024985Y001363D01*
X024915Y001205D02*
X024203Y001205D01*
X024212Y001046D02*
X024906Y001046D01*
X024904Y001058D02*
X024916Y000983D01*
X024939Y000911D01*
X024973Y000844D01*
X025018Y000783D01*
X025071Y000729D01*
X025132Y000685D01*
X025200Y000651D01*
X025271Y000627D01*
X025346Y000615D01*
X025664Y000615D01*
X025664Y001075D01*
X024904Y001075D01*
X024904Y001058D01*
X024951Y000888D02*
X024167Y000888D01*
X024047Y000729D02*
X025071Y000729D01*
X025664Y000729D02*
X025704Y000729D01*
X025704Y000888D02*
X025664Y000888D01*
X025664Y001046D02*
X025704Y001046D01*
X025704Y001075D02*
X025704Y001115D01*
X027164Y001115D01*
X027164Y001075D01*
X026404Y001075D01*
X025704Y001075D01*
X026297Y000729D02*
X026571Y000729D01*
X026451Y000888D02*
X026417Y000888D01*
X027164Y000888D02*
X027204Y000888D01*
X027204Y001046D02*
X027164Y001046D01*
X027164Y000729D02*
X027204Y000729D01*
X023454Y000729D02*
X023414Y000729D01*
X023414Y000888D02*
X023454Y000888D01*
X023454Y001046D02*
X023414Y001046D01*
X023414Y001075D02*
X022654Y001075D01*
X021954Y001075D01*
X021954Y001115D01*
X023414Y001115D01*
X023414Y001075D01*
X022821Y000729D02*
X022547Y000729D01*
X022667Y000888D02*
X022701Y000888D01*
X021954Y000888D02*
X021914Y000888D01*
X021914Y001046D02*
X021954Y001046D01*
X021914Y001075D02*
X021914Y000615D01*
X021596Y000615D01*
X021521Y000627D01*
X021450Y000651D01*
X021382Y000685D01*
X021321Y000729D01*
X021268Y000783D01*
X021223Y000844D01*
X021189Y000911D01*
X021166Y000983D01*
X021154Y001058D01*
X021154Y001075D01*
X021914Y001075D01*
X021914Y000729D02*
X021954Y000729D01*
X021321Y000729D02*
X017422Y000729D01*
X017542Y000888D02*
X021201Y000888D01*
X021156Y001046D02*
X017587Y001046D01*
X017578Y001205D02*
X021165Y001205D01*
X021235Y001363D02*
X017507Y001363D01*
X017329Y001522D02*
X021414Y001522D01*
X021254Y002655D02*
X017489Y002655D01*
X017601Y002767D01*
X017689Y002980D01*
X017689Y003211D01*
X017601Y003424D01*
X017666Y003265D02*
X021076Y003265D01*
X021054Y003211D02*
X021054Y002980D01*
X021142Y002767D01*
X021254Y002655D01*
X021133Y002790D02*
X017610Y002790D01*
X017676Y002948D02*
X021067Y002948D01*
X021054Y003107D02*
X017689Y003107D01*
X017442Y003582D02*
X021301Y003582D01*
X021142Y003424D02*
X021054Y003211D01*
X022567Y003582D02*
X022801Y003582D01*
X024320Y005167D02*
X015544Y005167D01*
X015544Y005326D02*
X024193Y005326D01*
X024134Y005484D02*
X015544Y005484D01*
X015544Y005643D02*
X024124Y005643D01*
X024162Y005801D02*
X015544Y005801D01*
X015544Y005960D02*
X017208Y005960D01*
X016958Y006118D02*
X015544Y006118D01*
X015544Y006277D02*
X016837Y006277D01*
X016771Y006435D02*
X015544Y006435D01*
X015544Y006594D02*
X016760Y006594D01*
X016770Y006752D02*
X015544Y006752D01*
X015544Y006911D02*
X016835Y006911D01*
X016955Y007069D02*
X015544Y007069D01*
X015544Y007228D02*
X016857Y007228D01*
X016791Y007386D02*
X015544Y007386D01*
X015544Y007545D02*
X016760Y007545D01*
X016760Y007703D02*
X015544Y007703D01*
X015544Y007862D02*
X016815Y007862D01*
X016906Y008020D02*
X015544Y008020D01*
X015544Y008179D02*
X017039Y008179D01*
X016921Y008337D02*
X015544Y008337D01*
X015544Y008496D02*
X016869Y008496D01*
X016901Y008813D02*
X015544Y008813D01*
X015544Y008971D02*
X016999Y008971D01*
X016947Y009130D02*
X015544Y009130D01*
X015544Y009288D02*
X016734Y009288D01*
X016573Y009447D02*
X015544Y009447D01*
X015544Y009605D02*
X016415Y009605D01*
X016328Y009764D02*
X015544Y009764D01*
X015544Y009922D02*
X016324Y009922D01*
X016324Y010081D02*
X015544Y010081D01*
X015544Y010239D02*
X016324Y010239D01*
X016324Y010398D02*
X015544Y010398D01*
X015544Y010556D02*
X016324Y010556D01*
X016324Y010715D02*
X015544Y010715D01*
X015544Y010873D02*
X016324Y010873D01*
X016324Y011032D02*
X015679Y011032D01*
X015782Y011190D02*
X016334Y011190D01*
X016428Y011349D02*
X015844Y011349D01*
X015844Y011507D02*
X016587Y011507D01*
X016745Y011666D02*
X015817Y011666D01*
X015752Y011824D02*
X016973Y011824D01*
X017059Y011470D02*
X017809Y011470D01*
X018184Y011095D01*
X020059Y011095D01*
X020434Y011470D01*
X021067Y011666D02*
X021074Y011666D01*
X021074Y011824D02*
X021002Y011824D01*
X021074Y011983D02*
X020855Y011983D01*
X021074Y012141D02*
X020090Y012141D01*
X020094Y012300D02*
X020970Y012300D01*
X020812Y012458D02*
X020076Y012458D01*
X020010Y012617D02*
X020653Y012617D01*
X020495Y012775D02*
X019875Y012775D01*
X019587Y012934D02*
X020336Y012934D01*
X020178Y013092D02*
X009678Y013092D01*
X009837Y013251D02*
X020019Y013251D01*
X019861Y013409D02*
X009995Y013409D01*
X010154Y013568D02*
X019702Y013568D01*
X019544Y013726D02*
X013687Y013726D01*
X013846Y013885D02*
X019385Y013885D01*
X019227Y014043D02*
X014004Y014043D01*
X014163Y014202D02*
X019068Y014202D01*
X018910Y014360D02*
X014321Y014360D01*
X014480Y014519D02*
X018751Y014519D01*
X018593Y014677D02*
X014638Y014677D01*
X015108Y014836D02*
X018434Y014836D01*
X018276Y014994D02*
X015253Y014994D01*
X015319Y015153D02*
X018117Y015153D01*
X017959Y015311D02*
X015344Y015311D01*
X015344Y015470D02*
X017800Y015470D01*
X017642Y015628D02*
X015281Y015628D01*
X015176Y015787D02*
X017483Y015787D01*
X017559Y016220D02*
X021434Y012345D01*
X021434Y010345D01*
X023684Y008095D01*
X023684Y007645D01*
X023089Y007703D02*
X022219Y007703D01*
X022219Y007545D02*
X023089Y007545D01*
X023089Y007386D02*
X022187Y007386D01*
X022121Y007228D02*
X023089Y007228D01*
X023089Y007069D02*
X022018Y007069D01*
X022143Y006911D02*
X023089Y006911D01*
X023092Y006752D02*
X022208Y006752D01*
X022219Y006594D02*
X023194Y006594D01*
X023460Y006435D02*
X022207Y006435D01*
X022141Y006277D02*
X023637Y006277D01*
X023809Y006595D02*
X023684Y006720D01*
X023684Y007045D01*
X023809Y006595D02*
X024684Y006595D01*
X025344Y006594D02*
X031609Y006594D01*
X031554Y006435D02*
X025332Y006435D01*
X025266Y006277D02*
X031554Y006277D01*
X031721Y006752D02*
X025333Y006752D01*
X025268Y006911D02*
X031984Y006911D01*
X032884Y006911D02*
X033684Y006911D01*
X033684Y007069D02*
X025143Y007069D01*
X025246Y007228D02*
X033684Y007228D01*
X033684Y007386D02*
X025312Y007386D01*
X025344Y007545D02*
X033684Y007545D01*
X033684Y007703D02*
X032772Y007703D01*
X032684Y007615D02*
X033039Y007970D01*
X033039Y008200D01*
X032454Y008200D01*
X032454Y007615D01*
X032684Y007615D01*
X032454Y007703D02*
X032414Y007703D01*
X032414Y007615D02*
X032414Y008200D01*
X032454Y008200D01*
X032454Y008240D01*
X033039Y008240D01*
X033039Y008471D01*
X032860Y008650D01*
X033139Y008928D01*
X033139Y009512D01*
X032726Y009925D01*
X032142Y009925D01*
X031729Y009512D01*
X031729Y008928D01*
X032008Y008650D01*
X031829Y008471D01*
X031829Y008240D01*
X032414Y008240D01*
X032414Y008200D01*
X031829Y008200D01*
X031829Y007970D01*
X032183Y007615D01*
X032414Y007615D01*
X032414Y007862D02*
X032454Y007862D01*
X032454Y008020D02*
X032414Y008020D01*
X032414Y008179D02*
X032454Y008179D01*
X032931Y007862D02*
X033684Y007862D01*
X033684Y008020D02*
X033039Y008020D01*
X033039Y008179D02*
X033684Y008179D01*
X033684Y008337D02*
X033039Y008337D01*
X033014Y008496D02*
X033684Y008496D01*
X033684Y008654D02*
X032865Y008654D01*
X033023Y008813D02*
X033684Y008813D01*
X033684Y008971D02*
X033139Y008971D01*
X033139Y009130D02*
X033684Y009130D01*
X033684Y009288D02*
X033139Y009288D01*
X033139Y009447D02*
X033684Y009447D01*
X033684Y009605D02*
X033046Y009605D01*
X032887Y009764D02*
X033684Y009764D01*
X033684Y009922D02*
X032729Y009922D01*
X032139Y009922D02*
X028502Y009922D01*
X028544Y010081D02*
X033684Y010081D01*
X033684Y010239D02*
X028544Y010239D01*
X028544Y010398D02*
X033684Y010398D01*
X033684Y010556D02*
X028544Y010556D01*
X028544Y010715D02*
X033684Y010715D01*
X033684Y010873D02*
X028544Y010873D01*
X028544Y011032D02*
X033684Y011032D01*
X033684Y011190D02*
X028544Y011190D01*
X028544Y011349D02*
X033684Y011349D01*
X033684Y011507D02*
X028544Y011507D01*
X028688Y011666D02*
X033684Y011666D01*
X033684Y011824D02*
X032992Y011824D01*
X033062Y011854D02*
X032849Y011765D01*
X032018Y011765D01*
X031805Y011854D01*
X031642Y012017D01*
X031554Y012230D01*
X031554Y012461D01*
X031642Y012674D01*
X031805Y012837D01*
X031825Y012845D01*
X031805Y012854D01*
X031642Y013017D01*
X031554Y013230D01*
X031554Y013461D01*
X031642Y013674D01*
X031805Y013837D01*
X031825Y013845D01*
X031805Y013854D01*
X031642Y014017D01*
X031554Y014230D01*
X031554Y014461D01*
X031642Y014674D01*
X031805Y014837D01*
X031955Y014899D01*
X031950Y014901D01*
X031882Y014935D01*
X031821Y014979D01*
X031768Y015033D01*
X031723Y015094D01*
X031689Y015161D01*
X031666Y015233D01*
X031654Y015308D01*
X031654Y015325D01*
X032414Y015325D01*
X032414Y015365D01*
X031654Y015365D01*
X031654Y015383D01*
X031666Y015458D01*
X031689Y015530D01*
X031723Y015597D01*
X031768Y015658D01*
X031821Y015712D01*
X031882Y015756D01*
X031950Y015790D01*
X032021Y015814D01*
X032096Y015825D01*
X032414Y015825D01*
X032414Y015365D01*
X032454Y015365D01*
X033214Y015365D01*
X033214Y015383D01*
X033202Y015458D01*
X033179Y015530D01*
X033144Y015597D01*
X033100Y015658D01*
X033047Y015712D01*
X032985Y015756D01*
X032918Y015790D01*
X032846Y015814D01*
X032772Y015825D01*
X032454Y015825D01*
X032454Y015365D01*
X032454Y015325D01*
X033214Y015325D01*
X033214Y015308D01*
X033202Y015233D01*
X033179Y015161D01*
X033144Y015094D01*
X033100Y015033D01*
X033047Y014979D01*
X032985Y014935D01*
X032918Y014901D01*
X032913Y014899D01*
X033062Y014837D01*
X033226Y014674D01*
X033314Y014461D01*
X033314Y014230D01*
X033226Y014017D01*
X033062Y013854D01*
X033042Y013845D01*
X033062Y013837D01*
X033226Y013674D01*
X033314Y013461D01*
X033314Y013230D01*
X033226Y013017D01*
X033062Y012854D01*
X033042Y012845D01*
X033062Y012837D01*
X033226Y012674D01*
X033314Y012461D01*
X033314Y012230D01*
X033226Y012017D01*
X033062Y011854D01*
X033192Y011983D02*
X033684Y011983D01*
X033684Y012141D02*
X033277Y012141D01*
X033314Y012300D02*
X033684Y012300D01*
X033684Y012458D02*
X033314Y012458D01*
X033249Y012617D02*
X033684Y012617D01*
X033684Y012775D02*
X033124Y012775D01*
X033143Y012934D02*
X033684Y012934D01*
X033684Y013092D02*
X033257Y013092D01*
X033314Y013251D02*
X033684Y013251D01*
X033684Y013409D02*
X033314Y013409D01*
X033269Y013568D02*
X033684Y013568D01*
X033684Y013726D02*
X033173Y013726D01*
X033094Y013885D02*
X033684Y013885D01*
X033684Y014043D02*
X033237Y014043D01*
X033302Y014202D02*
X033684Y014202D01*
X033684Y014360D02*
X033314Y014360D01*
X033290Y014519D02*
X033684Y014519D01*
X033684Y014677D02*
X033222Y014677D01*
X033064Y014836D02*
X033684Y014836D01*
X033684Y014994D02*
X033062Y014994D01*
X033175Y015153D02*
X033684Y015153D01*
X033684Y015311D02*
X033214Y015311D01*
X033198Y015470D02*
X033684Y015470D01*
X033684Y015628D02*
X033122Y015628D01*
X032925Y015787D02*
X033684Y015787D01*
X033684Y015945D02*
X021794Y015945D01*
X021794Y015787D02*
X031943Y015787D01*
X031746Y015628D02*
X021794Y015628D01*
X021818Y015470D02*
X028674Y015470D01*
X028629Y015424D02*
X028629Y015424D01*
X028516Y015311D02*
X021977Y015311D01*
X022135Y015153D02*
X028357Y015153D01*
X028199Y014994D02*
X022294Y014994D01*
X022184Y014595D02*
X028309Y014595D01*
X028934Y015220D01*
X029684Y015220D01*
X029934Y014970D01*
X029934Y013595D01*
X029684Y013345D01*
X027184Y013345D01*
X025434Y011595D01*
X023934Y011595D01*
X023059Y012470D01*
X023059Y013095D01*
X022559Y012720D02*
X017684Y017595D01*
X014559Y017595D01*
X013934Y017595D02*
X013934Y017220D01*
X014184Y016970D01*
X017809Y016970D01*
X022184Y012595D01*
X022184Y010595D01*
X024184Y008595D01*
X024684Y008595D01*
X025291Y008337D02*
X031829Y008337D01*
X031829Y008179D02*
X025201Y008179D01*
X025192Y008020D02*
X031829Y008020D01*
X031937Y007862D02*
X025288Y007862D01*
X025344Y007703D02*
X032095Y007703D01*
X031854Y008496D02*
X025344Y008496D01*
X025344Y008654D02*
X032003Y008654D01*
X031844Y008813D02*
X025308Y008813D01*
X025241Y008971D02*
X031729Y008971D01*
X031729Y009130D02*
X025152Y009130D01*
X024684Y009595D02*
X023684Y009595D01*
X022559Y010720D01*
X022559Y012720D01*
X021809Y012470D02*
X017684Y016595D01*
X011934Y016595D01*
X011434Y017095D01*
X011819Y017530D02*
X012049Y017530D01*
X012074Y017556D02*
X011934Y017416D01*
X011674Y017675D01*
X011194Y017675D01*
X010934Y017416D01*
X010794Y017556D01*
X010794Y018917D01*
X010739Y019049D01*
X010638Y019151D01*
X010294Y019495D01*
X010294Y019529D01*
X010319Y019519D01*
X010549Y019519D01*
X010761Y019606D01*
X010923Y019769D01*
X010934Y019795D01*
X010945Y019769D01*
X011107Y019606D01*
X011319Y019519D01*
X011549Y019519D01*
X011761Y019606D01*
X011923Y019769D01*
X011934Y019795D01*
X011945Y019769D01*
X012107Y019606D01*
X012319Y019519D01*
X012549Y019519D01*
X012761Y019606D01*
X012923Y019769D01*
X012934Y019795D01*
X012945Y019769D01*
X013107Y019606D01*
X013319Y019519D01*
X013549Y019519D01*
X013761Y019606D01*
X013923Y019769D01*
X014011Y019981D01*
X014011Y020210D01*
X014000Y020235D01*
X015785Y020235D01*
X015824Y020196D01*
X015824Y018649D01*
X015879Y018517D01*
X016440Y017955D01*
X015124Y017955D01*
X015118Y017969D01*
X014933Y018155D01*
X014690Y018255D01*
X014428Y018255D01*
X014185Y018155D01*
X014034Y018004D01*
X013989Y018049D01*
X013888Y018151D01*
X013755Y018205D01*
X012612Y018205D01*
X012480Y018151D01*
X012230Y017901D01*
X012129Y017799D01*
X012074Y017667D01*
X012074Y017556D01*
X012083Y017689D02*
X010794Y017689D01*
X010794Y017848D02*
X012177Y017848D01*
X012335Y018006D02*
X010794Y018006D01*
X010794Y018165D02*
X012513Y018165D01*
X012684Y017845D02*
X012434Y017595D01*
X012434Y017095D01*
X012684Y017845D02*
X013684Y017845D01*
X013934Y017595D01*
X014032Y018006D02*
X014036Y018006D01*
X014208Y018165D02*
X013854Y018165D01*
X014910Y018165D02*
X016231Y018165D01*
X016072Y018323D02*
X010794Y018323D01*
X010794Y018482D02*
X015914Y018482D01*
X015828Y018640D02*
X010794Y018640D01*
X010794Y018799D02*
X015824Y018799D01*
X015824Y018957D02*
X010777Y018957D01*
X010673Y019116D02*
X015824Y019116D01*
X015824Y019274D02*
X010514Y019274D01*
X010356Y019433D02*
X015824Y019433D01*
X015824Y019591D02*
X013723Y019591D01*
X013904Y019750D02*
X015824Y019750D01*
X015824Y019908D02*
X013981Y019908D01*
X014011Y020067D02*
X015824Y020067D01*
X015795Y020225D02*
X014005Y020225D01*
X013144Y019591D02*
X012723Y019591D01*
X012904Y019750D02*
X012964Y019750D01*
X012144Y019591D02*
X011723Y019591D01*
X011904Y019750D02*
X011964Y019750D01*
X011144Y019591D02*
X010723Y019591D01*
X010904Y019750D02*
X010964Y019750D01*
X010434Y018845D02*
X009934Y019345D01*
X009934Y020595D01*
X009434Y021095D01*
X008934Y020595D02*
X008434Y021095D01*
X008934Y020595D02*
X008934Y019595D01*
X009934Y018595D01*
X009934Y016595D01*
X010434Y016095D01*
X010934Y015345D02*
X011434Y015845D01*
X011934Y015345D01*
X013559Y015345D01*
X014434Y016220D01*
X017559Y016220D01*
X019559Y017220D02*
X021434Y017220D01*
X021434Y015345D01*
X022184Y014595D01*
X022059Y014220D02*
X017934Y018345D01*
X017059Y018345D01*
X016559Y018845D01*
X016559Y020595D01*
X016059Y021095D01*
X014684Y021095D01*
X013934Y021845D01*
X006684Y021845D01*
X006434Y021595D01*
X006434Y021095D01*
X005934Y021396D02*
X005923Y021422D01*
X005761Y021585D01*
X005549Y021672D01*
X005319Y021672D01*
X005107Y021585D01*
X004945Y021422D01*
X004934Y021396D01*
X004923Y021422D01*
X004761Y021585D01*
X004549Y021672D01*
X004319Y021672D01*
X004107Y021585D01*
X003945Y021422D01*
X003898Y021308D01*
X003870Y021363D01*
X003823Y021428D01*
X003766Y021484D01*
X003701Y021532D01*
X003630Y021568D01*
X003553Y021593D01*
X003474Y021605D01*
X003452Y021605D01*
X003452Y021114D01*
X003415Y021114D01*
X003415Y021605D01*
X003394Y021605D01*
X003314Y021593D01*
X003238Y021568D01*
X003167Y021532D01*
X003102Y021484D01*
X003045Y021428D01*
X002998Y021363D01*
X002970Y021308D01*
X002923Y021422D01*
X002761Y021585D01*
X002549Y021672D01*
X002319Y021672D01*
X002107Y021585D01*
X001955Y021432D01*
X001951Y021441D01*
X001779Y021613D01*
X001555Y021705D01*
X001313Y021705D01*
X001088Y021613D01*
X000934Y021458D01*
X000934Y021845D01*
X006175Y021845D01*
X006129Y021799D01*
X006074Y021667D01*
X006074Y021551D01*
X005945Y021422D01*
X005934Y021396D01*
X005852Y021493D02*
X006016Y021493D01*
X006074Y021652D02*
X005599Y021652D01*
X005269Y021652D02*
X004599Y021652D01*
X004852Y021493D02*
X005016Y021493D01*
X005434Y021095D02*
X005934Y020595D01*
X005934Y019845D01*
X006434Y019345D01*
X007684Y019345D01*
X008184Y018845D01*
X008184Y014845D01*
X008934Y014095D01*
X007934Y014095D02*
X007684Y014345D01*
X007684Y018595D01*
X007434Y018845D01*
X005934Y018845D01*
X004934Y019845D01*
X004934Y020595D01*
X004434Y021095D01*
X004016Y021493D02*
X003754Y021493D01*
X003884Y021335D02*
X003909Y021335D01*
X003452Y021335D02*
X003415Y021335D01*
X003415Y021493D02*
X003452Y021493D01*
X003113Y021493D02*
X002852Y021493D01*
X002934Y021470D02*
X002934Y021095D01*
X003434Y021095D01*
X003452Y021176D02*
X003415Y021176D01*
X002983Y021335D02*
X002959Y021335D01*
X002934Y021095D02*
X002934Y019595D01*
X002904Y019750D02*
X002964Y019750D01*
X002945Y019769D02*
X003107Y019606D01*
X003319Y019519D01*
X003549Y019519D01*
X003761Y019606D01*
X003923Y019769D01*
X003934Y019795D01*
X003945Y019769D01*
X004107Y019606D01*
X004319Y019519D01*
X004549Y019519D01*
X004692Y019578D01*
X005629Y018642D01*
X005730Y018540D01*
X005862Y018485D01*
X007285Y018485D01*
X007324Y018446D01*
X007324Y014347D01*
X007274Y014227D01*
X007274Y013964D01*
X007348Y013785D01*
X006491Y013785D01*
X006374Y013903D01*
X006374Y015602D01*
X006493Y015722D01*
X006594Y015964D01*
X006594Y016227D01*
X006493Y016469D01*
X006308Y016655D01*
X006294Y016661D01*
X006294Y016667D01*
X006239Y016799D01*
X006138Y016901D01*
X004138Y018901D01*
X004005Y018955D01*
X002583Y018955D01*
X002294Y019245D01*
X002294Y019529D01*
X002319Y019519D01*
X002549Y019519D01*
X002761Y019606D01*
X002923Y019769D01*
X002934Y019795D01*
X002945Y019769D01*
X003144Y019591D02*
X002723Y019591D01*
X002294Y019433D02*
X004838Y019433D01*
X004996Y019274D02*
X002294Y019274D01*
X002423Y019116D02*
X005155Y019116D01*
X005313Y018957D02*
X002581Y018957D01*
X002434Y018595D02*
X003934Y018595D01*
X005934Y016595D01*
X005934Y016095D01*
X006400Y015628D02*
X007324Y015628D01*
X007324Y015470D02*
X006374Y015470D01*
X006374Y015311D02*
X007324Y015311D01*
X007324Y015153D02*
X006374Y015153D01*
X006374Y014994D02*
X007324Y014994D01*
X007324Y014836D02*
X006374Y014836D01*
X006374Y014677D02*
X007324Y014677D01*
X007324Y014519D02*
X006374Y014519D01*
X006374Y014360D02*
X007324Y014360D01*
X007274Y014202D02*
X006374Y014202D01*
X006374Y014043D02*
X007274Y014043D01*
X007307Y013885D02*
X006392Y013885D01*
X005494Y013885D02*
X001891Y013885D01*
X001976Y014043D02*
X005494Y014043D01*
X005494Y014202D02*
X001421Y014202D01*
X001421Y014360D02*
X001321Y014360D01*
X001321Y014519D02*
X001421Y014519D01*
X001309Y014595D02*
X000809Y014595D01*
X000809Y021845D01*
X001434Y021845D01*
X001685Y021652D02*
X002269Y021652D01*
X002016Y021493D02*
X001899Y021493D01*
X001434Y021095D02*
X001934Y020595D01*
X001934Y019095D01*
X002434Y018595D01*
X002197Y018323D02*
X000934Y018323D01*
X000934Y018165D02*
X003856Y018165D01*
X004014Y018006D02*
X000934Y018006D01*
X000934Y017848D02*
X004173Y017848D01*
X004331Y017689D02*
X000934Y017689D01*
X000934Y017530D02*
X004490Y017530D01*
X004648Y017372D02*
X000934Y017372D01*
X000934Y017213D02*
X004807Y017213D01*
X004965Y017055D02*
X000934Y017055D01*
X000934Y016896D02*
X005124Y016896D01*
X005282Y016738D02*
X000934Y016738D01*
X000934Y016579D02*
X005441Y016579D01*
X005354Y016421D02*
X000934Y016421D01*
X000934Y016262D02*
X005289Y016262D01*
X005274Y016104D02*
X000934Y016104D01*
X000934Y015945D02*
X005282Y015945D01*
X005347Y015787D02*
X000934Y015787D01*
X000934Y015628D02*
X005467Y015628D01*
X005494Y015470D02*
X000934Y015470D01*
X000934Y015311D02*
X005494Y015311D01*
X005494Y015153D02*
X000934Y015153D01*
X000934Y014994D02*
X005494Y014994D01*
X005494Y014836D02*
X000934Y014836D01*
X000934Y014677D02*
X000973Y014677D01*
X001321Y014677D02*
X001421Y014677D01*
X001770Y014677D02*
X005494Y014677D01*
X005494Y014519D02*
X001928Y014519D01*
X001976Y014360D02*
X005494Y014360D01*
X005494Y013726D02*
X001733Y013726D01*
X001421Y013726D02*
X001321Y013726D01*
X001321Y013885D02*
X001421Y013885D01*
X001421Y014043D02*
X001321Y014043D01*
X001010Y013726D02*
X000934Y013726D01*
X000934Y013568D02*
X005521Y013568D01*
X005623Y013409D02*
X000934Y013409D01*
X000934Y013251D02*
X005781Y013251D01*
X005940Y013092D02*
X000934Y013092D01*
X000934Y012934D02*
X006152Y012934D01*
X005434Y012220D02*
X003309Y010095D01*
X003309Y006220D01*
X003309Y005220D01*
X003914Y005484D02*
X008329Y005484D01*
X008274Y005326D02*
X003969Y005326D01*
X003969Y005167D02*
X008274Y005167D01*
X008307Y005009D02*
X003936Y005009D01*
X003870Y004850D02*
X008373Y004850D01*
X008529Y004692D02*
X003714Y004692D01*
X002904Y004692D02*
X000934Y004692D01*
X000934Y004850D02*
X002748Y004850D01*
X002682Y005009D02*
X000934Y005009D01*
X000934Y005167D02*
X002649Y005167D01*
X002649Y005326D02*
X000934Y005326D01*
X000934Y005484D02*
X002704Y005484D01*
X002798Y005643D02*
X000934Y005643D01*
X000934Y005801D02*
X002731Y005801D01*
X002604Y005960D02*
X000934Y005960D01*
X000934Y006118D02*
X002604Y006118D01*
X002604Y006277D02*
X000934Y006277D01*
X000934Y006435D02*
X002604Y006435D01*
X002685Y006594D02*
X000934Y006594D01*
X000934Y006752D02*
X002844Y006752D01*
X002949Y006911D02*
X000934Y006911D01*
X000934Y007069D02*
X002949Y007069D01*
X002949Y007228D02*
X000934Y007228D01*
X000934Y007386D02*
X002949Y007386D01*
X002949Y007545D02*
X002239Y007545D01*
X002184Y007490D02*
X002539Y007845D01*
X002539Y008075D01*
X001954Y008075D01*
X001954Y007490D01*
X002184Y007490D01*
X001954Y007545D02*
X001914Y007545D01*
X001914Y007490D02*
X001914Y008075D01*
X001954Y008075D01*
X001954Y008115D01*
X002539Y008115D01*
X002539Y008346D01*
X002360Y008525D01*
X002639Y008803D01*
X002639Y009387D01*
X002431Y009595D01*
X002639Y009803D01*
X002639Y010387D01*
X002226Y010800D01*
X001642Y010800D01*
X001229Y010387D01*
X001229Y009803D01*
X001437Y009595D01*
X001229Y009387D01*
X001229Y008803D01*
X001508Y008525D01*
X001329Y008346D01*
X001329Y008115D01*
X001914Y008115D01*
X001914Y008075D01*
X001329Y008075D01*
X001329Y007845D01*
X001683Y007490D01*
X001914Y007490D01*
X001914Y007703D02*
X001954Y007703D01*
X001954Y007862D02*
X001914Y007862D01*
X001914Y008020D02*
X001954Y008020D01*
X001470Y007703D02*
X000934Y007703D01*
X000934Y007545D02*
X001629Y007545D01*
X001329Y007862D02*
X000934Y007862D01*
X000934Y008020D02*
X001329Y008020D01*
X001329Y008179D02*
X000934Y008179D01*
X000934Y008337D02*
X001329Y008337D01*
X001479Y008496D02*
X000934Y008496D01*
X000934Y008654D02*
X001378Y008654D01*
X001229Y008813D02*
X000934Y008813D01*
X000934Y008971D02*
X001229Y008971D01*
X001229Y009130D02*
X000934Y009130D01*
X000934Y009288D02*
X001229Y009288D01*
X001288Y009447D02*
X000934Y009447D01*
X000934Y009605D02*
X001427Y009605D01*
X001268Y009764D02*
X000934Y009764D01*
X000934Y009922D02*
X001229Y009922D01*
X001229Y010081D02*
X000934Y010081D01*
X000934Y010239D02*
X001229Y010239D01*
X001239Y010398D02*
X000934Y010398D01*
X000934Y010556D02*
X001398Y010556D01*
X001556Y010715D02*
X000934Y010715D01*
X000934Y010873D02*
X003578Y010873D01*
X003419Y010715D02*
X002311Y010715D01*
X002470Y010556D02*
X003261Y010556D01*
X003102Y010398D02*
X002628Y010398D01*
X002639Y010239D02*
X002979Y010239D01*
X002949Y010081D02*
X002639Y010081D01*
X002639Y009922D02*
X002949Y009922D01*
X002949Y009764D02*
X002599Y009764D01*
X002441Y009605D02*
X002949Y009605D01*
X002949Y009447D02*
X002579Y009447D01*
X002639Y009288D02*
X002949Y009288D01*
X002949Y009130D02*
X002639Y009130D01*
X002639Y008971D02*
X002949Y008971D01*
X002949Y008813D02*
X002639Y008813D01*
X002490Y008654D02*
X002949Y008654D01*
X002949Y008496D02*
X002389Y008496D01*
X002539Y008337D02*
X002949Y008337D01*
X002949Y008179D02*
X002539Y008179D01*
X002539Y008020D02*
X002949Y008020D01*
X002949Y007862D02*
X002539Y007862D01*
X002397Y007703D02*
X002949Y007703D01*
X003669Y007703D02*
X008574Y007703D01*
X008574Y007545D02*
X003669Y007545D01*
X003669Y007386D02*
X008574Y007386D01*
X008574Y007228D02*
X003669Y007228D01*
X003669Y007069D02*
X008574Y007069D01*
X008574Y006911D02*
X003669Y006911D01*
X003774Y006752D02*
X008574Y006752D01*
X008574Y006594D02*
X003932Y006594D01*
X004014Y006435D02*
X008574Y006435D01*
X008574Y006277D02*
X004014Y006277D01*
X004014Y006118D02*
X008574Y006118D01*
X008574Y005960D02*
X004014Y005960D01*
X003887Y005801D02*
X008574Y005801D01*
X008423Y005643D02*
X003820Y005643D01*
X003669Y007862D02*
X008574Y007862D01*
X008574Y008020D02*
X003669Y008020D01*
X003669Y008179D02*
X008574Y008179D01*
X008574Y008337D02*
X003669Y008337D01*
X003669Y008496D02*
X008574Y008496D01*
X008574Y008654D02*
X003669Y008654D01*
X003669Y008813D02*
X008574Y008813D01*
X008574Y008971D02*
X003669Y008971D01*
X003669Y009130D02*
X008574Y009130D01*
X008574Y009288D02*
X003669Y009288D01*
X003669Y009447D02*
X008574Y009447D01*
X008490Y009605D02*
X003669Y009605D01*
X003669Y009764D02*
X008357Y009764D01*
X008291Y009922D02*
X003669Y009922D01*
X003804Y010081D02*
X008274Y010081D01*
X008279Y010239D02*
X003962Y010239D01*
X004121Y010398D02*
X005591Y010398D01*
X005414Y010556D02*
X004279Y010556D01*
X004438Y010715D02*
X005325Y010715D01*
X005274Y010873D02*
X004596Y010873D01*
X004755Y011032D02*
X005274Y011032D01*
X005311Y011190D02*
X004913Y011190D01*
X005072Y011349D02*
X005379Y011349D01*
X005230Y011507D02*
X005538Y011507D01*
X005389Y011666D02*
X006120Y011666D01*
X006279Y011824D02*
X005547Y011824D01*
X005434Y012220D02*
X009684Y012220D01*
X010184Y012720D01*
X018121Y012720D01*
X018559Y012283D01*
X018712Y012934D02*
X019281Y012934D01*
X019434Y012283D02*
X018871Y011720D01*
X018246Y011720D01*
X017621Y012345D01*
X010434Y012345D01*
X009934Y011845D01*
X006809Y011845D01*
X005934Y010970D01*
X006542Y010715D02*
X008705Y010715D01*
X008462Y010556D02*
X006453Y010556D01*
X006276Y010398D02*
X008345Y010398D01*
X008934Y010095D02*
X008934Y005220D01*
X009539Y005484D02*
X011499Y005484D01*
X011499Y005643D02*
X009445Y005643D01*
X009294Y005801D02*
X011499Y005801D01*
X011499Y005960D02*
X009294Y005960D01*
X009294Y006118D02*
X011499Y006118D01*
X011499Y006277D02*
X009294Y006277D01*
X009294Y006435D02*
X010117Y006435D01*
X010003Y006482D02*
X010323Y006350D01*
X010670Y006350D01*
X010989Y006482D01*
X011234Y006727D01*
X011367Y007047D01*
X011367Y007394D01*
X011234Y007714D01*
X010989Y007958D01*
X010670Y008091D01*
X010323Y008091D01*
X010003Y007958D01*
X009758Y007714D01*
X009626Y007394D01*
X009626Y007047D01*
X009758Y006727D01*
X010003Y006482D01*
X009892Y006594D02*
X009294Y006594D01*
X009294Y006752D02*
X009748Y006752D01*
X009682Y006911D02*
X009294Y006911D01*
X009294Y007069D02*
X009626Y007069D01*
X009626Y007228D02*
X009294Y007228D01*
X009294Y007386D02*
X009626Y007386D01*
X009689Y007545D02*
X009294Y007545D01*
X009294Y007703D02*
X009754Y007703D01*
X009907Y007862D02*
X009294Y007862D01*
X009294Y008020D02*
X010153Y008020D01*
X010840Y008020D02*
X011499Y008020D01*
X011499Y007862D02*
X011086Y007862D01*
X011239Y007703D02*
X011499Y007703D01*
X011499Y007545D02*
X011304Y007545D01*
X011367Y007386D02*
X011499Y007386D01*
X011499Y007228D02*
X011367Y007228D01*
X011367Y007069D02*
X011499Y007069D01*
X011499Y006911D02*
X011310Y006911D01*
X011245Y006752D02*
X011499Y006752D01*
X011499Y006594D02*
X011101Y006594D01*
X010876Y006435D02*
X011499Y006435D01*
X011372Y005326D02*
X009594Y005326D01*
X009594Y005167D02*
X011214Y005167D01*
X011055Y005009D02*
X009561Y005009D01*
X009495Y004850D02*
X010897Y004850D01*
X012442Y003582D02*
X012676Y003582D01*
X013942Y003582D02*
X014676Y003582D01*
X014517Y003424D02*
X014429Y003211D01*
X014429Y002980D01*
X014517Y002767D01*
X014629Y002655D01*
X013989Y002655D01*
X014101Y002767D01*
X014189Y002980D01*
X014189Y003211D01*
X014101Y003424D01*
X014166Y003265D02*
X014451Y003265D01*
X014429Y003107D02*
X014189Y003107D01*
X014176Y002948D02*
X014442Y002948D01*
X014508Y002790D02*
X014110Y002790D01*
X015942Y003582D02*
X016176Y003582D01*
X015813Y004850D02*
X031813Y004850D01*
X031802Y004692D02*
X030288Y004692D01*
X030505Y004533D02*
X031691Y004533D01*
X031654Y004375D02*
X030663Y004375D01*
X030822Y004216D02*
X031671Y004216D01*
X031666Y004233D02*
X031689Y004161D01*
X031723Y004094D01*
X031768Y004033D01*
X031821Y003979D01*
X031882Y003935D01*
X031950Y003901D01*
X032021Y003877D01*
X032096Y003865D01*
X032414Y003865D01*
X032414Y004325D01*
X031654Y004325D01*
X031654Y004308D01*
X031666Y004233D01*
X031749Y004058D02*
X030980Y004058D01*
X031044Y003899D02*
X031953Y003899D01*
X032414Y003899D02*
X032454Y003899D01*
X032454Y004058D02*
X032414Y004058D01*
X032414Y004216D02*
X032454Y004216D01*
X032915Y003899D02*
X033684Y003899D01*
X033684Y003741D02*
X031044Y003741D01*
X030051Y003582D02*
X029817Y003582D01*
X031650Y005009D02*
X015654Y005009D01*
X017660Y005960D02*
X021368Y005960D01*
X021102Y006118D02*
X017910Y006118D01*
X017434Y006595D02*
X021559Y006595D01*
X022015Y006118D02*
X024227Y006118D01*
X024257Y005960D02*
X021749Y005960D01*
X021559Y007595D02*
X017434Y007595D01*
X017962Y008020D02*
X021050Y008020D01*
X020999Y007969D02*
X020994Y007955D01*
X018014Y007955D01*
X018005Y007977D01*
X017816Y008166D01*
X017871Y008222D01*
X017925Y008295D01*
X017966Y008375D01*
X017993Y008461D01*
X018002Y008515D01*
X017514Y008515D01*
X017514Y008675D01*
X018002Y008675D01*
X017993Y008730D01*
X017966Y008816D01*
X017925Y008896D01*
X017871Y008969D01*
X017816Y009025D01*
X018005Y009214D01*
X018108Y009461D01*
X018108Y009729D01*
X018005Y009977D01*
X017887Y010095D01*
X018005Y010214D01*
X018014Y010235D01*
X020160Y010235D01*
X021199Y009196D01*
X021199Y009161D01*
X021185Y009155D01*
X020999Y008969D01*
X020899Y008727D01*
X020899Y008464D01*
X020999Y008222D01*
X021125Y008095D01*
X020999Y007969D01*
X021042Y008179D02*
X017829Y008179D01*
X017946Y008337D02*
X020951Y008337D01*
X020899Y008496D02*
X017999Y008496D01*
X017966Y008813D02*
X020935Y008813D01*
X020899Y008654D02*
X017514Y008654D01*
X017354Y008654D02*
X015544Y008654D01*
X016684Y009845D02*
X016934Y009595D01*
X017434Y009595D01*
X018028Y009922D02*
X020473Y009922D01*
X020631Y009764D02*
X018093Y009764D01*
X018108Y009605D02*
X020790Y009605D01*
X020948Y009447D02*
X018102Y009447D01*
X018036Y009288D02*
X021107Y009288D01*
X021160Y009130D02*
X017921Y009130D01*
X017869Y008971D02*
X021002Y008971D01*
X021559Y009345D02*
X021559Y008595D01*
X022166Y008337D02*
X022933Y008337D01*
X023091Y008179D02*
X022076Y008179D01*
X022067Y008020D02*
X023126Y008020D01*
X023089Y007862D02*
X022163Y007862D01*
X022219Y008496D02*
X022774Y008496D01*
X022616Y008654D02*
X022219Y008654D01*
X022183Y008813D02*
X022457Y008813D01*
X022299Y008971D02*
X022116Y008971D01*
X022140Y009130D02*
X021958Y009130D01*
X021982Y009288D02*
X021919Y009288D01*
X021559Y009345D02*
X020309Y010595D01*
X017434Y010595D01*
X017901Y010081D02*
X020314Y010081D01*
X021809Y010470D02*
X021809Y012470D01*
X022919Y011983D02*
X023037Y011983D01*
X022919Y011824D02*
X023196Y011824D01*
X023354Y011666D02*
X022919Y011666D01*
X022919Y011507D02*
X023513Y011507D01*
X023671Y011349D02*
X022919Y011349D01*
X022919Y011190D02*
X027824Y011190D01*
X027824Y011032D02*
X022919Y011032D01*
X022919Y010873D02*
X027824Y010873D01*
X027824Y010715D02*
X023073Y010715D01*
X023232Y010556D02*
X027824Y010556D01*
X027824Y010398D02*
X023390Y010398D01*
X023549Y010239D02*
X024514Y010239D01*
X024236Y010081D02*
X023707Y010081D01*
X024684Y009595D02*
X027684Y009595D01*
X028184Y010095D01*
X028184Y012095D01*
X027620Y012458D02*
X026806Y012458D01*
X026648Y012300D02*
X027554Y012300D01*
X027524Y012141D02*
X026489Y012141D01*
X026331Y011983D02*
X027524Y011983D01*
X027582Y011824D02*
X026172Y011824D01*
X026014Y011666D02*
X027680Y011666D01*
X027824Y011507D02*
X025855Y011507D01*
X025697Y011349D02*
X027824Y011349D01*
X028786Y011824D02*
X031876Y011824D01*
X031676Y011983D02*
X028844Y011983D01*
X028844Y012141D02*
X031591Y012141D01*
X031554Y012300D02*
X028814Y012300D01*
X028748Y012458D02*
X031554Y012458D01*
X031619Y012617D02*
X028596Y012617D01*
X027772Y012617D02*
X026965Y012617D01*
X027123Y012775D02*
X031744Y012775D01*
X031725Y012934D02*
X027282Y012934D01*
X028934Y014220D02*
X029309Y014595D01*
X028934Y014220D02*
X022059Y014220D01*
X021934Y013845D02*
X024434Y013845D01*
X024684Y013595D01*
X024684Y012220D01*
X021934Y013845D02*
X017809Y017970D01*
X016934Y017970D01*
X016184Y018720D01*
X016184Y020345D01*
X015934Y020595D01*
X011934Y020595D01*
X011434Y021095D01*
X014478Y021810D02*
X033684Y021810D01*
X033684Y021652D02*
X014637Y021652D01*
X014795Y021493D02*
X033684Y021493D01*
X033684Y021335D02*
X016329Y021335D01*
X016487Y021176D02*
X033684Y021176D01*
X033684Y021018D02*
X016646Y021018D01*
X016804Y020859D02*
X033684Y020859D01*
X033684Y020701D02*
X031267Y020701D01*
X031496Y020542D02*
X033684Y020542D01*
X033684Y020384D02*
X031655Y020384D01*
X031823Y020216D02*
X032012Y020137D01*
X032176Y019974D01*
X032184Y019954D01*
X032192Y019974D01*
X032355Y020137D01*
X032568Y020225D01*
X032800Y020225D02*
X033684Y020225D01*
X033684Y020067D02*
X033083Y020067D01*
X033203Y019908D02*
X033684Y019908D01*
X033684Y019750D02*
X033264Y019750D01*
X033264Y019591D02*
X033684Y019591D01*
X033684Y019433D02*
X033264Y019433D01*
X033264Y019274D02*
X033684Y019274D01*
X033684Y019116D02*
X033264Y019116D01*
X033264Y018957D02*
X033684Y018957D01*
X033684Y018799D02*
X033209Y018799D01*
X033099Y018640D02*
X033684Y018640D01*
X033684Y018482D02*
X032838Y018482D01*
X032671Y018323D02*
X033684Y018323D01*
X033684Y018165D02*
X032511Y018165D01*
X032437Y018006D02*
X033684Y018006D01*
X033684Y017848D02*
X032663Y017848D01*
X032552Y017958D02*
X032232Y018091D01*
X031886Y018091D01*
X031566Y017958D01*
X031321Y017714D01*
X031188Y017394D01*
X031188Y017047D01*
X031321Y016727D01*
X031566Y016482D01*
X031886Y016350D01*
X032232Y016350D01*
X032552Y016482D01*
X032797Y016727D01*
X032929Y017047D01*
X032929Y017394D01*
X032797Y017714D01*
X032552Y017958D01*
X032807Y017689D02*
X033684Y017689D01*
X033684Y017530D02*
X032873Y017530D01*
X032929Y017372D02*
X033684Y017372D01*
X033684Y017213D02*
X032929Y017213D01*
X032929Y017055D02*
X033684Y017055D01*
X033684Y016896D02*
X032867Y016896D01*
X032801Y016738D02*
X033684Y016738D01*
X033684Y016579D02*
X032649Y016579D01*
X032404Y016421D02*
X033684Y016421D01*
X033684Y016262D02*
X021794Y016262D01*
X021794Y016104D02*
X033684Y016104D01*
X032454Y015787D02*
X032414Y015787D01*
X032414Y015628D02*
X032454Y015628D01*
X032454Y015470D02*
X032414Y015470D01*
X031806Y014994D02*
X030294Y014994D01*
X030294Y014836D02*
X031804Y014836D01*
X031646Y014677D02*
X030294Y014677D01*
X030294Y014519D02*
X031578Y014519D01*
X031554Y014360D02*
X030294Y014360D01*
X030294Y014202D02*
X031566Y014202D01*
X031631Y014043D02*
X030294Y014043D01*
X030294Y013885D02*
X031774Y013885D01*
X031695Y013726D02*
X030294Y013726D01*
X030294Y013568D02*
X031598Y013568D01*
X031554Y013409D02*
X030246Y013409D01*
X030099Y013251D02*
X031554Y013251D01*
X031611Y013092D02*
X029940Y013092D01*
X030248Y015153D02*
X031693Y015153D01*
X031654Y015311D02*
X030102Y015311D01*
X029943Y015470D02*
X031670Y015470D01*
X031714Y016421D02*
X028543Y016421D01*
X028325Y016421D02*
X027543Y016421D01*
X027325Y016421D02*
X026543Y016421D01*
X026325Y016421D02*
X025543Y016421D01*
X025325Y016421D02*
X024543Y016421D01*
X024325Y016421D02*
X023543Y016421D01*
X023325Y016421D02*
X022543Y016421D01*
X022325Y016421D02*
X021794Y016421D01*
X021817Y016579D02*
X022051Y016579D01*
X021942Y016738D02*
X021926Y016738D01*
X022434Y017220D02*
X022434Y017970D01*
X022184Y018220D01*
X020684Y018220D01*
X020434Y018470D01*
X020434Y019345D01*
X019434Y019345D02*
X019434Y019845D01*
X019934Y020345D01*
X020934Y020345D01*
X021434Y019845D01*
X021934Y020345D01*
X022934Y020345D01*
X023434Y019845D01*
X023934Y020345D01*
X025184Y020345D01*
X025684Y019845D01*
X026184Y020345D01*
X027184Y020345D01*
X027684Y019845D01*
X028184Y020345D01*
X029184Y020345D01*
X029684Y019845D01*
X030184Y020345D01*
X031184Y020345D01*
X031684Y019845D01*
X031684Y019345D01*
X032083Y020067D02*
X032285Y020067D01*
X032684Y019345D02*
X032684Y018845D01*
X032309Y018470D01*
X028809Y018470D01*
X028434Y018095D01*
X028434Y017220D01*
X028974Y017213D02*
X028994Y017213D01*
X028994Y017220D02*
X028994Y016926D01*
X029005Y016857D01*
X029026Y016792D01*
X029058Y016730D01*
X029098Y016674D01*
X029147Y016625D01*
X029203Y016584D01*
X029265Y016553D01*
X029331Y016531D01*
X029399Y016520D01*
X029434Y016520D01*
X029468Y016520D01*
X029537Y016531D01*
X029603Y016553D01*
X029664Y016584D01*
X029721Y016625D01*
X029769Y016674D01*
X029810Y016730D01*
X029842Y016792D01*
X029863Y016857D01*
X029874Y016926D01*
X029874Y017220D01*
X029434Y017220D01*
X029434Y016520D01*
X029434Y017220D01*
X029434Y017220D01*
X029434Y017220D01*
X028994Y017220D01*
X029434Y017220D01*
X029434Y017220D01*
X029874Y017220D01*
X029874Y017515D01*
X029863Y017584D01*
X029842Y017649D01*
X029810Y017711D01*
X029769Y017767D01*
X029721Y017816D01*
X029664Y017857D01*
X029603Y017888D01*
X029537Y017910D01*
X029468Y017920D01*
X029434Y017920D01*
X029434Y017220D01*
X029434Y017220D01*
X029434Y017920D01*
X029399Y017920D01*
X029331Y017910D01*
X029265Y017888D01*
X029203Y017857D01*
X029147Y017816D01*
X029098Y017767D01*
X029058Y017711D01*
X029026Y017649D01*
X029005Y017584D01*
X028994Y017515D01*
X028994Y017220D01*
X028994Y017372D02*
X028974Y017372D01*
X028974Y017530D02*
X028996Y017530D01*
X029046Y017689D02*
X028932Y017689D01*
X028831Y017848D02*
X029190Y017848D01*
X029434Y017848D02*
X029434Y017848D01*
X029434Y017689D02*
X029434Y017689D01*
X029434Y017530D02*
X029434Y017530D01*
X029434Y017372D02*
X029434Y017372D01*
X029434Y017213D02*
X029434Y017213D01*
X029434Y017055D02*
X029434Y017055D01*
X029434Y016896D02*
X029434Y016896D01*
X029434Y016738D02*
X029434Y016738D01*
X029434Y016579D02*
X029434Y016579D01*
X029655Y016579D02*
X031469Y016579D01*
X031316Y016738D02*
X029814Y016738D01*
X029869Y016896D02*
X031251Y016896D01*
X031188Y017055D02*
X029874Y017055D01*
X029874Y017213D02*
X031188Y017213D01*
X031188Y017372D02*
X029874Y017372D01*
X029871Y017530D02*
X031245Y017530D01*
X031311Y017689D02*
X029821Y017689D01*
X029677Y017848D02*
X031455Y017848D01*
X031680Y018006D02*
X028854Y018006D01*
X028309Y018470D02*
X028684Y018845D01*
X028684Y019345D01*
X029684Y019345D02*
X029684Y019845D01*
X029655Y020384D02*
X029713Y020384D01*
X029871Y020542D02*
X029496Y020542D01*
X029267Y020701D02*
X030100Y020701D01*
X028100Y020701D02*
X027267Y020701D01*
X027496Y020542D02*
X027871Y020542D01*
X027713Y020384D02*
X027655Y020384D01*
X027684Y019845D02*
X027684Y019345D01*
X026684Y019345D02*
X026684Y018720D01*
X026434Y018470D01*
X025684Y018470D01*
X025434Y018220D01*
X025434Y017220D01*
X025926Y016738D02*
X025942Y016738D01*
X026051Y016579D02*
X025817Y016579D01*
X025051Y016579D02*
X024817Y016579D01*
X024926Y016738D02*
X024942Y016738D01*
X024434Y017220D02*
X024434Y019345D01*
X023434Y019345D02*
X023434Y019845D01*
X023405Y020384D02*
X023463Y020384D01*
X023621Y020542D02*
X023246Y020542D01*
X023017Y020701D02*
X023850Y020701D01*
X025267Y020701D02*
X026100Y020701D01*
X025871Y020542D02*
X025496Y020542D01*
X025655Y020384D02*
X025713Y020384D01*
X025684Y019845D02*
X025684Y019345D01*
X026934Y018470D02*
X028309Y018470D01*
X026934Y018470D02*
X026434Y017970D01*
X026434Y017220D01*
X026926Y016738D02*
X026942Y016738D01*
X027051Y016579D02*
X026817Y016579D01*
X027817Y016579D02*
X028051Y016579D01*
X027942Y016738D02*
X027926Y016738D01*
X028817Y016579D02*
X029212Y016579D01*
X029053Y016738D02*
X028926Y016738D01*
X028974Y016896D02*
X028999Y016896D01*
X028994Y017055D02*
X028974Y017055D01*
X024051Y016579D02*
X023817Y016579D01*
X023926Y016738D02*
X023942Y016738D01*
X023434Y017220D02*
X023434Y017845D01*
X022434Y018845D01*
X022434Y019345D01*
X021434Y019345D02*
X021434Y019845D01*
X021405Y020384D02*
X021463Y020384D01*
X021621Y020542D02*
X021246Y020542D01*
X021017Y020701D02*
X021850Y020701D01*
X021629Y020549D02*
X021629Y020549D01*
X019850Y020701D02*
X019017Y020701D01*
X019246Y020542D02*
X019621Y020542D01*
X019463Y020384D02*
X019405Y020384D01*
X018934Y020345D02*
X019434Y019845D01*
X018934Y020345D02*
X017934Y020345D01*
X017434Y019845D01*
X017434Y019345D01*
X017035Y020067D02*
X016919Y020067D01*
X016919Y020225D02*
X017304Y020225D01*
X017463Y020384D02*
X016919Y020384D01*
X016919Y020542D02*
X017621Y020542D01*
X017850Y020701D02*
X016905Y020701D01*
X018434Y019345D02*
X018434Y018345D01*
X019559Y017220D01*
X016389Y018006D02*
X015082Y018006D01*
X011434Y016095D02*
X011434Y015845D01*
X010934Y015345D02*
X009184Y015345D01*
X008684Y015845D01*
X008684Y019095D01*
X008434Y019345D01*
X008434Y020095D01*
X010434Y018845D02*
X010434Y017095D01*
X010819Y017530D02*
X011049Y017530D01*
X007324Y017530D02*
X005508Y017530D01*
X005666Y017372D02*
X007324Y017372D01*
X007324Y017213D02*
X005825Y017213D01*
X005983Y017055D02*
X007324Y017055D01*
X007324Y016896D02*
X006142Y016896D01*
X006264Y016738D02*
X007324Y016738D01*
X007324Y016579D02*
X006383Y016579D01*
X006513Y016421D02*
X007324Y016421D01*
X007324Y016262D02*
X006579Y016262D01*
X006594Y016104D02*
X007324Y016104D01*
X007324Y015945D02*
X006586Y015945D01*
X006520Y015787D02*
X007324Y015787D01*
X007324Y017689D02*
X005349Y017689D01*
X005191Y017848D02*
X007324Y017848D01*
X007324Y018006D02*
X005032Y018006D01*
X004874Y018165D02*
X007324Y018165D01*
X007324Y018323D02*
X004715Y018323D01*
X004557Y018482D02*
X007289Y018482D01*
X005630Y018640D02*
X004398Y018640D01*
X004240Y018799D02*
X005472Y018799D01*
X004144Y019591D02*
X003723Y019591D01*
X003904Y019750D02*
X003964Y019750D01*
X002039Y018482D02*
X000934Y018482D01*
X000934Y018640D02*
X001880Y018640D01*
X001722Y018799D02*
X000934Y018799D01*
X000934Y018957D02*
X001602Y018957D01*
X001574Y019116D02*
X000934Y019116D01*
X000934Y019274D02*
X001574Y019274D01*
X001574Y019433D02*
X000934Y019433D01*
X000934Y019591D02*
X000949Y019591D01*
X000934Y021493D02*
X000969Y021493D01*
X000934Y021652D02*
X001182Y021652D01*
X000934Y021810D02*
X006139Y021810D01*
X004269Y021652D02*
X002599Y021652D01*
X000934Y012775D02*
X009730Y012775D01*
X009571Y012617D02*
X000934Y012617D01*
X000934Y012458D02*
X005163Y012458D01*
X005004Y012300D02*
X000934Y012300D01*
X000934Y012141D02*
X004846Y012141D01*
X004687Y011983D02*
X000934Y011983D01*
X000934Y011824D02*
X004529Y011824D01*
X004370Y011666D02*
X000934Y011666D01*
X000934Y011507D02*
X004212Y011507D01*
X004053Y011349D02*
X000934Y011349D01*
X000934Y011190D02*
X003895Y011190D01*
X003736Y011032D02*
X000934Y011032D01*
X006594Y011032D02*
X010349Y011032D01*
X010341Y011058D02*
X010364Y010986D01*
X010398Y010919D01*
X010443Y010858D01*
X010496Y010804D01*
X010557Y010760D01*
X010625Y010726D01*
X010641Y010720D01*
X010625Y010715D01*
X010557Y010681D01*
X010496Y010637D01*
X010443Y010583D01*
X010398Y010522D01*
X010364Y010455D01*
X010341Y010383D01*
X010329Y010308D01*
X010329Y009990D01*
X010789Y009990D01*
X010789Y010750D01*
X010789Y011450D01*
X010329Y011450D01*
X010329Y011133D01*
X010341Y011058D01*
X010329Y011190D02*
X006663Y011190D01*
X006822Y011349D02*
X010329Y011349D01*
X010329Y011507D02*
X010059Y011507D01*
X010264Y011666D02*
X010329Y011666D01*
X010789Y011349D02*
X010829Y011349D01*
X010829Y011190D02*
X010789Y011190D01*
X010789Y011032D02*
X010829Y011032D01*
X010829Y010873D02*
X010789Y010873D01*
X010789Y010715D02*
X010829Y010715D01*
X010829Y010556D02*
X010789Y010556D01*
X010789Y010398D02*
X010829Y010398D01*
X010829Y010239D02*
X010789Y010239D01*
X010789Y010081D02*
X010829Y010081D01*
X010789Y009950D02*
X010329Y009950D01*
X010329Y009633D01*
X010341Y009558D01*
X010364Y009486D01*
X010398Y009419D01*
X010443Y009358D01*
X010496Y009304D01*
X010557Y009260D01*
X010625Y009226D01*
X010696Y009202D01*
X010771Y009190D01*
X010789Y009190D01*
X010789Y009950D01*
X010789Y009922D02*
X010829Y009922D01*
X010829Y009764D02*
X010789Y009764D01*
X010789Y009605D02*
X010829Y009605D01*
X010829Y009447D02*
X010789Y009447D01*
X010789Y009288D02*
X010829Y009288D01*
X011100Y009288D02*
X011249Y009288D01*
X011249Y009130D02*
X009294Y009130D01*
X009294Y009288D02*
X010518Y009288D01*
X010384Y009447D02*
X009294Y009447D01*
X009377Y009605D02*
X010333Y009605D01*
X010329Y009764D02*
X009511Y009764D01*
X009577Y009922D02*
X010329Y009922D01*
X010329Y010081D02*
X009594Y010081D01*
X009589Y010239D02*
X010329Y010239D01*
X010346Y010398D02*
X009523Y010398D01*
X009406Y010556D02*
X010423Y010556D01*
X010624Y010715D02*
X009163Y010715D01*
X010431Y010873D02*
X006594Y010873D01*
X009294Y008971D02*
X011306Y008971D01*
X011424Y008813D02*
X009294Y008813D01*
X009294Y008654D02*
X011499Y008654D01*
X011499Y008496D02*
X009294Y008496D01*
X009294Y008337D02*
X011499Y008337D01*
X011499Y008179D02*
X009294Y008179D01*
X011234Y009447D02*
X011249Y009447D01*
X015605Y011983D02*
X017475Y011983D01*
X017059Y011470D02*
X016684Y011095D01*
X016684Y009845D01*
X021809Y010470D02*
X024684Y007595D01*
X025058Y006036D02*
X025040Y006029D01*
X025049Y006023D01*
X025111Y005960D01*
X025206Y005801D02*
X031770Y005801D01*
X031629Y005643D02*
X025243Y005643D01*
X025233Y005484D02*
X031564Y005484D01*
X031554Y005326D02*
X025175Y005326D01*
X025048Y005167D02*
X031580Y005167D01*
X033054Y004850D02*
X033684Y004850D01*
X033684Y004692D02*
X033066Y004692D01*
X033177Y004533D02*
X033684Y004533D01*
X033684Y004375D02*
X033214Y004375D01*
X033197Y004216D02*
X033684Y004216D01*
X033684Y004058D02*
X033118Y004058D01*
X033218Y005009D02*
X033684Y005009D01*
X033684Y005167D02*
X033288Y005167D01*
X033314Y005326D02*
X033684Y005326D01*
X033684Y005484D02*
X033304Y005484D01*
X033238Y005643D02*
X033684Y005643D01*
X033684Y005801D02*
X033098Y005801D01*
X033169Y005960D02*
X033684Y005960D01*
X033684Y006118D02*
X033268Y006118D01*
X033314Y006277D02*
X033684Y006277D01*
X033684Y006435D02*
X033314Y006435D01*
X033259Y006594D02*
X033684Y006594D01*
X033684Y006752D02*
X033147Y006752D01*
X031729Y009288D02*
X027883Y009288D01*
X027989Y009392D02*
X027989Y009392D01*
X028044Y009447D02*
X031729Y009447D01*
X031822Y009605D02*
X028203Y009605D01*
X028361Y009764D02*
X031980Y009764D01*
X027819Y010239D02*
X024854Y010239D01*
X025132Y010081D02*
X027660Y010081D01*
X024684Y005484D02*
X024684Y005484D01*
X024684Y005326D02*
X024684Y005326D01*
X024684Y005167D02*
X024684Y005167D01*
X016829Y001046D02*
X016789Y001046D01*
X016789Y001075D02*
X016089Y001075D01*
X015329Y001075D01*
X015329Y001115D01*
X016789Y001115D01*
X016789Y001075D01*
X016789Y000888D02*
X016829Y000888D01*
X016829Y000729D02*
X016789Y000729D01*
X016196Y000729D02*
X015922Y000729D01*
X016042Y000888D02*
X016076Y000888D01*
X015329Y000888D02*
X015289Y000888D01*
X015289Y001046D02*
X015329Y001046D01*
X015289Y001075D02*
X015289Y000615D01*
X014971Y000615D01*
X014896Y000627D01*
X014825Y000651D01*
X014757Y000685D01*
X014696Y000729D01*
X014643Y000783D01*
X014598Y000844D01*
X014564Y000911D01*
X014541Y000983D01*
X014529Y001058D01*
X014529Y001075D01*
X015289Y001075D01*
X015289Y000729D02*
X015329Y000729D01*
X014696Y000729D02*
X013922Y000729D01*
X014042Y000888D02*
X014576Y000888D01*
X014531Y001046D02*
X014087Y001046D01*
X014078Y001205D02*
X014540Y001205D01*
X014610Y001363D02*
X014007Y001363D01*
X013829Y001522D02*
X014789Y001522D01*
X013329Y001046D02*
X013289Y001046D01*
X013289Y001075D02*
X012529Y001075D01*
X011829Y001075D01*
X011829Y001115D01*
X013289Y001115D01*
X013289Y001075D01*
X013289Y000888D02*
X013329Y000888D01*
X013329Y000729D02*
X013289Y000729D01*
X012696Y000729D02*
X012422Y000729D01*
X012542Y000888D02*
X012576Y000888D01*
X011829Y000888D02*
X011789Y000888D01*
X011789Y001046D02*
X011829Y001046D01*
X011789Y001075D02*
X011789Y000615D01*
X011471Y000615D01*
X011396Y000627D01*
X011325Y000651D01*
X011257Y000685D01*
X011196Y000729D01*
X011143Y000783D01*
X011098Y000844D01*
X011064Y000911D01*
X011041Y000983D01*
X011029Y001058D01*
X011029Y001075D01*
X011789Y001075D01*
X011789Y000729D02*
X011829Y000729D01*
X011196Y000729D02*
X010422Y000729D01*
X010542Y000888D02*
X011076Y000888D01*
X011031Y001046D02*
X010587Y001046D01*
X010578Y001205D02*
X011040Y001205D01*
X011110Y001363D02*
X010507Y001363D01*
X010329Y001522D02*
X011289Y001522D01*
X009829Y001046D02*
X009789Y001046D01*
X009789Y001075D02*
X009029Y001075D01*
X008329Y001075D01*
X008329Y001115D01*
X009789Y001115D01*
X009789Y001075D01*
X009789Y000888D02*
X009829Y000888D01*
X009829Y000729D02*
X009789Y000729D01*
X009196Y000729D02*
X008922Y000729D01*
X009042Y000888D02*
X009076Y000888D01*
X008329Y000888D02*
X008289Y000888D01*
X008289Y001046D02*
X008329Y001046D01*
X008329Y000729D02*
X008289Y000729D01*
X009465Y012934D02*
X009888Y012934D01*
X022817Y016579D02*
X023051Y016579D01*
X022942Y016738D02*
X022926Y016738D01*
D22*
X014684Y015345D02*
X013434Y014095D01*
X010059Y014095D01*
X009309Y013345D01*
X006309Y013345D01*
X005934Y013720D01*
X005934Y016095D01*
D23*
X011809Y011470D02*
X011809Y009970D01*
X011809Y009220D01*
X012059Y008970D01*
X012059Y005220D01*
X010809Y003970D01*
X010809Y002095D01*
X009809Y002095D01*
X008309Y002095D01*
X010809Y002095D02*
X011809Y002095D01*
X013309Y002095D01*
X015309Y002095D01*
X016809Y002095D01*
X021934Y002095D01*
X026434Y002095D01*
X027184Y002095D02*
X025684Y002095D01*
X023434Y002095D01*
X021934Y002095D01*
X027184Y002095D02*
X029184Y002095D01*
X030684Y002095D01*
M02*
