%
M48
M72
T01C0.0236
T02C0.0315
T03C0.0320
T04C0.0360
T05C0.0394
T06C0.0400
T07C0.0470
T08C0.0520
T09C0.0787
T10C0.1181
%
T01
X6300Y2907
X7300Y2782
X7175Y4657
X4425Y6782
X8550Y9657
X9300Y10157
X7925Y11532
X11675Y12907
X10425Y14907
X10550Y16657
X10300Y17782
X9800Y18282
X8550Y19532
X9675Y19782
X8425Y20532
X10049Y21157
X12925Y22532
X17175Y20532
X17925Y20532
X18925Y19907
X19675Y18907
X18675Y18282
X17925Y18282
X15550Y17282
X18550Y13907
X19050Y11532
X17050Y10282
X17300Y9532
X17925Y8907
X17675Y8157
X18175Y9907
X14800Y12032
X12675Y9969
X12675Y9282
X13175Y8782
X13550Y8219
X13300Y6157
X22050Y11907
X25300Y11907
X27550Y14657
X28050Y16157
X26175Y16657
X25300Y17407
X25425Y15907
X24550Y15532
X23050Y16657
X26800Y20125
X28175Y19407
X27925Y18657
X29550Y18657
X30050Y18157
X24425Y20532
X21425Y21532
X20675Y21532
X27800Y23157
X22550Y7532
X26925Y7157
X7488Y18219
X7363Y18844
X5175Y18032
X2425Y20532
X1425Y21157
X1175Y18657
X6300Y21157
T02
X25175Y10657
X25175Y9657
X25175Y8657
X25175Y7657
X25175Y6657
X31425Y14782
T03
X25988Y13157
X24988Y13157
T04
X6300Y15907
X5300Y15907
T05
X5425Y22032
X4425Y22032
X3425Y22032
X2425Y22032
X1425Y22032
X1425Y23032
X2425Y23032
X3425Y23032
X4425Y23032
X5425Y23032
X6425Y23032
X7425Y23032
X8425Y23032
X9425Y23032
X10425Y23032
X11425Y23032
X12425Y23032
X13425Y23032
X13425Y22032
X12425Y22032
X11425Y22032
X10425Y22032
X9425Y22032
X8425Y22032
X7425Y22032
X6425Y22032
T06
X10425Y20157
X11425Y20157
X12425Y20157
X13425Y20157
X14425Y20157
X14425Y19157
X13425Y19157
X12425Y19157
X11425Y19157
X10425Y19157
X11425Y17282
X12425Y17282
X13425Y17282
X14425Y17282
X20175Y13782
X21175Y13782
X22175Y13782
X23175Y13782
X23175Y12782
X22175Y12782
X21175Y12782
X20175Y12782
X19675Y4782
X19675Y3782
X19675Y2782
X21050Y2782
X21050Y3782
X21050Y4782
X22425Y4782
X22425Y3782
X22425Y2782
X23800Y2782
X23800Y3782
X23800Y4782
X25175Y4782
X25175Y3782
X25175Y2782
X26550Y2782
X26550Y3782
X26550Y4782
X28425Y3282
X29425Y3282
X30425Y3282
X32675Y9032
X32675Y10032
X32800Y21782
X31800Y21782
X30800Y21782
X29800Y21782
X28800Y21782
X28800Y22782
X29800Y22782
X30800Y22782
X31800Y22782
X32800Y22782
X26675Y22782
X25675Y22782
X24675Y22782
X23675Y22782
X22675Y22782
X22675Y21782
X23675Y21782
X24675Y21782
X25675Y21782
X26675Y21782
X20925Y22782
X19925Y22782
X18925Y22782
X17925Y22782
X16925Y22782
X15925Y22782
X14925Y22782
X2300Y17344
X2300Y16344
X8300Y7657
X9300Y7657
X10300Y7657
X10300Y6282
X9300Y6282
X8300Y6282
X8300Y4782
X8300Y3782
X8300Y2782
X9675Y2782
X9675Y3782
X9675Y4782
X11050Y4782
X11050Y3782
X11050Y2782
X12425Y2782
X12425Y3782
X12425Y4782
X13800Y4782
X13800Y3782
X13800Y2782
X15175Y2782
X15175Y3782
X15175Y4782
T07
X2558Y10813
X2558Y12782
X2558Y14750
T08
X7175Y10907
X1488Y8907
T09
X31425Y12182
X31425Y17382
T10
X32050Y19157
X10488Y9157
M30
