G75*
G70*
%OFA0B0*%
%FSLAX24Y24*%
%IPPOS*%
%LPD*%
%AMOC8*
5,1,8,0,0,1.08239X$1,22.5*
%
%ADD10C,0.0000*%
%ADD11C,0.0040*%
%ADD12C,0.0070*%
%ADD13C,0.0080*%
%ADD14C,0.0001*%
%ADD15C,0.0060*%
%ADD16C,0.0020*%
%ADD17C,0.0050*%
%ADD18C,0.0100*%
%ADD19C,0.0030*%
%ADD20R,0.0079X0.0079*%
%ADD21R,0.0197X0.0295*%
D10*
X000500Y000500D02*
X000500Y021500D01*
X025900Y021500D01*
X026500Y020900D01*
X026500Y016400D01*
X027500Y015400D01*
X027500Y002500D01*
X026500Y001500D01*
X026500Y000500D01*
X000500Y000500D01*
X005409Y001500D02*
X005411Y001548D01*
X005417Y001596D01*
X005427Y001643D01*
X005440Y001689D01*
X005458Y001734D01*
X005478Y001778D01*
X005503Y001820D01*
X005531Y001859D01*
X005561Y001896D01*
X005595Y001930D01*
X005632Y001962D01*
X005670Y001991D01*
X005711Y002016D01*
X005754Y002038D01*
X005799Y002056D01*
X005845Y002070D01*
X005892Y002081D01*
X005940Y002088D01*
X005988Y002091D01*
X006036Y002090D01*
X006084Y002085D01*
X006132Y002076D01*
X006178Y002064D01*
X006223Y002047D01*
X006267Y002027D01*
X006309Y002004D01*
X006349Y001977D01*
X006387Y001947D01*
X006422Y001914D01*
X006454Y001878D01*
X006484Y001840D01*
X006510Y001799D01*
X006532Y001756D01*
X006552Y001712D01*
X006567Y001667D01*
X006579Y001620D01*
X006587Y001572D01*
X006591Y001524D01*
X006591Y001476D01*
X006587Y001428D01*
X006579Y001380D01*
X006567Y001333D01*
X006552Y001288D01*
X006532Y001244D01*
X006510Y001201D01*
X006484Y001160D01*
X006454Y001122D01*
X006422Y001086D01*
X006387Y001053D01*
X006349Y001023D01*
X006309Y000996D01*
X006267Y000973D01*
X006223Y000953D01*
X006178Y000936D01*
X006132Y000924D01*
X006084Y000915D01*
X006036Y000910D01*
X005988Y000909D01*
X005940Y000912D01*
X005892Y000919D01*
X005845Y000930D01*
X005799Y000944D01*
X005754Y000962D01*
X005711Y000984D01*
X005670Y001009D01*
X005632Y001038D01*
X005595Y001070D01*
X005561Y001104D01*
X005531Y001141D01*
X005503Y001180D01*
X005478Y001222D01*
X005458Y001266D01*
X005440Y001311D01*
X005427Y001357D01*
X005417Y001404D01*
X005411Y001452D01*
X005409Y001500D01*
X025909Y003500D02*
X025911Y003548D01*
X025917Y003596D01*
X025927Y003643D01*
X025940Y003689D01*
X025958Y003734D01*
X025978Y003778D01*
X026003Y003820D01*
X026031Y003859D01*
X026061Y003896D01*
X026095Y003930D01*
X026132Y003962D01*
X026170Y003991D01*
X026211Y004016D01*
X026254Y004038D01*
X026299Y004056D01*
X026345Y004070D01*
X026392Y004081D01*
X026440Y004088D01*
X026488Y004091D01*
X026536Y004090D01*
X026584Y004085D01*
X026632Y004076D01*
X026678Y004064D01*
X026723Y004047D01*
X026767Y004027D01*
X026809Y004004D01*
X026849Y003977D01*
X026887Y003947D01*
X026922Y003914D01*
X026954Y003878D01*
X026984Y003840D01*
X027010Y003799D01*
X027032Y003756D01*
X027052Y003712D01*
X027067Y003667D01*
X027079Y003620D01*
X027087Y003572D01*
X027091Y003524D01*
X027091Y003476D01*
X027087Y003428D01*
X027079Y003380D01*
X027067Y003333D01*
X027052Y003288D01*
X027032Y003244D01*
X027010Y003201D01*
X026984Y003160D01*
X026954Y003122D01*
X026922Y003086D01*
X026887Y003053D01*
X026849Y003023D01*
X026809Y002996D01*
X026767Y002973D01*
X026723Y002953D01*
X026678Y002936D01*
X026632Y002924D01*
X026584Y002915D01*
X026536Y002910D01*
X026488Y002909D01*
X026440Y002912D01*
X026392Y002919D01*
X026345Y002930D01*
X026299Y002944D01*
X026254Y002962D01*
X026211Y002984D01*
X026170Y003009D01*
X026132Y003038D01*
X026095Y003070D01*
X026061Y003104D01*
X026031Y003141D01*
X026003Y003180D01*
X025978Y003222D01*
X025958Y003266D01*
X025940Y003311D01*
X025927Y003357D01*
X025917Y003404D01*
X025911Y003452D01*
X025909Y003500D01*
X025909Y014500D02*
X025911Y014548D01*
X025917Y014596D01*
X025927Y014643D01*
X025940Y014689D01*
X025958Y014734D01*
X025978Y014778D01*
X026003Y014820D01*
X026031Y014859D01*
X026061Y014896D01*
X026095Y014930D01*
X026132Y014962D01*
X026170Y014991D01*
X026211Y015016D01*
X026254Y015038D01*
X026299Y015056D01*
X026345Y015070D01*
X026392Y015081D01*
X026440Y015088D01*
X026488Y015091D01*
X026536Y015090D01*
X026584Y015085D01*
X026632Y015076D01*
X026678Y015064D01*
X026723Y015047D01*
X026767Y015027D01*
X026809Y015004D01*
X026849Y014977D01*
X026887Y014947D01*
X026922Y014914D01*
X026954Y014878D01*
X026984Y014840D01*
X027010Y014799D01*
X027032Y014756D01*
X027052Y014712D01*
X027067Y014667D01*
X027079Y014620D01*
X027087Y014572D01*
X027091Y014524D01*
X027091Y014476D01*
X027087Y014428D01*
X027079Y014380D01*
X027067Y014333D01*
X027052Y014288D01*
X027032Y014244D01*
X027010Y014201D01*
X026984Y014160D01*
X026954Y014122D01*
X026922Y014086D01*
X026887Y014053D01*
X026849Y014023D01*
X026809Y013996D01*
X026767Y013973D01*
X026723Y013953D01*
X026678Y013936D01*
X026632Y013924D01*
X026584Y013915D01*
X026536Y013910D01*
X026488Y013909D01*
X026440Y013912D01*
X026392Y013919D01*
X026345Y013930D01*
X026299Y013944D01*
X026254Y013962D01*
X026211Y013984D01*
X026170Y014009D01*
X026132Y014038D01*
X026095Y014070D01*
X026061Y014104D01*
X026031Y014141D01*
X026003Y014180D01*
X025978Y014222D01*
X025958Y014266D01*
X025940Y014311D01*
X025927Y014357D01*
X025917Y014404D01*
X025911Y014452D01*
X025909Y014500D01*
X005909Y020500D02*
X005911Y020548D01*
X005917Y020596D01*
X005927Y020643D01*
X005940Y020689D01*
X005958Y020734D01*
X005978Y020778D01*
X006003Y020820D01*
X006031Y020859D01*
X006061Y020896D01*
X006095Y020930D01*
X006132Y020962D01*
X006170Y020991D01*
X006211Y021016D01*
X006254Y021038D01*
X006299Y021056D01*
X006345Y021070D01*
X006392Y021081D01*
X006440Y021088D01*
X006488Y021091D01*
X006536Y021090D01*
X006584Y021085D01*
X006632Y021076D01*
X006678Y021064D01*
X006723Y021047D01*
X006767Y021027D01*
X006809Y021004D01*
X006849Y020977D01*
X006887Y020947D01*
X006922Y020914D01*
X006954Y020878D01*
X006984Y020840D01*
X007010Y020799D01*
X007032Y020756D01*
X007052Y020712D01*
X007067Y020667D01*
X007079Y020620D01*
X007087Y020572D01*
X007091Y020524D01*
X007091Y020476D01*
X007087Y020428D01*
X007079Y020380D01*
X007067Y020333D01*
X007052Y020288D01*
X007032Y020244D01*
X007010Y020201D01*
X006984Y020160D01*
X006954Y020122D01*
X006922Y020086D01*
X006887Y020053D01*
X006849Y020023D01*
X006809Y019996D01*
X006767Y019973D01*
X006723Y019953D01*
X006678Y019936D01*
X006632Y019924D01*
X006584Y019915D01*
X006536Y019910D01*
X006488Y019909D01*
X006440Y019912D01*
X006392Y019919D01*
X006345Y019930D01*
X006299Y019944D01*
X006254Y019962D01*
X006211Y019984D01*
X006170Y020009D01*
X006132Y020038D01*
X006095Y020070D01*
X006061Y020104D01*
X006031Y020141D01*
X006003Y020180D01*
X005978Y020222D01*
X005958Y020266D01*
X005940Y020311D01*
X005927Y020357D01*
X005917Y020404D01*
X005911Y020452D01*
X005909Y020500D01*
D11*
X005855Y019730D02*
X006162Y019270D01*
X006162Y019730D01*
X005855Y019730D02*
X005855Y019270D01*
X005702Y019347D02*
X005702Y019654D01*
X005625Y019730D01*
X005472Y019730D01*
X005395Y019654D01*
X005395Y019347D01*
X005472Y019270D01*
X005625Y019270D01*
X005702Y019347D01*
X005884Y018305D02*
X005884Y017845D01*
X006037Y017845D02*
X005730Y017845D01*
X005577Y017922D02*
X005500Y017845D01*
X005347Y017845D01*
X005270Y017922D01*
X005270Y018229D01*
X005347Y018305D01*
X005500Y018305D01*
X005577Y018229D01*
X005730Y018152D02*
X005884Y018305D01*
X007645Y016500D02*
X007798Y016500D01*
X007722Y016500D02*
X007722Y016040D01*
X007798Y016040D02*
X007645Y016040D01*
X007952Y016117D02*
X007952Y016424D01*
X008029Y016500D01*
X008182Y016500D01*
X008259Y016424D01*
X008412Y016424D02*
X008489Y016500D01*
X008643Y016500D01*
X008719Y016424D01*
X008719Y016347D01*
X008412Y016040D01*
X008719Y016040D01*
X008259Y016117D02*
X008182Y016040D01*
X008029Y016040D01*
X007952Y016117D01*
X009440Y016750D02*
X010081Y017390D01*
X010610Y017919D02*
X011250Y018560D01*
X012586Y017223D01*
X012586Y016277D01*
X012419Y016110D01*
X011890Y015581D02*
X011723Y015414D01*
X010777Y015414D01*
X009440Y016750D01*
X010164Y017307D02*
X010135Y017245D01*
X010109Y017182D01*
X010087Y017117D01*
X010068Y017052D01*
X010053Y016985D01*
X010042Y016918D01*
X010034Y016850D01*
X010030Y016782D01*
X010031Y016714D01*
X010034Y016645D01*
X010042Y016578D01*
X010054Y016510D01*
X010069Y016444D01*
X010088Y016378D01*
X010111Y016314D01*
X010137Y016251D01*
X010167Y016189D01*
X010200Y016130D01*
X010236Y016072D01*
X010275Y016016D01*
X010318Y015963D01*
X010364Y015912D01*
X010412Y015864D01*
X010463Y015818D01*
X010516Y015775D01*
X010572Y015736D01*
X010630Y015700D01*
X010689Y015667D01*
X010751Y015637D01*
X010814Y015611D01*
X010878Y015588D01*
X010944Y015569D01*
X011010Y015554D01*
X011078Y015542D01*
X011145Y015534D01*
X011214Y015531D01*
X011282Y015530D01*
X011350Y015534D01*
X011418Y015542D01*
X011485Y015553D01*
X011552Y015568D01*
X011617Y015587D01*
X011682Y015609D01*
X011745Y015635D01*
X011807Y015664D01*
X012336Y016193D02*
X012365Y016255D01*
X012391Y016318D01*
X012413Y016383D01*
X012432Y016448D01*
X012447Y016515D01*
X012458Y016582D01*
X012466Y016650D01*
X012470Y016718D01*
X012469Y016786D01*
X012466Y016855D01*
X012458Y016922D01*
X012446Y016990D01*
X012431Y017056D01*
X012412Y017122D01*
X012389Y017186D01*
X012363Y017249D01*
X012333Y017311D01*
X012300Y017370D01*
X012264Y017428D01*
X012225Y017484D01*
X012182Y017537D01*
X012136Y017588D01*
X012088Y017636D01*
X012037Y017682D01*
X011984Y017725D01*
X011928Y017764D01*
X011870Y017800D01*
X011811Y017833D01*
X011749Y017863D01*
X011686Y017889D01*
X011622Y017912D01*
X011556Y017931D01*
X011490Y017946D01*
X011422Y017958D01*
X011355Y017966D01*
X011286Y017969D01*
X011218Y017970D01*
X011150Y017966D01*
X011082Y017958D01*
X011015Y017947D01*
X010948Y017932D01*
X010883Y017913D01*
X010818Y017891D01*
X010755Y017865D01*
X010693Y017836D01*
X007910Y014287D02*
X007910Y014100D01*
X007770Y014240D01*
X008050Y014240D01*
X008083Y012855D02*
X008083Y012395D01*
X007776Y012855D01*
X007776Y012395D01*
X007623Y012395D02*
X007316Y012395D01*
X007316Y012855D01*
X007623Y012855D01*
X007469Y012625D02*
X007316Y012625D01*
X007162Y012548D02*
X007162Y012472D01*
X007086Y012395D01*
X006932Y012395D01*
X006855Y012472D01*
X006702Y012395D02*
X006548Y012548D01*
X006625Y012548D02*
X006395Y012548D01*
X006395Y012395D02*
X006395Y012855D01*
X006625Y012855D01*
X006702Y012779D01*
X006702Y012625D01*
X006625Y012548D01*
X006855Y012702D02*
X006932Y012625D01*
X007086Y012625D01*
X007162Y012548D01*
X007162Y012779D02*
X007086Y012855D01*
X006932Y012855D01*
X006855Y012779D01*
X006855Y012702D01*
X008237Y012702D02*
X008313Y012625D01*
X008467Y012625D01*
X008543Y012548D01*
X008543Y012472D01*
X008467Y012395D01*
X008313Y012395D01*
X008237Y012472D01*
X008237Y012702D02*
X008237Y012779D01*
X008313Y012855D01*
X008467Y012855D01*
X008543Y012779D01*
X008697Y012855D02*
X008697Y012395D01*
X009004Y012395D01*
X008850Y012625D02*
X008697Y012625D01*
X008697Y012855D02*
X009004Y012855D01*
X005350Y014495D02*
X005303Y014448D01*
X005350Y014495D02*
X005350Y014589D01*
X005303Y014635D01*
X005257Y014635D01*
X005210Y014589D01*
X005210Y014542D01*
X005210Y014589D02*
X005163Y014635D01*
X005116Y014635D01*
X005070Y014589D01*
X005070Y014495D01*
X005116Y014448D01*
X005113Y015358D02*
X005066Y015405D01*
X005066Y015499D01*
X005113Y015545D01*
X005159Y015545D01*
X005346Y015358D01*
X005346Y015545D01*
X005350Y016210D02*
X005350Y016396D01*
X005350Y016303D02*
X005070Y016303D01*
X005163Y016210D01*
X001867Y014329D02*
X001867Y014252D01*
X001790Y014175D01*
X001867Y014098D01*
X001867Y014022D01*
X001790Y013945D01*
X001636Y013945D01*
X001560Y014022D01*
X001406Y014022D02*
X001329Y013945D01*
X001176Y013945D01*
X001099Y014022D01*
X001099Y014329D01*
X001176Y014405D01*
X001329Y014405D01*
X001406Y014329D01*
X001560Y014329D02*
X001636Y014405D01*
X001790Y014405D01*
X001867Y014329D01*
X001790Y014175D02*
X001713Y014175D01*
X001636Y010780D02*
X001560Y010704D01*
X001636Y010780D02*
X001790Y010780D01*
X001867Y010704D01*
X001867Y010627D01*
X001560Y010320D01*
X001867Y010320D01*
X001406Y010397D02*
X001329Y010320D01*
X001176Y010320D01*
X001099Y010397D01*
X001099Y010704D01*
X001176Y010780D01*
X001329Y010780D01*
X001406Y010704D01*
X005395Y008230D02*
X005395Y007770D01*
X005395Y007923D02*
X005625Y007923D01*
X005702Y008000D01*
X005702Y008154D01*
X005625Y008230D01*
X005395Y008230D01*
X005548Y007923D02*
X005702Y007770D01*
X005855Y007847D02*
X005932Y007770D01*
X006086Y007770D01*
X006162Y007847D01*
X006162Y008000D01*
X006086Y008077D01*
X006009Y008077D01*
X005855Y008000D01*
X005855Y008230D01*
X006162Y008230D01*
X007152Y006711D02*
X008098Y006711D01*
X008265Y006544D01*
X008794Y006015D02*
X008961Y005848D01*
X008961Y004902D01*
X007625Y003565D01*
X006985Y004206D01*
X006992Y003855D02*
X006838Y003779D01*
X006685Y003625D01*
X006915Y003625D01*
X006992Y003548D01*
X006992Y003472D01*
X006915Y003395D01*
X006761Y003395D01*
X006685Y003472D01*
X006685Y003625D01*
X006531Y003625D02*
X006531Y003779D01*
X006454Y003855D01*
X006224Y003855D01*
X006224Y003395D01*
X006224Y003548D02*
X006454Y003548D01*
X006531Y003625D01*
X006378Y003548D02*
X006531Y003395D01*
X007230Y002492D02*
X007230Y002185D01*
X007230Y002338D02*
X006770Y002338D01*
X006923Y002185D01*
X006846Y002031D02*
X006770Y001954D01*
X006770Y001724D01*
X007230Y001724D01*
X007230Y001954D01*
X007153Y002031D01*
X006846Y002031D01*
X006770Y001571D02*
X006770Y001264D01*
X007230Y001264D01*
X007230Y001571D01*
X007000Y001417D02*
X007000Y001264D01*
X007230Y001110D02*
X007230Y000803D01*
X006770Y000803D01*
X008020Y002645D02*
X008020Y003105D01*
X008250Y003105D01*
X008327Y003029D01*
X008327Y002875D01*
X008250Y002798D01*
X008020Y002798D01*
X008173Y002798D02*
X008327Y002645D01*
X008480Y002875D02*
X008787Y002875D01*
X008711Y002645D02*
X008711Y003105D01*
X008480Y002875D01*
X009145Y002798D02*
X009375Y002798D01*
X009452Y002875D01*
X009452Y003029D01*
X009375Y003105D01*
X009145Y003105D01*
X009145Y002645D01*
X009298Y002798D02*
X009452Y002645D01*
X009605Y002722D02*
X009682Y002645D01*
X009836Y002645D01*
X009912Y002722D01*
X009912Y002798D01*
X009836Y002875D01*
X009759Y002875D01*
X009836Y002875D02*
X009912Y002952D01*
X009912Y003029D01*
X009836Y003105D01*
X009682Y003105D01*
X009605Y003029D01*
X010895Y002941D02*
X010895Y003171D01*
X010971Y003248D01*
X011278Y003248D01*
X011355Y003171D01*
X011355Y002941D01*
X010895Y002941D01*
X010895Y002787D02*
X010895Y002480D01*
X011355Y002480D01*
X011355Y002787D01*
X011125Y002634D02*
X011125Y002480D01*
X011355Y002327D02*
X011355Y002020D01*
X010895Y002020D01*
X010971Y003401D02*
X010895Y003478D01*
X010895Y003631D01*
X010971Y003708D01*
X011278Y003401D01*
X011355Y003478D01*
X011355Y003631D01*
X011278Y003708D01*
X010971Y003708D01*
X010971Y003401D02*
X011278Y003401D01*
X008711Y005932D02*
X008740Y005870D01*
X008766Y005807D01*
X008788Y005742D01*
X008807Y005677D01*
X008822Y005610D01*
X008833Y005543D01*
X008841Y005475D01*
X008845Y005407D01*
X008844Y005339D01*
X008841Y005270D01*
X008833Y005203D01*
X008821Y005135D01*
X008806Y005069D01*
X008787Y005003D01*
X008764Y004939D01*
X008738Y004876D01*
X008708Y004814D01*
X008675Y004755D01*
X008639Y004697D01*
X008600Y004641D01*
X008557Y004588D01*
X008511Y004537D01*
X008463Y004489D01*
X008412Y004443D01*
X008359Y004400D01*
X008303Y004361D01*
X008245Y004325D01*
X008186Y004292D01*
X008124Y004262D01*
X008061Y004236D01*
X007997Y004213D01*
X007931Y004194D01*
X007865Y004179D01*
X007797Y004167D01*
X007730Y004159D01*
X007661Y004156D01*
X007593Y004155D01*
X007525Y004159D01*
X007457Y004167D01*
X007390Y004178D01*
X007323Y004193D01*
X007258Y004212D01*
X007193Y004234D01*
X007130Y004260D01*
X007068Y004289D01*
X006456Y004735D02*
X005815Y005375D01*
X007152Y006711D01*
X008182Y006461D02*
X008120Y006490D01*
X008057Y006516D01*
X007992Y006538D01*
X007927Y006557D01*
X007860Y006572D01*
X007793Y006583D01*
X007725Y006591D01*
X007657Y006595D01*
X007589Y006594D01*
X007520Y006591D01*
X007453Y006583D01*
X007385Y006571D01*
X007319Y006556D01*
X007253Y006537D01*
X007189Y006514D01*
X007126Y006488D01*
X007064Y006458D01*
X007005Y006425D01*
X006947Y006389D01*
X006891Y006350D01*
X006838Y006307D01*
X006787Y006261D01*
X006739Y006213D01*
X006693Y006162D01*
X006650Y006109D01*
X006611Y006053D01*
X006575Y005995D01*
X006542Y005936D01*
X006512Y005874D01*
X006486Y005811D01*
X006463Y005747D01*
X006444Y005681D01*
X006429Y005615D01*
X006417Y005547D01*
X006409Y005480D01*
X006406Y005411D01*
X006405Y005343D01*
X006409Y005275D01*
X006417Y005207D01*
X006428Y005140D01*
X006443Y005073D01*
X006462Y005008D01*
X006484Y004943D01*
X006510Y004880D01*
X006539Y004818D01*
X015020Y005422D02*
X015097Y005345D01*
X015250Y005345D01*
X015327Y005422D01*
X015480Y005422D02*
X015557Y005345D01*
X015711Y005345D01*
X015787Y005422D01*
X015787Y005498D01*
X015711Y005575D01*
X015480Y005575D01*
X015480Y005422D01*
X015480Y005575D02*
X015634Y005729D01*
X015787Y005805D01*
X015327Y005729D02*
X015250Y005805D01*
X015097Y005805D01*
X015020Y005729D01*
X015020Y005422D01*
X016958Y006734D02*
X016958Y007041D01*
X017034Y007118D01*
X017188Y007118D01*
X017264Y007041D01*
X017418Y007118D02*
X017725Y007118D01*
X017725Y007041D01*
X017418Y006734D01*
X017418Y006658D01*
X017264Y006734D02*
X017188Y006658D01*
X017034Y006658D01*
X016958Y006734D01*
X018849Y006709D02*
X018926Y006633D01*
X019079Y006633D01*
X019156Y006709D01*
X019310Y006709D02*
X019310Y006786D01*
X019386Y006863D01*
X019540Y006863D01*
X019617Y006786D01*
X019617Y006709D01*
X019540Y006633D01*
X019386Y006633D01*
X019310Y006709D01*
X019386Y006863D02*
X019310Y006939D01*
X019310Y007016D01*
X019386Y007093D01*
X019540Y007093D01*
X019617Y007016D01*
X019617Y006939D01*
X019540Y006863D01*
X019156Y007016D02*
X019079Y007093D01*
X018926Y007093D01*
X018849Y007016D01*
X018849Y006709D01*
X021328Y009183D02*
X021251Y009260D01*
X021328Y009183D02*
X021481Y009183D01*
X021558Y009260D01*
X021558Y009337D01*
X021481Y009414D01*
X021328Y009414D01*
X021251Y009490D01*
X021251Y009567D01*
X021328Y009644D01*
X021481Y009644D01*
X021558Y009567D01*
X021712Y009567D02*
X021712Y009260D01*
X021788Y009183D01*
X021942Y009183D01*
X022019Y009260D01*
X022172Y009183D02*
X022479Y009183D01*
X022172Y009183D02*
X022172Y009644D01*
X022019Y009567D02*
X021942Y009644D01*
X021788Y009644D01*
X021712Y009567D01*
X021712Y009996D02*
X021942Y009996D01*
X022019Y010073D01*
X022019Y010380D01*
X021942Y010456D01*
X021712Y010456D01*
X021712Y009996D01*
X021558Y010073D02*
X021481Y009996D01*
X021328Y009996D01*
X021251Y010073D01*
X021328Y010226D02*
X021251Y010303D01*
X021251Y010380D01*
X021328Y010456D01*
X021481Y010456D01*
X021558Y010380D01*
X021481Y010226D02*
X021558Y010149D01*
X021558Y010073D01*
X021481Y010226D02*
X021328Y010226D01*
X022172Y010226D02*
X022479Y010226D01*
X022479Y010303D02*
X022479Y009996D01*
X022479Y010303D02*
X022326Y010456D01*
X022172Y010303D01*
X022172Y009996D01*
X026270Y008453D02*
X026270Y008300D01*
X026346Y008223D01*
X026270Y008453D02*
X026346Y008530D01*
X026423Y008530D01*
X026730Y008223D01*
X026730Y008530D01*
X026730Y008069D02*
X026730Y007993D01*
X026653Y007993D01*
X026653Y008069D01*
X026730Y008069D01*
X026653Y007839D02*
X026346Y007839D01*
X026653Y007532D01*
X026730Y007609D01*
X026730Y007763D01*
X026653Y007839D01*
X026346Y007839D02*
X026270Y007763D01*
X026270Y007609D01*
X026346Y007532D01*
X026653Y007532D01*
X026653Y007379D02*
X026730Y007379D01*
X026730Y007302D01*
X026653Y007302D01*
X026653Y007379D01*
X026730Y007149D02*
X026730Y006842D01*
X026730Y006995D02*
X026270Y006995D01*
X026423Y006842D01*
X026653Y006228D02*
X026730Y006228D01*
X026730Y006151D01*
X026653Y006151D01*
X026653Y006228D01*
X026423Y005998D02*
X026730Y005844D01*
X026423Y005691D01*
X026500Y005537D02*
X026423Y005461D01*
X026423Y005307D01*
X026500Y005230D01*
X026653Y005230D01*
X026730Y005307D01*
X026730Y005461D01*
X026577Y005537D02*
X026577Y005230D01*
X026500Y005077D02*
X026346Y005077D01*
X026270Y005000D01*
X026270Y004770D01*
X026730Y004770D01*
X026577Y004770D02*
X026577Y005000D01*
X026500Y005077D01*
X026577Y004923D02*
X026730Y005077D01*
X026577Y005537D02*
X026500Y005537D01*
X023367Y003029D02*
X023367Y002952D01*
X023060Y002645D01*
X023367Y002645D01*
X023367Y003029D02*
X023290Y003105D01*
X023136Y003105D01*
X023060Y003029D01*
X022906Y003029D02*
X022906Y002875D01*
X022829Y002798D01*
X022599Y002798D01*
X022599Y002645D02*
X022599Y003105D01*
X022829Y003105D01*
X022906Y003029D01*
X022753Y002798D02*
X022906Y002645D01*
X018117Y002645D02*
X017810Y002645D01*
X017963Y002645D02*
X017963Y003105D01*
X017810Y002952D01*
X017656Y003029D02*
X017656Y002875D01*
X017579Y002798D01*
X017349Y002798D01*
X017349Y002645D02*
X017349Y003105D01*
X017579Y003105D01*
X017656Y003029D01*
X017503Y002798D02*
X017656Y002645D01*
D12*
X017660Y018660D02*
X018055Y018660D01*
X018187Y018792D01*
X018187Y018924D01*
X018055Y019055D01*
X017660Y019055D01*
X017660Y018660D02*
X017660Y019451D01*
X018055Y019451D01*
X018187Y019319D01*
X018187Y019187D01*
X018055Y019055D01*
X018452Y019451D02*
X018584Y019451D01*
X018584Y018660D01*
X018715Y018660D02*
X018452Y018660D01*
X018980Y018792D02*
X018980Y019055D01*
X019112Y019187D01*
X019375Y019187D01*
X019507Y019055D01*
X019507Y018924D01*
X018980Y018924D01*
X018980Y018792D02*
X019112Y018660D01*
X019375Y018660D01*
X019772Y018792D02*
X019903Y018660D01*
X020299Y018660D01*
X020299Y019187D01*
X020564Y019055D02*
X020695Y019187D01*
X020959Y019187D01*
X021091Y019055D01*
X021091Y018924D01*
X020564Y018924D01*
X020564Y019055D02*
X020564Y018792D01*
X020695Y018660D01*
X020959Y018660D01*
X021487Y018792D02*
X021619Y018660D01*
X021487Y018792D02*
X021487Y019319D01*
X021355Y019187D02*
X021619Y019187D01*
X021883Y019187D02*
X022147Y019187D01*
X022015Y019319D02*
X022015Y018792D01*
X022147Y018660D01*
X022411Y018792D02*
X022411Y019055D01*
X022543Y019187D01*
X022807Y019187D01*
X022938Y019055D01*
X022938Y018924D01*
X022411Y018924D01*
X022411Y018792D02*
X022543Y018660D01*
X022807Y018660D01*
X019772Y018792D02*
X019772Y019187D01*
D13*
X019732Y011890D02*
X016268Y011890D01*
X016110Y011732D01*
X016110Y008268D01*
X016268Y008110D01*
X019732Y008110D01*
X019890Y008268D01*
X019890Y011732D01*
X019732Y011890D01*
X009079Y011859D02*
X009079Y007401D01*
X006421Y007401D02*
X006421Y011859D01*
X006050Y013835D02*
X006050Y016415D01*
X007450Y016415D01*
X007450Y013835D01*
X006050Y013835D01*
X005029Y015625D02*
X004415Y015625D01*
X004597Y017318D02*
X004597Y017932D01*
X004290Y017625D02*
X004904Y017625D01*
D14*
X016731Y004169D02*
X016747Y004180D01*
X016746Y004180D02*
X016779Y004135D01*
X016814Y004093D01*
X016853Y004054D01*
X016893Y004017D01*
X016937Y003984D01*
X016982Y003953D01*
X017030Y003926D01*
X017079Y003902D01*
X017130Y003881D01*
X017183Y003864D01*
X017236Y003851D01*
X017290Y003842D01*
X017345Y003836D01*
X017400Y003834D01*
X017400Y003816D01*
X017400Y003815D01*
X017343Y003817D01*
X017287Y003823D01*
X017232Y003833D01*
X017177Y003846D01*
X017124Y003863D01*
X017072Y003884D01*
X017021Y003909D01*
X016972Y003937D01*
X016926Y003968D01*
X016881Y004003D01*
X016839Y004040D01*
X016800Y004081D01*
X016764Y004124D01*
X016731Y004169D01*
X016731Y004170D01*
X016765Y004124D01*
X016801Y004081D01*
X016840Y004041D01*
X016882Y004004D01*
X016926Y003969D01*
X016973Y003938D01*
X017022Y003910D01*
X017072Y003885D01*
X017124Y003864D01*
X017178Y003847D01*
X017232Y003834D01*
X017288Y003824D01*
X017343Y003818D01*
X017400Y003816D01*
X017400Y003817D01*
X017343Y003819D01*
X017288Y003825D01*
X017232Y003835D01*
X017178Y003848D01*
X017125Y003865D01*
X017073Y003886D01*
X017022Y003911D01*
X016973Y003939D01*
X016927Y003970D01*
X016883Y004004D01*
X016841Y004042D01*
X016802Y004082D01*
X016765Y004125D01*
X016732Y004170D01*
X016733Y004171D01*
X016766Y004125D01*
X016802Y004083D01*
X016841Y004043D01*
X016883Y004005D01*
X016927Y003971D01*
X016974Y003940D01*
X017023Y003912D01*
X017073Y003887D01*
X017125Y003866D01*
X017178Y003849D01*
X017233Y003836D01*
X017288Y003826D01*
X017344Y003820D01*
X017400Y003818D01*
X017400Y003819D01*
X017344Y003821D01*
X017288Y003827D01*
X017233Y003837D01*
X017179Y003850D01*
X017125Y003867D01*
X017073Y003888D01*
X017023Y003913D01*
X016975Y003940D01*
X016928Y003972D01*
X016884Y004006D01*
X016842Y004043D01*
X016803Y004083D01*
X016767Y004126D01*
X016734Y004171D01*
X016735Y004172D01*
X016768Y004127D01*
X016804Y004084D01*
X016843Y004044D01*
X016884Y004007D01*
X016929Y003972D01*
X016975Y003941D01*
X017024Y003913D01*
X017074Y003889D01*
X017126Y003868D01*
X017179Y003851D01*
X017233Y003838D01*
X017288Y003828D01*
X017344Y003822D01*
X017400Y003820D01*
X017400Y003821D01*
X017344Y003823D01*
X017288Y003829D01*
X017233Y003838D01*
X017179Y003852D01*
X017126Y003869D01*
X017074Y003890D01*
X017024Y003914D01*
X016976Y003942D01*
X016929Y003973D01*
X016885Y004007D01*
X016844Y004045D01*
X016805Y004085D01*
X016769Y004127D01*
X016736Y004172D01*
X016736Y004173D01*
X016769Y004128D01*
X016805Y004085D01*
X016844Y004045D01*
X016886Y004008D01*
X016930Y003974D01*
X016976Y003943D01*
X017024Y003915D01*
X017075Y003891D01*
X017126Y003870D01*
X017179Y003853D01*
X017233Y003839D01*
X017288Y003830D01*
X017344Y003824D01*
X017400Y003822D01*
X017400Y003823D01*
X017344Y003825D01*
X017288Y003831D01*
X017234Y003840D01*
X017180Y003854D01*
X017127Y003871D01*
X017075Y003892D01*
X017025Y003916D01*
X016977Y003944D01*
X016930Y003975D01*
X016886Y004009D01*
X016845Y004046D01*
X016806Y004086D01*
X016770Y004129D01*
X016737Y004173D01*
X016738Y004174D01*
X016771Y004129D01*
X016807Y004087D01*
X016846Y004047D01*
X016887Y004010D01*
X016931Y003976D01*
X016977Y003945D01*
X017025Y003917D01*
X017075Y003893D01*
X017127Y003872D01*
X017180Y003855D01*
X017234Y003841D01*
X017289Y003832D01*
X017344Y003826D01*
X017400Y003824D01*
X017400Y003825D01*
X017344Y003827D01*
X017289Y003833D01*
X017234Y003842D01*
X017180Y003856D01*
X017127Y003873D01*
X017076Y003894D01*
X017026Y003918D01*
X016978Y003946D01*
X016932Y003976D01*
X016888Y004011D01*
X016846Y004048D01*
X016808Y004087D01*
X016772Y004130D01*
X016739Y004175D01*
X016740Y004175D01*
X016772Y004130D01*
X016808Y004088D01*
X016847Y004048D01*
X016888Y004011D01*
X016932Y003977D01*
X016978Y003946D01*
X017026Y003919D01*
X017076Y003895D01*
X017128Y003874D01*
X017180Y003857D01*
X017234Y003843D01*
X017289Y003834D01*
X017344Y003828D01*
X017400Y003826D01*
X017400Y003827D01*
X017344Y003829D01*
X017289Y003835D01*
X017234Y003844D01*
X017181Y003858D01*
X017128Y003875D01*
X017077Y003895D01*
X017027Y003920D01*
X016979Y003947D01*
X016933Y003978D01*
X016889Y004012D01*
X016848Y004049D01*
X016809Y004089D01*
X016773Y004131D01*
X016740Y004176D01*
X016741Y004176D01*
X016774Y004132D01*
X016810Y004089D01*
X016848Y004050D01*
X016890Y004013D01*
X016933Y003979D01*
X016979Y003948D01*
X017027Y003921D01*
X017077Y003896D01*
X017128Y003876D01*
X017181Y003859D01*
X017235Y003845D01*
X017289Y003836D01*
X017344Y003830D01*
X017400Y003828D01*
X017400Y003829D01*
X017344Y003831D01*
X017289Y003837D01*
X017235Y003846D01*
X017181Y003860D01*
X017129Y003877D01*
X017077Y003897D01*
X017028Y003921D01*
X016980Y003949D01*
X016934Y003980D01*
X016890Y004014D01*
X016849Y004050D01*
X016811Y004090D01*
X016775Y004132D01*
X016742Y004177D01*
X016743Y004177D01*
X016776Y004133D01*
X016811Y004091D01*
X016850Y004051D01*
X016891Y004014D01*
X016934Y003981D01*
X016980Y003950D01*
X017028Y003922D01*
X017078Y003898D01*
X017129Y003878D01*
X017182Y003861D01*
X017235Y003847D01*
X017289Y003838D01*
X017344Y003832D01*
X017400Y003830D01*
X017400Y003831D01*
X017344Y003833D01*
X017290Y003839D01*
X017235Y003848D01*
X017182Y003862D01*
X017129Y003879D01*
X017078Y003899D01*
X017029Y003923D01*
X016981Y003951D01*
X016935Y003981D01*
X016892Y004015D01*
X016850Y004052D01*
X016812Y004091D01*
X016776Y004134D01*
X016744Y004178D01*
X016745Y004179D01*
X016777Y004134D01*
X016813Y004092D01*
X016851Y004053D01*
X016892Y004016D01*
X016936Y003982D01*
X016981Y003951D01*
X017029Y003924D01*
X017079Y003900D01*
X017130Y003879D01*
X017182Y003863D01*
X017236Y003849D01*
X017290Y003840D01*
X017344Y003834D01*
X017400Y003832D01*
X017400Y003833D01*
X017345Y003835D01*
X017290Y003841D01*
X017236Y003850D01*
X017182Y003863D01*
X017130Y003880D01*
X017079Y003901D01*
X017030Y003925D01*
X016982Y003952D01*
X016936Y003983D01*
X016893Y004017D01*
X016852Y004053D01*
X016813Y004093D01*
X016778Y004135D01*
X016745Y004179D01*
X017179Y004166D02*
X017187Y004183D01*
X017186Y004183D02*
X017220Y004168D01*
X017255Y004156D01*
X017290Y004146D01*
X017326Y004140D01*
X017363Y004135D01*
X017400Y004134D01*
X017400Y004116D01*
X017400Y004115D01*
X017361Y004116D01*
X017323Y004121D01*
X017286Y004128D01*
X017249Y004138D01*
X017213Y004150D01*
X017178Y004166D01*
X017179Y004167D01*
X017213Y004151D01*
X017249Y004139D01*
X017286Y004129D01*
X017324Y004122D01*
X017361Y004117D01*
X017400Y004116D01*
X017400Y004117D01*
X017362Y004118D01*
X017324Y004123D01*
X017286Y004130D01*
X017250Y004140D01*
X017214Y004152D01*
X017179Y004168D01*
X017214Y004153D01*
X017250Y004141D01*
X017287Y004131D01*
X017324Y004124D01*
X017362Y004119D01*
X017400Y004118D01*
X017400Y004119D01*
X017362Y004120D01*
X017324Y004125D01*
X017287Y004132D01*
X017250Y004142D01*
X017215Y004154D01*
X017180Y004169D01*
X017180Y004170D01*
X017215Y004155D01*
X017251Y004143D01*
X017287Y004133D01*
X017324Y004126D01*
X017362Y004121D01*
X017400Y004120D01*
X017400Y004121D01*
X017362Y004122D01*
X017324Y004127D01*
X017287Y004134D01*
X017251Y004144D01*
X017215Y004156D01*
X017181Y004171D01*
X017181Y004172D01*
X017216Y004157D01*
X017251Y004145D01*
X017288Y004135D01*
X017325Y004128D01*
X017362Y004123D01*
X017400Y004122D01*
X017400Y004123D01*
X017362Y004124D01*
X017325Y004129D01*
X017288Y004136D01*
X017251Y004145D01*
X017216Y004158D01*
X017182Y004173D01*
X017182Y004174D01*
X017216Y004159D01*
X017252Y004146D01*
X017288Y004137D01*
X017325Y004130D01*
X017362Y004125D01*
X017400Y004124D01*
X017400Y004125D01*
X017362Y004126D01*
X017325Y004131D01*
X017288Y004138D01*
X017252Y004147D01*
X017217Y004160D01*
X017183Y004175D01*
X017183Y004176D01*
X017217Y004161D01*
X017252Y004148D01*
X017288Y004139D01*
X017325Y004132D01*
X017362Y004127D01*
X017400Y004126D01*
X017400Y004127D01*
X017362Y004128D01*
X017325Y004133D01*
X017289Y004140D01*
X017253Y004149D01*
X017218Y004162D01*
X017183Y004177D01*
X017184Y004177D01*
X017218Y004163D01*
X017253Y004150D01*
X017289Y004141D01*
X017325Y004134D01*
X017362Y004129D01*
X017400Y004128D01*
X017400Y004129D01*
X017362Y004130D01*
X017326Y004135D01*
X017289Y004142D01*
X017253Y004151D01*
X017218Y004164D01*
X017184Y004178D01*
X017185Y004179D01*
X017219Y004164D01*
X017254Y004152D01*
X017289Y004143D01*
X017326Y004136D01*
X017362Y004131D01*
X017400Y004130D01*
X017400Y004131D01*
X017363Y004132D01*
X017326Y004137D01*
X017290Y004144D01*
X017254Y004153D01*
X017219Y004165D01*
X017185Y004180D01*
X017186Y004181D01*
X017219Y004166D01*
X017254Y004154D01*
X017290Y004144D01*
X017326Y004138D01*
X017363Y004133D01*
X017400Y004132D01*
X017400Y004133D01*
X017363Y004134D01*
X017326Y004139D01*
X017290Y004145D01*
X017254Y004155D01*
X017220Y004167D01*
X017186Y004182D01*
X017400Y005134D02*
X017400Y005115D01*
X017400Y005116D02*
X017363Y005115D01*
X017326Y005110D01*
X017290Y005104D01*
X017255Y005094D01*
X017220Y005082D01*
X017186Y005067D01*
X017179Y005084D01*
X017178Y005084D01*
X017213Y005100D01*
X017249Y005112D01*
X017286Y005122D01*
X017323Y005129D01*
X017361Y005134D01*
X017400Y005135D01*
X017400Y005134D01*
X017361Y005133D01*
X017324Y005128D01*
X017286Y005121D01*
X017249Y005111D01*
X017213Y005099D01*
X017179Y005083D01*
X017179Y005082D01*
X017214Y005098D01*
X017250Y005110D01*
X017286Y005120D01*
X017324Y005127D01*
X017362Y005132D01*
X017400Y005133D01*
X017400Y005132D01*
X017362Y005131D01*
X017324Y005126D01*
X017287Y005119D01*
X017250Y005109D01*
X017214Y005097D01*
X017179Y005082D01*
X017180Y005081D01*
X017215Y005096D01*
X017250Y005108D01*
X017287Y005118D01*
X017324Y005125D01*
X017362Y005130D01*
X017400Y005131D01*
X017400Y005130D01*
X017362Y005129D01*
X017324Y005124D01*
X017287Y005117D01*
X017251Y005107D01*
X017215Y005095D01*
X017180Y005080D01*
X017181Y005079D01*
X017215Y005094D01*
X017251Y005106D01*
X017287Y005116D01*
X017324Y005123D01*
X017362Y005128D01*
X017400Y005129D01*
X017400Y005128D01*
X017362Y005127D01*
X017325Y005122D01*
X017288Y005115D01*
X017251Y005105D01*
X017216Y005093D01*
X017181Y005078D01*
X017182Y005077D01*
X017216Y005092D01*
X017251Y005105D01*
X017288Y005114D01*
X017325Y005121D01*
X017362Y005126D01*
X017400Y005127D01*
X017400Y005126D01*
X017362Y005125D01*
X017325Y005120D01*
X017288Y005113D01*
X017252Y005104D01*
X017216Y005091D01*
X017182Y005076D01*
X017183Y005075D01*
X017217Y005090D01*
X017252Y005103D01*
X017288Y005112D01*
X017325Y005119D01*
X017362Y005124D01*
X017400Y005125D01*
X017400Y005124D01*
X017362Y005123D01*
X017325Y005118D01*
X017288Y005111D01*
X017252Y005102D01*
X017217Y005089D01*
X017183Y005074D01*
X017183Y005073D01*
X017218Y005088D01*
X017253Y005101D01*
X017289Y005110D01*
X017325Y005117D01*
X017362Y005122D01*
X017400Y005123D01*
X017400Y005122D01*
X017362Y005121D01*
X017325Y005116D01*
X017289Y005109D01*
X017253Y005100D01*
X017218Y005087D01*
X017184Y005073D01*
X017184Y005072D01*
X017218Y005086D01*
X017253Y005099D01*
X017289Y005108D01*
X017326Y005115D01*
X017362Y005120D01*
X017400Y005121D01*
X017400Y005120D01*
X017362Y005119D01*
X017326Y005114D01*
X017289Y005107D01*
X017254Y005098D01*
X017219Y005086D01*
X017185Y005071D01*
X017185Y005070D01*
X017219Y005085D01*
X017254Y005097D01*
X017290Y005106D01*
X017326Y005113D01*
X017363Y005118D01*
X017400Y005119D01*
X017400Y005118D01*
X017363Y005117D01*
X017326Y005112D01*
X017290Y005106D01*
X017254Y005096D01*
X017219Y005084D01*
X017186Y005069D01*
X017186Y005068D01*
X017220Y005083D01*
X017254Y005095D01*
X017290Y005105D01*
X017326Y005111D01*
X017363Y005116D01*
X017400Y005117D01*
X017400Y005434D02*
X017400Y005415D01*
X017399Y005416D02*
X017345Y005414D01*
X017290Y005408D01*
X017236Y005399D01*
X017183Y005386D01*
X017130Y005369D01*
X017079Y005348D01*
X017030Y005324D01*
X016982Y005297D01*
X016937Y005266D01*
X016893Y005232D01*
X016852Y005196D01*
X016814Y005157D01*
X016779Y005115D01*
X016746Y005070D01*
X016731Y005080D01*
X016731Y005081D01*
X016764Y005126D01*
X016800Y005169D01*
X016839Y005210D01*
X016881Y005247D01*
X016926Y005282D01*
X016972Y005313D01*
X017021Y005341D01*
X017072Y005365D01*
X017124Y005386D01*
X017177Y005404D01*
X017232Y005417D01*
X017287Y005427D01*
X017343Y005433D01*
X017399Y005435D01*
X017399Y005434D01*
X017343Y005432D01*
X017287Y005426D01*
X017232Y005416D01*
X017178Y005403D01*
X017124Y005386D01*
X017072Y005365D01*
X017022Y005340D01*
X016973Y005312D01*
X016926Y005281D01*
X016882Y005246D01*
X016840Y005209D01*
X016801Y005169D01*
X016765Y005126D01*
X016731Y005080D01*
X016732Y005080D01*
X016765Y005125D01*
X016802Y005168D01*
X016841Y005208D01*
X016883Y005246D01*
X016927Y005280D01*
X016973Y005311D01*
X017022Y005339D01*
X017073Y005364D01*
X017125Y005385D01*
X017178Y005402D01*
X017232Y005415D01*
X017288Y005425D01*
X017343Y005431D01*
X017399Y005433D01*
X017399Y005432D01*
X017343Y005430D01*
X017288Y005424D01*
X017233Y005414D01*
X017178Y005401D01*
X017125Y005384D01*
X017073Y005363D01*
X017023Y005338D01*
X016974Y005310D01*
X016927Y005279D01*
X016883Y005245D01*
X016841Y005207D01*
X016802Y005167D01*
X016766Y005124D01*
X016733Y005079D01*
X016734Y005079D01*
X016767Y005124D01*
X016803Y005167D01*
X016842Y005207D01*
X016884Y005244D01*
X016928Y005278D01*
X016974Y005310D01*
X017023Y005337D01*
X017073Y005362D01*
X017125Y005383D01*
X017178Y005400D01*
X017233Y005413D01*
X017288Y005423D01*
X017344Y005429D01*
X017399Y005431D01*
X017399Y005430D01*
X017344Y005428D01*
X017288Y005422D01*
X017233Y005412D01*
X017179Y005399D01*
X017126Y005382D01*
X017074Y005361D01*
X017023Y005337D01*
X016975Y005309D01*
X016929Y005278D01*
X016884Y005243D01*
X016843Y005206D01*
X016804Y005166D01*
X016768Y005123D01*
X016735Y005078D01*
X016736Y005078D01*
X016769Y005123D01*
X016805Y005165D01*
X016843Y005205D01*
X016885Y005242D01*
X016929Y005277D01*
X016976Y005308D01*
X017024Y005336D01*
X017074Y005360D01*
X017126Y005381D01*
X017179Y005398D01*
X017233Y005412D01*
X017288Y005421D01*
X017344Y005427D01*
X017399Y005429D01*
X017399Y005428D01*
X017344Y005426D01*
X017288Y005420D01*
X017233Y005411D01*
X017179Y005397D01*
X017126Y005380D01*
X017075Y005359D01*
X017024Y005335D01*
X016976Y005307D01*
X016930Y005276D01*
X016886Y005242D01*
X016844Y005205D01*
X016805Y005165D01*
X016769Y005122D01*
X016736Y005077D01*
X016737Y005076D01*
X016770Y005121D01*
X016806Y005164D01*
X016845Y005204D01*
X016886Y005241D01*
X016930Y005275D01*
X016977Y005306D01*
X017025Y005334D01*
X017075Y005358D01*
X017127Y005379D01*
X017180Y005396D01*
X017234Y005410D01*
X017288Y005419D01*
X017344Y005425D01*
X017399Y005427D01*
X017399Y005426D01*
X017344Y005424D01*
X017289Y005418D01*
X017234Y005409D01*
X017180Y005395D01*
X017127Y005378D01*
X017075Y005357D01*
X017025Y005333D01*
X016977Y005305D01*
X016931Y005274D01*
X016887Y005240D01*
X016846Y005203D01*
X016807Y005163D01*
X016771Y005121D01*
X016738Y005076D01*
X016739Y005075D01*
X016772Y005120D01*
X016808Y005163D01*
X016846Y005202D01*
X016888Y005239D01*
X016932Y005273D01*
X016978Y005304D01*
X017026Y005332D01*
X017076Y005356D01*
X017127Y005377D01*
X017180Y005394D01*
X017234Y005408D01*
X017289Y005417D01*
X017344Y005423D01*
X017399Y005425D01*
X017399Y005424D01*
X017344Y005422D01*
X017289Y005416D01*
X017234Y005407D01*
X017180Y005393D01*
X017128Y005376D01*
X017076Y005355D01*
X017026Y005331D01*
X016978Y005304D01*
X016932Y005273D01*
X016888Y005239D01*
X016847Y005202D01*
X016808Y005162D01*
X016772Y005120D01*
X016740Y005075D01*
X016740Y005074D01*
X016773Y005119D01*
X016809Y005161D01*
X016848Y005201D01*
X016889Y005238D01*
X016933Y005272D01*
X016979Y005303D01*
X017027Y005330D01*
X017077Y005355D01*
X017128Y005375D01*
X017181Y005392D01*
X017234Y005406D01*
X017289Y005415D01*
X017344Y005421D01*
X017399Y005423D01*
X017399Y005422D01*
X017344Y005420D01*
X017289Y005414D01*
X017235Y005405D01*
X017181Y005391D01*
X017128Y005374D01*
X017077Y005354D01*
X017027Y005329D01*
X016979Y005302D01*
X016933Y005271D01*
X016890Y005237D01*
X016848Y005200D01*
X016810Y005161D01*
X016774Y005118D01*
X016741Y005074D01*
X016742Y005073D01*
X016775Y005118D01*
X016810Y005160D01*
X016849Y005199D01*
X016890Y005236D01*
X016934Y005270D01*
X016980Y005301D01*
X017028Y005329D01*
X017077Y005353D01*
X017129Y005373D01*
X017181Y005390D01*
X017235Y005404D01*
X017289Y005413D01*
X017344Y005419D01*
X017399Y005421D01*
X017399Y005420D01*
X017344Y005418D01*
X017289Y005412D01*
X017235Y005403D01*
X017181Y005389D01*
X017129Y005372D01*
X017078Y005352D01*
X017028Y005328D01*
X016980Y005300D01*
X016934Y005269D01*
X016891Y005236D01*
X016850Y005199D01*
X016811Y005159D01*
X016776Y005117D01*
X016743Y005073D01*
X016744Y005072D01*
X016776Y005116D01*
X016812Y005159D01*
X016850Y005198D01*
X016891Y005235D01*
X016935Y005269D01*
X016981Y005299D01*
X017029Y005327D01*
X017078Y005351D01*
X017129Y005371D01*
X017182Y005388D01*
X017235Y005402D01*
X017290Y005411D01*
X017344Y005417D01*
X017399Y005419D01*
X017399Y005418D01*
X017344Y005416D01*
X017290Y005410D01*
X017235Y005401D01*
X017182Y005387D01*
X017130Y005370D01*
X017079Y005350D01*
X017029Y005326D01*
X016981Y005298D01*
X016936Y005268D01*
X016892Y005234D01*
X016851Y005197D01*
X016813Y005158D01*
X016777Y005116D01*
X016745Y005071D01*
X016778Y005115D01*
X016813Y005157D01*
X016852Y005197D01*
X016893Y005233D01*
X016936Y005267D01*
X016982Y005298D01*
X017030Y005325D01*
X017079Y005349D01*
X017130Y005370D01*
X017182Y005386D01*
X017236Y005400D01*
X017290Y005409D01*
X017345Y005415D01*
X017399Y005417D01*
X020100Y003816D02*
X020100Y003835D01*
X020101Y003834D02*
X020155Y003836D01*
X020210Y003842D01*
X020264Y003851D01*
X020317Y003864D01*
X020370Y003881D01*
X020421Y003902D01*
X020470Y003926D01*
X020518Y003953D01*
X020563Y003984D01*
X020607Y004017D01*
X020647Y004054D01*
X020686Y004093D01*
X020721Y004135D01*
X020754Y004180D01*
X020769Y004169D01*
X020736Y004124D01*
X020700Y004081D01*
X020661Y004040D01*
X020619Y004003D01*
X020574Y003968D01*
X020528Y003937D01*
X020479Y003909D01*
X020428Y003885D01*
X020376Y003864D01*
X020323Y003846D01*
X020268Y003833D01*
X020213Y003823D01*
X020157Y003817D01*
X020101Y003815D01*
X020101Y003816D01*
X020157Y003818D01*
X020213Y003824D01*
X020268Y003834D01*
X020322Y003847D01*
X020376Y003864D01*
X020428Y003885D01*
X020478Y003910D01*
X020527Y003938D01*
X020574Y003969D01*
X020618Y004004D01*
X020660Y004041D01*
X020699Y004081D01*
X020735Y004124D01*
X020769Y004170D01*
X020768Y004170D01*
X020735Y004125D01*
X020698Y004082D01*
X020659Y004042D01*
X020617Y004004D01*
X020573Y003970D01*
X020527Y003939D01*
X020478Y003911D01*
X020427Y003886D01*
X020375Y003865D01*
X020322Y003848D01*
X020268Y003835D01*
X020212Y003825D01*
X020157Y003819D01*
X020101Y003817D01*
X020101Y003818D01*
X020157Y003820D01*
X020212Y003826D01*
X020267Y003836D01*
X020322Y003849D01*
X020375Y003866D01*
X020427Y003887D01*
X020477Y003912D01*
X020526Y003940D01*
X020573Y003971D01*
X020617Y004005D01*
X020659Y004043D01*
X020698Y004083D01*
X020734Y004125D01*
X020767Y004171D01*
X020766Y004171D01*
X020733Y004126D01*
X020697Y004083D01*
X020658Y004043D01*
X020616Y004006D01*
X020572Y003972D01*
X020526Y003940D01*
X020477Y003913D01*
X020427Y003888D01*
X020375Y003867D01*
X020322Y003850D01*
X020267Y003837D01*
X020212Y003827D01*
X020156Y003821D01*
X020101Y003819D01*
X020101Y003820D01*
X020156Y003822D01*
X020212Y003828D01*
X020267Y003838D01*
X020321Y003851D01*
X020374Y003868D01*
X020426Y003889D01*
X020477Y003913D01*
X020525Y003941D01*
X020571Y003972D01*
X020616Y004007D01*
X020657Y004044D01*
X020696Y004084D01*
X020732Y004127D01*
X020765Y004172D01*
X020764Y004172D01*
X020731Y004127D01*
X020695Y004085D01*
X020657Y004045D01*
X020615Y004008D01*
X020571Y003973D01*
X020524Y003942D01*
X020476Y003914D01*
X020426Y003890D01*
X020374Y003869D01*
X020321Y003852D01*
X020267Y003838D01*
X020212Y003829D01*
X020156Y003823D01*
X020101Y003821D01*
X020101Y003822D01*
X020156Y003824D01*
X020212Y003830D01*
X020267Y003839D01*
X020321Y003853D01*
X020374Y003870D01*
X020425Y003891D01*
X020476Y003915D01*
X020524Y003943D01*
X020570Y003974D01*
X020614Y004008D01*
X020656Y004045D01*
X020695Y004085D01*
X020731Y004128D01*
X020764Y004173D01*
X020763Y004173D01*
X020730Y004129D01*
X020694Y004086D01*
X020655Y004046D01*
X020614Y004009D01*
X020570Y003975D01*
X020523Y003944D01*
X020475Y003916D01*
X020425Y003892D01*
X020373Y003871D01*
X020320Y003854D01*
X020266Y003840D01*
X020212Y003831D01*
X020156Y003825D01*
X020101Y003823D01*
X020101Y003824D01*
X020156Y003826D01*
X020211Y003832D01*
X020266Y003841D01*
X020320Y003855D01*
X020373Y003872D01*
X020425Y003893D01*
X020475Y003917D01*
X020523Y003945D01*
X020569Y003976D01*
X020613Y004010D01*
X020654Y004047D01*
X020693Y004087D01*
X020729Y004129D01*
X020762Y004174D01*
X020761Y004175D01*
X020728Y004130D01*
X020692Y004087D01*
X020654Y004048D01*
X020612Y004011D01*
X020568Y003977D01*
X020522Y003946D01*
X020474Y003918D01*
X020424Y003894D01*
X020373Y003873D01*
X020320Y003856D01*
X020266Y003842D01*
X020211Y003833D01*
X020156Y003827D01*
X020101Y003825D01*
X020101Y003826D01*
X020156Y003828D01*
X020211Y003834D01*
X020266Y003843D01*
X020320Y003857D01*
X020372Y003874D01*
X020424Y003895D01*
X020474Y003919D01*
X020522Y003946D01*
X020568Y003977D01*
X020612Y004011D01*
X020653Y004048D01*
X020692Y004088D01*
X020728Y004130D01*
X020760Y004175D01*
X020760Y004176D01*
X020727Y004131D01*
X020691Y004089D01*
X020652Y004049D01*
X020611Y004012D01*
X020567Y003978D01*
X020521Y003947D01*
X020473Y003920D01*
X020423Y003895D01*
X020372Y003875D01*
X020319Y003858D01*
X020266Y003844D01*
X020211Y003835D01*
X020156Y003829D01*
X020101Y003827D01*
X020101Y003828D01*
X020156Y003830D01*
X020211Y003836D01*
X020265Y003845D01*
X020319Y003859D01*
X020372Y003876D01*
X020423Y003896D01*
X020473Y003921D01*
X020521Y003948D01*
X020567Y003979D01*
X020610Y004013D01*
X020652Y004050D01*
X020690Y004089D01*
X020726Y004132D01*
X020759Y004176D01*
X020758Y004177D01*
X020725Y004132D01*
X020689Y004090D01*
X020651Y004050D01*
X020610Y004014D01*
X020566Y003980D01*
X020520Y003949D01*
X020472Y003921D01*
X020423Y003897D01*
X020371Y003877D01*
X020319Y003860D01*
X020265Y003846D01*
X020211Y003837D01*
X020156Y003831D01*
X020101Y003829D01*
X020101Y003830D01*
X020156Y003832D01*
X020211Y003838D01*
X020265Y003847D01*
X020318Y003861D01*
X020371Y003878D01*
X020422Y003898D01*
X020472Y003922D01*
X020520Y003950D01*
X020566Y003981D01*
X020609Y004014D01*
X020650Y004051D01*
X020689Y004091D01*
X020724Y004133D01*
X020757Y004177D01*
X020756Y004178D01*
X020724Y004134D01*
X020688Y004091D01*
X020650Y004052D01*
X020608Y004015D01*
X020565Y003981D01*
X020519Y003951D01*
X020471Y003923D01*
X020422Y003899D01*
X020371Y003879D01*
X020318Y003862D01*
X020265Y003848D01*
X020210Y003839D01*
X020156Y003833D01*
X020101Y003831D01*
X020101Y003832D01*
X020156Y003834D01*
X020210Y003840D01*
X020265Y003849D01*
X020318Y003863D01*
X020370Y003879D01*
X020421Y003900D01*
X020471Y003924D01*
X020519Y003952D01*
X020564Y003982D01*
X020608Y004016D01*
X020649Y004053D01*
X020687Y004092D01*
X020723Y004134D01*
X020755Y004179D01*
X020722Y004135D01*
X020687Y004093D01*
X020648Y004053D01*
X020607Y004017D01*
X020564Y003983D01*
X020518Y003952D01*
X020470Y003925D01*
X020421Y003901D01*
X020370Y003880D01*
X020318Y003863D01*
X020264Y003850D01*
X020210Y003841D01*
X020155Y003835D01*
X020101Y003833D01*
X020100Y004116D02*
X020100Y004135D01*
X020100Y004134D02*
X020137Y004135D01*
X020174Y004140D01*
X020210Y004146D01*
X020245Y004156D01*
X020280Y004168D01*
X020314Y004183D01*
X020321Y004166D01*
X020322Y004166D01*
X020287Y004150D01*
X020251Y004138D01*
X020214Y004128D01*
X020177Y004121D01*
X020139Y004116D01*
X020100Y004115D01*
X020100Y004116D01*
X020139Y004117D01*
X020176Y004122D01*
X020214Y004129D01*
X020251Y004139D01*
X020287Y004151D01*
X020321Y004167D01*
X020321Y004168D01*
X020286Y004152D01*
X020250Y004140D01*
X020214Y004130D01*
X020176Y004123D01*
X020138Y004118D01*
X020100Y004117D01*
X020100Y004118D01*
X020138Y004119D01*
X020176Y004124D01*
X020213Y004131D01*
X020250Y004141D01*
X020286Y004153D01*
X020321Y004168D01*
X020320Y004169D01*
X020285Y004154D01*
X020250Y004142D01*
X020213Y004132D01*
X020176Y004125D01*
X020138Y004120D01*
X020100Y004119D01*
X020100Y004120D01*
X020138Y004121D01*
X020176Y004126D01*
X020213Y004133D01*
X020249Y004143D01*
X020285Y004155D01*
X020320Y004170D01*
X020319Y004171D01*
X020285Y004156D01*
X020249Y004144D01*
X020213Y004134D01*
X020176Y004127D01*
X020138Y004122D01*
X020100Y004121D01*
X020100Y004122D01*
X020138Y004123D01*
X020175Y004128D01*
X020212Y004135D01*
X020249Y004145D01*
X020284Y004157D01*
X020319Y004172D01*
X020318Y004173D01*
X020284Y004158D01*
X020249Y004145D01*
X020212Y004136D01*
X020175Y004129D01*
X020138Y004124D01*
X020100Y004123D01*
X020100Y004124D01*
X020138Y004125D01*
X020175Y004130D01*
X020212Y004137D01*
X020248Y004146D01*
X020284Y004159D01*
X020318Y004174D01*
X020317Y004175D01*
X020283Y004160D01*
X020248Y004147D01*
X020212Y004138D01*
X020175Y004131D01*
X020138Y004126D01*
X020100Y004125D01*
X020100Y004126D01*
X020138Y004127D01*
X020175Y004132D01*
X020212Y004139D01*
X020248Y004148D01*
X020283Y004161D01*
X020317Y004176D01*
X020317Y004177D01*
X020282Y004162D01*
X020247Y004149D01*
X020211Y004140D01*
X020175Y004133D01*
X020138Y004128D01*
X020100Y004127D01*
X020100Y004128D01*
X020138Y004129D01*
X020175Y004134D01*
X020211Y004141D01*
X020247Y004150D01*
X020282Y004163D01*
X020316Y004177D01*
X020316Y004178D01*
X020282Y004164D01*
X020247Y004151D01*
X020211Y004142D01*
X020174Y004135D01*
X020138Y004130D01*
X020100Y004129D01*
X020100Y004130D01*
X020138Y004131D01*
X020174Y004136D01*
X020211Y004143D01*
X020246Y004152D01*
X020281Y004164D01*
X020315Y004179D01*
X020315Y004180D01*
X020281Y004165D01*
X020246Y004153D01*
X020210Y004144D01*
X020174Y004137D01*
X020137Y004132D01*
X020100Y004131D01*
X020100Y004132D01*
X020137Y004133D01*
X020174Y004138D01*
X020210Y004144D01*
X020246Y004154D01*
X020281Y004166D01*
X020314Y004181D01*
X020314Y004182D01*
X020280Y004167D01*
X020246Y004155D01*
X020210Y004145D01*
X020174Y004139D01*
X020137Y004134D01*
X020100Y004133D01*
X020321Y005084D02*
X020313Y005067D01*
X020314Y005067D02*
X020280Y005082D01*
X020245Y005094D01*
X020210Y005104D01*
X020174Y005110D01*
X020137Y005115D01*
X020100Y005116D01*
X020100Y005134D01*
X020100Y005135D01*
X020139Y005134D01*
X020177Y005129D01*
X020214Y005122D01*
X020251Y005112D01*
X020287Y005100D01*
X020322Y005084D01*
X020321Y005083D01*
X020287Y005099D01*
X020251Y005111D01*
X020214Y005121D01*
X020176Y005128D01*
X020139Y005133D01*
X020100Y005134D01*
X020100Y005133D01*
X020138Y005132D01*
X020176Y005127D01*
X020214Y005120D01*
X020250Y005110D01*
X020286Y005098D01*
X020321Y005082D01*
X020286Y005097D01*
X020250Y005109D01*
X020213Y005119D01*
X020176Y005126D01*
X020138Y005131D01*
X020100Y005132D01*
X020100Y005131D01*
X020138Y005130D01*
X020176Y005125D01*
X020213Y005118D01*
X020250Y005108D01*
X020285Y005096D01*
X020320Y005081D01*
X020320Y005080D01*
X020285Y005095D01*
X020249Y005107D01*
X020213Y005117D01*
X020176Y005124D01*
X020138Y005129D01*
X020100Y005130D01*
X020100Y005129D01*
X020138Y005128D01*
X020176Y005123D01*
X020213Y005116D01*
X020249Y005106D01*
X020285Y005094D01*
X020319Y005079D01*
X020319Y005078D01*
X020284Y005093D01*
X020249Y005105D01*
X020212Y005115D01*
X020175Y005122D01*
X020138Y005127D01*
X020100Y005128D01*
X020100Y005127D01*
X020138Y005126D01*
X020175Y005121D01*
X020212Y005114D01*
X020249Y005105D01*
X020284Y005092D01*
X020318Y005077D01*
X020318Y005076D01*
X020284Y005091D01*
X020248Y005104D01*
X020212Y005113D01*
X020175Y005120D01*
X020138Y005125D01*
X020100Y005126D01*
X020100Y005125D01*
X020138Y005124D01*
X020175Y005119D01*
X020212Y005112D01*
X020248Y005103D01*
X020283Y005090D01*
X020317Y005075D01*
X020317Y005074D01*
X020283Y005089D01*
X020248Y005102D01*
X020212Y005111D01*
X020175Y005118D01*
X020138Y005123D01*
X020100Y005124D01*
X020100Y005123D01*
X020138Y005122D01*
X020175Y005117D01*
X020211Y005110D01*
X020247Y005101D01*
X020282Y005088D01*
X020317Y005073D01*
X020316Y005073D01*
X020282Y005087D01*
X020247Y005100D01*
X020211Y005109D01*
X020175Y005116D01*
X020138Y005121D01*
X020100Y005122D01*
X020100Y005121D01*
X020138Y005120D01*
X020174Y005115D01*
X020211Y005108D01*
X020247Y005099D01*
X020282Y005086D01*
X020316Y005072D01*
X020315Y005071D01*
X020281Y005086D01*
X020246Y005098D01*
X020211Y005107D01*
X020174Y005114D01*
X020138Y005119D01*
X020100Y005120D01*
X020100Y005119D01*
X020137Y005118D01*
X020174Y005113D01*
X020210Y005106D01*
X020246Y005097D01*
X020281Y005085D01*
X020315Y005070D01*
X020314Y005069D01*
X020281Y005084D01*
X020246Y005096D01*
X020210Y005106D01*
X020174Y005112D01*
X020137Y005117D01*
X020100Y005118D01*
X020100Y005117D01*
X020137Y005116D01*
X020174Y005111D01*
X020210Y005105D01*
X020246Y005095D01*
X020280Y005083D01*
X020314Y005068D01*
X020769Y005081D02*
X020753Y005070D01*
X020754Y005070D02*
X020721Y005115D01*
X020686Y005157D01*
X020647Y005196D01*
X020607Y005233D01*
X020563Y005266D01*
X020518Y005297D01*
X020470Y005324D01*
X020421Y005348D01*
X020370Y005369D01*
X020317Y005386D01*
X020264Y005399D01*
X020210Y005408D01*
X020155Y005414D01*
X020100Y005416D01*
X020100Y005434D01*
X020100Y005435D01*
X020157Y005433D01*
X020213Y005427D01*
X020268Y005417D01*
X020323Y005404D01*
X020376Y005387D01*
X020428Y005366D01*
X020479Y005341D01*
X020528Y005313D01*
X020574Y005282D01*
X020619Y005247D01*
X020661Y005210D01*
X020700Y005169D01*
X020736Y005126D01*
X020769Y005081D01*
X020769Y005080D01*
X020735Y005126D01*
X020699Y005169D01*
X020660Y005209D01*
X020618Y005246D01*
X020574Y005281D01*
X020527Y005312D01*
X020478Y005340D01*
X020428Y005365D01*
X020376Y005386D01*
X020322Y005403D01*
X020268Y005416D01*
X020212Y005426D01*
X020157Y005432D01*
X020100Y005434D01*
X020100Y005433D01*
X020157Y005431D01*
X020212Y005425D01*
X020268Y005415D01*
X020322Y005402D01*
X020375Y005385D01*
X020427Y005364D01*
X020478Y005339D01*
X020527Y005311D01*
X020573Y005280D01*
X020617Y005246D01*
X020659Y005208D01*
X020698Y005168D01*
X020735Y005125D01*
X020768Y005080D01*
X020767Y005079D01*
X020734Y005125D01*
X020698Y005167D01*
X020659Y005207D01*
X020617Y005245D01*
X020573Y005279D01*
X020526Y005310D01*
X020477Y005338D01*
X020427Y005363D01*
X020375Y005384D01*
X020322Y005401D01*
X020267Y005414D01*
X020212Y005424D01*
X020156Y005430D01*
X020100Y005432D01*
X020100Y005431D01*
X020156Y005429D01*
X020212Y005423D01*
X020267Y005413D01*
X020321Y005400D01*
X020375Y005383D01*
X020427Y005362D01*
X020477Y005337D01*
X020525Y005310D01*
X020572Y005278D01*
X020616Y005244D01*
X020658Y005207D01*
X020697Y005167D01*
X020733Y005124D01*
X020766Y005079D01*
X020765Y005078D01*
X020732Y005123D01*
X020696Y005166D01*
X020657Y005206D01*
X020616Y005243D01*
X020571Y005278D01*
X020525Y005309D01*
X020476Y005337D01*
X020426Y005361D01*
X020374Y005382D01*
X020321Y005399D01*
X020267Y005412D01*
X020212Y005422D01*
X020156Y005428D01*
X020100Y005430D01*
X020100Y005429D01*
X020156Y005427D01*
X020212Y005421D01*
X020267Y005412D01*
X020321Y005398D01*
X020374Y005381D01*
X020426Y005360D01*
X020476Y005336D01*
X020524Y005308D01*
X020571Y005277D01*
X020615Y005243D01*
X020656Y005205D01*
X020695Y005165D01*
X020731Y005123D01*
X020764Y005078D01*
X020764Y005077D01*
X020731Y005122D01*
X020695Y005165D01*
X020656Y005205D01*
X020614Y005242D01*
X020570Y005276D01*
X020524Y005307D01*
X020476Y005335D01*
X020425Y005359D01*
X020374Y005380D01*
X020321Y005397D01*
X020267Y005411D01*
X020212Y005420D01*
X020156Y005426D01*
X020100Y005428D01*
X020100Y005427D01*
X020156Y005425D01*
X020212Y005419D01*
X020266Y005410D01*
X020320Y005396D01*
X020373Y005379D01*
X020425Y005358D01*
X020475Y005334D01*
X020523Y005306D01*
X020570Y005275D01*
X020614Y005241D01*
X020655Y005204D01*
X020694Y005164D01*
X020730Y005121D01*
X020763Y005077D01*
X020762Y005076D01*
X020729Y005121D01*
X020693Y005163D01*
X020654Y005203D01*
X020613Y005240D01*
X020569Y005274D01*
X020523Y005305D01*
X020475Y005333D01*
X020425Y005357D01*
X020373Y005378D01*
X020320Y005395D01*
X020266Y005409D01*
X020211Y005418D01*
X020156Y005424D01*
X020100Y005426D01*
X020100Y005425D01*
X020156Y005423D01*
X020211Y005417D01*
X020266Y005408D01*
X020320Y005394D01*
X020373Y005377D01*
X020424Y005356D01*
X020474Y005332D01*
X020522Y005304D01*
X020568Y005274D01*
X020612Y005239D01*
X020654Y005202D01*
X020692Y005163D01*
X020728Y005120D01*
X020761Y005075D01*
X020760Y005075D01*
X020728Y005120D01*
X020692Y005162D01*
X020653Y005202D01*
X020612Y005239D01*
X020568Y005273D01*
X020522Y005304D01*
X020474Y005331D01*
X020424Y005355D01*
X020372Y005376D01*
X020320Y005393D01*
X020266Y005407D01*
X020211Y005416D01*
X020156Y005422D01*
X020100Y005424D01*
X020100Y005423D01*
X020156Y005421D01*
X020211Y005415D01*
X020266Y005406D01*
X020319Y005392D01*
X020372Y005375D01*
X020423Y005355D01*
X020473Y005330D01*
X020521Y005303D01*
X020567Y005272D01*
X020611Y005238D01*
X020652Y005201D01*
X020691Y005161D01*
X020727Y005119D01*
X020760Y005074D01*
X020759Y005074D01*
X020726Y005118D01*
X020690Y005161D01*
X020652Y005200D01*
X020610Y005237D01*
X020567Y005271D01*
X020521Y005302D01*
X020473Y005329D01*
X020423Y005354D01*
X020372Y005374D01*
X020319Y005391D01*
X020265Y005405D01*
X020211Y005414D01*
X020156Y005420D01*
X020100Y005422D01*
X020100Y005421D01*
X020156Y005419D01*
X020211Y005413D01*
X020265Y005404D01*
X020319Y005390D01*
X020371Y005373D01*
X020423Y005353D01*
X020472Y005329D01*
X020520Y005301D01*
X020566Y005270D01*
X020610Y005236D01*
X020651Y005200D01*
X020689Y005160D01*
X020725Y005118D01*
X020758Y005073D01*
X020757Y005073D01*
X020724Y005117D01*
X020689Y005159D01*
X020650Y005199D01*
X020609Y005236D01*
X020566Y005269D01*
X020520Y005300D01*
X020472Y005328D01*
X020422Y005352D01*
X020371Y005372D01*
X020318Y005389D01*
X020265Y005403D01*
X020211Y005412D01*
X020156Y005418D01*
X020100Y005420D01*
X020100Y005419D01*
X020156Y005417D01*
X020210Y005411D01*
X020265Y005402D01*
X020318Y005388D01*
X020371Y005371D01*
X020422Y005351D01*
X020471Y005327D01*
X020519Y005299D01*
X020565Y005269D01*
X020608Y005235D01*
X020650Y005198D01*
X020688Y005159D01*
X020724Y005116D01*
X020756Y005072D01*
X020755Y005071D01*
X020723Y005116D01*
X020687Y005158D01*
X020649Y005197D01*
X020608Y005234D01*
X020564Y005268D01*
X020519Y005299D01*
X020471Y005326D01*
X020421Y005350D01*
X020370Y005371D01*
X020318Y005387D01*
X020264Y005401D01*
X020210Y005410D01*
X020156Y005416D01*
X020100Y005418D01*
X020100Y005417D01*
X020155Y005415D01*
X020210Y005409D01*
X020264Y005400D01*
X020318Y005387D01*
X020370Y005370D01*
X020421Y005349D01*
X020470Y005325D01*
X020518Y005298D01*
X020564Y005267D01*
X020607Y005233D01*
X020648Y005197D01*
X020687Y005157D01*
X020722Y005115D01*
X020755Y005071D01*
D15*
X021000Y005075D02*
X021000Y005475D01*
X020998Y005492D01*
X020994Y005509D01*
X020987Y005525D01*
X020977Y005539D01*
X020964Y005552D01*
X020950Y005562D01*
X020934Y005569D01*
X020917Y005573D01*
X020900Y005575D01*
X016600Y005575D01*
X016583Y005573D01*
X016566Y005569D01*
X016550Y005562D01*
X016536Y005552D01*
X016523Y005539D01*
X016513Y005525D01*
X016506Y005509D01*
X016502Y005492D01*
X016500Y005475D01*
X016500Y005075D01*
X016500Y004175D02*
X016500Y003775D01*
X016502Y003758D01*
X016506Y003741D01*
X016513Y003725D01*
X016523Y003711D01*
X016536Y003698D01*
X016550Y003688D01*
X016566Y003681D01*
X016583Y003677D01*
X016600Y003675D01*
X020900Y003675D01*
X020917Y003677D01*
X020934Y003681D01*
X020950Y003688D01*
X020964Y003698D01*
X020977Y003711D01*
X020987Y003725D01*
X020994Y003741D01*
X020998Y003758D01*
X021000Y003775D01*
X021000Y004175D01*
X023000Y004250D02*
X023000Y004750D01*
X023250Y005000D01*
X023000Y005250D01*
X023000Y005750D01*
X023250Y006000D01*
X023000Y006250D01*
X023000Y006750D01*
X023250Y007000D01*
X024750Y007000D01*
X025000Y006750D01*
X025000Y006250D01*
X024750Y006000D01*
X025000Y005750D01*
X025000Y005250D01*
X024750Y005000D01*
X025000Y004750D01*
X025000Y004250D01*
X024750Y004000D01*
X023250Y004000D01*
X023000Y004250D01*
X019000Y004375D02*
X019000Y004625D01*
X019000Y004875D01*
X018850Y004875D02*
X018650Y004875D01*
X018650Y004375D01*
X018850Y004375D01*
X018850Y004875D01*
X018500Y004875D02*
X018500Y004625D01*
X018500Y004375D01*
X023500Y009250D02*
X023750Y009000D01*
X024250Y009000D01*
X024500Y009250D01*
X024750Y009000D01*
X025250Y009000D01*
X025500Y009250D01*
X025750Y009000D01*
X026250Y009000D01*
X026500Y009250D01*
X026500Y009750D01*
X026250Y010000D01*
X025750Y010000D01*
X025500Y009750D01*
X025250Y010000D01*
X024750Y010000D01*
X024500Y009750D01*
X024250Y010000D01*
X023750Y010000D01*
X023500Y009750D01*
X023500Y009250D01*
X023750Y010500D02*
X023500Y010750D01*
X023500Y011250D01*
X023750Y011500D01*
X024250Y011500D01*
X024500Y011250D01*
X024750Y011500D01*
X025250Y011500D01*
X025500Y011250D01*
X025750Y011500D01*
X026250Y011500D01*
X026500Y011250D01*
X026500Y010750D01*
X026250Y010500D01*
X025750Y010500D01*
X025500Y010750D01*
X025250Y010500D01*
X024750Y010500D01*
X024500Y010750D01*
X024250Y010500D01*
X023750Y010500D01*
X021431Y011980D02*
X021004Y011980D01*
X021218Y011980D02*
X021218Y012621D01*
X021004Y012407D01*
X020787Y012514D02*
X020680Y012621D01*
X020466Y012621D01*
X020360Y012514D01*
X020360Y012087D01*
X020466Y011980D01*
X020680Y011980D01*
X020787Y012087D01*
X020144Y011980D02*
X019930Y011980D01*
X020037Y011980D02*
X020037Y012621D01*
X019930Y012621D02*
X020144Y012621D01*
X020375Y015000D02*
X020875Y015000D01*
X021125Y015250D01*
X021125Y015750D01*
X020875Y016000D01*
X021125Y016250D01*
X021125Y016750D01*
X020875Y017000D01*
X021125Y017250D01*
X021125Y017750D01*
X020875Y018000D01*
X020375Y018000D01*
X020125Y017750D01*
X020125Y017250D01*
X020375Y017000D01*
X020125Y016750D01*
X020125Y016250D01*
X020375Y016000D01*
X020125Y015750D01*
X020125Y015250D01*
X020375Y015000D01*
X019125Y015250D02*
X018875Y015000D01*
X018375Y015000D01*
X018125Y015250D01*
X018125Y015750D01*
X018375Y016000D01*
X018125Y016250D01*
X018125Y016750D01*
X018375Y017000D01*
X018125Y017250D01*
X018125Y017750D01*
X018375Y018000D01*
X018875Y018000D01*
X019125Y017750D01*
X019125Y017250D01*
X018875Y017000D01*
X019125Y016750D01*
X019125Y016250D01*
X018875Y016000D01*
X019125Y015750D01*
X019125Y015250D01*
X017625Y015250D02*
X017375Y015000D01*
X016875Y015000D01*
X016625Y015250D01*
X016625Y015750D01*
X016875Y016000D01*
X016625Y016250D01*
X016625Y016750D01*
X016875Y017000D01*
X016625Y017250D01*
X016625Y017750D01*
X016875Y018000D01*
X017375Y018000D01*
X017625Y017750D01*
X017625Y017250D01*
X017375Y017000D01*
X017625Y016750D01*
X017625Y016250D01*
X017375Y016000D01*
X017625Y015750D01*
X017625Y015250D01*
X015625Y015250D02*
X015375Y015000D01*
X014875Y015000D01*
X014625Y015250D01*
X014625Y015750D01*
X014875Y016000D01*
X014625Y016250D01*
X014625Y016750D01*
X014875Y017000D01*
X014625Y017250D01*
X014625Y017750D01*
X014875Y018000D01*
X015375Y018000D01*
X015625Y017750D01*
X015625Y017250D01*
X015375Y017000D01*
X015625Y016750D01*
X015625Y016250D01*
X015375Y016000D01*
X015625Y015750D01*
X015625Y015250D01*
X014125Y015250D02*
X013875Y015000D01*
X013375Y015000D01*
X013125Y015250D01*
X013125Y015750D01*
X013375Y016000D01*
X013125Y016250D01*
X013125Y016750D01*
X013375Y017000D01*
X013125Y017250D01*
X013125Y017750D01*
X013375Y018000D01*
X013875Y018000D01*
X014125Y017750D01*
X014125Y017250D01*
X013875Y017000D01*
X014125Y016750D01*
X014125Y016250D01*
X013875Y016000D01*
X014125Y015750D01*
X014125Y015250D01*
X012500Y014750D02*
X012500Y014250D01*
X012250Y014000D01*
X011750Y014000D01*
X011500Y014250D01*
X011250Y014000D01*
X010750Y014000D01*
X010500Y014250D01*
X010250Y014000D01*
X009750Y014000D01*
X009500Y014250D01*
X009500Y014750D01*
X009750Y015000D01*
X010250Y015000D01*
X010500Y014750D01*
X010750Y015000D01*
X011250Y015000D01*
X011500Y014750D01*
X011750Y015000D01*
X012250Y015000D01*
X012500Y014750D01*
X012250Y013500D02*
X011750Y013500D01*
X011500Y013250D01*
X011250Y013500D01*
X010750Y013500D01*
X010500Y013250D01*
X010250Y013500D01*
X009750Y013500D01*
X009500Y013250D01*
X009500Y012750D01*
X009750Y012500D01*
X010250Y012500D01*
X010500Y012750D01*
X010750Y012500D01*
X011250Y012500D01*
X011500Y012750D01*
X011750Y012500D01*
X012250Y012500D01*
X012500Y012750D01*
X012500Y013250D01*
X012250Y013500D01*
X012250Y011500D02*
X011750Y011500D01*
X011500Y011250D01*
X011250Y011500D01*
X010750Y011500D01*
X010500Y011250D01*
X010250Y011500D01*
X009750Y011500D01*
X009500Y011250D01*
X009500Y010750D01*
X009750Y010500D01*
X010250Y010500D01*
X010500Y010750D01*
X010750Y010500D01*
X011250Y010500D01*
X011500Y010750D01*
X011750Y010500D01*
X012250Y010500D01*
X012500Y010750D01*
X012500Y011250D01*
X012250Y011500D01*
X012250Y010000D02*
X011750Y010000D01*
X011500Y009750D01*
X011250Y010000D01*
X010750Y010000D01*
X010500Y009750D01*
X010250Y010000D01*
X009750Y010000D01*
X009500Y009750D01*
X009500Y009250D01*
X009750Y009000D01*
X010250Y009000D01*
X010500Y009250D01*
X010750Y009000D01*
X011250Y009000D01*
X011500Y009250D01*
X011750Y009000D01*
X012250Y009000D01*
X012500Y009250D01*
X012500Y009750D01*
X012250Y010000D01*
X012250Y008000D02*
X011750Y008000D01*
X011500Y007750D01*
X011250Y008000D01*
X010750Y008000D01*
X010500Y007750D01*
X010250Y008000D01*
X009750Y008000D01*
X009500Y007750D01*
X009500Y007250D01*
X009750Y007000D01*
X010250Y007000D01*
X010500Y007250D01*
X010750Y007000D01*
X011250Y007000D01*
X011500Y007250D01*
X011750Y007000D01*
X012250Y007000D01*
X012500Y007250D01*
X012500Y007750D01*
X012250Y008000D01*
X012250Y006500D02*
X011750Y006500D01*
X011500Y006250D01*
X011250Y006500D01*
X010750Y006500D01*
X010500Y006250D01*
X010250Y006500D01*
X009750Y006500D01*
X009500Y006250D01*
X009500Y005750D01*
X009750Y005500D01*
X010250Y005500D01*
X010500Y005750D01*
X010750Y005500D01*
X011250Y005500D01*
X011500Y005750D01*
X011750Y005500D01*
X012250Y005500D01*
X012500Y005750D01*
X012500Y006250D01*
X012250Y006500D01*
X004675Y006200D02*
X004675Y006800D01*
X004575Y006800D01*
X004575Y006900D01*
X004575Y006200D02*
X004575Y006100D01*
X004575Y006200D02*
X004675Y006200D01*
X004225Y005300D02*
X003825Y005300D01*
X002875Y005300D01*
X002525Y005300D01*
X002525Y004700D02*
X002925Y004700D01*
X003875Y004700D01*
X004225Y004700D01*
X004575Y003900D02*
X004575Y003800D01*
X004675Y003800D01*
X004675Y003200D01*
X004575Y003200D01*
X004575Y003100D01*
X004225Y002300D02*
X003875Y002300D01*
X002875Y002300D01*
X002525Y002300D01*
X002175Y003100D02*
X002175Y003200D01*
X002075Y003200D01*
X002075Y003800D01*
X002175Y003800D01*
X002175Y003900D01*
X003275Y003500D02*
X003277Y003520D01*
X003283Y003538D01*
X003292Y003556D01*
X003304Y003571D01*
X003319Y003583D01*
X003337Y003592D01*
X003355Y003598D01*
X003375Y003600D01*
X003395Y003598D01*
X003413Y003592D01*
X003431Y003583D01*
X003446Y003571D01*
X003458Y003556D01*
X003467Y003538D01*
X003473Y003520D01*
X003475Y003500D01*
X003473Y003480D01*
X003467Y003462D01*
X003458Y003444D01*
X003446Y003429D01*
X003431Y003417D01*
X003413Y003408D01*
X003395Y003402D01*
X003375Y003400D01*
X003355Y003402D01*
X003337Y003408D01*
X003319Y003417D01*
X003304Y003429D01*
X003292Y003444D01*
X003283Y003462D01*
X003277Y003480D01*
X003275Y003500D01*
X002675Y003500D02*
X002677Y003552D01*
X002683Y003604D01*
X002693Y003656D01*
X002706Y003706D01*
X002723Y003756D01*
X002744Y003804D01*
X002769Y003850D01*
X002797Y003894D01*
X002828Y003936D01*
X002862Y003976D01*
X002899Y004013D01*
X002939Y004047D01*
X002981Y004078D01*
X003025Y004106D01*
X003071Y004131D01*
X003119Y004152D01*
X003169Y004169D01*
X003219Y004182D01*
X003271Y004192D01*
X003323Y004198D01*
X003375Y004200D01*
X003427Y004198D01*
X003479Y004192D01*
X003531Y004182D01*
X003581Y004169D01*
X003631Y004152D01*
X003679Y004131D01*
X003725Y004106D01*
X003769Y004078D01*
X003811Y004047D01*
X003851Y004013D01*
X003888Y003976D01*
X003922Y003936D01*
X003953Y003894D01*
X003981Y003850D01*
X004006Y003804D01*
X004027Y003756D01*
X004044Y003706D01*
X004057Y003656D01*
X004067Y003604D01*
X004073Y003552D01*
X004075Y003500D01*
X004073Y003448D01*
X004067Y003396D01*
X004057Y003344D01*
X004044Y003294D01*
X004027Y003244D01*
X004006Y003196D01*
X003981Y003150D01*
X003953Y003106D01*
X003922Y003064D01*
X003888Y003024D01*
X003851Y002987D01*
X003811Y002953D01*
X003769Y002922D01*
X003725Y002894D01*
X003679Y002869D01*
X003631Y002848D01*
X003581Y002831D01*
X003531Y002818D01*
X003479Y002808D01*
X003427Y002802D01*
X003375Y002800D01*
X003323Y002802D01*
X003271Y002808D01*
X003219Y002818D01*
X003169Y002831D01*
X003119Y002848D01*
X003071Y002869D01*
X003025Y002894D01*
X002981Y002922D01*
X002939Y002953D01*
X002899Y002987D01*
X002862Y003024D01*
X002828Y003064D01*
X002797Y003106D01*
X002769Y003150D01*
X002744Y003196D01*
X002723Y003244D01*
X002706Y003294D01*
X002693Y003344D01*
X002683Y003396D01*
X002677Y003448D01*
X002675Y003500D01*
X002175Y006100D02*
X002175Y006200D01*
X002075Y006200D01*
X002075Y006800D01*
X002175Y006800D01*
X002175Y006900D01*
X002525Y007700D02*
X002875Y007700D01*
X003875Y007700D01*
X004225Y007700D01*
X003275Y006500D02*
X003277Y006520D01*
X003283Y006538D01*
X003292Y006556D01*
X003304Y006571D01*
X003319Y006583D01*
X003337Y006592D01*
X003355Y006598D01*
X003375Y006600D01*
X003395Y006598D01*
X003413Y006592D01*
X003431Y006583D01*
X003446Y006571D01*
X003458Y006556D01*
X003467Y006538D01*
X003473Y006520D01*
X003475Y006500D01*
X003473Y006480D01*
X003467Y006462D01*
X003458Y006444D01*
X003446Y006429D01*
X003431Y006417D01*
X003413Y006408D01*
X003395Y006402D01*
X003375Y006400D01*
X003355Y006402D01*
X003337Y006408D01*
X003319Y006417D01*
X003304Y006429D01*
X003292Y006444D01*
X003283Y006462D01*
X003277Y006480D01*
X003275Y006500D01*
X002675Y006500D02*
X002677Y006552D01*
X002683Y006604D01*
X002693Y006656D01*
X002706Y006706D01*
X002723Y006756D01*
X002744Y006804D01*
X002769Y006850D01*
X002797Y006894D01*
X002828Y006936D01*
X002862Y006976D01*
X002899Y007013D01*
X002939Y007047D01*
X002981Y007078D01*
X003025Y007106D01*
X003071Y007131D01*
X003119Y007152D01*
X003169Y007169D01*
X003219Y007182D01*
X003271Y007192D01*
X003323Y007198D01*
X003375Y007200D01*
X003427Y007198D01*
X003479Y007192D01*
X003531Y007182D01*
X003581Y007169D01*
X003631Y007152D01*
X003679Y007131D01*
X003725Y007106D01*
X003769Y007078D01*
X003811Y007047D01*
X003851Y007013D01*
X003888Y006976D01*
X003922Y006936D01*
X003953Y006894D01*
X003981Y006850D01*
X004006Y006804D01*
X004027Y006756D01*
X004044Y006706D01*
X004057Y006656D01*
X004067Y006604D01*
X004073Y006552D01*
X004075Y006500D01*
X004073Y006448D01*
X004067Y006396D01*
X004057Y006344D01*
X004044Y006294D01*
X004027Y006244D01*
X004006Y006196D01*
X003981Y006150D01*
X003953Y006106D01*
X003922Y006064D01*
X003888Y006024D01*
X003851Y005987D01*
X003811Y005953D01*
X003769Y005922D01*
X003725Y005894D01*
X003679Y005869D01*
X003631Y005848D01*
X003581Y005831D01*
X003531Y005818D01*
X003479Y005808D01*
X003427Y005802D01*
X003375Y005800D01*
X003323Y005802D01*
X003271Y005808D01*
X003219Y005818D01*
X003169Y005831D01*
X003119Y005848D01*
X003071Y005869D01*
X003025Y005894D01*
X002981Y005922D01*
X002939Y005953D01*
X002899Y005987D01*
X002862Y006024D01*
X002828Y006064D01*
X002797Y006106D01*
X002769Y006150D01*
X002744Y006196D01*
X002723Y006244D01*
X002706Y006294D01*
X002693Y006344D01*
X002683Y006396D01*
X002677Y006448D01*
X002675Y006500D01*
X002915Y008945D02*
X004335Y008945D01*
X004335Y010805D02*
X002915Y010805D01*
X003210Y014536D02*
X000610Y014536D01*
X000530Y014536D01*
X000530Y018466D01*
X000610Y018466D01*
X003210Y018466D01*
X004150Y018466D01*
X004150Y014536D01*
X003210Y014536D01*
X003210Y015166D01*
X003210Y015866D02*
X003210Y017136D01*
X003210Y017836D02*
X003210Y018466D01*
X003300Y019400D02*
X001500Y019400D01*
X001500Y019450D01*
X000800Y018800D02*
X000800Y021200D01*
X005200Y021200D01*
X005200Y018800D01*
X000800Y018800D01*
X000610Y018466D02*
X000610Y014536D01*
X000930Y015516D02*
X000932Y015544D01*
X000938Y015571D01*
X000947Y015597D01*
X000960Y015622D01*
X000977Y015645D01*
X000996Y015665D01*
X001018Y015682D01*
X001042Y015696D01*
X001068Y015706D01*
X001095Y015713D01*
X001123Y015716D01*
X001151Y015715D01*
X001178Y015710D01*
X001205Y015701D01*
X001230Y015689D01*
X001253Y015674D01*
X001274Y015655D01*
X001292Y015634D01*
X001307Y015610D01*
X001318Y015584D01*
X001326Y015558D01*
X001330Y015530D01*
X001330Y015502D01*
X001326Y015474D01*
X001318Y015448D01*
X001307Y015422D01*
X001292Y015398D01*
X001274Y015377D01*
X001253Y015358D01*
X001230Y015343D01*
X001205Y015331D01*
X001178Y015322D01*
X001151Y015317D01*
X001123Y015316D01*
X001095Y015319D01*
X001068Y015326D01*
X001042Y015336D01*
X001018Y015350D01*
X000996Y015367D01*
X000977Y015387D01*
X000960Y015410D01*
X000947Y015435D01*
X000938Y015461D01*
X000932Y015488D01*
X000930Y015516D01*
X000930Y017486D02*
X000932Y017514D01*
X000938Y017541D01*
X000947Y017567D01*
X000960Y017592D01*
X000977Y017615D01*
X000996Y017635D01*
X001018Y017652D01*
X001042Y017666D01*
X001068Y017676D01*
X001095Y017683D01*
X001123Y017686D01*
X001151Y017685D01*
X001178Y017680D01*
X001205Y017671D01*
X001230Y017659D01*
X001253Y017644D01*
X001274Y017625D01*
X001292Y017604D01*
X001307Y017580D01*
X001318Y017554D01*
X001326Y017528D01*
X001330Y017500D01*
X001330Y017472D01*
X001326Y017444D01*
X001318Y017418D01*
X001307Y017392D01*
X001292Y017368D01*
X001274Y017347D01*
X001253Y017328D01*
X001230Y017313D01*
X001205Y017301D01*
X001178Y017292D01*
X001151Y017287D01*
X001123Y017286D01*
X001095Y017289D01*
X001068Y017296D01*
X001042Y017306D01*
X001018Y017320D01*
X000996Y017337D01*
X000977Y017357D01*
X000960Y017380D01*
X000947Y017405D01*
X000938Y017431D01*
X000932Y017458D01*
X000930Y017486D01*
X003300Y019400D02*
X003300Y019500D01*
X003300Y019400D02*
X003500Y019400D01*
X003500Y019700D01*
X003500Y019400D02*
X003700Y019400D01*
X003900Y019400D01*
X004100Y019400D01*
X004100Y019600D01*
X004100Y019400D02*
X004300Y019400D01*
X004300Y019450D01*
X004300Y019400D02*
X004500Y019400D01*
X004500Y019450D01*
X003900Y019400D02*
X003900Y020600D01*
X004100Y020600D01*
X004300Y020600D01*
X004500Y020600D01*
X004500Y020550D01*
X004300Y020550D02*
X004300Y020600D01*
X004100Y020600D02*
X004100Y020400D01*
X003900Y020600D02*
X003700Y020600D01*
X003500Y020600D01*
X003500Y020300D01*
X003300Y020500D02*
X003300Y020600D01*
X003500Y020600D01*
X003300Y020600D02*
X001500Y020600D01*
X001500Y020550D01*
X003700Y020600D02*
X003700Y019400D01*
X021625Y017750D02*
X021625Y017250D01*
X021875Y017000D01*
X021625Y016750D01*
X021625Y016250D01*
X021875Y016000D01*
X021625Y015750D01*
X021625Y015250D01*
X021875Y015000D01*
X022375Y015000D01*
X022625Y015250D01*
X022625Y015750D01*
X022375Y016000D01*
X022625Y016250D01*
X022625Y016750D01*
X022375Y017000D01*
X022625Y017250D01*
X022625Y017750D01*
X022375Y018000D01*
X021875Y018000D01*
X021625Y017750D01*
D16*
X020100Y005425D02*
X017400Y005425D01*
X017400Y005125D02*
X020100Y005125D01*
X019150Y004625D02*
X019000Y004625D01*
X018500Y004625D02*
X018350Y004625D01*
X017400Y004125D02*
X020100Y004125D01*
X020100Y003825D02*
X017400Y003825D01*
X003875Y004600D02*
X003875Y004700D01*
X003875Y004600D02*
X002925Y004600D01*
X002925Y004700D01*
X002875Y005300D02*
X002875Y005400D01*
X003825Y005400D01*
X003825Y005300D01*
X003875Y007600D02*
X002875Y007600D01*
X002875Y007700D01*
X003875Y007700D02*
X003875Y007600D01*
X003095Y010585D02*
X003097Y010608D01*
X003103Y010630D01*
X003112Y010652D01*
X003125Y010671D01*
X003140Y010688D01*
X003158Y010702D01*
X003179Y010713D01*
X003201Y010721D01*
X003223Y010725D01*
X003247Y010725D01*
X003269Y010721D01*
X003291Y010713D01*
X003312Y010702D01*
X003330Y010688D01*
X003345Y010671D01*
X003358Y010652D01*
X003367Y010630D01*
X003373Y010608D01*
X003375Y010585D01*
X003373Y010562D01*
X003367Y010540D01*
X003358Y010518D01*
X003345Y010499D01*
X003330Y010482D01*
X003312Y010468D01*
X003291Y010457D01*
X003269Y010449D01*
X003247Y010445D01*
X003223Y010445D01*
X003201Y010449D01*
X003179Y010457D01*
X003158Y010468D01*
X003140Y010482D01*
X003125Y010499D01*
X003112Y010518D01*
X003103Y010540D01*
X003097Y010562D01*
X003095Y010585D01*
X002875Y002400D02*
X002875Y002300D01*
X002875Y002400D02*
X003875Y002400D01*
X003875Y002300D01*
D17*
X002190Y001950D02*
X002190Y001650D01*
X002115Y001575D01*
X001965Y001575D01*
X001890Y001650D01*
X002190Y001950D01*
X002115Y002025D01*
X001965Y002025D01*
X001890Y001950D01*
X001890Y001650D01*
X001729Y001650D02*
X001654Y001575D01*
X001504Y001575D01*
X001429Y001650D01*
X001504Y001800D02*
X001654Y001800D01*
X001729Y001725D01*
X001729Y001650D01*
X001504Y001800D02*
X001429Y001875D01*
X001429Y001950D01*
X001504Y002025D01*
X001654Y002025D01*
X001729Y001950D01*
X009025Y005775D02*
X009325Y005775D01*
X009175Y005775D02*
X009175Y006225D01*
X009025Y006075D01*
X009025Y007275D02*
X009325Y007275D01*
X009175Y007275D02*
X009175Y007725D01*
X009025Y007575D01*
X009025Y009275D02*
X009325Y009275D01*
X009175Y009275D02*
X009175Y009725D01*
X009025Y009575D01*
X009025Y010775D02*
X009325Y010775D01*
X009175Y010775D02*
X009175Y011225D01*
X009025Y011075D01*
X010150Y011750D02*
X010225Y011675D01*
X010375Y011675D01*
X010450Y011750D01*
X010450Y011825D01*
X010375Y011900D01*
X010225Y011900D01*
X010150Y011975D01*
X010150Y012050D01*
X010225Y012125D01*
X010375Y012125D01*
X010450Y012050D01*
X010610Y012125D02*
X010836Y012125D01*
X010911Y012050D01*
X010911Y011900D01*
X010836Y011825D01*
X010610Y011825D01*
X010610Y011675D02*
X010610Y012125D01*
X010761Y011825D02*
X010911Y011675D01*
X011071Y011825D02*
X011221Y011675D01*
X011371Y011825D01*
X011371Y012125D01*
X011531Y012050D02*
X011606Y012125D01*
X011756Y012125D01*
X011831Y012050D01*
X011831Y011975D01*
X011531Y011675D01*
X011831Y011675D01*
X011071Y011825D02*
X011071Y012125D01*
X012650Y012875D02*
X012725Y012800D01*
X012875Y012800D01*
X012950Y012875D01*
X012950Y012950D01*
X012875Y013025D01*
X012725Y013025D01*
X012650Y013100D01*
X012650Y013175D01*
X012725Y013250D01*
X012875Y013250D01*
X012950Y013175D01*
X013110Y013250D02*
X013110Y012800D01*
X013110Y012950D02*
X013336Y012950D01*
X013411Y013025D01*
X013411Y013175D01*
X013336Y013250D01*
X013110Y013250D01*
X013261Y012950D02*
X013411Y012800D01*
X013571Y012950D02*
X013721Y012800D01*
X013871Y012950D01*
X013871Y013250D01*
X014031Y013100D02*
X014181Y013250D01*
X014181Y012800D01*
X014031Y012800D02*
X014331Y012800D01*
X014875Y012725D02*
X014950Y012650D01*
X015025Y012650D01*
X015100Y012725D01*
X015100Y012875D01*
X015175Y012950D01*
X015250Y012950D01*
X015325Y012875D01*
X015325Y012725D01*
X015250Y012650D01*
X014950Y012950D02*
X014875Y012875D01*
X014875Y012725D01*
X014875Y013110D02*
X014875Y013336D01*
X014950Y013411D01*
X015100Y013411D01*
X015175Y013336D01*
X015175Y013110D01*
X015325Y013110D02*
X014875Y013110D01*
X015175Y013261D02*
X015325Y013411D01*
X015175Y013571D02*
X015325Y013721D01*
X015175Y013871D01*
X014875Y013871D01*
X015025Y014031D02*
X014875Y014181D01*
X015325Y014181D01*
X015325Y014031D02*
X015325Y014331D01*
X015250Y014492D02*
X014950Y014792D01*
X015250Y014792D01*
X015325Y014717D01*
X015325Y014567D01*
X015250Y014492D01*
X014950Y014492D01*
X014875Y014567D01*
X014875Y014717D01*
X014950Y014792D01*
X014331Y014675D02*
X014331Y014375D01*
X014256Y014300D01*
X014106Y014300D01*
X014031Y014375D01*
X014331Y014675D01*
X014256Y014750D01*
X014106Y014750D01*
X014031Y014675D01*
X014031Y014375D01*
X013871Y014450D02*
X013871Y014750D01*
X013571Y014750D02*
X013571Y014450D01*
X013721Y014300D01*
X013871Y014450D01*
X013411Y014525D02*
X013336Y014450D01*
X013110Y014450D01*
X013110Y014300D02*
X013110Y014750D01*
X013336Y014750D01*
X013411Y014675D01*
X013411Y014525D01*
X013261Y014450D02*
X013411Y014300D01*
X012950Y014375D02*
X012875Y014300D01*
X012725Y014300D01*
X012650Y014375D01*
X012725Y014525D02*
X012650Y014600D01*
X012650Y014675D01*
X012725Y014750D01*
X012875Y014750D01*
X012950Y014675D01*
X012875Y014525D02*
X012950Y014450D01*
X012950Y014375D01*
X012875Y014525D02*
X012725Y014525D01*
X013571Y013250D02*
X013571Y012950D01*
X014875Y013571D02*
X015175Y013571D01*
X016875Y013485D02*
X016875Y013711D01*
X016950Y013786D01*
X017100Y013786D01*
X017175Y013711D01*
X017175Y013485D01*
X017325Y013485D02*
X016875Y013485D01*
X016950Y013325D02*
X016875Y013250D01*
X016875Y013100D01*
X016950Y013025D01*
X017025Y013025D01*
X017100Y013100D01*
X017100Y013250D01*
X017175Y013325D01*
X017250Y013325D01*
X017325Y013250D01*
X017325Y013100D01*
X017250Y013025D01*
X017175Y013636D02*
X017325Y013786D01*
X017175Y013946D02*
X016875Y013946D01*
X017175Y013946D02*
X017325Y014096D01*
X017175Y014246D01*
X016875Y014246D01*
X016950Y014406D02*
X017025Y014406D01*
X017100Y014481D01*
X017100Y014706D01*
X017250Y014706D02*
X016950Y014706D01*
X016875Y014631D01*
X016875Y014481D01*
X016950Y014406D01*
X017250Y014406D02*
X017325Y014481D01*
X017325Y014631D01*
X017250Y014706D01*
X018425Y014540D02*
X018425Y014390D01*
X018500Y014315D01*
X018575Y014315D01*
X018650Y014390D01*
X018650Y014540D01*
X018725Y014615D01*
X018800Y014615D01*
X018875Y014540D01*
X018875Y014390D01*
X018800Y014315D01*
X018725Y014315D01*
X018650Y014390D01*
X018650Y014540D02*
X018575Y014615D01*
X018500Y014615D01*
X018425Y014540D01*
X018425Y014154D02*
X018725Y014154D01*
X018875Y014004D01*
X018725Y013854D01*
X018425Y013854D01*
X018500Y013694D02*
X018650Y013694D01*
X018725Y013619D01*
X018725Y013394D01*
X018725Y013544D02*
X018875Y013694D01*
X018500Y013694D02*
X018425Y013619D01*
X018425Y013394D01*
X018875Y013394D01*
X018800Y013234D02*
X018875Y013159D01*
X018875Y013008D01*
X018800Y012933D01*
X018650Y013008D02*
X018650Y013159D01*
X018725Y013234D01*
X018800Y013234D01*
X018650Y013008D02*
X018575Y012933D01*
X018500Y012933D01*
X018425Y013008D01*
X018425Y013159D01*
X018500Y013234D01*
X020425Y013159D02*
X020425Y013008D01*
X020500Y012933D01*
X020575Y012933D01*
X020650Y013008D01*
X020650Y013159D01*
X020725Y013234D01*
X020800Y013234D01*
X020875Y013159D01*
X020875Y013008D01*
X020800Y012933D01*
X020500Y013234D02*
X020425Y013159D01*
X020425Y013394D02*
X020425Y013619D01*
X020500Y013694D01*
X020650Y013694D01*
X020725Y013619D01*
X020725Y013394D01*
X020725Y013544D02*
X020875Y013694D01*
X020725Y013854D02*
X020425Y013854D01*
X020725Y013854D02*
X020875Y014004D01*
X020725Y014154D01*
X020425Y014154D01*
X020425Y014315D02*
X020425Y014615D01*
X020500Y014615D01*
X020800Y014315D01*
X020875Y014315D01*
X021925Y014154D02*
X022225Y014154D01*
X022375Y014004D01*
X022225Y013854D01*
X021925Y013854D01*
X022000Y013694D02*
X022150Y013694D01*
X022225Y013619D01*
X022225Y013394D01*
X022225Y013544D02*
X022375Y013694D01*
X022375Y013394D02*
X021925Y013394D01*
X021925Y013619D01*
X022000Y013694D01*
X022000Y013234D02*
X021925Y013159D01*
X021925Y013008D01*
X022000Y012933D01*
X022075Y012933D01*
X022150Y013008D01*
X022150Y013159D01*
X022225Y013234D01*
X022300Y013234D01*
X022375Y013159D01*
X022375Y013008D01*
X022300Y012933D01*
X023558Y012125D02*
X023558Y012050D01*
X023633Y011975D01*
X023784Y011975D01*
X023859Y011900D01*
X023859Y011825D01*
X023784Y011750D01*
X023633Y011750D01*
X023558Y011825D01*
X023558Y012125D02*
X023633Y012200D01*
X023784Y012200D01*
X023859Y012125D01*
X024019Y012200D02*
X024244Y012200D01*
X024319Y012125D01*
X024319Y011975D01*
X024244Y011900D01*
X024019Y011900D01*
X024169Y011900D02*
X024319Y011750D01*
X024479Y011900D02*
X024629Y011750D01*
X024779Y011900D01*
X024779Y012200D01*
X024940Y012200D02*
X024940Y012125D01*
X025090Y011975D01*
X025090Y011750D01*
X025090Y011975D02*
X025240Y012125D01*
X025240Y012200D01*
X024479Y012200D02*
X024479Y011900D01*
X024019Y011750D02*
X024019Y012200D01*
X026565Y011075D02*
X026715Y011225D01*
X026715Y010775D01*
X026565Y010775D02*
X026865Y010775D01*
X026715Y009725D02*
X026715Y009275D01*
X026565Y009275D02*
X026865Y009275D01*
X026565Y009575D02*
X026715Y009725D01*
X025240Y008700D02*
X024940Y008250D01*
X024779Y008400D02*
X024779Y008700D01*
X024940Y008700D02*
X025240Y008250D01*
X024779Y008400D02*
X024629Y008250D01*
X024479Y008400D01*
X024479Y008700D01*
X024319Y008625D02*
X024319Y008475D01*
X024244Y008400D01*
X024019Y008400D01*
X024169Y008400D02*
X024319Y008250D01*
X024019Y008250D02*
X024019Y008700D01*
X024244Y008700D01*
X024319Y008625D01*
X023859Y008625D02*
X023784Y008700D01*
X023633Y008700D01*
X023558Y008625D01*
X023558Y008550D01*
X023633Y008475D01*
X023784Y008475D01*
X023859Y008400D01*
X023859Y008325D01*
X023784Y008250D01*
X023633Y008250D01*
X023558Y008325D01*
X025175Y006715D02*
X025625Y006715D01*
X025625Y006565D02*
X025625Y006865D01*
X025325Y006565D02*
X025175Y006715D01*
X025175Y006404D02*
X025475Y006404D01*
X025625Y006254D01*
X025475Y006104D01*
X025175Y006104D01*
X025250Y005944D02*
X025175Y005869D01*
X025175Y005719D01*
X025250Y005644D01*
X025325Y005644D01*
X025400Y005719D01*
X025400Y005869D01*
X025475Y005944D01*
X025550Y005944D01*
X025625Y005869D01*
X025625Y005719D01*
X025550Y005644D01*
X024650Y003765D02*
X024575Y003765D01*
X024500Y003690D01*
X024500Y003465D01*
X024650Y003465D01*
X024725Y003540D01*
X024725Y003690D01*
X024650Y003765D01*
X024350Y003615D02*
X024500Y003465D01*
X024350Y003615D02*
X024275Y003765D01*
X021990Y005300D02*
X021690Y005300D01*
X021840Y005300D02*
X021840Y005750D01*
X021690Y005600D01*
X021529Y005675D02*
X021454Y005750D01*
X021304Y005750D01*
X021229Y005675D01*
X021229Y005375D01*
X021304Y005300D01*
X021454Y005300D01*
X021529Y005375D01*
X021529Y005675D01*
X021379Y005450D02*
X021529Y005300D01*
X022525Y006315D02*
X022375Y006465D01*
X022825Y006465D01*
X022825Y006315D02*
X022825Y006615D01*
X014456Y007525D02*
X014156Y007525D01*
X014381Y007750D01*
X014381Y007300D01*
X013996Y007450D02*
X013996Y007750D01*
X013996Y007450D02*
X013846Y007300D01*
X013696Y007450D01*
X013696Y007750D01*
X013536Y007675D02*
X013536Y007525D01*
X013461Y007450D01*
X013235Y007450D01*
X013235Y007300D02*
X013235Y007750D01*
X013461Y007750D01*
X013536Y007675D01*
X013386Y007450D02*
X013536Y007300D01*
X013075Y007375D02*
X013000Y007300D01*
X012850Y007300D01*
X012775Y007375D01*
X012850Y007525D02*
X013000Y007525D01*
X013075Y007450D01*
X013075Y007375D01*
X012850Y007525D02*
X012775Y007600D01*
X012775Y007675D01*
X012850Y007750D01*
X013000Y007750D01*
X013075Y007675D01*
X013110Y008925D02*
X013110Y009375D01*
X013336Y009375D01*
X013411Y009300D01*
X013411Y009150D01*
X013336Y009075D01*
X013110Y009075D01*
X013261Y009075D02*
X013411Y008925D01*
X013571Y009075D02*
X013721Y008925D01*
X013871Y009075D01*
X013871Y009375D01*
X014031Y009300D02*
X014106Y009375D01*
X014256Y009375D01*
X014331Y009300D01*
X014331Y009225D01*
X014256Y009150D01*
X014331Y009075D01*
X014331Y009000D01*
X014256Y008925D01*
X014106Y008925D01*
X014031Y009000D01*
X014181Y009150D02*
X014256Y009150D01*
X013571Y009075D02*
X013571Y009375D01*
X012950Y009300D02*
X012875Y009375D01*
X012725Y009375D01*
X012650Y009300D01*
X012650Y009225D01*
X012725Y009150D01*
X012875Y009150D01*
X012950Y009075D01*
X012950Y009000D01*
X012875Y008925D01*
X012725Y008925D01*
X012650Y009000D01*
X011831Y005250D02*
X011531Y005250D01*
X011531Y005025D01*
X011681Y005100D01*
X011756Y005100D01*
X011831Y005025D01*
X011831Y004875D01*
X011756Y004800D01*
X011606Y004800D01*
X011531Y004875D01*
X011371Y004950D02*
X011371Y005250D01*
X011071Y005250D02*
X011071Y004950D01*
X011221Y004800D01*
X011371Y004950D01*
X010911Y005025D02*
X010836Y004950D01*
X010610Y004950D01*
X010610Y004800D02*
X010610Y005250D01*
X010836Y005250D01*
X010911Y005175D01*
X010911Y005025D01*
X010761Y004950D02*
X010911Y004800D01*
X010450Y004875D02*
X010375Y004800D01*
X010225Y004800D01*
X010150Y004875D01*
X010225Y005025D02*
X010150Y005100D01*
X010150Y005175D01*
X010225Y005250D01*
X010375Y005250D01*
X010450Y005175D01*
X010375Y005025D02*
X010450Y004950D01*
X010450Y004875D01*
X010375Y005025D02*
X010225Y005025D01*
X003918Y011050D02*
X003843Y010975D01*
X003692Y010975D01*
X003617Y011050D01*
X003457Y011050D02*
X003382Y010975D01*
X003232Y010975D01*
X003157Y011050D01*
X003157Y011350D01*
X003232Y011425D01*
X003382Y011425D01*
X003457Y011350D01*
X003617Y011350D02*
X003692Y011425D01*
X003843Y011425D01*
X003918Y011350D01*
X003918Y011275D01*
X003843Y011200D01*
X003918Y011125D01*
X003918Y011050D01*
X003843Y011200D02*
X003767Y011200D01*
X003000Y010975D02*
X002850Y010975D01*
X002925Y010975D02*
X002925Y011425D01*
X002850Y011425D02*
X003000Y011425D01*
X004562Y013238D02*
X004787Y013238D01*
X004862Y013313D01*
X004862Y013613D01*
X004787Y013688D01*
X004562Y013688D01*
X004562Y013238D01*
X005022Y013238D02*
X005323Y013238D01*
X005172Y013238D02*
X005172Y013688D01*
X005022Y013538D01*
X003945Y015011D02*
X003495Y015311D01*
X003645Y015471D02*
X003495Y015621D01*
X003945Y015621D01*
X003945Y015471D02*
X003945Y015771D01*
X003945Y015311D02*
X003495Y015011D01*
X001725Y015041D02*
X001725Y014741D01*
X001725Y014891D02*
X001275Y014891D01*
X001425Y014741D01*
X001350Y016691D02*
X001275Y016766D01*
X001275Y016916D01*
X001350Y016991D01*
X001425Y016991D01*
X001725Y016691D01*
X001725Y016991D01*
X001215Y020625D02*
X000915Y020625D01*
X001215Y020925D01*
X001215Y021000D01*
X001140Y021075D01*
X000990Y021075D01*
X000915Y021000D01*
X001804Y021050D02*
X001879Y020975D01*
X002029Y020975D01*
X002104Y020900D01*
X002104Y020825D01*
X002029Y020750D01*
X001879Y020750D01*
X001804Y020825D01*
X001804Y021050D02*
X001804Y021125D01*
X001879Y021200D01*
X002029Y021200D01*
X002104Y021125D01*
X002265Y021200D02*
X002490Y021200D01*
X002565Y021125D01*
X002565Y020975D01*
X002490Y020900D01*
X002265Y020900D01*
X002265Y020750D02*
X002265Y021200D01*
X004615Y020925D02*
X004765Y021075D01*
X004765Y020625D01*
X004615Y020625D02*
X004915Y020625D01*
X009175Y014725D02*
X009175Y014275D01*
X009025Y014275D02*
X009325Y014275D01*
X009025Y014575D02*
X009175Y014725D01*
X009175Y013225D02*
X009175Y012775D01*
X009025Y012775D02*
X009325Y012775D01*
X009025Y013075D02*
X009175Y013225D01*
X013550Y018065D02*
X013400Y018215D01*
X013850Y018215D01*
X013850Y018065D02*
X013850Y018365D01*
X013871Y018450D02*
X013871Y018750D01*
X014031Y018600D02*
X014181Y018750D01*
X014181Y018300D01*
X014031Y018300D02*
X014331Y018300D01*
X014492Y018300D02*
X014792Y018300D01*
X014900Y018215D02*
X015350Y018215D01*
X015350Y018065D02*
X015350Y018365D01*
X015050Y018065D02*
X014900Y018215D01*
X014642Y018300D02*
X014642Y018750D01*
X014492Y018600D01*
X013871Y018450D02*
X013721Y018300D01*
X013571Y018450D01*
X013571Y018750D01*
X013411Y018675D02*
X013411Y018525D01*
X013336Y018450D01*
X013110Y018450D01*
X013110Y018300D02*
X013110Y018750D01*
X013336Y018750D01*
X013411Y018675D01*
X013261Y018450D02*
X013411Y018300D01*
X012950Y018375D02*
X012875Y018300D01*
X012725Y018300D01*
X012650Y018375D01*
X012725Y018525D02*
X012650Y018600D01*
X012650Y018675D01*
X012725Y018750D01*
X012875Y018750D01*
X012950Y018675D01*
X012875Y018525D02*
X012950Y018450D01*
X012950Y018375D01*
X012875Y018525D02*
X012725Y018525D01*
X016900Y018215D02*
X017050Y018065D01*
X016900Y018215D02*
X017350Y018215D01*
X017350Y018065D02*
X017350Y018365D01*
X018400Y018215D02*
X018850Y018215D01*
X018850Y018065D02*
X018850Y018365D01*
X018550Y018065D02*
X018400Y018215D01*
X020400Y018215D02*
X020850Y018215D01*
X020850Y018065D02*
X020850Y018365D01*
X020550Y018065D02*
X020400Y018215D01*
X021900Y018215D02*
X022050Y018065D01*
X021900Y018215D02*
X022350Y018215D01*
X022350Y018065D02*
X022350Y018365D01*
X022300Y014615D02*
X022225Y014615D01*
X022150Y014540D01*
X022150Y014315D01*
X022300Y014315D01*
X022375Y014390D01*
X022375Y014540D01*
X022300Y014615D01*
X022000Y014465D02*
X022150Y014315D01*
X022000Y014465D02*
X021925Y014615D01*
X020875Y013394D02*
X020425Y013394D01*
X002336Y007850D02*
X002035Y007850D01*
X002186Y007850D02*
X002186Y008300D01*
X002035Y008150D01*
X001875Y008225D02*
X001800Y008300D01*
X001650Y008300D01*
X001575Y008225D01*
X001575Y008150D01*
X001650Y008075D01*
X001800Y008075D01*
X001875Y008000D01*
X001875Y007925D01*
X001800Y007850D01*
X001650Y007850D01*
X001575Y007925D01*
D18*
X003031Y011864D02*
X003258Y011864D01*
X003031Y011864D02*
X003031Y013636D01*
X003258Y013636D01*
X004469Y013636D02*
X004469Y011864D01*
X004242Y011864D01*
X004242Y013636D02*
X004468Y013636D01*
X019464Y011575D02*
X019466Y011595D01*
X019471Y011615D01*
X019481Y011633D01*
X019493Y011650D01*
X019508Y011664D01*
X019526Y011674D01*
X019545Y011682D01*
X019565Y011686D01*
X019585Y011686D01*
X019605Y011682D01*
X019624Y011674D01*
X019642Y011664D01*
X019657Y011650D01*
X019669Y011633D01*
X019679Y011615D01*
X019684Y011595D01*
X019686Y011575D01*
X019684Y011555D01*
X019679Y011535D01*
X019669Y011517D01*
X019657Y011500D01*
X019642Y011486D01*
X019624Y011476D01*
X019605Y011468D01*
X019585Y011464D01*
X019565Y011464D01*
X019545Y011468D01*
X019526Y011476D01*
X019508Y011486D01*
X019493Y011500D01*
X019481Y011517D01*
X019471Y011535D01*
X019466Y011555D01*
X019464Y011575D01*
D19*
X012152Y018288D02*
X012152Y018659D01*
X011967Y018473D01*
X012214Y018473D01*
X011846Y018350D02*
X011784Y018288D01*
X011660Y018288D01*
X011599Y018350D01*
X011599Y018597D01*
X011660Y018659D01*
X011784Y018659D01*
X011846Y018597D01*
X011208Y019133D02*
X011208Y019195D01*
X011147Y019257D01*
X010838Y019257D01*
X010838Y019072D01*
X010900Y019010D01*
X011023Y019010D01*
X011085Y019072D01*
X011085Y019257D01*
X011085Y019378D02*
X010838Y019378D01*
X010838Y019564D01*
X010900Y019625D01*
X011085Y019625D01*
X011023Y019747D02*
X010900Y019747D01*
X010838Y019808D01*
X010838Y019994D01*
X010715Y019994D02*
X011085Y019994D01*
X011085Y019808D01*
X011023Y019747D01*
X011628Y019862D02*
X011752Y019985D01*
X011752Y019615D01*
X011875Y019615D02*
X011628Y019615D01*
X011997Y019677D02*
X012058Y019615D01*
X012182Y019615D01*
X012244Y019677D01*
X012244Y019738D01*
X012182Y019800D01*
X012120Y019800D01*
X012182Y019800D02*
X012244Y019862D01*
X012244Y019924D01*
X012182Y019985D01*
X012058Y019985D01*
X011997Y019924D01*
X012628Y019862D02*
X012752Y019985D01*
X012752Y019615D01*
X012875Y019615D02*
X012628Y019615D01*
X012997Y019615D02*
X013244Y019862D01*
X013244Y019924D01*
X013182Y019985D01*
X013058Y019985D01*
X012997Y019924D01*
X012997Y019615D02*
X013244Y019615D01*
X013628Y019615D02*
X013875Y019615D01*
X013997Y019615D02*
X014244Y019615D01*
X014120Y019615D02*
X014120Y019985D01*
X013997Y019862D01*
X013752Y019985D02*
X013752Y019615D01*
X013628Y019862D02*
X013752Y019985D01*
X014628Y019862D02*
X014752Y019985D01*
X014752Y019615D01*
X014875Y019615D02*
X014628Y019615D01*
X014997Y019677D02*
X015244Y019924D01*
X015244Y019677D01*
X015182Y019615D01*
X015058Y019615D01*
X014997Y019677D01*
X014997Y019924D01*
X015058Y019985D01*
X015182Y019985D01*
X015244Y019924D01*
X015797Y019924D02*
X015797Y019862D01*
X015858Y019800D01*
X016044Y019800D01*
X016044Y019677D02*
X015982Y019615D01*
X015858Y019615D01*
X015797Y019677D01*
X016044Y019677D02*
X016044Y019924D01*
X015982Y019985D01*
X015858Y019985D01*
X015797Y019924D01*
X016797Y019924D02*
X016797Y019862D01*
X016858Y019800D01*
X016982Y019800D01*
X017044Y019738D01*
X017044Y019677D01*
X016982Y019615D01*
X016858Y019615D01*
X016797Y019677D01*
X016797Y019738D01*
X016858Y019800D01*
X016982Y019800D02*
X017044Y019862D01*
X017044Y019924D01*
X016982Y019985D01*
X016858Y019985D01*
X016797Y019924D01*
X016219Y021015D02*
X016281Y021077D01*
X016281Y021324D01*
X016219Y021385D01*
X016096Y021385D01*
X016034Y021324D01*
X016034Y021077D01*
X016096Y021015D01*
X016219Y021015D01*
X015913Y021385D02*
X015666Y021015D01*
X015544Y021015D02*
X015420Y021015D01*
X015482Y021015D02*
X015482Y021385D01*
X015420Y021385D02*
X015544Y021385D01*
X014930Y021015D02*
X014807Y021015D01*
X014868Y021015D02*
X014868Y021385D01*
X014807Y021385D01*
X014623Y021262D02*
X014685Y021200D01*
X014685Y021015D01*
X014500Y021015D01*
X014438Y021077D01*
X014500Y021138D01*
X014685Y021138D01*
X014623Y021262D02*
X014500Y021262D01*
X014316Y021262D02*
X014193Y021262D01*
X014254Y021324D02*
X014254Y021077D01*
X014316Y021015D01*
X014071Y021015D02*
X013947Y021015D01*
X014009Y021015D02*
X014009Y021262D01*
X013947Y021262D01*
X013826Y021262D02*
X013641Y021262D01*
X013579Y021200D01*
X013579Y021077D01*
X013641Y021015D01*
X013826Y021015D01*
X013826Y020953D02*
X013764Y020892D01*
X013702Y020892D01*
X013826Y020953D02*
X013826Y021262D01*
X014009Y021385D02*
X014009Y021447D01*
X013395Y021447D02*
X013395Y021385D01*
X013395Y021262D02*
X013395Y021015D01*
X013333Y021015D02*
X013457Y021015D01*
X013212Y021077D02*
X013212Y021324D01*
X013150Y021385D01*
X012965Y021385D01*
X012965Y021015D01*
X013150Y021015D01*
X013212Y021077D01*
X013333Y021262D02*
X013395Y021262D01*
X010085Y019981D02*
X009776Y019981D01*
X009715Y020043D01*
X009900Y020043D02*
X009900Y019919D01*
X009900Y019798D02*
X009962Y019798D01*
X009962Y019551D01*
X010023Y019551D02*
X009900Y019551D01*
X009838Y019613D01*
X009838Y019736D01*
X009900Y019798D01*
X010085Y019736D02*
X010085Y019613D01*
X010023Y019551D01*
X010085Y019430D02*
X009962Y019306D01*
X009962Y019368D02*
X009962Y019183D01*
X010085Y019183D02*
X009715Y019183D01*
X009715Y019368D01*
X009776Y019430D01*
X009900Y019430D01*
X009962Y019368D01*
X009900Y019061D02*
X009900Y018815D01*
X009838Y018815D02*
X009715Y018938D01*
X009838Y019061D01*
X010085Y019061D01*
X010085Y018815D02*
X009838Y018815D01*
X009085Y019122D02*
X009023Y019060D01*
X009085Y019122D02*
X009085Y019245D01*
X009023Y019307D01*
X008962Y019307D01*
X008900Y019245D01*
X008900Y019122D01*
X008838Y019060D01*
X008776Y019060D01*
X008715Y019122D01*
X008715Y019245D01*
X008776Y019307D01*
X008715Y019428D02*
X008715Y019614D01*
X008776Y019675D01*
X009023Y019675D01*
X009085Y019614D01*
X009085Y019428D01*
X008715Y019428D01*
X008838Y019797D02*
X008715Y019920D01*
X008838Y020044D01*
X009085Y020044D01*
X008900Y020044D02*
X008900Y019797D01*
X008838Y019797D02*
X009085Y019797D01*
X008085Y019797D02*
X008085Y020044D01*
X008085Y019797D02*
X007715Y019797D01*
X007776Y019675D02*
X007715Y019614D01*
X007715Y019490D01*
X007776Y019428D01*
X008023Y019428D01*
X008085Y019490D01*
X008085Y019614D01*
X008023Y019675D01*
X008023Y019307D02*
X007962Y019307D01*
X007900Y019245D01*
X007900Y019122D01*
X007838Y019060D01*
X007776Y019060D01*
X007715Y019122D01*
X007715Y019245D01*
X007776Y019307D01*
X008023Y019307D02*
X008085Y019245D01*
X008085Y019122D01*
X008023Y019060D01*
X018397Y019615D02*
X018397Y019677D01*
X018644Y019924D01*
X018644Y019985D01*
X018397Y019985D01*
X019397Y019800D02*
X019397Y019677D01*
X019458Y019615D01*
X019582Y019615D01*
X019644Y019677D01*
X019644Y019738D01*
X019582Y019800D01*
X019397Y019800D01*
X019520Y019924D01*
X019644Y019985D01*
X020397Y019985D02*
X020397Y019800D01*
X020520Y019862D01*
X020582Y019862D01*
X020644Y019800D01*
X020644Y019677D01*
X020582Y019615D01*
X020458Y019615D01*
X020397Y019677D01*
X020397Y019985D02*
X020644Y019985D01*
X021397Y019800D02*
X021644Y019800D01*
X021582Y019615D02*
X021582Y019985D01*
X021397Y019800D01*
X022397Y019677D02*
X022458Y019615D01*
X022582Y019615D01*
X022644Y019677D01*
X022644Y019738D01*
X022582Y019800D01*
X022520Y019800D01*
X022582Y019800D02*
X022644Y019862D01*
X022644Y019924D01*
X022582Y019985D01*
X022458Y019985D01*
X022397Y019924D01*
X023397Y019924D02*
X023458Y019985D01*
X023582Y019985D01*
X023644Y019924D01*
X023644Y019862D01*
X023397Y019615D01*
X023644Y019615D01*
X024397Y019615D02*
X024644Y019615D01*
X024520Y019615D02*
X024520Y019985D01*
X024397Y019862D01*
X025397Y019924D02*
X025397Y019677D01*
X025644Y019924D01*
X025644Y019677D01*
X025582Y019615D01*
X025458Y019615D01*
X025397Y019677D01*
X025397Y019924D02*
X025458Y019985D01*
X025582Y019985D01*
X025644Y019924D01*
X023881Y021077D02*
X023881Y021324D01*
X023819Y021385D01*
X023696Y021385D01*
X023634Y021324D01*
X023634Y021077D01*
X023696Y021015D01*
X023819Y021015D01*
X023881Y021077D01*
X023513Y021385D02*
X023266Y021015D01*
X023144Y021015D02*
X023020Y021015D01*
X023082Y021015D02*
X023082Y021385D01*
X023020Y021385D02*
X023144Y021385D01*
X022468Y021385D02*
X022468Y021015D01*
X022407Y021015D02*
X022530Y021015D01*
X022285Y021015D02*
X022100Y021015D01*
X022038Y021077D01*
X022100Y021138D01*
X022285Y021138D01*
X022285Y021200D02*
X022285Y021015D01*
X022285Y021200D02*
X022223Y021262D01*
X022100Y021262D01*
X021916Y021262D02*
X021793Y021262D01*
X021854Y021324D02*
X021854Y021077D01*
X021916Y021015D01*
X021671Y021015D02*
X021547Y021015D01*
X021609Y021015D02*
X021609Y021262D01*
X021547Y021262D01*
X021426Y021262D02*
X021241Y021262D01*
X021179Y021200D01*
X021179Y021077D01*
X021241Y021015D01*
X021426Y021015D01*
X021426Y020953D02*
X021426Y021262D01*
X021609Y021385D02*
X021609Y021447D01*
X020995Y021447D02*
X020995Y021385D01*
X020995Y021262D02*
X020995Y021015D01*
X020933Y021015D02*
X021057Y021015D01*
X020812Y021077D02*
X020812Y021324D01*
X020750Y021385D01*
X020565Y021385D01*
X020565Y021015D01*
X020750Y021015D01*
X020812Y021077D01*
X020933Y021262D02*
X020995Y021262D01*
X021302Y020892D02*
X021364Y020892D01*
X021426Y020953D01*
X022407Y021385D02*
X022468Y021385D01*
X008625Y003945D02*
X008379Y003945D01*
X008379Y003760D01*
X008502Y003822D01*
X008564Y003822D01*
X008625Y003760D01*
X008625Y003637D01*
X008564Y003575D01*
X008440Y003575D01*
X008379Y003637D01*
X008257Y003637D02*
X008195Y003575D01*
X008072Y003575D01*
X008010Y003637D01*
X008010Y003883D01*
X008072Y003945D01*
X008195Y003945D01*
X008257Y003883D01*
X012315Y002442D02*
X012315Y002318D01*
X012376Y002257D01*
X012623Y002257D01*
X012685Y002318D01*
X012685Y002442D01*
X012623Y002503D01*
X012376Y002503D01*
X012315Y002442D01*
X012438Y002625D02*
X012685Y002625D01*
X012562Y002625D02*
X012438Y002748D01*
X012438Y002810D01*
X012315Y002134D02*
X012315Y002011D01*
X012315Y002073D02*
X012685Y002073D01*
X012685Y002134D02*
X012685Y002011D01*
X013315Y002011D02*
X013315Y002196D01*
X013376Y002258D01*
X013500Y002258D01*
X013562Y002196D01*
X013562Y002011D01*
X013685Y002011D02*
X013315Y002011D01*
X013562Y002134D02*
X013685Y002258D01*
X013623Y002379D02*
X013685Y002441D01*
X013685Y002564D01*
X013623Y002626D01*
X013562Y002626D01*
X013500Y002564D01*
X013500Y002441D01*
X013438Y002379D01*
X013376Y002379D01*
X013315Y002441D01*
X013315Y002564D01*
X013376Y002626D01*
X013315Y002748D02*
X013315Y002995D01*
X013315Y002871D02*
X013685Y002871D01*
X014197Y002324D02*
X014259Y002385D01*
X014382Y002385D01*
X014444Y002324D01*
X014444Y002262D01*
X014382Y002200D01*
X014444Y002138D01*
X014444Y002077D01*
X014382Y002015D01*
X014259Y002015D01*
X014197Y002077D01*
X014320Y002200D02*
X014382Y002200D01*
X014565Y002262D02*
X014689Y002015D01*
X014812Y002262D01*
X015297Y002200D02*
X015420Y002262D01*
X015482Y002262D01*
X015544Y002200D01*
X015544Y002077D01*
X015482Y002015D01*
X015359Y002015D01*
X015297Y002077D01*
X015297Y002200D02*
X015297Y002385D01*
X015544Y002385D01*
X015665Y002262D02*
X015789Y002015D01*
X015912Y002262D01*
X016569Y002324D02*
X016569Y002077D01*
X016631Y002015D01*
X016754Y002015D01*
X016816Y002077D01*
X016816Y002200D01*
X016692Y002200D01*
X016569Y002324D02*
X016631Y002385D01*
X016754Y002385D01*
X016816Y002324D01*
X016937Y002262D02*
X016937Y002015D01*
X016937Y002262D02*
X017122Y002262D01*
X017184Y002200D01*
X017184Y002015D01*
X017306Y002077D02*
X017306Y002200D01*
X017367Y002262D01*
X017552Y002262D01*
X017552Y002385D02*
X017552Y002015D01*
X017367Y002015D01*
X017306Y002077D01*
X018147Y002138D02*
X018270Y002015D01*
X018394Y002138D01*
X018394Y002385D01*
X018515Y002262D02*
X018577Y002262D01*
X018577Y002015D01*
X018515Y002015D02*
X018639Y002015D01*
X018761Y002015D02*
X018761Y002262D01*
X018946Y002262D01*
X019008Y002200D01*
X019008Y002015D01*
X018577Y002385D02*
X018577Y002447D01*
X018147Y002385D02*
X018147Y002138D01*
X020365Y002077D02*
X020612Y002324D01*
X020612Y002077D01*
X020550Y002015D01*
X020427Y002015D01*
X020365Y002077D01*
X020365Y002324D01*
X020427Y002385D01*
X020550Y002385D01*
X020612Y002324D01*
X021365Y002262D02*
X021488Y002385D01*
X021488Y002015D01*
X021365Y002015D02*
X021612Y002015D01*
X022365Y002015D02*
X022612Y002262D01*
X022612Y002324D01*
X022550Y002385D01*
X022427Y002385D01*
X022365Y002324D01*
X022365Y002015D02*
X022612Y002015D01*
X023365Y002077D02*
X023427Y002015D01*
X023550Y002015D01*
X023612Y002077D01*
X023612Y002138D01*
X023550Y002200D01*
X023488Y002200D01*
X023550Y002200D02*
X023612Y002262D01*
X023612Y002324D01*
X023550Y002385D01*
X023427Y002385D01*
X023365Y002324D01*
X024365Y002200D02*
X024612Y002200D01*
X024550Y002015D02*
X024550Y002385D01*
X024365Y002200D01*
X025365Y002200D02*
X025488Y002262D01*
X025550Y002262D01*
X025612Y002200D01*
X025612Y002077D01*
X025550Y002015D01*
X025427Y002015D01*
X025365Y002077D01*
X025365Y002200D02*
X025365Y002385D01*
X025612Y002385D01*
X024705Y000944D02*
X024520Y000944D01*
X024520Y000697D01*
X024398Y000697D02*
X024274Y000697D01*
X024336Y000697D02*
X024336Y001067D01*
X024274Y001067D02*
X024398Y001067D01*
X024705Y000944D02*
X024767Y000882D01*
X024767Y000697D01*
X023785Y000697D02*
X023599Y000697D01*
X023538Y000759D01*
X023538Y000882D01*
X023599Y000944D01*
X023785Y000944D01*
X023785Y000635D01*
X023723Y000574D01*
X023661Y000574D01*
X023416Y000759D02*
X023416Y000882D01*
X023355Y000944D01*
X023231Y000944D01*
X023169Y000882D01*
X023169Y000759D01*
X023231Y000697D01*
X023355Y000697D01*
X023416Y000759D01*
X023047Y000697D02*
X022924Y000697D01*
X022986Y000697D02*
X022986Y001067D01*
X022924Y001067D01*
X022741Y000944D02*
X022802Y000882D01*
X022802Y000697D01*
X022617Y000697D01*
X022556Y000759D01*
X022617Y000820D01*
X022802Y000820D01*
X022741Y000944D02*
X022617Y000944D01*
X022434Y000882D02*
X022434Y000697D01*
X022434Y000882D02*
X022372Y000944D01*
X022187Y000944D01*
X022187Y000697D01*
X022066Y000697D02*
X022066Y000944D01*
X021942Y001067D01*
X021819Y000944D01*
X021819Y000697D01*
X021819Y000882D02*
X022066Y000882D01*
D20*
X010375Y001789D03*
X007625Y001789D03*
D21*
X004341Y012307D03*
X003159Y012307D03*
M02*
