G75*
G70*
%OFA0B0*%
%FSLAX24Y24*%
%IPPOS*%
%LPD*%
%AMOC8*
5,1,8,0,0,1.08239X$1,22.5*
%
%ADD10R,0.2100X0.0760*%
%ADD11R,0.0197X0.0591*%
%ADD12R,0.0591X0.0197*%
%ADD13R,0.0240X0.0870*%
%ADD14R,0.2299X0.1551*%
%ADD15R,0.0551X0.1181*%
%ADD16R,0.0551X0.0394*%
%ADD17R,0.1575X0.0630*%
%ADD18R,0.0591X0.0512*%
%ADD19R,0.0512X0.0630*%
%ADD20R,0.0512X0.0591*%
%ADD21R,0.0472X0.0472*%
%ADD22R,0.0591X0.0787*%
%ADD23R,0.0630X0.0512*%
%ADD24R,0.0866X0.0236*%
%ADD25R,0.0630X0.0354*%
%ADD26C,0.0000*%
%ADD27R,0.0787X0.0591*%
%ADD28R,0.1181X0.0551*%
%ADD29R,0.0260X0.0800*%
%ADD30R,0.0591X0.0157*%
%ADD31R,0.0390X0.0120*%
%ADD32R,0.0120X0.0390*%
D10*
X012900Y014407D03*
X016700Y014407D03*
D11*
X016610Y011565D03*
X016295Y011565D03*
X015980Y011565D03*
X015665Y011565D03*
X015350Y011565D03*
X016925Y011565D03*
X017240Y011565D03*
X017555Y011565D03*
X017870Y011565D03*
X018185Y011565D03*
X018500Y011565D03*
X018500Y006998D03*
X018185Y006998D03*
X017870Y006998D03*
X017555Y006998D03*
X017240Y006998D03*
X016925Y006998D03*
X016610Y006998D03*
X016295Y006998D03*
X015980Y006998D03*
X015665Y006998D03*
X015350Y006998D03*
D12*
X014642Y007707D03*
X014642Y008022D03*
X014642Y008337D03*
X014642Y008652D03*
X014642Y008967D03*
X014642Y009282D03*
X014642Y009596D03*
X014642Y009911D03*
X014642Y010226D03*
X014642Y010541D03*
X014642Y010856D03*
X019208Y010856D03*
X019208Y010541D03*
X019208Y010226D03*
X019208Y009911D03*
X019208Y009596D03*
X019208Y009282D03*
X019208Y008967D03*
X019208Y008652D03*
X019208Y008337D03*
X019208Y008022D03*
X019208Y007707D03*
D13*
X005800Y005937D03*
X005300Y005937D03*
X004800Y005937D03*
X004300Y005937D03*
X004300Y003877D03*
X004800Y003877D03*
X005300Y003877D03*
X005800Y003877D03*
D14*
X002300Y003480D03*
X002300Y007083D03*
D15*
X017425Y004851D03*
X017425Y002962D03*
D16*
X010858Y011158D03*
X010858Y011906D03*
X009992Y011532D03*
D17*
X006948Y008407D03*
X004152Y008407D03*
X004448Y019532D03*
X001652Y019532D03*
D18*
X007175Y012406D03*
X007175Y011658D03*
X006425Y006031D03*
X006425Y005283D03*
X020550Y009033D03*
X020550Y009781D03*
X026050Y009908D03*
X026050Y010656D03*
X028300Y010781D03*
X028300Y010033D03*
X024800Y017970D03*
X024800Y018718D03*
X016425Y020408D03*
X016425Y021156D03*
D19*
X016426Y017282D03*
X017174Y017282D03*
X010799Y014157D03*
X010051Y014157D03*
X010051Y013407D03*
X010799Y013407D03*
X009299Y012282D03*
X008551Y012282D03*
X008551Y011532D03*
X009299Y011532D03*
X009549Y016657D03*
X008801Y016657D03*
D20*
X007299Y017657D03*
X006551Y017657D03*
X008676Y021157D03*
X009424Y021157D03*
X016426Y018282D03*
X017174Y018282D03*
X019926Y014657D03*
X020674Y014657D03*
X019049Y012282D03*
X018301Y012282D03*
X017424Y013032D03*
X016676Y013032D03*
X015924Y013032D03*
X015176Y013032D03*
X014424Y013032D03*
X013676Y013032D03*
X009299Y010782D03*
X008551Y010782D03*
X019676Y011782D03*
X020424Y011782D03*
X021176Y011282D03*
X021924Y011282D03*
X021924Y010532D03*
X021176Y010532D03*
X028801Y006907D03*
X029549Y006907D03*
X029549Y006157D03*
X028801Y006157D03*
D21*
X008213Y016657D03*
X007387Y016657D03*
D22*
X018675Y016043D03*
X018675Y015020D03*
X028425Y005293D03*
X028425Y004270D03*
X030050Y004270D03*
X030050Y005293D03*
D23*
X031738Y003656D03*
X031738Y002908D03*
X032863Y002908D03*
X032863Y003656D03*
X032837Y004907D03*
X028300Y008658D03*
X028300Y009406D03*
D24*
X030526Y007532D03*
X030526Y007032D03*
X030526Y006532D03*
X030526Y006032D03*
X032574Y006032D03*
X032574Y006532D03*
X032574Y007032D03*
X032574Y007532D03*
D25*
X031263Y005458D03*
X031263Y004355D03*
D26*
X031459Y019157D02*
X031461Y019205D01*
X031467Y019253D01*
X031477Y019300D01*
X031490Y019346D01*
X031508Y019391D01*
X031528Y019435D01*
X031553Y019477D01*
X031581Y019516D01*
X031611Y019553D01*
X031645Y019587D01*
X031682Y019619D01*
X031720Y019648D01*
X031761Y019673D01*
X031804Y019695D01*
X031849Y019713D01*
X031895Y019727D01*
X031942Y019738D01*
X031990Y019745D01*
X032038Y019748D01*
X032086Y019747D01*
X032134Y019742D01*
X032182Y019733D01*
X032228Y019721D01*
X032273Y019704D01*
X032317Y019684D01*
X032359Y019661D01*
X032399Y019634D01*
X032437Y019604D01*
X032472Y019571D01*
X032504Y019535D01*
X032534Y019497D01*
X032560Y019456D01*
X032582Y019413D01*
X032602Y019369D01*
X032617Y019324D01*
X032629Y019277D01*
X032637Y019229D01*
X032641Y019181D01*
X032641Y019133D01*
X032637Y019085D01*
X032629Y019037D01*
X032617Y018990D01*
X032602Y018945D01*
X032582Y018901D01*
X032560Y018858D01*
X032534Y018817D01*
X032504Y018779D01*
X032472Y018743D01*
X032437Y018710D01*
X032399Y018680D01*
X032359Y018653D01*
X032317Y018630D01*
X032273Y018610D01*
X032228Y018593D01*
X032182Y018581D01*
X032134Y018572D01*
X032086Y018567D01*
X032038Y018566D01*
X031990Y018569D01*
X031942Y018576D01*
X031895Y018587D01*
X031849Y018601D01*
X031804Y018619D01*
X031761Y018641D01*
X031720Y018666D01*
X031682Y018695D01*
X031645Y018727D01*
X031611Y018761D01*
X031581Y018798D01*
X031553Y018837D01*
X031528Y018879D01*
X031508Y018923D01*
X031490Y018968D01*
X031477Y019014D01*
X031467Y019061D01*
X031461Y019109D01*
X031459Y019157D01*
X009897Y009157D02*
X009899Y009205D01*
X009905Y009253D01*
X009915Y009300D01*
X009928Y009346D01*
X009946Y009391D01*
X009966Y009435D01*
X009991Y009477D01*
X010019Y009516D01*
X010049Y009553D01*
X010083Y009587D01*
X010120Y009619D01*
X010158Y009648D01*
X010199Y009673D01*
X010242Y009695D01*
X010287Y009713D01*
X010333Y009727D01*
X010380Y009738D01*
X010428Y009745D01*
X010476Y009748D01*
X010524Y009747D01*
X010572Y009742D01*
X010620Y009733D01*
X010666Y009721D01*
X010711Y009704D01*
X010755Y009684D01*
X010797Y009661D01*
X010837Y009634D01*
X010875Y009604D01*
X010910Y009571D01*
X010942Y009535D01*
X010972Y009497D01*
X010998Y009456D01*
X011020Y009413D01*
X011040Y009369D01*
X011055Y009324D01*
X011067Y009277D01*
X011075Y009229D01*
X011079Y009181D01*
X011079Y009133D01*
X011075Y009085D01*
X011067Y009037D01*
X011055Y008990D01*
X011040Y008945D01*
X011020Y008901D01*
X010998Y008858D01*
X010972Y008817D01*
X010942Y008779D01*
X010910Y008743D01*
X010875Y008710D01*
X010837Y008680D01*
X010797Y008653D01*
X010755Y008630D01*
X010711Y008610D01*
X010666Y008593D01*
X010620Y008581D01*
X010572Y008572D01*
X010524Y008567D01*
X010476Y008566D01*
X010428Y008569D01*
X010380Y008576D01*
X010333Y008587D01*
X010287Y008601D01*
X010242Y008619D01*
X010199Y008641D01*
X010158Y008666D01*
X010120Y008695D01*
X010083Y008727D01*
X010049Y008761D01*
X010019Y008798D01*
X009991Y008837D01*
X009966Y008879D01*
X009946Y008923D01*
X009928Y008968D01*
X009915Y009014D01*
X009905Y009061D01*
X009899Y009109D01*
X009897Y009157D01*
D27*
X028413Y007907D03*
X029437Y007907D03*
D28*
X029355Y009657D03*
X031245Y009657D03*
D29*
X028050Y012947D03*
X027550Y012947D03*
X027050Y012947D03*
X026550Y012947D03*
X026550Y015367D03*
X027050Y015367D03*
X027550Y015367D03*
X028050Y015367D03*
D30*
X028852Y017368D03*
X028852Y017624D03*
X028852Y017880D03*
X028852Y018136D03*
X028852Y018392D03*
X028852Y018648D03*
X028852Y018904D03*
X028852Y019159D03*
X028852Y019415D03*
X028852Y019671D03*
X028852Y019927D03*
X028852Y020183D03*
X028852Y020439D03*
X028852Y020695D03*
X025998Y020695D03*
X025998Y020439D03*
X025998Y020183D03*
X025998Y019927D03*
X025998Y019671D03*
X025998Y019415D03*
X025998Y019159D03*
X025998Y018904D03*
X025998Y018648D03*
X025998Y018392D03*
X025998Y018136D03*
X025998Y017880D03*
X025998Y017624D03*
X025998Y017368D03*
D31*
X008949Y018255D03*
X008949Y018511D03*
X008949Y018767D03*
X008949Y019023D03*
X008949Y019279D03*
X008949Y019534D03*
X008949Y019790D03*
X008949Y020046D03*
X008949Y020302D03*
X008949Y020558D03*
X006651Y020558D03*
X006651Y020302D03*
X006651Y020046D03*
X006651Y019790D03*
X006651Y019534D03*
X006651Y019279D03*
X006651Y019023D03*
X006651Y018767D03*
X006651Y018511D03*
X006651Y018255D03*
D32*
X016898Y018883D03*
X017154Y018883D03*
X017410Y018883D03*
X017666Y018883D03*
X017922Y018883D03*
X018178Y018883D03*
X018434Y018883D03*
X018690Y018883D03*
X018946Y018883D03*
X019202Y018883D03*
X019202Y021180D03*
X018946Y021180D03*
X018690Y021180D03*
X018434Y021180D03*
X018178Y021180D03*
X017922Y021180D03*
X017666Y021180D03*
X017410Y021180D03*
X017154Y021180D03*
X016898Y021180D03*
M02*
