G75*
G70*
%OFA0B0*%
%FSLAX24Y24*%
%IPPOS*%
%LPD*%
%AMOC8*
5,1,8,0,0,1.08239X$1,22.5*
%
%ADD10C,0.0070*%
%ADD11C,0.0050*%
%ADD12C,0.0000*%
%ADD13C,0.0040*%
%ADD14C,0.0080*%
D10*
X010800Y005255D02*
X011064Y005255D01*
X010932Y005255D02*
X010932Y005783D01*
X011064Y005783D01*
X010932Y006046D02*
X010932Y006178D01*
X011329Y005914D02*
X011329Y005651D01*
X011460Y005519D01*
X011856Y005519D01*
X011856Y005255D02*
X011856Y006046D01*
X011460Y006046D01*
X011329Y005914D01*
X012120Y005651D02*
X012120Y005519D01*
X012648Y005519D01*
X012648Y005387D02*
X012648Y005651D01*
X012516Y005783D01*
X012252Y005783D01*
X012120Y005651D01*
X012516Y005255D02*
X012648Y005387D01*
X012516Y005255D02*
X012252Y005255D01*
X012912Y005255D02*
X013044Y005387D01*
X013044Y005914D01*
X013176Y005783D02*
X012912Y005783D01*
X013440Y005783D02*
X013703Y005783D01*
X013572Y005914D02*
X013572Y005387D01*
X013440Y005255D01*
X013968Y005519D02*
X014495Y005519D01*
X014495Y005387D02*
X014495Y005651D01*
X014364Y005783D01*
X014100Y005783D01*
X013968Y005651D01*
X013968Y005519D01*
X014100Y005255D02*
X014364Y005255D01*
X014495Y005387D01*
X014760Y005255D02*
X014760Y005783D01*
X015287Y005783D02*
X015287Y005387D01*
X015155Y005255D01*
X014760Y005255D01*
X015552Y005519D02*
X015552Y005651D01*
X015684Y005783D01*
X015947Y005783D01*
X016079Y005651D01*
X016079Y005387D01*
X015947Y005255D01*
X015684Y005255D01*
X015552Y005519D02*
X016079Y005519D01*
X016343Y005255D02*
X016607Y005255D01*
X016475Y005255D02*
X016475Y006046D01*
X016607Y006046D01*
X016872Y005914D02*
X016872Y005783D01*
X017004Y005651D01*
X017399Y005651D01*
X017399Y006046D02*
X017004Y006046D01*
X016872Y005914D01*
X017004Y005651D02*
X016872Y005519D01*
X016872Y005387D01*
X017004Y005255D01*
X017399Y005255D01*
X017399Y006046D01*
D11*
X008900Y004652D02*
X008798Y004652D01*
X008900Y004652D02*
X009103Y004449D01*
X009304Y004449D02*
X009711Y004449D01*
X009711Y004551D02*
X009609Y004652D01*
X009406Y004652D01*
X009304Y004551D01*
X009304Y004449D01*
X009406Y004245D02*
X009609Y004245D01*
X009711Y004347D01*
X009711Y004551D01*
X009913Y004245D02*
X010116Y004245D01*
X010014Y004245D02*
X010014Y004856D01*
X010116Y004856D01*
X010420Y004856D02*
X010420Y004245D01*
X010521Y004245D02*
X010318Y004245D01*
X010722Y004347D02*
X010722Y004551D01*
X010824Y004652D01*
X011027Y004652D01*
X011129Y004551D01*
X011129Y004347D01*
X011027Y004245D01*
X010824Y004245D01*
X010722Y004347D01*
X010521Y004856D02*
X010420Y004856D01*
X011330Y004652D02*
X011432Y004652D01*
X011636Y004449D01*
X011636Y004652D02*
X011636Y004245D01*
X011837Y004245D02*
X011939Y004347D01*
X011939Y004754D01*
X012041Y004652D02*
X011837Y004652D01*
X012241Y004551D02*
X012241Y004245D01*
X012241Y004551D02*
X012343Y004652D01*
X012648Y004652D01*
X012648Y004245D01*
X012849Y004347D02*
X012849Y004551D01*
X012951Y004652D01*
X013154Y004652D01*
X013256Y004551D01*
X013256Y004347D01*
X013154Y004245D01*
X012951Y004245D01*
X012849Y004347D01*
X013457Y004245D02*
X013762Y004245D01*
X013864Y004347D01*
X013864Y004551D01*
X013762Y004652D01*
X013457Y004652D01*
X014672Y004551D02*
X014672Y004347D01*
X014774Y004245D01*
X014978Y004245D01*
X015079Y004347D01*
X015079Y004551D01*
X014978Y004652D01*
X014774Y004652D01*
X014672Y004551D01*
X015280Y004652D02*
X015483Y004245D01*
X015687Y004652D01*
X015888Y004652D02*
X015990Y004652D01*
X016193Y004449D01*
X016394Y004449D02*
X016801Y004449D01*
X016801Y004551D02*
X016699Y004652D01*
X016496Y004652D01*
X016394Y004551D01*
X016394Y004449D01*
X016496Y004245D02*
X016699Y004245D01*
X016801Y004347D01*
X016801Y004551D01*
X017002Y004449D02*
X017002Y004347D01*
X017104Y004245D01*
X017307Y004245D01*
X017409Y004347D01*
X017307Y004551D02*
X017104Y004551D01*
X017002Y004449D01*
X017002Y004754D02*
X017104Y004856D01*
X017307Y004856D01*
X017409Y004754D01*
X017409Y004652D01*
X017307Y004551D01*
X016193Y004652D02*
X016193Y004245D01*
X009103Y004245D02*
X009103Y004652D01*
D12*
X014179Y019595D02*
X014181Y019645D01*
X014187Y019695D01*
X014197Y019744D01*
X014211Y019792D01*
X014228Y019839D01*
X014249Y019884D01*
X014274Y019928D01*
X014302Y019969D01*
X014334Y020008D01*
X014368Y020045D01*
X014405Y020079D01*
X014445Y020109D01*
X014487Y020136D01*
X014531Y020160D01*
X014577Y020181D01*
X014624Y020197D01*
X014672Y020210D01*
X014722Y020219D01*
X014771Y020224D01*
X014822Y020225D01*
X014872Y020222D01*
X014921Y020215D01*
X014970Y020204D01*
X015018Y020189D01*
X015064Y020171D01*
X015109Y020149D01*
X015152Y020123D01*
X015193Y020094D01*
X015232Y020062D01*
X015268Y020027D01*
X015300Y019989D01*
X015330Y019949D01*
X015357Y019906D01*
X015380Y019862D01*
X015399Y019816D01*
X015415Y019768D01*
X015427Y019719D01*
X015435Y019670D01*
X015439Y019620D01*
X015439Y019570D01*
X015435Y019520D01*
X015427Y019471D01*
X015415Y019422D01*
X015399Y019374D01*
X015380Y019328D01*
X015357Y019284D01*
X015330Y019241D01*
X015300Y019201D01*
X015268Y019163D01*
X015232Y019128D01*
X015193Y019096D01*
X015152Y019067D01*
X015109Y019041D01*
X015064Y019019D01*
X015018Y019001D01*
X014970Y018986D01*
X014921Y018975D01*
X014872Y018968D01*
X014822Y018965D01*
X014771Y018966D01*
X014722Y018971D01*
X014672Y018980D01*
X014624Y018993D01*
X014577Y019009D01*
X014531Y019030D01*
X014487Y019054D01*
X014445Y019081D01*
X014405Y019111D01*
X014368Y019145D01*
X014334Y019182D01*
X014302Y019221D01*
X014274Y019262D01*
X014249Y019306D01*
X014228Y019351D01*
X014211Y019398D01*
X014197Y019446D01*
X014187Y019495D01*
X014181Y019545D01*
X014179Y019595D01*
X031929Y001345D02*
X031931Y001395D01*
X031937Y001445D01*
X031947Y001494D01*
X031961Y001542D01*
X031978Y001589D01*
X031999Y001634D01*
X032024Y001678D01*
X032052Y001719D01*
X032084Y001758D01*
X032118Y001795D01*
X032155Y001829D01*
X032195Y001859D01*
X032237Y001886D01*
X032281Y001910D01*
X032327Y001931D01*
X032374Y001947D01*
X032422Y001960D01*
X032472Y001969D01*
X032521Y001974D01*
X032572Y001975D01*
X032622Y001972D01*
X032671Y001965D01*
X032720Y001954D01*
X032768Y001939D01*
X032814Y001921D01*
X032859Y001899D01*
X032902Y001873D01*
X032943Y001844D01*
X032982Y001812D01*
X033018Y001777D01*
X033050Y001739D01*
X033080Y001699D01*
X033107Y001656D01*
X033130Y001612D01*
X033149Y001566D01*
X033165Y001518D01*
X033177Y001469D01*
X033185Y001420D01*
X033189Y001370D01*
X033189Y001320D01*
X033185Y001270D01*
X033177Y001221D01*
X033165Y001172D01*
X033149Y001124D01*
X033130Y001078D01*
X033107Y001034D01*
X033080Y000991D01*
X033050Y000951D01*
X033018Y000913D01*
X032982Y000878D01*
X032943Y000846D01*
X032902Y000817D01*
X032859Y000791D01*
X032814Y000769D01*
X032768Y000751D01*
X032720Y000736D01*
X032671Y000725D01*
X032622Y000718D01*
X032572Y000715D01*
X032521Y000716D01*
X032472Y000721D01*
X032422Y000730D01*
X032374Y000743D01*
X032327Y000759D01*
X032281Y000780D01*
X032237Y000804D01*
X032195Y000831D01*
X032155Y000861D01*
X032118Y000895D01*
X032084Y000932D01*
X032052Y000971D01*
X032024Y001012D01*
X031999Y001056D01*
X031978Y001101D01*
X031961Y001148D01*
X031947Y001196D01*
X031937Y001245D01*
X031931Y001295D01*
X031929Y001345D01*
D13*
X019276Y006327D02*
X019276Y006787D01*
X019046Y006787D01*
X018969Y006711D01*
X018969Y006557D01*
X019046Y006481D01*
X019276Y006481D01*
X018816Y006404D02*
X018739Y006327D01*
X018586Y006327D01*
X018509Y006404D01*
X018509Y006557D01*
X018662Y006557D01*
X018509Y006711D02*
X018586Y006787D01*
X018739Y006787D01*
X018816Y006711D01*
X018816Y006404D01*
X018356Y006404D02*
X018279Y006327D01*
X018125Y006327D01*
X018049Y006404D01*
X018356Y006404D02*
X018356Y006711D01*
X018279Y006787D01*
X018125Y006787D01*
X018049Y006711D01*
X018125Y007327D02*
X018049Y007404D01*
X018049Y007711D01*
X018125Y007787D01*
X018356Y007787D01*
X018356Y007327D01*
X018125Y007327D01*
X018509Y007404D02*
X018509Y007557D01*
X018662Y007557D01*
X018509Y007404D02*
X018586Y007327D01*
X018739Y007327D01*
X018816Y007404D01*
X018816Y007711D01*
X018739Y007787D01*
X018586Y007787D01*
X018509Y007711D01*
X018969Y007711D02*
X018969Y007557D01*
X019046Y007481D01*
X019276Y007481D01*
X019276Y007327D02*
X019276Y007787D01*
X019046Y007787D01*
X018969Y007711D01*
X019123Y008327D02*
X018969Y008481D01*
X018969Y008787D01*
X018816Y008711D02*
X018816Y008634D01*
X018739Y008557D01*
X018586Y008557D01*
X018509Y008481D01*
X018509Y008404D01*
X018586Y008327D01*
X018739Y008327D01*
X018816Y008404D01*
X018816Y008711D02*
X018739Y008787D01*
X018586Y008787D01*
X018509Y008711D01*
X018356Y008711D02*
X018279Y008787D01*
X018125Y008787D01*
X018049Y008711D01*
X018125Y008557D02*
X018049Y008481D01*
X018049Y008404D01*
X018125Y008327D01*
X018279Y008327D01*
X018356Y008404D01*
X018279Y008557D02*
X018125Y008557D01*
X018279Y008557D02*
X018356Y008634D01*
X018356Y008711D01*
X019123Y008327D02*
X019276Y008481D01*
X019276Y008787D01*
X019123Y009327D02*
X018969Y009481D01*
X018969Y009787D01*
X018816Y009787D02*
X018586Y009787D01*
X018509Y009711D01*
X018509Y009404D01*
X018586Y009327D01*
X018816Y009327D01*
X018816Y009787D01*
X018356Y009787D02*
X018125Y009787D01*
X018049Y009711D01*
X018049Y009404D01*
X018125Y009327D01*
X018356Y009327D01*
X018356Y009787D01*
X018509Y010327D02*
X018816Y010327D01*
X018816Y010787D01*
X018509Y010787D01*
X018356Y010787D02*
X018049Y010787D01*
X018202Y010787D02*
X018202Y010327D01*
X018662Y010557D02*
X018816Y010557D01*
X018969Y010481D02*
X018969Y010404D01*
X019046Y010327D01*
X019200Y010327D01*
X019276Y010404D01*
X019200Y010557D02*
X019046Y010557D01*
X018969Y010481D01*
X018969Y010711D02*
X019046Y010787D01*
X019200Y010787D01*
X019276Y010711D01*
X019276Y010634D01*
X019200Y010557D01*
X019430Y010327D02*
X019737Y010327D01*
X019737Y010787D01*
X019430Y010787D01*
X019583Y010557D02*
X019737Y010557D01*
X019890Y010557D02*
X019967Y010481D01*
X020197Y010481D01*
X020044Y010481D02*
X019890Y010327D01*
X019890Y010557D02*
X019890Y010711D01*
X019967Y010787D01*
X020197Y010787D01*
X020197Y010327D01*
X019276Y009787D02*
X019276Y009481D01*
X019123Y009327D01*
D14*
X016684Y008115D02*
X016154Y008215D01*
X015964Y008655D02*
X016274Y009105D01*
X015944Y009425D01*
X015494Y009115D01*
X015064Y009295D02*
X014964Y009835D01*
X014504Y009835D01*
X014404Y009295D01*
X013974Y009115D02*
X013514Y009425D01*
X013194Y009105D01*
X013504Y008655D01*
X013314Y008215D02*
X012784Y008115D01*
X012784Y007665D01*
X013304Y007565D01*
X013484Y007105D02*
X013194Y006675D01*
X013514Y006355D01*
X013934Y006635D01*
X014114Y006535D01*
X014444Y007335D01*
X015014Y007335D02*
X015344Y006535D01*
X015524Y006635D01*
X015944Y006345D01*
X016274Y006675D01*
X015974Y007105D01*
X016164Y007565D02*
X016684Y007665D01*
X016684Y008115D01*
X015494Y009115D02*
X015436Y009148D01*
X015377Y009178D01*
X015316Y009205D01*
X015255Y009229D01*
X015192Y009251D01*
X015128Y009270D01*
X015064Y009285D01*
X015964Y008655D02*
X016000Y008597D01*
X016033Y008536D01*
X016064Y008474D01*
X016091Y008411D01*
X016115Y008347D01*
X016136Y008281D01*
X016154Y008215D01*
X014404Y009285D02*
X014330Y009266D01*
X014258Y009243D01*
X014187Y009216D01*
X014117Y009186D01*
X014050Y009152D01*
X013984Y009115D01*
X014444Y007335D02*
X014402Y007359D01*
X014363Y007387D01*
X014326Y007418D01*
X014291Y007452D01*
X014259Y007488D01*
X014231Y007527D01*
X014205Y007568D01*
X014183Y007611D01*
X014165Y007656D01*
X014150Y007702D01*
X014138Y007749D01*
X014131Y007796D01*
X014127Y007844D01*
X014128Y007893D01*
X014132Y007941D01*
X014140Y007988D01*
X014152Y008035D01*
X014167Y008081D01*
X014186Y008125D01*
X014209Y008168D01*
X014235Y008209D01*
X014264Y008247D01*
X014296Y008283D01*
X014331Y008317D01*
X014369Y008347D01*
X014408Y008374D01*
X014450Y008399D01*
X014494Y008419D01*
X014539Y008436D01*
X014585Y008450D01*
X014633Y008459D01*
X014681Y008465D01*
X014729Y008467D01*
X014777Y008465D01*
X014825Y008459D01*
X014873Y008450D01*
X014919Y008436D01*
X014964Y008419D01*
X015008Y008399D01*
X015050Y008374D01*
X015089Y008347D01*
X015127Y008317D01*
X015162Y008283D01*
X015194Y008247D01*
X015223Y008209D01*
X015249Y008168D01*
X015272Y008125D01*
X015291Y008081D01*
X015306Y008035D01*
X015318Y007988D01*
X015326Y007941D01*
X015330Y007893D01*
X015331Y007844D01*
X015327Y007796D01*
X015320Y007749D01*
X015308Y007702D01*
X015293Y007656D01*
X015275Y007611D01*
X015253Y007568D01*
X015227Y007527D01*
X015199Y007488D01*
X015167Y007452D01*
X015132Y007418D01*
X015095Y007387D01*
X015056Y007359D01*
X015014Y007335D01*
X013484Y007105D02*
X013449Y007167D01*
X013416Y007230D01*
X013387Y007295D01*
X013362Y007361D01*
X013339Y007428D01*
X013320Y007496D01*
X013304Y007566D01*
X015974Y007105D02*
X016009Y007167D01*
X016042Y007230D01*
X016071Y007295D01*
X016096Y007361D01*
X016119Y007428D01*
X016138Y007496D01*
X016154Y007566D01*
X013504Y008655D02*
X013468Y008596D01*
X013435Y008536D01*
X013405Y008474D01*
X013378Y008411D01*
X013353Y008347D01*
X013332Y008281D01*
X013314Y008215D01*
M02*
