G75*
G70*
%OFA0B0*%
%FSLAX24Y24*%
%IPPOS*%
%LPD*%
%AMOC8*
5,1,8,0,0,1.08239X$1,22.5*
%
%ADD10C,0.0000*%
%ADD11R,0.0630X0.0460*%
D10*
X009905Y007220D02*
X009907Y007268D01*
X009913Y007316D01*
X009923Y007363D01*
X009936Y007409D01*
X009954Y007454D01*
X009974Y007498D01*
X009999Y007540D01*
X010027Y007579D01*
X010057Y007616D01*
X010091Y007650D01*
X010128Y007682D01*
X010166Y007711D01*
X010207Y007736D01*
X010250Y007758D01*
X010295Y007776D01*
X010341Y007790D01*
X010388Y007801D01*
X010436Y007808D01*
X010484Y007811D01*
X010532Y007810D01*
X010580Y007805D01*
X010628Y007796D01*
X010674Y007784D01*
X010719Y007767D01*
X010763Y007747D01*
X010805Y007724D01*
X010845Y007697D01*
X010883Y007667D01*
X010918Y007634D01*
X010950Y007598D01*
X010980Y007560D01*
X011006Y007519D01*
X011028Y007476D01*
X011048Y007432D01*
X011063Y007387D01*
X011075Y007340D01*
X011083Y007292D01*
X011087Y007244D01*
X011087Y007196D01*
X011083Y007148D01*
X011075Y007100D01*
X011063Y007053D01*
X011048Y007008D01*
X011028Y006964D01*
X011006Y006921D01*
X010980Y006880D01*
X010950Y006842D01*
X010918Y006806D01*
X010883Y006773D01*
X010845Y006743D01*
X010805Y006716D01*
X010763Y006693D01*
X010719Y006673D01*
X010674Y006656D01*
X010628Y006644D01*
X010580Y006635D01*
X010532Y006630D01*
X010484Y006629D01*
X010436Y006632D01*
X010388Y006639D01*
X010341Y006650D01*
X010295Y006664D01*
X010250Y006682D01*
X010207Y006704D01*
X010166Y006729D01*
X010128Y006758D01*
X010091Y006790D01*
X010057Y006824D01*
X010027Y006861D01*
X009999Y006900D01*
X009974Y006942D01*
X009954Y006986D01*
X009936Y007031D01*
X009923Y007077D01*
X009913Y007124D01*
X009907Y007172D01*
X009905Y007220D01*
X031468Y017220D02*
X031470Y017268D01*
X031476Y017316D01*
X031486Y017363D01*
X031499Y017409D01*
X031517Y017454D01*
X031537Y017498D01*
X031562Y017540D01*
X031590Y017579D01*
X031620Y017616D01*
X031654Y017650D01*
X031691Y017682D01*
X031729Y017711D01*
X031770Y017736D01*
X031813Y017758D01*
X031858Y017776D01*
X031904Y017790D01*
X031951Y017801D01*
X031999Y017808D01*
X032047Y017811D01*
X032095Y017810D01*
X032143Y017805D01*
X032191Y017796D01*
X032237Y017784D01*
X032282Y017767D01*
X032326Y017747D01*
X032368Y017724D01*
X032408Y017697D01*
X032446Y017667D01*
X032481Y017634D01*
X032513Y017598D01*
X032543Y017560D01*
X032569Y017519D01*
X032591Y017476D01*
X032611Y017432D01*
X032626Y017387D01*
X032638Y017340D01*
X032646Y017292D01*
X032650Y017244D01*
X032650Y017196D01*
X032646Y017148D01*
X032638Y017100D01*
X032626Y017053D01*
X032611Y017008D01*
X032591Y016964D01*
X032569Y016921D01*
X032543Y016880D01*
X032513Y016842D01*
X032481Y016806D01*
X032446Y016773D01*
X032408Y016743D01*
X032368Y016716D01*
X032326Y016693D01*
X032282Y016673D01*
X032237Y016656D01*
X032191Y016644D01*
X032143Y016635D01*
X032095Y016630D01*
X032047Y016629D01*
X031999Y016632D01*
X031951Y016639D01*
X031904Y016650D01*
X031858Y016664D01*
X031813Y016682D01*
X031770Y016704D01*
X031729Y016729D01*
X031691Y016758D01*
X031654Y016790D01*
X031620Y016824D01*
X031590Y016861D01*
X031562Y016900D01*
X031537Y016942D01*
X031517Y016986D01*
X031499Y017031D01*
X031486Y017077D01*
X031476Y017124D01*
X031470Y017172D01*
X031468Y017220D01*
D11*
X023684Y007645D03*
X023684Y007045D03*
M02*
