%
M48
M72
T01C0.0236
T02C0.0315
T03C0.0320
T04C0.0394
T05C0.0400
%
T01
X3184Y4345
X1184Y5220
X4059Y7595
X7559Y4595
X9059Y5720
X12809Y8345
X9059Y9095
X5809Y10970
X7809Y14095
X8809Y14095
X11309Y13345
X14309Y15095
X15809Y14845
X18371Y12345
X18996Y11720
X20309Y11470
X22934Y12158
X24559Y11345
X28309Y11220
X29184Y12845
X21434Y8470
X21434Y7470
X21434Y6470
X21059Y5095
X15059Y11470
X5809Y16095
X5059Y15345
X4684Y16220
X3059Y18345
X1184Y14720
X11809Y18970
X14309Y18470
X18809Y20595
X31059Y20595
T02
X24559Y9595
X24559Y8595
X24559Y7595
X24559Y6595
X24559Y5595
T03
X32309Y8470
X32309Y10095
X29309Y15970
X28309Y15970
X27309Y15970
X26309Y15970
X25309Y15970
X24309Y15970
X23309Y15970
X22309Y15970
X21309Y15970
X1809Y10595
X1809Y9095
X1809Y7595
T04
X2309Y20095
X3309Y20095
X4309Y20095
X5309Y20095
X6309Y20095
X7309Y20095
X8309Y20095
X9309Y20095
X10309Y20095
X11309Y20095
X12309Y20095
X13309Y20095
X13309Y21095
X12309Y21095
X11309Y21095
X10309Y21095
X9309Y21095
X8309Y21095
X7309Y21095
X6309Y21095
X5309Y21095
X4309Y21095
X3309Y21095
X2309Y21095
X1309Y21095
X1309Y20095
T05
X9309Y17095
X10309Y17095
X11309Y17095
X12309Y17095
X13309Y17095
X13309Y16095
X12309Y16095
X11309Y16095
X10309Y16095
X9309Y16095
X10684Y11470
X11684Y11470
X12684Y11470
X12684Y9970
X11684Y9970
X10684Y9970
X11684Y3095
X11684Y2095
X13184Y2095
X13184Y3095
X15184Y3095
X15184Y2095
X15184Y1095
X16684Y1095
X16684Y2095
X16684Y3095
X13184Y1095
X11684Y1095
X9684Y1095
X8184Y1095
X8184Y2095
X8184Y3095
X9684Y3095
X9684Y2095
X21809Y2095
X21809Y3095
X23309Y3095
X23309Y2095
X23309Y1095
X21809Y1095
X25559Y1095
X27059Y1095
X27059Y2095
X27059Y3095
X25559Y3095
X25559Y2095
X29059Y2095
X29059Y3095
X30559Y3095
X30559Y2095
X30559Y1095
X29059Y1095
X32309Y4845
X32309Y5845
X32309Y6845
X32309Y12345
X32309Y13345
X32309Y14345
X32309Y15345
X32559Y17845
X31559Y17845
X30559Y17845
X29559Y17845
X28559Y17845
X27559Y17845
X26559Y17845
X25559Y17845
X24309Y17845
X23309Y17845
X22309Y17845
X21309Y17845
X20309Y17845
X19309Y17845
X18309Y17845
X17309Y17845
M30
