G75*
G70*
%OFA0B0*%
%FSLAX24Y24*%
%IPPOS*%
%LPD*%
%AMOC8*
5,1,8,0,0,1.08239X$1,22.5*
%
%ADD10C,0.0070*%
%ADD11C,0.0040*%
%ADD12C,0.0060*%
%ADD13C,0.0030*%
%ADD14C,0.0100*%
%ADD15C,0.0160*%
%ADD16C,0.0001*%
%ADD17C,0.0020*%
%ADD18C,0.0050*%
%ADD19C,0.0080*%
%ADD20R,0.0079X0.0079*%
%ADD21C,0.0000*%
D10*
X005656Y018505D02*
X006052Y018505D01*
X006183Y018637D01*
X006183Y018769D01*
X006052Y018901D01*
X005656Y018901D01*
X006052Y018901D02*
X006183Y019033D01*
X006183Y019164D01*
X006052Y019296D01*
X005656Y019296D01*
X005656Y018505D01*
X006448Y018505D02*
X006712Y018505D01*
X006580Y018505D02*
X006580Y019296D01*
X006448Y019296D01*
X006976Y018901D02*
X007108Y019033D01*
X007371Y019033D01*
X007503Y018901D01*
X007503Y018769D01*
X006976Y018769D01*
X006976Y018637D02*
X006976Y018901D01*
X006976Y018637D02*
X007108Y018505D01*
X007371Y018505D01*
X007768Y018637D02*
X007900Y018505D01*
X008295Y018505D01*
X008295Y019033D01*
X008560Y018901D02*
X008692Y019033D01*
X008955Y019033D01*
X009087Y018901D01*
X009087Y018769D01*
X008560Y018769D01*
X008560Y018637D02*
X008560Y018901D01*
X008560Y018637D02*
X008692Y018505D01*
X008955Y018505D01*
X009484Y018637D02*
X009615Y018505D01*
X009484Y018637D02*
X009484Y019164D01*
X009352Y019033D02*
X009615Y019033D01*
X009880Y019033D02*
X010143Y019033D01*
X010011Y019164D02*
X010011Y018637D01*
X010143Y018505D01*
X010408Y018637D02*
X010408Y018901D01*
X010539Y019033D01*
X010803Y019033D01*
X010935Y018901D01*
X010935Y018769D01*
X010408Y018769D01*
X010408Y018637D02*
X010539Y018505D01*
X010803Y018505D01*
X011200Y018505D02*
X011200Y019296D01*
X011595Y019296D01*
X011727Y019164D01*
X011727Y018901D01*
X011595Y018769D01*
X011200Y018769D01*
X011991Y018505D02*
X012255Y018505D01*
X012123Y018505D02*
X012123Y019033D01*
X011991Y019033D01*
X012123Y019296D02*
X012123Y019428D01*
X007768Y019033D02*
X007768Y018637D01*
D11*
X007929Y018201D02*
X007929Y017740D01*
X007776Y017740D02*
X008083Y017740D01*
X008236Y017740D02*
X008313Y017740D01*
X008313Y017817D01*
X008236Y017817D01*
X008236Y017740D01*
X008466Y017817D02*
X008773Y018124D01*
X008773Y017817D01*
X008696Y017740D01*
X008543Y017740D01*
X008466Y017817D01*
X008466Y018124D01*
X008543Y018201D01*
X008696Y018201D01*
X008773Y018124D01*
X009157Y018124D02*
X009234Y018201D01*
X009387Y018201D01*
X009464Y018124D01*
X009157Y017817D01*
X009234Y017740D01*
X009387Y017740D01*
X009464Y017817D01*
X009464Y018124D01*
X009157Y018124D02*
X009157Y017817D01*
X009003Y017817D02*
X009003Y017740D01*
X008927Y017740D01*
X008927Y017817D01*
X009003Y017817D01*
X007929Y018201D02*
X007776Y018047D01*
X007162Y017817D02*
X007162Y017740D01*
X007085Y017740D01*
X007085Y017817D01*
X007162Y017817D01*
X006932Y018047D02*
X006778Y017740D01*
X006625Y018047D01*
X006471Y017971D02*
X006471Y017894D01*
X006164Y017894D01*
X006164Y017971D02*
X006241Y018047D01*
X006394Y018047D01*
X006471Y017971D01*
X006394Y017740D02*
X006241Y017740D01*
X006164Y017817D01*
X006164Y017971D01*
X006011Y017971D02*
X006011Y018124D01*
X005934Y018201D01*
X005704Y018201D01*
X005704Y017740D01*
X005704Y017894D02*
X005934Y017894D01*
X006011Y017971D01*
X005857Y017894D02*
X006011Y017740D01*
X004673Y017989D02*
X004673Y018304D01*
X003768Y019210D01*
X001445Y019210D01*
X001445Y017989D01*
X001445Y017202D02*
X001445Y015981D01*
X003768Y015981D01*
X004673Y016887D01*
X004673Y017202D01*
X004575Y017241D02*
X004555Y017164D01*
X004532Y017089D01*
X004504Y017015D01*
X004473Y016943D01*
X004438Y016872D01*
X004400Y016803D01*
X004358Y016737D01*
X004313Y016672D01*
X004265Y016610D01*
X004213Y016550D01*
X004159Y016493D01*
X004102Y016439D01*
X004042Y016387D01*
X003980Y016339D01*
X003915Y016294D01*
X003848Y016253D01*
X003779Y016215D01*
X003708Y016180D01*
X003636Y016149D01*
X003562Y016121D01*
X003487Y016098D01*
X003411Y016078D01*
X003333Y016062D01*
X003255Y016050D01*
X003177Y016042D01*
X003098Y016038D01*
X003020Y016038D01*
X002941Y016042D01*
X002863Y016050D01*
X002785Y016062D01*
X002707Y016078D01*
X002631Y016098D01*
X002556Y016121D01*
X002482Y016149D01*
X002410Y016180D01*
X002339Y016215D01*
X002270Y016253D01*
X002203Y016294D01*
X002138Y016339D01*
X002076Y016387D01*
X002016Y016439D01*
X001959Y016493D01*
X001905Y016550D01*
X001853Y016610D01*
X001805Y016672D01*
X001760Y016737D01*
X001718Y016803D01*
X001680Y016872D01*
X001645Y016943D01*
X001614Y017015D01*
X001586Y017089D01*
X001563Y017164D01*
X001543Y017241D01*
X001543Y017949D02*
X001563Y018026D01*
X001586Y018101D01*
X001614Y018175D01*
X001645Y018247D01*
X001680Y018318D01*
X001718Y018387D01*
X001760Y018453D01*
X001805Y018518D01*
X001853Y018580D01*
X001905Y018640D01*
X001959Y018697D01*
X002016Y018751D01*
X002076Y018803D01*
X002138Y018851D01*
X002203Y018896D01*
X002270Y018937D01*
X002339Y018975D01*
X002410Y019010D01*
X002482Y019041D01*
X002556Y019069D01*
X002631Y019092D01*
X002707Y019112D01*
X002785Y019128D01*
X002863Y019140D01*
X002941Y019148D01*
X003020Y019152D01*
X003098Y019152D01*
X003177Y019148D01*
X003255Y019140D01*
X003333Y019128D01*
X003411Y019112D01*
X003487Y019092D01*
X003562Y019069D01*
X003636Y019041D01*
X003708Y019010D01*
X003779Y018975D01*
X003848Y018937D01*
X003915Y018896D01*
X003980Y018851D01*
X004042Y018803D01*
X004102Y018751D01*
X004159Y018697D01*
X004213Y018640D01*
X004265Y018580D01*
X004313Y018518D01*
X004358Y018453D01*
X004400Y018387D01*
X004438Y018318D01*
X004473Y018247D01*
X004504Y018175D01*
X004532Y018101D01*
X004555Y018026D01*
X004575Y017949D01*
X002157Y015761D02*
X002080Y015838D01*
X001927Y015838D01*
X001850Y015761D01*
X001697Y015761D02*
X001620Y015838D01*
X001467Y015838D01*
X001390Y015761D01*
X001390Y015454D01*
X001467Y015377D01*
X001620Y015377D01*
X001697Y015454D01*
X001850Y015377D02*
X002157Y015684D01*
X002157Y015761D01*
X002157Y015377D02*
X001850Y015377D01*
X004704Y015256D02*
X004891Y015256D01*
X004844Y015396D02*
X004844Y015115D01*
X004954Y015010D02*
X005107Y015010D01*
X005031Y015010D02*
X005031Y015471D01*
X005107Y015471D02*
X004954Y015471D01*
X004844Y015396D02*
X004704Y015256D01*
X005261Y015394D02*
X005261Y015087D01*
X005338Y015010D01*
X005491Y015010D01*
X005568Y015087D01*
X005721Y015241D02*
X006028Y015241D01*
X005951Y015471D02*
X005951Y015010D01*
X005721Y015241D02*
X005951Y015471D01*
X005568Y015394D02*
X005491Y015471D01*
X005338Y015471D01*
X005261Y015394D01*
X005468Y014388D02*
X005391Y014312D01*
X005391Y014005D01*
X005468Y013928D01*
X005622Y013928D01*
X005698Y014005D01*
X005852Y014158D02*
X006159Y014158D01*
X006082Y013928D02*
X006082Y014388D01*
X005852Y014158D01*
X005698Y014312D02*
X005622Y014388D01*
X005468Y014388D01*
X007323Y013326D02*
X007553Y013326D01*
X007630Y013249D01*
X007630Y013096D01*
X007553Y013019D01*
X007323Y013019D01*
X007323Y012865D02*
X007323Y013326D01*
X007783Y013326D02*
X007783Y012865D01*
X007937Y013019D01*
X008090Y012865D01*
X008090Y013326D01*
X008243Y013326D02*
X008474Y013326D01*
X008550Y013249D01*
X008550Y013096D01*
X008474Y013019D01*
X008243Y013019D01*
X008243Y012865D02*
X008243Y013326D01*
X008397Y013019D02*
X008550Y012865D01*
X008099Y011888D02*
X007868Y011658D01*
X008175Y011658D01*
X008099Y011428D02*
X008099Y011888D01*
X007562Y011888D02*
X007562Y011428D01*
X007715Y011428D02*
X007408Y011428D01*
X007255Y011428D02*
X007101Y011581D01*
X007178Y011581D02*
X006948Y011581D01*
X006948Y011428D02*
X006948Y011888D01*
X007178Y011888D01*
X007255Y011812D01*
X007255Y011658D01*
X007178Y011581D01*
X007408Y011735D02*
X007562Y011888D01*
X007269Y010451D02*
X007116Y010451D01*
X007039Y010374D01*
X006886Y010374D02*
X006886Y010221D01*
X006809Y010144D01*
X006579Y010144D01*
X006732Y010144D02*
X006886Y009990D01*
X007039Y009990D02*
X007346Y010297D01*
X007346Y010374D01*
X007269Y010451D01*
X006886Y010374D02*
X006809Y010451D01*
X006579Y010451D01*
X006579Y009990D01*
X006475Y009710D02*
X008798Y009710D01*
X008798Y008489D01*
X008798Y007702D02*
X008798Y006481D01*
X006475Y006481D01*
X005570Y007387D01*
X005570Y007702D01*
X005570Y008489D02*
X005570Y008804D01*
X006475Y009710D01*
X007039Y009990D02*
X007346Y009990D01*
X008700Y008449D02*
X008680Y008526D01*
X008657Y008601D01*
X008629Y008675D01*
X008598Y008747D01*
X008563Y008818D01*
X008525Y008887D01*
X008483Y008953D01*
X008438Y009018D01*
X008390Y009080D01*
X008338Y009140D01*
X008284Y009197D01*
X008227Y009251D01*
X008167Y009303D01*
X008105Y009351D01*
X008040Y009396D01*
X007973Y009437D01*
X007904Y009475D01*
X007833Y009510D01*
X007761Y009541D01*
X007687Y009569D01*
X007612Y009592D01*
X007536Y009612D01*
X007458Y009628D01*
X007380Y009640D01*
X007302Y009648D01*
X007223Y009652D01*
X007145Y009652D01*
X007066Y009648D01*
X006988Y009640D01*
X006910Y009628D01*
X006832Y009612D01*
X006756Y009592D01*
X006681Y009569D01*
X006607Y009541D01*
X006535Y009510D01*
X006464Y009475D01*
X006395Y009437D01*
X006328Y009396D01*
X006263Y009351D01*
X006201Y009303D01*
X006141Y009251D01*
X006084Y009197D01*
X006030Y009140D01*
X005978Y009080D01*
X005930Y009018D01*
X005885Y008953D01*
X005843Y008887D01*
X005805Y008818D01*
X005770Y008747D01*
X005739Y008675D01*
X005711Y008601D01*
X005688Y008526D01*
X005668Y008449D01*
X004738Y009317D02*
X004661Y009240D01*
X004508Y009240D01*
X004431Y009317D01*
X004278Y009317D02*
X004278Y009624D01*
X004201Y009701D01*
X003971Y009701D01*
X003971Y009240D01*
X004201Y009240D01*
X004278Y009317D01*
X004584Y009471D02*
X004661Y009471D01*
X004738Y009394D01*
X004738Y009317D01*
X004661Y009471D02*
X004738Y009547D01*
X004738Y009624D01*
X004661Y009701D01*
X004508Y009701D01*
X004431Y009624D01*
X003721Y010865D02*
X003414Y010865D01*
X003261Y010865D02*
X003107Y011019D01*
X003184Y011019D02*
X002954Y011019D01*
X002954Y010865D02*
X002954Y011326D01*
X003184Y011326D01*
X003261Y011249D01*
X003261Y011096D01*
X003184Y011019D01*
X003414Y011172D02*
X003568Y011326D01*
X003568Y010865D01*
X002221Y011942D02*
X002144Y011865D01*
X001991Y011865D01*
X001914Y011942D01*
X001761Y011942D02*
X001684Y011865D01*
X001531Y011865D01*
X001454Y011942D01*
X001454Y012249D01*
X001531Y012326D01*
X001684Y012326D01*
X001761Y012249D01*
X001914Y012249D02*
X001991Y012326D01*
X002144Y012326D01*
X002221Y012249D01*
X002221Y012172D01*
X002144Y012096D01*
X002221Y012019D01*
X002221Y011942D01*
X002144Y012096D02*
X002068Y012096D01*
X002595Y012415D02*
X002781Y012415D01*
X002688Y012415D02*
X002688Y012696D01*
X002595Y012602D01*
X003446Y012645D02*
X003492Y012692D01*
X003586Y012692D01*
X003633Y012645D01*
X003633Y012599D01*
X003446Y012412D01*
X003633Y012412D01*
X004356Y012462D02*
X004402Y012415D01*
X004496Y012415D01*
X004543Y012462D01*
X004543Y012509D01*
X004496Y012556D01*
X004449Y012556D01*
X004496Y012556D02*
X004543Y012602D01*
X004543Y012649D01*
X004496Y012696D01*
X004402Y012696D01*
X004356Y012649D01*
X010079Y014365D02*
X010309Y014365D01*
X010386Y014442D01*
X010386Y014749D01*
X010309Y014826D01*
X010079Y014826D01*
X010079Y014365D01*
X010539Y014442D02*
X010539Y014596D01*
X010769Y014596D01*
X010846Y014519D01*
X010846Y014442D01*
X010769Y014365D01*
X010616Y014365D01*
X010539Y014442D01*
X010539Y014596D02*
X010693Y014749D01*
X010846Y014826D01*
X013516Y012624D02*
X013516Y012317D01*
X013593Y012240D01*
X013747Y012240D01*
X013823Y012317D01*
X013977Y012240D02*
X014284Y012240D01*
X014437Y012240D02*
X014744Y012240D01*
X014591Y012240D02*
X014591Y012701D01*
X014437Y012547D01*
X014130Y012701D02*
X014130Y012240D01*
X013977Y012547D02*
X014130Y012701D01*
X013823Y012624D02*
X013747Y012701D01*
X013593Y012701D01*
X013516Y012624D01*
X016323Y011999D02*
X016323Y011692D01*
X016399Y011615D01*
X016553Y011615D01*
X016630Y011692D01*
X016783Y011615D02*
X017090Y011615D01*
X016937Y011615D02*
X016937Y012076D01*
X016783Y011922D01*
X016630Y011999D02*
X016553Y012076D01*
X016399Y012076D01*
X016323Y011999D01*
X017243Y011999D02*
X017243Y011692D01*
X017550Y011999D01*
X017550Y011692D01*
X017474Y011615D01*
X017320Y011615D01*
X017243Y011692D01*
X017243Y011999D02*
X017320Y012076D01*
X017474Y012076D01*
X017550Y011999D01*
X020593Y013116D02*
X020869Y012841D01*
X021814Y012841D01*
X021814Y013096D01*
X021617Y013096D02*
X021585Y013062D01*
X021550Y013031D01*
X021513Y013002D01*
X021474Y012977D01*
X021433Y012955D01*
X021390Y012936D01*
X021345Y012921D01*
X021300Y012910D01*
X021254Y012902D01*
X021207Y012898D01*
X021161Y012898D01*
X021114Y012902D01*
X021068Y012910D01*
X021023Y012921D01*
X020978Y012936D01*
X020935Y012955D01*
X020894Y012977D01*
X020855Y013002D01*
X020818Y013031D01*
X020783Y013062D01*
X020751Y013096D01*
X020731Y013825D02*
X020761Y013860D01*
X020793Y013892D01*
X020828Y013922D01*
X020866Y013949D01*
X020905Y013973D01*
X020946Y013993D01*
X020989Y014011D01*
X021033Y014024D01*
X021078Y014034D01*
X021123Y014041D01*
X021169Y014044D01*
X021215Y014043D01*
X021261Y014039D01*
X021306Y014030D01*
X021351Y014019D01*
X021394Y014003D01*
X021436Y013985D01*
X021477Y013962D01*
X021515Y013937D01*
X021552Y013909D01*
X021586Y013878D01*
X021617Y013844D01*
X021814Y013844D02*
X021814Y014100D01*
X020869Y014100D01*
X020593Y013825D01*
X019868Y014178D02*
X019868Y014255D01*
X020175Y014562D01*
X020175Y014638D01*
X019868Y014638D01*
X019715Y014562D02*
X019638Y014638D01*
X019485Y014638D01*
X019408Y014562D01*
X019408Y014255D01*
X019485Y014178D01*
X019638Y014178D01*
X019715Y014255D01*
X020829Y011576D02*
X021059Y011576D01*
X021136Y011499D01*
X021136Y011346D01*
X021059Y011269D01*
X020829Y011269D01*
X020982Y011269D02*
X021136Y011115D01*
X021289Y011115D02*
X021289Y011192D01*
X021596Y011499D01*
X021596Y011576D01*
X021289Y011576D01*
X020829Y011576D02*
X020829Y011115D01*
X024829Y010374D02*
X024829Y010067D01*
X024906Y009990D01*
X025059Y009990D01*
X025136Y010067D01*
X025289Y009990D02*
X025596Y009990D01*
X025443Y009990D02*
X025443Y010451D01*
X025289Y010297D01*
X025136Y010374D02*
X025059Y010451D01*
X024906Y010451D01*
X024829Y010374D01*
X025750Y010374D02*
X025826Y010451D01*
X025980Y010451D01*
X026057Y010374D01*
X026057Y010297D01*
X025750Y009990D01*
X026057Y009990D01*
X026429Y009475D02*
X026685Y009475D01*
X026429Y009475D02*
X026429Y008531D01*
X026705Y008255D01*
X026704Y008393D02*
X026669Y008423D01*
X026637Y008455D01*
X026607Y008490D01*
X026580Y008528D01*
X026556Y008567D01*
X026536Y008608D01*
X026518Y008651D01*
X026505Y008695D01*
X026495Y008740D01*
X026488Y008785D01*
X026485Y008831D01*
X026486Y008877D01*
X026490Y008923D01*
X026499Y008968D01*
X026510Y009013D01*
X026526Y009056D01*
X026544Y009098D01*
X026567Y009139D01*
X026592Y009177D01*
X026620Y009214D01*
X026651Y009248D01*
X026685Y009279D01*
X027433Y009278D02*
X027467Y009246D01*
X027498Y009211D01*
X027527Y009174D01*
X027552Y009135D01*
X027574Y009094D01*
X027593Y009051D01*
X027608Y009006D01*
X027619Y008961D01*
X027627Y008915D01*
X027631Y008868D01*
X027631Y008822D01*
X027627Y008775D01*
X027619Y008729D01*
X027608Y008684D01*
X027593Y008639D01*
X027574Y008596D01*
X027552Y008555D01*
X027527Y008516D01*
X027498Y008479D01*
X027467Y008444D01*
X027433Y008412D01*
X027413Y008255D02*
X027689Y008531D01*
X027689Y009475D01*
X027433Y009475D01*
X027524Y010490D02*
X027678Y010490D01*
X027755Y010567D01*
X027908Y010490D02*
X028215Y010490D01*
X028062Y010490D02*
X028062Y010951D01*
X027908Y010797D01*
X027755Y010874D02*
X027678Y010951D01*
X027524Y010951D01*
X027448Y010874D01*
X027448Y010567D01*
X027524Y010490D01*
X027349Y011240D02*
X027195Y011240D01*
X027118Y011317D01*
X027118Y011471D01*
X027349Y011471D01*
X027425Y011394D01*
X027425Y011317D01*
X027349Y011240D01*
X027118Y011471D02*
X027272Y011624D01*
X027425Y011701D01*
X026965Y011624D02*
X026888Y011701D01*
X026735Y011701D01*
X026658Y011624D01*
X026658Y011317D01*
X026735Y011240D01*
X026888Y011240D01*
X026965Y011317D01*
X028368Y010874D02*
X028368Y010797D01*
X028445Y010721D01*
X028675Y010721D01*
X028675Y010874D02*
X028599Y010951D01*
X028445Y010951D01*
X028368Y010874D01*
X028368Y010567D02*
X028445Y010490D01*
X028599Y010490D01*
X028675Y010567D01*
X028675Y010874D01*
X029607Y010489D02*
X030040Y010922D01*
X031261Y010922D01*
X031261Y010430D01*
X031123Y010430D02*
X031097Y010478D01*
X031068Y010525D01*
X031035Y010570D01*
X030999Y010612D01*
X030960Y010651D01*
X030919Y010688D01*
X030875Y010721D01*
X030829Y010752D01*
X030780Y010778D01*
X030730Y010801D01*
X030678Y010821D01*
X030625Y010837D01*
X030571Y010849D01*
X030517Y010857D01*
X030462Y010861D01*
X030406Y010861D01*
X030351Y010857D01*
X030297Y010849D01*
X030243Y010837D01*
X030190Y010821D01*
X030138Y010801D01*
X030088Y010778D01*
X030039Y010752D01*
X029993Y010721D01*
X029949Y010688D01*
X029908Y010651D01*
X029869Y010612D01*
X029833Y010570D01*
X029800Y010525D01*
X029771Y010478D01*
X029745Y010430D01*
X029745Y009760D02*
X029771Y009712D01*
X029800Y009665D01*
X029833Y009620D01*
X029869Y009578D01*
X029908Y009539D01*
X029949Y009502D01*
X029993Y009469D01*
X030039Y009438D01*
X030088Y009412D01*
X030138Y009389D01*
X030190Y009369D01*
X030243Y009353D01*
X030297Y009341D01*
X030351Y009333D01*
X030406Y009329D01*
X030462Y009329D01*
X030517Y009333D01*
X030571Y009341D01*
X030625Y009353D01*
X030678Y009369D01*
X030730Y009389D01*
X030780Y009412D01*
X030829Y009438D01*
X030875Y009469D01*
X030919Y009502D01*
X030960Y009539D01*
X030999Y009578D01*
X031035Y009620D01*
X031068Y009665D01*
X031097Y009712D01*
X031123Y009760D01*
X031261Y009761D02*
X031261Y009269D01*
X030040Y009269D01*
X029607Y009702D01*
X029783Y009201D02*
X030013Y009201D01*
X030090Y009124D01*
X030090Y008971D01*
X030013Y008894D01*
X029783Y008894D01*
X029783Y008740D02*
X029783Y009201D01*
X030243Y009124D02*
X030320Y009201D01*
X030474Y009201D01*
X030550Y009124D01*
X030550Y009047D01*
X030474Y008971D01*
X030550Y008894D01*
X030550Y008817D01*
X030474Y008740D01*
X030320Y008740D01*
X030243Y008817D01*
X030090Y008740D02*
X029937Y008894D01*
X030397Y008971D02*
X030474Y008971D01*
X031399Y007576D02*
X031323Y007499D01*
X031323Y007192D01*
X031399Y007115D01*
X031553Y007115D01*
X031630Y007192D01*
X031783Y007115D02*
X032090Y007115D01*
X031937Y007115D02*
X031937Y007576D01*
X031783Y007422D01*
X031630Y007499D02*
X031553Y007576D01*
X031399Y007576D01*
X031124Y006975D02*
X031399Y006700D01*
X031124Y006975D02*
X030179Y006975D01*
X030179Y006719D01*
X030376Y006719D02*
X030408Y006753D01*
X030443Y006784D01*
X030480Y006813D01*
X030519Y006838D01*
X030560Y006860D01*
X030603Y006879D01*
X030648Y006894D01*
X030693Y006905D01*
X030739Y006913D01*
X030786Y006917D01*
X030832Y006917D01*
X030879Y006913D01*
X030925Y006905D01*
X030970Y006894D01*
X031015Y006879D01*
X031058Y006860D01*
X031099Y006838D01*
X031138Y006813D01*
X031175Y006784D01*
X031210Y006753D01*
X031242Y006719D01*
X031262Y005990D02*
X031232Y005955D01*
X031200Y005923D01*
X031165Y005893D01*
X031127Y005866D01*
X031088Y005842D01*
X031047Y005822D01*
X031004Y005804D01*
X030960Y005791D01*
X030915Y005781D01*
X030870Y005774D01*
X030824Y005771D01*
X030778Y005772D01*
X030732Y005776D01*
X030687Y005785D01*
X030642Y005796D01*
X030599Y005812D01*
X030557Y005830D01*
X030516Y005853D01*
X030478Y005878D01*
X030441Y005906D01*
X030407Y005937D01*
X030376Y005971D01*
X030179Y005971D02*
X030179Y005716D01*
X031124Y005716D01*
X031399Y005991D01*
X031124Y005600D02*
X031399Y005325D01*
X031124Y005600D02*
X030179Y005600D01*
X030179Y005344D01*
X030376Y005344D02*
X030408Y005378D01*
X030443Y005409D01*
X030480Y005438D01*
X030519Y005463D01*
X030560Y005485D01*
X030603Y005504D01*
X030648Y005519D01*
X030693Y005530D01*
X030739Y005538D01*
X030786Y005542D01*
X030832Y005542D01*
X030879Y005538D01*
X030925Y005530D01*
X030970Y005519D01*
X031015Y005504D01*
X031058Y005485D01*
X031099Y005463D01*
X031138Y005438D01*
X031175Y005409D01*
X031210Y005378D01*
X031242Y005344D01*
X031262Y004615D02*
X031232Y004580D01*
X031200Y004548D01*
X031165Y004518D01*
X031127Y004491D01*
X031088Y004467D01*
X031047Y004447D01*
X031004Y004429D01*
X030960Y004416D01*
X030915Y004406D01*
X030870Y004399D01*
X030824Y004396D01*
X030778Y004397D01*
X030732Y004401D01*
X030687Y004410D01*
X030642Y004421D01*
X030599Y004437D01*
X030557Y004455D01*
X030516Y004478D01*
X030478Y004503D01*
X030441Y004531D01*
X030407Y004562D01*
X030376Y004596D01*
X030179Y004596D02*
X030179Y004341D01*
X031124Y004341D01*
X031399Y004616D01*
X029028Y006242D02*
X029028Y006319D01*
X028951Y006396D01*
X028721Y006396D01*
X028721Y006242D01*
X028798Y006165D01*
X028951Y006165D01*
X029028Y006242D01*
X028875Y006549D02*
X028721Y006396D01*
X028568Y006549D02*
X028491Y006626D01*
X028338Y006626D01*
X028261Y006549D01*
X028261Y006242D01*
X028338Y006165D01*
X028491Y006165D01*
X028568Y006242D01*
X028107Y006165D02*
X027954Y006165D01*
X028031Y006165D02*
X028031Y006626D01*
X028107Y006626D02*
X027954Y006626D01*
X028875Y006549D02*
X029028Y006626D01*
X026596Y005346D02*
X026289Y005346D01*
X026519Y005576D01*
X026519Y005115D01*
X026136Y005115D02*
X025982Y005269D01*
X026059Y005269D02*
X025829Y005269D01*
X025829Y005115D02*
X025829Y005576D01*
X026059Y005576D01*
X026136Y005499D01*
X026136Y005346D01*
X026059Y005269D01*
X027016Y004826D02*
X027247Y004826D01*
X027323Y004749D01*
X027323Y004596D01*
X027247Y004519D01*
X027016Y004519D01*
X027016Y004365D02*
X027016Y004826D01*
X027170Y004519D02*
X027323Y004365D01*
X027477Y004365D02*
X027784Y004365D01*
X027630Y004365D02*
X027630Y004826D01*
X027477Y004672D01*
X027937Y004596D02*
X027937Y004826D01*
X028244Y004826D01*
X028167Y004672D02*
X028244Y004596D01*
X028244Y004442D01*
X028167Y004365D01*
X028014Y004365D01*
X027937Y004442D01*
X027937Y004596D02*
X028091Y004672D01*
X028167Y004672D01*
X032243Y007115D02*
X032243Y007192D01*
X032550Y007499D01*
X032550Y007576D01*
X032243Y007576D01*
X031070Y011022D02*
X030917Y011022D01*
X030840Y011099D01*
X030840Y011253D01*
X031070Y011253D01*
X031147Y011176D01*
X031147Y011099D01*
X031070Y011022D01*
X030840Y011253D02*
X030993Y011406D01*
X031147Y011483D01*
X030533Y011483D02*
X030533Y011022D01*
X030380Y011022D02*
X030686Y011022D01*
X030380Y011329D02*
X030533Y011483D01*
X030226Y011406D02*
X030149Y011483D01*
X029996Y011483D01*
X029919Y011406D01*
X029919Y011099D01*
X029996Y011022D01*
X030149Y011022D01*
X030226Y011099D01*
X030580Y012255D02*
X030304Y012531D01*
X030304Y013475D01*
X030560Y013475D01*
X030568Y013929D02*
X030722Y013929D01*
X030799Y014006D01*
X030952Y014006D02*
X030952Y014083D01*
X031029Y014160D01*
X031182Y014160D01*
X031259Y014083D01*
X031259Y014006D01*
X031182Y013929D01*
X031029Y013929D01*
X030952Y014006D01*
X031029Y014160D02*
X030952Y014236D01*
X030952Y014313D01*
X031029Y014390D01*
X031182Y014390D01*
X031259Y014313D01*
X031259Y014236D01*
X031182Y014160D01*
X030799Y014313D02*
X030722Y014390D01*
X030568Y014390D01*
X030492Y014313D01*
X030492Y014006D01*
X030568Y013929D01*
X031308Y013475D02*
X031564Y013475D01*
X031564Y012531D01*
X031288Y012255D01*
X030579Y012393D02*
X030544Y012423D01*
X030512Y012455D01*
X030482Y012490D01*
X030455Y012528D01*
X030431Y012567D01*
X030411Y012608D01*
X030393Y012651D01*
X030380Y012695D01*
X030370Y012740D01*
X030363Y012785D01*
X030360Y012831D01*
X030361Y012877D01*
X030365Y012923D01*
X030374Y012968D01*
X030385Y013013D01*
X030401Y013056D01*
X030419Y013098D01*
X030442Y013139D01*
X030467Y013177D01*
X030495Y013214D01*
X030526Y013248D01*
X030560Y013279D01*
X031308Y013278D02*
X031342Y013246D01*
X031373Y013211D01*
X031402Y013174D01*
X031427Y013135D01*
X031449Y013094D01*
X031468Y013051D01*
X031483Y013006D01*
X031494Y012961D01*
X031502Y012915D01*
X031506Y012868D01*
X031506Y012822D01*
X031502Y012775D01*
X031494Y012729D01*
X031483Y012684D01*
X031468Y012639D01*
X031449Y012596D01*
X031427Y012555D01*
X031402Y012516D01*
X031373Y012479D01*
X031342Y012444D01*
X031308Y012412D01*
X028863Y013192D02*
X028786Y013115D01*
X028633Y013115D01*
X028556Y013192D01*
X028403Y013115D02*
X028096Y013115D01*
X028249Y013115D02*
X028249Y013576D01*
X028096Y013422D01*
X027942Y013346D02*
X027865Y013269D01*
X027635Y013269D01*
X027635Y013115D02*
X027635Y013576D01*
X027865Y013576D01*
X027942Y013499D01*
X027942Y013346D01*
X027789Y013269D02*
X027942Y013115D01*
X028556Y013499D02*
X028633Y013576D01*
X028786Y013576D01*
X028863Y013499D01*
X028863Y013422D01*
X028786Y013346D01*
X028863Y013269D01*
X028863Y013192D01*
X028786Y013346D02*
X028709Y013346D01*
X014724Y005451D02*
X014724Y004990D01*
X014800Y005221D02*
X014493Y005221D01*
X014724Y005451D01*
X014340Y005374D02*
X014340Y005067D01*
X014263Y004990D01*
X014110Y004990D01*
X014033Y005067D01*
X014033Y005374D01*
X014110Y005451D01*
X014263Y005451D01*
X014340Y005374D01*
X014187Y005144D02*
X014340Y004990D01*
X013300Y005615D02*
X012993Y005615D01*
X012840Y005615D02*
X012533Y005615D01*
X012380Y005615D02*
X012226Y005769D01*
X012303Y005769D02*
X012073Y005769D01*
X012073Y005615D02*
X012073Y006076D01*
X012303Y006076D01*
X012380Y005999D01*
X012380Y005846D01*
X012303Y005769D01*
X012533Y005922D02*
X012687Y006076D01*
X012687Y005615D01*
X012993Y005922D02*
X013147Y006076D01*
X013147Y005615D01*
X010800Y005615D02*
X010493Y005615D01*
X010800Y005922D01*
X010800Y005999D01*
X010724Y006076D01*
X010570Y006076D01*
X010493Y005999D01*
X010187Y006076D02*
X010187Y005615D01*
X010340Y005615D02*
X010033Y005615D01*
X009880Y005615D02*
X009726Y005769D01*
X009803Y005769D02*
X009573Y005769D01*
X009573Y005615D02*
X009573Y006076D01*
X009803Y006076D01*
X009880Y005999D01*
X009880Y005846D01*
X009803Y005769D01*
X010033Y005922D02*
X010187Y006076D01*
X008802Y005791D02*
X008495Y005791D01*
X008648Y005791D02*
X008648Y006252D01*
X008495Y006098D01*
X008341Y006175D02*
X008265Y006252D01*
X008111Y006252D01*
X008035Y006175D01*
X008035Y005868D01*
X008111Y005791D01*
X008265Y005791D01*
X008341Y005868D01*
X008700Y007741D02*
X008680Y007664D01*
X008657Y007589D01*
X008629Y007515D01*
X008598Y007443D01*
X008563Y007372D01*
X008525Y007303D01*
X008483Y007237D01*
X008438Y007172D01*
X008390Y007110D01*
X008338Y007050D01*
X008284Y006993D01*
X008227Y006939D01*
X008167Y006887D01*
X008105Y006839D01*
X008040Y006794D01*
X007973Y006753D01*
X007904Y006715D01*
X007833Y006680D01*
X007761Y006649D01*
X007687Y006621D01*
X007612Y006598D01*
X007536Y006578D01*
X007458Y006562D01*
X007380Y006550D01*
X007302Y006542D01*
X007223Y006538D01*
X007145Y006538D01*
X007066Y006542D01*
X006988Y006550D01*
X006910Y006562D01*
X006832Y006578D01*
X006756Y006598D01*
X006681Y006621D01*
X006607Y006649D01*
X006535Y006680D01*
X006464Y006715D01*
X006395Y006753D01*
X006328Y006794D01*
X006263Y006839D01*
X006201Y006887D01*
X006141Y006939D01*
X006084Y006993D01*
X006030Y007050D01*
X005978Y007110D01*
X005930Y007172D01*
X005885Y007237D01*
X005843Y007303D01*
X005805Y007372D01*
X005770Y007443D01*
X005739Y007515D01*
X005711Y007589D01*
X005688Y007664D01*
X005668Y007741D01*
X002300Y005201D02*
X001993Y005201D01*
X001993Y004971D01*
X002147Y005047D01*
X002224Y005047D01*
X002300Y004971D01*
X002300Y004817D01*
X002224Y004740D01*
X002070Y004740D01*
X001993Y004817D01*
X001840Y004817D02*
X001763Y004740D01*
X001610Y004740D01*
X001533Y004817D01*
X001533Y005124D01*
X001610Y005201D01*
X001763Y005201D01*
X001840Y005124D01*
X004204Y001451D02*
X004434Y001451D01*
X004511Y001374D01*
X004511Y001221D01*
X004434Y001144D01*
X004204Y001144D01*
X004357Y001144D02*
X004511Y000990D01*
X004664Y001067D02*
X004741Y000990D01*
X004894Y000990D01*
X004971Y001067D01*
X004971Y001144D01*
X004894Y001221D01*
X004741Y001221D01*
X004664Y001297D01*
X004664Y001374D01*
X004741Y001451D01*
X004894Y001451D01*
X004971Y001374D01*
X005125Y001451D02*
X005125Y000990D01*
X005432Y000990D01*
X005585Y000990D02*
X005585Y001451D01*
X005892Y000990D01*
X005892Y001451D01*
X006045Y001374D02*
X006045Y001297D01*
X006122Y001221D01*
X006276Y001221D01*
X006352Y001144D01*
X006352Y001067D01*
X006276Y000990D01*
X006122Y000990D01*
X006045Y001067D01*
X006045Y001374D02*
X006122Y001451D01*
X006276Y001451D01*
X006352Y001374D01*
X006506Y001451D02*
X006506Y000990D01*
X006813Y000990D01*
X006659Y001221D02*
X006506Y001221D01*
X006506Y001451D02*
X006813Y001451D01*
X005432Y001451D02*
X005125Y001451D01*
X005125Y001221D02*
X005278Y001221D01*
X004204Y000990D02*
X004204Y001451D01*
X003425Y001249D02*
X003349Y001326D01*
X003195Y001326D01*
X003118Y001249D01*
X002965Y001249D02*
X002965Y000942D01*
X002888Y000865D01*
X002658Y000865D01*
X002658Y001326D01*
X002888Y001326D01*
X002965Y001249D01*
X003118Y000865D02*
X003425Y001172D01*
X003425Y001249D01*
X003425Y000865D02*
X003118Y000865D01*
X012829Y007678D02*
X012829Y008138D01*
X013059Y008138D01*
X013136Y008062D01*
X013136Y007908D01*
X013059Y007831D01*
X012829Y007831D01*
X012982Y007831D02*
X013136Y007678D01*
X013289Y007678D02*
X013596Y007678D01*
X013443Y007678D02*
X013443Y008138D01*
X013289Y007985D01*
X013750Y008062D02*
X013750Y007755D01*
X014057Y008062D01*
X014057Y007755D01*
X013980Y007678D01*
X013826Y007678D01*
X013750Y007755D01*
X013750Y008062D02*
X013826Y008138D01*
X013980Y008138D01*
X014057Y008062D01*
X011971Y008505D02*
X011971Y008812D01*
X011894Y008888D01*
X011741Y008888D01*
X011664Y008812D01*
X011664Y008735D01*
X011741Y008658D01*
X011971Y008658D01*
X011971Y008505D02*
X011894Y008428D01*
X011741Y008428D01*
X011664Y008505D01*
X011511Y008428D02*
X011357Y008581D01*
X011434Y008581D02*
X011204Y008581D01*
X011204Y008428D02*
X011204Y008888D01*
X011434Y008888D01*
X011511Y008812D01*
X011511Y008658D01*
X011434Y008581D01*
X018154Y002581D02*
X018824Y003250D01*
X019060Y003250D01*
X019808Y003250D02*
X020044Y003250D01*
X020713Y002581D01*
X020713Y000691D01*
X019808Y000691D01*
X019060Y000691D02*
X018154Y000691D01*
X018154Y002581D01*
X019808Y003131D02*
X019872Y003109D01*
X019935Y003082D01*
X019997Y003052D01*
X020056Y003019D01*
X020114Y002983D01*
X020170Y002943D01*
X020223Y002900D01*
X020274Y002855D01*
X020322Y002807D01*
X020367Y002756D01*
X020410Y002702D01*
X020449Y002646D01*
X020486Y002589D01*
X020519Y002529D01*
X020548Y002467D01*
X020574Y002404D01*
X020597Y002340D01*
X020616Y002274D01*
X020631Y002207D01*
X020642Y002140D01*
X020650Y002072D01*
X020654Y002004D01*
X020654Y001936D01*
X020650Y001868D01*
X020642Y001800D01*
X020631Y001733D01*
X020616Y001666D01*
X020597Y001600D01*
X020574Y001536D01*
X020548Y001473D01*
X020519Y001411D01*
X020486Y001351D01*
X020449Y001294D01*
X020410Y001238D01*
X020367Y001184D01*
X020322Y001133D01*
X020274Y001085D01*
X020223Y001040D01*
X020170Y000997D01*
X020114Y000957D01*
X020056Y000921D01*
X019997Y000888D01*
X019935Y000858D01*
X019872Y000831D01*
X019808Y000809D01*
X019060Y000809D02*
X018996Y000831D01*
X018933Y000858D01*
X018871Y000888D01*
X018812Y000921D01*
X018754Y000957D01*
X018698Y000997D01*
X018645Y001040D01*
X018594Y001085D01*
X018546Y001133D01*
X018501Y001184D01*
X018458Y001238D01*
X018419Y001294D01*
X018382Y001351D01*
X018349Y001411D01*
X018320Y001473D01*
X018294Y001536D01*
X018271Y001600D01*
X018252Y001666D01*
X018237Y001733D01*
X018226Y001800D01*
X018218Y001868D01*
X018214Y001936D01*
X018214Y002004D01*
X018218Y002072D01*
X018226Y002140D01*
X018237Y002207D01*
X018252Y002274D01*
X018271Y002340D01*
X018294Y002404D01*
X018320Y002467D01*
X018349Y002529D01*
X018382Y002589D01*
X018419Y002646D01*
X018458Y002702D01*
X018501Y002756D01*
X018546Y002807D01*
X018594Y002855D01*
X018645Y002900D01*
X018698Y002943D01*
X018754Y002983D01*
X018812Y003019D01*
X018871Y003052D01*
X018933Y003082D01*
X018996Y003109D01*
X019060Y003131D01*
X020212Y003214D02*
X020289Y003137D01*
X020442Y003137D01*
X020519Y003214D01*
X020673Y003214D02*
X020749Y003137D01*
X020903Y003137D01*
X020979Y003214D01*
X020979Y003521D01*
X020903Y003598D01*
X020749Y003598D01*
X020673Y003521D01*
X020673Y003444D01*
X020749Y003368D01*
X020979Y003368D01*
X020519Y003521D02*
X020442Y003598D01*
X020289Y003598D01*
X020212Y003521D01*
X020212Y003214D01*
D12*
X001674Y000755D02*
X001674Y000535D01*
X001994Y000535D01*
X001674Y001435D02*
X001674Y001655D01*
X001994Y001655D01*
X001974Y001916D02*
X003394Y001916D01*
X003394Y003775D02*
X001974Y003775D01*
X007809Y003345D02*
X007809Y002845D01*
X008059Y002595D01*
X007809Y002345D01*
X007809Y001845D01*
X008059Y001595D01*
X007809Y001345D01*
X007809Y000845D01*
X008059Y000595D01*
X008559Y000595D01*
X008809Y000845D01*
X008809Y001345D01*
X008559Y001595D01*
X008809Y001845D01*
X008809Y002345D01*
X008559Y002595D01*
X008809Y002845D01*
X008809Y003345D01*
X008559Y003595D01*
X008059Y003595D01*
X007809Y003345D01*
X009309Y003345D02*
X009309Y002845D01*
X009559Y002595D01*
X009309Y002345D01*
X009309Y001845D01*
X009559Y001595D01*
X009309Y001345D01*
X009309Y000845D01*
X009559Y000595D01*
X010059Y000595D01*
X010309Y000845D01*
X010309Y001345D01*
X010059Y001595D01*
X010309Y001845D01*
X010309Y002345D01*
X010059Y002595D01*
X010309Y002845D01*
X010309Y003345D01*
X010059Y003595D01*
X009559Y003595D01*
X009309Y003345D01*
X011309Y003345D02*
X011309Y002845D01*
X011559Y002595D01*
X011309Y002345D01*
X011309Y001845D01*
X011559Y001595D01*
X011309Y001345D01*
X011309Y000845D01*
X011559Y000595D01*
X012059Y000595D01*
X012309Y000845D01*
X012309Y001345D01*
X012059Y001595D01*
X012309Y001845D01*
X012309Y002345D01*
X012059Y002595D01*
X012309Y002845D01*
X012309Y003345D01*
X012059Y003595D01*
X011559Y003595D01*
X011309Y003345D01*
X012809Y003345D02*
X012809Y002845D01*
X013059Y002595D01*
X012809Y002345D01*
X012809Y001845D01*
X013059Y001595D01*
X012809Y001345D01*
X012809Y000845D01*
X013059Y000595D01*
X013559Y000595D01*
X013809Y000845D01*
X013809Y001345D01*
X013559Y001595D01*
X013809Y001845D01*
X013809Y002345D01*
X013559Y002595D01*
X013809Y002845D01*
X013809Y003345D01*
X013559Y003595D01*
X013059Y003595D01*
X012809Y003345D01*
X014809Y003345D02*
X014809Y002845D01*
X015059Y002595D01*
X014809Y002345D01*
X014809Y001845D01*
X015059Y001595D01*
X014809Y001345D01*
X014809Y000845D01*
X015059Y000595D01*
X015559Y000595D01*
X015809Y000845D01*
X015809Y001345D01*
X015559Y001595D01*
X015809Y001845D01*
X015809Y002345D01*
X015559Y002595D01*
X015809Y002845D01*
X015809Y003345D01*
X015559Y003595D01*
X015059Y003595D01*
X014809Y003345D01*
X016309Y003345D02*
X016309Y002845D01*
X016559Y002595D01*
X016309Y002345D01*
X016309Y001845D01*
X016559Y001595D01*
X016309Y001345D01*
X016309Y000845D01*
X016559Y000595D01*
X017059Y000595D01*
X017309Y000845D01*
X017309Y001345D01*
X017059Y001595D01*
X017309Y001845D01*
X017309Y002345D01*
X017059Y002595D01*
X017309Y002845D01*
X017309Y003345D01*
X017059Y003595D01*
X016559Y003595D01*
X016309Y003345D01*
X017714Y004857D02*
X017821Y004750D01*
X018034Y004750D01*
X018141Y004857D01*
X018141Y005071D01*
X017927Y005071D01*
X017714Y005284D02*
X017714Y004857D01*
X017714Y005284D02*
X017821Y005391D01*
X018034Y005391D01*
X018141Y005284D01*
X018358Y005284D02*
X018572Y005071D01*
X018572Y004750D01*
X018572Y005071D02*
X018785Y005284D01*
X018785Y005391D01*
X019003Y005071D02*
X019430Y005071D01*
X019648Y005284D02*
X019754Y005391D01*
X019968Y005391D01*
X020075Y005284D01*
X020075Y005178D01*
X019648Y004750D01*
X020075Y004750D01*
X020292Y004750D02*
X020292Y004857D01*
X020719Y005284D01*
X020719Y005391D01*
X020292Y005391D01*
X018358Y005391D02*
X018358Y005284D01*
X021434Y003345D02*
X021684Y003595D01*
X022184Y003595D01*
X022434Y003345D01*
X022434Y002845D01*
X022184Y002595D01*
X022434Y002345D01*
X022434Y001845D01*
X022184Y001595D01*
X022434Y001345D01*
X022434Y000845D01*
X022184Y000595D01*
X021684Y000595D01*
X021434Y000845D01*
X021434Y001345D01*
X021684Y001595D01*
X021434Y001845D01*
X021434Y002345D01*
X021684Y002595D01*
X021434Y002845D01*
X021434Y003345D01*
X022934Y003345D02*
X022934Y002845D01*
X023184Y002595D01*
X022934Y002345D01*
X022934Y001845D01*
X023184Y001595D01*
X022934Y001345D01*
X022934Y000845D01*
X023184Y000595D01*
X023684Y000595D01*
X023934Y000845D01*
X023934Y001345D01*
X023684Y001595D01*
X023934Y001845D01*
X023934Y002345D01*
X023684Y002595D01*
X023934Y002845D01*
X023934Y003345D01*
X023684Y003595D01*
X023184Y003595D01*
X022934Y003345D01*
X025184Y003345D02*
X025184Y002845D01*
X025434Y002595D01*
X025184Y002345D01*
X025184Y001845D01*
X025434Y001595D01*
X025184Y001345D01*
X025184Y000845D01*
X025434Y000595D01*
X025934Y000595D01*
X026184Y000845D01*
X026184Y001345D01*
X025934Y001595D01*
X026184Y001845D01*
X026184Y002345D01*
X025934Y002595D01*
X026184Y002845D01*
X026184Y003345D01*
X025934Y003595D01*
X025434Y003595D01*
X025184Y003345D01*
X026684Y003345D02*
X026684Y002845D01*
X026934Y002595D01*
X026684Y002345D01*
X026684Y001845D01*
X026934Y001595D01*
X026684Y001345D01*
X026684Y000845D01*
X026934Y000595D01*
X027434Y000595D01*
X027684Y000845D01*
X027684Y001345D01*
X027434Y001595D01*
X027684Y001845D01*
X027684Y002345D01*
X027434Y002595D01*
X027684Y002845D01*
X027684Y003345D01*
X027434Y003595D01*
X026934Y003595D01*
X026684Y003345D01*
X028684Y003345D02*
X028684Y002845D01*
X028934Y002595D01*
X028684Y002345D01*
X028684Y001845D01*
X028934Y001595D01*
X028684Y001345D01*
X028684Y000845D01*
X028934Y000595D01*
X029434Y000595D01*
X029684Y000845D01*
X029684Y001345D01*
X029434Y001595D01*
X029684Y001845D01*
X029684Y002345D01*
X029434Y002595D01*
X029684Y002845D01*
X029684Y003345D01*
X029434Y003595D01*
X028934Y003595D01*
X028684Y003345D01*
X030184Y003345D02*
X030184Y002845D01*
X030434Y002595D01*
X030184Y002345D01*
X030184Y001845D01*
X030434Y001595D01*
X030184Y001345D01*
X030184Y000845D01*
X030434Y000595D01*
X030934Y000595D01*
X031184Y000845D01*
X031184Y001345D01*
X030934Y001595D01*
X031184Y001845D01*
X031184Y002345D01*
X030934Y002595D01*
X031184Y002845D01*
X031184Y003345D01*
X030934Y003595D01*
X030434Y003595D01*
X030184Y003345D01*
X031989Y002775D02*
X032129Y002915D01*
X032319Y002785D01*
X032499Y002855D02*
X032549Y003095D01*
X032739Y003095D01*
X032789Y002855D01*
X032969Y002785D02*
X033169Y002915D01*
X033309Y002775D01*
X033169Y002585D01*
X033259Y002395D02*
X033479Y002355D01*
X033479Y002155D01*
X033259Y002115D01*
X033179Y001915D02*
X033309Y001735D01*
X033169Y001595D01*
X032989Y001715D01*
X032909Y001675D01*
X032769Y002015D01*
X032529Y002015D02*
X032379Y001675D01*
X032309Y001715D01*
X032129Y001595D01*
X031989Y001735D01*
X032109Y001915D01*
X032029Y002115D02*
X031809Y002155D01*
X031809Y002355D01*
X032039Y002395D01*
X032119Y002585D02*
X031989Y002775D01*
X032031Y002099D02*
X032046Y002052D01*
X032064Y002006D01*
X032086Y001962D01*
X032111Y001920D01*
X032321Y002781D02*
X032363Y002804D01*
X032406Y002823D01*
X032451Y002840D01*
X032497Y002852D01*
X032529Y002015D02*
X032501Y002031D01*
X032474Y002050D01*
X032451Y002072D01*
X032430Y002097D01*
X032412Y002125D01*
X032397Y002154D01*
X032387Y002185D01*
X032379Y002216D01*
X032376Y002249D01*
X032377Y002281D01*
X032381Y002314D01*
X032390Y002345D01*
X032402Y002375D01*
X032417Y002404D01*
X032436Y002431D01*
X032458Y002455D01*
X032482Y002476D01*
X032509Y002495D01*
X032538Y002510D01*
X032569Y002521D01*
X032600Y002529D01*
X032633Y002533D01*
X032665Y002533D01*
X032698Y002529D01*
X032729Y002521D01*
X032760Y002510D01*
X032789Y002495D01*
X032816Y002476D01*
X032840Y002455D01*
X032862Y002431D01*
X032881Y002404D01*
X032896Y002375D01*
X032908Y002345D01*
X032917Y002314D01*
X032921Y002281D01*
X032922Y002249D01*
X032919Y002216D01*
X032911Y002185D01*
X032901Y002154D01*
X032886Y002125D01*
X032868Y002097D01*
X032847Y002072D01*
X032824Y002050D01*
X032797Y002031D01*
X032769Y002015D01*
X033261Y002396D02*
X033249Y002436D01*
X033234Y002475D01*
X033216Y002513D01*
X033196Y002549D01*
X033174Y002584D01*
X032968Y002786D02*
X032925Y002809D01*
X032881Y002829D01*
X032835Y002845D01*
X032789Y002857D01*
X033258Y002116D02*
X033248Y002074D01*
X033235Y002033D01*
X033219Y001993D01*
X033200Y001954D01*
X033178Y001917D01*
X032037Y002397D02*
X032048Y002437D01*
X032062Y002476D01*
X032078Y002513D01*
X032097Y002550D01*
X032118Y002585D01*
X032184Y003845D02*
X031934Y004095D01*
X031934Y004595D01*
X032184Y004845D01*
X031934Y005095D01*
X031934Y005595D01*
X032184Y005845D01*
X031934Y006095D01*
X031934Y006595D01*
X032184Y006845D01*
X032684Y006845D01*
X032934Y006595D01*
X032934Y006095D01*
X032684Y005845D01*
X032934Y005595D01*
X032934Y005095D01*
X032684Y004845D01*
X032934Y004595D01*
X032934Y004095D01*
X032684Y003845D01*
X032184Y003845D01*
X027459Y005995D02*
X027459Y007695D01*
X027457Y007712D01*
X027453Y007729D01*
X027446Y007745D01*
X027436Y007759D01*
X027423Y007772D01*
X027409Y007782D01*
X027393Y007789D01*
X027376Y007793D01*
X027359Y007795D01*
X026759Y007795D01*
X026742Y007793D01*
X026725Y007789D01*
X026709Y007782D01*
X026695Y007772D01*
X026682Y007759D01*
X026672Y007745D01*
X026665Y007729D01*
X026661Y007712D01*
X026659Y007695D01*
X026659Y005995D01*
X026661Y005978D01*
X026665Y005961D01*
X026672Y005945D01*
X026682Y005931D01*
X026695Y005918D01*
X026709Y005908D01*
X026725Y005901D01*
X026742Y005897D01*
X026759Y005895D01*
X027359Y005895D01*
X027376Y005897D01*
X027393Y005901D01*
X027409Y005908D01*
X027423Y005918D01*
X027436Y005931D01*
X027446Y005945D01*
X027453Y005961D01*
X027457Y005978D01*
X027459Y005995D01*
X031984Y007770D02*
X032184Y007770D01*
X031984Y007770D02*
X031984Y007970D01*
X031984Y008470D02*
X031984Y008670D01*
X032184Y008670D01*
X032184Y008770D02*
X031984Y008770D01*
X031984Y008970D01*
X031984Y009470D02*
X031984Y009670D01*
X032184Y009670D01*
X032684Y009670D02*
X032884Y009670D01*
X032884Y009470D01*
X032884Y008970D02*
X032884Y008770D01*
X032684Y008770D01*
X032684Y008670D02*
X032884Y008670D01*
X032884Y008470D01*
X032884Y007970D02*
X032884Y007770D01*
X032684Y007770D01*
X032684Y011845D02*
X032184Y011845D01*
X031934Y012095D01*
X031934Y012595D01*
X032184Y012845D01*
X031934Y013095D01*
X031934Y013595D01*
X032184Y013845D01*
X031934Y014095D01*
X031934Y014595D01*
X032184Y014845D01*
X031934Y015095D01*
X031934Y015595D01*
X032184Y015845D01*
X032684Y015845D01*
X032934Y015595D01*
X032934Y015095D01*
X032684Y014845D01*
X032934Y014595D01*
X032934Y014095D01*
X032684Y013845D01*
X032934Y013595D01*
X032934Y013095D01*
X032684Y012845D01*
X032934Y012595D01*
X032934Y012095D01*
X032684Y011845D01*
X027434Y013725D02*
X027434Y014145D01*
X027434Y014545D01*
X027434Y014965D01*
X027432Y014988D01*
X027427Y015011D01*
X027418Y015033D01*
X027405Y015053D01*
X027390Y015071D01*
X027372Y015086D01*
X027352Y015099D01*
X027330Y015108D01*
X027307Y015113D01*
X027284Y015115D01*
X027434Y014545D02*
X027407Y014543D01*
X027380Y014538D01*
X027354Y014528D01*
X027330Y014516D01*
X027308Y014500D01*
X027288Y014482D01*
X027271Y014460D01*
X027256Y014437D01*
X027246Y014412D01*
X027238Y014386D01*
X027234Y014359D01*
X027234Y014331D01*
X027238Y014304D01*
X027246Y014278D01*
X027256Y014253D01*
X027271Y014230D01*
X027288Y014208D01*
X027308Y014190D01*
X027330Y014174D01*
X027354Y014162D01*
X027380Y014152D01*
X027407Y014147D01*
X027434Y014145D01*
X027434Y013725D02*
X027432Y013702D01*
X027427Y013679D01*
X027418Y013657D01*
X027405Y013637D01*
X027390Y013619D01*
X027372Y013604D01*
X027352Y013591D01*
X027330Y013582D01*
X027307Y013577D01*
X027284Y013575D01*
X023584Y013575D02*
X023561Y013577D01*
X023538Y013582D01*
X023516Y013591D01*
X023496Y013604D01*
X023478Y013619D01*
X023463Y013637D01*
X023450Y013657D01*
X023441Y013679D01*
X023436Y013702D01*
X023434Y013725D01*
X023434Y014965D01*
X023436Y014988D01*
X023441Y015011D01*
X023450Y015033D01*
X023463Y015053D01*
X023478Y015071D01*
X023496Y015086D01*
X023516Y015099D01*
X023538Y015108D01*
X023561Y015113D01*
X023584Y015115D01*
X021134Y016820D02*
X029734Y016820D01*
X029784Y016870D02*
X029084Y016870D01*
X029084Y017570D01*
X029784Y017570D01*
X029784Y016870D01*
X029734Y016820D02*
X029760Y016822D01*
X029786Y016827D01*
X029811Y016835D01*
X029834Y016847D01*
X029856Y016861D01*
X029875Y016879D01*
X029893Y016898D01*
X029907Y016920D01*
X029919Y016943D01*
X029927Y016968D01*
X029932Y016994D01*
X029934Y017020D01*
X029934Y017420D01*
X029932Y017446D01*
X029927Y017472D01*
X029919Y017497D01*
X029907Y017520D01*
X029893Y017542D01*
X029875Y017561D01*
X029856Y017579D01*
X029834Y017593D01*
X029811Y017605D01*
X029786Y017613D01*
X029760Y017618D01*
X029734Y017620D01*
X021134Y017620D01*
X021108Y017618D01*
X021082Y017613D01*
X021057Y017605D01*
X021034Y017593D01*
X021012Y017579D01*
X020993Y017561D01*
X020975Y017542D01*
X020961Y017520D01*
X020949Y017497D01*
X020941Y017472D01*
X020936Y017446D01*
X020934Y017420D01*
X020934Y017020D01*
X020936Y016994D01*
X020941Y016968D01*
X020949Y016943D01*
X020961Y016920D01*
X020975Y016898D01*
X020993Y016879D01*
X021012Y016861D01*
X021034Y016847D01*
X021057Y016835D01*
X021082Y016827D01*
X021108Y016822D01*
X021134Y016820D01*
X021184Y018845D02*
X021684Y018845D01*
X021934Y019095D01*
X022184Y018845D01*
X022684Y018845D01*
X022934Y019095D01*
X023184Y018845D01*
X023684Y018845D01*
X023934Y019095D01*
X024184Y018845D01*
X024684Y018845D01*
X024934Y019095D01*
X024934Y019595D01*
X024684Y019845D01*
X024184Y019845D01*
X023934Y019595D01*
X023684Y019845D01*
X023184Y019845D01*
X022934Y019595D01*
X022684Y019845D01*
X022184Y019845D01*
X021934Y019595D01*
X021684Y019845D01*
X021184Y019845D01*
X020934Y019595D01*
X020684Y019845D01*
X020184Y019845D01*
X019934Y019595D01*
X019684Y019845D01*
X019184Y019845D01*
X018934Y019595D01*
X018684Y019845D01*
X018184Y019845D01*
X017934Y019595D01*
X017684Y019845D01*
X017184Y019845D01*
X016934Y019595D01*
X016934Y019095D01*
X017184Y018845D01*
X017684Y018845D01*
X017934Y019095D01*
X018184Y018845D01*
X018684Y018845D01*
X018934Y019095D01*
X019184Y018845D01*
X019684Y018845D01*
X019934Y019095D01*
X020184Y018845D01*
X020684Y018845D01*
X020934Y019095D01*
X021184Y018845D01*
X021821Y020875D02*
X021714Y020982D01*
X021821Y020875D02*
X022034Y020875D01*
X022141Y020982D01*
X022141Y021196D01*
X022034Y021303D01*
X021927Y021303D01*
X021714Y021196D01*
X021714Y021516D01*
X022141Y021516D01*
X023714Y021196D02*
X024141Y021196D01*
X024034Y021516D02*
X023714Y021196D01*
X024034Y021516D02*
X024034Y020875D01*
X025184Y019595D02*
X025434Y019845D01*
X025934Y019845D01*
X026184Y019595D01*
X026434Y019845D01*
X026934Y019845D01*
X027184Y019595D01*
X027434Y019845D01*
X027934Y019845D01*
X028184Y019595D01*
X028434Y019845D01*
X028934Y019845D01*
X029184Y019595D01*
X029434Y019845D01*
X029934Y019845D01*
X030184Y019595D01*
X030434Y019845D01*
X030934Y019845D01*
X031184Y019595D01*
X031434Y019845D01*
X031934Y019845D01*
X032184Y019595D01*
X032434Y019845D01*
X032934Y019845D01*
X033184Y019595D01*
X033184Y019095D01*
X032934Y018845D01*
X032434Y018845D01*
X032184Y019095D01*
X031934Y018845D01*
X031434Y018845D01*
X031184Y019095D01*
X030934Y018845D01*
X030434Y018845D01*
X030184Y019095D01*
X029934Y018845D01*
X029434Y018845D01*
X029184Y019095D01*
X028934Y018845D01*
X028434Y018845D01*
X028184Y019095D01*
X027934Y018845D01*
X027434Y018845D01*
X027184Y019095D01*
X026934Y018845D01*
X026434Y018845D01*
X026184Y019095D01*
X025934Y018845D01*
X025434Y018845D01*
X025184Y019095D01*
X025184Y019595D01*
X026071Y020875D02*
X025964Y020982D01*
X026071Y020875D02*
X026284Y020875D01*
X026391Y020982D01*
X026391Y021089D01*
X026284Y021196D01*
X026177Y021196D01*
X026284Y021196D02*
X026391Y021303D01*
X026391Y021409D01*
X026284Y021516D01*
X026071Y021516D01*
X025964Y021409D01*
X027964Y021409D02*
X028071Y021516D01*
X028284Y021516D01*
X028391Y021409D01*
X028391Y021303D01*
X027964Y020875D01*
X028391Y020875D01*
X029964Y020875D02*
X030391Y020875D01*
X030177Y020875D02*
X030177Y021516D01*
X029964Y021303D01*
X031964Y021409D02*
X031964Y020982D01*
X032391Y021409D01*
X032391Y020982D01*
X032284Y020875D01*
X032071Y020875D01*
X031964Y020982D01*
X031964Y021409D02*
X032071Y021516D01*
X032284Y021516D01*
X032391Y021409D01*
X020141Y021516D02*
X019927Y021409D01*
X019714Y021196D01*
X020034Y021196D01*
X020141Y021089D01*
X020141Y020982D01*
X020034Y020875D01*
X019821Y020875D01*
X019714Y020982D01*
X019714Y021196D01*
X018141Y021409D02*
X017714Y020982D01*
X017714Y020875D01*
X018141Y021409D02*
X018141Y021516D01*
X017714Y021516D01*
X013684Y017595D02*
X013184Y017595D01*
X012934Y017345D01*
X012684Y017595D01*
X012184Y017595D01*
X011934Y017345D01*
X011684Y017595D01*
X011184Y017595D01*
X010934Y017345D01*
X010684Y017595D01*
X010184Y017595D01*
X009934Y017345D01*
X009684Y017595D01*
X009184Y017595D01*
X008934Y017345D01*
X008934Y015845D01*
X009184Y015595D01*
X009684Y015595D01*
X009934Y015845D01*
X010184Y015595D01*
X010684Y015595D01*
X010934Y015845D01*
X011184Y015595D01*
X011684Y015595D01*
X011934Y015845D01*
X012184Y015595D01*
X012684Y015595D01*
X012934Y015845D01*
X013184Y015595D01*
X013684Y015595D01*
X013934Y015845D01*
X013934Y017345D01*
X013684Y017595D01*
X013909Y014795D02*
X018209Y014795D01*
X018226Y014793D01*
X018243Y014789D01*
X018259Y014782D01*
X018273Y014772D01*
X018286Y014759D01*
X018296Y014745D01*
X018303Y014729D01*
X018307Y014712D01*
X018309Y014695D01*
X018309Y014295D01*
X018309Y013395D02*
X018309Y012995D01*
X018307Y012978D01*
X018303Y012961D01*
X018296Y012945D01*
X018286Y012931D01*
X018273Y012918D01*
X018259Y012908D01*
X018243Y012901D01*
X018226Y012897D01*
X018209Y012895D01*
X013909Y012895D01*
X013892Y012897D01*
X013875Y012901D01*
X013859Y012908D01*
X013845Y012918D01*
X013832Y012931D01*
X013822Y012945D01*
X013815Y012961D01*
X013811Y012978D01*
X013809Y012995D01*
X013809Y013395D01*
X013809Y014295D02*
X013809Y014695D01*
X013811Y014712D01*
X013815Y014729D01*
X013822Y014745D01*
X013832Y014759D01*
X013845Y014772D01*
X013859Y014782D01*
X013875Y014789D01*
X013892Y014793D01*
X013909Y014795D01*
X015809Y014095D02*
X015809Y013845D01*
X015809Y013595D01*
X015959Y013595D02*
X016159Y013595D01*
X016159Y014095D01*
X015959Y014095D01*
X015959Y013595D01*
X016309Y013595D02*
X016309Y013845D01*
X016309Y014095D01*
X013309Y011720D02*
X013059Y011970D01*
X012559Y011970D01*
X012309Y011720D01*
X012059Y011970D01*
X011559Y011970D01*
X011309Y011720D01*
X011059Y011970D01*
X010559Y011970D01*
X010309Y011720D01*
X010309Y011220D01*
X010559Y010970D01*
X011059Y010970D01*
X011309Y011220D01*
X011559Y010970D01*
X012059Y010970D01*
X012309Y011220D01*
X012559Y010970D01*
X013059Y010970D01*
X013309Y011220D01*
X013309Y011720D01*
X013989Y011029D02*
X014202Y011029D01*
X014096Y011029D02*
X014096Y010388D01*
X014202Y010388D02*
X013989Y010388D01*
X014419Y010495D02*
X014525Y010388D01*
X014739Y010388D01*
X014846Y010495D01*
X015063Y010388D02*
X015490Y010388D01*
X015277Y010388D02*
X015277Y011029D01*
X015063Y010815D01*
X014846Y010922D02*
X014739Y011029D01*
X014525Y011029D01*
X014419Y010922D01*
X014419Y010495D01*
X013309Y010220D02*
X013309Y009720D01*
X013059Y009470D01*
X012559Y009470D01*
X012309Y009720D01*
X012059Y009470D01*
X011559Y009470D01*
X011309Y009720D01*
X011059Y009470D01*
X010559Y009470D01*
X010309Y009720D01*
X010309Y010220D01*
X010559Y010470D01*
X011059Y010470D01*
X011309Y010220D01*
X011559Y010470D01*
X012059Y010470D01*
X012309Y010220D01*
X012559Y010470D01*
X013059Y010470D01*
X013309Y010220D01*
X010494Y013160D02*
X010174Y013160D01*
X010174Y013380D01*
X010174Y014060D02*
X010174Y014280D01*
X010494Y014280D01*
X004994Y010530D02*
X004994Y010210D01*
X004774Y010210D01*
X004094Y010210D02*
X003874Y010210D01*
X003874Y010530D01*
X002384Y010545D02*
X002384Y010345D01*
X002384Y010545D02*
X002184Y010545D01*
X001684Y010545D02*
X001484Y010545D01*
X001484Y010345D01*
X001484Y009845D02*
X001484Y009645D01*
X001684Y009645D01*
X001684Y009545D02*
X001484Y009545D01*
X001484Y009345D01*
X001484Y008845D02*
X001484Y008645D01*
X001684Y008645D01*
X001684Y008545D02*
X001484Y008545D01*
X001484Y008345D01*
X001484Y007845D02*
X001484Y007645D01*
X001684Y007645D01*
X002184Y007645D02*
X002384Y007645D01*
X002384Y007845D01*
X002384Y008345D02*
X002384Y008545D01*
X002184Y008545D01*
X002184Y008645D02*
X002384Y008645D01*
X002384Y008845D01*
X002384Y009345D02*
X002384Y009545D01*
X002184Y009545D01*
X002184Y009645D02*
X002384Y009645D01*
X002384Y009845D01*
D13*
X001194Y009840D02*
X000947Y009840D01*
X000824Y009964D01*
X000947Y010087D01*
X001194Y010087D01*
X001194Y010209D02*
X001194Y010455D01*
X001009Y010455D01*
X001071Y010332D01*
X001071Y010270D01*
X001009Y010209D01*
X000886Y010209D01*
X000824Y010270D01*
X000824Y010394D01*
X000886Y010455D01*
X000886Y009455D02*
X000824Y009394D01*
X000824Y009270D01*
X000886Y009209D01*
X000947Y009209D01*
X001009Y009270D01*
X001009Y009455D01*
X000886Y009455D01*
X001009Y009455D02*
X001132Y009332D01*
X001194Y009209D01*
X001194Y009087D02*
X000947Y009087D01*
X000824Y008964D01*
X000947Y008840D01*
X001194Y008840D01*
X001132Y008580D02*
X000886Y008580D01*
X000824Y008519D01*
X000824Y008395D01*
X000886Y008334D01*
X001009Y008334D01*
X001009Y008457D01*
X001132Y008334D02*
X001194Y008395D01*
X001194Y008519D01*
X001132Y008580D01*
X001194Y008212D02*
X000824Y008212D01*
X000824Y007965D02*
X001194Y007965D01*
X001194Y007844D02*
X001194Y007659D01*
X001132Y007597D01*
X000886Y007597D01*
X000824Y007659D01*
X000824Y007844D01*
X001194Y007844D01*
X001194Y008212D02*
X000824Y007965D01*
X003143Y007144D02*
X003143Y006897D01*
X003205Y006835D01*
X003328Y006835D01*
X003390Y006897D01*
X003390Y007144D02*
X003328Y007206D01*
X003205Y007206D01*
X003143Y007144D01*
X007081Y010959D02*
X007204Y010835D01*
X007327Y010959D01*
X007327Y011206D01*
X007081Y011206D02*
X007081Y010959D01*
X009197Y012610D02*
X009197Y012981D01*
X009074Y012981D02*
X009321Y012981D01*
X009442Y012981D02*
X009689Y012610D01*
X009442Y012610D02*
X009689Y012981D01*
X010179Y012981D02*
X010364Y012981D01*
X010426Y012919D01*
X010426Y012796D01*
X010364Y012734D01*
X010179Y012734D01*
X010179Y012610D02*
X010179Y012981D01*
X010547Y012857D02*
X010609Y012857D01*
X010609Y012610D01*
X010634Y012606D02*
X010696Y012544D01*
X010696Y012421D01*
X010634Y012359D01*
X010449Y012359D01*
X010572Y012359D02*
X010696Y012235D01*
X010817Y012235D02*
X011064Y012606D01*
X010817Y012606D02*
X011064Y012235D01*
X011554Y012235D02*
X011554Y012606D01*
X011739Y012606D01*
X011801Y012544D01*
X011801Y012421D01*
X011739Y012359D01*
X011554Y012359D01*
X011922Y012482D02*
X011984Y012482D01*
X011984Y012235D01*
X011922Y012235D02*
X012046Y012235D01*
X011984Y012606D02*
X011984Y012668D01*
X010671Y012610D02*
X010547Y012610D01*
X010634Y012606D02*
X010449Y012606D01*
X010449Y012235D01*
X010609Y012981D02*
X010609Y013043D01*
X007316Y016485D02*
X007439Y016609D01*
X007439Y016856D01*
X007192Y016856D02*
X007192Y016609D01*
X007316Y016485D01*
X007071Y016547D02*
X007009Y016485D01*
X006886Y016485D01*
X006824Y016547D01*
X006824Y016671D02*
X006947Y016732D01*
X007009Y016732D01*
X007071Y016671D01*
X007071Y016547D01*
X006824Y016671D02*
X006824Y016856D01*
X007071Y016856D01*
X020744Y012705D02*
X020744Y012458D01*
X020805Y012396D01*
X020929Y012396D01*
X020990Y012458D01*
X021112Y012396D02*
X021359Y012396D01*
X021235Y012396D02*
X021235Y012767D01*
X021112Y012643D01*
X020990Y012705D02*
X020929Y012767D01*
X020805Y012767D01*
X020744Y012705D01*
X021480Y012705D02*
X021542Y012767D01*
X021665Y012767D01*
X021727Y012705D01*
X021727Y012643D01*
X021665Y012582D01*
X021727Y012520D01*
X021727Y012458D01*
X021665Y012396D01*
X021542Y012396D01*
X021480Y012458D01*
X021604Y012582D02*
X021665Y012582D01*
X023190Y009706D02*
X023190Y009512D01*
X023287Y009415D01*
X023383Y009512D01*
X023383Y009706D01*
X023485Y009657D02*
X023485Y009464D01*
X023533Y009415D01*
X023630Y009415D01*
X023678Y009464D01*
X023779Y009464D02*
X023828Y009415D01*
X023924Y009415D01*
X023973Y009464D01*
X023973Y009657D02*
X023924Y009706D01*
X023828Y009706D01*
X023779Y009657D01*
X023779Y009464D01*
X023678Y009657D02*
X023630Y009706D01*
X023533Y009706D01*
X023485Y009657D01*
X023533Y008706D02*
X023485Y008657D01*
X023485Y008464D01*
X023533Y008415D01*
X023630Y008415D01*
X023678Y008464D01*
X023779Y008415D02*
X023973Y008415D01*
X023779Y008415D02*
X023779Y008706D01*
X023678Y008657D02*
X023630Y008706D01*
X023533Y008706D01*
X023383Y008657D02*
X023335Y008706D01*
X023238Y008706D01*
X023190Y008657D01*
X023190Y008609D01*
X023238Y008561D01*
X023335Y008561D01*
X023383Y008512D01*
X023383Y008464D01*
X023335Y008415D01*
X023238Y008415D01*
X023190Y008464D01*
X023238Y007706D02*
X023190Y007657D01*
X023190Y007609D01*
X023238Y007561D01*
X023335Y007561D01*
X023383Y007512D01*
X023383Y007464D01*
X023335Y007415D01*
X023238Y007415D01*
X023190Y007464D01*
X023238Y007706D02*
X023335Y007706D01*
X023383Y007657D01*
X023485Y007706D02*
X023630Y007706D01*
X023678Y007657D01*
X023678Y007464D01*
X023630Y007415D01*
X023485Y007415D01*
X023485Y007706D01*
X023779Y007609D02*
X023779Y007415D01*
X023779Y007561D02*
X023973Y007561D01*
X023973Y007609D02*
X023973Y007415D01*
X023973Y007609D02*
X023876Y007706D01*
X023779Y007609D01*
X023779Y006706D02*
X023779Y006657D01*
X023876Y006561D01*
X023876Y006415D01*
X023876Y006561D02*
X023973Y006657D01*
X023973Y006706D01*
X023678Y006657D02*
X023678Y006561D01*
X023630Y006512D01*
X023485Y006512D01*
X023581Y006512D02*
X023678Y006415D01*
X023485Y006415D02*
X023485Y006706D01*
X023630Y006706D01*
X023678Y006657D01*
X023383Y006657D02*
X023383Y006464D01*
X023335Y006415D01*
X023190Y006415D01*
X023190Y006706D01*
X023335Y006706D01*
X023383Y006657D01*
X023335Y005706D02*
X023238Y005706D01*
X023190Y005657D01*
X023190Y005464D01*
X023238Y005415D01*
X023335Y005415D01*
X023383Y005464D01*
X023383Y005561D01*
X023287Y005561D01*
X023383Y005657D02*
X023335Y005706D01*
X023485Y005706D02*
X023678Y005415D01*
X023678Y005706D01*
X023779Y005706D02*
X023924Y005706D01*
X023973Y005657D01*
X023973Y005464D01*
X023924Y005415D01*
X023779Y005415D01*
X023779Y005706D01*
X023485Y005706D02*
X023485Y005415D01*
X020439Y004106D02*
X020439Y003859D01*
X020316Y003735D01*
X020192Y003859D01*
X020192Y004106D01*
X020071Y004106D02*
X019947Y004044D01*
X019824Y003921D01*
X020009Y003921D01*
X020071Y003859D01*
X020071Y003797D01*
X020009Y003735D01*
X019886Y003735D01*
X019824Y003797D01*
X019824Y003921D01*
X026424Y009924D02*
X026486Y009862D01*
X026609Y009862D01*
X026671Y009924D01*
X026793Y009862D02*
X027039Y009862D01*
X026916Y009862D02*
X026916Y010232D01*
X026793Y010109D01*
X026671Y010171D02*
X026609Y010232D01*
X026486Y010232D01*
X026424Y010171D01*
X026424Y009924D01*
X027161Y009924D02*
X027161Y009985D01*
X027223Y010047D01*
X027346Y010047D01*
X027408Y009985D01*
X027408Y009924D01*
X027346Y009862D01*
X027223Y009862D01*
X027161Y009924D01*
X027223Y010047D02*
X027161Y010109D01*
X027161Y010171D01*
X027223Y010232D01*
X027346Y010232D01*
X027408Y010171D01*
X027408Y010109D01*
X027346Y010047D01*
X030174Y007358D02*
X030236Y007420D01*
X030359Y007420D01*
X030421Y007358D01*
X030543Y007296D02*
X030666Y007420D01*
X030666Y007049D01*
X030543Y007049D02*
X030789Y007049D01*
X030911Y007235D02*
X031158Y007235D01*
X031096Y007420D02*
X031096Y007049D01*
X030911Y007235D02*
X031096Y007420D01*
X030421Y007111D02*
X030359Y007049D01*
X030236Y007049D01*
X030174Y007111D01*
X030174Y007358D01*
X031486Y005982D02*
X031424Y005921D01*
X031424Y005674D01*
X031486Y005612D01*
X031609Y005612D01*
X031671Y005674D01*
X031793Y005612D02*
X032039Y005612D01*
X031916Y005612D02*
X031916Y005982D01*
X031793Y005859D01*
X031671Y005921D02*
X031609Y005982D01*
X031486Y005982D01*
X032161Y005982D02*
X032161Y005797D01*
X032284Y005859D01*
X032346Y005859D01*
X032408Y005797D01*
X032408Y005674D01*
X032346Y005612D01*
X032223Y005612D01*
X032161Y005674D01*
X032161Y005982D02*
X032408Y005982D01*
X033174Y006235D02*
X033174Y006421D01*
X033235Y006482D01*
X033359Y006482D01*
X033420Y006421D01*
X033420Y006235D01*
X033544Y006235D02*
X033174Y006235D01*
X033420Y006359D02*
X033544Y006482D01*
X033482Y007360D02*
X033235Y007360D01*
X033174Y007422D01*
X033174Y007546D01*
X033235Y007607D01*
X033359Y007607D02*
X033359Y007484D01*
X033359Y007607D02*
X033482Y007607D01*
X033544Y007546D01*
X033544Y007422D01*
X033482Y007360D01*
X033544Y007729D02*
X033174Y007729D01*
X033544Y007976D01*
X033174Y007976D01*
X033174Y008097D02*
X033174Y008282D01*
X033235Y008344D01*
X033482Y008344D01*
X033544Y008282D01*
X033544Y008097D01*
X033174Y008097D01*
X033174Y008860D02*
X033544Y008860D01*
X033359Y008860D02*
X033359Y009107D01*
X033420Y009229D02*
X033420Y009414D01*
X033359Y009476D01*
X033235Y009476D01*
X033174Y009414D01*
X033174Y009229D01*
X033544Y009229D01*
X033544Y009107D02*
X033174Y009107D01*
X033174Y012423D02*
X033544Y012423D01*
X033544Y012670D01*
X033544Y012791D02*
X033174Y012791D01*
X033174Y013038D01*
X033174Y013160D02*
X033174Y013345D01*
X033235Y013406D01*
X033482Y013406D01*
X033544Y013345D01*
X033544Y013160D01*
X033174Y013160D01*
X033359Y012915D02*
X033359Y012791D01*
X033544Y012791D02*
X033544Y013038D01*
X033482Y013896D02*
X033544Y013958D01*
X033544Y014081D01*
X033482Y014143D01*
X033420Y014143D01*
X033359Y014081D01*
X033359Y013958D01*
X033297Y013896D01*
X033235Y013896D01*
X033174Y013958D01*
X033174Y014081D01*
X033235Y014143D01*
X033174Y014265D02*
X033174Y014511D01*
X033174Y014633D02*
X033174Y014818D01*
X033235Y014880D01*
X033359Y014880D01*
X033420Y014818D01*
X033420Y014633D01*
X033420Y014756D02*
X033544Y014880D01*
X033544Y015001D02*
X033544Y015125D01*
X033544Y015063D02*
X033174Y015063D01*
X033174Y015001D02*
X033174Y015125D01*
X033174Y015247D02*
X033174Y015432D01*
X033235Y015494D01*
X033359Y015494D01*
X033420Y015432D01*
X033420Y015247D01*
X033544Y015247D02*
X033174Y015247D01*
X033174Y014633D02*
X033544Y014633D01*
X033544Y014388D02*
X033174Y014388D01*
X031804Y015546D02*
X031681Y015423D01*
X031557Y015546D01*
X031557Y015793D01*
X031436Y015732D02*
X031436Y015670D01*
X031374Y015608D01*
X031436Y015546D01*
X031436Y015485D01*
X031374Y015423D01*
X031251Y015423D01*
X031189Y015485D01*
X031066Y015485D02*
X031066Y015423D01*
X031005Y015423D01*
X031005Y015485D01*
X031066Y015485D01*
X030883Y015485D02*
X030822Y015423D01*
X030698Y015423D01*
X030636Y015485D01*
X030760Y015608D02*
X030822Y015608D01*
X030883Y015546D01*
X030883Y015485D01*
X030822Y015608D02*
X030883Y015670D01*
X030883Y015732D01*
X030822Y015793D01*
X030698Y015793D01*
X030636Y015732D01*
X031189Y015732D02*
X031251Y015793D01*
X031374Y015793D01*
X031436Y015732D01*
X031374Y015608D02*
X031312Y015608D01*
X031804Y015546D02*
X031804Y015793D01*
X033544Y005482D02*
X033544Y005235D01*
X033174Y005235D01*
X033235Y004719D02*
X033174Y004657D01*
X033174Y004472D01*
X033544Y004472D01*
X033544Y004657D01*
X033482Y004719D01*
X033235Y004719D01*
X033174Y004351D02*
X033544Y004351D01*
X033174Y004104D01*
X033544Y004104D01*
X033482Y003982D02*
X033359Y003982D01*
X033359Y003859D01*
X033482Y003982D02*
X033544Y003921D01*
X033544Y003797D01*
X033482Y003735D01*
X033235Y003735D01*
X033174Y003797D01*
X033174Y003921D01*
X033235Y003982D01*
D14*
X015748Y007021D02*
X015750Y007041D01*
X015755Y007061D01*
X015765Y007079D01*
X015777Y007096D01*
X015792Y007110D01*
X015810Y007120D01*
X015829Y007128D01*
X015849Y007132D01*
X015869Y007132D01*
X015889Y007128D01*
X015908Y007120D01*
X015926Y007110D01*
X015941Y007096D01*
X015953Y007079D01*
X015963Y007061D01*
X015968Y007041D01*
X015970Y007021D01*
X015968Y007001D01*
X015963Y006981D01*
X015953Y006963D01*
X015941Y006946D01*
X015926Y006932D01*
X015908Y006922D01*
X015889Y006914D01*
X015869Y006910D01*
X015849Y006910D01*
X015829Y006914D01*
X015810Y006922D01*
X015792Y006932D01*
X015777Y006946D01*
X015765Y006963D01*
X015755Y006981D01*
X015750Y007001D01*
X015748Y007021D01*
X017434Y020095D02*
X017934Y020595D01*
X018434Y020095D01*
X019434Y020095D02*
X019934Y020595D01*
X020434Y020095D01*
X021434Y020095D02*
X021934Y020595D01*
X022434Y020095D01*
X023434Y020095D02*
X023934Y020595D01*
X024434Y020095D01*
X025684Y020095D02*
X026184Y020595D01*
X026684Y020095D01*
X027684Y020095D02*
X028184Y020595D01*
X028684Y020095D01*
X029684Y020095D02*
X030184Y020595D01*
X030684Y020095D01*
X031684Y020095D02*
X032184Y020595D01*
X032684Y020095D01*
D15*
X031182Y017220D02*
X031184Y017279D01*
X031190Y017337D01*
X031200Y017395D01*
X031213Y017452D01*
X031231Y017508D01*
X031252Y017562D01*
X031276Y017616D01*
X031304Y017667D01*
X031336Y017716D01*
X031371Y017764D01*
X031409Y017808D01*
X031449Y017850D01*
X031493Y017890D01*
X031539Y017926D01*
X031587Y017959D01*
X031638Y017989D01*
X031690Y018016D01*
X031744Y018038D01*
X031799Y018058D01*
X031856Y018073D01*
X031913Y018085D01*
X031971Y018093D01*
X032030Y018097D01*
X032088Y018097D01*
X032147Y018093D01*
X032205Y018085D01*
X032262Y018073D01*
X032319Y018058D01*
X032374Y018038D01*
X032428Y018016D01*
X032480Y017989D01*
X032531Y017959D01*
X032579Y017926D01*
X032625Y017890D01*
X032669Y017850D01*
X032709Y017808D01*
X032747Y017764D01*
X032782Y017716D01*
X032814Y017667D01*
X032842Y017616D01*
X032866Y017562D01*
X032887Y017508D01*
X032905Y017452D01*
X032918Y017395D01*
X032928Y017337D01*
X032934Y017279D01*
X032936Y017220D01*
X032934Y017161D01*
X032928Y017103D01*
X032918Y017045D01*
X032905Y016988D01*
X032887Y016932D01*
X032866Y016878D01*
X032842Y016824D01*
X032814Y016773D01*
X032782Y016724D01*
X032747Y016676D01*
X032709Y016632D01*
X032669Y016590D01*
X032625Y016550D01*
X032579Y016514D01*
X032531Y016481D01*
X032480Y016451D01*
X032428Y016424D01*
X032374Y016402D01*
X032319Y016382D01*
X032262Y016367D01*
X032205Y016355D01*
X032147Y016347D01*
X032088Y016343D01*
X032030Y016343D01*
X031971Y016347D01*
X031913Y016355D01*
X031856Y016367D01*
X031799Y016382D01*
X031744Y016402D01*
X031690Y016424D01*
X031638Y016451D01*
X031587Y016481D01*
X031539Y016514D01*
X031493Y016550D01*
X031449Y016590D01*
X031409Y016632D01*
X031371Y016676D01*
X031336Y016724D01*
X031304Y016773D01*
X031276Y016824D01*
X031252Y016878D01*
X031231Y016932D01*
X031213Y016988D01*
X031200Y017045D01*
X031190Y017103D01*
X031184Y017161D01*
X031182Y017220D01*
X009619Y007220D02*
X009621Y007279D01*
X009627Y007337D01*
X009637Y007395D01*
X009650Y007452D01*
X009668Y007508D01*
X009689Y007562D01*
X009713Y007616D01*
X009741Y007667D01*
X009773Y007716D01*
X009808Y007764D01*
X009846Y007808D01*
X009886Y007850D01*
X009930Y007890D01*
X009976Y007926D01*
X010024Y007959D01*
X010075Y007989D01*
X010127Y008016D01*
X010181Y008038D01*
X010236Y008058D01*
X010293Y008073D01*
X010350Y008085D01*
X010408Y008093D01*
X010467Y008097D01*
X010525Y008097D01*
X010584Y008093D01*
X010642Y008085D01*
X010699Y008073D01*
X010756Y008058D01*
X010811Y008038D01*
X010865Y008016D01*
X010917Y007989D01*
X010968Y007959D01*
X011016Y007926D01*
X011062Y007890D01*
X011106Y007850D01*
X011146Y007808D01*
X011184Y007764D01*
X011219Y007716D01*
X011251Y007667D01*
X011279Y007616D01*
X011303Y007562D01*
X011324Y007508D01*
X011342Y007452D01*
X011355Y007395D01*
X011365Y007337D01*
X011371Y007279D01*
X011373Y007220D01*
X011371Y007161D01*
X011365Y007103D01*
X011355Y007045D01*
X011342Y006988D01*
X011324Y006932D01*
X011303Y006878D01*
X011279Y006824D01*
X011251Y006773D01*
X011219Y006724D01*
X011184Y006676D01*
X011146Y006632D01*
X011106Y006590D01*
X011062Y006550D01*
X011016Y006514D01*
X010968Y006481D01*
X010917Y006451D01*
X010865Y006424D01*
X010811Y006402D01*
X010756Y006382D01*
X010699Y006367D01*
X010642Y006355D01*
X010584Y006347D01*
X010525Y006343D01*
X010467Y006343D01*
X010408Y006347D01*
X010350Y006355D01*
X010293Y006367D01*
X010236Y006382D01*
X010181Y006402D01*
X010127Y006424D01*
X010075Y006451D01*
X010024Y006481D01*
X009976Y006514D01*
X009930Y006550D01*
X009886Y006590D01*
X009846Y006632D01*
X009808Y006676D01*
X009773Y006724D01*
X009741Y006773D01*
X009713Y006824D01*
X009689Y006878D01*
X009668Y006932D01*
X009650Y006988D01*
X009637Y007045D01*
X009627Y007103D01*
X009621Y007161D01*
X009619Y007220D01*
D16*
X014040Y013389D02*
X014056Y013400D01*
X014055Y013400D02*
X014088Y013355D01*
X014123Y013313D01*
X014162Y013274D01*
X014202Y013237D01*
X014246Y013204D01*
X014291Y013173D01*
X014339Y013146D01*
X014388Y013122D01*
X014439Y013101D01*
X014492Y013084D01*
X014545Y013071D01*
X014599Y013062D01*
X014654Y013056D01*
X014709Y013054D01*
X014709Y013036D01*
X014709Y013035D01*
X014652Y013037D01*
X014596Y013043D01*
X014541Y013053D01*
X014486Y013066D01*
X014433Y013083D01*
X014381Y013104D01*
X014330Y013129D01*
X014281Y013157D01*
X014235Y013188D01*
X014190Y013223D01*
X014148Y013260D01*
X014109Y013301D01*
X014073Y013344D01*
X014040Y013389D01*
X014040Y013390D01*
X014074Y013344D01*
X014110Y013301D01*
X014149Y013261D01*
X014191Y013224D01*
X014235Y013189D01*
X014282Y013158D01*
X014331Y013130D01*
X014381Y013105D01*
X014433Y013084D01*
X014487Y013067D01*
X014541Y013054D01*
X014597Y013044D01*
X014652Y013038D01*
X014709Y013036D01*
X014709Y013037D01*
X014652Y013039D01*
X014597Y013045D01*
X014541Y013055D01*
X014487Y013068D01*
X014434Y013085D01*
X014382Y013106D01*
X014331Y013131D01*
X014282Y013159D01*
X014236Y013190D01*
X014192Y013224D01*
X014150Y013262D01*
X014111Y013302D01*
X014074Y013345D01*
X014041Y013390D01*
X014042Y013391D01*
X014075Y013345D01*
X014111Y013303D01*
X014150Y013263D01*
X014192Y013225D01*
X014236Y013191D01*
X014283Y013160D01*
X014332Y013132D01*
X014382Y013107D01*
X014434Y013086D01*
X014487Y013069D01*
X014542Y013056D01*
X014597Y013046D01*
X014653Y013040D01*
X014709Y013038D01*
X014709Y013039D01*
X014653Y013041D01*
X014597Y013047D01*
X014542Y013057D01*
X014488Y013070D01*
X014434Y013087D01*
X014382Y013108D01*
X014332Y013133D01*
X014284Y013160D01*
X014237Y013192D01*
X014193Y013226D01*
X014151Y013263D01*
X014112Y013303D01*
X014076Y013346D01*
X014043Y013391D01*
X014044Y013392D01*
X014077Y013347D01*
X014113Y013304D01*
X014152Y013264D01*
X014193Y013227D01*
X014238Y013192D01*
X014284Y013161D01*
X014333Y013133D01*
X014383Y013109D01*
X014435Y013088D01*
X014488Y013071D01*
X014542Y013058D01*
X014597Y013048D01*
X014653Y013042D01*
X014709Y013040D01*
X014709Y013041D01*
X014653Y013043D01*
X014597Y013049D01*
X014542Y013058D01*
X014488Y013072D01*
X014435Y013089D01*
X014383Y013110D01*
X014333Y013134D01*
X014285Y013162D01*
X014238Y013193D01*
X014194Y013227D01*
X014153Y013265D01*
X014114Y013305D01*
X014078Y013347D01*
X014045Y013392D01*
X014045Y013393D01*
X014078Y013348D01*
X014114Y013305D01*
X014153Y013265D01*
X014195Y013228D01*
X014239Y013194D01*
X014285Y013163D01*
X014333Y013135D01*
X014384Y013111D01*
X014435Y013090D01*
X014488Y013073D01*
X014542Y013059D01*
X014597Y013050D01*
X014653Y013044D01*
X014709Y013042D01*
X014709Y013043D01*
X014653Y013045D01*
X014597Y013051D01*
X014543Y013060D01*
X014489Y013074D01*
X014436Y013091D01*
X014384Y013112D01*
X014334Y013136D01*
X014286Y013164D01*
X014239Y013195D01*
X014195Y013229D01*
X014154Y013266D01*
X014115Y013306D01*
X014079Y013349D01*
X014046Y013393D01*
X014047Y013394D01*
X014080Y013349D01*
X014116Y013307D01*
X014155Y013267D01*
X014196Y013230D01*
X014240Y013196D01*
X014286Y013165D01*
X014334Y013137D01*
X014384Y013113D01*
X014436Y013092D01*
X014489Y013075D01*
X014543Y013061D01*
X014598Y013052D01*
X014653Y013046D01*
X014709Y013044D01*
X014709Y013045D01*
X014653Y013047D01*
X014598Y013053D01*
X014543Y013062D01*
X014489Y013076D01*
X014436Y013093D01*
X014385Y013114D01*
X014335Y013138D01*
X014287Y013166D01*
X014241Y013196D01*
X014197Y013231D01*
X014155Y013268D01*
X014117Y013307D01*
X014081Y013350D01*
X014048Y013395D01*
X014049Y013395D01*
X014081Y013350D01*
X014117Y013308D01*
X014156Y013268D01*
X014197Y013231D01*
X014241Y013197D01*
X014287Y013166D01*
X014335Y013139D01*
X014385Y013115D01*
X014437Y013094D01*
X014489Y013077D01*
X014543Y013063D01*
X014598Y013054D01*
X014653Y013048D01*
X014709Y013046D01*
X014709Y013047D01*
X014653Y013049D01*
X014598Y013055D01*
X014543Y013064D01*
X014490Y013078D01*
X014437Y013095D01*
X014386Y013115D01*
X014336Y013140D01*
X014288Y013167D01*
X014242Y013198D01*
X014198Y013232D01*
X014157Y013269D01*
X014118Y013309D01*
X014082Y013351D01*
X014049Y013396D01*
X014050Y013396D01*
X014083Y013352D01*
X014119Y013309D01*
X014157Y013270D01*
X014199Y013233D01*
X014242Y013199D01*
X014288Y013168D01*
X014336Y013141D01*
X014386Y013116D01*
X014437Y013096D01*
X014490Y013079D01*
X014544Y013065D01*
X014598Y013056D01*
X014653Y013050D01*
X014709Y013048D01*
X014709Y013049D01*
X014653Y013051D01*
X014598Y013057D01*
X014544Y013066D01*
X014490Y013080D01*
X014438Y013097D01*
X014386Y013117D01*
X014337Y013141D01*
X014289Y013169D01*
X014243Y013200D01*
X014199Y013234D01*
X014158Y013270D01*
X014120Y013310D01*
X014084Y013352D01*
X014051Y013397D01*
X014052Y013397D01*
X014085Y013353D01*
X014120Y013311D01*
X014159Y013271D01*
X014200Y013234D01*
X014243Y013201D01*
X014289Y013170D01*
X014337Y013142D01*
X014387Y013118D01*
X014438Y013098D01*
X014491Y013081D01*
X014544Y013067D01*
X014598Y013058D01*
X014653Y013052D01*
X014709Y013050D01*
X014709Y013051D01*
X014653Y013053D01*
X014599Y013059D01*
X014544Y013068D01*
X014491Y013082D01*
X014438Y013099D01*
X014387Y013119D01*
X014338Y013143D01*
X014290Y013171D01*
X014244Y013201D01*
X014201Y013235D01*
X014159Y013272D01*
X014121Y013311D01*
X014085Y013354D01*
X014053Y013398D01*
X014054Y013399D01*
X014086Y013354D01*
X014122Y013312D01*
X014160Y013273D01*
X014201Y013236D01*
X014245Y013202D01*
X014290Y013171D01*
X014338Y013144D01*
X014388Y013120D01*
X014439Y013099D01*
X014491Y013083D01*
X014545Y013069D01*
X014599Y013060D01*
X014653Y013054D01*
X014709Y013052D01*
X014709Y013053D01*
X014654Y013055D01*
X014599Y013061D01*
X014545Y013070D01*
X014491Y013083D01*
X014439Y013100D01*
X014388Y013121D01*
X014339Y013145D01*
X014291Y013172D01*
X014245Y013203D01*
X014202Y013237D01*
X014161Y013273D01*
X014122Y013313D01*
X014087Y013355D01*
X014054Y013399D01*
X014488Y013386D02*
X014496Y013403D01*
X014495Y013403D02*
X014529Y013388D01*
X014564Y013376D01*
X014599Y013366D01*
X014635Y013360D01*
X014672Y013355D01*
X014709Y013354D01*
X014709Y013336D01*
X014709Y013335D01*
X014670Y013336D01*
X014632Y013341D01*
X014595Y013348D01*
X014558Y013358D01*
X014522Y013370D01*
X014487Y013386D01*
X014488Y013387D01*
X014522Y013371D01*
X014558Y013359D01*
X014595Y013349D01*
X014633Y013342D01*
X014670Y013337D01*
X014709Y013336D01*
X014709Y013337D01*
X014671Y013338D01*
X014633Y013343D01*
X014595Y013350D01*
X014559Y013360D01*
X014523Y013372D01*
X014488Y013388D01*
X014523Y013373D01*
X014559Y013361D01*
X014596Y013351D01*
X014633Y013344D01*
X014671Y013339D01*
X014709Y013338D01*
X014709Y013339D01*
X014671Y013340D01*
X014633Y013345D01*
X014596Y013352D01*
X014559Y013362D01*
X014524Y013374D01*
X014489Y013389D01*
X014489Y013390D01*
X014524Y013375D01*
X014560Y013363D01*
X014596Y013353D01*
X014633Y013346D01*
X014671Y013341D01*
X014709Y013340D01*
X014709Y013341D01*
X014671Y013342D01*
X014633Y013347D01*
X014596Y013354D01*
X014560Y013364D01*
X014524Y013376D01*
X014490Y013391D01*
X014490Y013392D01*
X014525Y013377D01*
X014560Y013365D01*
X014597Y013355D01*
X014634Y013348D01*
X014671Y013343D01*
X014709Y013342D01*
X014709Y013343D01*
X014671Y013344D01*
X014634Y013349D01*
X014597Y013356D01*
X014560Y013365D01*
X014525Y013378D01*
X014491Y013393D01*
X014491Y013394D01*
X014525Y013379D01*
X014561Y013366D01*
X014597Y013357D01*
X014634Y013350D01*
X014671Y013345D01*
X014709Y013344D01*
X014709Y013345D01*
X014671Y013346D01*
X014634Y013351D01*
X014597Y013358D01*
X014561Y013367D01*
X014526Y013380D01*
X014492Y013395D01*
X014492Y013396D01*
X014526Y013381D01*
X014561Y013368D01*
X014597Y013359D01*
X014634Y013352D01*
X014671Y013347D01*
X014709Y013346D01*
X014709Y013347D01*
X014671Y013348D01*
X014634Y013353D01*
X014598Y013360D01*
X014562Y013369D01*
X014527Y013382D01*
X014492Y013397D01*
X014493Y013397D01*
X014527Y013383D01*
X014562Y013370D01*
X014598Y013361D01*
X014634Y013354D01*
X014671Y013349D01*
X014709Y013348D01*
X014709Y013349D01*
X014671Y013350D01*
X014635Y013355D01*
X014598Y013362D01*
X014562Y013371D01*
X014527Y013384D01*
X014493Y013398D01*
X014494Y013399D01*
X014528Y013384D01*
X014563Y013372D01*
X014598Y013363D01*
X014635Y013356D01*
X014671Y013351D01*
X014709Y013350D01*
X014709Y013351D01*
X014672Y013352D01*
X014635Y013357D01*
X014599Y013364D01*
X014563Y013373D01*
X014528Y013385D01*
X014494Y013400D01*
X014495Y013401D01*
X014528Y013386D01*
X014563Y013374D01*
X014599Y013364D01*
X014635Y013358D01*
X014672Y013353D01*
X014709Y013352D01*
X014709Y013353D01*
X014672Y013354D01*
X014635Y013359D01*
X014599Y013365D01*
X014563Y013375D01*
X014529Y013387D01*
X014495Y013402D01*
X014709Y014354D02*
X014709Y014335D01*
X014709Y014336D02*
X014672Y014335D01*
X014635Y014330D01*
X014599Y014324D01*
X014564Y014314D01*
X014529Y014302D01*
X014495Y014287D01*
X014488Y014304D01*
X014487Y014304D01*
X014522Y014320D01*
X014558Y014332D01*
X014595Y014342D01*
X014632Y014349D01*
X014670Y014354D01*
X014709Y014355D01*
X014709Y014354D01*
X014670Y014353D01*
X014633Y014348D01*
X014595Y014341D01*
X014558Y014331D01*
X014522Y014319D01*
X014488Y014303D01*
X014488Y014302D01*
X014523Y014318D01*
X014559Y014330D01*
X014595Y014340D01*
X014633Y014347D01*
X014671Y014352D01*
X014709Y014353D01*
X014709Y014352D01*
X014671Y014351D01*
X014633Y014346D01*
X014596Y014339D01*
X014559Y014329D01*
X014523Y014317D01*
X014488Y014302D01*
X014489Y014301D01*
X014524Y014316D01*
X014559Y014328D01*
X014596Y014338D01*
X014633Y014345D01*
X014671Y014350D01*
X014709Y014351D01*
X014709Y014350D01*
X014671Y014349D01*
X014633Y014344D01*
X014596Y014337D01*
X014560Y014327D01*
X014524Y014315D01*
X014489Y014300D01*
X014490Y014299D01*
X014524Y014314D01*
X014560Y014326D01*
X014596Y014336D01*
X014633Y014343D01*
X014671Y014348D01*
X014709Y014349D01*
X014709Y014348D01*
X014671Y014347D01*
X014634Y014342D01*
X014597Y014335D01*
X014560Y014325D01*
X014525Y014313D01*
X014490Y014298D01*
X014491Y014297D01*
X014525Y014312D01*
X014560Y014325D01*
X014597Y014334D01*
X014634Y014341D01*
X014671Y014346D01*
X014709Y014347D01*
X014709Y014346D01*
X014671Y014345D01*
X014634Y014340D01*
X014597Y014333D01*
X014561Y014324D01*
X014525Y014311D01*
X014491Y014296D01*
X014492Y014295D01*
X014526Y014310D01*
X014561Y014323D01*
X014597Y014332D01*
X014634Y014339D01*
X014671Y014344D01*
X014709Y014345D01*
X014709Y014344D01*
X014671Y014343D01*
X014634Y014338D01*
X014597Y014331D01*
X014561Y014322D01*
X014526Y014309D01*
X014492Y014294D01*
X014492Y014293D01*
X014527Y014308D01*
X014562Y014321D01*
X014598Y014330D01*
X014634Y014337D01*
X014671Y014342D01*
X014709Y014343D01*
X014709Y014342D01*
X014671Y014341D01*
X014634Y014336D01*
X014598Y014329D01*
X014562Y014320D01*
X014527Y014307D01*
X014493Y014293D01*
X014493Y014292D01*
X014527Y014306D01*
X014562Y014319D01*
X014598Y014328D01*
X014635Y014335D01*
X014671Y014340D01*
X014709Y014341D01*
X014709Y014340D01*
X014671Y014339D01*
X014635Y014334D01*
X014598Y014327D01*
X014563Y014318D01*
X014528Y014306D01*
X014494Y014291D01*
X014494Y014290D01*
X014528Y014305D01*
X014563Y014317D01*
X014599Y014326D01*
X014635Y014333D01*
X014672Y014338D01*
X014709Y014339D01*
X014709Y014338D01*
X014672Y014337D01*
X014635Y014332D01*
X014599Y014326D01*
X014563Y014316D01*
X014528Y014304D01*
X014495Y014289D01*
X014495Y014288D01*
X014529Y014303D01*
X014563Y014315D01*
X014599Y014325D01*
X014635Y014331D01*
X014672Y014336D01*
X014709Y014337D01*
X014709Y014654D02*
X014709Y014635D01*
X014708Y014636D02*
X014654Y014634D01*
X014599Y014628D01*
X014545Y014619D01*
X014492Y014606D01*
X014439Y014589D01*
X014388Y014568D01*
X014339Y014544D01*
X014291Y014517D01*
X014246Y014486D01*
X014202Y014453D01*
X014162Y014416D01*
X014123Y014377D01*
X014088Y014335D01*
X014055Y014290D01*
X014040Y014301D01*
X014073Y014346D01*
X014109Y014389D01*
X014148Y014430D01*
X014190Y014467D01*
X014235Y014502D01*
X014281Y014533D01*
X014330Y014561D01*
X014381Y014585D01*
X014433Y014606D01*
X014486Y014624D01*
X014541Y014637D01*
X014596Y014647D01*
X014652Y014653D01*
X014708Y014655D01*
X014708Y014654D01*
X014652Y014652D01*
X014596Y014646D01*
X014541Y014636D01*
X014487Y014623D01*
X014433Y014606D01*
X014381Y014585D01*
X014331Y014560D01*
X014282Y014532D01*
X014235Y014501D01*
X014191Y014466D01*
X014149Y014429D01*
X014110Y014389D01*
X014074Y014346D01*
X014040Y014300D01*
X014041Y014300D01*
X014074Y014345D01*
X014111Y014388D01*
X014150Y014428D01*
X014192Y014466D01*
X014236Y014500D01*
X014282Y014531D01*
X014331Y014559D01*
X014382Y014584D01*
X014434Y014605D01*
X014487Y014622D01*
X014541Y014635D01*
X014597Y014645D01*
X014652Y014651D01*
X014708Y014653D01*
X014708Y014652D01*
X014652Y014650D01*
X014597Y014644D01*
X014542Y014634D01*
X014487Y014621D01*
X014434Y014604D01*
X014382Y014583D01*
X014332Y014558D01*
X014283Y014530D01*
X014236Y014499D01*
X014192Y014465D01*
X014150Y014427D01*
X014111Y014387D01*
X014075Y014345D01*
X014042Y014299D01*
X014043Y014299D01*
X014076Y014344D01*
X014112Y014387D01*
X014151Y014427D01*
X014193Y014464D01*
X014237Y014498D01*
X014283Y014530D01*
X014332Y014557D01*
X014382Y014582D01*
X014434Y014603D01*
X014487Y014620D01*
X014542Y014633D01*
X014597Y014643D01*
X014653Y014649D01*
X014708Y014651D01*
X014708Y014650D01*
X014653Y014648D01*
X014597Y014642D01*
X014542Y014632D01*
X014488Y014619D01*
X014435Y014602D01*
X014383Y014581D01*
X014332Y014557D01*
X014284Y014529D01*
X014238Y014498D01*
X014193Y014463D01*
X014152Y014426D01*
X014113Y014386D01*
X014077Y014343D01*
X014044Y014298D01*
X014045Y014298D01*
X014078Y014343D01*
X014114Y014385D01*
X014152Y014425D01*
X014194Y014462D01*
X014238Y014497D01*
X014285Y014528D01*
X014333Y014556D01*
X014383Y014580D01*
X014435Y014601D01*
X014488Y014618D01*
X014542Y014632D01*
X014597Y014641D01*
X014653Y014647D01*
X014708Y014649D01*
X014708Y014648D01*
X014653Y014646D01*
X014597Y014640D01*
X014542Y014631D01*
X014488Y014617D01*
X014435Y014600D01*
X014384Y014579D01*
X014333Y014555D01*
X014285Y014527D01*
X014239Y014496D01*
X014195Y014462D01*
X014153Y014425D01*
X014114Y014385D01*
X014078Y014342D01*
X014045Y014297D01*
X014046Y014297D01*
X014079Y014341D01*
X014115Y014384D01*
X014154Y014424D01*
X014195Y014461D01*
X014239Y014495D01*
X014286Y014526D01*
X014334Y014554D01*
X014384Y014578D01*
X014436Y014599D01*
X014489Y014616D01*
X014543Y014630D01*
X014597Y014639D01*
X014653Y014645D01*
X014708Y014647D01*
X014708Y014646D01*
X014653Y014644D01*
X014598Y014638D01*
X014543Y014629D01*
X014489Y014615D01*
X014436Y014598D01*
X014384Y014577D01*
X014334Y014553D01*
X014286Y014525D01*
X014240Y014494D01*
X014196Y014460D01*
X014155Y014423D01*
X014116Y014383D01*
X014080Y014341D01*
X014047Y014296D01*
X014048Y014295D01*
X014081Y014340D01*
X014117Y014383D01*
X014155Y014422D01*
X014197Y014459D01*
X014241Y014493D01*
X014287Y014524D01*
X014335Y014552D01*
X014385Y014576D01*
X014436Y014597D01*
X014489Y014614D01*
X014543Y014628D01*
X014598Y014637D01*
X014653Y014643D01*
X014708Y014645D01*
X014708Y014644D01*
X014653Y014642D01*
X014598Y014636D01*
X014543Y014627D01*
X014489Y014613D01*
X014437Y014596D01*
X014385Y014575D01*
X014335Y014551D01*
X014287Y014524D01*
X014241Y014493D01*
X014197Y014459D01*
X014156Y014422D01*
X014117Y014382D01*
X014081Y014340D01*
X014049Y014295D01*
X014049Y014294D01*
X014082Y014339D01*
X014118Y014381D01*
X014157Y014421D01*
X014198Y014458D01*
X014242Y014492D01*
X014288Y014523D01*
X014336Y014550D01*
X014386Y014575D01*
X014437Y014595D01*
X014490Y014612D01*
X014543Y014626D01*
X014598Y014635D01*
X014653Y014641D01*
X014708Y014643D01*
X014708Y014642D01*
X014653Y014640D01*
X014598Y014634D01*
X014544Y014625D01*
X014490Y014611D01*
X014437Y014594D01*
X014386Y014574D01*
X014336Y014549D01*
X014288Y014522D01*
X014242Y014491D01*
X014199Y014457D01*
X014157Y014420D01*
X014119Y014381D01*
X014083Y014338D01*
X014050Y014294D01*
X014051Y014293D01*
X014084Y014338D01*
X014120Y014380D01*
X014158Y014420D01*
X014199Y014456D01*
X014243Y014490D01*
X014289Y014521D01*
X014337Y014549D01*
X014386Y014573D01*
X014438Y014593D01*
X014490Y014610D01*
X014544Y014624D01*
X014598Y014633D01*
X014653Y014639D01*
X014708Y014641D01*
X014708Y014640D01*
X014653Y014638D01*
X014598Y014632D01*
X014544Y014623D01*
X014491Y014609D01*
X014438Y014592D01*
X014387Y014572D01*
X014337Y014548D01*
X014289Y014520D01*
X014243Y014489D01*
X014200Y014456D01*
X014159Y014419D01*
X014120Y014379D01*
X014085Y014337D01*
X014052Y014293D01*
X014053Y014292D01*
X014085Y014336D01*
X014121Y014379D01*
X014159Y014418D01*
X014201Y014455D01*
X014244Y014489D01*
X014290Y014519D01*
X014338Y014547D01*
X014387Y014571D01*
X014438Y014591D01*
X014491Y014608D01*
X014544Y014622D01*
X014599Y014631D01*
X014653Y014637D01*
X014708Y014639D01*
X014708Y014638D01*
X014653Y014636D01*
X014599Y014630D01*
X014544Y014621D01*
X014491Y014607D01*
X014439Y014591D01*
X014388Y014570D01*
X014338Y014546D01*
X014290Y014518D01*
X014245Y014488D01*
X014201Y014454D01*
X014160Y014417D01*
X014122Y014378D01*
X014086Y014336D01*
X014054Y014291D01*
X014087Y014335D01*
X014122Y014377D01*
X014161Y014417D01*
X014202Y014453D01*
X014245Y014487D01*
X014291Y014518D01*
X014339Y014545D01*
X014388Y014569D01*
X014439Y014590D01*
X014491Y014607D01*
X014545Y014620D01*
X014599Y014629D01*
X014654Y014635D01*
X014708Y014637D01*
X017409Y013036D02*
X017409Y013055D01*
X017410Y013054D02*
X017464Y013056D01*
X017519Y013062D01*
X017573Y013071D01*
X017626Y013084D01*
X017679Y013101D01*
X017730Y013122D01*
X017779Y013146D01*
X017827Y013173D01*
X017872Y013204D01*
X017916Y013238D01*
X017957Y013274D01*
X017995Y013313D01*
X018030Y013355D01*
X018063Y013400D01*
X018078Y013390D01*
X018078Y013389D01*
X018045Y013344D01*
X018009Y013301D01*
X017970Y013260D01*
X017928Y013223D01*
X017883Y013188D01*
X017837Y013157D01*
X017788Y013129D01*
X017737Y013105D01*
X017685Y013084D01*
X017632Y013066D01*
X017577Y013053D01*
X017522Y013043D01*
X017466Y013037D01*
X017410Y013035D01*
X017410Y013036D01*
X017466Y013038D01*
X017522Y013044D01*
X017577Y013054D01*
X017631Y013067D01*
X017685Y013084D01*
X017737Y013105D01*
X017787Y013130D01*
X017836Y013158D01*
X017883Y013189D01*
X017927Y013224D01*
X017969Y013261D01*
X018008Y013301D01*
X018044Y013344D01*
X018078Y013390D01*
X018077Y013390D01*
X018044Y013345D01*
X018007Y013302D01*
X017968Y013262D01*
X017926Y013224D01*
X017882Y013190D01*
X017836Y013159D01*
X017787Y013131D01*
X017736Y013106D01*
X017684Y013085D01*
X017631Y013068D01*
X017577Y013055D01*
X017521Y013045D01*
X017466Y013039D01*
X017410Y013037D01*
X017410Y013038D01*
X017466Y013040D01*
X017521Y013046D01*
X017576Y013056D01*
X017631Y013069D01*
X017684Y013086D01*
X017736Y013107D01*
X017786Y013132D01*
X017835Y013160D01*
X017882Y013191D01*
X017926Y013225D01*
X017968Y013263D01*
X018007Y013303D01*
X018043Y013346D01*
X018076Y013391D01*
X018075Y013391D01*
X018042Y013346D01*
X018006Y013303D01*
X017967Y013263D01*
X017925Y013226D01*
X017881Y013192D01*
X017835Y013160D01*
X017786Y013133D01*
X017736Y013108D01*
X017684Y013087D01*
X017631Y013070D01*
X017576Y013057D01*
X017521Y013047D01*
X017465Y013041D01*
X017410Y013039D01*
X017410Y013040D01*
X017465Y013042D01*
X017521Y013048D01*
X017576Y013058D01*
X017630Y013071D01*
X017683Y013088D01*
X017735Y013109D01*
X017786Y013133D01*
X017834Y013161D01*
X017880Y013192D01*
X017925Y013227D01*
X017966Y013264D01*
X018005Y013304D01*
X018041Y013347D01*
X018074Y013392D01*
X018073Y013392D01*
X018040Y013347D01*
X018004Y013305D01*
X017966Y013265D01*
X017924Y013228D01*
X017880Y013193D01*
X017833Y013162D01*
X017785Y013134D01*
X017735Y013110D01*
X017683Y013089D01*
X017630Y013072D01*
X017576Y013058D01*
X017521Y013049D01*
X017465Y013043D01*
X017410Y013041D01*
X017410Y013042D01*
X017465Y013044D01*
X017521Y013050D01*
X017576Y013059D01*
X017630Y013073D01*
X017683Y013090D01*
X017734Y013111D01*
X017785Y013135D01*
X017833Y013163D01*
X017879Y013194D01*
X017923Y013228D01*
X017965Y013265D01*
X018004Y013305D01*
X018040Y013348D01*
X018073Y013393D01*
X018072Y013394D01*
X018039Y013349D01*
X018003Y013306D01*
X017964Y013266D01*
X017923Y013229D01*
X017879Y013195D01*
X017832Y013164D01*
X017784Y013136D01*
X017734Y013112D01*
X017682Y013091D01*
X017629Y013074D01*
X017575Y013060D01*
X017521Y013051D01*
X017465Y013045D01*
X017410Y013043D01*
X017410Y013044D01*
X017465Y013046D01*
X017520Y013052D01*
X017575Y013061D01*
X017629Y013075D01*
X017682Y013092D01*
X017734Y013113D01*
X017784Y013137D01*
X017832Y013165D01*
X017878Y013196D01*
X017922Y013230D01*
X017963Y013267D01*
X018002Y013307D01*
X018038Y013349D01*
X018071Y013394D01*
X018070Y013395D01*
X018037Y013350D01*
X018001Y013307D01*
X017963Y013268D01*
X017921Y013231D01*
X017877Y013197D01*
X017831Y013166D01*
X017783Y013138D01*
X017733Y013114D01*
X017682Y013093D01*
X017629Y013076D01*
X017575Y013062D01*
X017520Y013053D01*
X017465Y013047D01*
X017410Y013045D01*
X017410Y013046D01*
X017465Y013048D01*
X017520Y013054D01*
X017575Y013063D01*
X017629Y013077D01*
X017681Y013094D01*
X017733Y013115D01*
X017783Y013139D01*
X017831Y013166D01*
X017877Y013197D01*
X017921Y013231D01*
X017962Y013268D01*
X018001Y013308D01*
X018037Y013350D01*
X018069Y013395D01*
X018069Y013396D01*
X018036Y013351D01*
X018000Y013309D01*
X017961Y013269D01*
X017920Y013232D01*
X017876Y013198D01*
X017830Y013167D01*
X017782Y013140D01*
X017732Y013115D01*
X017681Y013095D01*
X017628Y013078D01*
X017575Y013064D01*
X017520Y013055D01*
X017465Y013049D01*
X017410Y013047D01*
X017410Y013048D01*
X017465Y013050D01*
X017520Y013056D01*
X017574Y013065D01*
X017628Y013079D01*
X017681Y013096D01*
X017732Y013116D01*
X017782Y013141D01*
X017830Y013168D01*
X017876Y013199D01*
X017919Y013233D01*
X017961Y013270D01*
X017999Y013309D01*
X018035Y013352D01*
X018068Y013396D01*
X018067Y013397D01*
X018034Y013352D01*
X017999Y013310D01*
X017960Y013271D01*
X017919Y013234D01*
X017875Y013200D01*
X017829Y013169D01*
X017781Y013141D01*
X017732Y013117D01*
X017680Y013097D01*
X017628Y013080D01*
X017574Y013066D01*
X017520Y013057D01*
X017465Y013051D01*
X017410Y013049D01*
X017410Y013050D01*
X017465Y013052D01*
X017520Y013058D01*
X017574Y013067D01*
X017628Y013081D01*
X017680Y013098D01*
X017731Y013118D01*
X017781Y013142D01*
X017829Y013170D01*
X017875Y013201D01*
X017918Y013234D01*
X017959Y013271D01*
X017998Y013311D01*
X018033Y013353D01*
X018066Y013397D01*
X018065Y013398D01*
X018033Y013354D01*
X017997Y013311D01*
X017959Y013272D01*
X017918Y013235D01*
X017874Y013201D01*
X017828Y013171D01*
X017780Y013143D01*
X017731Y013119D01*
X017680Y013099D01*
X017627Y013082D01*
X017574Y013068D01*
X017519Y013059D01*
X017465Y013053D01*
X017410Y013051D01*
X017410Y013052D01*
X017465Y013054D01*
X017519Y013060D01*
X017574Y013069D01*
X017627Y013083D01*
X017679Y013100D01*
X017730Y013120D01*
X017780Y013144D01*
X017828Y013172D01*
X017873Y013202D01*
X017917Y013236D01*
X017958Y013273D01*
X017996Y013312D01*
X018032Y013354D01*
X018064Y013399D01*
X018031Y013355D01*
X017996Y013313D01*
X017957Y013273D01*
X017916Y013237D01*
X017873Y013203D01*
X017827Y013172D01*
X017779Y013145D01*
X017730Y013121D01*
X017679Y013100D01*
X017627Y013084D01*
X017573Y013070D01*
X017519Y013061D01*
X017464Y013055D01*
X017410Y013053D01*
X017409Y013336D02*
X017409Y013355D01*
X017409Y013354D02*
X017446Y013355D01*
X017483Y013360D01*
X017519Y013366D01*
X017554Y013376D01*
X017589Y013388D01*
X017623Y013403D01*
X017630Y013386D01*
X017631Y013386D01*
X017596Y013370D01*
X017560Y013358D01*
X017523Y013348D01*
X017486Y013341D01*
X017448Y013336D01*
X017409Y013335D01*
X017409Y013336D01*
X017448Y013337D01*
X017485Y013342D01*
X017523Y013349D01*
X017560Y013359D01*
X017596Y013371D01*
X017630Y013387D01*
X017630Y013388D01*
X017595Y013372D01*
X017559Y013360D01*
X017523Y013350D01*
X017485Y013343D01*
X017447Y013338D01*
X017409Y013337D01*
X017409Y013338D01*
X017447Y013339D01*
X017485Y013344D01*
X017522Y013351D01*
X017559Y013361D01*
X017595Y013373D01*
X017630Y013388D01*
X017629Y013389D01*
X017594Y013374D01*
X017559Y013362D01*
X017522Y013352D01*
X017485Y013345D01*
X017447Y013340D01*
X017409Y013339D01*
X017409Y013340D01*
X017447Y013341D01*
X017485Y013346D01*
X017522Y013353D01*
X017558Y013363D01*
X017594Y013375D01*
X017629Y013390D01*
X017628Y013391D01*
X017594Y013376D01*
X017558Y013364D01*
X017522Y013354D01*
X017485Y013347D01*
X017447Y013342D01*
X017409Y013341D01*
X017409Y013342D01*
X017447Y013343D01*
X017484Y013348D01*
X017521Y013355D01*
X017558Y013365D01*
X017593Y013377D01*
X017628Y013392D01*
X017627Y013393D01*
X017593Y013378D01*
X017558Y013365D01*
X017521Y013356D01*
X017484Y013349D01*
X017447Y013344D01*
X017409Y013343D01*
X017409Y013344D01*
X017447Y013345D01*
X017484Y013350D01*
X017521Y013357D01*
X017557Y013366D01*
X017593Y013379D01*
X017627Y013394D01*
X017626Y013395D01*
X017592Y013380D01*
X017557Y013367D01*
X017521Y013358D01*
X017484Y013351D01*
X017447Y013346D01*
X017409Y013345D01*
X017409Y013346D01*
X017447Y013347D01*
X017484Y013352D01*
X017521Y013359D01*
X017557Y013368D01*
X017592Y013381D01*
X017626Y013396D01*
X017626Y013397D01*
X017591Y013382D01*
X017556Y013369D01*
X017520Y013360D01*
X017484Y013353D01*
X017447Y013348D01*
X017409Y013347D01*
X017409Y013348D01*
X017447Y013349D01*
X017484Y013354D01*
X017520Y013361D01*
X017556Y013370D01*
X017591Y013383D01*
X017625Y013397D01*
X017625Y013398D01*
X017591Y013384D01*
X017556Y013371D01*
X017520Y013362D01*
X017483Y013355D01*
X017447Y013350D01*
X017409Y013349D01*
X017409Y013350D01*
X017447Y013351D01*
X017483Y013356D01*
X017520Y013363D01*
X017555Y013372D01*
X017590Y013384D01*
X017624Y013399D01*
X017624Y013400D01*
X017590Y013385D01*
X017555Y013373D01*
X017519Y013364D01*
X017483Y013357D01*
X017446Y013352D01*
X017409Y013351D01*
X017409Y013352D01*
X017446Y013353D01*
X017483Y013358D01*
X017519Y013364D01*
X017555Y013374D01*
X017590Y013386D01*
X017623Y013401D01*
X017623Y013402D01*
X017589Y013387D01*
X017555Y013375D01*
X017519Y013365D01*
X017483Y013359D01*
X017446Y013354D01*
X017409Y013353D01*
X017630Y014304D02*
X017622Y014287D01*
X017623Y014287D02*
X017589Y014302D01*
X017554Y014314D01*
X017519Y014324D01*
X017483Y014330D01*
X017446Y014335D01*
X017409Y014336D01*
X017409Y014354D01*
X017409Y014355D01*
X017448Y014354D01*
X017486Y014349D01*
X017523Y014342D01*
X017560Y014332D01*
X017596Y014320D01*
X017631Y014304D01*
X017630Y014303D01*
X017596Y014319D01*
X017560Y014331D01*
X017523Y014341D01*
X017485Y014348D01*
X017448Y014353D01*
X017409Y014354D01*
X017409Y014353D01*
X017447Y014352D01*
X017485Y014347D01*
X017523Y014340D01*
X017559Y014330D01*
X017595Y014318D01*
X017630Y014302D01*
X017595Y014317D01*
X017559Y014329D01*
X017522Y014339D01*
X017485Y014346D01*
X017447Y014351D01*
X017409Y014352D01*
X017409Y014351D01*
X017447Y014350D01*
X017485Y014345D01*
X017522Y014338D01*
X017559Y014328D01*
X017594Y014316D01*
X017629Y014301D01*
X017629Y014300D01*
X017594Y014315D01*
X017558Y014327D01*
X017522Y014337D01*
X017485Y014344D01*
X017447Y014349D01*
X017409Y014350D01*
X017409Y014349D01*
X017447Y014348D01*
X017485Y014343D01*
X017522Y014336D01*
X017558Y014326D01*
X017594Y014314D01*
X017628Y014299D01*
X017628Y014298D01*
X017593Y014313D01*
X017558Y014325D01*
X017521Y014335D01*
X017484Y014342D01*
X017447Y014347D01*
X017409Y014348D01*
X017409Y014347D01*
X017447Y014346D01*
X017484Y014341D01*
X017521Y014334D01*
X017558Y014325D01*
X017593Y014312D01*
X017627Y014297D01*
X017627Y014296D01*
X017593Y014311D01*
X017557Y014324D01*
X017521Y014333D01*
X017484Y014340D01*
X017447Y014345D01*
X017409Y014346D01*
X017409Y014345D01*
X017447Y014344D01*
X017484Y014339D01*
X017521Y014332D01*
X017557Y014323D01*
X017592Y014310D01*
X017626Y014295D01*
X017626Y014294D01*
X017592Y014309D01*
X017557Y014322D01*
X017521Y014331D01*
X017484Y014338D01*
X017447Y014343D01*
X017409Y014344D01*
X017409Y014343D01*
X017447Y014342D01*
X017484Y014337D01*
X017520Y014330D01*
X017556Y014321D01*
X017591Y014308D01*
X017626Y014293D01*
X017625Y014293D01*
X017591Y014307D01*
X017556Y014320D01*
X017520Y014329D01*
X017484Y014336D01*
X017447Y014341D01*
X017409Y014342D01*
X017409Y014341D01*
X017447Y014340D01*
X017483Y014335D01*
X017520Y014328D01*
X017556Y014319D01*
X017591Y014306D01*
X017625Y014292D01*
X017624Y014291D01*
X017590Y014306D01*
X017555Y014318D01*
X017520Y014327D01*
X017483Y014334D01*
X017447Y014339D01*
X017409Y014340D01*
X017409Y014339D01*
X017446Y014338D01*
X017483Y014333D01*
X017519Y014326D01*
X017555Y014317D01*
X017590Y014305D01*
X017624Y014290D01*
X017623Y014289D01*
X017590Y014304D01*
X017555Y014316D01*
X017519Y014326D01*
X017483Y014332D01*
X017446Y014337D01*
X017409Y014338D01*
X017409Y014337D01*
X017446Y014336D01*
X017483Y014331D01*
X017519Y014325D01*
X017555Y014315D01*
X017589Y014303D01*
X017623Y014288D01*
X018078Y014301D02*
X018062Y014290D01*
X018063Y014290D02*
X018030Y014335D01*
X017995Y014377D01*
X017956Y014416D01*
X017916Y014453D01*
X017872Y014486D01*
X017827Y014517D01*
X017779Y014544D01*
X017730Y014568D01*
X017679Y014589D01*
X017626Y014606D01*
X017573Y014619D01*
X017519Y014628D01*
X017464Y014634D01*
X017409Y014636D01*
X017409Y014654D01*
X017409Y014655D01*
X017466Y014653D01*
X017522Y014647D01*
X017577Y014637D01*
X017632Y014624D01*
X017685Y014607D01*
X017737Y014586D01*
X017788Y014561D01*
X017837Y014533D01*
X017883Y014502D01*
X017928Y014467D01*
X017970Y014430D01*
X018009Y014389D01*
X018045Y014346D01*
X018078Y014301D01*
X018078Y014300D01*
X018044Y014346D01*
X018008Y014389D01*
X017969Y014429D01*
X017927Y014466D01*
X017883Y014501D01*
X017836Y014532D01*
X017787Y014560D01*
X017737Y014585D01*
X017685Y014606D01*
X017631Y014623D01*
X017577Y014636D01*
X017521Y014646D01*
X017466Y014652D01*
X017409Y014654D01*
X017409Y014653D01*
X017466Y014651D01*
X017521Y014645D01*
X017577Y014635D01*
X017631Y014622D01*
X017684Y014605D01*
X017736Y014584D01*
X017787Y014559D01*
X017836Y014531D01*
X017882Y014500D01*
X017926Y014466D01*
X017968Y014428D01*
X018007Y014388D01*
X018044Y014345D01*
X018077Y014300D01*
X018076Y014299D01*
X018043Y014345D01*
X018007Y014387D01*
X017968Y014427D01*
X017926Y014465D01*
X017882Y014499D01*
X017835Y014530D01*
X017786Y014558D01*
X017736Y014583D01*
X017684Y014604D01*
X017631Y014621D01*
X017576Y014634D01*
X017521Y014644D01*
X017465Y014650D01*
X017409Y014652D01*
X017409Y014651D01*
X017465Y014649D01*
X017521Y014643D01*
X017576Y014633D01*
X017630Y014620D01*
X017684Y014603D01*
X017736Y014582D01*
X017786Y014557D01*
X017834Y014530D01*
X017881Y014498D01*
X017925Y014464D01*
X017967Y014427D01*
X018006Y014387D01*
X018042Y014344D01*
X018075Y014299D01*
X018074Y014298D01*
X018041Y014343D01*
X018005Y014386D01*
X017966Y014426D01*
X017925Y014463D01*
X017880Y014498D01*
X017834Y014529D01*
X017785Y014557D01*
X017735Y014581D01*
X017683Y014602D01*
X017630Y014619D01*
X017576Y014632D01*
X017521Y014642D01*
X017465Y014648D01*
X017409Y014650D01*
X017409Y014649D01*
X017465Y014647D01*
X017521Y014641D01*
X017576Y014632D01*
X017630Y014618D01*
X017683Y014601D01*
X017735Y014580D01*
X017785Y014556D01*
X017833Y014528D01*
X017880Y014497D01*
X017924Y014463D01*
X017965Y014425D01*
X018004Y014385D01*
X018040Y014343D01*
X018073Y014298D01*
X018073Y014297D01*
X018040Y014342D01*
X018004Y014385D01*
X017965Y014425D01*
X017923Y014462D01*
X017879Y014496D01*
X017833Y014527D01*
X017785Y014555D01*
X017734Y014579D01*
X017683Y014600D01*
X017630Y014617D01*
X017576Y014631D01*
X017521Y014640D01*
X017465Y014646D01*
X017409Y014648D01*
X017409Y014647D01*
X017465Y014645D01*
X017521Y014639D01*
X017575Y014630D01*
X017629Y014616D01*
X017682Y014599D01*
X017734Y014578D01*
X017784Y014554D01*
X017832Y014526D01*
X017879Y014495D01*
X017923Y014461D01*
X017964Y014424D01*
X018003Y014384D01*
X018039Y014341D01*
X018072Y014297D01*
X018071Y014296D01*
X018038Y014341D01*
X018002Y014383D01*
X017963Y014423D01*
X017922Y014460D01*
X017878Y014494D01*
X017832Y014525D01*
X017784Y014553D01*
X017734Y014577D01*
X017682Y014598D01*
X017629Y014615D01*
X017575Y014629D01*
X017520Y014638D01*
X017465Y014644D01*
X017409Y014646D01*
X017409Y014645D01*
X017465Y014643D01*
X017520Y014637D01*
X017575Y014628D01*
X017629Y014614D01*
X017682Y014597D01*
X017733Y014576D01*
X017783Y014552D01*
X017831Y014524D01*
X017877Y014494D01*
X017921Y014459D01*
X017963Y014422D01*
X018001Y014383D01*
X018037Y014340D01*
X018070Y014295D01*
X018069Y014295D01*
X018037Y014340D01*
X018001Y014382D01*
X017962Y014422D01*
X017921Y014459D01*
X017877Y014493D01*
X017831Y014524D01*
X017783Y014551D01*
X017733Y014575D01*
X017681Y014596D01*
X017629Y014613D01*
X017575Y014627D01*
X017520Y014636D01*
X017465Y014642D01*
X017409Y014644D01*
X017409Y014643D01*
X017465Y014641D01*
X017520Y014635D01*
X017575Y014626D01*
X017628Y014612D01*
X017681Y014595D01*
X017732Y014575D01*
X017782Y014550D01*
X017830Y014523D01*
X017876Y014492D01*
X017920Y014458D01*
X017961Y014421D01*
X018000Y014381D01*
X018036Y014339D01*
X018069Y014294D01*
X018068Y014294D01*
X018035Y014338D01*
X017999Y014381D01*
X017961Y014420D01*
X017919Y014457D01*
X017876Y014491D01*
X017830Y014522D01*
X017782Y014549D01*
X017732Y014574D01*
X017681Y014594D01*
X017628Y014611D01*
X017574Y014625D01*
X017520Y014634D01*
X017465Y014640D01*
X017409Y014642D01*
X017409Y014641D01*
X017465Y014639D01*
X017520Y014633D01*
X017574Y014624D01*
X017628Y014610D01*
X017680Y014593D01*
X017732Y014573D01*
X017781Y014549D01*
X017829Y014521D01*
X017875Y014490D01*
X017919Y014456D01*
X017960Y014420D01*
X017998Y014380D01*
X018034Y014338D01*
X018067Y014293D01*
X018066Y014293D01*
X018033Y014337D01*
X017998Y014379D01*
X017959Y014419D01*
X017918Y014456D01*
X017875Y014489D01*
X017829Y014520D01*
X017781Y014548D01*
X017731Y014572D01*
X017680Y014592D01*
X017627Y014609D01*
X017574Y014623D01*
X017520Y014632D01*
X017465Y014638D01*
X017409Y014640D01*
X017409Y014639D01*
X017465Y014637D01*
X017519Y014631D01*
X017574Y014622D01*
X017627Y014608D01*
X017680Y014591D01*
X017731Y014571D01*
X017780Y014547D01*
X017828Y014519D01*
X017874Y014489D01*
X017917Y014455D01*
X017959Y014418D01*
X017997Y014379D01*
X018033Y014336D01*
X018065Y014292D01*
X018064Y014291D01*
X018032Y014336D01*
X017996Y014378D01*
X017958Y014417D01*
X017917Y014454D01*
X017873Y014488D01*
X017828Y014519D01*
X017780Y014546D01*
X017730Y014570D01*
X017679Y014591D01*
X017627Y014607D01*
X017573Y014621D01*
X017519Y014630D01*
X017465Y014636D01*
X017409Y014638D01*
X017409Y014637D01*
X017464Y014635D01*
X017519Y014629D01*
X017573Y014620D01*
X017627Y014607D01*
X017679Y014590D01*
X017730Y014569D01*
X017779Y014545D01*
X017827Y014518D01*
X017873Y014487D01*
X017916Y014453D01*
X017957Y014417D01*
X017996Y014377D01*
X018031Y014335D01*
X018064Y014291D01*
D17*
X017409Y014345D02*
X014709Y014345D01*
X014709Y014645D02*
X017409Y014645D01*
X016459Y013845D02*
X016309Y013845D01*
X015809Y013845D02*
X015659Y013845D01*
X014709Y013345D02*
X017409Y013345D01*
X017409Y013045D02*
X014709Y013045D01*
X023434Y014975D02*
X027434Y014975D01*
X002154Y003555D02*
X002156Y003578D01*
X002162Y003600D01*
X002171Y003622D01*
X002184Y003641D01*
X002199Y003658D01*
X002217Y003672D01*
X002238Y003683D01*
X002260Y003691D01*
X002282Y003695D01*
X002306Y003695D01*
X002328Y003691D01*
X002350Y003683D01*
X002371Y003672D01*
X002389Y003658D01*
X002404Y003641D01*
X002417Y003622D01*
X002426Y003600D01*
X002432Y003578D01*
X002434Y003555D01*
X002432Y003532D01*
X002426Y003510D01*
X002417Y003488D01*
X002404Y003469D01*
X002389Y003452D01*
X002371Y003438D01*
X002350Y003427D01*
X002328Y003419D01*
X002306Y003415D01*
X002282Y003415D01*
X002260Y003419D01*
X002238Y003427D01*
X002217Y003438D01*
X002199Y003452D01*
X002184Y003469D01*
X002171Y003488D01*
X002162Y003510D01*
X002156Y003532D01*
X002154Y003555D01*
D18*
X002909Y003945D02*
X003059Y003945D01*
X002984Y003945D02*
X002984Y004396D01*
X002909Y004396D02*
X003059Y004396D01*
X003216Y004321D02*
X003216Y004021D01*
X003291Y003945D01*
X003441Y003945D01*
X003516Y004021D01*
X003676Y004021D02*
X003751Y003945D01*
X003901Y003945D01*
X003976Y004021D01*
X003976Y004096D01*
X003901Y004171D01*
X003826Y004171D01*
X003901Y004171D02*
X003976Y004246D01*
X003976Y004321D01*
X003901Y004396D01*
X003751Y004396D01*
X003676Y004321D01*
X003516Y004321D02*
X003441Y004396D01*
X003291Y004396D01*
X003216Y004321D01*
X007959Y004096D02*
X007959Y004021D01*
X008034Y003946D01*
X008184Y003946D01*
X008259Y003871D01*
X008259Y003796D01*
X008184Y003720D01*
X008034Y003720D01*
X007959Y003796D01*
X007959Y004096D02*
X008034Y004171D01*
X008184Y004171D01*
X008259Y004096D01*
X008419Y003946D02*
X008644Y003946D01*
X008720Y003871D01*
X008720Y003796D01*
X008644Y003720D01*
X008494Y003720D01*
X008419Y003796D01*
X008419Y003946D01*
X008569Y004096D01*
X008720Y004171D01*
X009459Y004083D02*
X009459Y004008D01*
X009534Y003933D01*
X009684Y003933D01*
X009759Y003858D01*
X009759Y003783D01*
X009684Y003708D01*
X009534Y003708D01*
X009459Y003783D01*
X009459Y004083D02*
X009534Y004158D01*
X009684Y004158D01*
X009759Y004083D01*
X009919Y004158D02*
X010220Y004158D01*
X010220Y004083D01*
X009919Y003783D01*
X009919Y003708D01*
X011459Y003796D02*
X011534Y003720D01*
X011684Y003720D01*
X011759Y003796D01*
X011759Y003871D01*
X011684Y003946D01*
X011534Y003946D01*
X011459Y004021D01*
X011459Y004096D01*
X011534Y004171D01*
X011684Y004171D01*
X011759Y004096D01*
X011919Y004096D02*
X011919Y004021D01*
X011994Y003946D01*
X012144Y003946D01*
X012220Y003871D01*
X012220Y003796D01*
X012144Y003720D01*
X011994Y003720D01*
X011919Y003796D01*
X011919Y003871D01*
X011994Y003946D01*
X012144Y003946D02*
X012220Y004021D01*
X012220Y004096D01*
X012144Y004171D01*
X011994Y004171D01*
X011919Y004096D01*
X012959Y004083D02*
X012959Y004008D01*
X013034Y003933D01*
X013184Y003933D01*
X013259Y003858D01*
X013259Y003783D01*
X013184Y003708D01*
X013034Y003708D01*
X012959Y003783D01*
X013419Y003783D02*
X013494Y003708D01*
X013644Y003708D01*
X013720Y003783D01*
X013720Y004083D01*
X013644Y004158D01*
X013494Y004158D01*
X013419Y004083D01*
X013419Y004008D01*
X013494Y003933D01*
X013720Y003933D01*
X013259Y004083D02*
X013184Y004158D01*
X013034Y004158D01*
X012959Y004083D01*
X013559Y004595D02*
X013979Y004595D01*
X014373Y004595D02*
X014793Y004595D01*
X015186Y004595D02*
X015606Y004595D01*
X016000Y004595D02*
X016420Y004595D01*
X016814Y004595D02*
X017234Y004595D01*
X017627Y004595D02*
X018047Y004595D01*
X018441Y004595D02*
X018861Y004595D01*
X019255Y004595D02*
X019675Y004595D01*
X020068Y004595D02*
X020488Y004595D01*
X020882Y004595D02*
X021302Y004595D01*
X021696Y004595D02*
X022116Y004595D01*
X022509Y004595D02*
X022929Y004595D01*
X023323Y004595D02*
X023743Y004595D01*
X024137Y004595D02*
X024557Y004595D01*
X024950Y004595D02*
X025370Y004595D01*
X025764Y004595D02*
X026184Y004595D01*
X026184Y005001D01*
X026184Y005395D02*
X026184Y005800D01*
X026274Y006120D02*
X026198Y006196D01*
X026198Y006496D01*
X026274Y006571D01*
X026424Y006571D01*
X026499Y006496D01*
X026499Y006346D02*
X026349Y006346D01*
X026499Y006346D02*
X026499Y006196D01*
X026424Y006120D01*
X026274Y006120D01*
X026184Y006194D02*
X026184Y006599D01*
X026184Y006993D02*
X026184Y007399D01*
X026184Y007792D02*
X026184Y008198D01*
X026184Y008592D02*
X026184Y008997D01*
X026184Y009391D02*
X026184Y009796D01*
X026184Y010190D02*
X026184Y010595D01*
X025764Y010595D01*
X025370Y010595D02*
X024950Y010595D01*
X024557Y010595D02*
X024137Y010595D01*
X023743Y010595D02*
X023323Y010595D01*
X022929Y010595D02*
X022509Y010595D01*
X022116Y010595D02*
X021696Y010595D01*
X021302Y010595D02*
X020882Y010595D01*
X020488Y010595D02*
X020068Y010595D01*
X019675Y010595D02*
X019255Y010595D01*
X018861Y010595D02*
X018441Y010595D01*
X018047Y010595D02*
X017627Y010595D01*
X017234Y010595D02*
X016814Y010595D01*
X016420Y010595D02*
X016000Y010595D01*
X015606Y010595D02*
X015186Y010595D01*
X014793Y010595D02*
X014373Y010595D01*
X013979Y010595D02*
X013559Y010595D01*
X013559Y010190D01*
X013559Y009796D02*
X013559Y009391D01*
X013559Y008997D02*
X013559Y008592D01*
X013559Y008198D02*
X013559Y007792D01*
X013559Y007399D02*
X013559Y006993D01*
X013559Y006599D02*
X013559Y006194D01*
X013559Y005800D02*
X013559Y005395D01*
X013559Y005001D02*
X013559Y004595D01*
X014709Y004083D02*
X014709Y004008D01*
X014784Y003933D01*
X014934Y003933D01*
X015009Y003858D01*
X015009Y003783D01*
X014934Y003708D01*
X014784Y003708D01*
X014709Y003783D01*
X015169Y003708D02*
X015470Y003708D01*
X015319Y003708D02*
X015319Y004158D01*
X015169Y004008D01*
X015009Y004083D02*
X014934Y004158D01*
X014784Y004158D01*
X014709Y004083D01*
X015630Y004083D02*
X015630Y003783D01*
X015930Y004083D01*
X015930Y003783D01*
X015855Y003708D01*
X015705Y003708D01*
X015630Y003783D01*
X015630Y004083D02*
X015705Y004158D01*
X015855Y004158D01*
X015930Y004083D01*
X016334Y004096D02*
X016334Y004021D01*
X016409Y003946D01*
X016559Y003946D01*
X016634Y003871D01*
X016634Y003796D01*
X016559Y003720D01*
X016409Y003720D01*
X016334Y003796D01*
X016334Y004096D02*
X016409Y004171D01*
X016559Y004171D01*
X016634Y004096D01*
X016794Y004021D02*
X016944Y004171D01*
X016944Y003720D01*
X016794Y003720D02*
X017095Y003720D01*
X017255Y003720D02*
X017555Y003720D01*
X017405Y003720D02*
X017405Y004171D01*
X017255Y004021D01*
X021584Y004021D02*
X021659Y003946D01*
X021809Y003946D01*
X021884Y003871D01*
X021884Y003796D01*
X021809Y003720D01*
X021659Y003720D01*
X021584Y003796D01*
X021584Y004021D02*
X021584Y004096D01*
X021659Y004171D01*
X021809Y004171D01*
X021884Y004096D01*
X022044Y004096D02*
X022119Y004171D01*
X022269Y004171D01*
X022345Y004096D01*
X022044Y003796D01*
X022119Y003720D01*
X022269Y003720D01*
X022345Y003796D01*
X022345Y004096D01*
X022044Y004096D02*
X022044Y003796D01*
X023084Y003796D02*
X023159Y003720D01*
X023309Y003720D01*
X023384Y003796D01*
X023384Y003871D01*
X023309Y003946D01*
X023159Y003946D01*
X023084Y004021D01*
X023084Y004096D01*
X023159Y004171D01*
X023309Y004171D01*
X023384Y004096D01*
X023544Y004021D02*
X023694Y004171D01*
X023694Y003720D01*
X023544Y003720D02*
X023845Y003720D01*
X025334Y003796D02*
X025409Y003720D01*
X025559Y003720D01*
X025634Y003796D01*
X025634Y003871D01*
X025559Y003946D01*
X025409Y003946D01*
X025334Y004021D01*
X025334Y004096D01*
X025409Y004171D01*
X025559Y004171D01*
X025634Y004096D01*
X025794Y004096D02*
X025869Y004171D01*
X026019Y004171D01*
X026095Y004096D01*
X026095Y004021D01*
X025794Y003720D01*
X026095Y003720D01*
X026834Y003796D02*
X026909Y003720D01*
X027059Y003720D01*
X027134Y003796D01*
X027134Y003871D01*
X027059Y003946D01*
X026909Y003946D01*
X026834Y004021D01*
X026834Y004096D01*
X026909Y004171D01*
X027059Y004171D01*
X027134Y004096D01*
X027294Y004096D02*
X027369Y004171D01*
X027519Y004171D01*
X027595Y004096D01*
X027595Y004021D01*
X027519Y003946D01*
X027595Y003871D01*
X027595Y003796D01*
X027519Y003720D01*
X027369Y003720D01*
X027294Y003796D01*
X027444Y003946D02*
X027519Y003946D01*
X028834Y004021D02*
X028909Y003946D01*
X029059Y003946D01*
X029134Y003871D01*
X029134Y003796D01*
X029059Y003720D01*
X028909Y003720D01*
X028834Y003796D01*
X028834Y004021D02*
X028834Y004096D01*
X028909Y004171D01*
X029059Y004171D01*
X029134Y004096D01*
X029294Y003946D02*
X029595Y003946D01*
X029519Y004171D02*
X029519Y003720D01*
X029294Y003946D02*
X029519Y004171D01*
X030334Y004096D02*
X030334Y004021D01*
X030409Y003946D01*
X030559Y003946D01*
X030634Y003871D01*
X030634Y003796D01*
X030559Y003720D01*
X030409Y003720D01*
X030334Y003796D01*
X030334Y004096D02*
X030409Y004171D01*
X030559Y004171D01*
X030634Y004096D01*
X030794Y004171D02*
X030794Y003946D01*
X030944Y004021D01*
X031019Y004021D01*
X031095Y003946D01*
X031095Y003796D01*
X031019Y003720D01*
X030869Y003720D01*
X030794Y003796D01*
X030794Y004171D02*
X031095Y004171D01*
X032434Y011310D02*
X032434Y011610D01*
X032659Y011535D02*
X032208Y011535D01*
X032434Y011310D01*
X032359Y015860D02*
X032208Y016010D01*
X032659Y016010D01*
X032659Y015860D02*
X032659Y016160D01*
X030227Y017055D02*
X030000Y017055D01*
X030113Y017055D02*
X030113Y017396D01*
X030000Y017282D01*
X026430Y018270D02*
X026130Y018270D01*
X026280Y018270D02*
X026280Y018721D01*
X026130Y018571D01*
X025970Y018421D02*
X025970Y018721D01*
X025970Y018421D02*
X025819Y018270D01*
X025669Y018421D01*
X025669Y018721D01*
X025509Y018646D02*
X025434Y018721D01*
X025284Y018721D01*
X025209Y018646D01*
X025209Y018571D01*
X025284Y018496D01*
X025434Y018496D01*
X025509Y018421D01*
X025509Y018346D01*
X025434Y018270D01*
X025284Y018270D01*
X025209Y018346D01*
X001798Y019731D02*
X001798Y020459D01*
X001798Y020460D02*
X001070Y020460D01*
X001070Y019731D01*
X001798Y019731D01*
X001345Y019087D02*
X001345Y018636D01*
X001195Y018636D02*
X001496Y018636D01*
X001195Y018936D02*
X001345Y019087D01*
X000883Y019613D02*
X000883Y021582D01*
X013954Y021582D01*
X013954Y019613D01*
X000883Y019613D01*
X009259Y015271D02*
X009409Y015421D01*
X009409Y014970D01*
X009259Y014970D02*
X009559Y014970D01*
X011334Y015096D02*
X011409Y015020D01*
X011559Y015020D01*
X011634Y015096D01*
X011634Y015396D01*
X011559Y015471D01*
X011409Y015471D01*
X011334Y015396D01*
X011334Y015096D01*
X011794Y015171D02*
X012019Y015171D01*
X012095Y015246D01*
X012095Y015396D01*
X012019Y015471D01*
X011794Y015471D01*
X011794Y015020D01*
X012405Y015020D02*
X012405Y015471D01*
X012255Y015471D02*
X012555Y015471D01*
X012715Y015471D02*
X012865Y015471D01*
X012790Y015471D02*
X012790Y015020D01*
X012715Y015020D02*
X012865Y015020D01*
X013022Y015096D02*
X013097Y015020D01*
X013247Y015020D01*
X013322Y015096D01*
X013322Y015396D01*
X013247Y015471D01*
X013097Y015471D01*
X013022Y015396D01*
X013022Y015096D01*
X013482Y015020D02*
X013482Y015471D01*
X013783Y015020D01*
X013783Y015471D01*
X016834Y015346D02*
X016834Y015046D01*
X016909Y014970D01*
X017059Y014970D01*
X017134Y015046D01*
X017134Y015346D01*
X017059Y015421D01*
X016909Y015421D01*
X016834Y015346D01*
X016984Y015121D02*
X017134Y014970D01*
X017294Y014970D02*
X017595Y014970D01*
X017444Y014970D02*
X017444Y015421D01*
X017294Y015271D01*
X020953Y016120D02*
X020953Y016571D01*
X021178Y016571D01*
X021253Y016496D01*
X021253Y016346D01*
X021178Y016271D01*
X020953Y016271D01*
X021103Y016271D02*
X021253Y016120D01*
X021413Y016120D02*
X021413Y016571D01*
X021713Y016120D01*
X021713Y016571D01*
X021873Y016421D02*
X022024Y016571D01*
X022024Y016120D01*
X022174Y016120D02*
X021873Y016120D01*
X022334Y014971D02*
X022484Y014971D01*
X022409Y014971D02*
X022409Y014520D01*
X022334Y014520D02*
X022484Y014520D01*
X022641Y014596D02*
X022641Y014896D01*
X022716Y014971D01*
X022866Y014971D01*
X022941Y014896D01*
X023101Y014971D02*
X023101Y014746D01*
X023251Y014821D01*
X023326Y014821D01*
X023401Y014746D01*
X023401Y014596D01*
X023326Y014520D01*
X023176Y014520D01*
X023101Y014596D01*
X022941Y014596D02*
X022866Y014520D01*
X022716Y014520D01*
X022641Y014596D01*
X023101Y014971D02*
X023401Y014971D01*
X018180Y018270D02*
X017880Y018270D01*
X018180Y018571D01*
X018180Y018646D01*
X018105Y018721D01*
X017955Y018721D01*
X017880Y018646D01*
X017720Y018721D02*
X017720Y018421D01*
X017569Y018270D01*
X017419Y018421D01*
X017419Y018721D01*
X017259Y018646D02*
X017184Y018721D01*
X017034Y018721D01*
X016959Y018646D01*
X016959Y018571D01*
X017034Y018496D01*
X017184Y018496D01*
X017259Y018421D01*
X017259Y018346D01*
X017184Y018270D01*
X017034Y018270D01*
X016959Y018346D01*
X014020Y018146D02*
X014020Y017846D01*
X013944Y017770D01*
X013794Y017770D01*
X013719Y017846D01*
X014020Y018146D01*
X013944Y018221D01*
X013794Y018221D01*
X013719Y018146D01*
X013719Y017846D01*
X013559Y017770D02*
X013259Y017770D01*
X013409Y017770D02*
X013409Y018221D01*
X013259Y018071D01*
X010095Y011721D02*
X009794Y011270D01*
X009634Y011346D02*
X009559Y011270D01*
X009409Y011270D01*
X009334Y011346D01*
X009409Y011496D02*
X009559Y011496D01*
X009634Y011421D01*
X009634Y011346D01*
X009409Y011496D02*
X009334Y011571D01*
X009334Y011646D01*
X009409Y011721D01*
X009559Y011721D01*
X009634Y011646D01*
X009794Y011721D02*
X010095Y011270D01*
X010095Y010221D02*
X010095Y010146D01*
X009944Y009996D01*
X009944Y009770D01*
X009944Y009996D02*
X009794Y010146D01*
X009794Y010221D01*
X009634Y010146D02*
X009559Y010221D01*
X009409Y010221D01*
X009334Y010146D01*
X009334Y010071D01*
X009409Y009996D01*
X009559Y009996D01*
X009634Y009921D01*
X009634Y009846D01*
X009559Y009770D01*
X009409Y009770D01*
X009334Y009846D01*
D19*
X005224Y013395D02*
X002644Y013395D01*
X002644Y014795D01*
X005224Y014795D01*
X005224Y013395D01*
X015544Y010328D02*
X015544Y006863D01*
X015702Y006706D01*
X019166Y006706D01*
X019324Y006863D01*
X019324Y010328D01*
X019166Y010485D01*
X015702Y010485D01*
X015544Y010328D01*
X007013Y006080D02*
X007013Y001621D01*
X004355Y001621D02*
X004355Y006080D01*
X028331Y006074D02*
X028331Y004992D01*
X028831Y004617D02*
X029287Y004617D01*
X029787Y004992D02*
X029787Y006074D01*
X029456Y006074D01*
X028662Y006074D02*
X028331Y006074D01*
D20*
X006684Y012760D03*
D21*
X009905Y007220D02*
X009907Y007268D01*
X009913Y007316D01*
X009923Y007363D01*
X009936Y007409D01*
X009954Y007454D01*
X009974Y007498D01*
X009999Y007540D01*
X010027Y007579D01*
X010057Y007616D01*
X010091Y007650D01*
X010128Y007682D01*
X010166Y007711D01*
X010207Y007736D01*
X010250Y007758D01*
X010295Y007776D01*
X010341Y007790D01*
X010388Y007801D01*
X010436Y007808D01*
X010484Y007811D01*
X010532Y007810D01*
X010580Y007805D01*
X010628Y007796D01*
X010674Y007784D01*
X010719Y007767D01*
X010763Y007747D01*
X010805Y007724D01*
X010845Y007697D01*
X010883Y007667D01*
X010918Y007634D01*
X010950Y007598D01*
X010980Y007560D01*
X011006Y007519D01*
X011028Y007476D01*
X011048Y007432D01*
X011063Y007387D01*
X011075Y007340D01*
X011083Y007292D01*
X011087Y007244D01*
X011087Y007196D01*
X011083Y007148D01*
X011075Y007100D01*
X011063Y007053D01*
X011048Y007008D01*
X011028Y006964D01*
X011006Y006921D01*
X010980Y006880D01*
X010950Y006842D01*
X010918Y006806D01*
X010883Y006773D01*
X010845Y006743D01*
X010805Y006716D01*
X010763Y006693D01*
X010719Y006673D01*
X010674Y006656D01*
X010628Y006644D01*
X010580Y006635D01*
X010532Y006630D01*
X010484Y006629D01*
X010436Y006632D01*
X010388Y006639D01*
X010341Y006650D01*
X010295Y006664D01*
X010250Y006682D01*
X010207Y006704D01*
X010166Y006729D01*
X010128Y006758D01*
X010091Y006790D01*
X010057Y006824D01*
X010027Y006861D01*
X009999Y006900D01*
X009974Y006942D01*
X009954Y006986D01*
X009936Y007031D01*
X009923Y007077D01*
X009913Y007124D01*
X009907Y007172D01*
X009905Y007220D01*
X031468Y017220D02*
X031470Y017268D01*
X031476Y017316D01*
X031486Y017363D01*
X031499Y017409D01*
X031517Y017454D01*
X031537Y017498D01*
X031562Y017540D01*
X031590Y017579D01*
X031620Y017616D01*
X031654Y017650D01*
X031691Y017682D01*
X031729Y017711D01*
X031770Y017736D01*
X031813Y017758D01*
X031858Y017776D01*
X031904Y017790D01*
X031951Y017801D01*
X031999Y017808D01*
X032047Y017811D01*
X032095Y017810D01*
X032143Y017805D01*
X032191Y017796D01*
X032237Y017784D01*
X032282Y017767D01*
X032326Y017747D01*
X032368Y017724D01*
X032408Y017697D01*
X032446Y017667D01*
X032481Y017634D01*
X032513Y017598D01*
X032543Y017560D01*
X032569Y017519D01*
X032591Y017476D01*
X032611Y017432D01*
X032626Y017387D01*
X032638Y017340D01*
X032646Y017292D01*
X032650Y017244D01*
X032650Y017196D01*
X032646Y017148D01*
X032638Y017100D01*
X032626Y017053D01*
X032611Y017008D01*
X032591Y016964D01*
X032569Y016921D01*
X032543Y016880D01*
X032513Y016842D01*
X032481Y016806D01*
X032446Y016773D01*
X032408Y016743D01*
X032368Y016716D01*
X032326Y016693D01*
X032282Y016673D01*
X032237Y016656D01*
X032191Y016644D01*
X032143Y016635D01*
X032095Y016630D01*
X032047Y016629D01*
X031999Y016632D01*
X031951Y016639D01*
X031904Y016650D01*
X031858Y016664D01*
X031813Y016682D01*
X031770Y016704D01*
X031729Y016729D01*
X031691Y016758D01*
X031654Y016790D01*
X031620Y016824D01*
X031590Y016861D01*
X031562Y016900D01*
X031537Y016942D01*
X031517Y016986D01*
X031499Y017031D01*
X031486Y017077D01*
X031476Y017124D01*
X031470Y017172D01*
X031468Y017220D01*
M02*
