G75*
G70*
%OFA0B0*%
%FSLAX24Y24*%
%IPPOS*%
%LPD*%
%AMOC8*
5,1,8,0,0,1.08239X$1,22.5*
%
%ADD10C,0.0070*%
%ADD11C,0.0040*%
%ADD12C,0.0060*%
%ADD13C,0.0030*%
%ADD14C,0.0000*%
%ADD15C,0.0001*%
%ADD16C,0.0020*%
%ADD17C,0.0050*%
%ADD18C,0.0080*%
%ADD19C,0.0100*%
%ADD20C,0.0260*%
%ADD21R,0.0260X0.0300*%
%ADD22R,0.0260X0.0260*%
%ADD23R,0.0079X0.0079*%
D10*
X004969Y018505D02*
X005364Y018505D01*
X005496Y018637D01*
X005496Y018769D01*
X005364Y018901D01*
X004969Y018901D01*
X005364Y018901D02*
X005496Y019033D01*
X005496Y019164D01*
X005364Y019296D01*
X004969Y019296D01*
X004969Y018505D01*
X005761Y018505D02*
X006024Y018505D01*
X005893Y018505D02*
X005893Y019296D01*
X005761Y019296D01*
X006289Y018901D02*
X006420Y019033D01*
X006684Y019033D01*
X006816Y018901D01*
X006816Y018769D01*
X006289Y018769D01*
X006289Y018637D02*
X006289Y018901D01*
X006289Y018637D02*
X006420Y018505D01*
X006684Y018505D01*
X007081Y018637D02*
X007212Y018505D01*
X007608Y018505D01*
X007608Y019033D01*
X007872Y018901D02*
X008004Y019033D01*
X008268Y019033D01*
X008400Y018901D01*
X008400Y018769D01*
X007872Y018769D01*
X007872Y018637D02*
X007872Y018901D01*
X007872Y018637D02*
X008004Y018505D01*
X008268Y018505D01*
X008796Y018637D02*
X008928Y018505D01*
X008796Y018637D02*
X008796Y019164D01*
X008664Y019033D02*
X008928Y019033D01*
X009192Y019033D02*
X009456Y019033D01*
X009324Y019164D02*
X009324Y018637D01*
X009456Y018505D01*
X009720Y018637D02*
X009720Y018901D01*
X009852Y019033D01*
X010115Y019033D01*
X010247Y018901D01*
X010247Y018769D01*
X009720Y018769D01*
X009720Y018637D02*
X009852Y018505D01*
X010115Y018505D01*
X010512Y018505D02*
X010512Y019296D01*
X010907Y019296D01*
X011039Y019164D01*
X011039Y018901D01*
X010907Y018769D01*
X010512Y018769D01*
X011304Y018505D02*
X011567Y018505D01*
X011436Y018505D02*
X011436Y019033D01*
X011304Y019033D01*
X011436Y019296D02*
X011436Y019428D01*
X007081Y019033D02*
X007081Y018637D01*
D11*
X001013Y001115D02*
X000783Y001115D01*
X000783Y001576D01*
X001013Y001576D01*
X001090Y001499D01*
X001090Y001192D01*
X001013Y001115D01*
X001243Y001115D02*
X001550Y001422D01*
X001550Y001499D01*
X001474Y001576D01*
X001320Y001576D01*
X001243Y001499D01*
X001243Y001115D02*
X001550Y001115D01*
X004079Y001144D02*
X004309Y001144D01*
X004386Y001221D01*
X004386Y001374D01*
X004309Y001451D01*
X004079Y001451D01*
X004079Y000990D01*
X004232Y001144D02*
X004386Y000990D01*
X004539Y001067D02*
X004616Y000990D01*
X004769Y000990D01*
X004846Y001067D01*
X004846Y001144D01*
X004769Y001221D01*
X004616Y001221D01*
X004539Y001297D01*
X004539Y001374D01*
X004616Y001451D01*
X004769Y001451D01*
X004846Y001374D01*
X005000Y001451D02*
X005000Y000990D01*
X005307Y000990D01*
X005460Y000990D02*
X005460Y001451D01*
X005767Y000990D01*
X005767Y001451D01*
X005920Y001374D02*
X005920Y001297D01*
X005997Y001221D01*
X006151Y001221D01*
X006227Y001144D01*
X006227Y001067D01*
X006151Y000990D01*
X005997Y000990D01*
X005920Y001067D01*
X005920Y001374D02*
X005997Y001451D01*
X006151Y001451D01*
X006227Y001374D01*
X006381Y001451D02*
X006381Y000990D01*
X006688Y000990D01*
X006534Y001221D02*
X006381Y001221D01*
X006381Y001451D02*
X006688Y001451D01*
X005307Y001451D02*
X005000Y001451D01*
X005000Y001221D02*
X005153Y001221D01*
X002224Y004740D02*
X002070Y004740D01*
X001993Y004817D01*
X001840Y004817D02*
X001763Y004740D01*
X001610Y004740D01*
X001533Y004817D01*
X001533Y005124D01*
X001610Y005201D01*
X001763Y005201D01*
X001840Y005124D01*
X001993Y005201D02*
X001993Y004971D01*
X002147Y005047D01*
X002224Y005047D01*
X002300Y004971D01*
X002300Y004817D01*
X002224Y004740D01*
X002300Y005201D02*
X001993Y005201D01*
X005445Y007387D02*
X005445Y007702D01*
X005445Y007387D02*
X006350Y006481D01*
X008673Y006481D01*
X008673Y007702D01*
X008673Y008489D02*
X008673Y009710D01*
X006350Y009710D01*
X005445Y008804D01*
X005445Y008489D01*
X004675Y009192D02*
X004599Y009115D01*
X004445Y009115D01*
X004368Y009192D01*
X004215Y009192D02*
X004215Y009499D01*
X004138Y009576D01*
X003908Y009576D01*
X003908Y009115D01*
X004138Y009115D01*
X004215Y009192D01*
X004522Y009346D02*
X004599Y009346D01*
X004675Y009269D01*
X004675Y009192D01*
X004599Y009346D02*
X004675Y009422D01*
X004675Y009499D01*
X004599Y009576D01*
X004445Y009576D01*
X004368Y009499D01*
X003596Y010865D02*
X003289Y010865D01*
X003136Y010865D02*
X002982Y011019D01*
X003059Y011019D02*
X002829Y011019D01*
X002829Y010865D02*
X002829Y011326D01*
X003059Y011326D01*
X003136Y011249D01*
X003136Y011096D01*
X003059Y011019D01*
X003289Y011172D02*
X003443Y011326D01*
X003443Y010865D01*
X002175Y011942D02*
X002099Y011865D01*
X001945Y011865D01*
X001868Y011942D01*
X001715Y011942D02*
X001638Y011865D01*
X001485Y011865D01*
X001408Y011942D01*
X001408Y012249D01*
X001485Y012326D01*
X001638Y012326D01*
X001715Y012249D01*
X001868Y012249D02*
X001945Y012326D01*
X002099Y012326D01*
X002175Y012249D01*
X002175Y012172D01*
X002099Y012096D01*
X002175Y012019D01*
X002175Y011942D01*
X002099Y012096D02*
X002022Y012096D01*
X002470Y012415D02*
X002656Y012415D01*
X002563Y012415D02*
X002563Y012696D01*
X002470Y012602D01*
X003321Y012645D02*
X003367Y012692D01*
X003461Y012692D01*
X003508Y012645D01*
X003508Y012599D01*
X003321Y012412D01*
X003508Y012412D01*
X004231Y012462D02*
X004277Y012415D01*
X004371Y012415D01*
X004418Y012462D01*
X004418Y012509D01*
X004371Y012556D01*
X004324Y012556D01*
X004371Y012556D02*
X004418Y012602D01*
X004418Y012649D01*
X004371Y012696D01*
X004277Y012696D01*
X004231Y012649D01*
X004453Y012692D02*
X004530Y012615D01*
X004837Y012615D01*
X004914Y012692D01*
X004914Y012846D01*
X004837Y012922D01*
X004684Y013076D02*
X004684Y013383D01*
X004914Y013306D02*
X004453Y013306D01*
X004684Y013076D01*
X004530Y012922D02*
X004453Y012846D01*
X004453Y012692D01*
X005329Y014260D02*
X005482Y014260D01*
X005406Y014260D02*
X005406Y014721D01*
X005482Y014721D02*
X005329Y014721D01*
X005636Y014644D02*
X005636Y014337D01*
X005713Y014260D01*
X005866Y014260D01*
X005943Y014337D01*
X006096Y014491D02*
X006403Y014491D01*
X006326Y014721D02*
X006326Y014260D01*
X006096Y014491D02*
X006326Y014721D01*
X005943Y014644D02*
X005866Y014721D01*
X005713Y014721D01*
X005636Y014644D01*
X004719Y015115D02*
X004719Y015396D01*
X004579Y015256D01*
X004766Y015256D01*
X003643Y015981D02*
X001320Y015981D01*
X001320Y017202D01*
X001320Y017989D02*
X001320Y019210D01*
X003643Y019210D01*
X004548Y018304D01*
X004548Y017989D01*
X004954Y017894D02*
X005184Y017894D01*
X005261Y017971D01*
X005261Y018124D01*
X005184Y018201D01*
X004954Y018201D01*
X004954Y017740D01*
X005107Y017894D02*
X005261Y017740D01*
X005414Y017817D02*
X005414Y017971D01*
X005491Y018047D01*
X005644Y018047D01*
X005721Y017971D01*
X005721Y017894D01*
X005414Y017894D01*
X005414Y017817D02*
X005491Y017740D01*
X005644Y017740D01*
X006028Y017740D02*
X006182Y018047D01*
X006335Y017817D02*
X006412Y017817D01*
X006412Y017740D01*
X006335Y017740D01*
X006335Y017817D01*
X006028Y017740D02*
X005875Y018047D01*
X007026Y018047D02*
X007179Y018201D01*
X007179Y017740D01*
X007026Y017740D02*
X007333Y017740D01*
X007486Y017740D02*
X007563Y017740D01*
X007563Y017817D01*
X007486Y017817D01*
X007486Y017740D01*
X007716Y017817D02*
X008023Y018124D01*
X008023Y017817D01*
X007946Y017740D01*
X007793Y017740D01*
X007716Y017817D01*
X007716Y018124D01*
X007793Y018201D01*
X007946Y018201D01*
X008023Y018124D01*
X008177Y017817D02*
X008253Y017817D01*
X008253Y017740D01*
X008177Y017740D01*
X008177Y017817D01*
X008407Y017817D02*
X008484Y017740D01*
X008637Y017740D01*
X008714Y017817D01*
X008714Y018124D01*
X008407Y017817D01*
X008407Y018124D01*
X008484Y018201D01*
X008637Y018201D01*
X008714Y018124D01*
X004548Y017202D02*
X004548Y016887D01*
X003643Y015981D01*
X004450Y017241D02*
X004430Y017164D01*
X004407Y017089D01*
X004379Y017015D01*
X004348Y016943D01*
X004313Y016872D01*
X004275Y016803D01*
X004233Y016737D01*
X004188Y016672D01*
X004140Y016610D01*
X004088Y016550D01*
X004034Y016493D01*
X003977Y016439D01*
X003917Y016387D01*
X003855Y016339D01*
X003790Y016294D01*
X003723Y016253D01*
X003654Y016215D01*
X003583Y016180D01*
X003511Y016149D01*
X003437Y016121D01*
X003362Y016098D01*
X003286Y016078D01*
X003208Y016062D01*
X003130Y016050D01*
X003052Y016042D01*
X002973Y016038D01*
X002895Y016038D01*
X002816Y016042D01*
X002738Y016050D01*
X002660Y016062D01*
X002582Y016078D01*
X002506Y016098D01*
X002431Y016121D01*
X002357Y016149D01*
X002285Y016180D01*
X002214Y016215D01*
X002145Y016253D01*
X002078Y016294D01*
X002013Y016339D01*
X001951Y016387D01*
X001891Y016439D01*
X001834Y016493D01*
X001780Y016550D01*
X001728Y016610D01*
X001680Y016672D01*
X001635Y016737D01*
X001593Y016803D01*
X001555Y016872D01*
X001520Y016943D01*
X001489Y017015D01*
X001461Y017089D01*
X001438Y017164D01*
X001418Y017241D01*
X001418Y017949D02*
X001438Y018026D01*
X001461Y018101D01*
X001489Y018175D01*
X001520Y018247D01*
X001555Y018318D01*
X001593Y018387D01*
X001635Y018453D01*
X001680Y018518D01*
X001728Y018580D01*
X001780Y018640D01*
X001834Y018697D01*
X001891Y018751D01*
X001951Y018803D01*
X002013Y018851D01*
X002078Y018896D01*
X002145Y018937D01*
X002214Y018975D01*
X002285Y019010D01*
X002357Y019041D01*
X002431Y019069D01*
X002506Y019092D01*
X002582Y019112D01*
X002660Y019128D01*
X002738Y019140D01*
X002816Y019148D01*
X002895Y019152D01*
X002973Y019152D01*
X003052Y019148D01*
X003130Y019140D01*
X003208Y019128D01*
X003286Y019112D01*
X003362Y019092D01*
X003437Y019069D01*
X003511Y019041D01*
X003583Y019010D01*
X003654Y018975D01*
X003723Y018937D01*
X003790Y018896D01*
X003855Y018851D01*
X003917Y018803D01*
X003977Y018751D01*
X004034Y018697D01*
X004088Y018640D01*
X004140Y018580D01*
X004188Y018518D01*
X004233Y018453D01*
X004275Y018387D01*
X004313Y018318D01*
X004348Y018247D01*
X004379Y018175D01*
X004407Y018101D01*
X004430Y018026D01*
X004450Y017949D01*
X007198Y013326D02*
X007428Y013326D01*
X007505Y013249D01*
X007505Y013096D01*
X007428Y013019D01*
X007198Y013019D01*
X007198Y012865D02*
X007198Y013326D01*
X007658Y013326D02*
X007658Y012865D01*
X007812Y013019D01*
X007965Y012865D01*
X007965Y013326D01*
X008118Y013326D02*
X008349Y013326D01*
X008425Y013249D01*
X008425Y013096D01*
X008349Y013019D01*
X008118Y013019D01*
X008118Y012865D02*
X008118Y013326D01*
X008272Y013019D02*
X008425Y012865D01*
X007849Y011826D02*
X007618Y011596D01*
X007925Y011596D01*
X007849Y011826D02*
X007849Y011365D01*
X007465Y011365D02*
X007158Y011365D01*
X007005Y011365D02*
X006851Y011519D01*
X006928Y011519D02*
X006698Y011519D01*
X006698Y011365D02*
X006698Y011826D01*
X006928Y011826D01*
X007005Y011749D01*
X007005Y011596D01*
X006928Y011519D01*
X007158Y011672D02*
X007312Y011826D01*
X007312Y011365D01*
X007099Y010326D02*
X006945Y010326D01*
X006868Y010249D01*
X006715Y010249D02*
X006715Y010096D01*
X006638Y010019D01*
X006408Y010019D01*
X006408Y009865D02*
X006408Y010326D01*
X006638Y010326D01*
X006715Y010249D01*
X006562Y010019D02*
X006715Y009865D01*
X006868Y009865D02*
X007175Y010172D01*
X007175Y010249D01*
X007099Y010326D01*
X007175Y009865D02*
X006868Y009865D01*
X005543Y008449D02*
X005563Y008526D01*
X005586Y008601D01*
X005614Y008675D01*
X005645Y008747D01*
X005680Y008818D01*
X005718Y008887D01*
X005760Y008953D01*
X005805Y009018D01*
X005853Y009080D01*
X005905Y009140D01*
X005959Y009197D01*
X006016Y009251D01*
X006076Y009303D01*
X006138Y009351D01*
X006203Y009396D01*
X006270Y009437D01*
X006339Y009475D01*
X006410Y009510D01*
X006482Y009541D01*
X006556Y009569D01*
X006631Y009592D01*
X006707Y009612D01*
X006785Y009628D01*
X006863Y009640D01*
X006941Y009648D01*
X007020Y009652D01*
X007098Y009652D01*
X007177Y009648D01*
X007255Y009640D01*
X007333Y009628D01*
X007411Y009612D01*
X007487Y009592D01*
X007562Y009569D01*
X007636Y009541D01*
X007708Y009510D01*
X007779Y009475D01*
X007848Y009437D01*
X007915Y009396D01*
X007980Y009351D01*
X008042Y009303D01*
X008102Y009251D01*
X008159Y009197D01*
X008213Y009140D01*
X008265Y009080D01*
X008313Y009018D01*
X008358Y008953D01*
X008400Y008887D01*
X008438Y008818D01*
X008473Y008747D01*
X008504Y008675D01*
X008532Y008601D01*
X008555Y008526D01*
X008575Y008449D01*
X008575Y007741D02*
X008555Y007664D01*
X008532Y007589D01*
X008504Y007515D01*
X008473Y007443D01*
X008438Y007372D01*
X008400Y007303D01*
X008358Y007237D01*
X008313Y007172D01*
X008265Y007110D01*
X008213Y007050D01*
X008159Y006993D01*
X008102Y006939D01*
X008042Y006887D01*
X007980Y006839D01*
X007915Y006794D01*
X007848Y006753D01*
X007779Y006715D01*
X007708Y006680D01*
X007636Y006649D01*
X007562Y006621D01*
X007487Y006598D01*
X007411Y006578D01*
X007333Y006562D01*
X007255Y006550D01*
X007177Y006542D01*
X007098Y006538D01*
X007020Y006538D01*
X006941Y006542D01*
X006863Y006550D01*
X006785Y006562D01*
X006707Y006578D01*
X006631Y006598D01*
X006556Y006621D01*
X006482Y006649D01*
X006410Y006680D01*
X006339Y006715D01*
X006270Y006753D01*
X006203Y006794D01*
X006138Y006839D01*
X006076Y006887D01*
X006016Y006939D01*
X005959Y006993D01*
X005905Y007050D01*
X005853Y007110D01*
X005805Y007172D01*
X005760Y007237D01*
X005718Y007303D01*
X005680Y007372D01*
X005645Y007443D01*
X005614Y007515D01*
X005586Y007589D01*
X005563Y007664D01*
X005543Y007741D01*
X009698Y005326D02*
X009928Y005326D01*
X010005Y005249D01*
X010005Y005096D01*
X009928Y005019D01*
X009698Y005019D01*
X009851Y005019D02*
X010005Y004865D01*
X010158Y004865D02*
X010465Y004865D01*
X010312Y004865D02*
X010312Y005326D01*
X010158Y005172D01*
X010618Y005249D02*
X010695Y005326D01*
X010849Y005326D01*
X010925Y005249D01*
X010925Y005172D01*
X010618Y004865D01*
X010925Y004865D01*
X011573Y005615D02*
X011573Y006076D01*
X011803Y006076D01*
X011880Y005999D01*
X011880Y005846D01*
X011803Y005769D01*
X011573Y005769D01*
X011726Y005769D02*
X011880Y005615D01*
X012033Y005615D02*
X012340Y005615D01*
X012187Y005615D02*
X012187Y006076D01*
X012033Y005922D01*
X012493Y005922D02*
X012647Y006076D01*
X012647Y005615D01*
X012800Y005615D02*
X012493Y005615D01*
X013908Y005374D02*
X013908Y005067D01*
X013985Y004990D01*
X014138Y004990D01*
X014215Y005067D01*
X014215Y005374D01*
X014138Y005451D01*
X013985Y005451D01*
X013908Y005374D01*
X014062Y005144D02*
X014215Y004990D01*
X014368Y005221D02*
X014675Y005221D01*
X014599Y005451D02*
X014599Y004990D01*
X014368Y005221D02*
X014599Y005451D01*
X013230Y007678D02*
X013076Y007678D01*
X013000Y007755D01*
X013307Y008062D01*
X013307Y007755D01*
X013230Y007678D01*
X013000Y007755D02*
X013000Y008062D01*
X013076Y008138D01*
X013230Y008138D01*
X013307Y008062D01*
X012693Y008138D02*
X012693Y007678D01*
X012846Y007678D02*
X012539Y007678D01*
X012386Y007678D02*
X012232Y007831D01*
X012309Y007831D02*
X012079Y007831D01*
X012079Y007678D02*
X012079Y008138D01*
X012309Y008138D01*
X012386Y008062D01*
X012386Y007908D01*
X012309Y007831D01*
X012539Y007985D02*
X012693Y008138D01*
X011550Y008942D02*
X011550Y009019D01*
X011474Y009096D01*
X011243Y009096D01*
X011243Y008942D01*
X011320Y008865D01*
X011474Y008865D01*
X011550Y008942D01*
X011397Y009249D02*
X011243Y009096D01*
X011090Y009249D02*
X011090Y008942D01*
X011013Y008865D01*
X010783Y008865D01*
X010783Y009326D01*
X011013Y009326D01*
X011090Y009249D01*
X011397Y009249D02*
X011550Y009326D01*
X010644Y006888D02*
X010491Y006888D01*
X010414Y006812D01*
X010414Y006735D01*
X010491Y006658D01*
X010721Y006658D01*
X010721Y006505D02*
X010721Y006812D01*
X010644Y006888D01*
X010261Y006812D02*
X010261Y006658D01*
X010184Y006581D01*
X009954Y006581D01*
X009954Y006428D02*
X009954Y006888D01*
X010184Y006888D01*
X010261Y006812D01*
X010107Y006581D02*
X010261Y006428D01*
X010414Y006505D02*
X010491Y006428D01*
X010644Y006428D01*
X010721Y006505D01*
X009698Y005326D02*
X009698Y004865D01*
X018029Y002581D02*
X018029Y000691D01*
X018935Y000691D01*
X019683Y000691D02*
X020588Y000691D01*
X020588Y002581D01*
X019919Y003250D01*
X019683Y003250D01*
X018935Y003250D02*
X018699Y003250D01*
X018029Y002581D01*
X019683Y003131D02*
X019747Y003109D01*
X019810Y003082D01*
X019872Y003052D01*
X019931Y003019D01*
X019989Y002983D01*
X020045Y002943D01*
X020098Y002900D01*
X020149Y002855D01*
X020197Y002807D01*
X020242Y002756D01*
X020285Y002702D01*
X020324Y002646D01*
X020361Y002589D01*
X020394Y002529D01*
X020423Y002467D01*
X020449Y002404D01*
X020472Y002340D01*
X020491Y002274D01*
X020506Y002207D01*
X020517Y002140D01*
X020525Y002072D01*
X020529Y002004D01*
X020529Y001936D01*
X020525Y001868D01*
X020517Y001800D01*
X020506Y001733D01*
X020491Y001666D01*
X020472Y001600D01*
X020449Y001536D01*
X020423Y001473D01*
X020394Y001411D01*
X020361Y001351D01*
X020324Y001294D01*
X020285Y001238D01*
X020242Y001184D01*
X020197Y001133D01*
X020149Y001085D01*
X020098Y001040D01*
X020045Y000997D01*
X019989Y000957D01*
X019931Y000921D01*
X019872Y000888D01*
X019810Y000858D01*
X019747Y000831D01*
X019683Y000809D01*
X018935Y000809D02*
X018871Y000831D01*
X018808Y000858D01*
X018746Y000888D01*
X018687Y000921D01*
X018629Y000957D01*
X018573Y000997D01*
X018520Y001040D01*
X018469Y001085D01*
X018421Y001133D01*
X018376Y001184D01*
X018333Y001238D01*
X018294Y001294D01*
X018257Y001351D01*
X018224Y001411D01*
X018195Y001473D01*
X018169Y001536D01*
X018146Y001600D01*
X018127Y001666D01*
X018112Y001733D01*
X018101Y001800D01*
X018093Y001868D01*
X018089Y001936D01*
X018089Y002004D01*
X018093Y002072D01*
X018101Y002140D01*
X018112Y002207D01*
X018127Y002274D01*
X018146Y002340D01*
X018169Y002404D01*
X018195Y002467D01*
X018224Y002529D01*
X018257Y002589D01*
X018294Y002646D01*
X018333Y002702D01*
X018376Y002756D01*
X018421Y002807D01*
X018469Y002855D01*
X018520Y002900D01*
X018573Y002943D01*
X018629Y002983D01*
X018687Y003019D01*
X018746Y003052D01*
X018808Y003082D01*
X018871Y003109D01*
X018935Y003131D01*
X026578Y004859D02*
X026578Y005089D01*
X026655Y005166D01*
X026809Y005166D01*
X026885Y005089D01*
X026885Y004859D01*
X026885Y005013D02*
X027039Y005166D01*
X027039Y005320D02*
X027039Y005627D01*
X027039Y005473D02*
X026578Y005473D01*
X026732Y005320D01*
X026809Y005780D02*
X026578Y005780D01*
X026578Y006087D01*
X026732Y006010D02*
X026809Y006087D01*
X026962Y006087D01*
X027039Y006010D01*
X027039Y005857D01*
X026962Y005780D01*
X026809Y005780D02*
X026732Y005934D01*
X026732Y006010D01*
X026578Y004859D02*
X027039Y004859D01*
X029804Y004966D02*
X029804Y005221D01*
X029804Y004966D02*
X030749Y004966D01*
X031024Y005241D01*
X030887Y005240D02*
X030857Y005205D01*
X030825Y005173D01*
X030790Y005143D01*
X030752Y005116D01*
X030713Y005092D01*
X030672Y005072D01*
X030629Y005054D01*
X030585Y005041D01*
X030540Y005031D01*
X030495Y005024D01*
X030449Y005021D01*
X030403Y005022D01*
X030357Y005026D01*
X030312Y005035D01*
X030267Y005046D01*
X030224Y005062D01*
X030182Y005080D01*
X030141Y005103D01*
X030103Y005128D01*
X030066Y005156D01*
X030032Y005187D01*
X030001Y005221D01*
X030001Y005969D02*
X030033Y006003D01*
X030068Y006034D01*
X030105Y006063D01*
X030144Y006088D01*
X030185Y006110D01*
X030228Y006129D01*
X030273Y006144D01*
X030318Y006155D01*
X030364Y006163D01*
X030411Y006167D01*
X030457Y006167D01*
X030504Y006163D01*
X030550Y006155D01*
X030595Y006144D01*
X030640Y006129D01*
X030683Y006110D01*
X030724Y006088D01*
X030763Y006063D01*
X030800Y006034D01*
X030835Y006003D01*
X030867Y005969D01*
X031024Y005950D02*
X030749Y006225D01*
X029804Y006225D01*
X029804Y005969D01*
X029804Y006466D02*
X029804Y006721D01*
X029804Y006466D02*
X030749Y006466D01*
X031024Y006741D01*
X030887Y006740D02*
X030857Y006705D01*
X030825Y006673D01*
X030790Y006643D01*
X030752Y006616D01*
X030713Y006592D01*
X030672Y006572D01*
X030629Y006554D01*
X030585Y006541D01*
X030540Y006531D01*
X030495Y006524D01*
X030449Y006521D01*
X030403Y006522D01*
X030357Y006526D01*
X030312Y006535D01*
X030267Y006546D01*
X030224Y006562D01*
X030182Y006580D01*
X030141Y006603D01*
X030103Y006628D01*
X030066Y006656D01*
X030032Y006687D01*
X030001Y006721D01*
X030001Y007469D02*
X030033Y007503D01*
X030068Y007534D01*
X030105Y007563D01*
X030144Y007588D01*
X030185Y007610D01*
X030228Y007629D01*
X030273Y007644D01*
X030318Y007655D01*
X030364Y007663D01*
X030411Y007667D01*
X030457Y007667D01*
X030504Y007663D01*
X030550Y007655D01*
X030595Y007644D01*
X030640Y007629D01*
X030683Y007610D01*
X030724Y007588D01*
X030763Y007563D01*
X030800Y007534D01*
X030835Y007503D01*
X030867Y007469D01*
X031024Y007450D02*
X030749Y007725D01*
X029804Y007725D01*
X029804Y007469D01*
X029724Y008865D02*
X029570Y008865D01*
X029493Y008942D01*
X029340Y008865D02*
X029187Y009019D01*
X029263Y009019D02*
X029033Y009019D01*
X029033Y008865D02*
X029033Y009326D01*
X029263Y009326D01*
X029340Y009249D01*
X029340Y009096D01*
X029263Y009019D01*
X029493Y009249D02*
X029570Y009326D01*
X029724Y009326D01*
X029800Y009249D01*
X029800Y009172D01*
X029724Y009096D01*
X029800Y009019D01*
X029800Y008942D01*
X029724Y008865D01*
X029724Y009096D02*
X029647Y009096D01*
X029915Y009394D02*
X029482Y009827D01*
X029915Y009394D02*
X031136Y009394D01*
X031136Y009886D01*
X031193Y009326D02*
X031193Y008865D01*
X031346Y008865D02*
X031039Y008865D01*
X030886Y008942D02*
X030809Y008865D01*
X030656Y008865D01*
X030579Y008942D01*
X030579Y009249D01*
X030656Y009326D01*
X030809Y009326D01*
X030886Y009249D01*
X031039Y009172D02*
X031193Y009326D01*
X031500Y009326D02*
X031807Y009326D01*
X031807Y009249D01*
X031500Y008942D01*
X031500Y008865D01*
X030998Y010555D02*
X030972Y010603D01*
X030943Y010650D01*
X030910Y010695D01*
X030874Y010737D01*
X030835Y010776D01*
X030794Y010813D01*
X030750Y010846D01*
X030704Y010877D01*
X030655Y010903D01*
X030605Y010926D01*
X030553Y010946D01*
X030500Y010962D01*
X030446Y010974D01*
X030392Y010982D01*
X030337Y010986D01*
X030281Y010986D01*
X030226Y010982D01*
X030172Y010974D01*
X030118Y010962D01*
X030065Y010946D01*
X030013Y010926D01*
X029963Y010903D01*
X029914Y010877D01*
X029868Y010846D01*
X029824Y010813D01*
X029783Y010776D01*
X029744Y010737D01*
X029708Y010695D01*
X029675Y010650D01*
X029646Y010603D01*
X029620Y010555D01*
X029482Y010614D02*
X029915Y011047D01*
X031136Y011047D01*
X031136Y010555D01*
X030998Y009885D02*
X030972Y009837D01*
X030943Y009790D01*
X030910Y009745D01*
X030874Y009703D01*
X030835Y009664D01*
X030794Y009627D01*
X030750Y009594D01*
X030704Y009563D01*
X030655Y009537D01*
X030605Y009514D01*
X030553Y009494D01*
X030500Y009478D01*
X030446Y009466D01*
X030392Y009458D01*
X030337Y009454D01*
X030281Y009454D01*
X030226Y009458D01*
X030172Y009466D01*
X030118Y009478D01*
X030065Y009494D01*
X030013Y009514D01*
X029963Y009537D01*
X029914Y009563D01*
X029868Y009594D01*
X029824Y009627D01*
X029783Y009664D01*
X029744Y009703D01*
X029708Y009745D01*
X029675Y009790D01*
X029646Y009837D01*
X029620Y009885D01*
X028182Y009922D02*
X028182Y009999D01*
X028105Y010076D01*
X027951Y010076D01*
X027875Y009999D01*
X028182Y009922D02*
X027875Y009615D01*
X028182Y009615D01*
X027721Y009615D02*
X027414Y009615D01*
X027568Y009615D02*
X027568Y010076D01*
X027414Y009922D01*
X027261Y009999D02*
X027184Y010076D01*
X027031Y010076D01*
X026954Y009999D01*
X026954Y009692D01*
X027031Y009615D01*
X027184Y009615D01*
X027261Y009692D01*
X027224Y010365D02*
X027070Y010365D01*
X026993Y010442D01*
X026993Y010596D01*
X027224Y010596D01*
X027300Y010519D01*
X027300Y010442D01*
X027224Y010365D01*
X026993Y010596D02*
X027147Y010749D01*
X027300Y010826D01*
X026840Y010749D02*
X026763Y010826D01*
X026610Y010826D01*
X026533Y010749D01*
X026533Y010442D01*
X026610Y010365D01*
X026763Y010365D01*
X026840Y010442D01*
X027198Y012115D02*
X027198Y012576D01*
X027428Y012576D01*
X027505Y012499D01*
X027505Y012346D01*
X027428Y012269D01*
X027198Y012269D01*
X027351Y012269D02*
X027505Y012115D01*
X027658Y012115D02*
X027965Y012115D01*
X027812Y012115D02*
X027812Y012576D01*
X027658Y012422D01*
X028118Y012499D02*
X028195Y012576D01*
X028349Y012576D01*
X028425Y012499D01*
X028425Y012422D01*
X028349Y012346D01*
X028425Y012269D01*
X028425Y012192D01*
X028349Y012115D01*
X028195Y012115D01*
X028118Y012192D01*
X028272Y012346D02*
X028349Y012346D01*
X030179Y013156D02*
X030179Y014100D01*
X030435Y014100D01*
X031183Y013903D02*
X031217Y013871D01*
X031248Y013836D01*
X031277Y013799D01*
X031302Y013760D01*
X031324Y013719D01*
X031343Y013676D01*
X031358Y013631D01*
X031369Y013586D01*
X031377Y013540D01*
X031381Y013493D01*
X031381Y013447D01*
X031377Y013400D01*
X031369Y013354D01*
X031358Y013309D01*
X031343Y013264D01*
X031324Y013221D01*
X031302Y013180D01*
X031277Y013141D01*
X031248Y013104D01*
X031217Y013069D01*
X031183Y013037D01*
X031163Y012880D02*
X031439Y013156D01*
X031439Y014100D01*
X031183Y014100D01*
X030435Y013904D02*
X030401Y013873D01*
X030370Y013839D01*
X030342Y013802D01*
X030317Y013764D01*
X030294Y013723D01*
X030276Y013681D01*
X030260Y013638D01*
X030249Y013593D01*
X030240Y013548D01*
X030236Y013502D01*
X030235Y013456D01*
X030238Y013410D01*
X030245Y013365D01*
X030255Y013320D01*
X030268Y013276D01*
X030286Y013233D01*
X030306Y013192D01*
X030330Y013153D01*
X030357Y013115D01*
X030387Y013080D01*
X030419Y013048D01*
X030454Y013018D01*
X030455Y012880D02*
X030179Y013156D01*
X026912Y008440D02*
X026835Y008440D01*
X026759Y008363D01*
X026759Y008133D01*
X026912Y008133D01*
X026989Y008210D01*
X026989Y008363D01*
X026912Y008440D01*
X026605Y008286D02*
X026759Y008133D01*
X026912Y007979D02*
X026989Y007903D01*
X026989Y007749D01*
X026912Y007672D01*
X026605Y007672D01*
X026528Y007749D01*
X026528Y007903D01*
X026605Y007979D01*
X026605Y008286D02*
X026528Y008440D01*
X026528Y007519D02*
X026528Y007365D01*
X026528Y007442D02*
X026989Y007442D01*
X026989Y007365D02*
X026989Y007519D01*
X021471Y011499D02*
X021164Y011192D01*
X021164Y011115D01*
X021011Y011115D02*
X020857Y011269D01*
X020934Y011269D02*
X020704Y011269D01*
X020704Y011115D02*
X020704Y011576D01*
X020934Y011576D01*
X021011Y011499D01*
X021011Y011346D01*
X020934Y011269D01*
X021164Y011576D02*
X021471Y011576D01*
X021471Y011499D01*
X019602Y013428D02*
X019602Y013505D01*
X019909Y013812D01*
X019909Y013888D01*
X019602Y013888D01*
X019448Y013812D02*
X019372Y013888D01*
X019218Y013888D01*
X019141Y013812D01*
X019141Y013505D01*
X019218Y013428D01*
X019372Y013428D01*
X019448Y013505D01*
X017425Y011874D02*
X017349Y011951D01*
X017195Y011951D01*
X017118Y011874D01*
X017118Y011567D01*
X017425Y011874D01*
X017425Y011567D01*
X017349Y011490D01*
X017195Y011490D01*
X017118Y011567D01*
X016965Y011490D02*
X016658Y011490D01*
X016812Y011490D02*
X016812Y011951D01*
X016658Y011797D01*
X016505Y011874D02*
X016428Y011951D01*
X016274Y011951D01*
X016198Y011874D01*
X016198Y011567D01*
X016274Y011490D01*
X016428Y011490D01*
X016505Y011567D01*
X014807Y012240D02*
X014500Y012240D01*
X014653Y012240D02*
X014653Y012701D01*
X014500Y012547D01*
X014346Y012240D02*
X014039Y012240D01*
X014193Y012240D02*
X014193Y012701D01*
X014039Y012547D01*
X013886Y012624D02*
X013809Y012701D01*
X013656Y012701D01*
X013579Y012624D01*
X013579Y012317D01*
X013656Y012240D01*
X013809Y012240D01*
X013886Y012317D01*
D12*
X013784Y012895D02*
X018084Y012895D01*
X018101Y012897D01*
X018118Y012901D01*
X018134Y012908D01*
X018148Y012918D01*
X018161Y012931D01*
X018171Y012945D01*
X018178Y012961D01*
X018182Y012978D01*
X018184Y012995D01*
X018184Y013395D01*
X018184Y014295D02*
X018184Y014695D01*
X018182Y014712D01*
X018178Y014729D01*
X018171Y014745D01*
X018161Y014759D01*
X018148Y014772D01*
X018134Y014782D01*
X018118Y014789D01*
X018101Y014793D01*
X018084Y014795D01*
X013784Y014795D01*
X013767Y014793D01*
X013750Y014789D01*
X013734Y014782D01*
X013720Y014772D01*
X013707Y014759D01*
X013697Y014745D01*
X013690Y014729D01*
X013686Y014712D01*
X013684Y014695D01*
X013684Y014295D01*
X013684Y013395D02*
X013684Y012995D01*
X013686Y012978D01*
X013690Y012961D01*
X013697Y012945D01*
X013707Y012931D01*
X013720Y012918D01*
X013734Y012908D01*
X013750Y012901D01*
X013767Y012897D01*
X013784Y012895D01*
X012934Y011970D02*
X013184Y011720D01*
X013184Y011220D01*
X012934Y010970D01*
X012434Y010970D01*
X012184Y011220D01*
X011934Y010970D01*
X011434Y010970D01*
X011184Y011220D01*
X010934Y010970D01*
X010434Y010970D01*
X010184Y011220D01*
X010184Y011720D01*
X010434Y011970D01*
X010934Y011970D01*
X011184Y011720D01*
X011434Y011970D01*
X011934Y011970D01*
X012184Y011720D01*
X012434Y011970D01*
X012934Y011970D01*
X012044Y013095D02*
X011864Y013215D01*
X011784Y013175D01*
X011644Y013515D01*
X011404Y013515D02*
X011254Y013175D01*
X011184Y013215D01*
X011004Y013095D01*
X010864Y013235D01*
X010984Y013415D01*
X010904Y013615D02*
X010684Y013655D01*
X010684Y013855D01*
X010914Y013895D01*
X010994Y014085D02*
X010864Y014275D01*
X011004Y014415D01*
X011194Y014285D01*
X011374Y014355D02*
X011424Y014595D01*
X011614Y014595D01*
X011664Y014355D01*
X011844Y014285D02*
X012044Y014415D01*
X012184Y014275D01*
X012044Y014085D01*
X012134Y013895D02*
X012354Y013855D01*
X012354Y013655D01*
X012134Y013615D01*
X012054Y013415D02*
X012184Y013235D01*
X012044Y013095D01*
X012136Y013896D02*
X012124Y013936D01*
X012109Y013975D01*
X012091Y014013D01*
X012071Y014049D01*
X012049Y014084D01*
X011644Y013515D02*
X011672Y013531D01*
X011699Y013550D01*
X011722Y013572D01*
X011743Y013597D01*
X011761Y013625D01*
X011776Y013654D01*
X011786Y013685D01*
X011794Y013716D01*
X011797Y013749D01*
X011796Y013781D01*
X011792Y013814D01*
X011783Y013845D01*
X011771Y013875D01*
X011756Y013904D01*
X011737Y013931D01*
X011715Y013955D01*
X011691Y013976D01*
X011664Y013995D01*
X011635Y014010D01*
X011604Y014021D01*
X011573Y014029D01*
X011540Y014033D01*
X011508Y014033D01*
X011475Y014029D01*
X011444Y014021D01*
X011413Y014010D01*
X011384Y013995D01*
X011357Y013976D01*
X011333Y013955D01*
X011311Y013931D01*
X011292Y013904D01*
X011277Y013875D01*
X011265Y013845D01*
X011256Y013814D01*
X011252Y013781D01*
X011251Y013749D01*
X011254Y013716D01*
X011262Y013685D01*
X011272Y013654D01*
X011287Y013625D01*
X011305Y013597D01*
X011326Y013572D01*
X011349Y013550D01*
X011376Y013531D01*
X011404Y013515D01*
X011196Y014281D02*
X011238Y014304D01*
X011281Y014323D01*
X011326Y014340D01*
X011372Y014352D01*
X010906Y013599D02*
X010921Y013552D01*
X010939Y013506D01*
X010961Y013462D01*
X010986Y013420D01*
X010912Y013897D02*
X010923Y013937D01*
X010937Y013976D01*
X010953Y014013D01*
X010972Y014050D01*
X010993Y014085D01*
X012133Y013616D02*
X012123Y013574D01*
X012110Y013533D01*
X012094Y013493D01*
X012075Y013454D01*
X012053Y013417D01*
X011843Y014286D02*
X011800Y014309D01*
X011756Y014329D01*
X011710Y014345D01*
X011664Y014357D01*
X011559Y015595D02*
X011059Y015595D01*
X010809Y015845D01*
X010559Y015595D01*
X010059Y015595D01*
X009809Y015845D01*
X009559Y015595D01*
X009059Y015595D01*
X008809Y015845D01*
X008809Y017345D01*
X009059Y017595D01*
X009559Y017595D01*
X009809Y017345D01*
X010059Y017595D01*
X010559Y017595D01*
X010809Y017345D01*
X011059Y017595D01*
X011559Y017595D01*
X011809Y017345D01*
X012059Y017595D01*
X012559Y017595D01*
X012809Y017345D01*
X013059Y017595D01*
X013559Y017595D01*
X013809Y017345D01*
X013809Y015845D01*
X013559Y015595D01*
X013059Y015595D01*
X012809Y015845D01*
X012559Y015595D01*
X012059Y015595D01*
X011809Y015845D01*
X011559Y015595D01*
X015684Y014095D02*
X015684Y013845D01*
X015684Y013595D01*
X015834Y013595D02*
X016034Y013595D01*
X016034Y014095D01*
X015834Y014095D01*
X015834Y013595D01*
X016184Y013595D02*
X016184Y013845D01*
X016184Y014095D01*
X020809Y015770D02*
X020809Y016170D01*
X020811Y016196D01*
X020816Y016222D01*
X020824Y016247D01*
X020836Y016270D01*
X020850Y016292D01*
X020868Y016311D01*
X020887Y016329D01*
X020909Y016343D01*
X020932Y016355D01*
X020957Y016363D01*
X020983Y016368D01*
X021009Y016370D01*
X029609Y016370D01*
X029659Y016320D02*
X029659Y015620D01*
X028959Y015620D01*
X028959Y016320D01*
X029659Y016320D01*
X029609Y016370D02*
X029635Y016368D01*
X029661Y016363D01*
X029686Y016355D01*
X029709Y016343D01*
X029731Y016329D01*
X029750Y016311D01*
X029768Y016292D01*
X029782Y016270D01*
X029794Y016247D01*
X029802Y016222D01*
X029807Y016196D01*
X029809Y016170D01*
X029809Y015770D01*
X029807Y015744D01*
X029802Y015718D01*
X029794Y015693D01*
X029782Y015670D01*
X029768Y015648D01*
X029750Y015629D01*
X029731Y015611D01*
X029709Y015597D01*
X029686Y015585D01*
X029661Y015577D01*
X029635Y015572D01*
X029609Y015570D01*
X021009Y015570D01*
X020983Y015572D01*
X020957Y015577D01*
X020932Y015585D01*
X020909Y015597D01*
X020887Y015611D01*
X020868Y015629D01*
X020850Y015648D01*
X020836Y015670D01*
X020824Y015693D01*
X020816Y015718D01*
X020811Y015744D01*
X020809Y015770D01*
X023309Y013965D02*
X023309Y012725D01*
X023311Y012702D01*
X023316Y012679D01*
X023325Y012657D01*
X023338Y012637D01*
X023353Y012619D01*
X023371Y012604D01*
X023391Y012591D01*
X023413Y012582D01*
X023436Y012577D01*
X023459Y012575D01*
X023309Y013965D02*
X023311Y013988D01*
X023316Y014011D01*
X023325Y014033D01*
X023338Y014053D01*
X023353Y014071D01*
X023371Y014086D01*
X023391Y014099D01*
X023413Y014108D01*
X023436Y014113D01*
X023459Y014115D01*
X027159Y014115D02*
X027182Y014113D01*
X027205Y014108D01*
X027227Y014099D01*
X027247Y014086D01*
X027265Y014071D01*
X027280Y014053D01*
X027293Y014033D01*
X027302Y014011D01*
X027307Y013988D01*
X027309Y013965D01*
X027309Y013545D01*
X027309Y013145D01*
X027309Y012725D01*
X027307Y012702D01*
X027302Y012679D01*
X027293Y012657D01*
X027280Y012637D01*
X027265Y012619D01*
X027247Y012604D01*
X027227Y012591D01*
X027205Y012582D01*
X027182Y012577D01*
X027159Y012575D01*
X027309Y013145D02*
X027282Y013147D01*
X027255Y013152D01*
X027229Y013162D01*
X027205Y013174D01*
X027183Y013190D01*
X027163Y013208D01*
X027146Y013230D01*
X027131Y013253D01*
X027121Y013278D01*
X027113Y013304D01*
X027109Y013331D01*
X027109Y013359D01*
X027113Y013386D01*
X027121Y013412D01*
X027131Y013437D01*
X027146Y013460D01*
X027163Y013482D01*
X027183Y013500D01*
X027205Y013516D01*
X027229Y013528D01*
X027255Y013538D01*
X027282Y013543D01*
X027309Y013545D01*
X031809Y013595D02*
X031809Y013095D01*
X032059Y012845D01*
X031809Y012595D01*
X031809Y012095D01*
X032059Y011845D01*
X032559Y011845D01*
X032809Y012095D01*
X032809Y012595D01*
X032559Y012845D01*
X032809Y013095D01*
X032809Y013595D01*
X032559Y013845D01*
X032809Y014095D01*
X032809Y014595D01*
X032559Y014845D01*
X032809Y015095D01*
X032809Y015595D01*
X032559Y015845D01*
X032059Y015845D01*
X031809Y015595D01*
X031809Y015095D01*
X032059Y014845D01*
X031809Y014595D01*
X031809Y014095D01*
X032059Y013845D01*
X031809Y013595D01*
X031859Y010670D02*
X031859Y010470D01*
X031859Y010670D02*
X032059Y010670D01*
X032559Y010670D02*
X032759Y010670D01*
X032759Y010470D01*
X032759Y009970D02*
X032759Y009770D01*
X032559Y009770D01*
X032559Y009670D02*
X032759Y009670D01*
X032759Y009470D01*
X032759Y008970D02*
X032759Y008770D01*
X032559Y008770D01*
X032059Y008770D02*
X031859Y008770D01*
X031859Y008970D01*
X031859Y009470D02*
X031859Y009670D01*
X032059Y009670D01*
X032059Y009770D02*
X031859Y009770D01*
X031859Y009970D01*
X032059Y007345D02*
X032559Y007345D01*
X032809Y007095D01*
X032809Y006595D01*
X032559Y006345D01*
X032809Y006095D01*
X032809Y005595D01*
X032559Y005345D01*
X032809Y005095D01*
X032809Y004595D01*
X032559Y004345D01*
X032059Y004345D01*
X031809Y004595D01*
X031809Y005095D01*
X032059Y005345D01*
X031809Y005595D01*
X031809Y006095D01*
X032059Y006345D01*
X031809Y006595D01*
X031809Y007095D01*
X032059Y007345D01*
X030809Y003595D02*
X030309Y003595D01*
X030059Y003345D01*
X030059Y002845D01*
X030309Y002595D01*
X030059Y002345D01*
X030059Y001845D01*
X030309Y001595D01*
X030059Y001345D01*
X030059Y000845D01*
X030309Y000595D01*
X030809Y000595D01*
X031059Y000845D01*
X031059Y001345D01*
X030809Y001595D01*
X031059Y001845D01*
X031059Y002345D01*
X030809Y002595D01*
X031059Y002845D01*
X031059Y003345D01*
X030809Y003595D01*
X029559Y003345D02*
X029559Y002845D01*
X029309Y002595D01*
X029559Y002345D01*
X029559Y001845D01*
X029309Y001595D01*
X029559Y001345D01*
X029559Y000845D01*
X029309Y000595D01*
X028809Y000595D01*
X028559Y000845D01*
X028559Y001345D01*
X028809Y001595D01*
X028559Y001845D01*
X028559Y002345D01*
X028809Y002595D01*
X028559Y002845D01*
X028559Y003345D01*
X028809Y003595D01*
X029309Y003595D01*
X029559Y003345D01*
X027559Y003345D02*
X027559Y002845D01*
X027309Y002595D01*
X027559Y002345D01*
X027559Y001845D01*
X027309Y001595D01*
X027559Y001345D01*
X027559Y000845D01*
X027309Y000595D01*
X026809Y000595D01*
X026559Y000845D01*
X026559Y001345D01*
X026809Y001595D01*
X026559Y001845D01*
X026559Y002345D01*
X026809Y002595D01*
X026559Y002845D01*
X026559Y003345D01*
X026809Y003595D01*
X027309Y003595D01*
X027559Y003345D01*
X026059Y003345D02*
X026059Y002845D01*
X025809Y002595D01*
X026059Y002345D01*
X026059Y001845D01*
X025809Y001595D01*
X026059Y001345D01*
X026059Y000845D01*
X025809Y000595D01*
X025309Y000595D01*
X025059Y000845D01*
X025059Y001345D01*
X025309Y001595D01*
X025059Y001845D01*
X025059Y002345D01*
X025309Y002595D01*
X025059Y002845D01*
X025059Y003345D01*
X025309Y003595D01*
X025809Y003595D01*
X026059Y003345D01*
X023809Y003345D02*
X023809Y002845D01*
X023559Y002595D01*
X023809Y002345D01*
X023809Y001845D01*
X023559Y001595D01*
X023809Y001345D01*
X023809Y000845D01*
X023559Y000595D01*
X023059Y000595D01*
X022809Y000845D01*
X022809Y001345D01*
X023059Y001595D01*
X022809Y001845D01*
X022809Y002345D01*
X023059Y002595D01*
X022809Y002845D01*
X022809Y003345D01*
X023059Y003595D01*
X023559Y003595D01*
X023809Y003345D01*
X022309Y003345D02*
X022309Y002845D01*
X022059Y002595D01*
X022309Y002345D01*
X022309Y001845D01*
X022059Y001595D01*
X022309Y001345D01*
X022309Y000845D01*
X022059Y000595D01*
X021559Y000595D01*
X021309Y000845D01*
X021309Y001345D01*
X021559Y001595D01*
X021309Y001845D01*
X021309Y002345D01*
X021559Y002595D01*
X021309Y002845D01*
X021309Y003345D01*
X021559Y003595D01*
X022059Y003595D01*
X022309Y003345D01*
X017184Y003345D02*
X017184Y002845D01*
X016934Y002595D01*
X017184Y002345D01*
X017184Y001845D01*
X016934Y001595D01*
X017184Y001345D01*
X017184Y000845D01*
X016934Y000595D01*
X016434Y000595D01*
X016184Y000845D01*
X016184Y001345D01*
X016434Y001595D01*
X016184Y001845D01*
X016184Y002345D01*
X016434Y002595D01*
X016184Y002845D01*
X016184Y003345D01*
X016434Y003595D01*
X016934Y003595D01*
X017184Y003345D01*
X015684Y003345D02*
X015684Y002845D01*
X015434Y002595D01*
X015684Y002345D01*
X015684Y001845D01*
X015434Y001595D01*
X015684Y001345D01*
X015684Y000845D01*
X015434Y000595D01*
X014934Y000595D01*
X014684Y000845D01*
X014684Y001345D01*
X014934Y001595D01*
X014684Y001845D01*
X014684Y002345D01*
X014934Y002595D01*
X014684Y002845D01*
X014684Y003345D01*
X014934Y003595D01*
X015434Y003595D01*
X015684Y003345D01*
X013684Y003345D02*
X013684Y002845D01*
X013434Y002595D01*
X013684Y002345D01*
X013684Y001845D01*
X013434Y001595D01*
X013684Y001345D01*
X013684Y000845D01*
X013434Y000595D01*
X012934Y000595D01*
X012684Y000845D01*
X012684Y001345D01*
X012934Y001595D01*
X012684Y001845D01*
X012684Y002345D01*
X012934Y002595D01*
X012684Y002845D01*
X012684Y003345D01*
X012934Y003595D01*
X013434Y003595D01*
X013684Y003345D01*
X012184Y003345D02*
X012184Y002845D01*
X011934Y002595D01*
X012184Y002345D01*
X012184Y001845D01*
X011934Y001595D01*
X012184Y001345D01*
X012184Y000845D01*
X011934Y000595D01*
X011434Y000595D01*
X011184Y000845D01*
X011184Y001345D01*
X011434Y001595D01*
X011184Y001845D01*
X011184Y002345D01*
X011434Y002595D01*
X011184Y002845D01*
X011184Y003345D01*
X011434Y003595D01*
X011934Y003595D01*
X012184Y003345D01*
X010184Y003345D02*
X010184Y002845D01*
X009934Y002595D01*
X010184Y002345D01*
X010184Y001845D01*
X009934Y001595D01*
X010184Y001345D01*
X010184Y000845D01*
X009934Y000595D01*
X009434Y000595D01*
X009184Y000845D01*
X009184Y001345D01*
X009434Y001595D01*
X009184Y001845D01*
X009184Y002345D01*
X009434Y002595D01*
X009184Y002845D01*
X009184Y003345D01*
X009434Y003595D01*
X009934Y003595D01*
X010184Y003345D01*
X008684Y003345D02*
X008684Y002845D01*
X008434Y002595D01*
X008684Y002345D01*
X008684Y001845D01*
X008434Y001595D01*
X008684Y001345D01*
X008684Y000845D01*
X008434Y000595D01*
X007934Y000595D01*
X007684Y000845D01*
X007684Y001345D01*
X007934Y001595D01*
X007684Y001845D01*
X007684Y002345D01*
X007934Y002595D01*
X007684Y002845D01*
X007684Y003345D01*
X007934Y003595D01*
X008434Y003595D01*
X008684Y003345D01*
X003269Y003775D02*
X001849Y003775D01*
X001849Y001916D02*
X003269Y001916D01*
X002369Y001655D02*
X002049Y001655D01*
X002049Y001435D01*
X002049Y000755D02*
X002049Y000535D01*
X002369Y000535D01*
X002259Y007645D02*
X002059Y007645D01*
X002259Y007645D02*
X002259Y007845D01*
X002259Y008345D02*
X002259Y008545D01*
X002059Y008545D01*
X002059Y008645D02*
X002259Y008645D01*
X002259Y008845D01*
X002259Y009345D02*
X002259Y009545D01*
X002059Y009545D01*
X002059Y009645D02*
X002259Y009645D01*
X002259Y009845D01*
X002259Y010345D02*
X002259Y010545D01*
X002059Y010545D01*
X001559Y010545D02*
X001359Y010545D01*
X001359Y010345D01*
X001359Y009845D02*
X001359Y009645D01*
X001559Y009645D01*
X001559Y009545D02*
X001359Y009545D01*
X001359Y009345D01*
X001359Y008845D02*
X001359Y008645D01*
X001559Y008645D01*
X001559Y008545D02*
X001359Y008545D01*
X001359Y008345D01*
X001359Y007845D02*
X001359Y007645D01*
X001559Y007645D01*
X003749Y010210D02*
X003969Y010210D01*
X003749Y010210D02*
X003749Y010530D01*
X004649Y010210D02*
X004869Y010210D01*
X004869Y010530D01*
X010184Y010220D02*
X010184Y009720D01*
X010434Y009470D01*
X010934Y009470D01*
X011184Y009720D01*
X011434Y009470D01*
X011934Y009470D01*
X012184Y009720D01*
X012434Y009470D01*
X012934Y009470D01*
X013184Y009720D01*
X013184Y010220D01*
X012934Y010470D01*
X012434Y010470D01*
X012184Y010220D01*
X011934Y010470D01*
X011434Y010470D01*
X011184Y010220D01*
X010934Y010470D01*
X010434Y010470D01*
X010184Y010220D01*
X010749Y008155D02*
X010749Y007835D01*
X010969Y007835D01*
X011649Y007835D02*
X011869Y007835D01*
X011869Y008155D01*
X013913Y008132D02*
X013913Y007918D01*
X014020Y007811D01*
X014447Y007811D01*
X014554Y007918D01*
X014554Y008132D01*
X014447Y008238D01*
X014554Y008456D02*
X014554Y008883D01*
X014554Y008669D02*
X013913Y008669D01*
X014127Y008456D01*
X014020Y008238D02*
X013913Y008132D01*
X013913Y007595D02*
X013913Y007382D01*
X013913Y007488D02*
X014554Y007488D01*
X014554Y007382D02*
X014554Y007595D01*
X016809Y018445D02*
X016809Y019545D01*
X017809Y019545D01*
X018809Y019545D01*
X018809Y018445D01*
X017809Y018445D01*
X016809Y018445D01*
X017809Y018445D02*
X017809Y019545D01*
X018809Y019545D02*
X019809Y019545D01*
X020809Y019545D01*
X021809Y019545D01*
X021809Y018445D01*
X020809Y018445D01*
X019809Y018445D01*
X018809Y018445D01*
X019809Y018445D02*
X019809Y019545D01*
X020809Y019545D02*
X020809Y018445D01*
X021809Y018445D02*
X022809Y018445D01*
X023809Y018445D01*
X023809Y019545D01*
X022809Y019545D01*
X021809Y019545D01*
X022809Y019545D02*
X022809Y018445D01*
X023809Y018445D02*
X024809Y018445D01*
X024809Y019545D01*
X023809Y019545D01*
X023909Y020625D02*
X023909Y021266D01*
X023589Y020946D01*
X024016Y020946D01*
X025839Y021159D02*
X025946Y021266D01*
X026159Y021266D01*
X026266Y021159D01*
X026266Y021053D01*
X026159Y020946D01*
X026266Y020839D01*
X026266Y020732D01*
X026159Y020625D01*
X025946Y020625D01*
X025839Y020732D01*
X026052Y020946D02*
X026159Y020946D01*
X027839Y021159D02*
X027946Y021266D01*
X028159Y021266D01*
X028266Y021159D01*
X028266Y021053D01*
X027839Y020625D01*
X028266Y020625D01*
X028059Y019545D02*
X027059Y019545D01*
X026059Y019545D01*
X025059Y019545D01*
X025059Y018445D01*
X026059Y018445D01*
X027059Y018445D01*
X027059Y019545D01*
X028059Y019545D02*
X029059Y019545D01*
X030059Y019545D01*
X030059Y018445D01*
X029059Y018445D01*
X028059Y018445D01*
X027059Y018445D01*
X028059Y018445D02*
X028059Y019545D01*
X029059Y019545D02*
X029059Y018445D01*
X030059Y018445D02*
X031059Y018445D01*
X032059Y018445D01*
X032059Y019545D01*
X031059Y019545D01*
X030059Y019545D01*
X031059Y019545D02*
X031059Y018445D01*
X032059Y018445D02*
X033059Y018445D01*
X033059Y019545D01*
X032059Y019545D01*
X032159Y020625D02*
X031946Y020625D01*
X031839Y020732D01*
X032266Y021159D01*
X032266Y020732D01*
X032159Y020625D01*
X031839Y020732D02*
X031839Y021159D01*
X031946Y021266D01*
X032159Y021266D01*
X032266Y021159D01*
X030266Y020625D02*
X029839Y020625D01*
X030052Y020625D02*
X030052Y021266D01*
X029839Y021053D01*
X026059Y019545D02*
X026059Y018445D01*
X022016Y020732D02*
X022016Y020946D01*
X021909Y021053D01*
X021802Y021053D01*
X021589Y020946D01*
X021589Y021266D01*
X022016Y021266D01*
X022016Y020732D02*
X021909Y020625D01*
X021696Y020625D01*
X021589Y020732D01*
X020016Y020732D02*
X020016Y020839D01*
X019909Y020946D01*
X019589Y020946D01*
X019589Y020732D01*
X019696Y020625D01*
X019909Y020625D01*
X020016Y020732D01*
X019802Y021159D02*
X019589Y020946D01*
X019802Y021159D02*
X020016Y021266D01*
X018016Y021266D02*
X018016Y021159D01*
X017589Y020732D01*
X017589Y020625D01*
X017589Y021266D02*
X018016Y021266D01*
D13*
X007314Y016856D02*
X007314Y016609D01*
X007191Y016485D01*
X007067Y016609D01*
X007067Y016856D01*
X006946Y016856D02*
X006699Y016856D01*
X006699Y016671D01*
X006822Y016732D01*
X006884Y016732D01*
X006946Y016671D01*
X006946Y016547D01*
X006884Y016485D01*
X006761Y016485D01*
X006699Y016547D01*
X001875Y015806D02*
X001813Y015868D01*
X001690Y015868D01*
X001628Y015806D01*
X001507Y015806D02*
X001445Y015868D01*
X001322Y015868D01*
X001260Y015806D01*
X001260Y015559D01*
X001322Y015497D01*
X001445Y015497D01*
X001507Y015559D01*
X001628Y015497D02*
X001875Y015744D01*
X001875Y015806D01*
X001875Y015497D02*
X001628Y015497D01*
X006956Y011206D02*
X006956Y010959D01*
X007079Y010835D01*
X007202Y010959D01*
X007202Y011206D01*
X009072Y012610D02*
X009072Y012981D01*
X008949Y012981D02*
X009196Y012981D01*
X009317Y012981D02*
X009564Y012610D01*
X009317Y012610D02*
X009564Y012981D01*
X010054Y012981D02*
X010239Y012981D01*
X010301Y012919D01*
X010301Y012796D01*
X010239Y012734D01*
X010054Y012734D01*
X010054Y012610D02*
X010054Y012981D01*
X010422Y012857D02*
X010484Y012857D01*
X010484Y012610D01*
X010509Y012606D02*
X010324Y012606D01*
X010324Y012235D01*
X010324Y012359D02*
X010509Y012359D01*
X010571Y012421D01*
X010571Y012544D01*
X010509Y012606D01*
X010546Y012610D02*
X010422Y012610D01*
X010447Y012359D02*
X010571Y012235D01*
X010692Y012235D02*
X010939Y012606D01*
X010692Y012606D02*
X010939Y012235D01*
X011429Y012235D02*
X011429Y012606D01*
X011614Y012606D01*
X011676Y012544D01*
X011676Y012421D01*
X011614Y012359D01*
X011429Y012359D01*
X011797Y012482D02*
X011859Y012482D01*
X011859Y012235D01*
X011797Y012235D02*
X011921Y012235D01*
X011859Y012606D02*
X011859Y012668D01*
X010484Y012981D02*
X010484Y013043D01*
X007518Y007569D02*
X007518Y007199D01*
X007395Y007199D02*
X007641Y007199D01*
X007395Y007446D02*
X007518Y007569D01*
X007273Y007507D02*
X007211Y007569D01*
X007088Y007569D01*
X007026Y007507D01*
X007026Y007260D01*
X007088Y007199D01*
X007211Y007199D01*
X007273Y007260D01*
X003327Y007144D02*
X003266Y007206D01*
X003142Y007206D01*
X003081Y007144D01*
X003081Y006897D01*
X003142Y006835D01*
X003266Y006835D01*
X003327Y006897D01*
X001069Y007659D02*
X001069Y007844D01*
X000699Y007844D01*
X000699Y007659D01*
X000761Y007597D01*
X001007Y007597D01*
X001069Y007659D01*
X001069Y007965D02*
X000699Y007965D01*
X001069Y008212D01*
X000699Y008212D01*
X000761Y008334D02*
X000699Y008395D01*
X000699Y008519D01*
X000761Y008580D01*
X001007Y008580D01*
X001069Y008519D01*
X001069Y008395D01*
X001007Y008334D01*
X000884Y008334D02*
X000884Y008457D01*
X000884Y008334D02*
X000761Y008334D01*
X000822Y008840D02*
X000699Y008964D01*
X000822Y009087D01*
X001069Y009087D01*
X001069Y009209D02*
X001007Y009332D01*
X000884Y009455D01*
X000884Y009270D01*
X000822Y009209D01*
X000761Y009209D01*
X000699Y009270D01*
X000699Y009394D01*
X000761Y009455D01*
X000884Y009455D01*
X000822Y009840D02*
X000699Y009964D01*
X000822Y010087D01*
X001069Y010087D01*
X001069Y010209D02*
X001069Y010455D01*
X000884Y010455D01*
X000946Y010332D01*
X000946Y010270D01*
X000884Y010209D01*
X000761Y010209D01*
X000699Y010270D01*
X000699Y010394D01*
X000761Y010455D01*
X000822Y009840D02*
X001069Y009840D01*
X001069Y008840D02*
X000822Y008840D01*
X019699Y003921D02*
X019699Y003797D01*
X019761Y003735D01*
X019884Y003735D01*
X019946Y003797D01*
X019946Y003859D01*
X019884Y003921D01*
X019699Y003921D01*
X019822Y004044D01*
X019946Y004106D01*
X020067Y004106D02*
X020067Y003859D01*
X020191Y003735D01*
X020314Y003859D01*
X020314Y004106D01*
X020267Y003503D02*
X020144Y003503D01*
X020082Y003441D01*
X020082Y003194D01*
X020144Y003132D01*
X020267Y003132D01*
X020329Y003194D01*
X020450Y003194D02*
X020512Y003132D01*
X020636Y003132D01*
X020697Y003194D01*
X020697Y003441D01*
X020636Y003503D01*
X020512Y003503D01*
X020450Y003441D01*
X020450Y003379D01*
X020512Y003317D01*
X020697Y003317D01*
X020329Y003441D02*
X020267Y003503D01*
X025065Y005464D02*
X025113Y005415D01*
X025210Y005415D01*
X025258Y005464D01*
X025258Y005561D01*
X025162Y005561D01*
X025258Y005657D02*
X025210Y005706D01*
X025113Y005706D01*
X025065Y005657D01*
X025065Y005464D01*
X025360Y005415D02*
X025360Y005706D01*
X025553Y005415D01*
X025553Y005706D01*
X025654Y005706D02*
X025799Y005706D01*
X025848Y005657D01*
X025848Y005464D01*
X025799Y005415D01*
X025654Y005415D01*
X025654Y005706D01*
X025751Y006415D02*
X025751Y006561D01*
X025848Y006657D01*
X025848Y006706D01*
X025751Y006561D02*
X025654Y006657D01*
X025654Y006706D01*
X025553Y006657D02*
X025553Y006561D01*
X025505Y006512D01*
X025360Y006512D01*
X025456Y006512D02*
X025553Y006415D01*
X025360Y006415D02*
X025360Y006706D01*
X025505Y006706D01*
X025553Y006657D01*
X025258Y006657D02*
X025258Y006464D01*
X025210Y006415D01*
X025065Y006415D01*
X025065Y006706D01*
X025210Y006706D01*
X025258Y006657D01*
X025210Y007415D02*
X025113Y007415D01*
X025065Y007464D01*
X025113Y007561D02*
X025210Y007561D01*
X025258Y007512D01*
X025258Y007464D01*
X025210Y007415D01*
X025360Y007415D02*
X025360Y007706D01*
X025505Y007706D01*
X025553Y007657D01*
X025553Y007464D01*
X025505Y007415D01*
X025360Y007415D01*
X025258Y007657D02*
X025210Y007706D01*
X025113Y007706D01*
X025065Y007657D01*
X025065Y007609D01*
X025113Y007561D01*
X025654Y007561D02*
X025848Y007561D01*
X025848Y007609D02*
X025848Y007415D01*
X025654Y007415D02*
X025654Y007609D01*
X025751Y007706D01*
X025848Y007609D01*
X025848Y008415D02*
X025654Y008415D01*
X025654Y008706D01*
X025553Y008657D02*
X025505Y008706D01*
X025408Y008706D01*
X025360Y008657D01*
X025360Y008464D01*
X025408Y008415D01*
X025505Y008415D01*
X025553Y008464D01*
X025258Y008464D02*
X025210Y008415D01*
X025113Y008415D01*
X025065Y008464D01*
X025113Y008561D02*
X025210Y008561D01*
X025258Y008512D01*
X025258Y008464D01*
X025113Y008561D02*
X025065Y008609D01*
X025065Y008657D01*
X025113Y008706D01*
X025210Y008706D01*
X025258Y008657D01*
X025162Y009415D02*
X025258Y009512D01*
X025258Y009706D01*
X025360Y009657D02*
X025360Y009464D01*
X025408Y009415D01*
X025505Y009415D01*
X025553Y009464D01*
X025654Y009464D02*
X025703Y009415D01*
X025799Y009415D01*
X025848Y009464D01*
X025848Y009657D02*
X025799Y009706D01*
X025703Y009706D01*
X025654Y009657D01*
X025654Y009464D01*
X025553Y009657D02*
X025505Y009706D01*
X025408Y009706D01*
X025360Y009657D01*
X025065Y009706D02*
X025065Y009512D01*
X025162Y009415D01*
X029799Y008108D02*
X029799Y007861D01*
X029861Y007799D01*
X029984Y007799D01*
X030046Y007861D01*
X030168Y007799D02*
X030414Y007799D01*
X030291Y007799D02*
X030291Y008170D01*
X030168Y008046D01*
X030046Y008108D02*
X029984Y008170D01*
X029861Y008170D01*
X029799Y008108D01*
X030536Y007985D02*
X030783Y007985D01*
X030721Y008170D02*
X030536Y007985D01*
X030721Y008170D02*
X030721Y007799D01*
X033049Y008547D02*
X033110Y008485D01*
X033357Y008485D01*
X033419Y008547D01*
X033419Y008671D01*
X033357Y008732D01*
X033234Y008732D01*
X033234Y008609D01*
X033110Y008732D02*
X033049Y008671D01*
X033049Y008547D01*
X033049Y008854D02*
X033419Y009101D01*
X033049Y009101D01*
X033049Y009222D02*
X033049Y009407D01*
X033110Y009469D01*
X033357Y009469D01*
X033419Y009407D01*
X033419Y009222D01*
X033049Y009222D01*
X033049Y008854D02*
X033419Y008854D01*
X033419Y009860D02*
X033049Y009860D01*
X033234Y009860D02*
X033234Y010107D01*
X033295Y010229D02*
X033295Y010414D01*
X033234Y010476D01*
X033110Y010476D01*
X033049Y010414D01*
X033049Y010229D01*
X033419Y010229D01*
X033419Y010107D02*
X033049Y010107D01*
X031049Y011242D02*
X030987Y011180D01*
X030864Y011180D01*
X030802Y011242D01*
X030802Y011365D01*
X030987Y011365D01*
X031049Y011303D01*
X031049Y011242D01*
X030802Y011365D02*
X030925Y011489D01*
X031049Y011550D01*
X030993Y011735D02*
X031117Y011859D01*
X031117Y012106D01*
X030870Y012106D02*
X030870Y011859D01*
X030993Y011735D01*
X030748Y011797D02*
X030686Y011735D01*
X030563Y011735D01*
X030501Y011797D01*
X030379Y011797D02*
X030379Y011735D01*
X030317Y011735D01*
X030317Y011797D01*
X030379Y011797D01*
X030196Y011797D02*
X030134Y011735D01*
X030011Y011735D01*
X029949Y011797D01*
X030072Y011921D02*
X030134Y011921D01*
X030196Y011859D01*
X030196Y011797D01*
X030134Y011921D02*
X030196Y011982D01*
X030196Y012044D01*
X030134Y012106D01*
X030011Y012106D01*
X029949Y012044D01*
X030127Y011550D02*
X030065Y011489D01*
X030065Y011242D01*
X030127Y011180D01*
X030251Y011180D01*
X030312Y011242D01*
X030434Y011180D02*
X030681Y011180D01*
X030557Y011180D02*
X030557Y011550D01*
X030434Y011427D01*
X030312Y011489D02*
X030251Y011550D01*
X030127Y011550D01*
X030625Y011921D02*
X030686Y011921D01*
X030748Y011859D01*
X030748Y011797D01*
X030686Y011921D02*
X030748Y011982D01*
X030748Y012044D01*
X030686Y012106D01*
X030563Y012106D01*
X030501Y012044D01*
X033049Y012610D02*
X033419Y012610D01*
X033419Y012857D01*
X033419Y012979D02*
X033049Y012979D01*
X033049Y013226D01*
X033049Y013347D02*
X033049Y013532D01*
X033110Y013594D01*
X033357Y013594D01*
X033419Y013532D01*
X033419Y013347D01*
X033049Y013347D01*
X033234Y013102D02*
X033234Y012979D01*
X033419Y012979D02*
X033419Y013226D01*
X033357Y014084D02*
X033419Y014145D01*
X033419Y014269D01*
X033357Y014331D01*
X033295Y014331D01*
X033234Y014269D01*
X033234Y014145D01*
X033172Y014084D01*
X033110Y014084D01*
X033049Y014145D01*
X033049Y014269D01*
X033110Y014331D01*
X033049Y014452D02*
X033049Y014699D01*
X033049Y014820D02*
X033049Y015006D01*
X033110Y015067D01*
X033234Y015067D01*
X033295Y015006D01*
X033295Y014820D01*
X033295Y014944D02*
X033419Y015067D01*
X033419Y015189D02*
X033419Y015312D01*
X033419Y015250D02*
X033049Y015250D01*
X033049Y015189D02*
X033049Y015312D01*
X033049Y015434D02*
X033049Y015619D01*
X033110Y015681D01*
X033234Y015681D01*
X033295Y015619D01*
X033295Y015434D01*
X033419Y015434D02*
X033049Y015434D01*
X033049Y014820D02*
X033419Y014820D01*
X033419Y014575D02*
X033049Y014575D01*
X031039Y014548D02*
X031039Y014486D01*
X030978Y014424D01*
X030854Y014424D01*
X030793Y014486D01*
X030793Y014548D01*
X030854Y014610D01*
X030978Y014610D01*
X031039Y014548D01*
X030978Y014610D02*
X031039Y014671D01*
X031039Y014733D01*
X030978Y014795D01*
X030854Y014795D01*
X030793Y014733D01*
X030793Y014671D01*
X030854Y014610D01*
X030671Y014733D02*
X030609Y014795D01*
X030486Y014795D01*
X030424Y014733D01*
X030424Y014486D01*
X030486Y014424D01*
X030609Y014424D01*
X030671Y014486D01*
X033110Y006982D02*
X033234Y006982D01*
X033295Y006921D01*
X033295Y006735D01*
X033419Y006735D02*
X033049Y006735D01*
X033049Y006921D01*
X033110Y006982D01*
X033295Y006859D02*
X033419Y006982D01*
X033419Y005982D02*
X033419Y005735D01*
X033049Y005735D01*
X033110Y005219D02*
X033049Y005157D01*
X033049Y004972D01*
X033419Y004972D01*
X033419Y005157D01*
X033357Y005219D01*
X033110Y005219D01*
X033049Y004851D02*
X033419Y004851D01*
X033049Y004604D01*
X033419Y004604D01*
X033357Y004482D02*
X033234Y004482D01*
X033234Y004359D01*
X033357Y004482D02*
X033419Y004421D01*
X033419Y004297D01*
X033357Y004235D01*
X033110Y004235D01*
X033049Y004297D01*
X033049Y004421D01*
X033110Y004482D01*
X030783Y004611D02*
X030721Y004549D01*
X030598Y004549D01*
X030536Y004611D01*
X030536Y004735D02*
X030659Y004796D01*
X030721Y004796D01*
X030783Y004735D01*
X030783Y004611D01*
X030536Y004735D02*
X030536Y004920D01*
X030783Y004920D01*
X030291Y004920D02*
X030291Y004549D01*
X030168Y004549D02*
X030414Y004549D01*
X030168Y004796D02*
X030291Y004920D01*
X030046Y004858D02*
X029984Y004920D01*
X029861Y004920D01*
X029799Y004858D01*
X029799Y004611D01*
X029861Y004549D01*
X029984Y004549D01*
X030046Y004611D01*
D14*
X031929Y001345D02*
X031931Y001395D01*
X031937Y001445D01*
X031947Y001494D01*
X031961Y001542D01*
X031978Y001589D01*
X031999Y001634D01*
X032024Y001678D01*
X032052Y001719D01*
X032084Y001758D01*
X032118Y001795D01*
X032155Y001829D01*
X032195Y001859D01*
X032237Y001886D01*
X032281Y001910D01*
X032327Y001931D01*
X032374Y001947D01*
X032422Y001960D01*
X032472Y001969D01*
X032521Y001974D01*
X032572Y001975D01*
X032622Y001972D01*
X032671Y001965D01*
X032720Y001954D01*
X032768Y001939D01*
X032814Y001921D01*
X032859Y001899D01*
X032902Y001873D01*
X032943Y001844D01*
X032982Y001812D01*
X033018Y001777D01*
X033050Y001739D01*
X033080Y001699D01*
X033107Y001656D01*
X033130Y001612D01*
X033149Y001566D01*
X033165Y001518D01*
X033177Y001469D01*
X033185Y001420D01*
X033189Y001370D01*
X033189Y001320D01*
X033185Y001270D01*
X033177Y001221D01*
X033165Y001172D01*
X033149Y001124D01*
X033130Y001078D01*
X033107Y001034D01*
X033080Y000991D01*
X033050Y000951D01*
X033018Y000913D01*
X032982Y000878D01*
X032943Y000846D01*
X032902Y000817D01*
X032859Y000791D01*
X032814Y000769D01*
X032768Y000751D01*
X032720Y000736D01*
X032671Y000725D01*
X032622Y000718D01*
X032572Y000715D01*
X032521Y000716D01*
X032472Y000721D01*
X032422Y000730D01*
X032374Y000743D01*
X032327Y000759D01*
X032281Y000780D01*
X032237Y000804D01*
X032195Y000831D01*
X032155Y000861D01*
X032118Y000895D01*
X032084Y000932D01*
X032052Y000971D01*
X032024Y001012D01*
X031999Y001056D01*
X031978Y001101D01*
X031961Y001148D01*
X031947Y001196D01*
X031937Y001245D01*
X031931Y001295D01*
X031929Y001345D01*
X014179Y019595D02*
X014181Y019645D01*
X014187Y019695D01*
X014197Y019744D01*
X014211Y019792D01*
X014228Y019839D01*
X014249Y019884D01*
X014274Y019928D01*
X014302Y019969D01*
X014334Y020008D01*
X014368Y020045D01*
X014405Y020079D01*
X014445Y020109D01*
X014487Y020136D01*
X014531Y020160D01*
X014577Y020181D01*
X014624Y020197D01*
X014672Y020210D01*
X014722Y020219D01*
X014771Y020224D01*
X014822Y020225D01*
X014872Y020222D01*
X014921Y020215D01*
X014970Y020204D01*
X015018Y020189D01*
X015064Y020171D01*
X015109Y020149D01*
X015152Y020123D01*
X015193Y020094D01*
X015232Y020062D01*
X015268Y020027D01*
X015300Y019989D01*
X015330Y019949D01*
X015357Y019906D01*
X015380Y019862D01*
X015399Y019816D01*
X015415Y019768D01*
X015427Y019719D01*
X015435Y019670D01*
X015439Y019620D01*
X015439Y019570D01*
X015435Y019520D01*
X015427Y019471D01*
X015415Y019422D01*
X015399Y019374D01*
X015380Y019328D01*
X015357Y019284D01*
X015330Y019241D01*
X015300Y019201D01*
X015268Y019163D01*
X015232Y019128D01*
X015193Y019096D01*
X015152Y019067D01*
X015109Y019041D01*
X015064Y019019D01*
X015018Y019001D01*
X014970Y018986D01*
X014921Y018975D01*
X014872Y018968D01*
X014822Y018965D01*
X014771Y018966D01*
X014722Y018971D01*
X014672Y018980D01*
X014624Y018993D01*
X014577Y019009D01*
X014531Y019030D01*
X014487Y019054D01*
X014445Y019081D01*
X014405Y019111D01*
X014368Y019145D01*
X014334Y019182D01*
X014302Y019221D01*
X014274Y019262D01*
X014249Y019306D01*
X014228Y019351D01*
X014211Y019398D01*
X014197Y019446D01*
X014187Y019495D01*
X014181Y019545D01*
X014179Y019595D01*
D15*
X014584Y014354D02*
X014584Y014335D01*
X014584Y014336D02*
X014547Y014335D01*
X014510Y014330D01*
X014474Y014324D01*
X014439Y014314D01*
X014404Y014302D01*
X014370Y014287D01*
X014363Y014304D01*
X014362Y014304D01*
X014397Y014320D01*
X014433Y014332D01*
X014470Y014342D01*
X014507Y014349D01*
X014545Y014354D01*
X014584Y014355D01*
X014584Y014354D01*
X014545Y014353D01*
X014508Y014348D01*
X014470Y014341D01*
X014433Y014331D01*
X014397Y014319D01*
X014363Y014303D01*
X014363Y014302D01*
X014398Y014318D01*
X014434Y014330D01*
X014470Y014340D01*
X014508Y014347D01*
X014546Y014352D01*
X014584Y014353D01*
X014584Y014352D01*
X014546Y014351D01*
X014508Y014346D01*
X014471Y014339D01*
X014434Y014329D01*
X014398Y014317D01*
X014363Y014302D01*
X014364Y014301D01*
X014399Y014316D01*
X014434Y014328D01*
X014471Y014338D01*
X014508Y014345D01*
X014546Y014350D01*
X014584Y014351D01*
X014584Y014350D01*
X014546Y014349D01*
X014508Y014344D01*
X014471Y014337D01*
X014435Y014327D01*
X014399Y014315D01*
X014364Y014300D01*
X014365Y014299D01*
X014399Y014314D01*
X014435Y014326D01*
X014471Y014336D01*
X014508Y014343D01*
X014546Y014348D01*
X014584Y014349D01*
X014584Y014348D01*
X014546Y014347D01*
X014509Y014342D01*
X014472Y014335D01*
X014435Y014325D01*
X014400Y014313D01*
X014365Y014298D01*
X014366Y014297D01*
X014400Y014312D01*
X014435Y014325D01*
X014472Y014334D01*
X014509Y014341D01*
X014546Y014346D01*
X014584Y014347D01*
X014584Y014346D01*
X014546Y014345D01*
X014509Y014340D01*
X014472Y014333D01*
X014436Y014324D01*
X014400Y014311D01*
X014366Y014296D01*
X014367Y014295D01*
X014401Y014310D01*
X014436Y014323D01*
X014472Y014332D01*
X014509Y014339D01*
X014546Y014344D01*
X014584Y014345D01*
X014584Y014344D01*
X014546Y014343D01*
X014509Y014338D01*
X014472Y014331D01*
X014436Y014322D01*
X014401Y014309D01*
X014367Y014294D01*
X014367Y014293D01*
X014402Y014308D01*
X014437Y014321D01*
X014473Y014330D01*
X014509Y014337D01*
X014546Y014342D01*
X014584Y014343D01*
X014584Y014342D01*
X014546Y014341D01*
X014509Y014336D01*
X014473Y014329D01*
X014437Y014320D01*
X014402Y014307D01*
X014368Y014293D01*
X014368Y014292D01*
X014402Y014306D01*
X014437Y014319D01*
X014473Y014328D01*
X014510Y014335D01*
X014546Y014340D01*
X014584Y014341D01*
X014584Y014340D01*
X014546Y014339D01*
X014510Y014334D01*
X014473Y014327D01*
X014438Y014318D01*
X014403Y014306D01*
X014369Y014291D01*
X014369Y014290D01*
X014403Y014305D01*
X014438Y014317D01*
X014474Y014326D01*
X014510Y014333D01*
X014547Y014338D01*
X014584Y014339D01*
X014584Y014338D01*
X014547Y014337D01*
X014510Y014332D01*
X014474Y014326D01*
X014438Y014316D01*
X014403Y014304D01*
X014370Y014289D01*
X014370Y014288D01*
X014404Y014303D01*
X014438Y014315D01*
X014474Y014325D01*
X014510Y014331D01*
X014547Y014336D01*
X014584Y014337D01*
X014584Y014654D02*
X014584Y014635D01*
X014583Y014636D02*
X014529Y014634D01*
X014474Y014628D01*
X014420Y014619D01*
X014367Y014606D01*
X014314Y014589D01*
X014263Y014568D01*
X014214Y014544D01*
X014166Y014517D01*
X014121Y014486D01*
X014077Y014453D01*
X014037Y014416D01*
X013998Y014377D01*
X013963Y014335D01*
X013930Y014290D01*
X013915Y014301D01*
X013948Y014346D01*
X013984Y014389D01*
X014023Y014430D01*
X014065Y014467D01*
X014110Y014502D01*
X014156Y014533D01*
X014205Y014561D01*
X014256Y014585D01*
X014308Y014606D01*
X014361Y014624D01*
X014416Y014637D01*
X014471Y014647D01*
X014527Y014653D01*
X014583Y014655D01*
X014583Y014654D01*
X014527Y014652D01*
X014471Y014646D01*
X014416Y014636D01*
X014362Y014623D01*
X014308Y014606D01*
X014256Y014585D01*
X014206Y014560D01*
X014157Y014532D01*
X014110Y014501D01*
X014066Y014466D01*
X014024Y014429D01*
X013985Y014389D01*
X013949Y014346D01*
X013915Y014300D01*
X013916Y014300D01*
X013949Y014345D01*
X013986Y014388D01*
X014025Y014428D01*
X014067Y014466D01*
X014111Y014500D01*
X014157Y014531D01*
X014206Y014559D01*
X014257Y014584D01*
X014309Y014605D01*
X014362Y014622D01*
X014416Y014635D01*
X014472Y014645D01*
X014527Y014651D01*
X014583Y014653D01*
X014583Y014652D01*
X014527Y014650D01*
X014472Y014644D01*
X014417Y014634D01*
X014362Y014621D01*
X014309Y014604D01*
X014257Y014583D01*
X014207Y014558D01*
X014158Y014530D01*
X014111Y014499D01*
X014067Y014465D01*
X014025Y014427D01*
X013986Y014387D01*
X013950Y014345D01*
X013917Y014299D01*
X013918Y014299D01*
X013951Y014344D01*
X013987Y014387D01*
X014026Y014427D01*
X014068Y014464D01*
X014112Y014498D01*
X014158Y014530D01*
X014207Y014557D01*
X014257Y014582D01*
X014309Y014603D01*
X014362Y014620D01*
X014417Y014633D01*
X014472Y014643D01*
X014528Y014649D01*
X014583Y014651D01*
X014583Y014650D01*
X014528Y014648D01*
X014472Y014642D01*
X014417Y014632D01*
X014363Y014619D01*
X014310Y014602D01*
X014258Y014581D01*
X014207Y014557D01*
X014159Y014529D01*
X014113Y014498D01*
X014068Y014463D01*
X014027Y014426D01*
X013988Y014386D01*
X013952Y014343D01*
X013919Y014298D01*
X013920Y014298D01*
X013953Y014343D01*
X013989Y014385D01*
X014027Y014425D01*
X014069Y014462D01*
X014113Y014497D01*
X014160Y014528D01*
X014208Y014556D01*
X014258Y014580D01*
X014310Y014601D01*
X014363Y014618D01*
X014417Y014632D01*
X014472Y014641D01*
X014528Y014647D01*
X014583Y014649D01*
X014583Y014648D01*
X014528Y014646D01*
X014472Y014640D01*
X014417Y014631D01*
X014363Y014617D01*
X014310Y014600D01*
X014259Y014579D01*
X014208Y014555D01*
X014160Y014527D01*
X014114Y014496D01*
X014070Y014462D01*
X014028Y014425D01*
X013989Y014385D01*
X013953Y014342D01*
X013920Y014297D01*
X013921Y014297D01*
X013954Y014341D01*
X013990Y014384D01*
X014029Y014424D01*
X014070Y014461D01*
X014114Y014495D01*
X014161Y014526D01*
X014209Y014554D01*
X014259Y014578D01*
X014311Y014599D01*
X014364Y014616D01*
X014418Y014630D01*
X014472Y014639D01*
X014528Y014645D01*
X014583Y014647D01*
X014583Y014646D01*
X014528Y014644D01*
X014473Y014638D01*
X014418Y014629D01*
X014364Y014615D01*
X014311Y014598D01*
X014259Y014577D01*
X014209Y014553D01*
X014161Y014525D01*
X014115Y014494D01*
X014071Y014460D01*
X014030Y014423D01*
X013991Y014383D01*
X013955Y014341D01*
X013922Y014296D01*
X013923Y014295D01*
X013956Y014340D01*
X013992Y014383D01*
X014030Y014422D01*
X014072Y014459D01*
X014116Y014493D01*
X014162Y014524D01*
X014210Y014552D01*
X014260Y014576D01*
X014311Y014597D01*
X014364Y014614D01*
X014418Y014628D01*
X014473Y014637D01*
X014528Y014643D01*
X014583Y014645D01*
X014583Y014644D01*
X014528Y014642D01*
X014473Y014636D01*
X014418Y014627D01*
X014364Y014613D01*
X014312Y014596D01*
X014260Y014575D01*
X014210Y014551D01*
X014162Y014524D01*
X014116Y014493D01*
X014072Y014459D01*
X014031Y014422D01*
X013992Y014382D01*
X013956Y014340D01*
X013924Y014295D01*
X013924Y014294D01*
X013957Y014339D01*
X013993Y014381D01*
X014032Y014421D01*
X014073Y014458D01*
X014117Y014492D01*
X014163Y014523D01*
X014211Y014550D01*
X014261Y014575D01*
X014312Y014595D01*
X014365Y014612D01*
X014418Y014626D01*
X014473Y014635D01*
X014528Y014641D01*
X014583Y014643D01*
X014583Y014642D01*
X014528Y014640D01*
X014473Y014634D01*
X014419Y014625D01*
X014365Y014611D01*
X014312Y014594D01*
X014261Y014574D01*
X014211Y014549D01*
X014163Y014522D01*
X014117Y014491D01*
X014074Y014457D01*
X014032Y014420D01*
X013994Y014381D01*
X013958Y014338D01*
X013925Y014294D01*
X013926Y014293D01*
X013959Y014338D01*
X013995Y014380D01*
X014033Y014420D01*
X014074Y014456D01*
X014118Y014490D01*
X014164Y014521D01*
X014212Y014549D01*
X014261Y014573D01*
X014313Y014593D01*
X014365Y014610D01*
X014419Y014624D01*
X014473Y014633D01*
X014528Y014639D01*
X014583Y014641D01*
X014583Y014640D01*
X014528Y014638D01*
X014473Y014632D01*
X014419Y014623D01*
X014366Y014609D01*
X014313Y014592D01*
X014262Y014572D01*
X014212Y014548D01*
X014164Y014520D01*
X014118Y014489D01*
X014075Y014456D01*
X014034Y014419D01*
X013995Y014379D01*
X013960Y014337D01*
X013927Y014293D01*
X013928Y014292D01*
X013960Y014336D01*
X013996Y014379D01*
X014034Y014418D01*
X014076Y014455D01*
X014119Y014489D01*
X014165Y014519D01*
X014213Y014547D01*
X014262Y014571D01*
X014313Y014591D01*
X014366Y014608D01*
X014419Y014622D01*
X014474Y014631D01*
X014528Y014637D01*
X014583Y014639D01*
X014583Y014638D01*
X014528Y014636D01*
X014474Y014630D01*
X014419Y014621D01*
X014366Y014607D01*
X014314Y014591D01*
X014263Y014570D01*
X014213Y014546D01*
X014165Y014518D01*
X014120Y014488D01*
X014076Y014454D01*
X014035Y014417D01*
X013997Y014378D01*
X013961Y014336D01*
X013929Y014291D01*
X013962Y014335D01*
X013997Y014377D01*
X014036Y014417D01*
X014077Y014453D01*
X014120Y014487D01*
X014166Y014518D01*
X014214Y014545D01*
X014263Y014569D01*
X014314Y014590D01*
X014366Y014607D01*
X014420Y014620D01*
X014474Y014629D01*
X014529Y014635D01*
X014583Y014637D01*
X014363Y013386D02*
X014371Y013403D01*
X014370Y013403D02*
X014404Y013388D01*
X014439Y013376D01*
X014474Y013366D01*
X014510Y013360D01*
X014547Y013355D01*
X014584Y013354D01*
X014584Y013336D01*
X014584Y013335D01*
X014545Y013336D01*
X014507Y013341D01*
X014470Y013348D01*
X014433Y013358D01*
X014397Y013370D01*
X014362Y013386D01*
X014363Y013387D01*
X014397Y013371D01*
X014433Y013359D01*
X014470Y013349D01*
X014508Y013342D01*
X014545Y013337D01*
X014584Y013336D01*
X014584Y013337D01*
X014546Y013338D01*
X014508Y013343D01*
X014470Y013350D01*
X014434Y013360D01*
X014398Y013372D01*
X014363Y013388D01*
X014398Y013373D01*
X014434Y013361D01*
X014471Y013351D01*
X014508Y013344D01*
X014546Y013339D01*
X014584Y013338D01*
X014584Y013339D01*
X014546Y013340D01*
X014508Y013345D01*
X014471Y013352D01*
X014434Y013362D01*
X014399Y013374D01*
X014364Y013389D01*
X014364Y013390D01*
X014399Y013375D01*
X014435Y013363D01*
X014471Y013353D01*
X014508Y013346D01*
X014546Y013341D01*
X014584Y013340D01*
X014584Y013341D01*
X014546Y013342D01*
X014508Y013347D01*
X014471Y013354D01*
X014435Y013364D01*
X014399Y013376D01*
X014365Y013391D01*
X014365Y013392D01*
X014400Y013377D01*
X014435Y013365D01*
X014472Y013355D01*
X014509Y013348D01*
X014546Y013343D01*
X014584Y013342D01*
X014584Y013343D01*
X014546Y013344D01*
X014509Y013349D01*
X014472Y013356D01*
X014435Y013365D01*
X014400Y013378D01*
X014366Y013393D01*
X014366Y013394D01*
X014400Y013379D01*
X014436Y013366D01*
X014472Y013357D01*
X014509Y013350D01*
X014546Y013345D01*
X014584Y013344D01*
X014584Y013345D01*
X014546Y013346D01*
X014509Y013351D01*
X014472Y013358D01*
X014436Y013367D01*
X014401Y013380D01*
X014367Y013395D01*
X014367Y013396D01*
X014401Y013381D01*
X014436Y013368D01*
X014472Y013359D01*
X014509Y013352D01*
X014546Y013347D01*
X014584Y013346D01*
X014584Y013347D01*
X014546Y013348D01*
X014509Y013353D01*
X014473Y013360D01*
X014437Y013369D01*
X014402Y013382D01*
X014367Y013397D01*
X014368Y013397D01*
X014402Y013383D01*
X014437Y013370D01*
X014473Y013361D01*
X014509Y013354D01*
X014546Y013349D01*
X014584Y013348D01*
X014584Y013349D01*
X014546Y013350D01*
X014510Y013355D01*
X014473Y013362D01*
X014437Y013371D01*
X014402Y013384D01*
X014368Y013398D01*
X014369Y013399D01*
X014403Y013384D01*
X014438Y013372D01*
X014473Y013363D01*
X014510Y013356D01*
X014546Y013351D01*
X014584Y013350D01*
X014584Y013351D01*
X014547Y013352D01*
X014510Y013357D01*
X014474Y013364D01*
X014438Y013373D01*
X014403Y013385D01*
X014369Y013400D01*
X014370Y013401D01*
X014403Y013386D01*
X014438Y013374D01*
X014474Y013364D01*
X014510Y013358D01*
X014547Y013353D01*
X014584Y013352D01*
X014584Y013353D01*
X014547Y013354D01*
X014510Y013359D01*
X014474Y013365D01*
X014438Y013375D01*
X014404Y013387D01*
X014370Y013402D01*
X013915Y013389D02*
X013931Y013400D01*
X013930Y013400D02*
X013963Y013355D01*
X013998Y013313D01*
X014037Y013274D01*
X014077Y013237D01*
X014121Y013204D01*
X014166Y013173D01*
X014214Y013146D01*
X014263Y013122D01*
X014314Y013101D01*
X014367Y013084D01*
X014420Y013071D01*
X014474Y013062D01*
X014529Y013056D01*
X014584Y013054D01*
X014584Y013036D01*
X014584Y013035D01*
X014527Y013037D01*
X014471Y013043D01*
X014416Y013053D01*
X014361Y013066D01*
X014308Y013083D01*
X014256Y013104D01*
X014205Y013129D01*
X014156Y013157D01*
X014110Y013188D01*
X014065Y013223D01*
X014023Y013260D01*
X013984Y013301D01*
X013948Y013344D01*
X013915Y013389D01*
X013915Y013390D01*
X013949Y013344D01*
X013985Y013301D01*
X014024Y013261D01*
X014066Y013224D01*
X014110Y013189D01*
X014157Y013158D01*
X014206Y013130D01*
X014256Y013105D01*
X014308Y013084D01*
X014362Y013067D01*
X014416Y013054D01*
X014472Y013044D01*
X014527Y013038D01*
X014584Y013036D01*
X014584Y013037D01*
X014527Y013039D01*
X014472Y013045D01*
X014416Y013055D01*
X014362Y013068D01*
X014309Y013085D01*
X014257Y013106D01*
X014206Y013131D01*
X014157Y013159D01*
X014111Y013190D01*
X014067Y013224D01*
X014025Y013262D01*
X013986Y013302D01*
X013949Y013345D01*
X013916Y013390D01*
X013917Y013391D01*
X013950Y013345D01*
X013986Y013303D01*
X014025Y013263D01*
X014067Y013225D01*
X014111Y013191D01*
X014158Y013160D01*
X014207Y013132D01*
X014257Y013107D01*
X014309Y013086D01*
X014362Y013069D01*
X014417Y013056D01*
X014472Y013046D01*
X014528Y013040D01*
X014584Y013038D01*
X014584Y013039D01*
X014528Y013041D01*
X014472Y013047D01*
X014417Y013057D01*
X014363Y013070D01*
X014309Y013087D01*
X014257Y013108D01*
X014207Y013133D01*
X014159Y013160D01*
X014112Y013192D01*
X014068Y013226D01*
X014026Y013263D01*
X013987Y013303D01*
X013951Y013346D01*
X013918Y013391D01*
X013919Y013392D01*
X013952Y013347D01*
X013988Y013304D01*
X014027Y013264D01*
X014068Y013227D01*
X014113Y013192D01*
X014159Y013161D01*
X014208Y013133D01*
X014258Y013109D01*
X014310Y013088D01*
X014363Y013071D01*
X014417Y013058D01*
X014472Y013048D01*
X014528Y013042D01*
X014584Y013040D01*
X014584Y013041D01*
X014528Y013043D01*
X014472Y013049D01*
X014417Y013058D01*
X014363Y013072D01*
X014310Y013089D01*
X014258Y013110D01*
X014208Y013134D01*
X014160Y013162D01*
X014113Y013193D01*
X014069Y013227D01*
X014028Y013265D01*
X013989Y013305D01*
X013953Y013347D01*
X013920Y013392D01*
X013920Y013393D01*
X013953Y013348D01*
X013989Y013305D01*
X014028Y013265D01*
X014070Y013228D01*
X014114Y013194D01*
X014160Y013163D01*
X014208Y013135D01*
X014259Y013111D01*
X014310Y013090D01*
X014363Y013073D01*
X014417Y013059D01*
X014472Y013050D01*
X014528Y013044D01*
X014584Y013042D01*
X014584Y013043D01*
X014528Y013045D01*
X014472Y013051D01*
X014418Y013060D01*
X014364Y013074D01*
X014311Y013091D01*
X014259Y013112D01*
X014209Y013136D01*
X014161Y013164D01*
X014114Y013195D01*
X014070Y013229D01*
X014029Y013266D01*
X013990Y013306D01*
X013954Y013349D01*
X013921Y013393D01*
X013922Y013394D01*
X013955Y013349D01*
X013991Y013307D01*
X014030Y013267D01*
X014071Y013230D01*
X014115Y013196D01*
X014161Y013165D01*
X014209Y013137D01*
X014259Y013113D01*
X014311Y013092D01*
X014364Y013075D01*
X014418Y013061D01*
X014473Y013052D01*
X014528Y013046D01*
X014584Y013044D01*
X014584Y013045D01*
X014528Y013047D01*
X014473Y013053D01*
X014418Y013062D01*
X014364Y013076D01*
X014311Y013093D01*
X014260Y013114D01*
X014210Y013138D01*
X014162Y013166D01*
X014116Y013196D01*
X014072Y013231D01*
X014030Y013268D01*
X013992Y013307D01*
X013956Y013350D01*
X013923Y013395D01*
X013924Y013395D01*
X013956Y013350D01*
X013992Y013308D01*
X014031Y013268D01*
X014072Y013231D01*
X014116Y013197D01*
X014162Y013166D01*
X014210Y013139D01*
X014260Y013115D01*
X014312Y013094D01*
X014364Y013077D01*
X014418Y013063D01*
X014473Y013054D01*
X014528Y013048D01*
X014584Y013046D01*
X014584Y013047D01*
X014528Y013049D01*
X014473Y013055D01*
X014418Y013064D01*
X014365Y013078D01*
X014312Y013095D01*
X014261Y013115D01*
X014211Y013140D01*
X014163Y013167D01*
X014117Y013198D01*
X014073Y013232D01*
X014032Y013269D01*
X013993Y013309D01*
X013957Y013351D01*
X013924Y013396D01*
X013925Y013396D01*
X013958Y013352D01*
X013994Y013309D01*
X014032Y013270D01*
X014074Y013233D01*
X014117Y013199D01*
X014163Y013168D01*
X014211Y013141D01*
X014261Y013116D01*
X014312Y013096D01*
X014365Y013079D01*
X014419Y013065D01*
X014473Y013056D01*
X014528Y013050D01*
X014584Y013048D01*
X014584Y013049D01*
X014528Y013051D01*
X014473Y013057D01*
X014419Y013066D01*
X014365Y013080D01*
X014313Y013097D01*
X014261Y013117D01*
X014212Y013141D01*
X014164Y013169D01*
X014118Y013200D01*
X014074Y013234D01*
X014033Y013270D01*
X013995Y013310D01*
X013959Y013352D01*
X013926Y013397D01*
X013927Y013397D01*
X013960Y013353D01*
X013995Y013311D01*
X014034Y013271D01*
X014075Y013234D01*
X014118Y013201D01*
X014164Y013170D01*
X014212Y013142D01*
X014262Y013118D01*
X014313Y013098D01*
X014366Y013081D01*
X014419Y013067D01*
X014473Y013058D01*
X014528Y013052D01*
X014584Y013050D01*
X014584Y013051D01*
X014528Y013053D01*
X014474Y013059D01*
X014419Y013068D01*
X014366Y013082D01*
X014313Y013099D01*
X014262Y013119D01*
X014213Y013143D01*
X014165Y013171D01*
X014119Y013201D01*
X014076Y013235D01*
X014034Y013272D01*
X013996Y013311D01*
X013960Y013354D01*
X013928Y013398D01*
X013929Y013399D01*
X013961Y013354D01*
X013997Y013312D01*
X014035Y013273D01*
X014076Y013236D01*
X014120Y013202D01*
X014165Y013171D01*
X014213Y013144D01*
X014263Y013120D01*
X014314Y013099D01*
X014366Y013083D01*
X014420Y013069D01*
X014474Y013060D01*
X014528Y013054D01*
X014584Y013052D01*
X014584Y013053D01*
X014529Y013055D01*
X014474Y013061D01*
X014420Y013070D01*
X014366Y013083D01*
X014314Y013100D01*
X014263Y013121D01*
X014214Y013145D01*
X014166Y013172D01*
X014120Y013203D01*
X014077Y013237D01*
X014036Y013273D01*
X013997Y013313D01*
X013962Y013355D01*
X013929Y013399D01*
X017284Y013036D02*
X017284Y013055D01*
X017285Y013054D02*
X017339Y013056D01*
X017394Y013062D01*
X017448Y013071D01*
X017501Y013084D01*
X017554Y013101D01*
X017605Y013122D01*
X017654Y013146D01*
X017702Y013173D01*
X017747Y013204D01*
X017791Y013238D01*
X017832Y013274D01*
X017870Y013313D01*
X017905Y013355D01*
X017938Y013400D01*
X017953Y013390D01*
X017953Y013389D01*
X017920Y013344D01*
X017884Y013301D01*
X017845Y013260D01*
X017803Y013223D01*
X017758Y013188D01*
X017712Y013157D01*
X017663Y013129D01*
X017612Y013105D01*
X017560Y013084D01*
X017507Y013066D01*
X017452Y013053D01*
X017397Y013043D01*
X017341Y013037D01*
X017285Y013035D01*
X017285Y013036D01*
X017341Y013038D01*
X017397Y013044D01*
X017452Y013054D01*
X017506Y013067D01*
X017560Y013084D01*
X017612Y013105D01*
X017662Y013130D01*
X017711Y013158D01*
X017758Y013189D01*
X017802Y013224D01*
X017844Y013261D01*
X017883Y013301D01*
X017919Y013344D01*
X017953Y013390D01*
X017952Y013390D01*
X017919Y013345D01*
X017882Y013302D01*
X017843Y013262D01*
X017801Y013224D01*
X017757Y013190D01*
X017711Y013159D01*
X017662Y013131D01*
X017611Y013106D01*
X017559Y013085D01*
X017506Y013068D01*
X017452Y013055D01*
X017396Y013045D01*
X017341Y013039D01*
X017285Y013037D01*
X017285Y013038D01*
X017341Y013040D01*
X017396Y013046D01*
X017451Y013056D01*
X017506Y013069D01*
X017559Y013086D01*
X017611Y013107D01*
X017661Y013132D01*
X017710Y013160D01*
X017757Y013191D01*
X017801Y013225D01*
X017843Y013263D01*
X017882Y013303D01*
X017918Y013346D01*
X017951Y013391D01*
X017950Y013391D01*
X017917Y013346D01*
X017881Y013303D01*
X017842Y013263D01*
X017800Y013226D01*
X017756Y013192D01*
X017710Y013160D01*
X017661Y013133D01*
X017611Y013108D01*
X017559Y013087D01*
X017506Y013070D01*
X017451Y013057D01*
X017396Y013047D01*
X017340Y013041D01*
X017285Y013039D01*
X017285Y013040D01*
X017340Y013042D01*
X017396Y013048D01*
X017451Y013058D01*
X017505Y013071D01*
X017558Y013088D01*
X017610Y013109D01*
X017661Y013133D01*
X017709Y013161D01*
X017755Y013192D01*
X017800Y013227D01*
X017841Y013264D01*
X017880Y013304D01*
X017916Y013347D01*
X017949Y013392D01*
X017948Y013392D01*
X017915Y013347D01*
X017879Y013305D01*
X017841Y013265D01*
X017799Y013228D01*
X017755Y013193D01*
X017708Y013162D01*
X017660Y013134D01*
X017610Y013110D01*
X017558Y013089D01*
X017505Y013072D01*
X017451Y013058D01*
X017396Y013049D01*
X017340Y013043D01*
X017285Y013041D01*
X017285Y013042D01*
X017340Y013044D01*
X017396Y013050D01*
X017451Y013059D01*
X017505Y013073D01*
X017558Y013090D01*
X017609Y013111D01*
X017660Y013135D01*
X017708Y013163D01*
X017754Y013194D01*
X017798Y013228D01*
X017840Y013265D01*
X017879Y013305D01*
X017915Y013348D01*
X017948Y013393D01*
X017947Y013394D01*
X017914Y013349D01*
X017878Y013306D01*
X017839Y013266D01*
X017798Y013229D01*
X017754Y013195D01*
X017707Y013164D01*
X017659Y013136D01*
X017609Y013112D01*
X017557Y013091D01*
X017504Y013074D01*
X017450Y013060D01*
X017396Y013051D01*
X017340Y013045D01*
X017285Y013043D01*
X017285Y013044D01*
X017340Y013046D01*
X017395Y013052D01*
X017450Y013061D01*
X017504Y013075D01*
X017557Y013092D01*
X017609Y013113D01*
X017659Y013137D01*
X017707Y013165D01*
X017753Y013196D01*
X017797Y013230D01*
X017838Y013267D01*
X017877Y013307D01*
X017913Y013349D01*
X017946Y013394D01*
X017945Y013395D01*
X017912Y013350D01*
X017876Y013307D01*
X017838Y013268D01*
X017796Y013231D01*
X017752Y013197D01*
X017706Y013166D01*
X017658Y013138D01*
X017608Y013114D01*
X017557Y013093D01*
X017504Y013076D01*
X017450Y013062D01*
X017395Y013053D01*
X017340Y013047D01*
X017285Y013045D01*
X017285Y013046D01*
X017340Y013048D01*
X017395Y013054D01*
X017450Y013063D01*
X017504Y013077D01*
X017556Y013094D01*
X017608Y013115D01*
X017658Y013139D01*
X017706Y013166D01*
X017752Y013197D01*
X017796Y013231D01*
X017837Y013268D01*
X017876Y013308D01*
X017912Y013350D01*
X017944Y013395D01*
X017944Y013396D01*
X017911Y013351D01*
X017875Y013309D01*
X017836Y013269D01*
X017795Y013232D01*
X017751Y013198D01*
X017705Y013167D01*
X017657Y013140D01*
X017607Y013115D01*
X017556Y013095D01*
X017503Y013078D01*
X017450Y013064D01*
X017395Y013055D01*
X017340Y013049D01*
X017285Y013047D01*
X017285Y013048D01*
X017340Y013050D01*
X017395Y013056D01*
X017449Y013065D01*
X017503Y013079D01*
X017556Y013096D01*
X017607Y013116D01*
X017657Y013141D01*
X017705Y013168D01*
X017751Y013199D01*
X017794Y013233D01*
X017836Y013270D01*
X017874Y013309D01*
X017910Y013352D01*
X017943Y013396D01*
X017942Y013397D01*
X017909Y013352D01*
X017874Y013310D01*
X017835Y013271D01*
X017794Y013234D01*
X017750Y013200D01*
X017704Y013169D01*
X017656Y013141D01*
X017607Y013117D01*
X017555Y013097D01*
X017503Y013080D01*
X017449Y013066D01*
X017395Y013057D01*
X017340Y013051D01*
X017285Y013049D01*
X017285Y013050D01*
X017340Y013052D01*
X017395Y013058D01*
X017449Y013067D01*
X017503Y013081D01*
X017555Y013098D01*
X017606Y013118D01*
X017656Y013142D01*
X017704Y013170D01*
X017750Y013201D01*
X017793Y013234D01*
X017834Y013271D01*
X017873Y013311D01*
X017908Y013353D01*
X017941Y013397D01*
X017940Y013398D01*
X017908Y013354D01*
X017872Y013311D01*
X017834Y013272D01*
X017793Y013235D01*
X017749Y013201D01*
X017703Y013171D01*
X017655Y013143D01*
X017606Y013119D01*
X017555Y013099D01*
X017502Y013082D01*
X017449Y013068D01*
X017394Y013059D01*
X017340Y013053D01*
X017285Y013051D01*
X017285Y013052D01*
X017340Y013054D01*
X017394Y013060D01*
X017449Y013069D01*
X017502Y013083D01*
X017554Y013100D01*
X017605Y013120D01*
X017655Y013144D01*
X017703Y013172D01*
X017748Y013202D01*
X017792Y013236D01*
X017833Y013273D01*
X017871Y013312D01*
X017907Y013354D01*
X017939Y013399D01*
X017906Y013355D01*
X017871Y013313D01*
X017832Y013273D01*
X017791Y013237D01*
X017748Y013203D01*
X017702Y013172D01*
X017654Y013145D01*
X017605Y013121D01*
X017554Y013100D01*
X017502Y013084D01*
X017448Y013070D01*
X017394Y013061D01*
X017339Y013055D01*
X017285Y013053D01*
X017284Y013336D02*
X017284Y013355D01*
X017284Y013354D02*
X017321Y013355D01*
X017358Y013360D01*
X017394Y013366D01*
X017429Y013376D01*
X017464Y013388D01*
X017498Y013403D01*
X017505Y013386D01*
X017506Y013386D01*
X017471Y013370D01*
X017435Y013358D01*
X017398Y013348D01*
X017361Y013341D01*
X017323Y013336D01*
X017284Y013335D01*
X017284Y013336D01*
X017323Y013337D01*
X017360Y013342D01*
X017398Y013349D01*
X017435Y013359D01*
X017471Y013371D01*
X017505Y013387D01*
X017505Y013388D01*
X017470Y013372D01*
X017434Y013360D01*
X017398Y013350D01*
X017360Y013343D01*
X017322Y013338D01*
X017284Y013337D01*
X017284Y013338D01*
X017322Y013339D01*
X017360Y013344D01*
X017397Y013351D01*
X017434Y013361D01*
X017470Y013373D01*
X017505Y013388D01*
X017504Y013389D01*
X017469Y013374D01*
X017434Y013362D01*
X017397Y013352D01*
X017360Y013345D01*
X017322Y013340D01*
X017284Y013339D01*
X017284Y013340D01*
X017322Y013341D01*
X017360Y013346D01*
X017397Y013353D01*
X017433Y013363D01*
X017469Y013375D01*
X017504Y013390D01*
X017503Y013391D01*
X017469Y013376D01*
X017433Y013364D01*
X017397Y013354D01*
X017360Y013347D01*
X017322Y013342D01*
X017284Y013341D01*
X017284Y013342D01*
X017322Y013343D01*
X017359Y013348D01*
X017396Y013355D01*
X017433Y013365D01*
X017468Y013377D01*
X017503Y013392D01*
X017502Y013393D01*
X017468Y013378D01*
X017433Y013365D01*
X017396Y013356D01*
X017359Y013349D01*
X017322Y013344D01*
X017284Y013343D01*
X017284Y013344D01*
X017322Y013345D01*
X017359Y013350D01*
X017396Y013357D01*
X017432Y013366D01*
X017468Y013379D01*
X017502Y013394D01*
X017501Y013395D01*
X017467Y013380D01*
X017432Y013367D01*
X017396Y013358D01*
X017359Y013351D01*
X017322Y013346D01*
X017284Y013345D01*
X017284Y013346D01*
X017322Y013347D01*
X017359Y013352D01*
X017396Y013359D01*
X017432Y013368D01*
X017467Y013381D01*
X017501Y013396D01*
X017501Y013397D01*
X017466Y013382D01*
X017431Y013369D01*
X017395Y013360D01*
X017359Y013353D01*
X017322Y013348D01*
X017284Y013347D01*
X017284Y013348D01*
X017322Y013349D01*
X017359Y013354D01*
X017395Y013361D01*
X017431Y013370D01*
X017466Y013383D01*
X017500Y013397D01*
X017500Y013398D01*
X017466Y013384D01*
X017431Y013371D01*
X017395Y013362D01*
X017358Y013355D01*
X017322Y013350D01*
X017284Y013349D01*
X017284Y013350D01*
X017322Y013351D01*
X017358Y013356D01*
X017395Y013363D01*
X017430Y013372D01*
X017465Y013384D01*
X017499Y013399D01*
X017499Y013400D01*
X017465Y013385D01*
X017430Y013373D01*
X017394Y013364D01*
X017358Y013357D01*
X017321Y013352D01*
X017284Y013351D01*
X017284Y013352D01*
X017321Y013353D01*
X017358Y013358D01*
X017394Y013364D01*
X017430Y013374D01*
X017465Y013386D01*
X017498Y013401D01*
X017498Y013402D01*
X017464Y013387D01*
X017430Y013375D01*
X017394Y013365D01*
X017358Y013359D01*
X017321Y013354D01*
X017284Y013353D01*
X017505Y014304D02*
X017497Y014287D01*
X017498Y014287D02*
X017464Y014302D01*
X017429Y014314D01*
X017394Y014324D01*
X017358Y014330D01*
X017321Y014335D01*
X017284Y014336D01*
X017284Y014354D01*
X017284Y014355D01*
X017323Y014354D01*
X017361Y014349D01*
X017398Y014342D01*
X017435Y014332D01*
X017471Y014320D01*
X017506Y014304D01*
X017505Y014303D01*
X017471Y014319D01*
X017435Y014331D01*
X017398Y014341D01*
X017360Y014348D01*
X017323Y014353D01*
X017284Y014354D01*
X017284Y014353D01*
X017322Y014352D01*
X017360Y014347D01*
X017398Y014340D01*
X017434Y014330D01*
X017470Y014318D01*
X017505Y014302D01*
X017470Y014317D01*
X017434Y014329D01*
X017397Y014339D01*
X017360Y014346D01*
X017322Y014351D01*
X017284Y014352D01*
X017284Y014351D01*
X017322Y014350D01*
X017360Y014345D01*
X017397Y014338D01*
X017434Y014328D01*
X017469Y014316D01*
X017504Y014301D01*
X017504Y014300D01*
X017469Y014315D01*
X017433Y014327D01*
X017397Y014337D01*
X017360Y014344D01*
X017322Y014349D01*
X017284Y014350D01*
X017284Y014349D01*
X017322Y014348D01*
X017360Y014343D01*
X017397Y014336D01*
X017433Y014326D01*
X017469Y014314D01*
X017503Y014299D01*
X017503Y014298D01*
X017468Y014313D01*
X017433Y014325D01*
X017396Y014335D01*
X017359Y014342D01*
X017322Y014347D01*
X017284Y014348D01*
X017284Y014347D01*
X017322Y014346D01*
X017359Y014341D01*
X017396Y014334D01*
X017433Y014325D01*
X017468Y014312D01*
X017502Y014297D01*
X017502Y014296D01*
X017468Y014311D01*
X017432Y014324D01*
X017396Y014333D01*
X017359Y014340D01*
X017322Y014345D01*
X017284Y014346D01*
X017284Y014345D01*
X017322Y014344D01*
X017359Y014339D01*
X017396Y014332D01*
X017432Y014323D01*
X017467Y014310D01*
X017501Y014295D01*
X017501Y014294D01*
X017467Y014309D01*
X017432Y014322D01*
X017396Y014331D01*
X017359Y014338D01*
X017322Y014343D01*
X017284Y014344D01*
X017284Y014343D01*
X017322Y014342D01*
X017359Y014337D01*
X017395Y014330D01*
X017431Y014321D01*
X017466Y014308D01*
X017501Y014293D01*
X017500Y014293D01*
X017466Y014307D01*
X017431Y014320D01*
X017395Y014329D01*
X017359Y014336D01*
X017322Y014341D01*
X017284Y014342D01*
X017284Y014341D01*
X017322Y014340D01*
X017358Y014335D01*
X017395Y014328D01*
X017431Y014319D01*
X017466Y014306D01*
X017500Y014292D01*
X017499Y014291D01*
X017465Y014306D01*
X017430Y014318D01*
X017395Y014327D01*
X017358Y014334D01*
X017322Y014339D01*
X017284Y014340D01*
X017284Y014339D01*
X017321Y014338D01*
X017358Y014333D01*
X017394Y014326D01*
X017430Y014317D01*
X017465Y014305D01*
X017499Y014290D01*
X017498Y014289D01*
X017465Y014304D01*
X017430Y014316D01*
X017394Y014326D01*
X017358Y014332D01*
X017321Y014337D01*
X017284Y014338D01*
X017284Y014337D01*
X017321Y014336D01*
X017358Y014331D01*
X017394Y014325D01*
X017430Y014315D01*
X017464Y014303D01*
X017498Y014288D01*
X017953Y014301D02*
X017937Y014290D01*
X017938Y014290D02*
X017905Y014335D01*
X017870Y014377D01*
X017831Y014416D01*
X017791Y014453D01*
X017747Y014486D01*
X017702Y014517D01*
X017654Y014544D01*
X017605Y014568D01*
X017554Y014589D01*
X017501Y014606D01*
X017448Y014619D01*
X017394Y014628D01*
X017339Y014634D01*
X017284Y014636D01*
X017284Y014654D01*
X017284Y014655D01*
X017341Y014653D01*
X017397Y014647D01*
X017452Y014637D01*
X017507Y014624D01*
X017560Y014607D01*
X017612Y014586D01*
X017663Y014561D01*
X017712Y014533D01*
X017758Y014502D01*
X017803Y014467D01*
X017845Y014430D01*
X017884Y014389D01*
X017920Y014346D01*
X017953Y014301D01*
X017953Y014300D01*
X017919Y014346D01*
X017883Y014389D01*
X017844Y014429D01*
X017802Y014466D01*
X017758Y014501D01*
X017711Y014532D01*
X017662Y014560D01*
X017612Y014585D01*
X017560Y014606D01*
X017506Y014623D01*
X017452Y014636D01*
X017396Y014646D01*
X017341Y014652D01*
X017284Y014654D01*
X017284Y014653D01*
X017341Y014651D01*
X017396Y014645D01*
X017452Y014635D01*
X017506Y014622D01*
X017559Y014605D01*
X017611Y014584D01*
X017662Y014559D01*
X017711Y014531D01*
X017757Y014500D01*
X017801Y014466D01*
X017843Y014428D01*
X017882Y014388D01*
X017919Y014345D01*
X017952Y014300D01*
X017951Y014299D01*
X017918Y014345D01*
X017882Y014387D01*
X017843Y014427D01*
X017801Y014465D01*
X017757Y014499D01*
X017710Y014530D01*
X017661Y014558D01*
X017611Y014583D01*
X017559Y014604D01*
X017506Y014621D01*
X017451Y014634D01*
X017396Y014644D01*
X017340Y014650D01*
X017284Y014652D01*
X017284Y014651D01*
X017340Y014649D01*
X017396Y014643D01*
X017451Y014633D01*
X017505Y014620D01*
X017559Y014603D01*
X017611Y014582D01*
X017661Y014557D01*
X017709Y014530D01*
X017756Y014498D01*
X017800Y014464D01*
X017842Y014427D01*
X017881Y014387D01*
X017917Y014344D01*
X017950Y014299D01*
X017949Y014298D01*
X017916Y014343D01*
X017880Y014386D01*
X017841Y014426D01*
X017800Y014463D01*
X017755Y014498D01*
X017709Y014529D01*
X017660Y014557D01*
X017610Y014581D01*
X017558Y014602D01*
X017505Y014619D01*
X017451Y014632D01*
X017396Y014642D01*
X017340Y014648D01*
X017284Y014650D01*
X017284Y014649D01*
X017340Y014647D01*
X017396Y014641D01*
X017451Y014632D01*
X017505Y014618D01*
X017558Y014601D01*
X017610Y014580D01*
X017660Y014556D01*
X017708Y014528D01*
X017755Y014497D01*
X017799Y014463D01*
X017840Y014425D01*
X017879Y014385D01*
X017915Y014343D01*
X017948Y014298D01*
X017948Y014297D01*
X017915Y014342D01*
X017879Y014385D01*
X017840Y014425D01*
X017798Y014462D01*
X017754Y014496D01*
X017708Y014527D01*
X017660Y014555D01*
X017609Y014579D01*
X017558Y014600D01*
X017505Y014617D01*
X017451Y014631D01*
X017396Y014640D01*
X017340Y014646D01*
X017284Y014648D01*
X017284Y014647D01*
X017340Y014645D01*
X017396Y014639D01*
X017450Y014630D01*
X017504Y014616D01*
X017557Y014599D01*
X017609Y014578D01*
X017659Y014554D01*
X017707Y014526D01*
X017754Y014495D01*
X017798Y014461D01*
X017839Y014424D01*
X017878Y014384D01*
X017914Y014341D01*
X017947Y014297D01*
X017946Y014296D01*
X017913Y014341D01*
X017877Y014383D01*
X017838Y014423D01*
X017797Y014460D01*
X017753Y014494D01*
X017707Y014525D01*
X017659Y014553D01*
X017609Y014577D01*
X017557Y014598D01*
X017504Y014615D01*
X017450Y014629D01*
X017395Y014638D01*
X017340Y014644D01*
X017284Y014646D01*
X017284Y014645D01*
X017340Y014643D01*
X017395Y014637D01*
X017450Y014628D01*
X017504Y014614D01*
X017557Y014597D01*
X017608Y014576D01*
X017658Y014552D01*
X017706Y014524D01*
X017752Y014494D01*
X017796Y014459D01*
X017838Y014422D01*
X017876Y014383D01*
X017912Y014340D01*
X017945Y014295D01*
X017944Y014295D01*
X017912Y014340D01*
X017876Y014382D01*
X017837Y014422D01*
X017796Y014459D01*
X017752Y014493D01*
X017706Y014524D01*
X017658Y014551D01*
X017608Y014575D01*
X017556Y014596D01*
X017504Y014613D01*
X017450Y014627D01*
X017395Y014636D01*
X017340Y014642D01*
X017284Y014644D01*
X017284Y014643D01*
X017340Y014641D01*
X017395Y014635D01*
X017450Y014626D01*
X017503Y014612D01*
X017556Y014595D01*
X017607Y014575D01*
X017657Y014550D01*
X017705Y014523D01*
X017751Y014492D01*
X017795Y014458D01*
X017836Y014421D01*
X017875Y014381D01*
X017911Y014339D01*
X017944Y014294D01*
X017943Y014294D01*
X017910Y014338D01*
X017874Y014381D01*
X017836Y014420D01*
X017794Y014457D01*
X017751Y014491D01*
X017705Y014522D01*
X017657Y014549D01*
X017607Y014574D01*
X017556Y014594D01*
X017503Y014611D01*
X017449Y014625D01*
X017395Y014634D01*
X017340Y014640D01*
X017284Y014642D01*
X017284Y014641D01*
X017340Y014639D01*
X017395Y014633D01*
X017449Y014624D01*
X017503Y014610D01*
X017555Y014593D01*
X017607Y014573D01*
X017656Y014549D01*
X017704Y014521D01*
X017750Y014490D01*
X017794Y014456D01*
X017835Y014420D01*
X017873Y014380D01*
X017909Y014338D01*
X017942Y014293D01*
X017941Y014293D01*
X017908Y014337D01*
X017873Y014379D01*
X017834Y014419D01*
X017793Y014456D01*
X017750Y014489D01*
X017704Y014520D01*
X017656Y014548D01*
X017606Y014572D01*
X017555Y014592D01*
X017502Y014609D01*
X017449Y014623D01*
X017395Y014632D01*
X017340Y014638D01*
X017284Y014640D01*
X017284Y014639D01*
X017340Y014637D01*
X017394Y014631D01*
X017449Y014622D01*
X017502Y014608D01*
X017555Y014591D01*
X017606Y014571D01*
X017655Y014547D01*
X017703Y014519D01*
X017749Y014489D01*
X017792Y014455D01*
X017834Y014418D01*
X017872Y014379D01*
X017908Y014336D01*
X017940Y014292D01*
X017939Y014291D01*
X017907Y014336D01*
X017871Y014378D01*
X017833Y014417D01*
X017792Y014454D01*
X017748Y014488D01*
X017703Y014519D01*
X017655Y014546D01*
X017605Y014570D01*
X017554Y014591D01*
X017502Y014607D01*
X017448Y014621D01*
X017394Y014630D01*
X017340Y014636D01*
X017284Y014638D01*
X017284Y014637D01*
X017339Y014635D01*
X017394Y014629D01*
X017448Y014620D01*
X017502Y014607D01*
X017554Y014590D01*
X017605Y014569D01*
X017654Y014545D01*
X017702Y014518D01*
X017748Y014487D01*
X017791Y014453D01*
X017832Y014417D01*
X017871Y014377D01*
X017906Y014335D01*
X017939Y014291D01*
D16*
X017284Y014345D02*
X014584Y014345D01*
X014584Y014645D02*
X017284Y014645D01*
X016334Y013845D02*
X016184Y013845D01*
X015684Y013845D02*
X015534Y013845D01*
X014584Y013345D02*
X017284Y013345D01*
X017284Y013045D02*
X014584Y013045D01*
X023309Y013975D02*
X027309Y013975D01*
X002029Y003555D02*
X002031Y003578D01*
X002037Y003600D01*
X002046Y003622D01*
X002059Y003641D01*
X002074Y003658D01*
X002092Y003672D01*
X002113Y003683D01*
X002135Y003691D01*
X002157Y003695D01*
X002181Y003695D01*
X002203Y003691D01*
X002225Y003683D01*
X002246Y003672D01*
X002264Y003658D01*
X002279Y003641D01*
X002292Y003622D01*
X002301Y003600D01*
X002307Y003578D01*
X002309Y003555D01*
X002307Y003532D01*
X002301Y003510D01*
X002292Y003488D01*
X002279Y003469D01*
X002264Y003452D01*
X002246Y003438D01*
X002225Y003427D01*
X002203Y003419D01*
X002181Y003415D01*
X002157Y003415D01*
X002135Y003419D01*
X002113Y003427D01*
X002092Y003438D01*
X002074Y003452D01*
X002059Y003469D01*
X002046Y003488D01*
X002037Y003510D01*
X002031Y003532D01*
X002029Y003555D01*
D17*
X002784Y003945D02*
X002934Y003945D01*
X002859Y003945D02*
X002859Y004396D01*
X002784Y004396D02*
X002934Y004396D01*
X003091Y004321D02*
X003166Y004396D01*
X003316Y004396D01*
X003391Y004321D01*
X003551Y004321D02*
X003626Y004396D01*
X003776Y004396D01*
X003851Y004321D01*
X003851Y004246D01*
X003776Y004171D01*
X003851Y004096D01*
X003851Y004021D01*
X003776Y003945D01*
X003626Y003945D01*
X003551Y004021D01*
X003391Y004021D02*
X003316Y003945D01*
X003166Y003945D01*
X003091Y004021D01*
X003091Y004321D01*
X003701Y004171D02*
X003776Y004171D01*
X007834Y004096D02*
X007834Y004021D01*
X007909Y003946D01*
X008059Y003946D01*
X008134Y003871D01*
X008134Y003796D01*
X008059Y003720D01*
X007909Y003720D01*
X007834Y003796D01*
X007834Y004096D02*
X007909Y004171D01*
X008059Y004171D01*
X008134Y004096D01*
X008294Y003946D02*
X008519Y003946D01*
X008595Y003871D01*
X008595Y003796D01*
X008519Y003720D01*
X008369Y003720D01*
X008294Y003796D01*
X008294Y003946D01*
X008444Y004096D01*
X008595Y004171D01*
X009334Y004146D02*
X009334Y004071D01*
X009409Y003996D01*
X009559Y003996D01*
X009634Y003921D01*
X009634Y003846D01*
X009559Y003770D01*
X009409Y003770D01*
X009334Y003846D01*
X009334Y004146D02*
X009409Y004221D01*
X009559Y004221D01*
X009634Y004146D01*
X009794Y004221D02*
X010095Y004221D01*
X010095Y004146D01*
X009794Y003846D01*
X009794Y003770D01*
X011334Y003796D02*
X011409Y003720D01*
X011559Y003720D01*
X011634Y003796D01*
X011634Y003871D01*
X011559Y003946D01*
X011409Y003946D01*
X011334Y004021D01*
X011334Y004096D01*
X011409Y004171D01*
X011559Y004171D01*
X011634Y004096D01*
X011794Y004096D02*
X011794Y004021D01*
X011869Y003946D01*
X012019Y003946D01*
X012095Y003871D01*
X012095Y003796D01*
X012019Y003720D01*
X011869Y003720D01*
X011794Y003796D01*
X011794Y003871D01*
X011869Y003946D01*
X012019Y003946D02*
X012095Y004021D01*
X012095Y004096D01*
X012019Y004171D01*
X011869Y004171D01*
X011794Y004096D01*
X012834Y004071D02*
X012909Y003996D01*
X013059Y003996D01*
X013134Y003921D01*
X013134Y003846D01*
X013059Y003770D01*
X012909Y003770D01*
X012834Y003846D01*
X012834Y004071D02*
X012834Y004146D01*
X012909Y004221D01*
X013059Y004221D01*
X013134Y004146D01*
X013294Y004146D02*
X013294Y004071D01*
X013369Y003996D01*
X013595Y003996D01*
X013595Y003846D02*
X013595Y004146D01*
X013519Y004221D01*
X013369Y004221D01*
X013294Y004146D01*
X013434Y004595D02*
X026059Y004595D01*
X026059Y010595D01*
X013434Y010595D01*
X013434Y004595D01*
X013294Y003846D02*
X013369Y003770D01*
X013519Y003770D01*
X013595Y003846D01*
X014584Y003846D02*
X014659Y003770D01*
X014809Y003770D01*
X014884Y003846D01*
X014884Y003921D01*
X014809Y003996D01*
X014659Y003996D01*
X014584Y004071D01*
X014584Y004146D01*
X014659Y004221D01*
X014809Y004221D01*
X014884Y004146D01*
X015044Y004071D02*
X015194Y004221D01*
X015194Y003770D01*
X015044Y003770D02*
X015345Y003770D01*
X015505Y003846D02*
X015805Y004146D01*
X015805Y003846D01*
X015730Y003770D01*
X015580Y003770D01*
X015505Y003846D01*
X015505Y004146D01*
X015580Y004221D01*
X015730Y004221D01*
X015805Y004146D01*
X016209Y004096D02*
X016209Y004021D01*
X016284Y003946D01*
X016434Y003946D01*
X016509Y003871D01*
X016509Y003796D01*
X016434Y003720D01*
X016284Y003720D01*
X016209Y003796D01*
X016209Y004096D02*
X016284Y004171D01*
X016434Y004171D01*
X016509Y004096D01*
X016669Y004021D02*
X016819Y004171D01*
X016819Y003720D01*
X016669Y003720D02*
X016970Y003720D01*
X017130Y003720D02*
X017430Y003720D01*
X017280Y003720D02*
X017280Y004171D01*
X017130Y004021D01*
X021459Y004021D02*
X021534Y003946D01*
X021684Y003946D01*
X021759Y003871D01*
X021759Y003796D01*
X021684Y003720D01*
X021534Y003720D01*
X021459Y003796D01*
X021459Y004021D02*
X021459Y004096D01*
X021534Y004171D01*
X021684Y004171D01*
X021759Y004096D01*
X021919Y004096D02*
X021994Y004171D01*
X022144Y004171D01*
X022220Y004096D01*
X021919Y003796D01*
X021994Y003720D01*
X022144Y003720D01*
X022220Y003796D01*
X022220Y004096D01*
X021919Y004096D02*
X021919Y003796D01*
X022959Y003796D02*
X023034Y003720D01*
X023184Y003720D01*
X023259Y003796D01*
X023259Y003871D01*
X023184Y003946D01*
X023034Y003946D01*
X022959Y004021D01*
X022959Y004096D01*
X023034Y004171D01*
X023184Y004171D01*
X023259Y004096D01*
X023419Y004021D02*
X023569Y004171D01*
X023569Y003720D01*
X023419Y003720D02*
X023720Y003720D01*
X025209Y003796D02*
X025284Y003720D01*
X025434Y003720D01*
X025509Y003796D01*
X025509Y003871D01*
X025434Y003946D01*
X025284Y003946D01*
X025209Y004021D01*
X025209Y004096D01*
X025284Y004171D01*
X025434Y004171D01*
X025509Y004096D01*
X025669Y004096D02*
X025744Y004171D01*
X025894Y004171D01*
X025970Y004096D01*
X025970Y004021D01*
X025669Y003720D01*
X025970Y003720D01*
X026709Y003796D02*
X026784Y003720D01*
X026934Y003720D01*
X027009Y003796D01*
X027009Y003871D01*
X026934Y003946D01*
X026784Y003946D01*
X026709Y004021D01*
X026709Y004096D01*
X026784Y004171D01*
X026934Y004171D01*
X027009Y004096D01*
X027169Y004096D02*
X027244Y004171D01*
X027394Y004171D01*
X027470Y004096D01*
X027470Y004021D01*
X027394Y003946D01*
X027470Y003871D01*
X027470Y003796D01*
X027394Y003720D01*
X027244Y003720D01*
X027169Y003796D01*
X027319Y003946D02*
X027394Y003946D01*
X028709Y004021D02*
X028784Y003946D01*
X028934Y003946D01*
X029009Y003871D01*
X029009Y003796D01*
X028934Y003720D01*
X028784Y003720D01*
X028709Y003796D01*
X028709Y004021D02*
X028709Y004096D01*
X028784Y004171D01*
X028934Y004171D01*
X029009Y004096D01*
X029169Y003946D02*
X029470Y003946D01*
X029394Y004171D02*
X029394Y003720D01*
X029169Y003946D02*
X029394Y004171D01*
X030209Y004096D02*
X030209Y004021D01*
X030284Y003946D01*
X030434Y003946D01*
X030509Y003871D01*
X030509Y003796D01*
X030434Y003720D01*
X030284Y003720D01*
X030209Y003796D01*
X030209Y004096D02*
X030284Y004171D01*
X030434Y004171D01*
X030509Y004096D01*
X030669Y004171D02*
X030669Y003946D01*
X030819Y004021D01*
X030894Y004021D01*
X030970Y003946D01*
X030970Y003796D01*
X030894Y003720D01*
X030744Y003720D01*
X030669Y003796D01*
X030669Y004171D02*
X030970Y004171D01*
X032309Y011310D02*
X032309Y011610D01*
X032534Y011535D02*
X032083Y011535D01*
X032309Y011310D01*
X028526Y013971D02*
X028451Y013895D01*
X028301Y013895D01*
X028226Y013971D01*
X028226Y014121D02*
X028376Y014196D01*
X028451Y014196D01*
X028526Y014121D01*
X028526Y013971D01*
X028226Y014121D02*
X028226Y014346D01*
X028526Y014346D01*
X028066Y014271D02*
X027991Y014346D01*
X027841Y014346D01*
X027766Y014271D01*
X027766Y013971D01*
X027841Y013895D01*
X027991Y013895D01*
X028066Y013971D01*
X027609Y013895D02*
X027459Y013895D01*
X027534Y013895D02*
X027534Y014346D01*
X027459Y014346D02*
X027609Y014346D01*
X029875Y015805D02*
X030102Y015805D01*
X029988Y015805D02*
X029988Y016146D01*
X029875Y016032D01*
X032083Y016010D02*
X032534Y016010D01*
X032534Y015860D02*
X032534Y016160D01*
X032234Y015860D02*
X032083Y016010D01*
X031784Y018670D02*
X031709Y018670D01*
X031409Y018971D01*
X031333Y018971D01*
X031333Y018670D01*
X030784Y018746D02*
X030784Y018896D01*
X030709Y018971D01*
X030634Y018971D01*
X030559Y018896D01*
X030559Y018670D01*
X030709Y018670D01*
X030784Y018746D01*
X030559Y018670D02*
X030409Y018821D01*
X030333Y018971D01*
X029784Y018896D02*
X029784Y018746D01*
X029709Y018670D01*
X029559Y018670D02*
X029484Y018821D01*
X029484Y018896D01*
X029559Y018971D01*
X029709Y018971D01*
X029784Y018896D01*
X029559Y018670D02*
X029333Y018670D01*
X029333Y018971D01*
X028784Y018896D02*
X028333Y018896D01*
X028559Y018670D01*
X028559Y018971D01*
X027784Y018896D02*
X027784Y018746D01*
X027709Y018670D01*
X027559Y018821D02*
X027559Y018896D01*
X027634Y018971D01*
X027709Y018971D01*
X027784Y018896D01*
X027559Y018896D02*
X027484Y018971D01*
X027409Y018971D01*
X027333Y018896D01*
X027333Y018746D01*
X027409Y018670D01*
X026784Y018670D02*
X026484Y018971D01*
X026409Y018971D01*
X026333Y018896D01*
X026333Y018746D01*
X026409Y018670D01*
X026784Y018670D02*
X026784Y018971D01*
X025784Y018971D02*
X025784Y018670D01*
X025784Y018821D02*
X025333Y018821D01*
X025484Y018670D01*
X024534Y018746D02*
X024459Y018670D01*
X024384Y018670D01*
X024309Y018746D01*
X024309Y018896D01*
X024384Y018971D01*
X024459Y018971D01*
X024534Y018896D01*
X024534Y018746D01*
X024309Y018746D02*
X024234Y018670D01*
X024159Y018670D01*
X024083Y018746D01*
X024083Y018896D01*
X024159Y018971D01*
X024234Y018971D01*
X024309Y018896D01*
X023534Y018670D02*
X023459Y018670D01*
X023159Y018971D01*
X023083Y018971D01*
X023083Y018670D01*
X022534Y018746D02*
X022534Y018896D01*
X022459Y018971D01*
X022384Y018971D01*
X022309Y018896D01*
X022309Y018670D01*
X022459Y018670D01*
X022534Y018746D01*
X022309Y018670D02*
X022159Y018821D01*
X022083Y018971D01*
X021534Y018896D02*
X021534Y018746D01*
X021459Y018670D01*
X021309Y018670D02*
X021234Y018821D01*
X021234Y018896D01*
X021309Y018971D01*
X021459Y018971D01*
X021534Y018896D01*
X021309Y018670D02*
X021083Y018670D01*
X021083Y018971D01*
X020534Y018896D02*
X020083Y018896D01*
X020309Y018670D01*
X020309Y018971D01*
X019534Y018896D02*
X019534Y018746D01*
X019459Y018670D01*
X019309Y018821D02*
X019309Y018896D01*
X019384Y018971D01*
X019459Y018971D01*
X019534Y018896D01*
X019309Y018896D02*
X019234Y018971D01*
X019159Y018971D01*
X019083Y018896D01*
X019083Y018746D01*
X019159Y018670D01*
X018534Y018670D02*
X018534Y018971D01*
X018234Y018971D02*
X018534Y018670D01*
X018159Y018670D02*
X018083Y018746D01*
X018083Y018896D01*
X018159Y018971D01*
X018234Y018971D01*
X017534Y018971D02*
X017534Y018670D01*
X017534Y018821D02*
X017083Y018821D01*
X017234Y018670D01*
X013895Y018146D02*
X013895Y017846D01*
X013819Y017770D01*
X013669Y017770D01*
X013594Y017846D01*
X013895Y018146D01*
X013819Y018221D01*
X013669Y018221D01*
X013594Y018146D01*
X013594Y017846D01*
X013434Y017770D02*
X013134Y017770D01*
X013284Y017770D02*
X013284Y018221D01*
X013134Y018071D01*
X013829Y019613D02*
X013829Y021582D01*
X000758Y021582D01*
X000758Y019613D01*
X013829Y019613D01*
X013658Y015471D02*
X013658Y015020D01*
X013357Y015471D01*
X013357Y015020D01*
X013197Y015096D02*
X013197Y015396D01*
X013122Y015471D01*
X012972Y015471D01*
X012897Y015396D01*
X012897Y015096D01*
X012972Y015020D01*
X013122Y015020D01*
X013197Y015096D01*
X012740Y015020D02*
X012590Y015020D01*
X012665Y015020D02*
X012665Y015471D01*
X012590Y015471D02*
X012740Y015471D01*
X012430Y015471D02*
X012130Y015471D01*
X012280Y015471D02*
X012280Y015020D01*
X011970Y015246D02*
X011894Y015171D01*
X011669Y015171D01*
X011669Y015020D02*
X011669Y015471D01*
X011894Y015471D01*
X011970Y015396D01*
X011970Y015246D01*
X011509Y015096D02*
X011509Y015396D01*
X011434Y015471D01*
X011284Y015471D01*
X011209Y015396D01*
X011209Y015096D01*
X011284Y015020D01*
X011434Y015020D01*
X011509Y015096D01*
X009434Y014970D02*
X009134Y014970D01*
X009284Y014970D02*
X009284Y015421D01*
X009134Y015271D01*
X009284Y011721D02*
X009209Y011646D01*
X009209Y011571D01*
X009284Y011496D01*
X009434Y011496D01*
X009509Y011421D01*
X009509Y011346D01*
X009434Y011270D01*
X009284Y011270D01*
X009209Y011346D01*
X009509Y011646D02*
X009434Y011721D01*
X009284Y011721D01*
X009669Y011721D02*
X009970Y011270D01*
X009669Y011270D02*
X009970Y011721D01*
X009970Y010221D02*
X009970Y010146D01*
X009819Y009996D01*
X009819Y009770D01*
X009819Y009996D02*
X009669Y010146D01*
X009669Y010221D01*
X009509Y010146D02*
X009434Y010221D01*
X009284Y010221D01*
X009209Y010146D01*
X009209Y010071D01*
X009284Y009996D01*
X009434Y009996D01*
X009509Y009921D01*
X009509Y009846D01*
X009434Y009770D01*
X009284Y009770D01*
X009209Y009846D01*
X016709Y015046D02*
X016784Y014970D01*
X016934Y014970D01*
X017009Y015046D01*
X017009Y015346D01*
X016934Y015421D01*
X016784Y015421D01*
X016709Y015346D01*
X016709Y015046D01*
X016859Y015121D02*
X017009Y014970D01*
X017169Y014970D02*
X017470Y014970D01*
X017319Y014970D02*
X017319Y015421D01*
X017169Y015271D01*
X020828Y015321D02*
X020828Y014870D01*
X020828Y015021D02*
X021053Y015021D01*
X021128Y015096D01*
X021128Y015246D01*
X021053Y015321D01*
X020828Y015321D01*
X020978Y015021D02*
X021128Y014870D01*
X021288Y014870D02*
X021288Y015321D01*
X021588Y014870D01*
X021588Y015321D01*
X021748Y015171D02*
X021899Y015321D01*
X021899Y014870D01*
X022049Y014870D02*
X021748Y014870D01*
X001673Y019731D02*
X001673Y020459D01*
X001673Y020460D02*
X000945Y020460D01*
X000945Y019731D01*
X001673Y019731D01*
X001220Y019087D02*
X001220Y018636D01*
X001070Y018636D02*
X001371Y018636D01*
X001070Y018936D02*
X001220Y019087D01*
X032333Y018896D02*
X032333Y018746D01*
X032409Y018670D01*
X032484Y018670D01*
X032559Y018746D01*
X032559Y018896D01*
X032634Y018971D01*
X032709Y018971D01*
X032784Y018896D01*
X032784Y018746D01*
X032709Y018670D01*
X032634Y018670D01*
X032559Y018746D01*
X032559Y018896D02*
X032484Y018971D01*
X032409Y018971D01*
X032333Y018896D01*
D18*
X019199Y010328D02*
X019199Y006863D01*
X019041Y006706D01*
X015577Y006706D01*
X015419Y006863D01*
X015419Y010328D01*
X015577Y010485D01*
X019041Y010485D01*
X019199Y010328D01*
X027331Y006324D02*
X027331Y005992D01*
X027331Y006324D02*
X028412Y006324D01*
X028787Y005824D02*
X028787Y005367D01*
X028412Y004867D02*
X027331Y004867D01*
X027331Y005199D01*
X006888Y006080D02*
X006888Y001621D01*
X004230Y001621D02*
X004230Y006080D01*
X005099Y013395D02*
X002519Y013395D01*
X002519Y014795D01*
X005099Y014795D01*
X005099Y013395D01*
D19*
X015623Y007021D02*
X015625Y007041D01*
X015630Y007061D01*
X015640Y007079D01*
X015652Y007096D01*
X015667Y007110D01*
X015685Y007120D01*
X015704Y007128D01*
X015724Y007132D01*
X015744Y007132D01*
X015764Y007128D01*
X015783Y007120D01*
X015801Y007110D01*
X015816Y007096D01*
X015828Y007079D01*
X015838Y007061D01*
X015843Y007041D01*
X015845Y007021D01*
X015843Y007001D01*
X015838Y006981D01*
X015828Y006963D01*
X015816Y006946D01*
X015801Y006932D01*
X015783Y006922D01*
X015764Y006914D01*
X015744Y006910D01*
X015724Y006910D01*
X015704Y006914D01*
X015685Y006922D01*
X015667Y006932D01*
X015652Y006946D01*
X015640Y006963D01*
X015630Y006981D01*
X015625Y007001D01*
X015623Y007021D01*
D20*
X017309Y019845D02*
X017309Y021695D01*
X018309Y021695D02*
X018309Y019845D01*
X019309Y019845D02*
X019309Y021695D01*
X020309Y021695D02*
X020309Y019845D01*
X021309Y019845D02*
X021309Y021695D01*
X022309Y021695D02*
X022309Y019845D01*
X023309Y019845D02*
X023309Y021695D01*
X024309Y021695D02*
X024309Y019845D01*
X025559Y019845D02*
X025559Y021695D01*
X026559Y021695D02*
X026559Y019845D01*
X027559Y019845D02*
X027559Y021695D01*
X028559Y021695D02*
X028559Y019845D01*
X029559Y019845D02*
X029559Y021695D01*
X030559Y021695D02*
X030559Y019845D01*
X031559Y019845D02*
X031559Y021695D01*
X032559Y021695D02*
X032559Y019845D01*
D21*
X032559Y019695D03*
X031559Y019695D03*
X030559Y019695D03*
X029559Y019695D03*
X028559Y019695D03*
X027559Y019695D03*
X026559Y019695D03*
X025559Y019695D03*
X024309Y019695D03*
X023309Y019695D03*
X022309Y019695D03*
X021309Y019695D03*
X020309Y019695D03*
X019309Y019695D03*
X018309Y019695D03*
X017309Y019695D03*
D22*
X017309Y018315D03*
X018309Y018315D03*
X019309Y018315D03*
X020309Y018315D03*
X021309Y018315D03*
X022309Y018315D03*
X023309Y018315D03*
X024309Y018315D03*
X025559Y018315D03*
X026559Y018315D03*
X027559Y018315D03*
X028559Y018315D03*
X029559Y018315D03*
X030559Y018315D03*
X031559Y018315D03*
X032559Y018315D03*
D23*
X006559Y012760D03*
M02*
