G75*
G70*
%OFA0B0*%
%FSLAX24Y24*%
%IPPOS*%
%LPD*%
%AMOC8*
5,1,8,0,0,1.08239X$1,22.5*
%
%ADD10C,0.0070*%
%ADD11C,0.0050*%
%ADD12C,0.0160*%
%ADD13C,0.0030*%
%ADD14C,0.0040*%
%ADD15C,0.0080*%
%ADD16C,0.0000*%
%ADD17C,0.0060*%
D10*
X011416Y014942D02*
X011680Y014942D01*
X011548Y014942D02*
X011548Y015469D01*
X011680Y015469D01*
X011548Y015732D02*
X011548Y015864D01*
X011945Y015600D02*
X011945Y015337D01*
X012077Y015205D01*
X012472Y015205D01*
X012472Y014942D02*
X012472Y015732D01*
X012077Y015732D01*
X011945Y015600D01*
X012737Y015337D02*
X012737Y015205D01*
X013264Y015205D01*
X013264Y015073D02*
X013264Y015337D01*
X013132Y015469D01*
X012868Y015469D01*
X012737Y015337D01*
X013132Y014942D02*
X013264Y015073D01*
X013132Y014942D02*
X012868Y014942D01*
X013528Y014942D02*
X013660Y015073D01*
X013660Y015600D01*
X013792Y015469D02*
X013528Y015469D01*
X014056Y015469D02*
X014320Y015469D01*
X014188Y015600D02*
X014188Y015073D01*
X014056Y014942D01*
X014584Y015205D02*
X015111Y015205D01*
X015111Y015073D02*
X015111Y015337D01*
X014980Y015469D01*
X014716Y015469D01*
X014584Y015337D01*
X014584Y015205D01*
X014716Y014942D02*
X014980Y014942D01*
X015111Y015073D01*
X015376Y014942D02*
X015376Y015469D01*
X015903Y015469D02*
X015903Y015073D01*
X015772Y014942D01*
X015376Y014942D01*
X016168Y015205D02*
X016168Y015337D01*
X016300Y015469D01*
X016563Y015469D01*
X016695Y015337D01*
X016695Y015073D01*
X016563Y014942D01*
X016300Y014942D01*
X016168Y015205D02*
X016695Y015205D01*
X016960Y014942D02*
X017223Y014942D01*
X017091Y014942D02*
X017091Y015732D01*
X017223Y015732D01*
X017488Y015600D02*
X017488Y015469D01*
X017620Y015337D01*
X018015Y015337D01*
X018015Y015732D02*
X017620Y015732D01*
X017488Y015600D01*
X017620Y015337D02*
X017488Y015205D01*
X017488Y015073D01*
X017620Y014942D01*
X018015Y014942D01*
X018015Y015732D01*
D11*
X018025Y014667D02*
X018025Y014057D01*
X018025Y014362D02*
X017923Y014464D01*
X017720Y014464D01*
X017618Y014362D01*
X017618Y014057D01*
X017417Y014158D02*
X017316Y014057D01*
X017010Y014057D01*
X017010Y014464D01*
X016810Y014362D02*
X016708Y014464D01*
X016403Y014464D01*
X016403Y013955D01*
X016504Y013853D01*
X016606Y013853D01*
X016708Y014057D02*
X016403Y014057D01*
X016202Y014158D02*
X016100Y014057D01*
X015897Y014057D01*
X015795Y014158D01*
X015795Y014362D01*
X015897Y014464D01*
X016100Y014464D01*
X016202Y014362D01*
X016202Y014158D01*
X016708Y014057D02*
X016810Y014158D01*
X016810Y014362D01*
X017417Y014464D02*
X017417Y014158D01*
X015594Y013853D02*
X015391Y014057D01*
X015492Y014057D01*
X015492Y014158D01*
X015391Y014158D01*
X015391Y014057D01*
X014581Y014158D02*
X014480Y014057D01*
X014276Y014057D01*
X014174Y014158D01*
X014174Y014565D01*
X014581Y014158D01*
X014581Y014565D01*
X014480Y014667D01*
X014276Y014667D01*
X014174Y014565D01*
X013974Y014362D02*
X013567Y014362D01*
X013668Y014057D02*
X013668Y014667D01*
X013974Y014362D01*
X013366Y014057D02*
X012959Y014667D01*
X012758Y014565D02*
X012656Y014667D01*
X012453Y014667D01*
X012351Y014565D01*
X012351Y014464D01*
X012758Y014057D01*
X012351Y014057D01*
X012150Y014158D02*
X011743Y014565D01*
X011743Y014158D01*
X011845Y014057D01*
X012049Y014057D01*
X012150Y014158D01*
X012150Y014565D01*
X012049Y014667D01*
X011845Y014667D01*
X011743Y014565D01*
X011543Y014464D02*
X011339Y014667D01*
X011339Y014057D01*
X011136Y014057D02*
X011543Y014057D01*
X010935Y014158D02*
X010833Y014057D01*
X010630Y014057D01*
X010528Y014158D01*
X010528Y014260D01*
X010630Y014362D01*
X010731Y014362D01*
X010630Y014362D02*
X010528Y014464D01*
X010528Y014565D01*
X010630Y014667D01*
X010833Y014667D01*
X010935Y014565D01*
X019175Y017782D02*
X020425Y017782D01*
X020425Y018407D01*
X019550Y018407D01*
X019300Y018657D01*
X019175Y018407D02*
X019550Y018407D01*
X019175Y018407D02*
X019175Y017782D01*
X020425Y017782D02*
X021925Y017782D01*
X021925Y018407D01*
X020425Y018407D01*
X022785Y007057D02*
X022785Y006982D01*
X022935Y006832D01*
X022935Y006607D01*
X022935Y006832D02*
X023085Y006982D01*
X023085Y007057D01*
X023246Y006982D02*
X023246Y006682D01*
X023321Y006607D01*
X023546Y006607D01*
X023546Y007057D01*
X023321Y007057D01*
X023246Y006982D01*
X023706Y006982D02*
X023706Y006832D01*
X023781Y006757D01*
X024006Y006757D01*
X023856Y006757D02*
X023706Y006607D01*
X024006Y006607D02*
X024006Y007057D01*
X023781Y007057D01*
X023706Y006982D01*
X024166Y006982D02*
X024166Y006682D01*
X024241Y006607D01*
X024467Y006607D01*
X024467Y007057D01*
X024241Y007057D01*
X024166Y006982D01*
D12*
X009617Y009157D02*
X009619Y009216D01*
X009625Y009274D01*
X009635Y009332D01*
X009649Y009390D01*
X009666Y009446D01*
X009688Y009500D01*
X009713Y009554D01*
X009741Y009605D01*
X009773Y009655D01*
X009808Y009702D01*
X009847Y009746D01*
X009888Y009788D01*
X009932Y009827D01*
X009978Y009863D01*
X010027Y009896D01*
X010078Y009926D01*
X010131Y009951D01*
X010185Y009974D01*
X010241Y009992D01*
X010298Y010007D01*
X010356Y010018D01*
X010415Y010025D01*
X010473Y010028D01*
X010532Y010027D01*
X010591Y010022D01*
X010649Y010013D01*
X010706Y010000D01*
X010763Y009984D01*
X010818Y009963D01*
X010872Y009939D01*
X010923Y009911D01*
X010973Y009880D01*
X011021Y009846D01*
X011066Y009808D01*
X011109Y009768D01*
X011149Y009724D01*
X011186Y009678D01*
X011219Y009630D01*
X011250Y009580D01*
X011276Y009527D01*
X011300Y009473D01*
X011319Y009418D01*
X011335Y009361D01*
X011347Y009303D01*
X011355Y009245D01*
X011359Y009186D01*
X011359Y009128D01*
X011355Y009069D01*
X011347Y009011D01*
X011335Y008953D01*
X011319Y008896D01*
X011300Y008841D01*
X011276Y008787D01*
X011250Y008734D01*
X011219Y008684D01*
X011186Y008636D01*
X011149Y008590D01*
X011109Y008546D01*
X011066Y008506D01*
X011021Y008468D01*
X010973Y008434D01*
X010924Y008403D01*
X010872Y008375D01*
X010818Y008351D01*
X010763Y008330D01*
X010706Y008314D01*
X010649Y008301D01*
X010591Y008292D01*
X010532Y008287D01*
X010473Y008286D01*
X010415Y008289D01*
X010356Y008296D01*
X010298Y008307D01*
X010241Y008322D01*
X010185Y008340D01*
X010131Y008363D01*
X010078Y008388D01*
X010027Y008418D01*
X009978Y008451D01*
X009932Y008487D01*
X009888Y008526D01*
X009847Y008568D01*
X009808Y008612D01*
X009773Y008659D01*
X009741Y008709D01*
X009713Y008760D01*
X009688Y008814D01*
X009666Y008868D01*
X009649Y008924D01*
X009635Y008982D01*
X009625Y009040D01*
X009619Y009098D01*
X009617Y009157D01*
X031173Y019157D02*
X031175Y019216D01*
X031181Y019274D01*
X031191Y019332D01*
X031204Y019389D01*
X031222Y019445D01*
X031243Y019499D01*
X031267Y019553D01*
X031295Y019604D01*
X031327Y019653D01*
X031362Y019701D01*
X031400Y019745D01*
X031440Y019787D01*
X031484Y019827D01*
X031530Y019863D01*
X031578Y019896D01*
X031629Y019926D01*
X031681Y019953D01*
X031735Y019975D01*
X031790Y019995D01*
X031847Y020010D01*
X031904Y020022D01*
X031962Y020030D01*
X032021Y020034D01*
X032079Y020034D01*
X032138Y020030D01*
X032196Y020022D01*
X032253Y020010D01*
X032310Y019995D01*
X032365Y019975D01*
X032419Y019953D01*
X032471Y019926D01*
X032522Y019896D01*
X032570Y019863D01*
X032616Y019827D01*
X032660Y019787D01*
X032700Y019745D01*
X032738Y019701D01*
X032773Y019653D01*
X032805Y019604D01*
X032833Y019553D01*
X032857Y019499D01*
X032878Y019445D01*
X032896Y019389D01*
X032909Y019332D01*
X032919Y019274D01*
X032925Y019216D01*
X032927Y019157D01*
X032925Y019098D01*
X032919Y019040D01*
X032909Y018982D01*
X032896Y018925D01*
X032878Y018869D01*
X032857Y018815D01*
X032833Y018761D01*
X032805Y018710D01*
X032773Y018661D01*
X032738Y018613D01*
X032700Y018569D01*
X032660Y018527D01*
X032616Y018487D01*
X032570Y018451D01*
X032522Y018418D01*
X032471Y018388D01*
X032419Y018361D01*
X032365Y018339D01*
X032310Y018319D01*
X032253Y018304D01*
X032196Y018292D01*
X032138Y018284D01*
X032079Y018280D01*
X032021Y018280D01*
X031962Y018284D01*
X031904Y018292D01*
X031847Y018304D01*
X031790Y018319D01*
X031735Y018339D01*
X031681Y018361D01*
X031629Y018388D01*
X031578Y018418D01*
X031530Y018451D01*
X031484Y018487D01*
X031440Y018527D01*
X031400Y018569D01*
X031362Y018613D01*
X031327Y018661D01*
X031295Y018710D01*
X031267Y018761D01*
X031243Y018815D01*
X031222Y018869D01*
X031204Y018925D01*
X031191Y018982D01*
X031181Y019040D01*
X031175Y019098D01*
X031173Y019157D01*
D13*
X021785Y018292D02*
X021662Y018292D01*
X021723Y018292D02*
X021723Y017922D01*
X021662Y017922D02*
X021785Y017922D01*
X021539Y017922D02*
X021539Y018292D01*
X021293Y017922D01*
X021293Y018292D01*
X021171Y018292D02*
X020924Y018292D01*
X021048Y018292D02*
X021048Y017922D01*
X020803Y017922D02*
X020803Y018168D01*
X020679Y018292D01*
X020556Y018168D01*
X020556Y017922D01*
X020556Y018107D02*
X020803Y018107D01*
X020285Y018230D02*
X020285Y017983D01*
X020223Y017922D01*
X020100Y017922D01*
X020038Y017983D01*
X019917Y017922D02*
X019670Y017922D01*
X019548Y017922D02*
X019301Y017922D01*
X019425Y017922D02*
X019425Y018292D01*
X019548Y018168D01*
X019670Y018292D02*
X019917Y018292D01*
X019917Y017922D01*
X019917Y018107D02*
X019793Y018107D01*
X020038Y018230D02*
X020100Y018292D01*
X020223Y018292D01*
X020285Y018230D01*
X020793Y021672D02*
X020670Y021795D01*
X020670Y022042D01*
X020917Y022042D02*
X020917Y021795D01*
X020793Y021672D01*
X021038Y021733D02*
X021100Y021672D01*
X021223Y021672D01*
X021285Y021733D01*
X021285Y021857D02*
X021162Y021918D01*
X021100Y021918D01*
X021038Y021857D01*
X021038Y021733D01*
X021285Y021857D02*
X021285Y022042D01*
X021038Y022042D01*
X019410Y021980D02*
X019410Y021733D01*
X019348Y021672D01*
X019225Y021672D01*
X019163Y021733D01*
X019042Y021672D02*
X019042Y022042D01*
X018795Y022042D01*
X018673Y021918D02*
X018550Y022042D01*
X018550Y021672D01*
X018673Y021672D02*
X018426Y021672D01*
X018795Y021672D02*
X019042Y021672D01*
X019042Y021857D02*
X018918Y021857D01*
X019163Y021980D02*
X019225Y022042D01*
X019348Y022042D01*
X019410Y021980D01*
X017660Y021980D02*
X017660Y021918D01*
X017598Y021857D01*
X017475Y021857D01*
X017413Y021795D01*
X017413Y021733D01*
X017475Y021672D01*
X017598Y021672D01*
X017660Y021733D01*
X017660Y021980D02*
X017598Y022042D01*
X017475Y022042D01*
X017413Y021980D01*
X017292Y021980D02*
X017292Y021733D01*
X017230Y021672D01*
X017107Y021672D01*
X017045Y021733D01*
X016923Y021672D02*
X016923Y022042D01*
X017045Y021980D02*
X017107Y022042D01*
X017230Y022042D01*
X017292Y021980D01*
X016923Y021672D02*
X016676Y021672D01*
X016555Y021672D02*
X016555Y022042D01*
X016493Y021857D02*
X016308Y021672D01*
X016555Y021795D02*
X016308Y022042D01*
X015535Y022042D02*
X015535Y021672D01*
X015288Y021672D02*
X015288Y022042D01*
X015412Y021918D01*
X015535Y022042D01*
X015167Y021980D02*
X015167Y021733D01*
X015105Y021672D01*
X014982Y021672D01*
X014920Y021733D01*
X014920Y021980D01*
X014982Y022042D01*
X015105Y022042D01*
X015167Y021980D01*
X014798Y021980D02*
X014798Y021918D01*
X014737Y021857D01*
X014613Y021857D01*
X014551Y021795D01*
X014551Y021733D01*
X014613Y021672D01*
X014737Y021672D01*
X014798Y021733D01*
X014798Y021980D02*
X014737Y022042D01*
X014613Y022042D01*
X014551Y021980D01*
X014430Y022042D02*
X014307Y022042D01*
X014368Y022042D02*
X014368Y021672D01*
X014307Y021672D02*
X014430Y021672D01*
X015368Y023547D02*
X015306Y023608D01*
X015306Y023855D01*
X015368Y023917D01*
X015491Y023917D01*
X015553Y023855D01*
X015553Y023608D01*
X015491Y023547D01*
X015368Y023547D01*
X015674Y023608D02*
X015736Y023547D01*
X015859Y023547D01*
X015921Y023608D01*
X016043Y023547D02*
X016167Y023547D01*
X016105Y023547D02*
X016105Y023917D01*
X016167Y023917D02*
X016043Y023917D01*
X015921Y023855D02*
X015921Y023793D01*
X015859Y023732D01*
X015736Y023732D01*
X015674Y023670D01*
X015674Y023608D01*
X015674Y023855D02*
X015736Y023917D01*
X015859Y023917D01*
X015921Y023855D01*
X016288Y023917D02*
X016288Y023547D01*
X016535Y023547D02*
X016535Y023917D01*
X016412Y023793D01*
X016288Y023917D01*
X017426Y023855D02*
X017673Y023608D01*
X017612Y023547D01*
X017488Y023547D01*
X017426Y023608D01*
X017426Y023855D01*
X017488Y023917D01*
X017612Y023917D01*
X017673Y023855D01*
X017673Y023608D01*
X017795Y023547D02*
X018042Y023547D01*
X018042Y023917D01*
X017795Y023917D01*
X017918Y023732D02*
X018042Y023732D01*
X018163Y023855D02*
X018225Y023917D01*
X018348Y023917D01*
X018410Y023855D01*
X018410Y023608D01*
X018348Y023547D01*
X018225Y023547D01*
X018163Y023608D01*
X019426Y023608D02*
X019426Y023855D01*
X019488Y023917D01*
X019673Y023917D01*
X019673Y023547D01*
X019488Y023547D01*
X019426Y023608D01*
X019795Y023547D02*
X019795Y023917D01*
X020042Y023917D02*
X019795Y023547D01*
X020042Y023547D02*
X020042Y023917D01*
X020163Y023855D02*
X020225Y023917D01*
X020348Y023917D01*
X020410Y023855D01*
X020410Y023608D01*
X020348Y023547D01*
X020225Y023547D01*
X020163Y023608D01*
X020163Y023732D01*
X020287Y023732D01*
X005160Y017608D02*
X005098Y017547D01*
X005037Y017547D01*
X004975Y017608D01*
X004975Y017917D01*
X005037Y017917D02*
X004913Y017917D01*
X004792Y017485D02*
X004545Y017485D01*
X004423Y017547D02*
X004423Y017917D01*
X004238Y017917D01*
X004176Y017855D01*
X004176Y017793D01*
X004238Y017732D01*
X004423Y017732D01*
X004238Y017732D02*
X004176Y017670D01*
X004176Y017608D01*
X004238Y017547D01*
X004423Y017547D01*
X004055Y017547D02*
X004055Y017793D01*
X003932Y017917D01*
X003808Y017793D01*
X003808Y017547D01*
X003808Y017732D02*
X004055Y017732D01*
X003687Y017917D02*
X003440Y017917D01*
X003318Y017917D02*
X003072Y017917D01*
X003195Y017917D02*
X003195Y017547D01*
X003563Y017547D02*
X003563Y017917D01*
X016013Y006542D02*
X016074Y006603D01*
X016198Y006603D01*
X016260Y006542D01*
X016260Y006295D01*
X016198Y006233D01*
X016074Y006233D01*
X016013Y006295D01*
X016381Y006295D02*
X016381Y006418D01*
X016504Y006418D01*
X016381Y006295D02*
X016443Y006233D01*
X016566Y006233D01*
X016628Y006295D01*
X016628Y006542D01*
X016566Y006603D01*
X016443Y006603D01*
X016381Y006542D01*
X016749Y006542D02*
X016749Y006418D01*
X016811Y006357D01*
X016996Y006357D01*
X016996Y006233D02*
X016996Y006603D01*
X016811Y006603D01*
X016749Y006542D01*
X017074Y006103D02*
X017260Y006103D01*
X017260Y005733D01*
X017074Y005733D01*
X017013Y005795D01*
X017013Y006042D01*
X017074Y006103D01*
X017381Y006042D02*
X017443Y006103D01*
X017566Y006103D01*
X017628Y006042D01*
X017628Y005795D01*
X017566Y005733D01*
X017443Y005733D01*
X017381Y005795D01*
X017381Y005918D01*
X017504Y005918D01*
X017749Y005918D02*
X017811Y005857D01*
X017996Y005857D01*
X017996Y005733D02*
X017996Y006103D01*
X017811Y006103D01*
X017749Y006042D01*
X017749Y005918D01*
X018138Y006295D02*
X018199Y006233D01*
X018323Y006233D01*
X018385Y006295D01*
X018506Y006295D02*
X018568Y006233D01*
X018691Y006233D01*
X018753Y006295D01*
X018874Y006357D02*
X018874Y006603D01*
X018753Y006542D02*
X018753Y006480D01*
X018691Y006418D01*
X018568Y006418D01*
X018506Y006357D01*
X018506Y006295D01*
X018323Y006418D02*
X018199Y006418D01*
X018138Y006357D01*
X018138Y006295D01*
X018323Y006418D02*
X018385Y006480D01*
X018385Y006542D01*
X018323Y006603D01*
X018199Y006603D01*
X018138Y006542D01*
X018506Y006542D02*
X018568Y006603D01*
X018691Y006603D01*
X018753Y006542D01*
X018874Y006357D02*
X018998Y006233D01*
X019121Y006357D01*
X019121Y006603D01*
X019199Y006103D02*
X019385Y006103D01*
X019385Y005733D01*
X019199Y005733D01*
X019138Y005795D01*
X019138Y006042D01*
X019199Y006103D01*
X019506Y006042D02*
X019568Y006103D01*
X019753Y006103D01*
X019753Y005733D01*
X019568Y005733D01*
X019506Y005795D01*
X019506Y006042D01*
X019874Y006103D02*
X019874Y005857D01*
X019998Y005733D01*
X020121Y005857D01*
X020121Y006103D01*
X020261Y006233D02*
X020261Y006603D01*
X020138Y006603D02*
X020385Y006603D01*
X020506Y006542D02*
X020568Y006603D01*
X020691Y006603D01*
X020753Y006542D01*
X020753Y006480D01*
X020691Y006418D01*
X020568Y006418D01*
X020506Y006357D01*
X020506Y006295D01*
X020568Y006233D01*
X020691Y006233D01*
X020753Y006295D01*
X020874Y006233D02*
X020998Y006357D01*
X020936Y006357D02*
X021121Y006357D01*
X021121Y006233D02*
X021121Y006603D01*
X020936Y006603D01*
X020874Y006542D01*
X020874Y006418D01*
X020936Y006357D01*
D14*
X027682Y004512D02*
X027682Y004052D01*
X027989Y004512D01*
X027989Y004052D01*
X028143Y004052D02*
X028296Y004052D01*
X028219Y004052D02*
X028219Y004512D01*
X028143Y004512D02*
X028296Y004512D01*
X028910Y004435D02*
X028987Y004512D01*
X029140Y004512D01*
X029217Y004435D01*
X029217Y004128D01*
X029140Y004052D01*
X028987Y004052D01*
X028910Y004128D01*
X028910Y004435D01*
X029370Y004512D02*
X029524Y004512D01*
X029447Y004512D02*
X029447Y004052D01*
X029524Y004052D02*
X029370Y004052D01*
X029677Y004128D02*
X029677Y004435D01*
X029754Y004512D01*
X029984Y004512D01*
X029984Y004052D01*
X029754Y004052D01*
X029677Y004128D01*
X030138Y004128D02*
X030138Y004512D01*
X030445Y004512D02*
X030445Y004128D01*
X030368Y004052D01*
X030214Y004052D01*
X030138Y004128D01*
X030598Y004052D02*
X030598Y004358D01*
X030752Y004512D01*
X030905Y004358D01*
X030905Y004052D01*
X030905Y004282D02*
X030598Y004282D01*
X030831Y009052D02*
X030831Y009512D01*
X030984Y009512D02*
X030677Y009512D01*
X030754Y009802D02*
X030677Y009878D01*
X030677Y010185D01*
X030754Y010262D01*
X030984Y010262D01*
X030984Y009802D01*
X030754Y009802D01*
X030524Y009802D02*
X030370Y009802D01*
X030447Y009802D02*
X030447Y010262D01*
X030524Y010262D02*
X030370Y010262D01*
X030217Y010185D02*
X030217Y009878D01*
X030140Y009802D01*
X029987Y009802D01*
X029910Y009878D01*
X029910Y010185D01*
X029987Y010262D01*
X030140Y010262D01*
X030217Y010185D01*
X031138Y010262D02*
X031138Y009878D01*
X031214Y009802D01*
X031368Y009802D01*
X031445Y009878D01*
X031445Y010262D01*
X031598Y010108D02*
X031598Y009802D01*
X031598Y010032D02*
X031905Y010032D01*
X031905Y010108D02*
X031752Y010262D01*
X031598Y010108D01*
X031905Y010108D02*
X031905Y009802D01*
X031828Y009512D02*
X031675Y009512D01*
X031598Y009435D01*
X031598Y009128D01*
X031675Y009052D01*
X031828Y009052D01*
X031905Y009128D01*
X031905Y009435D01*
X031828Y009512D01*
X031445Y009512D02*
X031445Y009128D01*
X031368Y009052D01*
X031214Y009052D01*
X031138Y009128D01*
X031138Y009512D01*
X021905Y014552D02*
X021905Y014858D01*
X021752Y015012D01*
X021598Y014858D01*
X021598Y014552D01*
X021445Y014552D02*
X021445Y015012D01*
X021138Y014552D01*
X021138Y015012D01*
X021598Y014782D02*
X021905Y014782D01*
X025907Y023302D02*
X025831Y023378D01*
X025831Y023455D01*
X025907Y023532D01*
X026138Y023532D01*
X026291Y023685D02*
X026368Y023762D01*
X026521Y023762D01*
X026598Y023685D01*
X026598Y023378D01*
X026521Y023302D01*
X026368Y023302D01*
X026291Y023378D01*
X026291Y023685D01*
X026138Y023762D02*
X026138Y023302D01*
X025907Y023302D01*
X025907Y023532D02*
X025831Y023608D01*
X025831Y023685D01*
X025907Y023762D01*
X026138Y023762D01*
X026752Y023762D02*
X026905Y023762D01*
X026828Y023762D02*
X026828Y023302D01*
X026752Y023302D02*
X026905Y023302D01*
X032081Y023302D02*
X032081Y023608D01*
X032234Y023762D01*
X032388Y023608D01*
X032388Y023302D01*
X032541Y023378D02*
X032541Y023685D01*
X032618Y023762D01*
X032771Y023762D01*
X032848Y023685D01*
X032848Y023378D01*
X032771Y023302D01*
X032618Y023302D01*
X032541Y023378D01*
X032388Y023532D02*
X032081Y023532D01*
X033002Y023762D02*
X033155Y023762D01*
X033078Y023762D02*
X033078Y023302D01*
X033002Y023302D02*
X033155Y023302D01*
X006655Y015262D02*
X006655Y014802D01*
X006348Y014802D01*
X006195Y014878D02*
X006118Y014802D01*
X005964Y014802D01*
X005888Y014878D01*
X005888Y015032D01*
X005964Y015108D01*
X006118Y015108D01*
X006195Y015032D01*
X006195Y014878D01*
X006348Y014512D02*
X006041Y014512D01*
X005888Y014512D02*
X005888Y014205D01*
X005734Y014052D01*
X005581Y014205D01*
X005581Y014512D01*
X005581Y014648D02*
X005504Y014648D01*
X005427Y014725D01*
X005427Y015108D01*
X005657Y015108D01*
X005734Y015032D01*
X005734Y014878D01*
X005657Y014802D01*
X005427Y014802D01*
X005274Y014802D02*
X005120Y014802D01*
X005197Y014802D02*
X005197Y015108D01*
X005274Y015108D01*
X005197Y015262D02*
X005197Y015339D01*
X004967Y015032D02*
X004890Y015108D01*
X004660Y015108D01*
X004660Y014802D02*
X004890Y014802D01*
X004967Y014878D01*
X004967Y015032D01*
X005427Y014512D02*
X005274Y014358D01*
X005274Y014205D01*
X005427Y014052D01*
X006041Y014128D02*
X006118Y014052D01*
X006271Y014052D01*
X006348Y014128D01*
X006348Y014282D02*
X006195Y014358D01*
X006118Y014358D01*
X006041Y014282D01*
X006041Y014128D01*
X006348Y014282D02*
X006348Y014512D01*
X006502Y014512D02*
X006655Y014358D01*
X006655Y014205D01*
X006502Y014052D01*
X005155Y012935D02*
X005155Y012628D01*
X005078Y012552D01*
X004925Y012552D01*
X004848Y012628D01*
X004848Y012782D01*
X005002Y012782D01*
X005155Y012935D02*
X005078Y013012D01*
X004925Y013012D01*
X004848Y012935D01*
X004695Y013012D02*
X004695Y012552D01*
X004388Y012552D02*
X004388Y013012D01*
X004234Y013012D02*
X004004Y013012D01*
X003927Y012935D01*
X003927Y012628D01*
X004004Y012552D01*
X004234Y012552D01*
X004234Y013012D01*
X004695Y013012D02*
X004388Y012552D01*
X004660Y011108D02*
X004813Y011108D01*
X004890Y011032D01*
X004890Y010878D01*
X004813Y010802D01*
X004660Y010802D01*
X004583Y010878D01*
X004583Y011032D01*
X004660Y011108D01*
X005044Y011108D02*
X005197Y010802D01*
X005351Y011108D01*
X005504Y011108D02*
X005581Y011108D01*
X005734Y010955D01*
X005734Y010802D02*
X005734Y011108D01*
X005888Y011032D02*
X005888Y010955D01*
X006195Y010955D01*
X006195Y011032D02*
X006118Y011108D01*
X005964Y011108D01*
X005888Y011032D01*
X005964Y010802D02*
X006118Y010802D01*
X006195Y010878D01*
X006195Y011032D01*
X006348Y010955D02*
X006348Y010878D01*
X006425Y010802D01*
X006578Y010802D01*
X006655Y010878D01*
X006578Y011032D02*
X006425Y011032D01*
X006348Y010955D01*
X006348Y011185D02*
X006425Y011262D01*
X006578Y011262D01*
X006655Y011185D01*
X006655Y011108D01*
X006578Y011032D01*
X006271Y010589D02*
X006118Y010435D01*
X006041Y010512D01*
X006271Y010589D02*
X006348Y010512D01*
X006502Y010512D02*
X006655Y010358D01*
X006655Y010205D01*
X006502Y010052D01*
X005888Y010128D02*
X005811Y010052D01*
X005657Y010052D01*
X005581Y010128D01*
X005581Y010205D01*
X005657Y010282D01*
X005888Y010282D01*
X005888Y010128D01*
X005888Y010282D02*
X005734Y010435D01*
X005581Y010512D01*
X005427Y010512D02*
X005427Y010205D01*
X005274Y010052D01*
X005120Y010205D01*
X005120Y010512D01*
X004967Y010512D02*
X004813Y010358D01*
X004813Y010205D01*
X004967Y010052D01*
X003969Y010648D02*
X003969Y011108D01*
X003739Y011108D01*
X003662Y011032D01*
X003662Y010878D01*
X003739Y010802D01*
X003969Y010802D01*
X003509Y010878D02*
X003509Y011108D01*
X003509Y010878D02*
X003432Y010802D01*
X003356Y010878D01*
X003279Y010802D01*
X003202Y010878D01*
X003202Y011108D01*
X003049Y011108D02*
X003049Y010802D01*
X003049Y010955D02*
X002895Y011108D01*
X002818Y011108D01*
X004046Y014648D02*
X004046Y015108D01*
X003816Y015108D01*
X003739Y015032D01*
X003739Y014878D01*
X003816Y014802D01*
X004046Y014802D01*
X003586Y014878D02*
X003586Y015108D01*
X003586Y014878D02*
X003509Y014802D01*
X003432Y014878D01*
X003356Y014802D01*
X003279Y014878D01*
X003279Y015108D01*
X003125Y015108D02*
X003125Y014802D01*
X003125Y014955D02*
X002972Y015108D01*
X002895Y015108D01*
D15*
X027900Y008552D02*
X027900Y008102D01*
X028420Y008002D01*
X028600Y007542D02*
X028310Y007112D01*
X028630Y006792D01*
X029050Y007072D01*
X029230Y006972D01*
X029560Y007772D01*
X028600Y007541D02*
X028565Y007603D01*
X028532Y007666D01*
X028503Y007731D01*
X028478Y007797D01*
X028455Y007864D01*
X028436Y007932D01*
X028420Y008002D01*
X028430Y008652D02*
X027900Y008552D01*
X028620Y009092D02*
X028310Y009542D01*
X028630Y009862D01*
X029090Y009552D01*
X029520Y009732D02*
X029620Y010272D01*
X030080Y010272D01*
X030180Y009732D01*
X030610Y009552D02*
X031060Y009862D01*
X031390Y009542D01*
X031080Y009092D01*
X031270Y008652D02*
X031800Y008552D01*
X031800Y008102D01*
X031280Y008002D01*
X031090Y007542D02*
X031390Y007112D01*
X031060Y006782D01*
X030640Y007072D01*
X030460Y006972D01*
X030130Y007772D01*
X030610Y009552D02*
X030552Y009585D01*
X030493Y009615D01*
X030432Y009642D01*
X030371Y009666D01*
X030308Y009688D01*
X030244Y009707D01*
X030180Y009722D01*
X031080Y009092D02*
X031116Y009034D01*
X031149Y008973D01*
X031180Y008911D01*
X031207Y008848D01*
X031231Y008784D01*
X031252Y008718D01*
X031270Y008652D01*
X029520Y009722D02*
X029446Y009703D01*
X029374Y009680D01*
X029303Y009653D01*
X029233Y009623D01*
X029166Y009589D01*
X029100Y009552D01*
X029560Y007772D02*
X029518Y007796D01*
X029479Y007824D01*
X029442Y007855D01*
X029407Y007889D01*
X029375Y007925D01*
X029347Y007964D01*
X029321Y008005D01*
X029299Y008048D01*
X029281Y008093D01*
X029266Y008139D01*
X029254Y008186D01*
X029247Y008233D01*
X029243Y008281D01*
X029244Y008330D01*
X029248Y008378D01*
X029256Y008425D01*
X029268Y008472D01*
X029283Y008518D01*
X029302Y008562D01*
X029325Y008605D01*
X029351Y008646D01*
X029380Y008684D01*
X029412Y008720D01*
X029447Y008754D01*
X029485Y008784D01*
X029524Y008811D01*
X029566Y008836D01*
X029610Y008856D01*
X029655Y008873D01*
X029701Y008887D01*
X029749Y008896D01*
X029797Y008902D01*
X029845Y008904D01*
X029893Y008902D01*
X029941Y008896D01*
X029989Y008887D01*
X030035Y008873D01*
X030080Y008856D01*
X030124Y008836D01*
X030166Y008811D01*
X030205Y008784D01*
X030243Y008754D01*
X030278Y008720D01*
X030310Y008684D01*
X030339Y008646D01*
X030365Y008605D01*
X030388Y008562D01*
X030407Y008518D01*
X030422Y008472D01*
X030434Y008425D01*
X030442Y008378D01*
X030446Y008330D01*
X030447Y008281D01*
X030443Y008233D01*
X030436Y008186D01*
X030424Y008139D01*
X030409Y008093D01*
X030391Y008048D01*
X030369Y008005D01*
X030343Y007964D01*
X030315Y007925D01*
X030283Y007889D01*
X030248Y007855D01*
X030211Y007824D01*
X030172Y007796D01*
X030130Y007772D01*
X031090Y007541D02*
X031125Y007603D01*
X031158Y007666D01*
X031187Y007731D01*
X031212Y007797D01*
X031235Y007864D01*
X031254Y007932D01*
X031270Y008002D01*
X028620Y009091D02*
X028584Y009032D01*
X028551Y008972D01*
X028521Y008910D01*
X028494Y008847D01*
X028469Y008783D01*
X028448Y008717D01*
X028430Y008651D01*
D16*
X009897Y009157D02*
X009899Y009205D01*
X009905Y009253D01*
X009915Y009300D01*
X009928Y009346D01*
X009946Y009391D01*
X009966Y009435D01*
X009991Y009477D01*
X010019Y009516D01*
X010049Y009553D01*
X010083Y009587D01*
X010120Y009619D01*
X010158Y009648D01*
X010199Y009673D01*
X010242Y009695D01*
X010287Y009713D01*
X010333Y009727D01*
X010380Y009738D01*
X010428Y009745D01*
X010476Y009748D01*
X010524Y009747D01*
X010572Y009742D01*
X010620Y009733D01*
X010666Y009721D01*
X010711Y009704D01*
X010755Y009684D01*
X010797Y009661D01*
X010837Y009634D01*
X010875Y009604D01*
X010910Y009571D01*
X010942Y009535D01*
X010972Y009497D01*
X010998Y009456D01*
X011020Y009413D01*
X011040Y009369D01*
X011055Y009324D01*
X011067Y009277D01*
X011075Y009229D01*
X011079Y009181D01*
X011079Y009133D01*
X011075Y009085D01*
X011067Y009037D01*
X011055Y008990D01*
X011040Y008945D01*
X011020Y008901D01*
X010998Y008858D01*
X010972Y008817D01*
X010942Y008779D01*
X010910Y008743D01*
X010875Y008710D01*
X010837Y008680D01*
X010797Y008653D01*
X010755Y008630D01*
X010711Y008610D01*
X010666Y008593D01*
X010620Y008581D01*
X010572Y008572D01*
X010524Y008567D01*
X010476Y008566D01*
X010428Y008569D01*
X010380Y008576D01*
X010333Y008587D01*
X010287Y008601D01*
X010242Y008619D01*
X010199Y008641D01*
X010158Y008666D01*
X010120Y008695D01*
X010083Y008727D01*
X010049Y008761D01*
X010019Y008798D01*
X009991Y008837D01*
X009966Y008879D01*
X009946Y008923D01*
X009928Y008968D01*
X009915Y009014D01*
X009905Y009061D01*
X009899Y009109D01*
X009897Y009157D01*
X031459Y019157D02*
X031461Y019205D01*
X031467Y019253D01*
X031477Y019300D01*
X031490Y019346D01*
X031508Y019391D01*
X031528Y019435D01*
X031553Y019477D01*
X031581Y019516D01*
X031611Y019553D01*
X031645Y019587D01*
X031682Y019619D01*
X031720Y019648D01*
X031761Y019673D01*
X031804Y019695D01*
X031849Y019713D01*
X031895Y019727D01*
X031942Y019738D01*
X031990Y019745D01*
X032038Y019748D01*
X032086Y019747D01*
X032134Y019742D01*
X032182Y019733D01*
X032228Y019721D01*
X032273Y019704D01*
X032317Y019684D01*
X032359Y019661D01*
X032399Y019634D01*
X032437Y019604D01*
X032472Y019571D01*
X032504Y019535D01*
X032534Y019497D01*
X032560Y019456D01*
X032582Y019413D01*
X032602Y019369D01*
X032617Y019324D01*
X032629Y019277D01*
X032637Y019229D01*
X032641Y019181D01*
X032641Y019133D01*
X032637Y019085D01*
X032629Y019037D01*
X032617Y018990D01*
X032602Y018945D01*
X032582Y018901D01*
X032560Y018858D01*
X032534Y018817D01*
X032504Y018779D01*
X032472Y018743D01*
X032437Y018710D01*
X032399Y018680D01*
X032359Y018653D01*
X032317Y018630D01*
X032273Y018610D01*
X032228Y018593D01*
X032182Y018581D01*
X032134Y018572D01*
X032086Y018567D01*
X032038Y018566D01*
X031990Y018569D01*
X031942Y018576D01*
X031895Y018587D01*
X031849Y018601D01*
X031804Y018619D01*
X031761Y018641D01*
X031720Y018666D01*
X031682Y018695D01*
X031645Y018727D01*
X031611Y018761D01*
X031581Y018798D01*
X031553Y018837D01*
X031528Y018879D01*
X031508Y018923D01*
X031490Y018968D01*
X031477Y019014D01*
X031467Y019061D01*
X031461Y019109D01*
X031459Y019157D01*
D17*
X019250Y018857D02*
X019250Y019457D01*
X019248Y019474D01*
X019244Y019491D01*
X019237Y019507D01*
X019227Y019521D01*
X019214Y019534D01*
X019200Y019544D01*
X019184Y019551D01*
X019167Y019555D01*
X019150Y019557D01*
X017450Y019557D01*
X017433Y019555D01*
X017416Y019551D01*
X017400Y019544D01*
X017386Y019534D01*
X017373Y019521D01*
X017363Y019507D01*
X017356Y019491D01*
X017352Y019474D01*
X017350Y019457D01*
X017350Y018857D01*
X017352Y018840D01*
X017356Y018823D01*
X017363Y018807D01*
X017373Y018793D01*
X017386Y018780D01*
X017400Y018770D01*
X017416Y018763D01*
X017433Y018759D01*
X017450Y018757D01*
X019150Y018757D01*
X019167Y018759D01*
X019184Y018763D01*
X019200Y018770D01*
X019214Y018780D01*
X019227Y018793D01*
X019237Y018807D01*
X019244Y018823D01*
X019248Y018840D01*
X019250Y018857D01*
X023500Y008057D02*
X024600Y008057D01*
X024617Y008055D01*
X024634Y008051D01*
X024650Y008044D01*
X024664Y008034D01*
X024677Y008021D01*
X024687Y008007D01*
X024694Y007991D01*
X024698Y007974D01*
X024700Y007957D01*
X024700Y007357D01*
X024698Y007340D01*
X024694Y007323D01*
X024687Y007307D01*
X024677Y007293D01*
X024664Y007280D01*
X024650Y007270D01*
X024634Y007263D01*
X024617Y007259D01*
X024600Y007257D01*
X023500Y007257D01*
X023483Y007259D01*
X023466Y007263D01*
X023450Y007270D01*
X023436Y007280D01*
X023423Y007293D01*
X023413Y007307D01*
X023406Y007323D01*
X023402Y007340D01*
X023400Y007357D01*
X023400Y007957D01*
X023402Y007974D01*
X023406Y007991D01*
X023413Y008007D01*
X023423Y008021D01*
X023436Y008034D01*
X023450Y008044D01*
X023466Y008051D01*
X023483Y008055D01*
X023500Y008057D01*
X004325Y016107D02*
X004325Y017207D01*
X004323Y017224D01*
X004319Y017241D01*
X004312Y017257D01*
X004302Y017271D01*
X004289Y017284D01*
X004275Y017294D01*
X004259Y017301D01*
X004242Y017305D01*
X004225Y017307D01*
X003625Y017307D01*
X003608Y017305D01*
X003591Y017301D01*
X003575Y017294D01*
X003561Y017284D01*
X003548Y017271D01*
X003538Y017257D01*
X003531Y017241D01*
X003527Y017224D01*
X003525Y017207D01*
X003525Y016107D01*
X003527Y016090D01*
X003531Y016073D01*
X003538Y016057D01*
X003548Y016043D01*
X003561Y016030D01*
X003575Y016020D01*
X003591Y016013D01*
X003608Y016009D01*
X003625Y016007D01*
X004225Y016007D01*
X004242Y016009D01*
X004259Y016013D01*
X004275Y016020D01*
X004289Y016030D01*
X004302Y016043D01*
X004312Y016057D01*
X004319Y016073D01*
X004323Y016090D01*
X004325Y016107D01*
M02*
