%
M48
M72
T01C0.0236
T02C0.0394
T03C0.0400
T04C0.0440
T05C0.0470
T06C0.1181
%
T01
X3375Y5000
X3000Y8375
X4875Y11375
X5125Y12750
X8250Y18375
X5750Y18750
X14125Y11875
X14125Y10875
X14125Y9875
X14500Y6500
X13000Y6500
X13000Y4750
X12000Y3000
X10375Y2875
X9500Y4875
X7625Y3125
X20250Y7125
X25125Y7625
T02
X25500Y1500
X24500Y1500
X23500Y1500
X22500Y1500
X21500Y1500
X20500Y1500
X18500Y1500
X17500Y1500
X16500Y1500
X15500Y1500
X14500Y1500
X13500Y1500
X12500Y1500
X11500Y1500
X11900Y20500
X12900Y20500
X13900Y20500
X14900Y20500
X15900Y20500
X16900Y20500
X18500Y20500
X19500Y20500
X20500Y20500
X21500Y20500
X22500Y20500
X23500Y20500
X24500Y20500
X25500Y20500
X10900Y20500
X9900Y20500
X8900Y20500
X7900Y20500
T03
X2095Y2610
X2095Y4390
X2095Y5610
X2095Y7390
X4655Y7390
X4655Y5610
X4655Y4390
X4655Y2610
X10000Y6000
X11000Y6000
X12000Y6000
X12000Y7500
X11000Y7500
X10000Y7500
X10000Y9500
X11000Y9500
X12000Y9500
X12000Y11000
X11000Y11000
X10000Y11000
X10000Y13000
X11000Y13000
X12000Y13000
X12000Y14500
X11000Y14500
X10000Y14500
X13625Y15500
X13625Y16500
X13625Y17500
X15125Y17500
X15125Y16500
X15125Y15500
X17125Y15500
X17125Y16500
X17125Y17500
X18625Y17500
X18625Y16500
X18625Y15500
X20625Y15500
X20625Y16500
X20625Y17500
X22125Y17500
X22125Y16500
X22125Y15500
X24000Y11000
X25000Y11000
X26000Y11000
X26000Y9500
X25000Y9500
X24000Y9500
X23500Y6500
X24500Y6500
X24500Y5500
X23500Y5500
X23500Y4500
X24500Y4500
T04
X4500Y20000
X3000Y20000
X1500Y20000
T05
X2500Y17484
X2500Y15516
T06
X6500Y20500
X26500Y14500
X26500Y3500
X6000Y1500
M30
