G75*
G70*
%OFA0B0*%
%FSLAX24Y24*%
%IPPOS*%
%LPD*%
%AMOC8*
5,1,8,0,0,1.08239X$1,22.5*
%
%ADD10C,0.0000*%
%ADD11C,0.0070*%
%ADD12C,0.0060*%
%ADD13C,0.0040*%
D10*
X000500Y000500D02*
X000500Y021500D01*
X025900Y021500D01*
X026500Y020900D01*
X026500Y016400D01*
X027500Y015400D01*
X027500Y002500D01*
X026500Y001500D01*
X026500Y000500D01*
X000500Y000500D01*
X005409Y001500D02*
X005411Y001548D01*
X005417Y001596D01*
X005427Y001643D01*
X005440Y001689D01*
X005458Y001734D01*
X005478Y001778D01*
X005503Y001820D01*
X005531Y001859D01*
X005561Y001896D01*
X005595Y001930D01*
X005632Y001962D01*
X005670Y001991D01*
X005711Y002016D01*
X005754Y002038D01*
X005799Y002056D01*
X005845Y002070D01*
X005892Y002081D01*
X005940Y002088D01*
X005988Y002091D01*
X006036Y002090D01*
X006084Y002085D01*
X006132Y002076D01*
X006178Y002064D01*
X006223Y002047D01*
X006267Y002027D01*
X006309Y002004D01*
X006349Y001977D01*
X006387Y001947D01*
X006422Y001914D01*
X006454Y001878D01*
X006484Y001840D01*
X006510Y001799D01*
X006532Y001756D01*
X006552Y001712D01*
X006567Y001667D01*
X006579Y001620D01*
X006587Y001572D01*
X006591Y001524D01*
X006591Y001476D01*
X006587Y001428D01*
X006579Y001380D01*
X006567Y001333D01*
X006552Y001288D01*
X006532Y001244D01*
X006510Y001201D01*
X006484Y001160D01*
X006454Y001122D01*
X006422Y001086D01*
X006387Y001053D01*
X006349Y001023D01*
X006309Y000996D01*
X006267Y000973D01*
X006223Y000953D01*
X006178Y000936D01*
X006132Y000924D01*
X006084Y000915D01*
X006036Y000910D01*
X005988Y000909D01*
X005940Y000912D01*
X005892Y000919D01*
X005845Y000930D01*
X005799Y000944D01*
X005754Y000962D01*
X005711Y000984D01*
X005670Y001009D01*
X005632Y001038D01*
X005595Y001070D01*
X005561Y001104D01*
X005531Y001141D01*
X005503Y001180D01*
X005478Y001222D01*
X005458Y001266D01*
X005440Y001311D01*
X005427Y001357D01*
X005417Y001404D01*
X005411Y001452D01*
X005409Y001500D01*
X025909Y003500D02*
X025911Y003548D01*
X025917Y003596D01*
X025927Y003643D01*
X025940Y003689D01*
X025958Y003734D01*
X025978Y003778D01*
X026003Y003820D01*
X026031Y003859D01*
X026061Y003896D01*
X026095Y003930D01*
X026132Y003962D01*
X026170Y003991D01*
X026211Y004016D01*
X026254Y004038D01*
X026299Y004056D01*
X026345Y004070D01*
X026392Y004081D01*
X026440Y004088D01*
X026488Y004091D01*
X026536Y004090D01*
X026584Y004085D01*
X026632Y004076D01*
X026678Y004064D01*
X026723Y004047D01*
X026767Y004027D01*
X026809Y004004D01*
X026849Y003977D01*
X026887Y003947D01*
X026922Y003914D01*
X026954Y003878D01*
X026984Y003840D01*
X027010Y003799D01*
X027032Y003756D01*
X027052Y003712D01*
X027067Y003667D01*
X027079Y003620D01*
X027087Y003572D01*
X027091Y003524D01*
X027091Y003476D01*
X027087Y003428D01*
X027079Y003380D01*
X027067Y003333D01*
X027052Y003288D01*
X027032Y003244D01*
X027010Y003201D01*
X026984Y003160D01*
X026954Y003122D01*
X026922Y003086D01*
X026887Y003053D01*
X026849Y003023D01*
X026809Y002996D01*
X026767Y002973D01*
X026723Y002953D01*
X026678Y002936D01*
X026632Y002924D01*
X026584Y002915D01*
X026536Y002910D01*
X026488Y002909D01*
X026440Y002912D01*
X026392Y002919D01*
X026345Y002930D01*
X026299Y002944D01*
X026254Y002962D01*
X026211Y002984D01*
X026170Y003009D01*
X026132Y003038D01*
X026095Y003070D01*
X026061Y003104D01*
X026031Y003141D01*
X026003Y003180D01*
X025978Y003222D01*
X025958Y003266D01*
X025940Y003311D01*
X025927Y003357D01*
X025917Y003404D01*
X025911Y003452D01*
X025909Y003500D01*
X025909Y014500D02*
X025911Y014548D01*
X025917Y014596D01*
X025927Y014643D01*
X025940Y014689D01*
X025958Y014734D01*
X025978Y014778D01*
X026003Y014820D01*
X026031Y014859D01*
X026061Y014896D01*
X026095Y014930D01*
X026132Y014962D01*
X026170Y014991D01*
X026211Y015016D01*
X026254Y015038D01*
X026299Y015056D01*
X026345Y015070D01*
X026392Y015081D01*
X026440Y015088D01*
X026488Y015091D01*
X026536Y015090D01*
X026584Y015085D01*
X026632Y015076D01*
X026678Y015064D01*
X026723Y015047D01*
X026767Y015027D01*
X026809Y015004D01*
X026849Y014977D01*
X026887Y014947D01*
X026922Y014914D01*
X026954Y014878D01*
X026984Y014840D01*
X027010Y014799D01*
X027032Y014756D01*
X027052Y014712D01*
X027067Y014667D01*
X027079Y014620D01*
X027087Y014572D01*
X027091Y014524D01*
X027091Y014476D01*
X027087Y014428D01*
X027079Y014380D01*
X027067Y014333D01*
X027052Y014288D01*
X027032Y014244D01*
X027010Y014201D01*
X026984Y014160D01*
X026954Y014122D01*
X026922Y014086D01*
X026887Y014053D01*
X026849Y014023D01*
X026809Y013996D01*
X026767Y013973D01*
X026723Y013953D01*
X026678Y013936D01*
X026632Y013924D01*
X026584Y013915D01*
X026536Y013910D01*
X026488Y013909D01*
X026440Y013912D01*
X026392Y013919D01*
X026345Y013930D01*
X026299Y013944D01*
X026254Y013962D01*
X026211Y013984D01*
X026170Y014009D01*
X026132Y014038D01*
X026095Y014070D01*
X026061Y014104D01*
X026031Y014141D01*
X026003Y014180D01*
X025978Y014222D01*
X025958Y014266D01*
X025940Y014311D01*
X025927Y014357D01*
X025917Y014404D01*
X025911Y014452D01*
X025909Y014500D01*
X005909Y020500D02*
X005911Y020548D01*
X005917Y020596D01*
X005927Y020643D01*
X005940Y020689D01*
X005958Y020734D01*
X005978Y020778D01*
X006003Y020820D01*
X006031Y020859D01*
X006061Y020896D01*
X006095Y020930D01*
X006132Y020962D01*
X006170Y020991D01*
X006211Y021016D01*
X006254Y021038D01*
X006299Y021056D01*
X006345Y021070D01*
X006392Y021081D01*
X006440Y021088D01*
X006488Y021091D01*
X006536Y021090D01*
X006584Y021085D01*
X006632Y021076D01*
X006678Y021064D01*
X006723Y021047D01*
X006767Y021027D01*
X006809Y021004D01*
X006849Y020977D01*
X006887Y020947D01*
X006922Y020914D01*
X006954Y020878D01*
X006984Y020840D01*
X007010Y020799D01*
X007032Y020756D01*
X007052Y020712D01*
X007067Y020667D01*
X007079Y020620D01*
X007087Y020572D01*
X007091Y020524D01*
X007091Y020476D01*
X007087Y020428D01*
X007079Y020380D01*
X007067Y020333D01*
X007052Y020288D01*
X007032Y020244D01*
X007010Y020201D01*
X006984Y020160D01*
X006954Y020122D01*
X006922Y020086D01*
X006887Y020053D01*
X006849Y020023D01*
X006809Y019996D01*
X006767Y019973D01*
X006723Y019953D01*
X006678Y019936D01*
X006632Y019924D01*
X006584Y019915D01*
X006536Y019910D01*
X006488Y019909D01*
X006440Y019912D01*
X006392Y019919D01*
X006345Y019930D01*
X006299Y019944D01*
X006254Y019962D01*
X006211Y019984D01*
X006170Y020009D01*
X006132Y020038D01*
X006095Y020070D01*
X006061Y020104D01*
X006031Y020141D01*
X006003Y020180D01*
X005978Y020222D01*
X005958Y020266D01*
X005940Y020311D01*
X005927Y020357D01*
X005917Y020404D01*
X005911Y020452D01*
X005909Y020500D01*
D11*
X016687Y014305D02*
X016687Y014174D01*
X017214Y014174D01*
X017214Y014305D02*
X017082Y014437D01*
X016818Y014437D01*
X016687Y014305D01*
X016818Y013910D02*
X017082Y013910D01*
X017214Y014042D01*
X017214Y014305D01*
X017478Y014437D02*
X017742Y014437D01*
X017610Y014569D02*
X017610Y014042D01*
X017478Y013910D01*
X018006Y013910D02*
X018138Y014042D01*
X018138Y014569D01*
X018270Y014437D02*
X018006Y014437D01*
X018534Y014305D02*
X018534Y014174D01*
X019061Y014174D01*
X019061Y014305D02*
X018930Y014437D01*
X018666Y014437D01*
X018534Y014305D01*
X018666Y013910D02*
X018930Y013910D01*
X019061Y014042D01*
X019061Y014305D01*
X019326Y014437D02*
X019326Y013910D01*
X019722Y013910D01*
X019853Y014042D01*
X019853Y014437D01*
X020118Y014305D02*
X020118Y014174D01*
X020645Y014174D01*
X020645Y014305D02*
X020645Y014042D01*
X020513Y013910D01*
X020250Y013910D01*
X020118Y014305D02*
X020250Y014437D01*
X020513Y014437D01*
X020645Y014305D01*
X020910Y013910D02*
X021173Y013910D01*
X021041Y013910D02*
X021041Y014701D01*
X021173Y014701D01*
X021438Y014569D02*
X021438Y014437D01*
X021570Y014305D01*
X021965Y014305D01*
X021965Y013910D02*
X021965Y014701D01*
X021570Y014701D01*
X021438Y014569D01*
X021570Y014305D02*
X021438Y014174D01*
X021438Y014042D01*
X021570Y013910D01*
X021965Y013910D01*
D12*
X021863Y013671D02*
X021650Y013671D01*
X021543Y013564D01*
X021650Y013350D02*
X021543Y013244D01*
X021543Y013137D01*
X021650Y013030D01*
X021863Y013030D01*
X021970Y013137D01*
X021863Y013350D02*
X021650Y013350D01*
X021863Y013350D02*
X021970Y013457D01*
X021970Y013564D01*
X021863Y013671D01*
X021325Y013350D02*
X021219Y013457D01*
X021005Y013457D01*
X020898Y013350D01*
X020898Y013244D01*
X021325Y013244D01*
X021325Y013350D02*
X021325Y013137D01*
X021219Y013030D01*
X021005Y013030D01*
X020681Y013030D02*
X020681Y013457D01*
X020681Y013244D02*
X020467Y013457D01*
X020361Y013457D01*
X020144Y013457D02*
X019930Y013030D01*
X019717Y013457D01*
X019499Y013350D02*
X019499Y013137D01*
X019392Y013030D01*
X019179Y013030D01*
X019072Y013137D01*
X019072Y013350D01*
X019179Y013457D01*
X019392Y013457D01*
X019499Y013350D01*
X018210Y013350D02*
X018210Y013137D01*
X018103Y013030D01*
X017783Y013030D01*
X017566Y013137D02*
X017566Y013350D01*
X017459Y013457D01*
X017245Y013457D01*
X017139Y013350D01*
X017139Y013137D01*
X017245Y013030D01*
X017459Y013030D01*
X017566Y013137D01*
X017783Y013457D02*
X018103Y013457D01*
X018210Y013350D01*
X016921Y013457D02*
X016921Y013030D01*
X016494Y013030D02*
X016494Y013350D01*
X016601Y013457D01*
X016921Y013457D01*
X016276Y013457D02*
X016063Y013457D01*
X016170Y013564D02*
X016170Y013137D01*
X016063Y013030D01*
X015847Y013030D02*
X015847Y013457D01*
X015847Y013244D02*
X015633Y013457D01*
X015527Y013457D01*
X015310Y013350D02*
X015310Y013137D01*
X015203Y013030D01*
X014989Y013030D01*
X014883Y013137D01*
X014883Y013350D01*
X014989Y013457D01*
X015203Y013457D01*
X015310Y013350D01*
X014665Y013030D02*
X014452Y013030D01*
X014558Y013030D02*
X014558Y013671D01*
X014665Y013671D01*
X014235Y013671D02*
X014129Y013671D01*
X014129Y013030D01*
X014235Y013030D02*
X014022Y013030D01*
X013806Y013137D02*
X013806Y013350D01*
X013699Y013457D01*
X013485Y013457D01*
X013379Y013350D01*
X013379Y013244D01*
X013806Y013244D01*
X013806Y013137D02*
X013699Y013030D01*
X013485Y013030D01*
X013161Y013030D02*
X013161Y013457D01*
X013161Y013244D02*
X012948Y013457D01*
X012841Y013457D01*
D13*
X016146Y012192D02*
X016223Y012269D01*
X016376Y012269D01*
X016453Y012192D01*
X016453Y011885D01*
X016376Y011808D01*
X016223Y011808D01*
X016146Y011885D01*
X016606Y011885D02*
X016606Y012039D01*
X016760Y012039D01*
X016913Y012192D02*
X016913Y011885D01*
X016837Y011808D01*
X016683Y011808D01*
X016606Y011885D01*
X017067Y012039D02*
X017144Y011962D01*
X017374Y011962D01*
X017374Y011808D02*
X017374Y012269D01*
X017144Y012269D01*
X017067Y012192D01*
X017067Y012039D01*
X016913Y012192D02*
X016837Y012269D01*
X016683Y012269D01*
X016606Y012192D01*
X016683Y011269D02*
X016837Y011269D01*
X016913Y011192D01*
X016913Y010885D01*
X016837Y010808D01*
X016683Y010808D01*
X016606Y010885D01*
X016606Y011039D01*
X016760Y011039D01*
X016606Y011192D02*
X016683Y011269D01*
X016453Y011269D02*
X016223Y011269D01*
X016146Y011192D01*
X016146Y010885D01*
X016223Y010808D01*
X016453Y010808D01*
X016453Y011269D01*
X017067Y011192D02*
X017067Y011039D01*
X017144Y010962D01*
X017374Y010962D01*
X017374Y010808D02*
X017374Y011269D01*
X017144Y011269D01*
X017067Y011192D01*
X017067Y010269D02*
X017067Y009962D01*
X017220Y009808D01*
X017374Y009962D01*
X017374Y010269D01*
X016913Y010192D02*
X016913Y010115D01*
X016837Y010039D01*
X016683Y010039D01*
X016606Y009962D01*
X016606Y009885D01*
X016683Y009808D01*
X016837Y009808D01*
X016913Y009885D01*
X016913Y010192D02*
X016837Y010269D01*
X016683Y010269D01*
X016606Y010192D01*
X016453Y010192D02*
X016453Y010115D01*
X016376Y010039D01*
X016223Y010039D01*
X016146Y009962D01*
X016146Y009885D01*
X016223Y009808D01*
X016376Y009808D01*
X016453Y009885D01*
X016453Y010192D02*
X016376Y010269D01*
X016223Y010269D01*
X016146Y010192D01*
X016223Y009269D02*
X016453Y009269D01*
X016453Y008808D01*
X016223Y008808D01*
X016146Y008885D01*
X016146Y009192D01*
X016223Y009269D01*
X016606Y009192D02*
X016606Y008885D01*
X016683Y008808D01*
X016913Y008808D01*
X016913Y009269D01*
X016683Y009269D01*
X016606Y009192D01*
X017067Y009269D02*
X017067Y008962D01*
X017220Y008808D01*
X017374Y008962D01*
X017374Y009269D01*
X017374Y008269D02*
X017144Y008269D01*
X017067Y008192D01*
X017067Y008039D01*
X017144Y007962D01*
X017374Y007962D01*
X017374Y007808D02*
X017374Y008269D01*
X016913Y008269D02*
X016913Y007808D01*
X016606Y007808D01*
X016453Y007885D02*
X016376Y007808D01*
X016223Y007808D01*
X016146Y007885D01*
X016146Y007962D01*
X016223Y008039D01*
X016376Y008039D01*
X016453Y008115D01*
X016453Y008192D01*
X016376Y008269D01*
X016223Y008269D01*
X016146Y008192D01*
X015993Y008269D02*
X015993Y007808D01*
X015686Y007808D01*
X015839Y008039D02*
X015993Y008039D01*
X015993Y008269D02*
X015686Y008269D01*
X015532Y008269D02*
X015225Y008269D01*
X015379Y008269D02*
X015379Y007808D01*
X016606Y008269D02*
X016913Y008269D01*
X016913Y008039D02*
X016760Y008039D01*
X017067Y007808D02*
X017220Y007962D01*
M02*
