G75*
G70*
%OFA0B0*%
%FSLAX24Y24*%
%IPPOS*%
%LPD*%
%AMOC8*
5,1,8,0,0,1.08239X$1,22.5*
%
%ADD10C,0.0000*%
%ADD11C,0.1221*%
%ADD12R,0.2140X0.0800*%
%ADD13C,0.0640*%
%ADD14R,0.0237X0.0631*%
%ADD15R,0.0631X0.0237*%
%ADD16R,0.0670X0.0749*%
%ADD17R,0.0749X0.0670*%
%ADD18OC8,0.0700*%
%ADD19R,0.0670X0.0827*%
%ADD20C,0.0700*%
%ADD21R,0.0512X0.0512*%
%ADD22R,0.0670X0.0552*%
%ADD23R,0.0910X0.0280*%
%ADD24C,0.0827*%
%ADD25R,0.0827X0.0827*%
%ADD26C,0.0640*%
%ADD27OC8,0.0640*%
%ADD28R,0.1221X0.0591*%
%ADD29R,0.2339X0.1591*%
%ADD30C,0.0745*%
%ADD31R,0.0920X0.0520*%
%ADD32R,0.0906X0.1457*%
D10*
X000500Y000500D02*
X000500Y021500D01*
X025900Y021500D01*
X026500Y020900D01*
X026500Y016400D01*
X027500Y015400D01*
X027500Y002500D01*
X026500Y001500D01*
X026500Y000500D01*
X000500Y000500D01*
X005409Y001500D02*
X005411Y001548D01*
X005417Y001596D01*
X005427Y001643D01*
X005440Y001689D01*
X005458Y001734D01*
X005478Y001778D01*
X005503Y001820D01*
X005531Y001859D01*
X005561Y001896D01*
X005595Y001930D01*
X005632Y001962D01*
X005670Y001991D01*
X005711Y002016D01*
X005754Y002038D01*
X005799Y002056D01*
X005845Y002070D01*
X005892Y002081D01*
X005940Y002088D01*
X005988Y002091D01*
X006036Y002090D01*
X006084Y002085D01*
X006132Y002076D01*
X006178Y002064D01*
X006223Y002047D01*
X006267Y002027D01*
X006309Y002004D01*
X006349Y001977D01*
X006387Y001947D01*
X006422Y001914D01*
X006454Y001878D01*
X006484Y001840D01*
X006510Y001799D01*
X006532Y001756D01*
X006552Y001712D01*
X006567Y001667D01*
X006579Y001620D01*
X006587Y001572D01*
X006591Y001524D01*
X006591Y001476D01*
X006587Y001428D01*
X006579Y001380D01*
X006567Y001333D01*
X006552Y001288D01*
X006532Y001244D01*
X006510Y001201D01*
X006484Y001160D01*
X006454Y001122D01*
X006422Y001086D01*
X006387Y001053D01*
X006349Y001023D01*
X006309Y000996D01*
X006267Y000973D01*
X006223Y000953D01*
X006178Y000936D01*
X006132Y000924D01*
X006084Y000915D01*
X006036Y000910D01*
X005988Y000909D01*
X005940Y000912D01*
X005892Y000919D01*
X005845Y000930D01*
X005799Y000944D01*
X005754Y000962D01*
X005711Y000984D01*
X005670Y001009D01*
X005632Y001038D01*
X005595Y001070D01*
X005561Y001104D01*
X005531Y001141D01*
X005503Y001180D01*
X005478Y001222D01*
X005458Y001266D01*
X005440Y001311D01*
X005427Y001357D01*
X005417Y001404D01*
X005411Y001452D01*
X005409Y001500D01*
X025909Y003500D02*
X025911Y003548D01*
X025917Y003596D01*
X025927Y003643D01*
X025940Y003689D01*
X025958Y003734D01*
X025978Y003778D01*
X026003Y003820D01*
X026031Y003859D01*
X026061Y003896D01*
X026095Y003930D01*
X026132Y003962D01*
X026170Y003991D01*
X026211Y004016D01*
X026254Y004038D01*
X026299Y004056D01*
X026345Y004070D01*
X026392Y004081D01*
X026440Y004088D01*
X026488Y004091D01*
X026536Y004090D01*
X026584Y004085D01*
X026632Y004076D01*
X026678Y004064D01*
X026723Y004047D01*
X026767Y004027D01*
X026809Y004004D01*
X026849Y003977D01*
X026887Y003947D01*
X026922Y003914D01*
X026954Y003878D01*
X026984Y003840D01*
X027010Y003799D01*
X027032Y003756D01*
X027052Y003712D01*
X027067Y003667D01*
X027079Y003620D01*
X027087Y003572D01*
X027091Y003524D01*
X027091Y003476D01*
X027087Y003428D01*
X027079Y003380D01*
X027067Y003333D01*
X027052Y003288D01*
X027032Y003244D01*
X027010Y003201D01*
X026984Y003160D01*
X026954Y003122D01*
X026922Y003086D01*
X026887Y003053D01*
X026849Y003023D01*
X026809Y002996D01*
X026767Y002973D01*
X026723Y002953D01*
X026678Y002936D01*
X026632Y002924D01*
X026584Y002915D01*
X026536Y002910D01*
X026488Y002909D01*
X026440Y002912D01*
X026392Y002919D01*
X026345Y002930D01*
X026299Y002944D01*
X026254Y002962D01*
X026211Y002984D01*
X026170Y003009D01*
X026132Y003038D01*
X026095Y003070D01*
X026061Y003104D01*
X026031Y003141D01*
X026003Y003180D01*
X025978Y003222D01*
X025958Y003266D01*
X025940Y003311D01*
X025927Y003357D01*
X025917Y003404D01*
X025911Y003452D01*
X025909Y003500D01*
X025909Y014500D02*
X025911Y014548D01*
X025917Y014596D01*
X025927Y014643D01*
X025940Y014689D01*
X025958Y014734D01*
X025978Y014778D01*
X026003Y014820D01*
X026031Y014859D01*
X026061Y014896D01*
X026095Y014930D01*
X026132Y014962D01*
X026170Y014991D01*
X026211Y015016D01*
X026254Y015038D01*
X026299Y015056D01*
X026345Y015070D01*
X026392Y015081D01*
X026440Y015088D01*
X026488Y015091D01*
X026536Y015090D01*
X026584Y015085D01*
X026632Y015076D01*
X026678Y015064D01*
X026723Y015047D01*
X026767Y015027D01*
X026809Y015004D01*
X026849Y014977D01*
X026887Y014947D01*
X026922Y014914D01*
X026954Y014878D01*
X026984Y014840D01*
X027010Y014799D01*
X027032Y014756D01*
X027052Y014712D01*
X027067Y014667D01*
X027079Y014620D01*
X027087Y014572D01*
X027091Y014524D01*
X027091Y014476D01*
X027087Y014428D01*
X027079Y014380D01*
X027067Y014333D01*
X027052Y014288D01*
X027032Y014244D01*
X027010Y014201D01*
X026984Y014160D01*
X026954Y014122D01*
X026922Y014086D01*
X026887Y014053D01*
X026849Y014023D01*
X026809Y013996D01*
X026767Y013973D01*
X026723Y013953D01*
X026678Y013936D01*
X026632Y013924D01*
X026584Y013915D01*
X026536Y013910D01*
X026488Y013909D01*
X026440Y013912D01*
X026392Y013919D01*
X026345Y013930D01*
X026299Y013944D01*
X026254Y013962D01*
X026211Y013984D01*
X026170Y014009D01*
X026132Y014038D01*
X026095Y014070D01*
X026061Y014104D01*
X026031Y014141D01*
X026003Y014180D01*
X025978Y014222D01*
X025958Y014266D01*
X025940Y014311D01*
X025927Y014357D01*
X025917Y014404D01*
X025911Y014452D01*
X025909Y014500D01*
X005909Y020500D02*
X005911Y020548D01*
X005917Y020596D01*
X005927Y020643D01*
X005940Y020689D01*
X005958Y020734D01*
X005978Y020778D01*
X006003Y020820D01*
X006031Y020859D01*
X006061Y020896D01*
X006095Y020930D01*
X006132Y020962D01*
X006170Y020991D01*
X006211Y021016D01*
X006254Y021038D01*
X006299Y021056D01*
X006345Y021070D01*
X006392Y021081D01*
X006440Y021088D01*
X006488Y021091D01*
X006536Y021090D01*
X006584Y021085D01*
X006632Y021076D01*
X006678Y021064D01*
X006723Y021047D01*
X006767Y021027D01*
X006809Y021004D01*
X006849Y020977D01*
X006887Y020947D01*
X006922Y020914D01*
X006954Y020878D01*
X006984Y020840D01*
X007010Y020799D01*
X007032Y020756D01*
X007052Y020712D01*
X007067Y020667D01*
X007079Y020620D01*
X007087Y020572D01*
X007091Y020524D01*
X007091Y020476D01*
X007087Y020428D01*
X007079Y020380D01*
X007067Y020333D01*
X007052Y020288D01*
X007032Y020244D01*
X007010Y020201D01*
X006984Y020160D01*
X006954Y020122D01*
X006922Y020086D01*
X006887Y020053D01*
X006849Y020023D01*
X006809Y019996D01*
X006767Y019973D01*
X006723Y019953D01*
X006678Y019936D01*
X006632Y019924D01*
X006584Y019915D01*
X006536Y019910D01*
X006488Y019909D01*
X006440Y019912D01*
X006392Y019919D01*
X006345Y019930D01*
X006299Y019944D01*
X006254Y019962D01*
X006211Y019984D01*
X006170Y020009D01*
X006132Y020038D01*
X006095Y020070D01*
X006061Y020104D01*
X006031Y020141D01*
X006003Y020180D01*
X005978Y020222D01*
X005958Y020266D01*
X005940Y020311D01*
X005927Y020357D01*
X005917Y020404D01*
X005911Y020452D01*
X005909Y020500D01*
D11*
X006500Y020500D03*
X026500Y014500D03*
X026500Y003500D03*
X006000Y001500D03*
D12*
X016850Y004625D03*
X020650Y004625D03*
D13*
X024000Y009200D02*
X024000Y009800D01*
X024000Y010700D02*
X024000Y011300D01*
X025000Y011300D02*
X025000Y010700D01*
X025000Y009800D02*
X025000Y009200D01*
X026000Y009200D02*
X026000Y009800D01*
X026000Y010700D02*
X026000Y011300D01*
X022425Y015500D02*
X021825Y015500D01*
X020925Y015500D02*
X020325Y015500D01*
X020325Y016500D02*
X020925Y016500D01*
X021825Y016500D02*
X022425Y016500D01*
X022425Y017500D02*
X021825Y017500D01*
X020925Y017500D02*
X020325Y017500D01*
X018925Y017500D02*
X018325Y017500D01*
X017425Y017500D02*
X016825Y017500D01*
X016825Y016500D02*
X017425Y016500D01*
X018325Y016500D02*
X018925Y016500D01*
X018925Y015500D02*
X018325Y015500D01*
X017425Y015500D02*
X016825Y015500D01*
X015425Y015500D02*
X014825Y015500D01*
X013925Y015500D02*
X013325Y015500D01*
X013325Y016500D02*
X013925Y016500D01*
X014825Y016500D02*
X015425Y016500D01*
X015425Y017500D02*
X014825Y017500D01*
X013925Y017500D02*
X013325Y017500D01*
X012000Y014800D02*
X012000Y014200D01*
X012000Y013300D02*
X012000Y012700D01*
X011000Y012700D02*
X011000Y013300D01*
X010000Y013300D02*
X010000Y012700D01*
X010000Y011300D02*
X010000Y010700D01*
X011000Y010700D02*
X011000Y011300D01*
X012000Y011300D02*
X012000Y010700D01*
X012000Y009800D02*
X012000Y009200D01*
X011000Y009200D02*
X011000Y009800D01*
X010000Y009800D02*
X010000Y009200D01*
X010000Y007800D02*
X010000Y007200D01*
X011000Y007200D02*
X011000Y007800D01*
X012000Y007800D02*
X012000Y007200D01*
X012000Y006300D02*
X012000Y005700D01*
X011000Y005700D02*
X011000Y006300D01*
X010000Y006300D02*
X010000Y005700D01*
X004955Y005610D02*
X004355Y005610D01*
X004355Y004390D02*
X004955Y004390D01*
X004955Y002610D02*
X004355Y002610D01*
X002395Y002610D02*
X001795Y002610D01*
X001795Y004390D02*
X002395Y004390D01*
X002395Y005610D02*
X001795Y005610D01*
X001795Y007390D02*
X002395Y007390D01*
X004355Y007390D02*
X004955Y007390D01*
X010000Y014200D02*
X010000Y014800D01*
X011000Y014800D02*
X011000Y014200D01*
D14*
X016425Y012283D03*
X016740Y012283D03*
X017055Y012283D03*
X017370Y012283D03*
X017685Y012283D03*
X018000Y012283D03*
X018315Y012283D03*
X018630Y012283D03*
X018945Y012283D03*
X019260Y012283D03*
X019575Y012283D03*
X019575Y007717D03*
X019260Y007717D03*
X018945Y007717D03*
X018630Y007717D03*
X018315Y007717D03*
X018000Y007717D03*
X017685Y007717D03*
X017370Y007717D03*
X017055Y007717D03*
X016740Y007717D03*
X016425Y007717D03*
D15*
X015717Y008425D03*
X015717Y008740D03*
X015717Y009055D03*
X015717Y009370D03*
X015717Y009685D03*
X015717Y010000D03*
X015717Y010315D03*
X015717Y010630D03*
X015717Y010945D03*
X015717Y011260D03*
X015717Y011575D03*
X020283Y011575D03*
X020283Y011260D03*
X020283Y010945D03*
X020283Y010630D03*
X020283Y010315D03*
X020283Y010000D03*
X020283Y009685D03*
X020283Y009370D03*
X020283Y009055D03*
X020283Y008740D03*
X020283Y008425D03*
D16*
X020426Y006188D03*
X019324Y006188D03*
X018239Y006188D03*
X017136Y006188D03*
X006676Y017250D03*
X005574Y017250D03*
X002551Y013500D03*
X001449Y013500D03*
D17*
X002000Y012301D03*
X002000Y011199D03*
X014500Y005551D03*
X014500Y004449D03*
D18*
X014500Y001500D03*
X013500Y001500D03*
X012500Y001500D03*
X011500Y001500D03*
X015500Y001500D03*
X016500Y001500D03*
X017500Y001500D03*
X018500Y001500D03*
X020500Y001500D03*
X021500Y001500D03*
X022500Y001500D03*
X023500Y001500D03*
X024500Y001500D03*
X025500Y001500D03*
X025500Y020500D03*
X024500Y020500D03*
X023500Y020500D03*
X022500Y020500D03*
X021500Y020500D03*
X020500Y020500D03*
X019500Y020500D03*
X018500Y020500D03*
X016900Y020500D03*
X015900Y020500D03*
X014900Y020500D03*
X013900Y020500D03*
X012900Y020500D03*
X011900Y020500D03*
X010900Y020500D03*
X009900Y020500D03*
X008900Y020500D03*
X007900Y020500D03*
D19*
X018699Y002875D03*
X019801Y002875D03*
X021199Y002875D03*
X022301Y002875D03*
D20*
X004500Y019670D02*
X004500Y020330D01*
X003000Y020330D02*
X003000Y019670D01*
X001500Y019670D02*
X001500Y020330D01*
D21*
X007625Y002163D03*
X007625Y001337D03*
X010375Y001337D03*
X010375Y002163D03*
D22*
X009500Y002124D03*
X009500Y001376D03*
X008500Y001376D03*
X008500Y002124D03*
X005875Y003251D03*
X005875Y003999D03*
X005875Y006626D03*
X005875Y007374D03*
D23*
X004655Y009125D03*
X004655Y009625D03*
X004655Y010125D03*
X004655Y010625D03*
X002595Y010625D03*
X002595Y010125D03*
X002595Y009625D03*
X002595Y009125D03*
D24*
X021500Y008625D03*
X021500Y010938D03*
D25*
X003750Y011963D03*
X003750Y013537D03*
D26*
X023500Y006500D03*
D27*
X024500Y006500D03*
X024500Y005500D03*
X023500Y005500D03*
X023500Y004500D03*
X024500Y004500D03*
D28*
G36*
X012140Y015443D02*
X011279Y016304D01*
X011696Y016721D01*
X012557Y015860D01*
X012140Y015443D01*
G37*
G36*
X010804Y016779D02*
X009943Y017640D01*
X010360Y018057D01*
X011221Y017196D01*
X010804Y016779D01*
G37*
G36*
X008932Y006265D02*
X008071Y005404D01*
X007654Y005821D01*
X008515Y006682D01*
X008932Y006265D01*
G37*
G36*
X007596Y004929D02*
X006735Y004068D01*
X006318Y004485D01*
X007179Y005346D01*
X007596Y004929D01*
G37*
D29*
X007750Y007824D03*
X007750Y011426D03*
D30*
X002853Y015516D02*
X002148Y015516D01*
X002148Y017484D02*
X002853Y017484D01*
D31*
X005530Y016035D03*
X005530Y015125D03*
X005530Y014215D03*
D32*
X007970Y015125D03*
M02*
