G75*
G70*
%OFA0B0*%
%FSLAX24Y24*%
%IPPOS*%
%LPD*%
%AMOC8*
5,1,8,0,0,1.08239X$1,22.5*
%
%ADD10C,0.0000*%
%ADD11C,0.0600*%
%ADD12OC8,0.0660*%
%ADD13C,0.0787*%
%ADD14C,0.0600*%
%ADD15OC8,0.0600*%
%ADD16C,0.0705*%
%ADD17R,0.0630X0.0460*%
%ADD18C,0.0650*%
%ADD19C,0.0760*%
%ADD20C,0.0240*%
%ADD21C,0.0160*%
%ADD22C,0.0660*%
%ADD23C,0.0560*%
D10*
X000500Y000500D02*
X000500Y021500D01*
X025900Y021500D01*
X026500Y020900D01*
X026500Y016400D01*
X027500Y015400D01*
X027500Y002500D01*
X026500Y001500D01*
X026500Y000500D01*
X000500Y000500D01*
X005409Y001500D02*
X005411Y001548D01*
X005417Y001596D01*
X005427Y001643D01*
X005440Y001689D01*
X005458Y001734D01*
X005478Y001778D01*
X005503Y001820D01*
X005531Y001859D01*
X005561Y001896D01*
X005595Y001930D01*
X005632Y001962D01*
X005670Y001991D01*
X005711Y002016D01*
X005754Y002038D01*
X005799Y002056D01*
X005845Y002070D01*
X005892Y002081D01*
X005940Y002088D01*
X005988Y002091D01*
X006036Y002090D01*
X006084Y002085D01*
X006132Y002076D01*
X006178Y002064D01*
X006223Y002047D01*
X006267Y002027D01*
X006309Y002004D01*
X006349Y001977D01*
X006387Y001947D01*
X006422Y001914D01*
X006454Y001878D01*
X006484Y001840D01*
X006510Y001799D01*
X006532Y001756D01*
X006552Y001712D01*
X006567Y001667D01*
X006579Y001620D01*
X006587Y001572D01*
X006591Y001524D01*
X006591Y001476D01*
X006587Y001428D01*
X006579Y001380D01*
X006567Y001333D01*
X006552Y001288D01*
X006532Y001244D01*
X006510Y001201D01*
X006484Y001160D01*
X006454Y001122D01*
X006422Y001086D01*
X006387Y001053D01*
X006349Y001023D01*
X006309Y000996D01*
X006267Y000973D01*
X006223Y000953D01*
X006178Y000936D01*
X006132Y000924D01*
X006084Y000915D01*
X006036Y000910D01*
X005988Y000909D01*
X005940Y000912D01*
X005892Y000919D01*
X005845Y000930D01*
X005799Y000944D01*
X005754Y000962D01*
X005711Y000984D01*
X005670Y001009D01*
X005632Y001038D01*
X005595Y001070D01*
X005561Y001104D01*
X005531Y001141D01*
X005503Y001180D01*
X005478Y001222D01*
X005458Y001266D01*
X005440Y001311D01*
X005427Y001357D01*
X005417Y001404D01*
X005411Y001452D01*
X005409Y001500D01*
X025909Y003500D02*
X025911Y003548D01*
X025917Y003596D01*
X025927Y003643D01*
X025940Y003689D01*
X025958Y003734D01*
X025978Y003778D01*
X026003Y003820D01*
X026031Y003859D01*
X026061Y003896D01*
X026095Y003930D01*
X026132Y003962D01*
X026170Y003991D01*
X026211Y004016D01*
X026254Y004038D01*
X026299Y004056D01*
X026345Y004070D01*
X026392Y004081D01*
X026440Y004088D01*
X026488Y004091D01*
X026536Y004090D01*
X026584Y004085D01*
X026632Y004076D01*
X026678Y004064D01*
X026723Y004047D01*
X026767Y004027D01*
X026809Y004004D01*
X026849Y003977D01*
X026887Y003947D01*
X026922Y003914D01*
X026954Y003878D01*
X026984Y003840D01*
X027010Y003799D01*
X027032Y003756D01*
X027052Y003712D01*
X027067Y003667D01*
X027079Y003620D01*
X027087Y003572D01*
X027091Y003524D01*
X027091Y003476D01*
X027087Y003428D01*
X027079Y003380D01*
X027067Y003333D01*
X027052Y003288D01*
X027032Y003244D01*
X027010Y003201D01*
X026984Y003160D01*
X026954Y003122D01*
X026922Y003086D01*
X026887Y003053D01*
X026849Y003023D01*
X026809Y002996D01*
X026767Y002973D01*
X026723Y002953D01*
X026678Y002936D01*
X026632Y002924D01*
X026584Y002915D01*
X026536Y002910D01*
X026488Y002909D01*
X026440Y002912D01*
X026392Y002919D01*
X026345Y002930D01*
X026299Y002944D01*
X026254Y002962D01*
X026211Y002984D01*
X026170Y003009D01*
X026132Y003038D01*
X026095Y003070D01*
X026061Y003104D01*
X026031Y003141D01*
X026003Y003180D01*
X025978Y003222D01*
X025958Y003266D01*
X025940Y003311D01*
X025927Y003357D01*
X025917Y003404D01*
X025911Y003452D01*
X025909Y003500D01*
X025909Y014500D02*
X025911Y014548D01*
X025917Y014596D01*
X025927Y014643D01*
X025940Y014689D01*
X025958Y014734D01*
X025978Y014778D01*
X026003Y014820D01*
X026031Y014859D01*
X026061Y014896D01*
X026095Y014930D01*
X026132Y014962D01*
X026170Y014991D01*
X026211Y015016D01*
X026254Y015038D01*
X026299Y015056D01*
X026345Y015070D01*
X026392Y015081D01*
X026440Y015088D01*
X026488Y015091D01*
X026536Y015090D01*
X026584Y015085D01*
X026632Y015076D01*
X026678Y015064D01*
X026723Y015047D01*
X026767Y015027D01*
X026809Y015004D01*
X026849Y014977D01*
X026887Y014947D01*
X026922Y014914D01*
X026954Y014878D01*
X026984Y014840D01*
X027010Y014799D01*
X027032Y014756D01*
X027052Y014712D01*
X027067Y014667D01*
X027079Y014620D01*
X027087Y014572D01*
X027091Y014524D01*
X027091Y014476D01*
X027087Y014428D01*
X027079Y014380D01*
X027067Y014333D01*
X027052Y014288D01*
X027032Y014244D01*
X027010Y014201D01*
X026984Y014160D01*
X026954Y014122D01*
X026922Y014086D01*
X026887Y014053D01*
X026849Y014023D01*
X026809Y013996D01*
X026767Y013973D01*
X026723Y013953D01*
X026678Y013936D01*
X026632Y013924D01*
X026584Y013915D01*
X026536Y013910D01*
X026488Y013909D01*
X026440Y013912D01*
X026392Y013919D01*
X026345Y013930D01*
X026299Y013944D01*
X026254Y013962D01*
X026211Y013984D01*
X026170Y014009D01*
X026132Y014038D01*
X026095Y014070D01*
X026061Y014104D01*
X026031Y014141D01*
X026003Y014180D01*
X025978Y014222D01*
X025958Y014266D01*
X025940Y014311D01*
X025927Y014357D01*
X025917Y014404D01*
X025911Y014452D01*
X025909Y014500D01*
X005909Y020500D02*
X005911Y020548D01*
X005917Y020596D01*
X005927Y020643D01*
X005940Y020689D01*
X005958Y020734D01*
X005978Y020778D01*
X006003Y020820D01*
X006031Y020859D01*
X006061Y020896D01*
X006095Y020930D01*
X006132Y020962D01*
X006170Y020991D01*
X006211Y021016D01*
X006254Y021038D01*
X006299Y021056D01*
X006345Y021070D01*
X006392Y021081D01*
X006440Y021088D01*
X006488Y021091D01*
X006536Y021090D01*
X006584Y021085D01*
X006632Y021076D01*
X006678Y021064D01*
X006723Y021047D01*
X006767Y021027D01*
X006809Y021004D01*
X006849Y020977D01*
X006887Y020947D01*
X006922Y020914D01*
X006954Y020878D01*
X006984Y020840D01*
X007010Y020799D01*
X007032Y020756D01*
X007052Y020712D01*
X007067Y020667D01*
X007079Y020620D01*
X007087Y020572D01*
X007091Y020524D01*
X007091Y020476D01*
X007087Y020428D01*
X007079Y020380D01*
X007067Y020333D01*
X007052Y020288D01*
X007032Y020244D01*
X007010Y020201D01*
X006984Y020160D01*
X006954Y020122D01*
X006922Y020086D01*
X006887Y020053D01*
X006849Y020023D01*
X006809Y019996D01*
X006767Y019973D01*
X006723Y019953D01*
X006678Y019936D01*
X006632Y019924D01*
X006584Y019915D01*
X006536Y019910D01*
X006488Y019909D01*
X006440Y019912D01*
X006392Y019919D01*
X006345Y019930D01*
X006299Y019944D01*
X006254Y019962D01*
X006211Y019984D01*
X006170Y020009D01*
X006132Y020038D01*
X006095Y020070D01*
X006061Y020104D01*
X006031Y020141D01*
X006003Y020180D01*
X005978Y020222D01*
X005958Y020266D01*
X005940Y020311D01*
X005927Y020357D01*
X005917Y020404D01*
X005911Y020452D01*
X005909Y020500D01*
D11*
X010000Y014800D02*
X010000Y014200D01*
X011000Y014200D02*
X011000Y014800D01*
X012000Y014800D02*
X012000Y014200D01*
X012000Y013300D02*
X012000Y012700D01*
X011000Y012700D02*
X011000Y013300D01*
X010000Y013300D02*
X010000Y012700D01*
X010000Y011300D02*
X010000Y010700D01*
X011000Y010700D02*
X011000Y011300D01*
X012000Y011300D02*
X012000Y010700D01*
X012000Y009800D02*
X012000Y009200D01*
X011000Y009200D02*
X011000Y009800D01*
X010000Y009800D02*
X010000Y009200D01*
X010000Y007800D02*
X010000Y007200D01*
X011000Y007200D02*
X011000Y007800D01*
X012000Y007800D02*
X012000Y007200D01*
X012000Y006300D02*
X012000Y005700D01*
X011000Y005700D02*
X011000Y006300D01*
X010000Y006300D02*
X010000Y005700D01*
X004955Y005610D02*
X004355Y005610D01*
X004355Y004390D02*
X004955Y004390D01*
X004955Y002610D02*
X004355Y002610D01*
X002395Y002610D02*
X001795Y002610D01*
X001795Y004390D02*
X002395Y004390D01*
X002395Y005610D02*
X001795Y005610D01*
X001795Y007390D02*
X002395Y007390D01*
X004355Y007390D02*

X013325Y017500D02*
X013925Y017500D01*
X014825Y017500D02*
X015425Y017500D01*
X016825Y017500D02*
X017425Y017500D01*
X018325Y017500D02*
X018925Y017500D01*
X018925Y016500D02*
X018325Y016500D01*
X017425Y016500D02*
X016825Y016500D01*
X016825Y015500D02*
X017425Y015500D01*
X018325Y015500D02*
X018925Y015500D01*
X020325Y015500D02*
X020925Y015500D01*
X021825Y015500D02*
X022425Y015500D01*
X022425Y016500D02*
X021825Y016500D01*
X020925Y016500D02*
X020325Y016500D01*
X020325Y017500D02*
X020925Y017500D01*
X021825Y017500D02*
X022425Y017500D01*
X024000Y011300D02*
X024000Y010700D01*
X024000Y009800D02*
X024000Y009200D01*
X025000Y009200D02*
X025000Y009800D01*
X025000Y010700D02*
X025000Y011300D01*
X026000Y011300D02*
X026000Y010700D01*
X026000Y009800D02*
X026000Y009200D01*
D12*
X025500Y001500D03*
X024500Y001500D03*
X023500Y001500D03*
X022500Y001500D03*
X021500Y001500D03*
X020500Y001500D03*
X018500Y001500D03*
X017500Y001500D03*
X016500Y001500D03*
X015500Y001500D03*
X014500Y001500D03*
X013500Y001500D03*
X012500Y001500D03*
X011500Y001500D03*
X011900Y020500D03*
X012900Y020500D03*
X013900Y020500D03*
X014900Y020500D03*
X015900Y020500D03*
X016900Y020500D03*
X018500Y020500D03*
X019500Y020500D03*
X020500Y020500D03*
X021500Y020500D03*
X022500Y020500D03*
X023500Y020500D03*
X024500Y020500D03*
X025500Y020500D03*
X010900Y020500D03*
X009900Y020500D03*
X008900Y020500D03*
X007900Y020500D03*
D13*
X018000Y012000D03*
X018000Y011000D03*
X018000Y010000D03*
X018000Y009000D03*
X018000Y008000D03*
D14*
X023500Y006500D03*
D15*
X024500Y006500D03*
X024500Y005500D03*
X023500Y005500D03*
X023500Y004500D03*
X024500Y004500D03*
D16*
X002853Y015516D02*
X002148Y015516D01*
X002148Y017484D02*
X002853Y017484D01*
D17*
X013500Y002925D03*
X013500Y002325D03*
D18*
X004000Y019800D02*
X004000Y020450D01*
X003000Y020450D02*
X003000Y019800D01*
X002000Y019800D02*
X002000Y020450D01*
D19*
X005750Y018750D03*
X008250Y018375D03*
X005125Y012750D03*
X004875Y011375D03*
X003250Y008375D03*
X003375Y005000D03*
X007625Y003125D03*
X009500Y004875D03*
X010375Y002875D03*
X012000Y003000D03*
X011875Y004875D03*
X013000Y006500D03*
X014875Y006500D03*
X014875Y003750D03*
X020250Y007125D03*
X021500Y003750D03*
X025125Y007625D03*
X014125Y009875D03*
X014125Y010875D03*
X014125Y011875D03*
D20*
X016125Y011875D01*
X016250Y012000D01*
X018000Y012000D01*
X018000Y011000D02*
X015625Y011000D01*
X015500Y010875D01*
X014125Y010875D01*
X014125Y009875D02*
X014125Y008500D01*
X014625Y008000D01*
X018000Y008000D01*
X019125Y008000D02*
X019125Y007000D01*
X018625Y006500D01*
X014875Y006500D01*
X014125Y007500D02*
X013375Y007500D01*
X013000Y007125D01*
X013000Y006500D01*
X012250Y006000D02*
X012625Y005625D01*
X019625Y005625D01*
X020250Y006250D01*
X020250Y007125D01*
X019125Y008000D02*
X019625Y008500D01*
X021250Y008500D01*
X021750Y008000D01*
X021750Y007000D01*
X022250Y006500D01*
X023500Y006500D01*
X023500Y005500D02*
X023000Y005500D01*
X022500Y005000D01*
X022500Y001500D01*
X021500Y001500D02*
X021500Y001125D01*
X021250Y000875D01*
X007250Y000875D01*
X007000Y001125D01*
X007000Y001875D01*
X006375Y002500D01*
X005625Y002500D01*
X005000Y001875D01*
X001500Y001875D01*
X001000Y002375D01*
X001000Y006125D01*
X001500Y006625D01*
X002750Y006625D01*
X003250Y007125D01*
X003250Y008375D01*
X004670Y007500D02*
X004655Y007390D01*
X004670Y007500D02*
X006125Y007500D01*
X006750Y008125D01*
X006750Y018750D01*
X007750Y019750D01*
X013750Y019750D01*
X013875Y019875D01*
X013875Y020000D01*
X013875Y020500D01*
X014875Y020500D02*
X014875Y019625D01*
X014375Y019125D01*
X007875Y019125D01*
X007500Y018750D01*
X007500Y007750D01*
X006125Y006375D01*
X006125Y003250D01*
X005875Y003000D01*
X005500Y003000D01*
X005125Y002625D01*
X004625Y002625D01*
X002125Y002625D01*
X004625Y002625D02*
X004625Y002640D01*
X004655Y002610D01*
X007000Y004250D02*
X007625Y003625D01*
X007625Y003125D01*
X008375Y004125D02*
X010000Y004125D01*
X010375Y003750D01*
X010375Y002875D01*
X008375Y004125D02*
X007875Y004625D01*
X007875Y006000D01*
X009000Y007125D01*
X009000Y018000D01*
X009500Y018500D01*
X016250Y018500D01*
X016875Y019250D01*
X016875Y020500D01*
X008250Y018375D02*
X008250Y007375D01*
X007000Y006125D01*
X007000Y004250D01*
X011875Y004875D02*
X013125Y004875D01*
X013500Y004500D01*
X013500Y002925D01*
X013500Y002325D02*
X013500Y001500D01*
X014875Y003750D02*
X015375Y004250D01*
X020500Y004250D01*
X021750Y005500D01*
X021750Y006000D01*
X022250Y006500D01*
X023500Y004500D02*
X023500Y001500D01*
X024500Y001500D02*
X024500Y004500D01*
X024500Y005500D02*
X025000Y005500D01*
X025500Y005000D01*
X025500Y001500D01*
X017500Y001500D02*
X016500Y001500D01*
X012250Y006000D02*
X012000Y006000D01*
X014125Y007500D02*
X014625Y008000D01*
X018000Y009000D02*
X019125Y009000D01*
X019625Y008500D01*
D21*
X019874Y009100D02*
X019634Y009340D01*
X019465Y009509D01*
X019244Y009600D01*
X018636Y009600D01*
X018506Y009730D01*
X018532Y009780D01*
X018560Y009866D01*
X018568Y009920D01*
X018080Y009920D01*
X018080Y010080D01*
X018568Y010080D01*
X018560Y010134D01*
X018532Y010220D01*
X018506Y010270D01*
X018741Y010505D01*
X018874Y010826D01*
X018874Y011174D01*
X018741Y011495D01*
X018736Y011500D01*
X018741Y011505D01*
X018874Y011826D01*
X018874Y012174D01*
X018741Y012495D01*
X018495Y012741D01*
X018174Y012874D01*
X017826Y012874D01*
X017505Y012741D01*
X017364Y012600D01*
X016131Y012600D01*
X015910Y012509D01*
X015880Y012479D01*
X015871Y012475D01*
X014741Y012475D01*
X014612Y012604D01*
X014296Y012735D01*
X013954Y012735D01*
X013638Y012604D01*
X013396Y012362D01*
X013265Y012046D01*
X013265Y011704D01*
X013396Y011388D01*
X013409Y011375D01*
X013396Y011362D01*
X013265Y011046D01*
X013265Y010704D01*
X013396Y010388D01*
X013409Y010375D01*
X013396Y010362D01*
X013265Y010046D01*
X013265Y009704D01*
X013396Y009388D01*
X013525Y009259D01*
X013525Y008381D01*
X013616Y008160D01*
X013676Y008100D01*
X013256Y008100D01*
X013035Y008009D01*
X012866Y007840D01*
X012866Y007840D01*
X012780Y007754D01*
X012780Y007955D01*
X012661Y008242D01*
X012442Y008461D01*
X012348Y008500D01*
X012442Y008539D01*
X012661Y008758D01*
X012780Y009045D01*
X012780Y009955D01*
X012661Y010242D01*
X012653Y010250D01*
X012661Y010258D01*
X012780Y010545D01*
X012780Y011455D01*
X012661Y011742D01*
X012442Y011961D01*
X012348Y012000D01*
X012442Y012039D01*
X012661Y012258D01*
X012780Y012545D01*
X012780Y013455D01*
X012661Y013742D01*
X012653Y013750D01*
X012661Y013758D01*
X012780Y014045D01*
X012780Y014942D01*
X012883Y014839D01*
X013170Y014720D01*
X014080Y014720D01*
X014367Y014839D01*
X014375Y014847D01*
X014383Y014839D01*
X014670Y014720D01*
X015580Y014720D01*
X015867Y014839D01*
X016086Y015058D01*
X016125Y015152D01*
X016164Y015058D01*
X016383Y014839D01*
X016670Y014720D01*
X017580Y014720D01*
X017867Y014839D01*
X017875Y014847D01*
X017883Y014839D01*
X018170Y014720D01*
X019080Y014720D01*
X019367Y014839D01*
X019586Y015058D01*
X019625Y015152D01*
X019664Y015058D01*
X019883Y014839D01*
X020170Y014720D01*
X021080Y014720D01*
X021367Y014839D01*
X021375Y014847D01*
X021383Y014839D01*
X021670Y014720D01*
X022580Y014720D01*
X022867Y014839D01*
X023086Y015058D01*
X023205Y015345D01*
X023205Y015655D01*
X023170Y015740D01*
X023935Y015740D01*
X024240Y015435D01*
X024240Y012045D01*
X024155Y012080D01*
X023845Y012080D01*
X023558Y011961D01*
X023339Y011742D01*
X023220Y011455D01*
X023220Y010545D01*
X023339Y010258D01*
X023347Y010250D01*
X023339Y010242D01*
X023220Y009955D01*
X023220Y009045D01*
X023339Y008758D01*
X023558Y008539D01*
X023845Y008420D01*
X024155Y008420D01*
X024442Y008539D01*
X024500Y008597D01*
X024558Y008539D01*
X024845Y008420D01*
X025155Y008420D01*
X025442Y008539D01*
X025661Y008758D01*
X025691Y008831D01*
X025748Y008789D01*
X025816Y008755D01*
X025888Y008732D01*
X025962Y008720D01*
X025980Y008720D01*
X025980Y009480D01*
X026020Y009480D01*
X026020Y009520D01*
X025980Y009520D01*
X025980Y010980D01*
X026020Y010980D01*
X026020Y011020D01*
X026480Y011020D01*
X026480Y011338D01*
X026468Y011412D01*
X026445Y011484D01*
X026411Y011552D01*
X026366Y011613D01*
X026313Y011666D01*
X026252Y011711D01*
X026184Y011745D01*
X026112Y011768D01*
X026038Y011780D01*
X026020Y011780D01*
X026020Y011020D01*
X025980Y011020D01*
X025980Y011780D01*
X025962Y011780D01*
X025888Y011768D01*
X025816Y011745D01*
X025760Y011716D01*
X025760Y013726D01*
X025843Y013643D01*
X026087Y013502D01*
X026359Y013429D01*
X026641Y013429D01*
X026913Y013502D01*
X027000Y013553D01*
X027000Y004447D01*
X026913Y004498D01*
X026641Y004571D01*
X026359Y004571D01*
X026100Y004501D01*
X026100Y005119D01*
X026009Y005340D01*
X025840Y005509D01*
X025340Y006009D01*
X025119Y006100D01*
X025003Y006100D01*
X024891Y006212D01*
X024980Y006301D01*
X024980Y006480D01*
X024520Y006480D01*
X024520Y006520D01*
X024480Y006520D01*
X024480Y006980D01*
X024301Y006980D01*
X024191Y006870D01*
X024161Y006942D01*
X023942Y007161D01*
X023655Y007280D01*
X023345Y007280D01*
X023058Y007161D01*
X022997Y007100D01*
X022499Y007100D01*
X022350Y007249D01*
X022350Y008119D01*
X022259Y008340D01*
X021759Y008840D01*
X021590Y009009D01*
X021369Y009100D01*
X019874Y009100D01*
X019756Y009218D02*
X023220Y009218D01*
X023220Y009376D02*
X019598Y009376D01*
X019402Y009535D02*
X023220Y009535D01*
X023220Y009693D02*
X018543Y009693D01*
X018555Y009852D02*
X023220Y009852D01*
X023243Y010010D02*
X018080Y010010D01*
X017920Y010010D02*
X014985Y010010D01*
X014985Y010046D02*
X014890Y010275D01*
X015619Y010275D01*
X015840Y010366D01*
X015874Y010400D01*
X017364Y010400D01*
X017494Y010270D01*
X017468Y010220D01*
X017440Y010134D01*
X017432Y010080D01*
X017920Y010080D01*
X017920Y009920D01*
X017432Y009920D01*
X017440Y009866D01*
X017468Y009780D01*
X017494Y009730D01*
X017259Y009495D01*
X017126Y009174D01*
X017126Y008826D01*
X017220Y008600D01*
X014874Y008600D01*
X014725Y008749D01*
X014725Y009259D01*
X014854Y009388D01*
X014985Y009704D01*
X014985Y010046D01*
X014934Y010169D02*
X017452Y010169D01*
X017437Y010327D02*
X015745Y010327D01*
X014985Y009852D02*
X017445Y009852D01*
X017457Y009693D02*
X014980Y009693D01*
X014915Y009535D02*
X017299Y009535D01*
X017210Y009376D02*
X014842Y009376D01*
X014725Y009218D02*
X017144Y009218D01*
X017126Y009059D02*
X014725Y009059D01*
X014725Y008901D02*
X017126Y008901D01*
X017161Y008742D02*
X014732Y008742D01*
X013525Y008742D02*
X012645Y008742D01*
X012720Y008901D02*
X013525Y008901D01*
X013525Y009059D02*
X012780Y009059D01*
X012780Y009218D02*
X013525Y009218D01*
X013408Y009376D02*
X012780Y009376D01*
X012780Y009535D02*
X013335Y009535D01*
X013270Y009693D02*
X012780Y009693D01*
X012780Y009852D02*
X013265Y009852D01*
X013265Y010010D02*
X012757Y010010D01*
X012692Y010169D02*
X013316Y010169D01*
X013381Y010327D02*
X012690Y010327D01*
X012755Y010486D02*
X013355Y010486D01*
X013290Y010644D02*
X012780Y010644D01*
X012780Y010803D02*
X013265Y010803D01*
X013265Y010961D02*
X012780Y010961D01*
X012780Y011120D02*
X013295Y011120D01*
X013361Y011278D02*
X012780Y011278D01*
X012780Y011437D02*
X013376Y011437D01*
X013310Y011595D02*
X012722Y011595D01*
X012650Y011754D02*
X013265Y011754D01*
X013265Y011912D02*
X012491Y011912D01*
X012474Y012071D02*
X013275Y012071D01*
X013341Y012229D02*
X012632Y012229D01*
X012715Y012388D02*
X013421Y012388D01*
X013580Y012546D02*
X012780Y012546D01*
X012780Y012705D02*
X013880Y012705D01*
X014370Y012705D02*
X017469Y012705D01*
X017800Y012863D02*
X012780Y012863D01*
X012780Y013022D02*
X024240Y013022D01*
X024240Y013180D02*
X012780Y013180D01*
X012780Y013339D02*
X024240Y013339D01*
X024240Y013497D02*
X012763Y013497D01*
X012697Y013656D02*
X024240Y013656D01*
X024240Y013814D02*
X012684Y013814D01*
X012750Y013973D02*
X024240Y013973D01*
X024240Y014131D02*
X012780Y014131D01*
X012780Y014290D02*
X024240Y014290D01*
X024240Y014448D02*
X012780Y014448D01*
X012780Y014607D02*
X024240Y014607D01*
X024240Y014765D02*
X022689Y014765D01*
X022952Y014924D02*
X024240Y014924D01*
X024240Y015082D02*
X023096Y015082D01*
X023162Y015241D02*
X024240Y015241D01*
X024240Y015399D02*
X023205Y015399D01*
X023205Y015558D02*
X024118Y015558D01*
X023959Y015716D02*
X023180Y015716D01*
X021561Y014765D02*
X021189Y014765D01*
X020061Y014765D02*
X019189Y014765D01*
X019452Y014924D02*
X019798Y014924D01*
X019654Y015082D02*
X019596Y015082D01*
X018061Y014765D02*
X017689Y014765D01*
X016561Y014765D02*
X015689Y014765D01*
X015952Y014924D02*
X016298Y014924D01*
X016154Y015082D02*
X016096Y015082D01*
X014561Y014765D02*
X014189Y014765D01*
X013061Y014765D02*
X012780Y014765D01*
X012780Y014924D02*
X012798Y014924D01*
X010934Y016509D02*
X009600Y016509D01*
X009600Y016667D02*
X011092Y016667D01*
X011251Y016826D02*
X009600Y016826D01*
X009600Y016984D02*
X011409Y016984D01*
X011356Y016931D02*
X010356Y015931D01*
X010240Y015651D01*
X010240Y015216D01*
X010184Y015245D01*
X010112Y015268D01*
X010038Y015280D01*
X010020Y015280D01*
X010020Y014520D01*
X009980Y014520D01*
X009980Y015280D01*
X009962Y015280D01*
X009888Y015268D01*
X009816Y015245D01*
X009748Y015211D01*
X009687Y015166D01*
X009634Y015113D01*
X009600Y015066D01*
X009600Y017751D01*
X009749Y017900D01*
X013059Y017900D01*
X013012Y017866D01*
X012959Y017813D01*
X012914Y017752D01*
X012880Y017684D01*
X012857Y017612D01*
X012845Y017538D01*
X012845Y017520D01*
X013605Y017520D01*
X013605Y017480D01*
X012845Y017480D01*
X012845Y017462D01*
X012857Y017388D01*
X012880Y017316D01*
X012909Y017260D01*
X011849Y017260D01*
X011569Y017144D01*
X011356Y016931D01*
X011568Y017143D02*
X009600Y017143D01*
X009600Y017301D02*
X012888Y017301D01*
X012845Y017460D02*
X009600Y017460D01*
X009600Y017618D02*
X012859Y017618D01*
X012933Y017777D02*
X009625Y017777D01*
X009600Y016350D02*
X010775Y016350D01*
X010617Y016192D02*
X009600Y016192D01*
X009600Y016033D02*
X010458Y016033D01*
X010333Y015875D02*
X009600Y015875D01*
X009600Y015716D02*
X010267Y015716D01*
X010240Y015558D02*
X009600Y015558D01*
X009600Y015399D02*
X010240Y015399D01*
X010240Y015241D02*
X010193Y015241D01*
X010020Y015241D02*
X009980Y015241D01*
X009980Y015082D02*
X010020Y015082D01*
X010020Y014924D02*
X009980Y014924D01*
X009980Y014765D02*
X010020Y014765D01*
X010020Y014607D02*
X009980Y014607D01*
X009980Y014480D02*
X010020Y014480D01*
X010020Y013020D01*
X009980Y013020D01*
X009980Y013780D01*
X009980Y014480D01*
X009980Y014448D02*
X010020Y014448D01*
X010020Y014290D02*
X009980Y014290D01*
X009980Y014131D02*
X010020Y014131D01*
X010020Y013973D02*
X009980Y013973D01*
X009980Y013814D02*
X010020Y013814D01*
X010020Y013656D02*
X009980Y013656D01*
X009980Y013497D02*
X010020Y013497D01*
X010020Y013339D02*
X009980Y013339D01*
X009980Y013180D02*
X010020Y013180D01*
X010020Y013022D02*
X009980Y013022D01*
X009980Y012980D02*
X010020Y012980D01*
X010020Y012220D01*
X010038Y012220D01*
X010112Y012232D01*
X010184Y012255D01*
X010240Y012284D01*
X010240Y011716D01*
X010184Y011745D01*
X010112Y011768D01*
X010038Y011780D01*
X010020Y011780D01*
X010020Y011020D01*
X009980Y011020D01*
X009980Y011780D01*
X009962Y011780D01*
X009888Y011768D01*
X009816Y011745D01*
X009748Y011711D01*
X009687Y011666D01*
X009634Y011613D01*
X009600Y011566D01*
X009600Y012434D01*
X009634Y012387D01*
X009687Y012334D01*
X009748Y012289D01*
X009816Y012255D01*
X009888Y012232D01*
X009962Y012220D01*
X009980Y012220D01*
X009980Y012980D01*
X009980Y012863D02*
X010020Y012863D01*
X010020Y012705D02*
X009980Y012705D01*
X009980Y012546D02*
X010020Y012546D01*
X010020Y012388D02*
X009980Y012388D01*
X009980Y012229D02*
X010020Y012229D01*
X010095Y012229D02*
X010240Y012229D01*
X010240Y012071D02*
X009600Y012071D01*
X009600Y012229D02*
X009905Y012229D01*
X009634Y012388D02*
X009600Y012388D01*
X009600Y011912D02*
X010240Y011912D01*
X010240Y011754D02*
X010158Y011754D01*
X010020Y011754D02*
X009980Y011754D01*
X009842Y011754D02*
X009600Y011754D01*
X009600Y011595D02*
X009621Y011595D01*
X009980Y011595D02*
X010020Y011595D01*
X010020Y011437D02*
X009980Y011437D01*
X009980Y011278D02*
X010020Y011278D01*
X010020Y011120D02*
X009980Y011120D01*
X009980Y010980D02*
X010020Y010980D01*
X010020Y009520D01*
X009980Y009520D01*
X009980Y010280D01*
X009980Y010980D01*
X009980Y010961D02*
X010020Y010961D01*
X010020Y010803D02*
X009980Y010803D01*
X009980Y010644D02*
X010020Y010644D01*
X010020Y010486D02*
X009980Y010486D01*
X009980Y010327D02*
X010020Y010327D01*
X010020Y010169D02*
X009980Y010169D01*
X009980Y010010D02*
X010020Y010010D01*
X010020Y009852D02*
X009980Y009852D01*
X009980Y009693D02*
X010020Y009693D01*
X010020Y009535D02*
X009980Y009535D01*
X009980Y009480D02*
X010020Y009480D01*
X010020Y008720D01*
X010038Y008720D01*
X010112Y008732D01*
X010184Y008755D01*
X010240Y008784D01*
X010240Y008216D01*
X010184Y008245D01*
X010112Y008268D01*
X010038Y008280D01*
X010020Y008280D01*
X010020Y007520D01*
X009980Y007520D01*
X009980Y008280D01*
X009962Y008280D01*
X009888Y008268D01*
X009816Y008245D01*
X009748Y008211D01*
X009687Y008166D01*
X009634Y008113D01*
X009600Y008066D01*
X009600Y008934D01*
X009634Y008887D01*
X009687Y008834D01*
X009748Y008789D01*
X009816Y008755D01*
X009888Y008732D01*
X009962Y008720D01*
X009980Y008720D01*
X009980Y009480D01*
X009980Y009376D02*
X010020Y009376D01*
X010020Y009218D02*
X009980Y009218D01*
X009980Y009059D02*
X010020Y009059D01*
X010020Y008901D02*
X009980Y008901D01*
X009980Y008742D02*
X010020Y008742D01*
X010144Y008742D02*
X010240Y008742D01*
X010240Y008584D02*
X009600Y008584D01*
X009600Y008742D02*
X009856Y008742D01*
X009624Y008901D02*
X009600Y008901D01*
X009600Y008425D02*
X010240Y008425D01*
X010240Y008267D02*
X010118Y008267D01*
X010020Y008267D02*
X009980Y008267D01*
X009882Y008267D02*
X009600Y008267D01*
X009600Y008108D02*
X009630Y008108D01*
X009980Y008108D02*
X010020Y008108D01*
X010020Y007950D02*
X009980Y007950D01*
X009980Y007791D02*
X010020Y007791D01*
X010020Y007633D02*
X009980Y007633D01*
X009980Y007480D02*
X010020Y007480D01*
X010020Y006020D01*
X009980Y006020D01*
X009980Y006720D01*
X009980Y007480D01*
X009980Y007474D02*
X010020Y007474D01*
X010020Y007316D02*
X009980Y007316D01*
X009980Y007157D02*
X010020Y007157D01*
X010020Y006999D02*
X009980Y006999D01*
X009980Y006840D02*
X010020Y006840D01*
X010020Y006682D02*
X009980Y006682D01*
X009980Y006523D02*
X010020Y006523D01*
X010020Y006365D02*
X009980Y006365D01*
X009980Y006206D02*
X010020Y006206D01*
X010020Y006048D02*
X009980Y006048D01*
X009980Y006020D02*
X009980Y005980D01*
X009520Y005980D01*
X009520Y005735D01*
X009329Y005735D01*
X009013Y005604D01*
X008771Y005362D01*
X008640Y005046D01*
X008640Y004725D01*
X008624Y004725D01*
X008475Y004874D01*
X008475Y005751D01*
X009509Y006785D01*
X009582Y006963D01*
X009589Y006948D01*
X009634Y006887D01*
X009687Y006834D01*
X009748Y006789D01*
X009816Y006755D01*
X009832Y006750D01*
X009816Y006745D01*
X009748Y006711D01*
X009687Y006666D01*
X009634Y006613D01*
X009589Y006552D01*
X009555Y006484D01*
X009532Y006412D01*
X009520Y006338D01*
X009520Y006020D01*
X009980Y006020D01*
X009520Y006048D02*
X008771Y006048D01*
X008930Y006206D02*
X009520Y006206D01*
X009524Y006365D02*
X009088Y006365D01*
X009247Y006523D02*
X009575Y006523D01*
X009708Y006682D02*
X009405Y006682D01*
X009531Y006840D02*
X009681Y006840D01*
X009520Y005889D02*
X008613Y005889D01*
X008475Y005731D02*
X009318Y005731D01*
X008981Y005572D02*
X008475Y005572D01*
X008475Y005414D02*
X008822Y005414D01*
X008727Y005255D02*
X008475Y005255D01*
X008475Y005097D02*
X008661Y005097D01*
X008640Y004938D02*
X008475Y004938D01*
X008569Y004780D02*
X008640Y004780D01*
X008390Y003525D02*
X009751Y003525D01*
X009775Y003501D01*
X009775Y003491D01*
X009646Y003362D01*
X009515Y003046D01*
X009515Y002704D01*
X009646Y002388D01*
X009888Y002146D01*
X010204Y002015D01*
X010546Y002015D01*
X010862Y002146D01*
X011104Y002388D01*
X011235Y002704D01*
X011235Y003046D01*
X011104Y003362D01*
X010975Y003491D01*
X010975Y003869D01*
X010884Y004090D01*
X010859Y004115D01*
X010901Y004115D01*
X011181Y004231D01*
X011242Y004292D01*
X011388Y004146D01*
X011704Y004015D01*
X012046Y004015D01*
X012362Y004146D01*
X012491Y004275D01*
X012876Y004275D01*
X012900Y004251D01*
X012900Y003549D01*
X012778Y003427D01*
X012705Y003250D01*
X012705Y002310D01*
X012164Y002310D01*
X012000Y002146D01*
X011836Y002310D01*
X011164Y002310D01*
X010690Y001836D01*
X010690Y001475D01*
X007600Y001475D01*
X007600Y001994D01*
X007509Y002215D01*
X007459Y002265D01*
X007796Y002265D01*
X008112Y002396D01*
X008354Y002638D01*
X008485Y002954D01*
X008485Y003296D01*
X008390Y003525D01*
X008396Y003512D02*
X009765Y003512D01*
X009642Y003353D02*
X008461Y003353D01*
X008485Y003195D02*
X009576Y003195D01*
X009515Y003036D02*
X008485Y003036D01*
X008453Y002878D02*
X009515Y002878D01*
X009515Y002719D02*
X008388Y002719D01*
X008277Y002561D02*
X009574Y002561D01*
X009640Y002402D02*
X008118Y002402D01*
X007562Y002085D02*
X010035Y002085D01*
X009790Y002244D02*
X007480Y002244D01*
X007600Y001927D02*
X010781Y001927D01*
X010715Y002085D02*
X010939Y002085D01*
X010960Y002244D02*
X011098Y002244D01*
X011110Y002402D02*
X012705Y002402D01*
X012705Y002561D02*
X011176Y002561D01*
X011235Y002719D02*
X012705Y002719D01*
X012705Y002878D02*
X011235Y002878D01*
X011235Y003036D02*
X012705Y003036D01*
X012705Y003195D02*
X011174Y003195D01*
X011108Y003353D02*
X012747Y003353D01*
X012863Y003512D02*
X010975Y003512D01*
X010975Y003670D02*
X012900Y003670D01*
X012900Y003829D02*
X010975Y003829D01*
X010926Y003987D02*
X012900Y003987D01*
X012900Y004146D02*
X012361Y004146D01*
X011389Y004146D02*
X010975Y004146D01*
X011902Y002244D02*
X012098Y002244D01*
X010690Y001768D02*
X007600Y001768D01*
X007600Y001610D02*
X010690Y001610D01*
X014295Y002310D02*
X014295Y003114D01*
X014388Y003021D01*
X014704Y002890D01*
X015046Y002890D01*
X015362Y003021D01*
X015604Y003263D01*
X015735Y003579D01*
X015735Y003650D01*
X020619Y003650D01*
X020840Y003741D01*
X021900Y004801D01*
X021900Y002246D01*
X021836Y002310D01*
X021164Y002310D01*
X021000Y002146D01*
X020836Y002310D01*
X020164Y002310D01*
X019690Y001836D01*
X019690Y001475D01*
X019310Y001475D01*
X019310Y001836D01*
X018836Y002310D01*
X018164Y002310D01*
X017788Y001933D01*
X017711Y002010D01*
X017518Y002010D01*
X017518Y001518D01*
X017482Y001518D01*
X017482Y001482D01*
X016518Y001482D01*
X016518Y001518D01*
X016990Y001518D01*
X017482Y001518D01*
X017482Y002010D01*
X017289Y002010D01*
X017000Y001721D01*
X016711Y002010D01*
X016518Y002010D01*
X016518Y001518D01*
X016482Y001518D01*
X016482Y002010D01*
X016289Y002010D01*
X016212Y001933D01*
X015836Y002310D01*
X015164Y002310D01*
X015000Y002146D01*
X014836Y002310D01*
X014295Y002310D01*
X014295Y002402D02*
X021900Y002402D01*
X021900Y002561D02*
X014295Y002561D01*
X014295Y002719D02*
X021900Y002719D01*
X021900Y002878D02*
X014295Y002878D01*
X014295Y003036D02*
X014373Y003036D01*
X015377Y003036D02*
X021900Y003036D01*
X021900Y003195D02*
X015536Y003195D01*
X015641Y003353D02*
X021900Y003353D01*
X021900Y003512D02*
X015707Y003512D01*
X015902Y002244D02*
X018098Y002244D01*
X017939Y002085D02*
X016061Y002085D01*
X016482Y001927D02*
X016518Y001927D01*
X016518Y001768D02*
X016482Y001768D01*
X016482Y001610D02*
X016518Y001610D01*
X016795Y001927D02*
X017205Y001927D01*
X017047Y001768D02*
X016953Y001768D01*
X017482Y001768D02*
X017518Y001768D01*
X017518Y001610D02*
X017482Y001610D01*
X017482Y001927D02*
X017518Y001927D01*
X018902Y002244D02*
X020098Y002244D01*
X019939Y002085D02*
X019061Y002085D01*
X019219Y001927D02*
X019781Y001927D01*
X019690Y001768D02*
X019310Y001768D01*
X019310Y001610D02*
X019690Y001610D01*
X020902Y002244D02*
X021098Y002244D01*
X020668Y003670D02*
X021900Y003670D01*
X021900Y003829D02*
X020927Y003829D01*
X021086Y003987D02*
X021900Y003987D01*
X021900Y004146D02*
X021244Y004146D01*
X021403Y004304D02*
X021900Y004304D01*
X021900Y004463D02*
X021561Y004463D01*
X021720Y004621D02*
X021900Y004621D01*
X021900Y004780D02*
X021878Y004780D01*
X024480Y006523D02*
X024520Y006523D01*
X024520Y006520D02*
X024520Y006980D01*
X024699Y006980D01*
X024980Y006699D01*
X024980Y006520D01*
X024520Y006520D01*
X024520Y006682D02*
X024480Y006682D01*
X024480Y006840D02*
X024520Y006840D01*
X024839Y006840D02*
X027000Y006840D01*
X027000Y006682D02*
X024980Y006682D01*
X024980Y006523D02*
X027000Y006523D01*
X027000Y006365D02*
X024980Y006365D01*
X024897Y006206D02*
X027000Y006206D01*
X027000Y006048D02*
X025246Y006048D01*
X025460Y005889D02*
X027000Y005889D01*
X027000Y005731D02*
X025618Y005731D01*
X025777Y005572D02*
X027000Y005572D01*
X027000Y005414D02*
X025935Y005414D01*
X026044Y005255D02*
X027000Y005255D01*
X027000Y005097D02*
X026100Y005097D01*
X026100Y004938D02*
X027000Y004938D01*
X027000Y004780D02*
X026100Y004780D01*
X026100Y004621D02*
X027000Y004621D01*
X027000Y004463D02*
X026974Y004463D01*
X027000Y006999D02*
X024105Y006999D01*
X023946Y007157D02*
X027000Y007157D01*
X027000Y007316D02*
X022350Y007316D01*
X022350Y007474D02*
X027000Y007474D01*
X027000Y007633D02*
X022350Y007633D01*
X022350Y007791D02*
X027000Y007791D01*
X027000Y007950D02*
X022350Y007950D01*
X022350Y008108D02*
X027000Y008108D01*
X027000Y008267D02*
X022289Y008267D01*
X022174Y008425D02*
X023833Y008425D01*
X024167Y008425D02*
X024833Y008425D01*
X024513Y008584D02*
X024487Y008584D01*
X025167Y008425D02*
X027000Y008425D01*
X027000Y008584D02*
X025487Y008584D01*
X025645Y008742D02*
X025856Y008742D01*
X025980Y008742D02*
X026020Y008742D01*
X026020Y008720D02*
X026038Y008720D01*
X026112Y008732D01*
X026184Y008755D01*
X026252Y008789D01*
X026313Y008834D01*
X026366Y008887D01*
X026411Y008948D01*
X026445Y009016D01*
X026468Y009088D01*
X026480Y009162D01*
X026480Y009480D01*
X026020Y009480D01*
X026020Y008720D01*
X026144Y008742D02*
X027000Y008742D01*
X027000Y008901D02*
X026376Y008901D01*
X026459Y009059D02*
X027000Y009059D01*
X027000Y009218D02*
X026480Y009218D01*
X026480Y009376D02*
X027000Y009376D01*
X027000Y009535D02*
X026480Y009535D01*
X026480Y009520D02*
X026480Y009838D01*
X026468Y009912D01*
X026445Y009984D01*
X026411Y010052D01*
X026366Y010113D01*
X026313Y010166D01*
X026252Y010211D01*
X026184Y010245D01*
X026168Y010250D01*
X026184Y010255D01*
X026252Y010289D01*
X026313Y010334D01*
X026366Y010387D01*
X026411Y010448D01*
X026445Y010516D01*
X026468Y010588D01*
X026480Y010662D01*
X026480Y010980D01*
X026020Y010980D01*
X026020Y010220D01*
X026020Y009520D01*
X026480Y009520D01*
X026480Y009693D02*
X027000Y009693D01*
X027000Y009852D02*
X026478Y009852D01*
X026432Y010010D02*
X027000Y010010D01*
X027000Y010169D02*
X026309Y010169D01*
X026303Y010327D02*
X027000Y010327D01*
X027000Y010486D02*
X026429Y010486D01*
X026477Y010644D02*
X027000Y010644D01*
X027000Y010803D02*
X026480Y010803D01*
X026480Y010961D02*
X027000Y010961D01*
X027000Y011120D02*
X026480Y011120D01*
X026480Y011278D02*
X027000Y011278D01*
X027000Y011437D02*
X026460Y011437D01*
X026379Y011595D02*
X027000Y011595D01*
X027000Y011754D02*
X026158Y011754D01*
X026020Y011754D02*
X025980Y011754D01*
X025842Y011754D02*
X025760Y011754D01*
X025760Y011912D02*
X027000Y011912D01*
X027000Y012071D02*
X025760Y012071D01*
X025760Y012229D02*
X027000Y012229D01*
X027000Y012388D02*
X025760Y012388D01*
X025760Y012546D02*
X027000Y012546D01*
X027000Y012705D02*
X025760Y012705D01*
X025760Y012863D02*
X027000Y012863D01*
X027000Y013022D02*
X025760Y013022D01*
X025760Y013180D02*
X027000Y013180D01*
X027000Y013339D02*
X025760Y013339D01*
X025760Y013497D02*
X026107Y013497D01*
X025830Y013656D02*
X025760Y013656D01*
X026893Y013497D02*
X027000Y013497D01*
X025760Y015274D02*
X025760Y015901D01*
X025644Y016181D01*
X025431Y016394D01*
X025431Y016394D01*
X024681Y017144D01*
X024401Y017260D01*
X022841Y017260D01*
X022870Y017316D01*
X022893Y017388D01*
X022905Y017462D01*
X022905Y017480D01*
X022145Y017480D01*
X022145Y017520D01*
X022105Y017520D01*
X022105Y017980D01*
X021787Y017980D01*
X021713Y017968D01*
X021641Y017945D01*
X021573Y017911D01*
X021512Y017866D01*
X021459Y017813D01*
X021414Y017752D01*
X021380Y017684D01*
X021375Y017668D01*
X021370Y017684D01*
X021336Y017752D01*
X021291Y017813D01*
X021238Y017866D01*
X021177Y017911D01*
X021109Y017945D01*
X021037Y017968D01*
X020963Y017980D01*
X020645Y017980D01*
X020645Y017520D01*
X021405Y017520D01*
X022105Y017520D01*
X022105Y017480D01*
X020645Y017480D01*
X020645Y017520D01*
X020605Y017520D01*
X020605Y017980D01*
X020287Y017980D01*
X020213Y017968D01*
X020141Y017945D01*
X020073Y017911D01*
X020012Y017866D01*
X019959Y017813D01*
X019914Y017752D01*
X019880Y017684D01*
X019857Y017612D01*
X019845Y017538D01*
X019845Y017520D01*
X020605Y017520D01*
X020605Y017480D01*
X019845Y017480D01*
X019845Y017462D01*
X019857Y017388D01*
X019880Y017316D01*
X019909Y017260D01*
X019341Y017260D01*
X019370Y017316D01*
X019393Y017388D01*
X019405Y017462D01*
X019405Y017480D01*
X018645Y017480D01*
X018645Y017520D01*
X018605Y017520D01*
X018605Y017980D01*
X018287Y017980D01*
X018213Y017968D01*
X018141Y017945D01*
X018073Y017911D01*
X018012Y017866D01*
X017959Y017813D01*
X017914Y017752D01*
X017880Y017684D01*
X017875Y017668D01*
X017870Y017684D01*
X017836Y017752D01*
X017791Y017813D01*
X017738Y017866D01*
X017677Y017911D01*
X017609Y017945D01*
X017537Y017968D01*
X017463Y017980D01*
X017145Y017980D01*
X017145Y017520D01*
X017905Y017520D01*
X018605Y017520D01*
X018605Y017480D01*
X017145Y017480D01*
X017145Y017520D01*
X017105Y017520D01*
X017105Y017980D01*
X016787Y017980D01*
X016713Y017968D01*
X016641Y017945D01*
X016573Y017911D01*
X016512Y017866D01*
X016459Y017813D01*
X016414Y017752D01*
X016380Y017684D01*
X016357Y017612D01*
X016345Y017538D01*
X016345Y017520D01*
X017105Y017520D01*
X017105Y017480D01*
X016345Y017480D01*
X016345Y017462D01*
X016357Y017388D01*
X016380Y017316D01*
X016409Y017260D01*
X015841Y017260D01*
X015870Y017316D01*
X015893Y017388D01*
X015905Y017462D01*
X015905Y017480D01*
X015145Y017480D01*
X015145Y017520D01*
X015905Y017520D01*
X015905Y017538D01*
X015893Y017612D01*
X015870Y017684D01*
X015836Y017752D01*
X015791Y017813D01*
X015738Y017866D01*
X015691Y017900D01*
X016159Y017900D01*
X016185Y017892D01*
X016277Y017900D01*
X016369Y017900D01*
X016395Y017911D01*
X016423Y017913D01*
X016505Y017956D01*
X016590Y017991D01*
X016610Y018011D01*
X016635Y018024D01*
X016694Y018095D01*
X016759Y018160D01*
X016769Y018186D01*
X017319Y018845D01*
X017384Y018910D01*
X017394Y018936D01*
X017412Y018958D01*
X017440Y019046D01*
X017475Y019131D01*
X017475Y019159D01*
X017483Y019185D01*
X017475Y019277D01*
X017475Y019929D01*
X017700Y020154D01*
X017700Y020154D01*
X018164Y019690D01*
X018836Y019690D01*
X019000Y019854D01*
X019164Y019690D01*
X019836Y019690D01*
X020000Y019854D01*
X020164Y019690D01*
X020836Y019690D01*
X021000Y019854D01*
X021164Y019690D01*
X021836Y019690D01*
X022000Y019854D01*
X022164Y019690D01*
X022836Y019690D01*
X023000Y019854D01*
X023164Y019690D01*
X023836Y019690D01*
X024000Y019854D01*
X024164Y019690D01*
X024836Y019690D01*
X025000Y019854D01*
X025164Y019690D01*
X025836Y019690D01*
X026000Y019854D01*
X026000Y016500D01*
X026020Y016480D01*
X026020Y016305D01*
X026093Y016128D01*
X026228Y015993D01*
X026654Y015567D01*
X026641Y015571D01*
X026359Y015571D01*
X026087Y015498D01*
X025843Y015357D01*
X025760Y015274D01*
X025760Y015399D02*
X025916Y015399D01*
X025760Y015558D02*
X026310Y015558D01*
X026505Y015716D02*
X025760Y015716D01*
X025760Y015875D02*
X026347Y015875D01*
X026188Y016033D02*
X025705Y016033D01*
X025633Y016192D02*
X026067Y016192D01*
X026020Y016350D02*
X025475Y016350D01*
X025316Y016509D02*
X026000Y016509D01*
X026000Y016667D02*
X025158Y016667D01*
X024999Y016826D02*
X026000Y016826D01*
X026000Y016984D02*
X024841Y016984D01*
X024682Y017143D02*
X026000Y017143D01*
X026000Y017301D02*
X022862Y017301D01*
X022905Y017460D02*
X026000Y017460D01*
X026000Y017618D02*
X022891Y017618D01*
X022893Y017612D02*
X022870Y017684D01*
X022836Y017752D01*
X022791Y017813D01*
X022738Y017866D01*
X022677Y017911D01*
X022609Y017945D01*
X022537Y017968D01*
X022463Y017980D01*
X022145Y017980D01*
X022145Y017520D01*
X022905Y017520D01*
X022905Y017538D01*
X022893Y017612D01*
X022817Y017777D02*
X026000Y017777D01*
X026000Y017935D02*
X022629Y017935D01*
X022145Y017935D02*
X022105Y017935D01*
X022105Y017777D02*
X022145Y017777D01*
X022145Y017618D02*
X022105Y017618D01*
X021621Y017935D02*
X021129Y017935D01*
X021317Y017777D02*
X021433Y017777D01*
X020645Y017777D02*
X020605Y017777D01*
X020605Y017935D02*
X020645Y017935D01*
X020645Y017618D02*
X020605Y017618D01*
X020121Y017935D02*
X019129Y017935D01*
X019109Y017945D02*
X019037Y017968D01*
X018963Y017980D01*
X018645Y017980D01*
X018645Y017520D01*
X019405Y017520D01*
X019405Y017538D01*
X019393Y017612D01*
X019370Y017684D01*
X019336Y017752D01*
X019291Y017813D01*
X019238Y017866D01*
X019177Y017911D01*
X019109Y017945D01*
X019317Y017777D02*
X019933Y017777D01*
X019859Y017618D02*
X019391Y017618D01*
X019405Y017460D02*
X019845Y017460D01*
X019888Y017301D02*
X019362Y017301D01*
X018645Y017618D02*
X018605Y017618D01*
X018605Y017777D02*
X018645Y017777D01*
X018645Y017935D02*
X018605Y017935D01*
X018121Y017935D02*
X017629Y017935D01*
X017817Y017777D02*
X017933Y017777D01*
X017145Y017777D02*
X017105Y017777D01*
X017105Y017935D02*
X017145Y017935D01*
X017145Y017618D02*
X017105Y017618D01*
X016621Y017935D02*
X016465Y017935D01*
X016433Y017777D02*
X015817Y017777D01*
X015891Y017618D02*
X016359Y017618D01*
X016345Y017460D02*
X015905Y017460D01*
X015862Y017301D02*
X016388Y017301D01*
X016692Y018094D02*
X026000Y018094D01*
X026000Y018252D02*
X016824Y018252D01*
X016956Y018411D02*
X026000Y018411D01*
X026000Y018569D02*
X017089Y018569D01*
X017221Y018728D02*
X026000Y018728D01*
X026000Y018886D02*
X017360Y018886D01*
X017439Y019045D02*
X026000Y019045D01*
X026000Y019203D02*
X017482Y019203D01*
X017475Y019362D02*
X026000Y019362D01*
X026000Y019520D02*
X017475Y019520D01*
X017475Y019679D02*
X026000Y019679D01*
X025983Y019837D02*
X026000Y019837D01*
X025017Y019837D02*
X024983Y019837D01*
X024017Y019837D02*
X023983Y019837D01*
X023017Y019837D02*
X022983Y019837D01*
X022017Y019837D02*
X021983Y019837D01*
X021017Y019837D02*
X020983Y019837D01*
X020017Y019837D02*
X019983Y019837D01*
X019017Y019837D02*
X018983Y019837D01*
X018017Y019837D02*
X017475Y019837D01*
X017541Y019996D02*
X017859Y019996D01*
X017750Y019500D02*
X017750Y020875D01*
X017500Y021125D01*
X007625Y021125D01*
X007375Y020875D01*
X007375Y020000D01*
X006125Y018750D01*
X006150Y018728D02*
X004810Y018728D01*
X004810Y018586D02*
X004810Y020286D01*
X004805Y020299D01*
X004805Y020610D01*
X004682Y020906D01*
X004588Y021000D01*
X005553Y021000D01*
X005502Y020913D01*
X005429Y020641D01*
X005429Y020359D01*
X005502Y020087D01*
X005643Y019843D01*
X005843Y019643D01*
X006087Y019502D01*
X006359Y019429D01*
X006581Y019429D01*
X006410Y019259D01*
X006241Y019090D01*
X006150Y018869D01*
X006150Y013142D01*
X006067Y013225D01*
X005861Y013310D01*
X005781Y013310D01*
X005612Y013479D01*
X005551Y013505D01*
X005310Y013793D01*
X005310Y017911D01*
X005187Y018209D01*
X004810Y018586D01*
X004826Y018569D02*
X006150Y018569D01*
X006150Y018411D02*
X004985Y018411D01*
X005143Y018252D02*
X006150Y018252D01*
X006150Y018094D02*
X005234Y018094D01*
X005300Y017935D02*
X006150Y017935D01*
X006150Y017777D02*
X005310Y017777D01*
X005310Y017618D02*
X006150Y017618D01*
X006150Y017460D02*
X005310Y017460D01*
X005310Y017301D02*
X006150Y017301D01*
X006150Y017143D02*
X005310Y017143D01*
X005310Y016984D02*
X006150Y016984D01*
X006150Y016826D02*
X005310Y016826D01*
X005310Y016667D02*
X006150Y016667D01*
X006150Y016509D02*
X005310Y016509D01*
X005310Y016350D02*
X006150Y016350D01*
X006150Y016192D02*
X005310Y016192D01*
X005310Y016033D02*
X006150Y016033D01*
X006150Y015875D02*
X005310Y015875D01*
X005310Y015716D02*
X006150Y015716D01*
X006150Y015558D02*
X005310Y015558D01*
X005310Y015399D02*
X006150Y015399D01*
X006150Y015241D02*
X005310Y015241D01*
X005310Y015082D02*
X006150Y015082D01*
X006150Y014924D02*
X005310Y014924D01*
X005310Y014765D02*
X006150Y014765D01*
X006150Y014607D02*
X005310Y014607D01*
X005310Y014448D02*
X006150Y014448D01*
X006150Y014290D02*
X005310Y014290D01*
X005310Y014131D02*
X006150Y014131D01*
X006150Y013973D02*
X005310Y013973D01*
X005310Y013814D02*
X006150Y013814D01*
X006150Y013656D02*
X005425Y013656D01*
X005569Y013497D02*
X006150Y013497D01*
X006150Y013339D02*
X005753Y013339D01*
X006112Y013180D02*
X006150Y013180D01*
X005750Y012750D02*
X006000Y012500D01*
X006000Y008250D01*
X005750Y008000D01*
X003875Y008000D01*
X003625Y007750D01*
X003625Y006750D01*
X003875Y006500D01*
X005250Y006500D01*
X005500Y006250D01*
X005500Y005250D01*
X005250Y005000D01*
X003375Y005000D01*
X002515Y004938D02*
X001600Y004938D01*
X001611Y004835D02*
X001600Y004829D01*
X001600Y005171D01*
X001611Y005165D01*
X001683Y005142D01*
X001757Y005130D01*
X002075Y005130D01*
X002075Y005590D01*
X002115Y005590D01*
X002115Y005130D01*
X002433Y005130D01*
X002507Y005142D01*
X002515Y005144D01*
X002515Y004856D01*
X002507Y004858D01*
X002433Y004870D01*
X002115Y004870D01*
X002115Y004410D01*
X002075Y004410D01*
X002075Y004870D01*
X001757Y004870D01*
X001683Y004858D01*
X001611Y004835D01*
X001600Y005097D02*
X002515Y005097D01*
X002115Y005255D02*
X002075Y005255D01*
X002075Y005414D02*
X002115Y005414D01*
X002115Y005572D02*
X002075Y005572D01*
X002075Y004780D02*
X002115Y004780D01*
X002115Y004621D02*
X002075Y004621D01*
X002075Y004463D02*
X002115Y004463D01*
X002115Y004370D02*
X002115Y003910D01*
X002433Y003910D01*
X002507Y003922D01*
X002579Y003945D01*
X002647Y003979D01*
X002708Y004024D01*
X002761Y004077D01*
X002806Y004138D01*
X002840Y004206D01*
X002863Y004278D01*
X002866Y004293D01*
X002888Y004271D01*
X003204Y004140D01*
X003546Y004140D01*
X003862Y004271D01*
X003884Y004293D01*
X003887Y004278D01*
X003910Y004206D01*
X003944Y004138D01*
X003989Y004077D01*
X004042Y004024D01*
X004103Y003979D01*
X004171Y003945D01*
X004243Y003922D01*
X004317Y003910D01*
X004635Y003910D01*
X004635Y004370D01*
X004675Y004370D01*
X004675Y004410D01*
X005435Y004410D01*
X005435Y004428D01*
X005429Y004468D01*
X005525Y004508D01*
X005525Y003600D01*
X005381Y003600D01*
X005160Y003509D01*
X005041Y003390D01*
X004200Y003390D01*
X003913Y003271D01*
X003867Y003225D01*
X002883Y003225D01*
X002837Y003271D01*
X002550Y003390D01*
X001640Y003390D01*
X001600Y003373D01*
X001600Y003951D01*
X001611Y003945D01*
X001683Y003922D01*
X001757Y003910D01*
X002075Y003910D01*
X002075Y004370D01*
X002115Y004370D01*
X002115Y004304D02*
X002075Y004304D01*
X002075Y004146D02*
X002115Y004146D01*
X002115Y003987D02*
X002075Y003987D01*
X001600Y003829D02*
X005525Y003829D01*
X005525Y003987D02*
X005217Y003987D01*
X005207Y003979D02*
X005268Y004024D01*
X005321Y004077D01*
X005366Y004138D01*
X005400Y004206D01*
X005423Y004278D01*
X005435Y004352D01*
X005435Y004370D01*
X004675Y004370D01*
X004675Y003910D01*
X004993Y003910D01*
X005067Y003922D01*
X005139Y003945D01*
X005207Y003979D01*
X005369Y004146D02*
X005525Y004146D01*
X005525Y004304D02*
X005427Y004304D01*
X005429Y004463D02*
X005525Y004463D01*
X005525Y003670D02*
X001600Y003670D01*
X001600Y003512D02*
X005167Y003512D01*
X004675Y003987D02*
X004635Y003987D01*
X004635Y004146D02*
X004675Y004146D01*
X004675Y004304D02*
X004635Y004304D01*
X004093Y003987D02*
X002657Y003987D01*
X002809Y004146D02*
X003191Y004146D01*
X003559Y004146D02*
X003941Y004146D01*
X004111Y003353D02*
X002639Y003353D01*
X001000Y006974D02*
X001000Y021000D01*
X001412Y021000D01*
X001318Y020906D01*
X001195Y020610D01*
X001195Y019640D01*
X001318Y019344D01*
X001544Y019118D01*
X001840Y018995D01*
X001850Y018995D01*
X001813Y018959D01*
X001690Y018661D01*
X001690Y018196D01*
X001676Y018190D01*
X001442Y017956D01*
X001315Y017650D01*
X001315Y017319D01*
X001442Y017013D01*
X001676Y016778D01*
X001982Y016652D01*
X003018Y016652D01*
X003324Y016778D01*
X003558Y017013D01*
X003685Y017319D01*
X003685Y017419D01*
X003690Y017414D01*
X003690Y013537D01*
X003679Y013413D01*
X003690Y013377D01*
X003690Y013339D01*
X003738Y013224D01*
X003775Y013105D01*
X003799Y013076D01*
X003813Y013041D01*
X003901Y012953D01*
X004316Y012455D01*
X004396Y012263D01*
X004506Y012153D01*
X004388Y012104D01*
X004146Y011862D01*
X004015Y011546D01*
X004015Y011204D01*
X004146Y010888D01*
X004388Y010646D01*
X004704Y010515D01*
X005046Y010515D01*
X005362Y010646D01*
X005440Y010724D01*
X005440Y008560D01*
X004104Y008560D01*
X003979Y008862D01*
X003737Y009104D01*
X003421Y009235D01*
X003079Y009235D01*
X002763Y009104D01*
X002521Y008862D01*
X002390Y008546D01*
X002390Y008204D01*
X002404Y008170D01*
X001640Y008170D01*
X001353Y008051D01*
X001134Y007832D01*
X001015Y007545D01*
X001015Y007235D01*
X001087Y007061D01*
X001000Y006974D01*
X001000Y006999D02*
X001025Y006999D01*
X001000Y007157D02*
X001047Y007157D01*
X001015Y007316D02*
X001000Y007316D01*
X001000Y007474D02*
X001015Y007474D01*
X001000Y007633D02*
X001051Y007633D01*
X001000Y007791D02*
X001117Y007791D01*
X001000Y007950D02*
X001251Y007950D01*
X001490Y008108D02*
X001000Y008108D01*
X001000Y008267D02*
X002390Y008267D01*
X002390Y008425D02*
X001000Y008425D01*
X001000Y008584D02*
X002406Y008584D01*
X002471Y008742D02*
X001000Y008742D01*
X001000Y008901D02*
X002559Y008901D01*
X002718Y009059D02*
X001000Y009059D01*
X001000Y009218D02*
X003037Y009218D01*
X003463Y009218D02*
X005440Y009218D01*
X005440Y009376D02*
X001000Y009376D01*
X001000Y009535D02*
X005440Y009535D01*
X005440Y009693D02*
X001000Y009693D01*
X001000Y009852D02*
X005440Y009852D01*
X005440Y010010D02*
X001000Y010010D01*
X001000Y010169D02*
X005440Y010169D01*
X005440Y010327D02*
X001000Y010327D01*
X001000Y010486D02*
X005440Y010486D01*
X005440Y010644D02*
X005358Y010644D01*
X004392Y010644D02*
X001000Y010644D01*
X001000Y010803D02*
X004231Y010803D01*
X004116Y010961D02*
X001000Y010961D01*
X001000Y011120D02*
X004050Y011120D01*
X004015Y011278D02*
X001000Y011278D01*
X001000Y011437D02*
X004015Y011437D01*
X004035Y011595D02*
X001000Y011595D01*
X001000Y011754D02*
X004101Y011754D01*
X004196Y011912D02*
X001000Y011912D01*
X001000Y012071D02*
X004354Y012071D01*
X004430Y012229D02*
X001000Y012229D01*
X001000Y012388D02*
X004344Y012388D01*
X004241Y012546D02*
X001000Y012546D01*
X001000Y012705D02*
X004109Y012705D01*
X003976Y012863D02*
X001000Y012863D01*
X001000Y013022D02*
X003833Y013022D01*
X003751Y013180D02*
X001000Y013180D01*
X001000Y013339D02*
X003690Y013339D01*
X003686Y013497D02*
X001000Y013497D01*
X001000Y013656D02*
X003690Y013656D01*
X003690Y013814D02*
X001000Y013814D01*
X001000Y013973D02*
X003690Y013973D01*
X003690Y014131D02*
X001000Y014131D01*
X001000Y014290D02*
X003690Y014290D01*
X003690Y014448D02*
X001000Y014448D01*
X001000Y014607D02*
X003690Y014607D01*
X003690Y014765D02*
X001000Y014765D01*
X001000Y014924D02*
X003690Y014924D01*
X003690Y015082D02*
X003161Y015082D01*
X003132Y015060D02*
X003199Y015110D01*
X003259Y015169D01*
X003308Y015237D01*
X003346Y015311D01*
X003372Y015391D01*
X003385Y015474D01*
X003385Y015478D01*
X002538Y015478D01*
X002538Y015553D01*
X003385Y015553D01*
X003385Y015558D01*
X003372Y015640D01*
X003346Y015720D01*
X003308Y015795D01*
X003259Y015863D01*
X003199Y015922D01*
X003132Y015971D01*
X003057Y016009D01*
X002977Y016035D01*
X002894Y016048D01*
X002538Y016048D01*
X002538Y015553D01*
X002462Y015553D01*
X002462Y015478D01*
X001615Y015478D01*
X001615Y015474D01*
X001628Y015391D01*
X001654Y015311D01*
X001692Y015237D01*
X001741Y015169D01*
X001801Y015110D01*
X001868Y015060D01*
X001943Y015022D01*
X002023Y014996D01*
X002106Y014983D01*
X002462Y014983D01*
X002462Y015478D01*
X002538Y015478D01*
X002538Y014983D01*
X002894Y014983D01*
X002977Y014996D01*
X003057Y015022D01*
X003132Y015060D01*
X003310Y015241D02*
X003690Y015241D01*
X003690Y015399D02*
X003373Y015399D01*
X003385Y015558D02*
X003690Y015558D01*
X003690Y015716D02*
X003347Y015716D01*
X003247Y015875D02*
X003690Y015875D01*
X003690Y016033D02*
X002984Y016033D01*
X002538Y016033D02*
X002462Y016033D01*
X002462Y016048D02*
X002106Y016048D01*
X002023Y016035D01*
X001943Y016009D01*
X001868Y015971D01*
X001801Y015922D01*
X001741Y015863D01*
X001692Y015795D01*
X001654Y015720D01*
X001628Y015640D01*
X001615Y015558D01*
X001615Y015553D01*
X002462Y015553D01*
X002462Y016048D01*
X002462Y015875D02*
X002538Y015875D01*
X002538Y015716D02*
X002462Y015716D01*
X002462Y015558D02*
X002538Y015558D01*
X002538Y015399D02*
X002462Y015399D01*
X002462Y015241D02*
X002538Y015241D01*
X002538Y015082D02*
X002462Y015082D01*
X001839Y015082D02*
X001000Y015082D01*
X001000Y015241D02*
X001690Y015241D01*
X001627Y015399D02*
X001000Y015399D01*
X001000Y015558D02*
X001615Y015558D01*
X001653Y015716D02*
X001000Y015716D01*
X001000Y015875D02*
X001753Y015875D01*
X002016Y016033D02*
X001000Y016033D01*
X001000Y016192D02*
X003690Y016192D01*
X003690Y016350D02*
X001000Y016350D01*
X001000Y016509D02*
X003690Y016509D01*
X003690Y016667D02*
X003055Y016667D01*
X003371Y016826D02*
X003690Y016826D01*
X003690Y016984D02*
X003530Y016984D01*
X003612Y017143D02*
X003690Y017143D01*
X003678Y017301D02*
X003690Y017301D01*
X001945Y016667D02*
X001000Y016667D01*
X001000Y016826D02*
X001629Y016826D01*
X001470Y016984D02*
X001000Y016984D01*
X001000Y017143D02*
X001388Y017143D01*
X001322Y017301D02*
X001000Y017301D01*
X001000Y017460D02*
X001315Y017460D01*
X001315Y017618D02*
X001000Y017618D01*
X001000Y017777D02*
X001367Y017777D01*
X001433Y017935D02*
X001000Y017935D01*
X001000Y018094D02*
X001579Y018094D01*
X001690Y018252D02*
X001000Y018252D01*
X001000Y018411D02*
X001690Y018411D01*
X001690Y018569D02*
X001000Y018569D01*
X001000Y018728D02*
X001718Y018728D01*
X001783Y018886D02*
X001000Y018886D01*
X001000Y019045D02*
X001721Y019045D01*
X001459Y019203D02*
X001000Y019203D01*
X001000Y019362D02*
X001311Y019362D01*
X001245Y019520D02*
X001000Y019520D01*
X001000Y019679D02*
X001195Y019679D01*
X001195Y019837D02*
X001000Y019837D01*
X001000Y019996D02*
X001195Y019996D01*
X001195Y020154D02*
X001000Y020154D01*
X001000Y020313D02*
X001195Y020313D01*
X001195Y020471D02*
X001000Y020471D01*
X001000Y020630D02*
X001203Y020630D01*
X001269Y020788D02*
X001000Y020788D01*
X001000Y020947D02*
X001359Y020947D01*
X004641Y020947D02*
X005522Y020947D01*
X005469Y020788D02*
X004731Y020788D01*
X004797Y020630D02*
X005429Y020630D01*
X005429Y020471D02*
X004805Y020471D01*
X004805Y020313D02*
X005442Y020313D01*
X005484Y020154D02*
X004810Y020154D01*
X004810Y019996D02*
X005555Y019996D01*
X005649Y019837D02*
X004810Y019837D01*
X004810Y019679D02*
X005807Y019679D01*
X006056Y019520D02*
X004810Y019520D01*
X004810Y019362D02*
X006513Y019362D01*
X006355Y019203D02*
X004810Y019203D01*
X004810Y019045D02*
X006223Y019045D01*
X006157Y018886D02*
X004810Y018886D01*
X009600Y015241D02*
X009807Y015241D01*
X009612Y015082D02*
X009600Y015082D01*
X005750Y012750D02*
X005125Y012750D01*
X005440Y009059D02*
X003782Y009059D01*
X003941Y008901D02*
X005440Y008901D01*
X005440Y008742D02*
X004029Y008742D01*
X004094Y008584D02*
X005440Y008584D01*
X012478Y008425D02*
X013525Y008425D01*
X013525Y008584D02*
X012487Y008584D01*
X012637Y008267D02*
X013572Y008267D01*
X013668Y008108D02*
X012717Y008108D01*
X012780Y007950D02*
X012976Y007950D01*
X012817Y007791D02*
X012780Y007791D01*
X014125Y011875D02*
X016063Y011875D01*
X016188Y012000D01*
X016250Y012000D01*
X016000Y012546D02*
X014670Y012546D01*
X018200Y012863D02*
X024240Y012863D01*
X024240Y012705D02*
X018531Y012705D01*
X018690Y012546D02*
X024240Y012546D01*
X024240Y012388D02*
X018785Y012388D01*
X018851Y012229D02*
X024240Y012229D01*
X024240Y012071D02*
X024178Y012071D01*
X023822Y012071D02*
X018874Y012071D01*
X018874Y011912D02*
X023509Y011912D01*
X023350Y011754D02*
X018844Y011754D01*
X018778Y011595D02*
X023278Y011595D01*
X023220Y011437D02*
X018765Y011437D01*
X018831Y011278D02*
X023220Y011278D01*
X023220Y011120D02*
X018874Y011120D01*
X018874Y010961D02*
X023220Y010961D01*
X023220Y010803D02*
X018864Y010803D01*
X018798Y010644D02*
X023220Y010644D01*
X023245Y010486D02*
X018721Y010486D01*
X018563Y010327D02*
X023310Y010327D01*
X023308Y010169D02*
X018548Y010169D01*
X021468Y009059D02*
X023220Y009059D01*
X023280Y008901D02*
X021698Y008901D01*
X021759Y008840D02*
X021759Y008840D01*
X021857Y008742D02*
X023355Y008742D01*
X023513Y008584D02*
X022015Y008584D01*
X022442Y007157D02*
X023054Y007157D01*
X025980Y008901D02*
X026020Y008901D01*
X026020Y009059D02*
X025980Y009059D01*
X025980Y009218D02*
X026020Y009218D01*
X026020Y009376D02*
X025980Y009376D01*
X025980Y009535D02*
X026020Y009535D01*
X026020Y009693D02*
X025980Y009693D01*
X025980Y009852D02*
X026020Y009852D01*
X026020Y010010D02*
X025980Y010010D01*
X025980Y010169D02*
X026020Y010169D01*
X026020Y010327D02*
X025980Y010327D01*
X025980Y010486D02*
X026020Y010486D01*
X026020Y010644D02*
X025980Y010644D01*
X025980Y010803D02*
X026020Y010803D01*
X026020Y010961D02*
X025980Y010961D01*
X025980Y011120D02*
X026020Y011120D01*
X026020Y011278D02*
X025980Y011278D01*
X025980Y011437D02*
X026020Y011437D01*
X026020Y011595D02*
X025980Y011595D01*
X015105Y017480D02*
X013645Y017480D01*
X013645Y017520D01*
X014405Y017520D01*
X015105Y017520D01*
X015105Y017480D01*
X013750Y019750D02*
X013875Y020000D01*
X013900Y020500D02*
X013875Y020500D01*
X014875Y020500D02*
X014900Y020500D01*
X015875Y020500D02*
X015900Y020500D01*
X016875Y020500D02*
X016900Y020500D01*
X015098Y002244D02*
X014902Y002244D01*
D22*
X005125Y012750D02*
X004500Y013500D01*
X004500Y017750D01*
X004000Y018250D01*
X004000Y020125D01*
X003000Y020125D02*
X003000Y019000D01*
X002500Y018500D01*
X002500Y017484D01*
D23*
X011000Y015500D02*
X011000Y014500D01*
X011000Y013000D01*
X011000Y011000D01*
X011000Y009500D01*
X011000Y007500D01*
X011000Y006000D01*
X011000Y005125D01*
X010750Y004875D01*
X009500Y004875D01*
X011000Y015500D02*
X012000Y016500D01*
X013625Y016500D01*
X015125Y016500D01*
X017125Y016500D01*
X018625Y016500D01*
X020625Y016500D01*
X022125Y016500D01*
X024250Y016500D01*
X025000Y015750D01*
X025000Y009500D01*
M02*
