G75*
G70*
%OFA0B0*%
%FSLAX24Y24*%
%IPPOS*%
%LPD*%
%AMOC8*
5,1,8,0,0,1.08239X$1,22.5*
%
%ADD10C,0.0050*%
%ADD11C,0.0040*%
%ADD12C,0.0030*%
%ADD13C,0.0060*%
%ADD14C,0.0160*%
%ADD15C,0.0120*%
%ADD16C,0.0001*%
%ADD17C,0.0020*%
%ADD18C,0.0080*%
%ADD19C,0.0100*%
%ADD20R,0.0079X0.0079*%
%ADD21C,0.0000*%
%ADD22R,0.0160X0.0230*%
D10*
X000480Y002061D02*
X000480Y024108D01*
X033945Y024108D01*
X033945Y002061D01*
X000480Y002061D01*
X014050Y005657D02*
X014470Y005657D01*
X014864Y005657D02*
X015284Y005657D01*
X015677Y005657D02*
X016097Y005657D01*
X016491Y005657D02*
X016911Y005657D01*
X017305Y005657D02*
X017725Y005657D01*
X018118Y005657D02*
X018538Y005657D01*
X018932Y005657D02*
X019352Y005657D01*
X019746Y005657D02*
X020166Y005657D01*
X020559Y005657D02*
X020979Y005657D01*
X021373Y005657D02*
X021793Y005657D01*
X022187Y005657D02*
X022607Y005657D01*
X023000Y005657D02*
X023420Y005657D01*
X023814Y005657D02*
X024234Y005657D01*
X024628Y005657D02*
X025048Y005657D01*
X025441Y005657D02*
X025861Y005657D01*
X026255Y005657D02*
X026675Y005657D01*
X026675Y006062D01*
X026675Y006456D02*
X026675Y006861D01*
X026675Y007255D02*
X026675Y007660D01*
X026675Y008054D02*
X026675Y008460D01*
X026675Y008853D02*
X026675Y009259D01*
X026675Y009653D02*
X026675Y010058D01*
X026675Y010452D02*
X026675Y010857D01*
X026675Y011251D02*
X026675Y011657D01*
X026255Y011657D01*
X025861Y011657D02*
X025441Y011657D01*
X025048Y011657D02*
X024628Y011657D01*
X024234Y011657D02*
X023814Y011657D01*
X023420Y011657D02*
X023000Y011657D01*
X022607Y011657D02*
X022187Y011657D01*
X021793Y011657D02*
X021373Y011657D01*
X020979Y011657D02*
X020559Y011657D01*
X020166Y011657D02*
X019746Y011657D01*
X019352Y011657D02*
X018932Y011657D01*
X018538Y011657D02*
X018118Y011657D01*
X017725Y011657D02*
X017305Y011657D01*
X016911Y011657D02*
X016491Y011657D01*
X016097Y011657D02*
X015677Y011657D01*
X015284Y011657D02*
X014864Y011657D01*
X014470Y011657D02*
X014050Y011657D01*
X014050Y011251D01*
X014050Y010857D02*
X014050Y010452D01*
X014050Y010058D02*
X014050Y009653D01*
X014050Y009259D02*
X014050Y008853D01*
X014050Y008460D02*
X014050Y008054D01*
X014050Y007660D02*
X014050Y007255D01*
X014050Y006861D02*
X014050Y006456D01*
X014050Y006062D02*
X014050Y005657D01*
X008300Y012657D02*
X007925Y013032D01*
X007050Y013032D01*
X007050Y014657D01*
X008300Y014657D01*
X008300Y013032D01*
X007925Y013032D01*
X011950Y016157D02*
X012025Y016082D01*
X012175Y016082D01*
X012250Y016157D01*
X012250Y016457D01*
X012175Y016532D01*
X012025Y016532D01*
X011950Y016457D01*
X011950Y016157D01*
X012410Y016232D02*
X012636Y016232D01*
X012711Y016307D01*
X012711Y016457D01*
X012636Y016532D01*
X012410Y016532D01*
X012410Y016082D01*
X013021Y016082D02*
X013021Y016532D01*
X012871Y016532D02*
X013171Y016532D01*
X013331Y016532D02*
X013481Y016532D01*
X013406Y016532D02*
X013406Y016082D01*
X013331Y016082D02*
X013481Y016082D01*
X013638Y016157D02*
X013713Y016082D01*
X013863Y016082D01*
X013938Y016157D01*
X013938Y016457D01*
X013863Y016532D01*
X013713Y016532D01*
X013638Y016457D01*
X013638Y016157D01*
X014098Y016082D02*
X014098Y016532D01*
X014399Y016082D01*
X014399Y016532D01*
X014559Y016382D02*
X014709Y016532D01*
X014709Y016082D01*
X014559Y016082D02*
X014859Y016082D01*
X015325Y015907D02*
X015400Y015982D01*
X015550Y015982D01*
X015625Y015907D01*
X015625Y015607D01*
X015550Y015532D01*
X015400Y015532D01*
X015325Y015607D01*
X015325Y015907D01*
X015475Y015682D02*
X015625Y015532D01*
X015785Y015532D02*
X016086Y015532D01*
X015936Y015532D02*
X015936Y015982D01*
X015785Y015832D01*
X019638Y016432D02*
X019943Y016432D01*
X020045Y016533D01*
X020045Y016635D01*
X019943Y016737D01*
X019638Y016737D01*
X019943Y016737D02*
X020045Y016839D01*
X020045Y016940D01*
X019943Y017042D01*
X019638Y017042D01*
X019638Y016432D01*
X020245Y016432D02*
X020449Y016432D01*
X020347Y016432D02*
X020347Y017042D01*
X020245Y017042D01*
X020650Y016737D02*
X020752Y016839D01*
X020956Y016839D01*
X021057Y016737D01*
X021057Y016635D01*
X020650Y016635D01*
X020650Y016533D02*
X020650Y016737D01*
X020650Y016533D02*
X020752Y016432D01*
X020956Y016432D01*
X021258Y016533D02*
X021258Y016839D01*
X021258Y016533D02*
X021360Y016432D01*
X021665Y016432D01*
X021665Y016839D01*
X021866Y016737D02*
X021866Y016533D01*
X021968Y016432D01*
X022171Y016432D01*
X022273Y016635D02*
X021866Y016635D01*
X021866Y016737D02*
X021968Y016839D01*
X022171Y016839D01*
X022273Y016737D01*
X022273Y016635D01*
X022474Y016839D02*
X022677Y016839D01*
X022575Y016940D02*
X022575Y016533D01*
X022677Y016432D01*
X022980Y016533D02*
X023082Y016432D01*
X022980Y016533D02*
X022980Y016940D01*
X022879Y016839D02*
X023082Y016839D01*
X023284Y016737D02*
X023284Y016533D01*
X023386Y016432D01*
X023589Y016432D01*
X023691Y016635D02*
X023284Y016635D01*
X023284Y016737D02*
X023386Y016839D01*
X023589Y016839D01*
X023691Y016737D01*
X023691Y016635D01*
X023892Y016635D02*
X024197Y016635D01*
X024299Y016737D01*
X024299Y016940D01*
X024197Y017042D01*
X023892Y017042D01*
X023892Y016432D01*
X024499Y016432D02*
X024703Y016432D01*
X024601Y016432D02*
X024601Y016839D01*
X024499Y016839D01*
X024601Y017042D02*
X024601Y017144D01*
X021961Y014857D02*
X021961Y014407D01*
X021660Y014857D01*
X021660Y014407D01*
X021500Y014407D02*
X021500Y014707D01*
X021350Y014857D01*
X021200Y014707D01*
X021200Y014407D01*
X021200Y014632D02*
X021500Y014632D01*
X028803Y013215D02*
X029919Y012159D01*
X030819Y012159D01*
X030819Y011808D01*
X032071Y011808D01*
X032071Y012159D01*
X033644Y012159D01*
X033644Y012882D01*
X032759Y013624D01*
X032759Y015982D01*
X033644Y016882D01*
X033644Y017404D01*
X032071Y017404D01*
X032071Y017756D01*
X030779Y017756D01*
X030779Y017404D01*
X029979Y017404D01*
X028803Y016288D01*
X028803Y013215D01*
X001789Y021668D02*
X001789Y022396D01*
X001061Y022396D01*
X001061Y021667D01*
X001789Y021667D01*
X001337Y021023D02*
X001337Y020572D01*
X001487Y020572D02*
X001186Y020572D01*
X001186Y020873D02*
X001337Y021023D01*
X000874Y021549D02*
X000874Y023518D01*
X013945Y023518D01*
X013945Y021549D01*
X000874Y021549D01*
X011881Y021207D02*
X011881Y020907D01*
X011956Y020832D01*
X012106Y020832D01*
X012181Y020907D01*
X012181Y021207D01*
X012106Y021282D01*
X011956Y021282D01*
X011881Y021207D01*
X012341Y021282D02*
X012341Y020832D01*
X012341Y020982D02*
X012566Y020982D01*
X012641Y021057D01*
X012641Y021207D01*
X012566Y021282D01*
X012341Y021282D01*
X012801Y021282D02*
X013102Y021282D01*
X012952Y021282D02*
X012952Y020832D01*
X013262Y020832D02*
X013412Y020832D01*
X013337Y020832D02*
X013337Y021282D01*
X013262Y021282D02*
X013412Y021282D01*
X013569Y021207D02*
X013569Y020907D01*
X013644Y020832D01*
X013794Y020832D01*
X013869Y020907D01*
X013869Y021207D01*
X013794Y021282D01*
X013644Y021282D01*
X013569Y021207D01*
X014029Y021282D02*
X014029Y020832D01*
X014329Y020832D02*
X014029Y021282D01*
X014329Y021282D02*
X014329Y020832D01*
X014490Y020907D02*
X014790Y021207D01*
X014790Y020907D01*
X014715Y020832D01*
X014565Y020832D01*
X014490Y020907D01*
X014490Y021207D01*
X014565Y021282D01*
X014715Y021282D01*
X014790Y021207D01*
X015525Y023457D02*
X015450Y023532D01*
X015525Y023457D02*
X015675Y023457D01*
X015750Y023532D01*
X015750Y023607D01*
X015675Y023682D01*
X015525Y023682D01*
X015450Y023757D01*
X015450Y023832D01*
X015525Y023907D01*
X015675Y023907D01*
X015750Y023832D01*
X015910Y023907D02*
X016136Y023907D01*
X016211Y023832D01*
X016211Y023682D01*
X016136Y023607D01*
X015910Y023607D01*
X015910Y023457D02*
X015910Y023907D01*
X016371Y023907D02*
X016521Y023907D01*
X016446Y023907D02*
X016446Y023457D01*
X016371Y023457D02*
X016521Y023457D01*
X022200Y023407D02*
X022350Y023407D01*
X022275Y023407D02*
X022275Y023857D01*
X022200Y023857D02*
X022350Y023857D01*
X022507Y023782D02*
X022507Y023482D01*
X022582Y023407D01*
X022732Y023407D01*
X022807Y023482D01*
X022807Y023782D01*
X022732Y023857D01*
X022582Y023857D01*
X022507Y023782D01*
X022967Y023857D02*
X023193Y023857D01*
X023268Y023782D01*
X023268Y023707D01*
X023193Y023632D01*
X022967Y023632D01*
X022967Y023407D02*
X022967Y023857D01*
X023193Y023632D02*
X023268Y023557D01*
X023268Y023482D01*
X023193Y023407D01*
X022967Y023407D01*
X028325Y023407D02*
X028475Y023407D01*
X028400Y023407D02*
X028400Y023857D01*
X028325Y023857D02*
X028475Y023857D01*
X028632Y023782D02*
X028632Y023482D01*
X028707Y023407D01*
X028857Y023407D01*
X028932Y023482D01*
X028932Y023782D01*
X028857Y023857D01*
X028707Y023857D01*
X028632Y023782D01*
X029092Y023707D02*
X029242Y023857D01*
X029393Y023707D01*
X029393Y023407D01*
X029393Y023632D02*
X029092Y023632D01*
X029092Y023707D02*
X029092Y023407D01*
D11*
X021652Y021077D02*
X021652Y021017D01*
X021592Y020957D01*
X021412Y020957D01*
X021592Y020957D02*
X021652Y020897D01*
X021652Y020837D01*
X021592Y020777D01*
X021412Y020777D01*
X021412Y021137D01*
X021592Y021137D01*
X021652Y021077D01*
X021283Y020777D02*
X021043Y020777D01*
X021163Y020777D02*
X021163Y021137D01*
X021043Y021017D01*
X020915Y021137D02*
X020675Y021137D01*
X020675Y020777D01*
X020915Y020777D01*
X020795Y020957D02*
X020675Y020957D01*
X020547Y021077D02*
X020487Y021137D01*
X020367Y021137D01*
X020307Y021077D01*
X020307Y020837D01*
X020367Y020777D01*
X020487Y020777D01*
X020547Y020837D01*
X020179Y020716D02*
X019938Y020716D01*
X019750Y020837D02*
X019750Y021137D01*
X019690Y021137D02*
X019810Y021137D01*
X019750Y020837D02*
X019690Y020777D01*
X019630Y020777D01*
X019570Y020837D01*
X016512Y019431D02*
X016452Y019491D01*
X016332Y019491D01*
X016272Y019431D01*
X016144Y019491D02*
X016144Y019191D01*
X016084Y019131D01*
X015963Y019131D01*
X015903Y019191D01*
X015903Y019491D01*
X016272Y019131D02*
X016512Y019371D01*
X016512Y019431D01*
X016512Y019131D02*
X016272Y019131D01*
X018045Y016161D02*
X018301Y016161D01*
X018045Y016161D02*
X018045Y015217D01*
X018321Y014941D01*
X018320Y015079D02*
X018285Y015109D01*
X018253Y015141D01*
X018223Y015176D01*
X018196Y015214D01*
X018172Y015253D01*
X018152Y015294D01*
X018134Y015337D01*
X018121Y015381D01*
X018111Y015426D01*
X018104Y015471D01*
X018101Y015517D01*
X018102Y015563D01*
X018106Y015609D01*
X018115Y015654D01*
X018126Y015699D01*
X018142Y015742D01*
X018160Y015784D01*
X018183Y015825D01*
X018208Y015863D01*
X018236Y015900D01*
X018267Y015934D01*
X018301Y015965D01*
X019049Y015965D02*
X019083Y015933D01*
X019114Y015898D01*
X019143Y015861D01*
X019168Y015822D01*
X019190Y015781D01*
X019209Y015738D01*
X019224Y015693D01*
X019235Y015648D01*
X019243Y015602D01*
X019247Y015555D01*
X019247Y015509D01*
X019243Y015462D01*
X019235Y015416D01*
X019224Y015371D01*
X019209Y015326D01*
X019190Y015283D01*
X019168Y015242D01*
X019143Y015203D01*
X019114Y015166D01*
X019083Y015131D01*
X019049Y015099D01*
X019029Y014941D02*
X019305Y015217D01*
X019305Y016161D01*
X019049Y016161D01*
X019633Y016262D02*
X019633Y015802D01*
X019633Y015955D02*
X019863Y015955D01*
X019939Y016032D01*
X019939Y016185D01*
X019863Y016262D01*
X019633Y016262D01*
X019786Y015955D02*
X019939Y015802D01*
X020093Y015878D02*
X020093Y016032D01*
X020170Y016108D01*
X020323Y016108D01*
X020400Y016032D01*
X020400Y015955D01*
X020093Y015955D01*
X020093Y015878D02*
X020170Y015802D01*
X020323Y015802D01*
X020553Y016108D02*
X020707Y015802D01*
X020860Y016108D01*
X021014Y015878D02*
X021090Y015878D01*
X021090Y015802D01*
X021014Y015802D01*
X021014Y015878D01*
X021704Y015802D02*
X022011Y015802D01*
X021858Y015802D02*
X021858Y016262D01*
X021704Y016108D01*
X022165Y015878D02*
X022165Y015802D01*
X022241Y015802D01*
X022241Y015878D01*
X022165Y015878D01*
X022395Y015878D02*
X022702Y016185D01*
X022702Y015878D01*
X022625Y015802D01*
X022472Y015802D01*
X022395Y015878D01*
X022395Y016185D01*
X022472Y016262D01*
X022625Y016262D01*
X022702Y016185D01*
X022855Y015878D02*
X022932Y015878D01*
X022932Y015802D01*
X022855Y015802D01*
X022855Y015878D01*
X023085Y015878D02*
X023392Y016185D01*
X023392Y015878D01*
X023316Y015802D01*
X023162Y015802D01*
X023085Y015878D01*
X023085Y016185D01*
X023162Y016262D01*
X023316Y016262D01*
X023392Y016185D01*
X024343Y014399D02*
X024464Y014399D01*
X024524Y014339D01*
X024524Y014099D01*
X024464Y014039D01*
X024343Y014039D01*
X024283Y014099D01*
X024283Y014339D01*
X024343Y014399D01*
X024403Y014159D02*
X024524Y014039D01*
X024652Y014099D02*
X024712Y014039D01*
X024832Y014039D01*
X024892Y014099D01*
X024892Y014159D01*
X024832Y014219D01*
X024652Y014219D01*
X024652Y014099D01*
X024652Y014219D02*
X024772Y014339D01*
X024892Y014399D01*
X027338Y012362D02*
X027458Y012362D01*
X027398Y012362D02*
X027398Y012002D01*
X027338Y012002D02*
X027458Y012002D01*
X027583Y012062D02*
X027643Y012002D01*
X027764Y012002D01*
X027824Y012062D01*
X027952Y012002D02*
X028192Y012242D01*
X028192Y012302D01*
X028132Y012362D01*
X028012Y012362D01*
X027952Y012302D01*
X027824Y012302D02*
X027764Y012362D01*
X027643Y012362D01*
X027583Y012302D01*
X027583Y012062D01*
X027952Y012002D02*
X028192Y012002D01*
X029690Y010936D02*
X031580Y010936D01*
X031580Y010031D01*
X031580Y009283D02*
X031580Y008377D01*
X029690Y008377D01*
X029020Y009046D01*
X029020Y009283D01*
X029020Y010031D02*
X029020Y010267D01*
X029690Y010936D01*
X029139Y010031D02*
X029161Y010095D01*
X029188Y010158D01*
X029218Y010220D01*
X029251Y010279D01*
X029287Y010337D01*
X029327Y010393D01*
X029370Y010446D01*
X029415Y010497D01*
X029463Y010545D01*
X029514Y010590D01*
X029568Y010633D01*
X029624Y010672D01*
X029681Y010709D01*
X029741Y010742D01*
X029803Y010771D01*
X029866Y010797D01*
X029930Y010820D01*
X029996Y010839D01*
X030063Y010854D01*
X030130Y010865D01*
X030198Y010873D01*
X030266Y010877D01*
X030334Y010877D01*
X030402Y010873D01*
X030470Y010865D01*
X030537Y010854D01*
X030604Y010839D01*
X030670Y010820D01*
X030734Y010797D01*
X030797Y010771D01*
X030859Y010742D01*
X030919Y010709D01*
X030976Y010672D01*
X031032Y010633D01*
X031086Y010590D01*
X031137Y010545D01*
X031185Y010497D01*
X031230Y010446D01*
X031273Y010393D01*
X031313Y010337D01*
X031349Y010279D01*
X031382Y010220D01*
X031412Y010158D01*
X031439Y010095D01*
X031461Y010031D01*
X031461Y009283D02*
X031439Y009219D01*
X031412Y009156D01*
X031382Y009094D01*
X031349Y009035D01*
X031313Y008977D01*
X031273Y008921D01*
X031230Y008868D01*
X031185Y008817D01*
X031137Y008769D01*
X031086Y008724D01*
X031032Y008681D01*
X030976Y008642D01*
X030919Y008605D01*
X030859Y008572D01*
X030797Y008543D01*
X030734Y008517D01*
X030670Y008494D01*
X030604Y008475D01*
X030537Y008460D01*
X030470Y008449D01*
X030402Y008441D01*
X030334Y008437D01*
X030266Y008437D01*
X030198Y008441D01*
X030130Y008449D01*
X030063Y008460D01*
X029996Y008475D01*
X029930Y008494D01*
X029866Y008517D01*
X029803Y008543D01*
X029741Y008572D01*
X029681Y008605D01*
X029624Y008642D01*
X029568Y008681D01*
X029514Y008724D01*
X029463Y008769D01*
X029415Y008817D01*
X029370Y008868D01*
X029327Y008921D01*
X029287Y008977D01*
X029251Y009035D01*
X029218Y009094D01*
X029188Y009156D01*
X029161Y009219D01*
X029139Y009283D01*
X029240Y008536D02*
X028295Y008536D01*
X028295Y008281D01*
X028492Y008281D02*
X028524Y008315D01*
X028559Y008346D01*
X028596Y008375D01*
X028635Y008400D01*
X028676Y008422D01*
X028719Y008441D01*
X028764Y008456D01*
X028809Y008467D01*
X028855Y008475D01*
X028902Y008479D01*
X028948Y008479D01*
X028995Y008475D01*
X029041Y008467D01*
X029086Y008456D01*
X029131Y008441D01*
X029174Y008422D01*
X029215Y008400D01*
X029254Y008375D01*
X029291Y008346D01*
X029326Y008315D01*
X029358Y008281D01*
X029516Y008261D02*
X029240Y008536D01*
X029378Y007552D02*
X029348Y007517D01*
X029316Y007485D01*
X029281Y007455D01*
X029243Y007428D01*
X029204Y007404D01*
X029163Y007384D01*
X029120Y007366D01*
X029076Y007353D01*
X029031Y007343D01*
X028986Y007336D01*
X028940Y007333D01*
X028894Y007334D01*
X028848Y007338D01*
X028803Y007347D01*
X028758Y007358D01*
X028715Y007374D01*
X028673Y007392D01*
X028632Y007415D01*
X028594Y007440D01*
X028557Y007468D01*
X028523Y007499D01*
X028492Y007533D01*
X028295Y007533D02*
X028295Y007277D01*
X029240Y007277D01*
X029516Y007552D01*
X026989Y005512D02*
X026989Y005152D01*
X026869Y005152D02*
X027109Y005152D01*
X026869Y005392D02*
X026989Y005512D01*
X026621Y005512D02*
X026621Y005152D01*
X026501Y005152D02*
X026741Y005152D01*
X026501Y005392D02*
X026621Y005512D01*
X026373Y005452D02*
X026313Y005512D01*
X026193Y005512D01*
X026133Y005452D01*
X026133Y005392D01*
X026193Y005332D01*
X026313Y005332D01*
X026373Y005272D01*
X026373Y005212D01*
X026313Y005152D01*
X026193Y005152D01*
X026133Y005212D01*
X025672Y005199D02*
X025612Y005139D01*
X025492Y005139D01*
X025432Y005199D01*
X025672Y005439D01*
X025672Y005199D01*
X025672Y005439D02*
X025612Y005499D01*
X025492Y005499D01*
X025432Y005439D01*
X025432Y005199D01*
X025304Y005139D02*
X025063Y005139D01*
X025183Y005139D02*
X025183Y005499D01*
X025063Y005379D01*
X024935Y005439D02*
X024875Y005499D01*
X024755Y005499D01*
X024695Y005439D01*
X024695Y005379D01*
X024755Y005319D01*
X024875Y005319D01*
X024935Y005259D01*
X024935Y005199D01*
X024875Y005139D01*
X024755Y005139D01*
X024695Y005199D01*
X024054Y005199D02*
X024054Y005439D01*
X023993Y005499D01*
X023873Y005499D01*
X023813Y005439D01*
X023813Y005379D01*
X023873Y005319D01*
X024054Y005319D01*
X024054Y005199D02*
X023993Y005139D01*
X023873Y005139D01*
X023813Y005199D01*
X023685Y005199D02*
X023625Y005139D01*
X023505Y005139D01*
X023445Y005199D01*
X023505Y005319D02*
X023625Y005319D01*
X023685Y005259D01*
X023685Y005199D01*
X023505Y005319D02*
X023445Y005379D01*
X023445Y005439D01*
X023505Y005499D01*
X023625Y005499D01*
X023685Y005439D01*
X022741Y005452D02*
X022741Y005392D01*
X022681Y005332D01*
X022561Y005332D01*
X022501Y005392D01*
X022501Y005452D01*
X022561Y005512D01*
X022681Y005512D01*
X022741Y005452D01*
X022681Y005332D02*
X022741Y005272D01*
X022741Y005212D01*
X022681Y005152D01*
X022561Y005152D01*
X022501Y005212D01*
X022501Y005272D01*
X022561Y005332D01*
X022373Y005272D02*
X022373Y005212D01*
X022313Y005152D01*
X022193Y005152D01*
X022133Y005212D01*
X022193Y005332D02*
X022133Y005392D01*
X022133Y005452D01*
X022193Y005512D01*
X022313Y005512D01*
X022373Y005452D01*
X022313Y005332D02*
X022373Y005272D01*
X022313Y005332D02*
X022193Y005332D01*
X021366Y005439D02*
X021126Y005199D01*
X021126Y005139D01*
X020998Y005199D02*
X020998Y005259D01*
X020938Y005319D01*
X020818Y005319D01*
X020758Y005379D01*
X020758Y005439D01*
X020818Y005499D01*
X020938Y005499D01*
X020998Y005439D01*
X021126Y005499D02*
X021366Y005499D01*
X021366Y005439D01*
X020998Y005199D02*
X020938Y005139D01*
X020818Y005139D01*
X020758Y005199D01*
X019929Y005212D02*
X019868Y005152D01*
X019748Y005152D01*
X019688Y005212D01*
X019688Y005332D01*
X019868Y005332D01*
X019929Y005272D01*
X019929Y005212D01*
X019808Y005452D02*
X019688Y005332D01*
X019560Y005272D02*
X019560Y005212D01*
X019500Y005152D01*
X019380Y005152D01*
X019320Y005212D01*
X019380Y005332D02*
X019500Y005332D01*
X019560Y005272D01*
X019560Y005452D02*
X019500Y005512D01*
X019380Y005512D01*
X019320Y005452D01*
X019320Y005392D01*
X019380Y005332D01*
X019808Y005452D02*
X019929Y005512D01*
X018705Y004517D02*
X018705Y002627D01*
X017799Y002627D01*
X017051Y002627D02*
X016145Y002627D01*
X016145Y004517D01*
X016815Y005186D01*
X017051Y005186D01*
X017799Y005186D02*
X018035Y005186D01*
X018705Y004517D01*
X017799Y005068D02*
X017863Y005046D01*
X017926Y005019D01*
X017988Y004989D01*
X018047Y004956D01*
X018105Y004920D01*
X018161Y004880D01*
X018214Y004837D01*
X018265Y004792D01*
X018313Y004744D01*
X018358Y004693D01*
X018401Y004639D01*
X018440Y004583D01*
X018477Y004526D01*
X018510Y004466D01*
X018539Y004404D01*
X018565Y004341D01*
X018588Y004277D01*
X018607Y004211D01*
X018622Y004144D01*
X018633Y004077D01*
X018641Y004009D01*
X018645Y003941D01*
X018645Y003873D01*
X018641Y003805D01*
X018633Y003737D01*
X018622Y003670D01*
X018607Y003603D01*
X018588Y003537D01*
X018565Y003473D01*
X018539Y003410D01*
X018510Y003348D01*
X018477Y003288D01*
X018440Y003231D01*
X018401Y003175D01*
X018358Y003121D01*
X018313Y003070D01*
X018265Y003022D01*
X018214Y002977D01*
X018161Y002934D01*
X018105Y002894D01*
X018047Y002858D01*
X017988Y002825D01*
X017926Y002795D01*
X017863Y002768D01*
X017799Y002746D01*
X017051Y002746D02*
X016987Y002768D01*
X016924Y002795D01*
X016862Y002825D01*
X016803Y002858D01*
X016745Y002894D01*
X016689Y002934D01*
X016636Y002977D01*
X016585Y003022D01*
X016537Y003070D01*
X016492Y003121D01*
X016449Y003175D01*
X016410Y003231D01*
X016373Y003288D01*
X016340Y003348D01*
X016311Y003410D01*
X016285Y003473D01*
X016262Y003537D01*
X016243Y003603D01*
X016228Y003670D01*
X016217Y003737D01*
X016209Y003805D01*
X016205Y003873D01*
X016205Y003941D01*
X016209Y004009D01*
X016217Y004077D01*
X016228Y004144D01*
X016243Y004211D01*
X016262Y004277D01*
X016285Y004341D01*
X016311Y004404D01*
X016340Y004466D01*
X016373Y004526D01*
X016410Y004583D01*
X016449Y004639D01*
X016492Y004693D01*
X016537Y004744D01*
X016585Y004792D01*
X016636Y004837D01*
X016689Y004880D01*
X016745Y004920D01*
X016803Y004956D01*
X016862Y004989D01*
X016924Y005019D01*
X016987Y005046D01*
X017051Y005068D01*
X015429Y005212D02*
X015368Y005152D01*
X015248Y005152D01*
X015188Y005212D01*
X015188Y005332D02*
X015308Y005392D01*
X015368Y005392D01*
X015429Y005332D01*
X015429Y005212D01*
X015188Y005332D02*
X015188Y005512D01*
X015429Y005512D01*
X015060Y005452D02*
X015000Y005512D01*
X014880Y005512D01*
X014820Y005452D01*
X014820Y005392D01*
X014880Y005332D01*
X015000Y005332D01*
X015060Y005272D01*
X015060Y005212D01*
X015000Y005152D01*
X014880Y005152D01*
X014820Y005212D01*
X014054Y005332D02*
X013813Y005332D01*
X013993Y005512D01*
X013993Y005152D01*
X013685Y005212D02*
X013625Y005152D01*
X013505Y005152D01*
X013445Y005212D01*
X013505Y005332D02*
X013625Y005332D01*
X013685Y005272D01*
X013685Y005212D01*
X013505Y005332D02*
X013445Y005392D01*
X013445Y005452D01*
X013505Y005512D01*
X013625Y005512D01*
X013685Y005452D01*
X012679Y005452D02*
X012679Y005392D01*
X012618Y005332D01*
X012679Y005272D01*
X012679Y005212D01*
X012618Y005152D01*
X012498Y005152D01*
X012438Y005212D01*
X012310Y005212D02*
X012250Y005152D01*
X012130Y005152D01*
X012070Y005212D01*
X012130Y005332D02*
X012250Y005332D01*
X012310Y005272D01*
X012310Y005212D01*
X012130Y005332D02*
X012070Y005392D01*
X012070Y005452D01*
X012130Y005512D01*
X012250Y005512D01*
X012310Y005452D01*
X012438Y005452D02*
X012498Y005512D01*
X012618Y005512D01*
X012679Y005452D01*
X012618Y005332D02*
X012558Y005332D01*
X011304Y005392D02*
X011304Y005452D01*
X011243Y005512D01*
X011123Y005512D01*
X011063Y005452D01*
X010935Y005452D02*
X010875Y005512D01*
X010755Y005512D01*
X010695Y005452D01*
X010695Y005392D01*
X010755Y005332D01*
X010875Y005332D01*
X010935Y005272D01*
X010935Y005212D01*
X010875Y005152D01*
X010755Y005152D01*
X010695Y005212D01*
X011063Y005152D02*
X011304Y005392D01*
X011304Y005152D02*
X011063Y005152D01*
X009991Y005152D02*
X009751Y005152D01*
X009871Y005152D02*
X009871Y005512D01*
X009751Y005392D01*
X009623Y005452D02*
X009563Y005512D01*
X009443Y005512D01*
X009383Y005452D01*
X009383Y005392D01*
X009443Y005332D01*
X009563Y005332D01*
X009623Y005272D01*
X009623Y005212D01*
X009563Y005152D01*
X009443Y005152D01*
X009383Y005212D01*
X008616Y005212D02*
X008556Y005152D01*
X008436Y005152D01*
X008376Y005212D01*
X008616Y005452D01*
X008616Y005212D01*
X008616Y005452D02*
X008556Y005512D01*
X008436Y005512D01*
X008376Y005452D01*
X008376Y005212D01*
X008248Y005212D02*
X008188Y005152D01*
X008068Y005152D01*
X008008Y005212D01*
X008068Y005332D02*
X008188Y005332D01*
X008248Y005272D01*
X008248Y005212D01*
X008068Y005332D02*
X008008Y005392D01*
X008008Y005452D01*
X008068Y005512D01*
X008188Y005512D01*
X008248Y005452D01*
X007064Y004237D02*
X007124Y004177D01*
X007124Y004117D01*
X007064Y004057D01*
X007124Y003997D01*
X007124Y003937D01*
X007064Y003877D01*
X006944Y003877D01*
X006884Y003937D01*
X006756Y003937D02*
X006696Y003877D01*
X006576Y003877D01*
X006516Y003937D01*
X006516Y004177D01*
X006576Y004237D01*
X006696Y004237D01*
X006756Y004177D01*
X006884Y004177D02*
X006944Y004237D01*
X007064Y004237D01*
X007064Y004057D02*
X007004Y004057D01*
X006390Y004237D02*
X006270Y004237D01*
X006330Y004237D02*
X006330Y003877D01*
X006270Y003877D02*
X006390Y003877D01*
X007164Y006792D02*
X004841Y006792D01*
X003936Y007698D01*
X003936Y008013D01*
X003554Y008012D02*
X003247Y008012D01*
X003247Y007552D01*
X003554Y007552D01*
X003400Y007782D02*
X003247Y007782D01*
X003093Y007705D02*
X003093Y007628D01*
X003017Y007552D01*
X002863Y007552D01*
X002787Y007628D01*
X002863Y007782D02*
X003017Y007782D01*
X003093Y007705D01*
X003093Y007935D02*
X003017Y008012D01*
X002863Y008012D01*
X002787Y007935D01*
X002787Y007858D01*
X002863Y007782D01*
X002633Y007552D02*
X002633Y008012D01*
X002326Y008012D02*
X002326Y007552D01*
X002173Y007552D02*
X001866Y007552D01*
X001866Y008012D01*
X002173Y008012D01*
X002326Y008012D02*
X002633Y007552D01*
X002019Y007782D02*
X001866Y007782D01*
X001712Y007705D02*
X001712Y007628D01*
X001636Y007552D01*
X001482Y007552D01*
X001405Y007628D01*
X001252Y007552D02*
X001098Y007705D01*
X001175Y007705D02*
X000945Y007705D01*
X000945Y007552D02*
X000945Y008012D01*
X001175Y008012D01*
X001252Y007935D01*
X001252Y007782D01*
X001175Y007705D01*
X001405Y007858D02*
X001482Y007782D01*
X001636Y007782D01*
X001712Y007705D01*
X001712Y007935D02*
X001636Y008012D01*
X001482Y008012D01*
X001405Y007935D01*
X001405Y007858D01*
X003936Y008800D02*
X003936Y009115D01*
X004841Y010021D01*
X007164Y010021D01*
X007164Y008800D01*
X007164Y008013D02*
X007164Y006792D01*
X007066Y008761D02*
X007046Y008838D01*
X007023Y008913D01*
X006995Y008987D01*
X006964Y009059D01*
X006929Y009130D01*
X006891Y009199D01*
X006849Y009265D01*
X006804Y009330D01*
X006756Y009392D01*
X006704Y009452D01*
X006650Y009509D01*
X006593Y009563D01*
X006533Y009615D01*
X006471Y009663D01*
X006406Y009708D01*
X006339Y009749D01*
X006270Y009787D01*
X006199Y009822D01*
X006127Y009853D01*
X006053Y009881D01*
X005978Y009904D01*
X005902Y009924D01*
X005824Y009940D01*
X005746Y009952D01*
X005668Y009960D01*
X005589Y009964D01*
X005511Y009964D01*
X005432Y009960D01*
X005354Y009952D01*
X005276Y009940D01*
X005198Y009924D01*
X005122Y009904D01*
X005047Y009881D01*
X004973Y009853D01*
X004901Y009822D01*
X004830Y009787D01*
X004761Y009749D01*
X004694Y009708D01*
X004629Y009663D01*
X004567Y009615D01*
X004507Y009563D01*
X004450Y009509D01*
X004396Y009452D01*
X004344Y009392D01*
X004296Y009330D01*
X004251Y009265D01*
X004209Y009199D01*
X004171Y009130D01*
X004136Y009059D01*
X004105Y008987D01*
X004077Y008913D01*
X004054Y008838D01*
X004034Y008761D01*
X004034Y008053D02*
X004054Y007976D01*
X004077Y007901D01*
X004105Y007827D01*
X004136Y007755D01*
X004171Y007684D01*
X004209Y007615D01*
X004251Y007549D01*
X004296Y007484D01*
X004344Y007422D01*
X004396Y007362D01*
X004450Y007305D01*
X004507Y007251D01*
X004567Y007199D01*
X004629Y007151D01*
X004694Y007106D01*
X004761Y007065D01*
X004830Y007027D01*
X004901Y006992D01*
X004973Y006961D01*
X005047Y006933D01*
X005122Y006910D01*
X005198Y006890D01*
X005276Y006874D01*
X005354Y006862D01*
X005432Y006854D01*
X005511Y006850D01*
X005589Y006850D01*
X005668Y006854D01*
X005746Y006862D01*
X005824Y006874D01*
X005902Y006890D01*
X005978Y006910D01*
X006053Y006933D01*
X006127Y006961D01*
X006199Y006992D01*
X006270Y007027D01*
X006339Y007065D01*
X006406Y007106D01*
X006471Y007151D01*
X006533Y007199D01*
X006593Y007251D01*
X006650Y007305D01*
X006704Y007362D01*
X006756Y007422D01*
X006804Y007484D01*
X006849Y007549D01*
X006891Y007615D01*
X006929Y007684D01*
X006964Y007755D01*
X006995Y007827D01*
X007023Y007901D01*
X007046Y007976D01*
X007066Y008053D01*
X010695Y007827D02*
X010695Y007767D01*
X010755Y007707D01*
X010875Y007707D01*
X010935Y007647D01*
X010935Y007587D01*
X010875Y007527D01*
X010755Y007527D01*
X010695Y007587D01*
X010695Y007827D02*
X010755Y007887D01*
X010875Y007887D01*
X010935Y007827D01*
X011063Y007887D02*
X011304Y007527D01*
X011063Y007527D02*
X011304Y007887D01*
X011304Y006512D02*
X011304Y006452D01*
X011183Y006332D01*
X011183Y006152D01*
X011183Y006332D02*
X011063Y006452D01*
X011063Y006512D01*
X010935Y006452D02*
X010875Y006512D01*
X010755Y006512D01*
X010695Y006452D01*
X010695Y006392D01*
X010755Y006332D01*
X010875Y006332D01*
X010935Y006272D01*
X010935Y006212D01*
X010875Y006152D01*
X010755Y006152D01*
X010695Y006212D01*
X008859Y017697D02*
X008618Y017697D01*
X008738Y017697D02*
X008738Y018058D01*
X008618Y017938D01*
X008490Y018058D02*
X008490Y017757D01*
X008430Y017697D01*
X008310Y017697D01*
X008250Y017757D01*
X008250Y018058D01*
X004664Y018823D02*
X003759Y017917D01*
X001436Y017917D01*
X001436Y019138D01*
X001436Y019925D02*
X001436Y021146D01*
X003759Y021146D01*
X004664Y020240D01*
X004664Y019925D01*
X004664Y019138D02*
X004664Y018823D01*
X004566Y019178D02*
X004546Y019101D01*
X004523Y019026D01*
X004495Y018952D01*
X004464Y018880D01*
X004429Y018809D01*
X004391Y018740D01*
X004349Y018674D01*
X004304Y018609D01*
X004256Y018547D01*
X004204Y018487D01*
X004150Y018430D01*
X004093Y018376D01*
X004033Y018324D01*
X003971Y018276D01*
X003906Y018231D01*
X003839Y018190D01*
X003770Y018152D01*
X003699Y018117D01*
X003627Y018086D01*
X003553Y018058D01*
X003478Y018035D01*
X003402Y018015D01*
X003324Y017999D01*
X003246Y017987D01*
X003168Y017979D01*
X003089Y017975D01*
X003011Y017975D01*
X002932Y017979D01*
X002854Y017987D01*
X002776Y017999D01*
X002698Y018015D01*
X002622Y018035D01*
X002547Y018058D01*
X002473Y018086D01*
X002401Y018117D01*
X002330Y018152D01*
X002261Y018190D01*
X002194Y018231D01*
X002129Y018276D01*
X002067Y018324D01*
X002007Y018376D01*
X001950Y018430D01*
X001896Y018487D01*
X001844Y018547D01*
X001796Y018609D01*
X001751Y018674D01*
X001709Y018740D01*
X001671Y018809D01*
X001636Y018880D01*
X001605Y018952D01*
X001577Y019026D01*
X001554Y019101D01*
X001534Y019178D01*
X001534Y019886D02*
X001554Y019963D01*
X001577Y020038D01*
X001605Y020112D01*
X001636Y020184D01*
X001671Y020255D01*
X001709Y020324D01*
X001751Y020390D01*
X001796Y020455D01*
X001844Y020517D01*
X001896Y020577D01*
X001950Y020634D01*
X002007Y020688D01*
X002067Y020740D01*
X002129Y020788D01*
X002194Y020833D01*
X002261Y020874D01*
X002330Y020912D01*
X002401Y020947D01*
X002473Y020978D01*
X002547Y021006D01*
X002622Y021029D01*
X002698Y021049D01*
X002776Y021065D01*
X002854Y021077D01*
X002932Y021085D01*
X003011Y021089D01*
X003089Y021089D01*
X003168Y021085D01*
X003246Y021077D01*
X003324Y021065D01*
X003402Y021049D01*
X003478Y021029D01*
X003553Y021006D01*
X003627Y020978D01*
X003699Y020947D01*
X003770Y020912D01*
X003839Y020874D01*
X003906Y020833D01*
X003971Y020788D01*
X004033Y020740D01*
X004093Y020688D01*
X004150Y020634D01*
X004204Y020577D01*
X004256Y020517D01*
X004304Y020455D01*
X004349Y020390D01*
X004391Y020324D01*
X004429Y020255D01*
X004464Y020184D01*
X004495Y020112D01*
X004523Y020038D01*
X004546Y019963D01*
X004566Y019886D01*
X027795Y005411D02*
X027795Y004467D01*
X028071Y004191D01*
X028070Y004329D02*
X028035Y004359D01*
X028003Y004391D01*
X027973Y004426D01*
X027946Y004464D01*
X027922Y004503D01*
X027902Y004544D01*
X027884Y004587D01*
X027871Y004631D01*
X027861Y004676D01*
X027854Y004721D01*
X027851Y004767D01*
X027852Y004813D01*
X027856Y004859D01*
X027865Y004904D01*
X027876Y004949D01*
X027892Y004992D01*
X027910Y005034D01*
X027933Y005075D01*
X027958Y005113D01*
X027986Y005150D01*
X028017Y005184D01*
X028051Y005215D01*
X028051Y005411D02*
X027795Y005411D01*
X028799Y005215D02*
X028833Y005183D01*
X028864Y005148D01*
X028893Y005111D01*
X028918Y005072D01*
X028940Y005031D01*
X028959Y004988D01*
X028974Y004943D01*
X028985Y004898D01*
X028993Y004852D01*
X028997Y004805D01*
X028997Y004759D01*
X028993Y004712D01*
X028985Y004666D01*
X028974Y004621D01*
X028959Y004576D01*
X028940Y004533D01*
X028918Y004492D01*
X028893Y004453D01*
X028864Y004416D01*
X028833Y004381D01*
X028799Y004349D01*
X028779Y004191D02*
X029055Y004467D01*
X029055Y005411D01*
X028799Y005411D01*
X029420Y005411D02*
X029676Y005411D01*
X029420Y005411D02*
X029420Y004467D01*
X029696Y004191D01*
X029695Y004329D02*
X029660Y004359D01*
X029628Y004391D01*
X029598Y004426D01*
X029571Y004464D01*
X029547Y004503D01*
X029527Y004544D01*
X029509Y004587D01*
X029496Y004631D01*
X029486Y004676D01*
X029479Y004721D01*
X029476Y004767D01*
X029477Y004813D01*
X029481Y004859D01*
X029490Y004904D01*
X029501Y004949D01*
X029517Y004992D01*
X029535Y005034D01*
X029558Y005075D01*
X029583Y005113D01*
X029611Y005150D01*
X029642Y005184D01*
X029676Y005215D01*
X030424Y005215D02*
X030458Y005183D01*
X030489Y005148D01*
X030518Y005111D01*
X030543Y005072D01*
X030565Y005031D01*
X030584Y004988D01*
X030599Y004943D01*
X030610Y004898D01*
X030618Y004852D01*
X030622Y004805D01*
X030622Y004759D01*
X030618Y004712D01*
X030610Y004666D01*
X030599Y004621D01*
X030584Y004576D01*
X030565Y004533D01*
X030543Y004492D01*
X030518Y004453D01*
X030489Y004416D01*
X030458Y004381D01*
X030424Y004349D01*
X030404Y004191D02*
X030680Y004467D01*
X030680Y005411D01*
X030424Y005411D01*
X033227Y013564D02*
X033534Y013564D01*
X033611Y013641D01*
X033611Y013794D01*
X033534Y013871D01*
X033611Y014025D02*
X033150Y014025D01*
X033150Y014255D01*
X033227Y014331D01*
X033380Y014331D01*
X033457Y014255D01*
X033457Y014025D01*
X033457Y014178D02*
X033611Y014331D01*
X033611Y014485D02*
X033611Y014792D01*
X033611Y014945D02*
X033304Y015252D01*
X033227Y015252D01*
X033150Y015176D01*
X033150Y015022D01*
X033227Y014945D01*
X033150Y014638D02*
X033611Y014638D01*
X033611Y014945D02*
X033611Y015252D01*
X033611Y015406D02*
X033304Y015713D01*
X033227Y015713D01*
X033150Y015636D01*
X033150Y015482D01*
X033227Y015406D01*
X033611Y015406D02*
X033611Y015713D01*
X033534Y015866D02*
X033227Y016173D01*
X033534Y016173D01*
X033611Y016096D01*
X033611Y015943D01*
X033534Y015866D01*
X033227Y015866D01*
X033150Y015943D01*
X033150Y016096D01*
X033227Y016173D01*
X033150Y014638D02*
X033304Y014485D01*
X033227Y013871D02*
X033150Y013794D01*
X033150Y013641D01*
X033227Y013564D01*
D12*
X032509Y010998D02*
X032509Y010628D01*
X032386Y010628D02*
X032633Y010628D01*
X032386Y010875D02*
X032509Y010998D01*
X032264Y010936D02*
X032264Y010875D01*
X032017Y010628D01*
X032264Y010628D01*
X031896Y010690D02*
X031834Y010628D01*
X031711Y010628D01*
X031649Y010690D01*
X031649Y010936D01*
X031711Y010998D01*
X031834Y010998D01*
X031896Y010936D01*
X032017Y010936D02*
X032079Y010998D01*
X032203Y010998D01*
X032264Y010936D01*
X033290Y010350D02*
X033351Y010412D01*
X033475Y010412D01*
X033537Y010350D01*
X033537Y010165D01*
X033660Y010165D02*
X033290Y010165D01*
X033290Y010350D01*
X033290Y010043D02*
X033660Y010043D01*
X033475Y010043D02*
X033475Y009797D01*
X033660Y009797D02*
X033290Y009797D01*
X033351Y009280D02*
X033290Y009218D01*
X033290Y009033D01*
X033660Y009033D01*
X033660Y009218D01*
X033598Y009280D01*
X033351Y009280D01*
X033290Y008912D02*
X033660Y008912D01*
X033290Y008665D01*
X033660Y008665D01*
X033598Y008543D02*
X033475Y008543D01*
X033475Y008420D01*
X033598Y008543D02*
X033660Y008482D01*
X033660Y008358D01*
X033598Y008297D01*
X033351Y008297D01*
X033290Y008358D01*
X033290Y008482D01*
X033351Y008543D01*
X032194Y008217D02*
X032070Y008155D01*
X031947Y008032D01*
X032132Y008032D01*
X032194Y007970D01*
X032194Y007908D01*
X032132Y007847D01*
X032008Y007847D01*
X031947Y007908D01*
X031947Y008032D01*
X031825Y008155D02*
X031764Y008217D01*
X031640Y008217D01*
X031578Y008155D01*
X031578Y007908D01*
X031640Y007847D01*
X031764Y007847D01*
X031825Y007908D01*
X031456Y007847D02*
X031333Y007847D01*
X031395Y007847D02*
X031395Y008217D01*
X031456Y008217D02*
X031333Y008217D01*
X030899Y008169D02*
X030899Y007922D01*
X030837Y007861D01*
X030714Y007861D01*
X030652Y007922D01*
X030899Y008169D01*
X030837Y008231D01*
X030714Y008231D01*
X030652Y008169D01*
X030652Y007922D01*
X030531Y007861D02*
X030284Y007861D01*
X030531Y008107D01*
X030531Y008169D01*
X030469Y008231D01*
X030345Y008231D01*
X030284Y008169D01*
X030162Y008169D02*
X030101Y008231D01*
X029977Y008231D01*
X029915Y008169D01*
X029915Y007922D01*
X029977Y007861D01*
X030101Y007861D01*
X030162Y007922D01*
X028319Y007142D02*
X028195Y007080D01*
X028072Y006957D01*
X028257Y006957D01*
X028319Y006895D01*
X028319Y006833D01*
X028257Y006772D01*
X028133Y006772D01*
X028072Y006833D01*
X028072Y006957D01*
X027950Y006772D02*
X027703Y006772D01*
X027827Y006772D02*
X027827Y007142D01*
X027703Y007018D01*
X027582Y007080D02*
X027520Y007142D01*
X027397Y007142D01*
X027335Y007080D01*
X027335Y006833D01*
X027397Y006772D01*
X027520Y006772D01*
X027582Y006833D01*
X027520Y006392D02*
X027397Y006392D01*
X027335Y006330D01*
X027335Y006083D01*
X027397Y006022D01*
X027520Y006022D01*
X027582Y006083D01*
X027703Y006022D02*
X027950Y006022D01*
X027827Y006022D02*
X027827Y006392D01*
X027703Y006268D01*
X027582Y006330D02*
X027520Y006392D01*
X028072Y006330D02*
X028072Y006268D01*
X028133Y006207D01*
X028319Y006207D01*
X028319Y006330D02*
X028319Y006083D01*
X028257Y006022D01*
X028133Y006022D01*
X028072Y006083D01*
X028072Y006330D02*
X028133Y006392D01*
X028257Y006392D01*
X028319Y006330D01*
X027785Y008422D02*
X027415Y008422D01*
X027415Y008607D01*
X027476Y008668D01*
X027600Y008668D01*
X027662Y008607D01*
X027662Y008422D01*
X027662Y008545D02*
X027785Y008668D01*
X027723Y008790D02*
X027785Y008852D01*
X027785Y008975D01*
X027723Y009037D01*
X027662Y009037D01*
X027600Y008975D01*
X027600Y008913D01*
X027600Y008975D02*
X027538Y009037D01*
X027476Y009037D01*
X027415Y008975D01*
X027415Y008852D01*
X027476Y008790D01*
X027501Y009817D02*
X027748Y009817D01*
X027810Y009878D01*
X027810Y010002D01*
X027748Y010063D01*
X027810Y010185D02*
X027810Y010432D01*
X027810Y010553D02*
X027748Y010553D01*
X027501Y010800D01*
X027440Y010800D01*
X027440Y010553D01*
X027440Y010308D02*
X027810Y010308D01*
X027563Y010185D02*
X027440Y010308D01*
X027501Y010063D02*
X027440Y010002D01*
X027440Y009878D01*
X027501Y009817D01*
X026549Y011047D02*
X026302Y011047D01*
X026549Y011293D01*
X026549Y011355D01*
X026487Y011417D01*
X026363Y011417D01*
X026302Y011355D01*
X026057Y011417D02*
X026057Y011047D01*
X026180Y011047D02*
X025933Y011047D01*
X025812Y011108D02*
X025750Y011047D01*
X025627Y011047D01*
X025565Y011108D01*
X025565Y011355D01*
X025627Y011417D01*
X025750Y011417D01*
X025812Y011355D01*
X025933Y011293D02*
X026057Y011417D01*
X027440Y011482D02*
X027687Y011482D01*
X027687Y011543D02*
X027687Y011297D01*
X027808Y011358D02*
X027870Y011297D01*
X027993Y011297D01*
X028055Y011358D01*
X028055Y011667D01*
X028177Y011667D02*
X028362Y011667D01*
X028424Y011605D01*
X028424Y011358D01*
X028362Y011297D01*
X028177Y011297D01*
X028177Y011667D01*
X028545Y011667D02*
X028668Y011667D01*
X028607Y011667D02*
X028607Y011297D01*
X028668Y011297D02*
X028545Y011297D01*
X028790Y011358D02*
X028790Y011605D01*
X028852Y011667D01*
X028976Y011667D01*
X029037Y011605D01*
X029037Y011358D01*
X028976Y011297D01*
X028852Y011297D01*
X028790Y011358D01*
X027808Y011358D02*
X027808Y011667D01*
X027687Y011543D02*
X027563Y011667D01*
X027440Y011543D01*
X027440Y011297D01*
X024464Y010718D02*
X024415Y010767D01*
X024319Y010767D01*
X024270Y010718D01*
X024270Y010525D01*
X024319Y010477D01*
X024415Y010477D01*
X024464Y010525D01*
X024169Y010525D02*
X024121Y010477D01*
X024024Y010477D01*
X023976Y010525D01*
X023976Y010718D01*
X024024Y010767D01*
X024121Y010767D01*
X024169Y010718D01*
X023875Y010767D02*
X023875Y010573D01*
X023778Y010477D01*
X023681Y010573D01*
X023681Y010767D01*
X023299Y010667D02*
X023175Y010605D01*
X023052Y010482D01*
X023237Y010482D01*
X023299Y010420D01*
X023299Y010358D01*
X023237Y010297D01*
X023113Y010297D01*
X023052Y010358D01*
X023052Y010482D01*
X022930Y010543D02*
X022930Y010605D01*
X022868Y010667D01*
X022745Y010667D01*
X022683Y010605D01*
X022562Y010605D02*
X022500Y010667D01*
X022377Y010667D01*
X022315Y010605D01*
X022315Y010358D01*
X022377Y010297D01*
X022500Y010297D01*
X022562Y010358D01*
X022683Y010297D02*
X022930Y010543D01*
X022930Y010297D02*
X022683Y010297D01*
X022683Y011047D02*
X022930Y011293D01*
X022930Y011355D01*
X022868Y011417D01*
X022745Y011417D01*
X022683Y011355D01*
X022562Y011355D02*
X022500Y011417D01*
X022377Y011417D01*
X022315Y011355D01*
X022315Y011108D01*
X022377Y011047D01*
X022500Y011047D01*
X022562Y011108D01*
X022683Y011047D02*
X022930Y011047D01*
X023052Y011108D02*
X023113Y011047D01*
X023237Y011047D01*
X023299Y011108D01*
X023299Y011232D01*
X023237Y011293D01*
X023175Y011293D01*
X023052Y011232D01*
X023052Y011417D01*
X023299Y011417D01*
X023729Y009767D02*
X023681Y009718D01*
X023681Y009670D01*
X023729Y009622D01*
X023826Y009622D01*
X023875Y009573D01*
X023875Y009525D01*
X023826Y009477D01*
X023729Y009477D01*
X023681Y009525D01*
X023729Y009767D02*
X023826Y009767D01*
X023875Y009718D01*
X023976Y009718D02*
X023976Y009525D01*
X024024Y009477D01*
X024121Y009477D01*
X024169Y009525D01*
X024270Y009477D02*
X024270Y009767D01*
X024169Y009718D02*
X024121Y009767D01*
X024024Y009767D01*
X023976Y009718D01*
X024270Y009477D02*
X024464Y009477D01*
X024367Y008767D02*
X024464Y008670D01*
X024464Y008477D01*
X024464Y008622D02*
X024270Y008622D01*
X024270Y008670D02*
X024367Y008767D01*
X024270Y008670D02*
X024270Y008477D01*
X024169Y008525D02*
X024169Y008718D01*
X024121Y008767D01*
X023976Y008767D01*
X023976Y008477D01*
X024121Y008477D01*
X024169Y008525D01*
X023875Y008525D02*
X023826Y008477D01*
X023729Y008477D01*
X023681Y008525D01*
X023729Y008622D02*
X023826Y008622D01*
X023875Y008573D01*
X023875Y008525D01*
X023729Y008622D02*
X023681Y008670D01*
X023681Y008718D01*
X023729Y008767D01*
X023826Y008767D01*
X023875Y008718D01*
X023826Y007767D02*
X023681Y007767D01*
X023681Y007477D01*
X023826Y007477D01*
X023875Y007525D01*
X023875Y007718D01*
X023826Y007767D01*
X023976Y007767D02*
X023976Y007477D01*
X023976Y007573D02*
X024121Y007573D01*
X024169Y007622D01*
X024169Y007718D01*
X024121Y007767D01*
X023976Y007767D01*
X024072Y007573D02*
X024169Y007477D01*
X024367Y007477D02*
X024367Y007622D01*
X024464Y007718D01*
X024464Y007767D01*
X024367Y007622D02*
X024270Y007718D01*
X024270Y007767D01*
X024270Y006767D02*
X024415Y006767D01*
X024464Y006718D01*
X024464Y006525D01*
X024415Y006477D01*
X024270Y006477D01*
X024270Y006767D01*
X024169Y006767D02*
X024169Y006477D01*
X023976Y006767D01*
X023976Y006477D01*
X023875Y006525D02*
X023875Y006622D01*
X023778Y006622D01*
X023875Y006718D02*
X023826Y006767D01*
X023729Y006767D01*
X023681Y006718D01*
X023681Y006525D01*
X023729Y006477D01*
X023826Y006477D01*
X023875Y006525D01*
X021677Y009172D02*
X021677Y009233D01*
X021924Y009480D01*
X021924Y009542D01*
X021677Y009542D01*
X021555Y009480D02*
X021493Y009542D01*
X021370Y009542D01*
X021308Y009480D01*
X021187Y009480D02*
X021125Y009542D01*
X021002Y009542D01*
X020940Y009480D01*
X020940Y009233D01*
X021002Y009172D01*
X021125Y009172D01*
X021187Y009233D01*
X021308Y009172D02*
X021555Y009418D01*
X021555Y009480D01*
X021555Y009172D02*
X021308Y009172D01*
X020487Y011047D02*
X020487Y011417D01*
X020302Y011232D01*
X020549Y011232D01*
X020180Y011293D02*
X020180Y011355D01*
X020118Y011417D01*
X019995Y011417D01*
X019933Y011355D01*
X019812Y011355D02*
X019750Y011417D01*
X019627Y011417D01*
X019565Y011355D01*
X019565Y011108D01*
X019627Y011047D01*
X019750Y011047D01*
X019812Y011108D01*
X019933Y011047D02*
X020180Y011293D01*
X020180Y011047D02*
X019933Y011047D01*
X019007Y012647D02*
X018883Y012647D01*
X018822Y012708D01*
X018700Y012647D02*
X018453Y012647D01*
X018700Y012893D01*
X018700Y012955D01*
X018639Y013017D01*
X018515Y013017D01*
X018453Y012955D01*
X018332Y012955D02*
X018270Y013017D01*
X018147Y013017D01*
X018085Y012955D01*
X018085Y012708D01*
X018147Y012647D01*
X018270Y012647D01*
X018332Y012708D01*
X018822Y012955D02*
X018883Y013017D01*
X019007Y013017D01*
X019069Y012955D01*
X019069Y012893D01*
X019007Y012832D01*
X019069Y012770D01*
X019069Y012708D01*
X019007Y012647D01*
X019007Y012832D02*
X018945Y012832D01*
X017368Y012667D02*
X017368Y012605D01*
X017121Y012358D01*
X017121Y012297D01*
X016999Y012358D02*
X016938Y012297D01*
X016814Y012297D01*
X016753Y012358D01*
X016753Y012605D01*
X016814Y012667D01*
X016938Y012667D01*
X016999Y012605D01*
X017121Y012667D02*
X017368Y012667D01*
X015944Y012580D02*
X015697Y012333D01*
X015758Y012272D01*
X015882Y012272D01*
X015944Y012333D01*
X015944Y012580D01*
X015882Y012642D01*
X015758Y012642D01*
X015697Y012580D01*
X015697Y012333D01*
X015575Y012272D02*
X015328Y012272D01*
X015452Y012272D02*
X015452Y012642D01*
X015328Y012518D01*
X015207Y012580D02*
X015145Y012642D01*
X015022Y012642D01*
X014960Y012580D01*
X014960Y012333D01*
X015022Y012272D01*
X015145Y012272D01*
X015207Y012333D01*
X014381Y012272D02*
X014134Y012272D01*
X014013Y012272D02*
X013766Y012272D01*
X013889Y012272D02*
X013889Y012642D01*
X013766Y012518D01*
X013644Y012580D02*
X013583Y012642D01*
X013459Y012642D01*
X013398Y012580D01*
X013398Y012333D01*
X013459Y012272D01*
X013583Y012272D01*
X013644Y012333D01*
X014134Y012518D02*
X014258Y012642D01*
X014258Y012272D01*
X010785Y013042D02*
X010538Y013042D01*
X010417Y013042D02*
X010170Y013042D01*
X010293Y013042D02*
X010293Y012672D01*
X010049Y012672D02*
X010049Y012918D01*
X009925Y013042D01*
X009802Y012918D01*
X009802Y012672D01*
X009680Y012733D02*
X009618Y012672D01*
X009433Y012672D01*
X009433Y013042D01*
X009618Y013042D01*
X009680Y012980D01*
X009680Y012918D01*
X009618Y012857D01*
X009433Y012857D01*
X009312Y012795D02*
X009312Y013042D01*
X009383Y013209D02*
X009507Y013209D01*
X009569Y013271D01*
X009569Y013518D01*
X009507Y013579D01*
X009383Y013579D01*
X009322Y013518D01*
X009322Y013456D01*
X009383Y013394D01*
X009569Y013394D01*
X009383Y013209D02*
X009322Y013271D01*
X009200Y013209D02*
X009077Y013332D01*
X009139Y013332D02*
X008953Y013332D01*
X008953Y013209D02*
X008953Y013579D01*
X009139Y013579D01*
X009200Y013518D01*
X009200Y013394D01*
X009139Y013332D01*
X009065Y013042D02*
X009065Y012795D01*
X009188Y012672D01*
X009312Y012795D01*
X009618Y012857D02*
X009680Y012795D01*
X009680Y012733D01*
X009802Y012857D02*
X010049Y012857D01*
X010662Y012672D02*
X010662Y013042D01*
X009569Y014083D02*
X009507Y014022D01*
X009383Y014022D01*
X009322Y014083D01*
X009569Y014330D01*
X009569Y014083D01*
X009569Y014330D02*
X009507Y014392D01*
X009383Y014392D01*
X009322Y014330D01*
X009322Y014083D01*
X009200Y014022D02*
X008953Y014022D01*
X008832Y014022D02*
X008708Y014145D01*
X008770Y014145D02*
X008585Y014145D01*
X008585Y014022D02*
X008585Y014392D01*
X008770Y014392D01*
X008832Y014330D01*
X008832Y014207D01*
X008770Y014145D01*
X008953Y014268D02*
X009077Y014392D01*
X009077Y014022D01*
X008174Y013480D02*
X008174Y013418D01*
X008112Y013357D01*
X007988Y013357D01*
X007927Y013418D01*
X007927Y013480D01*
X007988Y013542D01*
X008112Y013542D01*
X008174Y013480D01*
X008112Y013357D02*
X008174Y013295D01*
X008174Y013233D01*
X008112Y013172D01*
X007988Y013172D01*
X007927Y013233D01*
X007927Y013295D01*
X007988Y013357D01*
X007805Y013418D02*
X007558Y013172D01*
X007805Y013172D01*
X007805Y013418D02*
X007805Y013480D01*
X007743Y013542D01*
X007620Y013542D01*
X007558Y013480D01*
X007437Y013480D02*
X007375Y013542D01*
X007252Y013542D01*
X007190Y013480D01*
X007190Y013233D01*
X007252Y013172D01*
X007375Y013172D01*
X007437Y013233D01*
X007437Y013672D02*
X007313Y013795D01*
X007375Y013795D02*
X007190Y013795D01*
X007190Y013672D02*
X007190Y014042D01*
X007375Y014042D01*
X007437Y013980D01*
X007437Y013857D01*
X007375Y013795D01*
X007558Y013672D02*
X007805Y013918D01*
X007805Y013980D01*
X007743Y014042D01*
X007620Y014042D01*
X007558Y013980D01*
X007558Y014172D02*
X007805Y014172D01*
X007682Y014172D02*
X007682Y014542D01*
X007558Y014418D01*
X007437Y014357D02*
X007375Y014295D01*
X007190Y014295D01*
X007313Y014295D02*
X007437Y014172D01*
X007437Y014357D02*
X007437Y014480D01*
X007375Y014542D01*
X007190Y014542D01*
X007190Y014172D01*
X007558Y013672D02*
X007805Y013672D01*
X006467Y014420D02*
X006467Y014667D01*
X006220Y014667D02*
X006220Y014420D01*
X006344Y014297D01*
X006467Y014420D01*
X006099Y014482D02*
X006099Y014358D01*
X006037Y014297D01*
X005914Y014297D01*
X005852Y014358D01*
X005852Y014482D02*
X005975Y014543D01*
X006037Y014543D01*
X006099Y014482D01*
X006099Y014667D02*
X005852Y014667D01*
X005852Y014482D01*
X005852Y014897D02*
X005790Y014958D01*
X005790Y015082D01*
X005852Y015143D01*
X006037Y015143D01*
X006037Y014897D02*
X005852Y014897D01*
X005668Y014897D02*
X005545Y014897D01*
X005607Y014897D02*
X005607Y015143D01*
X005545Y015143D01*
X005424Y015143D02*
X005424Y014835D01*
X005362Y014773D01*
X005300Y014773D01*
X005238Y014897D02*
X005424Y014897D01*
X005238Y014897D02*
X005177Y014958D01*
X005177Y015082D01*
X005238Y015143D01*
X005424Y015143D01*
X005607Y015267D02*
X005607Y015329D01*
X005055Y015082D02*
X004993Y015143D01*
X004870Y015143D01*
X004808Y015082D01*
X004808Y014958D01*
X004870Y014897D01*
X004993Y014897D01*
X005055Y014958D01*
X005055Y015082D01*
X004687Y014897D02*
X004440Y014897D01*
X004440Y015267D01*
X004440Y014543D02*
X004625Y014543D01*
X004687Y014482D01*
X004687Y014358D01*
X004625Y014297D01*
X004440Y014297D01*
X004440Y014173D02*
X004440Y014543D01*
X004808Y014543D02*
X004808Y014358D01*
X004870Y014297D01*
X004932Y014358D01*
X004993Y014297D01*
X005055Y014358D01*
X005055Y014543D01*
X005177Y014543D02*
X005177Y014297D01*
X005177Y014420D02*
X005300Y014543D01*
X005362Y014543D01*
X005424Y013042D02*
X005424Y012672D01*
X005238Y012672D01*
X005177Y012733D01*
X005177Y012857D01*
X005238Y012918D01*
X005424Y012918D01*
X005055Y012857D02*
X005055Y012672D01*
X005055Y012857D02*
X004993Y012918D01*
X004808Y012918D01*
X004808Y012672D01*
X004687Y012733D02*
X004687Y012857D01*
X004563Y012857D01*
X004440Y012980D02*
X004440Y012733D01*
X004502Y012672D01*
X004625Y012672D01*
X004687Y012733D01*
X004687Y012980D02*
X004625Y013042D01*
X004502Y013042D01*
X004440Y012980D01*
X005710Y012080D02*
X005710Y011833D01*
X005772Y011772D01*
X005895Y011772D01*
X005957Y011833D01*
X006078Y011772D02*
X006325Y012018D01*
X006325Y012080D01*
X006264Y012142D01*
X006140Y012142D01*
X006078Y012080D01*
X005957Y012080D02*
X005895Y012142D01*
X005772Y012142D01*
X005710Y012080D01*
X006078Y011772D02*
X006325Y011772D01*
X006447Y011833D02*
X006508Y011772D01*
X006632Y011772D01*
X006694Y011833D01*
X006694Y012080D01*
X006632Y012142D01*
X006508Y012142D01*
X006447Y012080D01*
X006447Y012018D01*
X006508Y011957D01*
X006694Y011957D01*
X006037Y011143D02*
X005914Y011143D01*
X005852Y011082D01*
X005852Y010958D01*
X005914Y010897D01*
X006037Y010897D01*
X006099Y010958D01*
X006099Y011082D01*
X006037Y011143D01*
X005730Y011143D02*
X005607Y010897D01*
X005484Y011143D01*
X005362Y011143D02*
X005300Y011143D01*
X005177Y011020D01*
X005055Y011020D02*
X004808Y011020D01*
X004808Y011082D02*
X004870Y011143D01*
X004993Y011143D01*
X005055Y011082D01*
X005055Y011020D01*
X004993Y010897D02*
X004870Y010897D01*
X004808Y010958D01*
X004808Y011082D01*
X004687Y011020D02*
X004687Y010958D01*
X004625Y010897D01*
X004502Y010897D01*
X004440Y010958D01*
X004502Y011082D02*
X004625Y011082D01*
X004687Y011020D01*
X004687Y011205D02*
X004625Y011267D01*
X004502Y011267D01*
X004440Y011205D01*
X004440Y011143D01*
X004502Y011082D01*
X004440Y010543D02*
X004625Y010543D01*
X004687Y010482D01*
X004687Y010358D01*
X004625Y010297D01*
X004440Y010297D01*
X004440Y010173D02*
X004440Y010543D01*
X004808Y010543D02*
X004808Y010358D01*
X004870Y010297D01*
X004932Y010358D01*
X004993Y010297D01*
X005055Y010358D01*
X005055Y010543D01*
X005177Y010543D02*
X005177Y010297D01*
X005177Y010420D02*
X005300Y010543D01*
X005362Y010543D01*
X005177Y010897D02*
X005177Y011143D01*
X005852Y010667D02*
X005914Y010729D01*
X006037Y010605D01*
X006099Y010667D01*
X006220Y010482D02*
X006220Y010358D01*
X006282Y010297D01*
X006405Y010297D01*
X006467Y010358D01*
X006467Y010420D01*
X006405Y010482D01*
X006220Y010482D01*
X006344Y010605D01*
X006467Y010667D01*
X006589Y010667D02*
X006589Y010420D01*
X006712Y010297D01*
X006835Y010420D01*
X006835Y010667D01*
X007392Y009943D02*
X007330Y009881D01*
X007330Y009634D01*
X007392Y009572D01*
X007515Y009572D01*
X007577Y009634D01*
X007698Y009572D02*
X007945Y009572D01*
X007822Y009572D02*
X007822Y009943D01*
X007698Y009819D01*
X007577Y009881D02*
X007515Y009943D01*
X007392Y009943D01*
X010141Y010397D02*
X010326Y010397D01*
X010388Y010458D01*
X010388Y010705D01*
X010326Y010767D01*
X010141Y010767D01*
X010141Y010397D01*
X010509Y010458D02*
X010571Y010397D01*
X010694Y010397D01*
X010756Y010458D01*
X010756Y010520D01*
X010694Y010582D01*
X010633Y010582D01*
X010694Y010582D02*
X010756Y010643D01*
X010756Y010705D01*
X010694Y010767D01*
X010571Y010767D01*
X010509Y010705D01*
X011189Y014922D02*
X011128Y014983D01*
X011189Y014922D02*
X011313Y014922D01*
X011374Y014983D01*
X011374Y015107D01*
X011313Y015168D01*
X011251Y015168D01*
X011128Y015107D01*
X011128Y015292D01*
X011374Y015292D01*
X011496Y015292D02*
X011496Y015045D01*
X011619Y014922D01*
X011743Y015045D01*
X011743Y015292D01*
X009924Y016044D02*
X009677Y016044D01*
X009862Y016229D01*
X009862Y015859D01*
X009555Y015859D02*
X009308Y015859D01*
X009187Y015859D02*
X009063Y015982D01*
X009125Y015982D02*
X008940Y015982D01*
X008940Y015859D02*
X008940Y016229D01*
X009125Y016229D01*
X009187Y016168D01*
X009187Y016044D01*
X009125Y015982D01*
X009308Y016106D02*
X009432Y016229D01*
X009432Y015859D01*
X008174Y015922D02*
X008050Y016045D01*
X008112Y016045D02*
X007927Y016045D01*
X007927Y015922D02*
X007927Y016292D01*
X008112Y016292D01*
X008174Y016230D01*
X008174Y016107D01*
X008112Y016045D01*
X007805Y015922D02*
X007805Y016292D01*
X007558Y016292D02*
X007558Y015922D01*
X007682Y016045D01*
X007805Y015922D01*
X007437Y016107D02*
X007437Y016230D01*
X007375Y016292D01*
X007190Y016292D01*
X007190Y015922D01*
X007190Y016045D02*
X007375Y016045D01*
X007437Y016107D01*
X006905Y016547D02*
X006905Y016917D01*
X006782Y016917D02*
X007028Y016917D01*
X006660Y016917D02*
X006413Y016917D01*
X006537Y016917D02*
X006537Y016547D01*
X006292Y016547D02*
X006292Y016793D01*
X006168Y016917D01*
X006045Y016793D01*
X006045Y016547D01*
X005924Y016608D02*
X005862Y016547D01*
X005677Y016547D01*
X005677Y016917D01*
X005862Y016917D01*
X005924Y016855D01*
X005924Y016793D01*
X005862Y016732D01*
X005677Y016732D01*
X005862Y016732D02*
X005924Y016670D01*
X005924Y016608D01*
X006045Y016732D02*
X006292Y016732D01*
X006132Y017272D02*
X006008Y017272D01*
X005947Y017333D01*
X006194Y017580D01*
X006194Y017333D01*
X006132Y017272D01*
X005947Y017333D02*
X005947Y017580D01*
X006008Y017642D01*
X006132Y017642D01*
X006194Y017580D01*
X005825Y017580D02*
X005825Y017518D01*
X005764Y017457D01*
X005825Y017395D01*
X005825Y017333D01*
X005764Y017272D01*
X005640Y017272D01*
X005578Y017333D01*
X005457Y017333D02*
X005395Y017272D01*
X005272Y017272D01*
X005210Y017333D01*
X005210Y017580D01*
X005272Y017642D01*
X005395Y017642D01*
X005457Y017580D01*
X005578Y017580D02*
X005640Y017642D01*
X005764Y017642D01*
X005825Y017580D01*
X005764Y017457D02*
X005702Y017457D01*
X005090Y017268D02*
X005090Y016960D01*
X005028Y016898D01*
X004966Y016898D01*
X005063Y016917D02*
X005187Y016917D01*
X005125Y016917D02*
X005125Y016608D01*
X005063Y016547D01*
X005002Y016547D01*
X004940Y016608D01*
X004660Y016607D02*
X004598Y016668D01*
X004475Y016668D01*
X004413Y016607D01*
X004413Y016483D01*
X004475Y016422D01*
X004598Y016422D01*
X004660Y016545D02*
X004413Y016545D01*
X004292Y016483D02*
X004230Y016545D01*
X004107Y016545D01*
X004045Y016607D01*
X004107Y016668D01*
X004292Y016668D01*
X004292Y016483D02*
X004230Y016422D01*
X004045Y016422D01*
X003924Y016422D02*
X003924Y016607D01*
X003862Y016668D01*
X003677Y016668D01*
X003677Y016422D01*
X003555Y016545D02*
X003308Y016545D01*
X003308Y016607D02*
X003370Y016668D01*
X003493Y016668D01*
X003555Y016607D01*
X003555Y016545D01*
X003493Y016422D02*
X003370Y016422D01*
X003308Y016483D01*
X003308Y016607D01*
X003187Y016668D02*
X003002Y016668D01*
X002940Y016607D01*
X003002Y016545D01*
X003125Y016545D01*
X003187Y016483D01*
X003125Y016422D01*
X002940Y016422D01*
X002940Y017022D02*
X003125Y017022D01*
X003187Y017083D01*
X003187Y017145D01*
X003125Y017207D01*
X002940Y017207D01*
X002940Y017392D02*
X003125Y017392D01*
X003187Y017330D01*
X003187Y017268D01*
X003125Y017207D01*
X003308Y017083D02*
X003370Y017145D01*
X003555Y017145D01*
X003555Y017207D02*
X003555Y017022D01*
X003370Y017022D01*
X003308Y017083D01*
X003370Y017268D02*
X003493Y017268D01*
X003555Y017207D01*
X003677Y017268D02*
X003800Y017268D01*
X003738Y017330D02*
X003738Y017083D01*
X003800Y017022D01*
X003984Y017083D02*
X004046Y017022D01*
X003984Y017083D02*
X003984Y017330D01*
X003922Y017268D02*
X004046Y017268D01*
X004168Y017207D02*
X004168Y017083D01*
X004229Y017022D01*
X004353Y017022D01*
X004415Y017145D02*
X004168Y017145D01*
X004168Y017207D02*
X004229Y017268D01*
X004353Y017268D01*
X004415Y017207D01*
X004415Y017145D01*
X004536Y017145D02*
X004659Y017268D01*
X004721Y017268D01*
X004843Y017268D02*
X004843Y017083D01*
X004905Y017022D01*
X005090Y017022D01*
X004536Y017022D02*
X004536Y017268D01*
X004660Y016607D02*
X004660Y016545D01*
X005308Y016485D02*
X005555Y016485D01*
X002940Y017022D02*
X002940Y017392D01*
X004438Y020683D02*
X004376Y020745D01*
X004376Y020992D01*
X004438Y021054D01*
X004561Y021054D01*
X004623Y020992D01*
X004744Y020992D02*
X004806Y021054D01*
X004929Y021054D01*
X004991Y020992D01*
X004991Y020930D01*
X004744Y020683D01*
X004991Y020683D01*
X004623Y020745D02*
X004561Y020683D01*
X004438Y020683D01*
X007585Y021021D02*
X007647Y020959D01*
X007770Y020959D01*
X007832Y021021D01*
X007953Y021021D02*
X008015Y020959D01*
X008139Y020959D01*
X008200Y021021D01*
X008200Y021082D01*
X008139Y021144D01*
X008077Y021144D01*
X008139Y021144D02*
X008200Y021206D01*
X008200Y021268D01*
X008139Y021329D01*
X008015Y021329D01*
X007953Y021268D01*
X007832Y021268D02*
X007770Y021329D01*
X007647Y021329D01*
X007585Y021268D01*
X007585Y021021D01*
X008322Y020959D02*
X008569Y020959D01*
X008445Y020959D02*
X008445Y021329D01*
X008322Y021206D01*
X015328Y018455D02*
X015328Y018208D01*
X015390Y018147D01*
X015514Y018147D01*
X015575Y018208D01*
X015697Y018208D02*
X015697Y018270D01*
X015758Y018332D01*
X015882Y018332D01*
X015944Y018270D01*
X015944Y018208D01*
X015882Y018147D01*
X015758Y018147D01*
X015697Y018208D01*
X015758Y018332D02*
X015697Y018393D01*
X015697Y018455D01*
X015758Y018517D01*
X015882Y018517D01*
X015944Y018455D01*
X015944Y018393D01*
X015882Y018332D01*
X015575Y018455D02*
X015514Y018517D01*
X015390Y018517D01*
X015328Y018455D01*
X016315Y016917D02*
X016500Y016917D01*
X016562Y016855D01*
X016562Y016732D01*
X016500Y016670D01*
X016315Y016670D01*
X016438Y016670D02*
X016562Y016547D01*
X016683Y016547D02*
X016930Y016547D01*
X016807Y016547D02*
X016807Y016917D01*
X016683Y016793D01*
X016315Y016917D02*
X016315Y016547D01*
X016915Y016169D02*
X016915Y015922D01*
X016977Y015861D01*
X017101Y015861D01*
X017162Y015922D01*
X017284Y015861D02*
X017531Y015861D01*
X017407Y015861D02*
X017407Y016231D01*
X017284Y016107D01*
X017162Y016169D02*
X017101Y016231D01*
X016977Y016231D01*
X016915Y016169D01*
X017113Y016547D02*
X017237Y016547D01*
X017299Y016608D01*
X017299Y016855D01*
X017237Y016917D01*
X017113Y016917D01*
X017052Y016855D01*
X017052Y016793D01*
X017113Y016732D01*
X017299Y016732D01*
X017113Y016547D02*
X017052Y016608D01*
X017652Y016169D02*
X017714Y016231D01*
X017837Y016231D01*
X017899Y016169D01*
X017899Y016107D01*
X017837Y016046D01*
X017899Y015984D01*
X017899Y015922D01*
X017837Y015861D01*
X017714Y015861D01*
X017652Y015922D01*
X017775Y016046D02*
X017837Y016046D01*
X018252Y017172D02*
X018190Y017233D01*
X018252Y017172D02*
X018375Y017172D01*
X018437Y017233D01*
X018437Y017295D01*
X018375Y017357D01*
X018313Y017357D01*
X018375Y017357D02*
X018437Y017418D01*
X018437Y017480D01*
X018375Y017542D01*
X018252Y017542D01*
X018190Y017480D01*
X018558Y017233D02*
X018620Y017233D01*
X018620Y017172D01*
X018558Y017172D01*
X018558Y017233D01*
X018742Y017233D02*
X018804Y017172D01*
X018928Y017172D01*
X018989Y017233D01*
X018989Y017295D01*
X018928Y017357D01*
X018866Y017357D01*
X018928Y017357D02*
X018989Y017418D01*
X018989Y017480D01*
X018928Y017542D01*
X018804Y017542D01*
X018742Y017480D01*
X019111Y017542D02*
X019111Y017295D01*
X019234Y017172D01*
X019358Y017295D01*
X019358Y017542D01*
X020815Y018483D02*
X020877Y018422D01*
X021000Y018422D01*
X021062Y018483D01*
X021183Y018422D02*
X021430Y018422D01*
X021552Y018422D02*
X021799Y018422D01*
X021675Y018422D02*
X021675Y018792D01*
X021552Y018668D01*
X021430Y018792D02*
X021183Y018792D01*
X021183Y018422D01*
X021183Y018607D02*
X021307Y018607D01*
X021062Y018730D02*
X021000Y018792D01*
X020877Y018792D01*
X020815Y018730D01*
X020815Y018483D01*
X020815Y019797D02*
X020938Y019797D01*
X020877Y019797D02*
X020877Y020167D01*
X020938Y020167D02*
X020815Y020167D01*
X021061Y020167D02*
X021307Y019797D01*
X021307Y020167D01*
X021429Y020167D02*
X021676Y020167D01*
X021552Y020167D02*
X021552Y019797D01*
X021797Y019797D02*
X021797Y020043D01*
X021921Y020167D01*
X022044Y020043D01*
X022044Y019797D01*
X022044Y019982D02*
X021797Y019982D01*
X021061Y019797D02*
X021061Y020167D01*
X023641Y018705D02*
X023641Y018458D01*
X023703Y018397D01*
X023826Y018397D01*
X023888Y018458D01*
X024009Y018458D02*
X024071Y018397D01*
X024194Y018397D01*
X024256Y018458D01*
X024256Y018520D01*
X024194Y018582D01*
X024009Y018582D01*
X024009Y018458D01*
X024009Y018582D02*
X024133Y018705D01*
X024256Y018767D01*
X023888Y018705D02*
X023826Y018767D01*
X023703Y018767D01*
X023641Y018705D01*
X027405Y021202D02*
X027528Y021202D01*
X027466Y021202D02*
X027466Y021573D01*
X027405Y021573D02*
X027528Y021573D01*
X027650Y021511D02*
X027650Y021264D01*
X027712Y021202D01*
X027835Y021202D01*
X027897Y021264D01*
X028018Y021264D02*
X028080Y021202D01*
X028204Y021202D01*
X028265Y021264D01*
X028265Y021388D01*
X028204Y021449D01*
X028142Y021449D01*
X028018Y021388D01*
X028018Y021573D01*
X028265Y021573D01*
X027897Y021511D02*
X027835Y021573D01*
X027712Y021573D01*
X027650Y021511D01*
X020799Y015355D02*
X020737Y015417D01*
X020613Y015417D01*
X020552Y015355D01*
X020430Y015355D02*
X020430Y015293D01*
X020183Y015047D01*
X020430Y015047D01*
X020552Y015047D02*
X020799Y015293D01*
X020799Y015355D01*
X020799Y015047D02*
X020552Y015047D01*
X020430Y015355D02*
X020368Y015417D01*
X020245Y015417D01*
X020183Y015355D01*
X020062Y015355D02*
X020000Y015417D01*
X019877Y015417D01*
X019815Y015355D01*
X019815Y015108D01*
X019877Y015047D01*
X020000Y015047D01*
X020062Y015108D01*
X016757Y021522D02*
X016633Y021522D01*
X016572Y021583D01*
X016572Y021645D01*
X016633Y021707D01*
X016757Y021707D01*
X016819Y021645D01*
X016819Y021583D01*
X016757Y021522D01*
X016757Y021707D02*
X016819Y021768D01*
X016819Y021830D01*
X016757Y021892D01*
X016633Y021892D01*
X016572Y021830D01*
X016572Y021768D01*
X016633Y021707D01*
X016450Y021522D02*
X016203Y021522D01*
X016327Y021522D02*
X016327Y021892D01*
X016203Y021768D01*
X016082Y021830D02*
X016020Y021892D01*
X015897Y021892D01*
X015835Y021830D01*
X015835Y021583D01*
X015897Y021522D01*
X016020Y021522D01*
X016082Y021583D01*
X017135Y006189D02*
X017073Y006127D01*
X017073Y005880D01*
X017135Y005818D01*
X017258Y005818D01*
X017320Y005880D01*
X017442Y005880D02*
X017503Y005818D01*
X017627Y005818D01*
X017688Y005880D01*
X017688Y006127D01*
X017627Y006189D01*
X017503Y006189D01*
X017442Y006127D01*
X017442Y006065D01*
X017503Y006004D01*
X017688Y006004D01*
X017320Y006127D02*
X017258Y006189D01*
X017135Y006189D01*
X007555Y005792D02*
X007308Y005792D01*
X007308Y005607D01*
X007432Y005668D01*
X007493Y005668D01*
X007555Y005607D01*
X007555Y005483D01*
X007493Y005422D01*
X007370Y005422D01*
X007308Y005483D01*
X007187Y005483D02*
X007125Y005422D01*
X007002Y005422D01*
X006940Y005483D01*
X006940Y005730D01*
X007002Y005792D01*
X007125Y005792D01*
X007187Y005730D01*
X028197Y002642D02*
X028197Y002272D01*
X028444Y002272D01*
X029197Y002272D02*
X029197Y002642D01*
X029382Y002642D01*
X029444Y002580D01*
X029444Y002457D01*
X029382Y002395D01*
X029197Y002395D01*
X029320Y002395D02*
X029444Y002272D01*
X029960Y002333D02*
X029960Y002580D01*
X030022Y002642D01*
X030145Y002642D01*
X030207Y002580D01*
X030207Y002457D02*
X030083Y002457D01*
X030207Y002457D02*
X030207Y002333D01*
X030145Y002272D01*
X030022Y002272D01*
X029960Y002333D01*
X030328Y002272D02*
X030328Y002642D01*
X030575Y002272D01*
X030575Y002642D01*
X030697Y002642D02*
X030882Y002642D01*
X030944Y002580D01*
X030944Y002333D01*
X030882Y002272D01*
X030697Y002272D01*
X030697Y002642D01*
X030721Y003798D02*
X030968Y003798D01*
X030845Y003798D02*
X030845Y004168D01*
X030721Y004045D01*
X030600Y004107D02*
X030538Y004168D01*
X030415Y004168D01*
X030353Y004107D01*
X030353Y003860D01*
X030415Y003798D01*
X030538Y003798D01*
X030600Y003860D01*
X031090Y003860D02*
X031151Y003798D01*
X031275Y003798D01*
X031336Y003860D01*
X031336Y003983D01*
X031275Y004045D01*
X031213Y004045D01*
X031090Y003983D01*
X031090Y004168D01*
X031336Y004168D01*
X032102Y003532D02*
X032473Y003532D01*
X032473Y003655D02*
X032473Y003408D01*
X032473Y003287D02*
X032473Y003040D01*
X032473Y002918D02*
X032349Y002795D01*
X032349Y002857D02*
X032349Y002672D01*
X032473Y002672D02*
X032102Y002672D01*
X032102Y002857D01*
X032164Y002918D01*
X032287Y002918D01*
X032349Y002857D01*
X032226Y003040D02*
X032102Y003163D01*
X032473Y003163D01*
X032226Y003408D02*
X032102Y003532D01*
X033290Y003655D02*
X033290Y003408D01*
X033475Y003408D01*
X033413Y003532D01*
X033413Y003593D01*
X033475Y003655D01*
X033598Y003655D01*
X033660Y003593D01*
X033660Y003470D01*
X033598Y003408D01*
X033660Y003287D02*
X033660Y003040D01*
X033660Y002918D02*
X033537Y002795D01*
X033537Y002857D02*
X033537Y002672D01*
X033660Y002672D02*
X033290Y002672D01*
X033290Y002857D01*
X033351Y002918D01*
X033475Y002918D01*
X033537Y002857D01*
X033413Y003040D02*
X033290Y003163D01*
X033660Y003163D01*
X033660Y004359D02*
X033290Y004359D01*
X033290Y004544D01*
X033351Y004606D01*
X033475Y004606D01*
X033537Y004544D01*
X033537Y004359D01*
X033537Y004482D02*
X033660Y004606D01*
X033660Y004727D02*
X033660Y004974D01*
X033660Y004851D02*
X033290Y004851D01*
X033413Y004727D01*
X033475Y005096D02*
X033475Y005281D01*
X033537Y005343D01*
X033598Y005343D01*
X033660Y005281D01*
X033660Y005157D01*
X033598Y005096D01*
X033475Y005096D01*
X033351Y005219D01*
X033290Y005343D01*
X029712Y004168D02*
X029712Y003798D01*
X029774Y003983D02*
X029527Y003983D01*
X029712Y004168D01*
X029282Y004168D02*
X029282Y003798D01*
X029159Y003798D02*
X029406Y003798D01*
X029159Y004045D02*
X029282Y004168D01*
X029037Y004107D02*
X028976Y004168D01*
X028852Y004168D01*
X028790Y004107D01*
X028790Y003860D01*
X028852Y003798D01*
X028976Y003798D01*
X029037Y003860D01*
D13*
X028975Y003732D02*
X028975Y003532D01*
X028875Y003532D02*
X028875Y003732D01*
X028675Y003732D01*
X028975Y003732D02*
X029175Y003732D01*
X029675Y003732D02*
X029875Y003732D01*
X029875Y003532D01*
X029975Y003532D02*
X029975Y003732D01*
X030175Y003732D01*
X030675Y003732D02*
X030875Y003732D01*
X030875Y003532D01*
X030875Y003032D02*
X030875Y002832D01*
X030675Y002832D01*
X030175Y002832D02*
X029975Y002832D01*
X029975Y003032D01*
X029875Y003032D02*
X029875Y002832D01*
X029675Y002832D01*
X029175Y002832D02*
X028975Y002832D01*
X028975Y003032D01*
X028875Y003032D02*
X028875Y002832D01*
X028675Y002832D01*
X028175Y002832D02*
X027975Y002832D01*
X027975Y003032D01*
X027975Y003532D02*
X027975Y003732D01*
X028175Y003732D01*
X026988Y002719D02*
X026988Y004844D01*
X026800Y005032D01*
X026300Y005032D01*
X026113Y004844D01*
X026113Y002719D01*
X026300Y002532D01*
X026800Y002532D01*
X026988Y002719D01*
X025613Y002719D02*
X025613Y004844D01*
X025425Y005032D01*
X024925Y005032D01*
X024738Y004844D01*
X024738Y002719D01*
X024925Y002532D01*
X025425Y002532D01*
X025613Y002719D01*
X024238Y002719D02*
X024238Y004844D01*
X024050Y005032D01*
X023550Y005032D01*
X023363Y004844D01*
X023363Y002719D01*
X023550Y002532D01*
X024050Y002532D01*
X024238Y002719D01*
X022863Y002719D02*
X022863Y004844D01*
X022675Y005032D01*
X022175Y005032D01*
X021988Y004844D01*
X021988Y002719D01*
X022175Y002532D01*
X022675Y002532D01*
X022863Y002719D01*
X021488Y002719D02*
X021488Y004844D01*
X021300Y005032D01*
X020800Y005032D01*
X020613Y004844D01*
X020613Y002719D01*
X020800Y002532D01*
X021300Y002532D01*
X021488Y002719D01*
X020113Y002719D02*
X020113Y004844D01*
X019925Y005032D01*
X019425Y005032D01*
X019238Y004844D01*
X019238Y002719D01*
X019425Y002532D01*
X019925Y002532D01*
X020113Y002719D01*
X015613Y002719D02*
X015425Y002532D01*
X014925Y002532D01*
X014738Y002719D01*
X014738Y004844D01*
X014925Y005032D01*
X015425Y005032D01*
X015613Y004844D01*
X015613Y002719D01*
X014238Y002719D02*
X014050Y002532D01*
X013550Y002532D01*
X013363Y002719D01*
X013363Y004844D01*
X013550Y005032D01*
X014050Y005032D01*
X014238Y004844D01*
X014238Y002719D01*
X012863Y002719D02*
X012675Y002532D01*
X012175Y002532D01*
X011988Y002719D01*
X011988Y004844D01*
X012175Y005032D01*
X012675Y005032D01*
X012863Y004844D01*
X012863Y002719D01*
X011488Y002719D02*
X011300Y002532D01*
X010800Y002532D01*
X010613Y002719D01*
X010613Y004844D01*
X010800Y005032D01*
X011300Y005032D01*
X011488Y004844D01*
X011488Y002719D01*
X010113Y002719D02*
X009925Y002532D01*
X009425Y002532D01*
X009238Y002719D01*
X009238Y004844D01*
X009425Y005032D01*
X009925Y005032D01*
X010113Y004844D01*
X010113Y002719D01*
X008738Y002719D02*
X008550Y002532D01*
X008050Y002532D01*
X007863Y002719D01*
X007863Y004844D01*
X008050Y005032D01*
X008550Y005032D01*
X008738Y004844D01*
X008738Y002719D01*
X006105Y004197D02*
X006105Y005616D01*
X004245Y005616D02*
X004245Y004197D01*
X008050Y006032D02*
X008238Y005844D01*
X010363Y005844D01*
X010550Y006032D01*
X010550Y006532D01*
X010363Y006719D01*
X008238Y006719D01*
X008050Y006532D01*
X008050Y006032D01*
X008238Y007219D02*
X010363Y007219D01*
X010550Y007407D01*
X010550Y007907D01*
X010363Y008094D01*
X008238Y008094D01*
X008050Y007907D01*
X008050Y007407D01*
X008238Y007219D01*
X004208Y009833D02*
X003268Y009833D01*
X000668Y009833D01*
X000588Y009833D01*
X000588Y015733D01*
X000668Y015733D01*
X003268Y015733D01*
X004208Y015733D01*
X004208Y009833D01*
X003268Y009833D02*
X003268Y010463D01*
X003268Y011163D02*
X003268Y012433D01*
X003268Y013133D02*
X003268Y014403D01*
X003268Y015103D02*
X003268Y015733D01*
X002750Y015894D02*
X002550Y015894D01*
X002750Y015894D02*
X002750Y016094D01*
X002750Y016594D02*
X002750Y016794D01*
X002550Y016794D01*
X002550Y016894D02*
X002750Y016894D01*
X002750Y017094D01*
X002750Y017594D02*
X002750Y017794D01*
X002550Y017794D01*
X002050Y017794D02*
X001850Y017794D01*
X001850Y017594D01*
X001850Y017094D02*
X001850Y016894D01*
X002050Y016894D01*
X002050Y016794D02*
X001850Y016794D01*
X001850Y016594D01*
X001850Y016094D02*
X001850Y015894D01*
X002050Y015894D01*
X000668Y015733D02*
X000668Y009833D01*
X000988Y010813D02*
X000990Y010841D01*
X000996Y010868D01*
X001005Y010894D01*
X001018Y010919D01*
X001035Y010942D01*
X001054Y010962D01*
X001076Y010979D01*
X001100Y010993D01*
X001126Y011003D01*
X001153Y011010D01*
X001181Y011013D01*
X001209Y011012D01*
X001236Y011007D01*
X001263Y010998D01*
X001288Y010986D01*
X001311Y010971D01*
X001332Y010952D01*
X001350Y010931D01*
X001365Y010907D01*
X001376Y010881D01*
X001384Y010855D01*
X001388Y010827D01*
X001388Y010799D01*
X001384Y010771D01*
X001376Y010745D01*
X001365Y010719D01*
X001350Y010695D01*
X001332Y010674D01*
X001311Y010655D01*
X001288Y010640D01*
X001263Y010628D01*
X001236Y010619D01*
X001209Y010614D01*
X001181Y010613D01*
X001153Y010616D01*
X001126Y010623D01*
X001100Y010633D01*
X001076Y010647D01*
X001054Y010664D01*
X001035Y010684D01*
X001018Y010707D01*
X001005Y010732D01*
X000996Y010758D01*
X000990Y010785D01*
X000988Y010813D01*
X000988Y012783D02*
X000990Y012811D01*
X000996Y012838D01*
X001005Y012864D01*
X001018Y012889D01*
X001035Y012912D01*
X001054Y012932D01*
X001076Y012949D01*
X001100Y012963D01*
X001126Y012973D01*
X001153Y012980D01*
X001181Y012983D01*
X001209Y012982D01*
X001236Y012977D01*
X001263Y012968D01*
X001288Y012956D01*
X001311Y012941D01*
X001332Y012922D01*
X001350Y012901D01*
X001365Y012877D01*
X001376Y012851D01*
X001384Y012825D01*
X001388Y012797D01*
X001388Y012769D01*
X001384Y012741D01*
X001376Y012715D01*
X001365Y012689D01*
X001350Y012665D01*
X001332Y012644D01*
X001311Y012625D01*
X001288Y012610D01*
X001263Y012598D01*
X001236Y012589D01*
X001209Y012584D01*
X001181Y012583D01*
X001153Y012586D01*
X001126Y012593D01*
X001100Y012603D01*
X001076Y012617D01*
X001054Y012634D01*
X001035Y012654D01*
X001018Y012677D01*
X001005Y012702D01*
X000996Y012728D01*
X000990Y012755D01*
X000988Y012783D01*
X000988Y014753D02*
X000990Y014781D01*
X000996Y014808D01*
X001005Y014834D01*
X001018Y014859D01*
X001035Y014882D01*
X001054Y014902D01*
X001076Y014919D01*
X001100Y014933D01*
X001126Y014943D01*
X001153Y014950D01*
X001181Y014953D01*
X001209Y014952D01*
X001236Y014947D01*
X001263Y014938D01*
X001288Y014926D01*
X001311Y014911D01*
X001332Y014892D01*
X001350Y014871D01*
X001365Y014847D01*
X001376Y014821D01*
X001384Y014795D01*
X001388Y014767D01*
X001388Y014739D01*
X001384Y014711D01*
X001376Y014685D01*
X001365Y014659D01*
X001350Y014635D01*
X001332Y014614D01*
X001311Y014595D01*
X001288Y014580D01*
X001263Y014568D01*
X001236Y014559D01*
X001209Y014554D01*
X001181Y014553D01*
X001153Y014556D01*
X001126Y014563D01*
X001100Y014573D01*
X001076Y014587D01*
X001054Y014604D01*
X001035Y014624D01*
X001018Y014647D01*
X001005Y014672D01*
X000996Y014698D01*
X000990Y014725D01*
X000988Y014753D01*
X004800Y015507D02*
X004800Y016307D01*
X004900Y016407D01*
X005700Y016407D01*
X005800Y016307D01*
X005900Y016407D01*
X006700Y016407D01*
X006800Y016307D01*
X006800Y015507D01*
X006700Y015407D01*
X005900Y015407D01*
X005800Y015507D01*
X005700Y015407D01*
X004900Y015407D01*
X004800Y015507D01*
X007026Y018161D02*
X008824Y018161D01*
X009925Y018907D02*
X010175Y018657D01*
X010675Y018657D01*
X010925Y018907D01*
X011175Y018657D01*
X011675Y018657D01*
X011925Y018907D01*
X012175Y018657D01*
X012675Y018657D01*
X012925Y018907D01*
X013175Y018657D01*
X013675Y018657D01*
X013925Y018907D01*
X014175Y018657D01*
X014675Y018657D01*
X014925Y018907D01*
X014925Y020407D01*
X014675Y020657D01*
X014175Y020657D01*
X013925Y020407D01*
X013675Y020657D01*
X013175Y020657D01*
X012925Y020407D01*
X012675Y020657D01*
X012175Y020657D01*
X011925Y020407D01*
X011675Y020657D01*
X011175Y020657D01*
X010925Y020407D01*
X010675Y020657D01*
X010175Y020657D01*
X009925Y020407D01*
X009925Y018907D01*
X011175Y017782D02*
X010925Y017532D01*
X010925Y017032D01*
X011175Y016782D01*
X011675Y016782D01*
X011925Y017032D01*
X012175Y016782D01*
X012675Y016782D01*
X012925Y017032D01*
X013175Y016782D01*
X013675Y016782D01*
X013925Y017032D01*
X014175Y016782D01*
X014675Y016782D01*
X014925Y017032D01*
X014925Y017532D01*
X014675Y017782D01*
X014175Y017782D01*
X013925Y017532D01*
X013675Y017782D01*
X013175Y017782D01*
X012925Y017532D01*
X012675Y017782D01*
X012175Y017782D01*
X011925Y017532D01*
X011675Y017782D01*
X011175Y017782D01*
X012650Y015357D02*
X016950Y015357D01*
X016967Y015355D01*
X016984Y015351D01*
X017000Y015344D01*
X017014Y015334D01*
X017027Y015321D01*
X017037Y015307D01*
X017044Y015291D01*
X017048Y015274D01*
X017050Y015257D01*
X017050Y014857D01*
X017050Y013957D02*
X017050Y013557D01*
X017048Y013540D01*
X017044Y013523D01*
X017037Y013507D01*
X017027Y013493D01*
X017014Y013480D01*
X017000Y013470D01*
X016984Y013463D01*
X016967Y013459D01*
X016950Y013457D01*
X012650Y013457D01*
X012633Y013459D01*
X012616Y013463D01*
X012600Y013470D01*
X012586Y013480D01*
X012573Y013493D01*
X012563Y013507D01*
X012556Y013523D01*
X012552Y013540D01*
X012550Y013557D01*
X012550Y013957D01*
X012550Y014857D02*
X012550Y015257D01*
X012552Y015274D01*
X012556Y015291D01*
X012563Y015307D01*
X012573Y015321D01*
X012586Y015334D01*
X012600Y015344D01*
X012616Y015351D01*
X012633Y015355D01*
X012650Y015357D01*
X014550Y014657D02*
X014550Y014407D01*
X014550Y014157D01*
X014700Y014157D02*
X014900Y014157D01*
X014900Y014657D01*
X014700Y014657D01*
X014700Y014157D01*
X015050Y014157D02*
X015050Y014407D01*
X015050Y014657D01*
X019675Y014032D02*
X019675Y012532D01*
X019925Y012282D01*
X020425Y012282D01*
X020675Y012532D01*
X020925Y012282D01*
X021425Y012282D01*
X021675Y012532D01*
X021925Y012282D01*
X022425Y012282D01*
X022675Y012532D01*
X022925Y012282D01*
X023425Y012282D01*
X023675Y012532D01*
X023675Y014032D01*
X023425Y014282D01*
X022925Y014282D01*
X022675Y014032D01*
X022425Y014282D01*
X021925Y014282D01*
X021675Y014032D01*
X021425Y014282D01*
X020925Y014282D01*
X020675Y014032D01*
X020425Y014282D01*
X019925Y014282D01*
X019675Y014032D01*
X022120Y017282D02*
X021980Y017422D01*
X022100Y017602D01*
X022020Y017802D02*
X021800Y017842D01*
X021800Y018042D01*
X022030Y018082D01*
X022110Y018272D02*
X021980Y018462D01*
X022120Y018602D01*
X022310Y018472D01*
X022490Y018542D02*
X022540Y018782D01*
X022730Y018782D01*
X022780Y018542D01*
X022960Y018472D02*
X023160Y018602D01*
X023300Y018462D01*
X023160Y018272D01*
X023250Y018082D02*
X023470Y018042D01*
X023470Y017842D01*
X023250Y017802D01*
X023170Y017602D02*
X023300Y017422D01*
X023160Y017282D01*
X022980Y017402D01*
X022900Y017362D01*
X022760Y017702D01*
X022520Y017702D02*
X022370Y017362D01*
X022300Y017402D01*
X022120Y017282D01*
X022102Y017607D02*
X022077Y017649D01*
X022055Y017693D01*
X022037Y017739D01*
X022022Y017786D01*
X022312Y018467D02*
X022354Y018490D01*
X022397Y018509D01*
X022442Y018526D01*
X022488Y018538D01*
X022520Y017702D02*
X022492Y017718D01*
X022465Y017737D01*
X022442Y017759D01*
X022421Y017784D01*
X022403Y017812D01*
X022388Y017841D01*
X022378Y017872D01*
X022370Y017903D01*
X022367Y017936D01*
X022368Y017968D01*
X022372Y018001D01*
X022381Y018032D01*
X022393Y018062D01*
X022408Y018091D01*
X022427Y018118D01*
X022449Y018142D01*
X022473Y018163D01*
X022500Y018182D01*
X022529Y018197D01*
X022560Y018208D01*
X022591Y018216D01*
X022624Y018220D01*
X022656Y018220D01*
X022689Y018216D01*
X022720Y018208D01*
X022751Y018197D01*
X022780Y018182D01*
X022807Y018163D01*
X022831Y018142D01*
X022853Y018118D01*
X022872Y018091D01*
X022887Y018062D01*
X022899Y018032D01*
X022908Y018001D01*
X022912Y017968D01*
X022913Y017936D01*
X022910Y017903D01*
X022902Y017872D01*
X022892Y017841D01*
X022877Y017812D01*
X022859Y017784D01*
X022838Y017759D01*
X022815Y017737D01*
X022788Y017718D01*
X022760Y017702D01*
X023252Y018082D02*
X023240Y018122D01*
X023225Y018161D01*
X023207Y018199D01*
X023187Y018235D01*
X023165Y018270D01*
X022959Y018472D02*
X022916Y018495D01*
X022872Y018515D01*
X022826Y018531D01*
X022780Y018543D01*
X023249Y017803D02*
X023239Y017761D01*
X023226Y017720D01*
X023210Y017680D01*
X023191Y017641D01*
X023169Y017604D01*
X022028Y018083D02*
X022039Y018123D01*
X022053Y018162D01*
X022069Y018199D01*
X022088Y018236D01*
X022109Y018271D01*
X020550Y018282D02*
X020550Y017782D01*
X020300Y017532D01*
X019800Y017532D01*
X019550Y017782D01*
X019550Y018282D01*
X019800Y018532D01*
X019550Y018782D01*
X019550Y019282D01*
X019800Y019532D01*
X019550Y019782D01*
X019550Y020282D01*
X019800Y020532D01*
X020300Y020532D01*
X020550Y020282D01*
X020550Y019782D01*
X020300Y019532D01*
X020550Y019282D01*
X020550Y018782D01*
X020300Y018532D01*
X020550Y018282D01*
X019296Y019133D02*
X019296Y020930D01*
X019175Y022282D02*
X018675Y022282D01*
X018425Y022532D01*
X018175Y022282D01*
X017675Y022282D01*
X017425Y022532D01*
X017175Y022282D01*
X016675Y022282D01*
X016425Y022532D01*
X016175Y022282D01*
X015675Y022282D01*
X015425Y022532D01*
X015175Y022282D01*
X014675Y022282D01*
X014425Y022532D01*
X014425Y023032D01*
X014675Y023282D01*
X015175Y023282D01*
X015425Y023032D01*
X015675Y023282D01*
X016175Y023282D01*
X016425Y023032D01*
X016675Y023282D01*
X017175Y023282D01*
X017425Y023032D01*
X017675Y023282D01*
X018175Y023282D01*
X018425Y023032D01*
X018675Y023282D01*
X019175Y023282D01*
X019425Y023032D01*
X019675Y023282D01*
X020175Y023282D01*
X020425Y023032D01*
X020675Y023282D01*
X021175Y023282D01*
X021425Y023032D01*
X021425Y022532D01*
X021175Y022282D01*
X020675Y022282D01*
X020425Y022532D01*
X020175Y022282D01*
X019675Y022282D01*
X019425Y022532D01*
X019175Y022282D01*
X016804Y020930D02*
X016804Y019133D01*
X016974Y019552D02*
X016976Y019578D01*
X016982Y019604D01*
X016991Y019628D01*
X017004Y019651D01*
X017020Y019672D01*
X017039Y019690D01*
X017060Y019706D01*
X017084Y019718D01*
X017108Y019726D01*
X017134Y019731D01*
X017161Y019732D01*
X017187Y019729D01*
X017212Y019722D01*
X017236Y019712D01*
X017259Y019698D01*
X017279Y019682D01*
X017296Y019662D01*
X017311Y019640D01*
X017322Y019616D01*
X017330Y019591D01*
X017334Y019565D01*
X017334Y019539D01*
X017330Y019513D01*
X017322Y019488D01*
X017311Y019464D01*
X017296Y019442D01*
X017279Y019422D01*
X017259Y019406D01*
X017236Y019392D01*
X017212Y019382D01*
X017187Y019375D01*
X017161Y019372D01*
X017134Y019373D01*
X017108Y019378D01*
X017084Y019386D01*
X017060Y019398D01*
X017039Y019414D01*
X017020Y019432D01*
X017004Y019453D01*
X016991Y019476D01*
X016982Y019500D01*
X016976Y019526D01*
X016974Y019552D01*
X022175Y021532D02*
X022425Y021282D01*
X022925Y021282D01*
X023175Y021532D01*
X023425Y021282D01*
X023925Y021282D01*
X024175Y021532D01*
X024425Y021282D01*
X024925Y021282D01*
X025175Y021532D01*
X025425Y021282D01*
X025925Y021282D01*
X026175Y021532D01*
X026425Y021282D01*
X026925Y021282D01*
X027175Y021532D01*
X027175Y023032D01*
X026925Y023282D01*
X026425Y023282D01*
X026175Y023032D01*
X025925Y023282D01*
X025425Y023282D01*
X025175Y023032D01*
X024925Y023282D01*
X024425Y023282D01*
X024175Y023032D01*
X023925Y023282D01*
X023425Y023282D01*
X023175Y023032D01*
X022925Y023282D01*
X022425Y023282D01*
X022175Y023032D01*
X022175Y021532D01*
X028300Y021532D02*
X028550Y021282D01*
X029050Y021282D01*
X029300Y021532D01*
X029550Y021282D01*
X030050Y021282D01*
X030300Y021532D01*
X030550Y021282D01*
X031050Y021282D01*
X031300Y021532D01*
X031550Y021282D01*
X032050Y021282D01*
X032300Y021532D01*
X032550Y021282D01*
X033050Y021282D01*
X033300Y021532D01*
X033300Y023032D01*
X033050Y023282D01*
X032550Y023282D01*
X032300Y023032D01*
X032050Y023282D01*
X031550Y023282D01*
X031300Y023032D01*
X031050Y023282D01*
X030550Y023282D01*
X030300Y023032D01*
X030050Y023282D01*
X029550Y023282D01*
X029300Y023032D01*
X029050Y023282D01*
X028550Y023282D01*
X028300Y023032D01*
X028300Y021532D01*
X025788Y016207D02*
X025188Y016207D01*
X025171Y016205D01*
X025154Y016201D01*
X025138Y016194D01*
X025124Y016184D01*
X025111Y016171D01*
X025101Y016157D01*
X025094Y016141D01*
X025090Y016124D01*
X025088Y016107D01*
X025088Y013957D01*
X025138Y013957D01*
X025838Y013957D01*
X025888Y013957D01*
X025888Y016107D01*
X025886Y016124D01*
X025882Y016141D01*
X025875Y016157D01*
X025865Y016171D01*
X025852Y016184D01*
X025838Y016194D01*
X025822Y016201D01*
X025805Y016205D01*
X025788Y016207D01*
X025488Y015457D02*
X025488Y015257D01*
X025688Y015257D01*
X025688Y015107D02*
X025288Y015107D01*
X025288Y014957D01*
X025688Y014957D01*
X025688Y015107D01*
X025488Y015257D02*
X025288Y015257D01*
X025288Y014807D02*
X025488Y014807D01*
X025688Y014807D01*
X025488Y014807D02*
X025488Y014607D01*
X025838Y013957D02*
X025838Y013807D01*
X025138Y013807D01*
X025138Y013957D01*
X026300Y013957D02*
X026327Y013959D01*
X026354Y013964D01*
X026380Y013974D01*
X026404Y013986D01*
X026426Y014002D01*
X026446Y014020D01*
X026463Y014042D01*
X026478Y014065D01*
X026488Y014090D01*
X026496Y014116D01*
X026500Y014143D01*
X026500Y014171D01*
X026496Y014198D01*
X026488Y014224D01*
X026478Y014249D01*
X026463Y014272D01*
X026446Y014294D01*
X026426Y014312D01*
X026404Y014328D01*
X026380Y014340D01*
X026354Y014350D01*
X026327Y014355D01*
X026300Y014357D01*
X026300Y014777D02*
X026300Y013537D01*
X026302Y013514D01*
X026307Y013491D01*
X026316Y013469D01*
X026329Y013449D01*
X026344Y013431D01*
X026362Y013416D01*
X026382Y013403D01*
X026404Y013394D01*
X026427Y013389D01*
X026450Y013387D01*
X028150Y013387D01*
X028173Y013389D01*
X028196Y013394D01*
X028218Y013403D01*
X028238Y013416D01*
X028256Y013431D01*
X028271Y013449D01*
X028284Y013469D01*
X028293Y013491D01*
X028298Y013514D01*
X028300Y013537D01*
X028300Y014777D01*
X028298Y014800D01*
X028293Y014823D01*
X028284Y014845D01*
X028271Y014865D01*
X028256Y014883D01*
X028238Y014898D01*
X028218Y014911D01*
X028196Y014920D01*
X028173Y014925D01*
X028150Y014927D01*
X026450Y014927D01*
X026427Y014925D01*
X026404Y014920D01*
X026382Y014911D01*
X026362Y014898D01*
X026344Y014883D01*
X026329Y014865D01*
X026316Y014845D01*
X026307Y014823D01*
X026302Y014800D01*
X026300Y014777D01*
X032225Y010482D02*
X032225Y010282D01*
X032225Y010482D02*
X032425Y010482D01*
X032925Y010482D02*
X033125Y010482D01*
X033125Y010282D01*
X033125Y009782D02*
X033125Y009582D01*
X032925Y009582D01*
X032925Y009482D02*
X033125Y009482D01*
X033125Y009282D01*
X033125Y008782D02*
X033125Y008582D01*
X032925Y008582D01*
X032425Y008582D02*
X032225Y008582D01*
X032225Y008782D01*
X032225Y009282D02*
X032225Y009482D01*
X032425Y009482D01*
X032425Y009582D02*
X032225Y009582D01*
X032225Y009782D01*
X026520Y008390D02*
X026413Y008390D01*
X025986Y008817D01*
X025879Y008817D01*
X025879Y008390D01*
X025986Y008172D02*
X025879Y008065D01*
X025879Y007852D01*
X025986Y007745D01*
X026200Y007528D02*
X026200Y007101D01*
X025986Y006883D02*
X025879Y006883D01*
X025986Y006883D02*
X026200Y006670D01*
X026520Y006670D01*
X026200Y006670D02*
X025986Y006456D01*
X025879Y006456D01*
X025986Y006239D02*
X025879Y006132D01*
X025879Y005918D01*
X025986Y005812D01*
X026413Y005812D01*
X026520Y005918D01*
X026520Y006132D01*
X026413Y006239D01*
X026200Y006239D01*
X026200Y006025D01*
X026520Y007745D02*
X026093Y008172D01*
X025986Y008172D01*
X026520Y008172D02*
X026520Y007745D01*
X020294Y006637D02*
X019867Y006637D01*
X020080Y006637D02*
X020080Y007277D01*
X019867Y007064D01*
X019649Y007170D02*
X019542Y007277D01*
X019329Y007277D01*
X019222Y007170D01*
X019222Y006743D01*
X019329Y006637D01*
X019542Y006637D01*
X019649Y006743D01*
X019006Y006637D02*
X018793Y006637D01*
X018899Y006637D02*
X018899Y007277D01*
X018793Y007277D02*
X019006Y007277D01*
X010485Y010972D02*
X010165Y010972D01*
X010165Y011192D01*
X010165Y011872D02*
X010165Y012092D01*
X010485Y012092D01*
X007265Y020302D02*
X007267Y020328D01*
X007273Y020354D01*
X007282Y020378D01*
X007295Y020401D01*
X007311Y020422D01*
X007330Y020440D01*
X007351Y020456D01*
X007375Y020468D01*
X007399Y020476D01*
X007425Y020481D01*
X007452Y020482D01*
X007478Y020479D01*
X007503Y020472D01*
X007527Y020462D01*
X007550Y020448D01*
X007570Y020432D01*
X007587Y020412D01*
X007602Y020390D01*
X007613Y020366D01*
X007621Y020341D01*
X007625Y020315D01*
X007625Y020289D01*
X007621Y020263D01*
X007613Y020238D01*
X007602Y020214D01*
X007587Y020192D01*
X007570Y020172D01*
X007550Y020156D01*
X007527Y020142D01*
X007503Y020132D01*
X007478Y020125D01*
X007452Y020122D01*
X007425Y020123D01*
X007399Y020128D01*
X007375Y020136D01*
X007351Y020148D01*
X007330Y020164D01*
X007311Y020182D01*
X007295Y020203D01*
X007282Y020226D01*
X007273Y020250D01*
X007267Y020276D01*
X007265Y020302D01*
X007026Y020652D02*
X008824Y020652D01*
D14*
X009611Y009157D02*
X009613Y009216D01*
X009619Y009274D01*
X009629Y009332D01*
X009642Y009389D01*
X009660Y009445D01*
X009681Y009499D01*
X009705Y009553D01*
X009733Y009604D01*
X009765Y009653D01*
X009800Y009701D01*
X009838Y009745D01*
X009878Y009787D01*
X009922Y009827D01*
X009968Y009863D01*
X010016Y009896D01*
X010067Y009926D01*
X010119Y009953D01*
X010173Y009975D01*
X010228Y009995D01*
X010285Y010010D01*
X010342Y010022D01*
X010400Y010030D01*
X010459Y010034D01*
X010517Y010034D01*
X010576Y010030D01*
X010634Y010022D01*
X010691Y010010D01*
X010748Y009995D01*
X010803Y009975D01*
X010857Y009953D01*
X010909Y009926D01*
X010960Y009896D01*
X011008Y009863D01*
X011054Y009827D01*
X011098Y009787D01*
X011138Y009745D01*
X011176Y009701D01*
X011211Y009653D01*
X011243Y009604D01*
X011271Y009553D01*
X011295Y009499D01*
X011316Y009445D01*
X011334Y009389D01*
X011347Y009332D01*
X011357Y009274D01*
X011363Y009216D01*
X011365Y009157D01*
X011363Y009098D01*
X011357Y009040D01*
X011347Y008982D01*
X011334Y008925D01*
X011316Y008869D01*
X011295Y008815D01*
X011271Y008761D01*
X011243Y008710D01*
X011211Y008661D01*
X011176Y008613D01*
X011138Y008569D01*
X011098Y008527D01*
X011054Y008487D01*
X011008Y008451D01*
X010960Y008418D01*
X010909Y008388D01*
X010857Y008361D01*
X010803Y008339D01*
X010748Y008319D01*
X010691Y008304D01*
X010634Y008292D01*
X010576Y008284D01*
X010517Y008280D01*
X010459Y008280D01*
X010400Y008284D01*
X010342Y008292D01*
X010285Y008304D01*
X010228Y008319D01*
X010173Y008339D01*
X010119Y008361D01*
X010067Y008388D01*
X010016Y008418D01*
X009968Y008451D01*
X009922Y008487D01*
X009878Y008527D01*
X009838Y008569D01*
X009800Y008613D01*
X009765Y008661D01*
X009733Y008710D01*
X009705Y008761D01*
X009681Y008815D01*
X009660Y008869D01*
X009642Y008925D01*
X009629Y008982D01*
X009619Y009040D01*
X009613Y009098D01*
X009611Y009157D01*
X025288Y013457D02*
X025288Y013657D01*
X025688Y013607D02*
X025688Y013457D01*
X031173Y019157D02*
X031175Y019216D01*
X031181Y019274D01*
X031191Y019332D01*
X031204Y019389D01*
X031222Y019445D01*
X031243Y019499D01*
X031267Y019553D01*
X031295Y019604D01*
X031327Y019653D01*
X031362Y019701D01*
X031400Y019745D01*
X031440Y019787D01*
X031484Y019827D01*
X031530Y019863D01*
X031578Y019896D01*
X031629Y019926D01*
X031681Y019953D01*
X031735Y019975D01*
X031790Y019995D01*
X031847Y020010D01*
X031904Y020022D01*
X031962Y020030D01*
X032021Y020034D01*
X032079Y020034D01*
X032138Y020030D01*
X032196Y020022D01*
X032253Y020010D01*
X032310Y019995D01*
X032365Y019975D01*
X032419Y019953D01*
X032471Y019926D01*
X032522Y019896D01*
X032570Y019863D01*
X032616Y019827D01*
X032660Y019787D01*
X032700Y019745D01*
X032738Y019701D01*
X032773Y019653D01*
X032805Y019604D01*
X032833Y019553D01*
X032857Y019499D01*
X032878Y019445D01*
X032896Y019389D01*
X032909Y019332D01*
X032919Y019274D01*
X032925Y019216D01*
X032927Y019157D01*
X032925Y019098D01*
X032919Y019040D01*
X032909Y018982D01*
X032896Y018925D01*
X032878Y018869D01*
X032857Y018815D01*
X032833Y018761D01*
X032805Y018710D01*
X032773Y018661D01*
X032738Y018613D01*
X032700Y018569D01*
X032660Y018527D01*
X032616Y018487D01*
X032570Y018451D01*
X032522Y018418D01*
X032471Y018388D01*
X032419Y018361D01*
X032365Y018339D01*
X032310Y018319D01*
X032253Y018304D01*
X032196Y018292D01*
X032138Y018284D01*
X032079Y018280D01*
X032021Y018280D01*
X031962Y018284D01*
X031904Y018292D01*
X031847Y018304D01*
X031790Y018319D01*
X031735Y018339D01*
X031681Y018361D01*
X031629Y018388D01*
X031578Y018418D01*
X031530Y018451D01*
X031484Y018487D01*
X031440Y018527D01*
X031400Y018569D01*
X031362Y018613D01*
X031327Y018661D01*
X031295Y018710D01*
X031267Y018761D01*
X031243Y018815D01*
X031222Y018869D01*
X031204Y018925D01*
X031191Y018982D01*
X031181Y019040D01*
X031175Y019098D01*
X031173Y019157D01*
D15*
X028425Y020907D02*
X026425Y020907D01*
X026425Y020969D02*
X028363Y020969D01*
X028425Y021032D02*
X026425Y021032D01*
X026675Y023532D02*
X026925Y023782D01*
X026675Y023532D02*
X026425Y023782D01*
X032550Y023782D02*
X032800Y023532D01*
X033050Y023782D01*
X023425Y014657D02*
X023175Y014407D01*
X022925Y014657D01*
X011675Y016282D02*
X011425Y016532D01*
X011175Y016282D01*
X011425Y016532D02*
X011675Y016282D01*
X010675Y018157D02*
X010425Y018407D01*
X010175Y018157D01*
X010425Y018407D02*
X010675Y018157D01*
X014925Y023532D02*
X015175Y023782D01*
X014925Y023532D02*
X014675Y023782D01*
X008550Y008032D02*
X008550Y007282D01*
X008488Y007282D01*
X008488Y008032D01*
X008425Y008032D01*
X008425Y007282D01*
X008363Y007282D01*
X008363Y008032D01*
X008300Y008032D01*
X008300Y007282D01*
X008238Y007282D01*
X008238Y008032D01*
X008175Y007969D01*
X008175Y007344D01*
X008113Y007407D01*
X008113Y007907D01*
X008238Y006657D02*
X008175Y006594D01*
X008175Y005969D01*
X008113Y006032D01*
X008113Y006532D01*
X008238Y006657D02*
X008238Y005907D01*
X008300Y005907D01*
X008300Y006657D01*
X008363Y006657D01*
X008363Y005907D01*
X008425Y005907D01*
X008425Y006657D01*
X008488Y006657D01*
X008488Y005907D01*
X008550Y005907D01*
X008550Y006657D01*
X008675Y003032D02*
X007925Y003032D01*
X007925Y002969D02*
X008675Y002969D01*
X008675Y003032D01*
X008675Y002907D02*
X007925Y002907D01*
X007925Y002969D01*
X007925Y002844D02*
X008675Y002844D01*
X008675Y002907D01*
X008675Y002782D02*
X007925Y002782D01*
X007925Y002844D01*
X007925Y002719D02*
X008675Y002719D01*
X008675Y002782D01*
X008613Y002657D02*
X007988Y002657D01*
X007925Y002719D01*
X008050Y002594D02*
X008550Y002594D01*
X008613Y002657D01*
X009300Y002719D02*
X010050Y002719D01*
X010050Y002782D01*
X009300Y002782D01*
X009300Y002844D01*
X010050Y002844D01*
X010050Y002907D01*
X009300Y002907D01*
X009300Y002969D01*
X010050Y002969D01*
X010050Y003032D01*
X009300Y003032D01*
X009300Y002719D02*
X009363Y002657D01*
X009988Y002657D01*
X009925Y002594D01*
X009425Y002594D01*
X010675Y002719D02*
X011425Y002719D01*
X011425Y002782D01*
X010675Y002782D01*
X010675Y002844D01*
X011425Y002844D01*
X011425Y002907D01*
X010675Y002907D01*
X010675Y002969D01*
X011425Y002969D01*
X011425Y003032D01*
X010675Y003032D01*
X010675Y002719D02*
X010738Y002657D01*
X011363Y002657D01*
X011300Y002594D01*
X010800Y002594D01*
X012050Y002719D02*
X012800Y002719D01*
X012800Y002782D01*
X012050Y002782D01*
X012050Y002844D01*
X012800Y002844D01*
X012800Y002907D01*
X012050Y002907D01*
X012050Y002969D01*
X012800Y002969D01*
X012800Y003032D01*
X012050Y003032D01*
X012050Y002719D02*
X012113Y002657D01*
X012738Y002657D01*
X012675Y002594D01*
X012175Y002594D01*
X013425Y002719D02*
X014175Y002719D01*
X014175Y002782D01*
X013425Y002782D01*
X013425Y002844D01*
X014175Y002844D01*
X014175Y002907D01*
X013425Y002907D01*
X013425Y002969D01*
X014175Y002969D01*
X014175Y003032D01*
X013425Y003032D01*
X013425Y002719D02*
X013488Y002657D01*
X014113Y002657D01*
X014050Y002594D01*
X013550Y002594D01*
X014800Y002719D02*
X015550Y002719D01*
X015550Y002782D01*
X014800Y002782D01*
X014800Y002844D01*
X015550Y002844D01*
X015550Y002907D01*
X014800Y002907D01*
X014800Y002969D01*
X015550Y002969D01*
X015550Y003032D01*
X014800Y003032D01*
X014800Y002719D02*
X014863Y002657D01*
X015488Y002657D01*
X015425Y002594D01*
X014925Y002594D01*
X019300Y002719D02*
X020050Y002719D01*
X020050Y002782D01*
X019300Y002782D01*
X019300Y002844D01*
X020050Y002844D01*
X020050Y002907D01*
X019300Y002907D01*
X019300Y002969D01*
X020050Y002969D01*
X020050Y003032D01*
X019300Y003032D01*
X019300Y002719D02*
X019363Y002657D01*
X019988Y002657D01*
X019925Y002594D01*
X019425Y002594D01*
X020675Y002719D02*
X021425Y002719D01*
X021425Y002782D01*
X020675Y002782D01*
X020675Y002844D01*
X021425Y002844D01*
X021425Y002907D01*
X020675Y002907D01*
X020675Y002969D01*
X021425Y002969D01*
X021425Y003032D01*
X020675Y003032D01*
X020675Y002719D02*
X020738Y002657D01*
X021363Y002657D01*
X021300Y002594D01*
X020800Y002594D01*
X022050Y002719D02*
X022800Y002719D01*
X022800Y002782D01*
X022050Y002782D01*
X022050Y002844D01*
X022800Y002844D01*
X022800Y002907D01*
X022050Y002907D01*
X022050Y002969D01*
X022800Y002969D01*
X022800Y003032D01*
X022050Y003032D01*
X022050Y002719D02*
X022113Y002657D01*
X022738Y002657D01*
X022675Y002594D01*
X022175Y002594D01*
X023425Y002719D02*
X024175Y002719D01*
X024175Y002782D01*
X023425Y002782D01*
X023425Y002844D01*
X024175Y002844D01*
X024175Y002907D01*
X023425Y002907D01*
X023425Y002969D01*
X024175Y002969D01*
X024175Y003032D01*
X023425Y003032D01*
X023425Y002719D02*
X023488Y002657D01*
X024113Y002657D01*
X024050Y002594D01*
X023550Y002594D01*
X024800Y002719D02*
X025550Y002719D01*
X025550Y002782D01*
X024800Y002782D01*
X024800Y002844D01*
X025550Y002844D01*
X025550Y002907D01*
X024800Y002907D01*
X024800Y002969D01*
X025550Y002969D01*
X025550Y003032D01*
X024800Y003032D01*
X024800Y002719D02*
X024863Y002657D01*
X025488Y002657D01*
X025425Y002594D01*
X024925Y002594D01*
X026175Y002719D02*
X026925Y002719D01*
X026925Y002782D01*
X026175Y002782D01*
X026175Y002844D01*
X026925Y002844D01*
X026925Y002907D01*
X026175Y002907D01*
X026175Y002969D01*
X026925Y002969D01*
X026925Y003032D01*
X026175Y003032D01*
X026175Y002719D02*
X026238Y002657D01*
X026863Y002657D01*
X026800Y002594D01*
X026300Y002594D01*
D16*
X016819Y014863D02*
X016803Y014852D01*
X016804Y014852D02*
X016771Y014897D01*
X016736Y014939D01*
X016697Y014978D01*
X016657Y015015D01*
X016613Y015048D01*
X016568Y015079D01*
X016520Y015106D01*
X016471Y015130D01*
X016420Y015151D01*
X016367Y015168D01*
X016314Y015181D01*
X016260Y015190D01*
X016205Y015196D01*
X016150Y015198D01*
X016150Y015216D01*
X016150Y015217D01*
X016207Y015215D01*
X016263Y015209D01*
X016318Y015199D01*
X016373Y015186D01*
X016426Y015169D01*
X016478Y015148D01*
X016529Y015123D01*
X016578Y015095D01*
X016624Y015064D01*
X016669Y015029D01*
X016711Y014992D01*
X016750Y014951D01*
X016786Y014908D01*
X016819Y014863D01*
X016819Y014862D01*
X016785Y014908D01*
X016749Y014951D01*
X016710Y014991D01*
X016668Y015028D01*
X016624Y015063D01*
X016577Y015094D01*
X016528Y015122D01*
X016478Y015147D01*
X016426Y015168D01*
X016372Y015185D01*
X016318Y015198D01*
X016262Y015208D01*
X016207Y015214D01*
X016150Y015216D01*
X016150Y015215D01*
X016207Y015213D01*
X016262Y015207D01*
X016318Y015197D01*
X016372Y015184D01*
X016425Y015167D01*
X016477Y015146D01*
X016528Y015121D01*
X016577Y015093D01*
X016623Y015062D01*
X016667Y015028D01*
X016709Y014990D01*
X016748Y014950D01*
X016785Y014907D01*
X016818Y014862D01*
X016817Y014861D01*
X016784Y014907D01*
X016748Y014949D01*
X016709Y014989D01*
X016667Y015027D01*
X016623Y015061D01*
X016576Y015092D01*
X016527Y015120D01*
X016477Y015145D01*
X016425Y015166D01*
X016372Y015183D01*
X016317Y015196D01*
X016262Y015206D01*
X016206Y015212D01*
X016150Y015214D01*
X016150Y015213D01*
X016206Y015211D01*
X016262Y015205D01*
X016317Y015195D01*
X016371Y015182D01*
X016425Y015165D01*
X016477Y015144D01*
X016527Y015119D01*
X016575Y015092D01*
X016622Y015060D01*
X016666Y015026D01*
X016708Y014989D01*
X016747Y014949D01*
X016783Y014906D01*
X016816Y014861D01*
X016815Y014860D01*
X016782Y014905D01*
X016746Y014948D01*
X016707Y014988D01*
X016666Y015025D01*
X016621Y015060D01*
X016575Y015091D01*
X016526Y015119D01*
X016476Y015143D01*
X016424Y015164D01*
X016371Y015181D01*
X016317Y015194D01*
X016262Y015204D01*
X016206Y015210D01*
X016150Y015212D01*
X016150Y015211D01*
X016206Y015209D01*
X016262Y015203D01*
X016317Y015194D01*
X016371Y015180D01*
X016424Y015163D01*
X016476Y015142D01*
X016526Y015118D01*
X016574Y015090D01*
X016621Y015059D01*
X016665Y015025D01*
X016706Y014987D01*
X016745Y014947D01*
X016781Y014905D01*
X016814Y014860D01*
X016814Y014859D01*
X016781Y014904D01*
X016745Y014947D01*
X016706Y014987D01*
X016664Y015024D01*
X016620Y015058D01*
X016574Y015089D01*
X016526Y015117D01*
X016475Y015141D01*
X016424Y015162D01*
X016371Y015179D01*
X016317Y015193D01*
X016262Y015202D01*
X016206Y015208D01*
X016150Y015210D01*
X016150Y015209D01*
X016206Y015207D01*
X016262Y015201D01*
X016316Y015192D01*
X016370Y015178D01*
X016423Y015161D01*
X016475Y015140D01*
X016525Y015116D01*
X016573Y015088D01*
X016620Y015057D01*
X016664Y015023D01*
X016705Y014986D01*
X016744Y014946D01*
X016780Y014903D01*
X016813Y014859D01*
X016812Y014858D01*
X016779Y014903D01*
X016743Y014945D01*
X016704Y014985D01*
X016663Y015022D01*
X016619Y015056D01*
X016573Y015087D01*
X016525Y015115D01*
X016475Y015139D01*
X016423Y015160D01*
X016370Y015177D01*
X016316Y015191D01*
X016261Y015200D01*
X016206Y015206D01*
X016150Y015208D01*
X016150Y015207D01*
X016206Y015205D01*
X016261Y015199D01*
X016316Y015190D01*
X016370Y015176D01*
X016423Y015159D01*
X016474Y015138D01*
X016524Y015114D01*
X016572Y015086D01*
X016618Y015056D01*
X016662Y015021D01*
X016704Y014984D01*
X016742Y014945D01*
X016778Y014902D01*
X016811Y014857D01*
X016810Y014857D01*
X016778Y014902D01*
X016742Y014944D01*
X016703Y014984D01*
X016662Y015021D01*
X016618Y015055D01*
X016572Y015086D01*
X016524Y015113D01*
X016474Y015137D01*
X016422Y015158D01*
X016370Y015175D01*
X016316Y015189D01*
X016261Y015198D01*
X016206Y015204D01*
X016150Y015206D01*
X016150Y015205D01*
X016206Y015203D01*
X016261Y015197D01*
X016316Y015188D01*
X016369Y015174D01*
X016422Y015157D01*
X016473Y015137D01*
X016523Y015112D01*
X016571Y015085D01*
X016617Y015054D01*
X016661Y015020D01*
X016702Y014983D01*
X016741Y014943D01*
X016777Y014901D01*
X016810Y014856D01*
X016809Y014856D01*
X016776Y014900D01*
X016740Y014943D01*
X016702Y014982D01*
X016660Y015019D01*
X016617Y015053D01*
X016571Y015084D01*
X016523Y015111D01*
X016473Y015136D01*
X016422Y015156D01*
X016369Y015173D01*
X016315Y015187D01*
X016261Y015196D01*
X016206Y015202D01*
X016150Y015204D01*
X016150Y015203D01*
X016206Y015201D01*
X016261Y015195D01*
X016315Y015186D01*
X016369Y015172D01*
X016421Y015155D01*
X016473Y015135D01*
X016522Y015111D01*
X016570Y015083D01*
X016616Y015052D01*
X016660Y015018D01*
X016701Y014982D01*
X016739Y014942D01*
X016775Y014900D01*
X016808Y014855D01*
X016807Y014855D01*
X016774Y014899D01*
X016739Y014941D01*
X016700Y014981D01*
X016659Y015018D01*
X016616Y015051D01*
X016570Y015082D01*
X016522Y015110D01*
X016472Y015134D01*
X016421Y015154D01*
X016368Y015171D01*
X016315Y015185D01*
X016261Y015194D01*
X016206Y015200D01*
X016150Y015202D01*
X016150Y015201D01*
X016206Y015199D01*
X016260Y015193D01*
X016315Y015184D01*
X016368Y015170D01*
X016421Y015153D01*
X016472Y015133D01*
X016521Y015109D01*
X016569Y015081D01*
X016615Y015051D01*
X016658Y015017D01*
X016700Y014980D01*
X016738Y014941D01*
X016774Y014898D01*
X016806Y014854D01*
X016805Y014853D01*
X016773Y014898D01*
X016737Y014940D01*
X016699Y014979D01*
X016658Y015016D01*
X016614Y015050D01*
X016569Y015081D01*
X016521Y015108D01*
X016471Y015132D01*
X016420Y015153D01*
X016368Y015169D01*
X016314Y015183D01*
X016260Y015192D01*
X016206Y015198D01*
X016150Y015200D01*
X016150Y015199D01*
X016205Y015197D01*
X016260Y015191D01*
X016314Y015182D01*
X016368Y015169D01*
X016420Y015152D01*
X016471Y015131D01*
X016520Y015107D01*
X016568Y015080D01*
X016614Y015049D01*
X016657Y015015D01*
X016698Y014979D01*
X016737Y014939D01*
X016772Y014897D01*
X016805Y014853D01*
X016371Y014866D02*
X016363Y014849D01*
X016364Y014849D02*
X016330Y014864D01*
X016295Y014876D01*
X016260Y014886D01*
X016224Y014892D01*
X016187Y014897D01*
X016150Y014898D01*
X016150Y014916D01*
X016150Y014917D01*
X016189Y014916D01*
X016227Y014911D01*
X016264Y014904D01*
X016301Y014894D01*
X016337Y014882D01*
X016372Y014866D01*
X016371Y014865D01*
X016337Y014881D01*
X016301Y014893D01*
X016264Y014903D01*
X016226Y014910D01*
X016189Y014915D01*
X016150Y014916D01*
X016150Y014915D01*
X016188Y014914D01*
X016226Y014909D01*
X016264Y014902D01*
X016300Y014892D01*
X016336Y014880D01*
X016371Y014864D01*
X016336Y014879D01*
X016300Y014891D01*
X016263Y014901D01*
X016226Y014908D01*
X016188Y014913D01*
X016150Y014914D01*
X016150Y014913D01*
X016188Y014912D01*
X016226Y014907D01*
X016263Y014900D01*
X016300Y014890D01*
X016335Y014878D01*
X016370Y014863D01*
X016370Y014862D01*
X016335Y014877D01*
X016299Y014889D01*
X016263Y014899D01*
X016226Y014906D01*
X016188Y014911D01*
X016150Y014912D01*
X016150Y014911D01*
X016188Y014910D01*
X016226Y014905D01*
X016263Y014898D01*
X016299Y014888D01*
X016335Y014876D01*
X016369Y014861D01*
X016369Y014860D01*
X016334Y014875D01*
X016299Y014887D01*
X016262Y014897D01*
X016225Y014904D01*
X016188Y014909D01*
X016150Y014910D01*
X016150Y014909D01*
X016188Y014908D01*
X016225Y014903D01*
X016262Y014896D01*
X016299Y014887D01*
X016334Y014874D01*
X016368Y014859D01*
X016368Y014858D01*
X016334Y014873D01*
X016298Y014886D01*
X016262Y014895D01*
X016225Y014902D01*
X016188Y014907D01*
X016150Y014908D01*
X016150Y014907D01*
X016188Y014906D01*
X016225Y014901D01*
X016262Y014894D01*
X016298Y014885D01*
X016333Y014872D01*
X016367Y014857D01*
X016367Y014856D01*
X016333Y014871D01*
X016298Y014884D01*
X016262Y014893D01*
X016225Y014900D01*
X016188Y014905D01*
X016150Y014906D01*
X016150Y014905D01*
X016188Y014904D01*
X016225Y014899D01*
X016261Y014892D01*
X016297Y014883D01*
X016332Y014870D01*
X016367Y014855D01*
X016366Y014855D01*
X016332Y014869D01*
X016297Y014882D01*
X016261Y014891D01*
X016225Y014898D01*
X016188Y014903D01*
X016150Y014904D01*
X016150Y014903D01*
X016188Y014902D01*
X016224Y014897D01*
X016261Y014890D01*
X016297Y014881D01*
X016332Y014868D01*
X016366Y014854D01*
X016365Y014853D01*
X016331Y014868D01*
X016296Y014880D01*
X016261Y014889D01*
X016224Y014896D01*
X016188Y014901D01*
X016150Y014902D01*
X016150Y014901D01*
X016187Y014900D01*
X016224Y014895D01*
X016260Y014888D01*
X016296Y014879D01*
X016331Y014867D01*
X016365Y014852D01*
X016364Y014851D01*
X016331Y014866D01*
X016296Y014878D01*
X016260Y014888D01*
X016224Y014894D01*
X016187Y014899D01*
X016150Y014900D01*
X016150Y014899D01*
X016187Y014898D01*
X016224Y014893D01*
X016260Y014887D01*
X016296Y014877D01*
X016330Y014865D01*
X016364Y014850D01*
X016150Y013898D02*
X016150Y013917D01*
X016150Y013916D02*
X016187Y013917D01*
X016224Y013922D01*
X016260Y013928D01*
X016295Y013938D01*
X016330Y013950D01*
X016364Y013965D01*
X016371Y013948D01*
X016372Y013948D01*
X016337Y013932D01*
X016301Y013920D01*
X016264Y013910D01*
X016227Y013903D01*
X016189Y013898D01*
X016150Y013897D01*
X016150Y013898D01*
X016189Y013899D01*
X016226Y013904D01*
X016264Y013911D01*
X016301Y013921D01*
X016337Y013933D01*
X016371Y013949D01*
X016371Y013950D01*
X016336Y013934D01*
X016300Y013922D01*
X016264Y013912D01*
X016226Y013905D01*
X016188Y013900D01*
X016150Y013899D01*
X016150Y013900D01*
X016188Y013901D01*
X016226Y013906D01*
X016263Y013913D01*
X016300Y013923D01*
X016336Y013935D01*
X016371Y013950D01*
X016370Y013951D01*
X016335Y013936D01*
X016300Y013924D01*
X016263Y013914D01*
X016226Y013907D01*
X016188Y013902D01*
X016150Y013901D01*
X016150Y013902D01*
X016188Y013903D01*
X016226Y013908D01*
X016263Y013915D01*
X016299Y013925D01*
X016335Y013937D01*
X016370Y013952D01*
X016369Y013953D01*
X016335Y013938D01*
X016299Y013926D01*
X016263Y013916D01*
X016226Y013909D01*
X016188Y013904D01*
X016150Y013903D01*
X016150Y013904D01*
X016188Y013905D01*
X016225Y013910D01*
X016262Y013917D01*
X016299Y013927D01*
X016334Y013939D01*
X016369Y013954D01*
X016368Y013955D01*
X016334Y013940D01*
X016299Y013927D01*
X016262Y013918D01*
X016225Y013911D01*
X016188Y013906D01*
X016150Y013905D01*
X016150Y013906D01*
X016188Y013907D01*
X016225Y013912D01*
X016262Y013919D01*
X016298Y013928D01*
X016334Y013941D01*
X016368Y013956D01*
X016367Y013957D01*
X016333Y013942D01*
X016298Y013929D01*
X016262Y013920D01*
X016225Y013913D01*
X016188Y013908D01*
X016150Y013907D01*
X016150Y013908D01*
X016188Y013909D01*
X016225Y013914D01*
X016262Y013921D01*
X016298Y013930D01*
X016333Y013943D01*
X016367Y013958D01*
X016367Y013959D01*
X016332Y013944D01*
X016297Y013931D01*
X016261Y013922D01*
X016225Y013915D01*
X016188Y013910D01*
X016150Y013909D01*
X016150Y013910D01*
X016188Y013911D01*
X016225Y013916D01*
X016261Y013923D01*
X016297Y013932D01*
X016332Y013945D01*
X016366Y013959D01*
X016366Y013960D01*
X016332Y013946D01*
X016297Y013933D01*
X016261Y013924D01*
X016224Y013917D01*
X016188Y013912D01*
X016150Y013911D01*
X016150Y013912D01*
X016188Y013913D01*
X016224Y013918D01*
X016261Y013925D01*
X016296Y013934D01*
X016331Y013946D01*
X016365Y013961D01*
X016365Y013962D01*
X016331Y013947D01*
X016296Y013935D01*
X016260Y013926D01*
X016224Y013919D01*
X016187Y013914D01*
X016150Y013913D01*
X016150Y013914D01*
X016187Y013915D01*
X016224Y013920D01*
X016260Y013926D01*
X016296Y013936D01*
X016331Y013948D01*
X016364Y013963D01*
X016364Y013964D01*
X016330Y013949D01*
X016296Y013937D01*
X016260Y013927D01*
X016224Y013921D01*
X016187Y013916D01*
X016150Y013915D01*
X016150Y013598D02*
X016150Y013617D01*
X016151Y013616D02*
X016205Y013618D01*
X016260Y013624D01*
X016314Y013633D01*
X016367Y013646D01*
X016420Y013663D01*
X016471Y013684D01*
X016520Y013708D01*
X016568Y013735D01*
X016613Y013766D01*
X016657Y013800D01*
X016698Y013836D01*
X016736Y013875D01*
X016771Y013917D01*
X016804Y013962D01*
X016819Y013952D01*
X016819Y013951D01*
X016786Y013906D01*
X016750Y013863D01*
X016711Y013822D01*
X016669Y013785D01*
X016624Y013750D01*
X016578Y013719D01*
X016529Y013691D01*
X016478Y013667D01*
X016426Y013646D01*
X016373Y013628D01*
X016318Y013615D01*
X016263Y013605D01*
X016207Y013599D01*
X016151Y013597D01*
X016151Y013598D01*
X016207Y013600D01*
X016263Y013606D01*
X016318Y013616D01*
X016372Y013629D01*
X016426Y013646D01*
X016478Y013667D01*
X016528Y013692D01*
X016577Y013720D01*
X016624Y013751D01*
X016668Y013786D01*
X016710Y013823D01*
X016749Y013863D01*
X016785Y013906D01*
X016819Y013952D01*
X016818Y013952D01*
X016785Y013907D01*
X016748Y013864D01*
X016709Y013824D01*
X016667Y013786D01*
X016623Y013752D01*
X016577Y013721D01*
X016528Y013693D01*
X016477Y013668D01*
X016425Y013647D01*
X016372Y013630D01*
X016318Y013617D01*
X016262Y013607D01*
X016207Y013601D01*
X016151Y013599D01*
X016151Y013600D01*
X016207Y013602D01*
X016262Y013608D01*
X016317Y013618D01*
X016372Y013631D01*
X016425Y013648D01*
X016477Y013669D01*
X016527Y013694D01*
X016576Y013722D01*
X016623Y013753D01*
X016667Y013787D01*
X016709Y013825D01*
X016748Y013865D01*
X016784Y013908D01*
X016817Y013953D01*
X016816Y013953D01*
X016783Y013908D01*
X016747Y013865D01*
X016708Y013825D01*
X016666Y013788D01*
X016622Y013754D01*
X016576Y013722D01*
X016527Y013695D01*
X016477Y013670D01*
X016425Y013649D01*
X016372Y013632D01*
X016317Y013619D01*
X016262Y013609D01*
X016206Y013603D01*
X016151Y013601D01*
X016151Y013602D01*
X016206Y013604D01*
X016262Y013610D01*
X016317Y013620D01*
X016371Y013633D01*
X016424Y013650D01*
X016476Y013671D01*
X016527Y013695D01*
X016575Y013723D01*
X016621Y013754D01*
X016666Y013789D01*
X016707Y013826D01*
X016746Y013866D01*
X016782Y013909D01*
X016815Y013954D01*
X016814Y013954D01*
X016781Y013909D01*
X016745Y013867D01*
X016707Y013827D01*
X016665Y013790D01*
X016621Y013755D01*
X016574Y013724D01*
X016526Y013696D01*
X016476Y013672D01*
X016424Y013651D01*
X016371Y013634D01*
X016317Y013620D01*
X016262Y013611D01*
X016206Y013605D01*
X016151Y013603D01*
X016151Y013604D01*
X016206Y013606D01*
X016262Y013612D01*
X016317Y013621D01*
X016371Y013635D01*
X016424Y013652D01*
X016475Y013673D01*
X016526Y013697D01*
X016574Y013725D01*
X016620Y013756D01*
X016664Y013790D01*
X016706Y013827D01*
X016745Y013867D01*
X016781Y013910D01*
X016814Y013955D01*
X016813Y013956D01*
X016780Y013911D01*
X016744Y013868D01*
X016705Y013828D01*
X016664Y013791D01*
X016620Y013757D01*
X016573Y013726D01*
X016525Y013698D01*
X016475Y013674D01*
X016423Y013653D01*
X016370Y013636D01*
X016316Y013622D01*
X016262Y013613D01*
X016206Y013607D01*
X016151Y013605D01*
X016151Y013606D01*
X016206Y013608D01*
X016261Y013614D01*
X016316Y013623D01*
X016370Y013637D01*
X016423Y013654D01*
X016475Y013675D01*
X016525Y013699D01*
X016573Y013727D01*
X016619Y013758D01*
X016663Y013792D01*
X016704Y013829D01*
X016743Y013869D01*
X016779Y013911D01*
X016812Y013956D01*
X016811Y013957D01*
X016778Y013912D01*
X016742Y013869D01*
X016704Y013830D01*
X016662Y013793D01*
X016618Y013759D01*
X016572Y013728D01*
X016524Y013700D01*
X016474Y013676D01*
X016423Y013655D01*
X016370Y013638D01*
X016316Y013624D01*
X016261Y013615D01*
X016206Y013609D01*
X016151Y013607D01*
X016151Y013608D01*
X016206Y013610D01*
X016261Y013616D01*
X016316Y013625D01*
X016370Y013639D01*
X016422Y013656D01*
X016474Y013677D01*
X016524Y013701D01*
X016572Y013728D01*
X016618Y013759D01*
X016662Y013793D01*
X016703Y013830D01*
X016742Y013870D01*
X016778Y013912D01*
X016810Y013957D01*
X016810Y013958D01*
X016777Y013913D01*
X016741Y013871D01*
X016702Y013831D01*
X016661Y013794D01*
X016617Y013760D01*
X016571Y013729D01*
X016523Y013702D01*
X016473Y013677D01*
X016422Y013657D01*
X016369Y013640D01*
X016316Y013626D01*
X016261Y013617D01*
X016206Y013611D01*
X016151Y013609D01*
X016151Y013610D01*
X016206Y013612D01*
X016261Y013618D01*
X016315Y013627D01*
X016369Y013641D01*
X016422Y013658D01*
X016473Y013678D01*
X016523Y013703D01*
X016571Y013730D01*
X016617Y013761D01*
X016660Y013795D01*
X016702Y013832D01*
X016740Y013871D01*
X016776Y013914D01*
X016809Y013958D01*
X016808Y013959D01*
X016775Y013914D01*
X016740Y013872D01*
X016701Y013833D01*
X016660Y013796D01*
X016616Y013762D01*
X016570Y013731D01*
X016522Y013703D01*
X016473Y013679D01*
X016421Y013659D01*
X016369Y013642D01*
X016315Y013628D01*
X016261Y013619D01*
X016206Y013613D01*
X016151Y013611D01*
X016151Y013612D01*
X016206Y013614D01*
X016261Y013620D01*
X016315Y013629D01*
X016369Y013643D01*
X016421Y013660D01*
X016472Y013680D01*
X016522Y013704D01*
X016570Y013732D01*
X016616Y013763D01*
X016659Y013796D01*
X016700Y013833D01*
X016739Y013873D01*
X016774Y013915D01*
X016807Y013959D01*
X016806Y013960D01*
X016774Y013916D01*
X016738Y013873D01*
X016700Y013834D01*
X016659Y013797D01*
X016615Y013763D01*
X016569Y013733D01*
X016521Y013705D01*
X016472Y013681D01*
X016421Y013661D01*
X016368Y013644D01*
X016315Y013630D01*
X016260Y013621D01*
X016206Y013615D01*
X016151Y013613D01*
X016151Y013614D01*
X016206Y013616D01*
X016260Y013622D01*
X016315Y013631D01*
X016368Y013645D01*
X016420Y013662D01*
X016471Y013682D01*
X016521Y013706D01*
X016569Y013734D01*
X016614Y013764D01*
X016658Y013798D01*
X016699Y013835D01*
X016737Y013874D01*
X016773Y013916D01*
X016805Y013961D01*
X016772Y013917D01*
X016737Y013875D01*
X016698Y013835D01*
X016657Y013799D01*
X016614Y013765D01*
X016568Y013734D01*
X016520Y013707D01*
X016471Y013683D01*
X016420Y013662D01*
X016368Y013646D01*
X016314Y013632D01*
X016260Y013623D01*
X016205Y013617D01*
X016151Y013615D01*
X013450Y015216D02*
X013450Y015197D01*
X013449Y015198D02*
X013395Y015196D01*
X013340Y015190D01*
X013286Y015181D01*
X013233Y015168D01*
X013180Y015151D01*
X013129Y015130D01*
X013080Y015106D01*
X013032Y015079D01*
X012987Y015048D01*
X012943Y015015D01*
X012903Y014978D01*
X012864Y014939D01*
X012829Y014897D01*
X012796Y014852D01*
X012781Y014863D01*
X012814Y014908D01*
X012850Y014951D01*
X012889Y014992D01*
X012931Y015029D01*
X012976Y015064D01*
X013022Y015095D01*
X013071Y015123D01*
X013122Y015147D01*
X013174Y015168D01*
X013227Y015186D01*
X013282Y015199D01*
X013337Y015209D01*
X013393Y015215D01*
X013449Y015217D01*
X013449Y015216D01*
X013393Y015214D01*
X013337Y015208D01*
X013282Y015198D01*
X013228Y015185D01*
X013174Y015168D01*
X013122Y015147D01*
X013072Y015122D01*
X013023Y015094D01*
X012976Y015063D01*
X012932Y015028D01*
X012890Y014991D01*
X012851Y014951D01*
X012815Y014908D01*
X012781Y014862D01*
X012782Y014862D01*
X012815Y014907D01*
X012852Y014950D01*
X012891Y014990D01*
X012933Y015028D01*
X012977Y015062D01*
X013023Y015093D01*
X013072Y015121D01*
X013123Y015146D01*
X013175Y015167D01*
X013228Y015184D01*
X013282Y015197D01*
X013338Y015207D01*
X013393Y015213D01*
X013449Y015215D01*
X013449Y015214D01*
X013393Y015212D01*
X013338Y015206D01*
X013283Y015196D01*
X013228Y015183D01*
X013175Y015166D01*
X013123Y015145D01*
X013073Y015120D01*
X013024Y015092D01*
X012977Y015061D01*
X012933Y015027D01*
X012891Y014989D01*
X012852Y014949D01*
X012816Y014907D01*
X012783Y014861D01*
X012784Y014861D01*
X012817Y014906D01*
X012853Y014949D01*
X012892Y014989D01*
X012934Y015026D01*
X012978Y015060D01*
X013024Y015092D01*
X013073Y015119D01*
X013123Y015144D01*
X013175Y015165D01*
X013228Y015182D01*
X013283Y015195D01*
X013338Y015205D01*
X013394Y015211D01*
X013449Y015213D01*
X013449Y015212D01*
X013394Y015210D01*
X013338Y015204D01*
X013283Y015194D01*
X013229Y015181D01*
X013176Y015164D01*
X013124Y015143D01*
X013073Y015119D01*
X013025Y015091D01*
X012979Y015060D01*
X012934Y015025D01*
X012893Y014988D01*
X012854Y014948D01*
X012818Y014905D01*
X012785Y014860D01*
X012786Y014860D01*
X012819Y014905D01*
X012855Y014947D01*
X012893Y014987D01*
X012935Y015024D01*
X012979Y015059D01*
X013026Y015090D01*
X013074Y015118D01*
X013124Y015142D01*
X013176Y015163D01*
X013229Y015180D01*
X013283Y015194D01*
X013338Y015203D01*
X013394Y015209D01*
X013449Y015211D01*
X013449Y015210D01*
X013394Y015208D01*
X013338Y015202D01*
X013283Y015193D01*
X013229Y015179D01*
X013176Y015162D01*
X013125Y015141D01*
X013074Y015117D01*
X013026Y015089D01*
X012980Y015058D01*
X012936Y015024D01*
X012894Y014987D01*
X012855Y014947D01*
X012819Y014904D01*
X012786Y014859D01*
X012787Y014859D01*
X012820Y014903D01*
X012856Y014946D01*
X012895Y014986D01*
X012936Y015023D01*
X012980Y015057D01*
X013027Y015088D01*
X013075Y015116D01*
X013125Y015140D01*
X013177Y015161D01*
X013230Y015178D01*
X013284Y015192D01*
X013338Y015201D01*
X013394Y015207D01*
X013449Y015209D01*
X013449Y015208D01*
X013394Y015206D01*
X013339Y015200D01*
X013284Y015191D01*
X013230Y015177D01*
X013177Y015160D01*
X013125Y015139D01*
X013075Y015115D01*
X013027Y015087D01*
X012981Y015056D01*
X012937Y015022D01*
X012896Y014985D01*
X012857Y014945D01*
X012821Y014903D01*
X012788Y014858D01*
X012789Y014857D01*
X012822Y014902D01*
X012858Y014945D01*
X012896Y014984D01*
X012938Y015021D01*
X012982Y015055D01*
X013028Y015086D01*
X013076Y015114D01*
X013126Y015138D01*
X013177Y015159D01*
X013230Y015176D01*
X013284Y015190D01*
X013339Y015199D01*
X013394Y015205D01*
X013449Y015207D01*
X013449Y015206D01*
X013394Y015204D01*
X013339Y015198D01*
X013284Y015189D01*
X013230Y015175D01*
X013178Y015158D01*
X013126Y015137D01*
X013076Y015113D01*
X013028Y015086D01*
X012982Y015055D01*
X012938Y015021D01*
X012897Y014984D01*
X012858Y014944D01*
X012822Y014902D01*
X012790Y014857D01*
X012790Y014856D01*
X012823Y014901D01*
X012859Y014943D01*
X012898Y014983D01*
X012939Y015020D01*
X012983Y015054D01*
X013029Y015085D01*
X013077Y015112D01*
X013127Y015137D01*
X013178Y015157D01*
X013231Y015174D01*
X013284Y015188D01*
X013339Y015197D01*
X013394Y015203D01*
X013449Y015205D01*
X013449Y015204D01*
X013394Y015202D01*
X013339Y015196D01*
X013285Y015187D01*
X013231Y015173D01*
X013178Y015156D01*
X013127Y015136D01*
X013077Y015111D01*
X013029Y015084D01*
X012983Y015053D01*
X012940Y015019D01*
X012898Y014982D01*
X012860Y014943D01*
X012824Y014900D01*
X012791Y014856D01*
X012792Y014855D01*
X012825Y014900D01*
X012861Y014942D01*
X012899Y014982D01*
X012940Y015018D01*
X012984Y015052D01*
X013030Y015083D01*
X013078Y015111D01*
X013127Y015135D01*
X013179Y015155D01*
X013231Y015172D01*
X013285Y015186D01*
X013339Y015195D01*
X013394Y015201D01*
X013449Y015203D01*
X013449Y015202D01*
X013394Y015200D01*
X013339Y015194D01*
X013285Y015185D01*
X013232Y015171D01*
X013179Y015154D01*
X013128Y015134D01*
X013078Y015110D01*
X013030Y015082D01*
X012984Y015051D01*
X012941Y015018D01*
X012900Y014981D01*
X012861Y014941D01*
X012826Y014899D01*
X012793Y014855D01*
X012794Y014854D01*
X012826Y014898D01*
X012862Y014941D01*
X012900Y014980D01*
X012942Y015017D01*
X012985Y015051D01*
X013031Y015081D01*
X013079Y015109D01*
X013128Y015133D01*
X013179Y015153D01*
X013232Y015170D01*
X013285Y015184D01*
X013340Y015193D01*
X013394Y015199D01*
X013449Y015201D01*
X013449Y015200D01*
X013394Y015198D01*
X013340Y015192D01*
X013285Y015183D01*
X013232Y015169D01*
X013180Y015153D01*
X013129Y015132D01*
X013079Y015108D01*
X013031Y015080D01*
X012986Y015050D01*
X012942Y015016D01*
X012901Y014979D01*
X012863Y014940D01*
X012827Y014898D01*
X012795Y014853D01*
X012828Y014897D01*
X012863Y014939D01*
X012902Y014979D01*
X012943Y015015D01*
X012986Y015049D01*
X013032Y015080D01*
X013080Y015107D01*
X013129Y015131D01*
X013180Y015152D01*
X013232Y015169D01*
X013286Y015182D01*
X013340Y015191D01*
X013395Y015197D01*
X013449Y015199D01*
X013450Y014916D02*
X013450Y014897D01*
X013450Y014898D02*
X013413Y014897D01*
X013376Y014892D01*
X013340Y014886D01*
X013305Y014876D01*
X013270Y014864D01*
X013236Y014849D01*
X013229Y014866D01*
X013228Y014866D01*
X013263Y014882D01*
X013299Y014894D01*
X013336Y014904D01*
X013373Y014911D01*
X013411Y014916D01*
X013450Y014917D01*
X013450Y014916D01*
X013411Y014915D01*
X013374Y014910D01*
X013336Y014903D01*
X013299Y014893D01*
X013263Y014881D01*
X013229Y014865D01*
X013229Y014864D01*
X013264Y014880D01*
X013300Y014892D01*
X013336Y014902D01*
X013374Y014909D01*
X013412Y014914D01*
X013450Y014915D01*
X013450Y014914D01*
X013412Y014913D01*
X013374Y014908D01*
X013337Y014901D01*
X013300Y014891D01*
X013264Y014879D01*
X013229Y014864D01*
X013230Y014863D01*
X013265Y014878D01*
X013300Y014890D01*
X013337Y014900D01*
X013374Y014907D01*
X013412Y014912D01*
X013450Y014913D01*
X013450Y014912D01*
X013412Y014911D01*
X013374Y014906D01*
X013337Y014899D01*
X013301Y014889D01*
X013265Y014877D01*
X013230Y014862D01*
X013231Y014861D01*
X013265Y014876D01*
X013301Y014888D01*
X013337Y014898D01*
X013374Y014905D01*
X013412Y014910D01*
X013450Y014911D01*
X013450Y014910D01*
X013412Y014909D01*
X013375Y014904D01*
X013338Y014897D01*
X013301Y014887D01*
X013266Y014875D01*
X013231Y014860D01*
X013232Y014859D01*
X013266Y014874D01*
X013301Y014887D01*
X013338Y014896D01*
X013375Y014903D01*
X013412Y014908D01*
X013450Y014909D01*
X013450Y014908D01*
X013412Y014907D01*
X013375Y014902D01*
X013338Y014895D01*
X013302Y014886D01*
X013266Y014873D01*
X013232Y014858D01*
X013233Y014857D01*
X013267Y014872D01*
X013302Y014885D01*
X013338Y014894D01*
X013375Y014901D01*
X013412Y014906D01*
X013450Y014907D01*
X013450Y014906D01*
X013412Y014905D01*
X013375Y014900D01*
X013338Y014893D01*
X013302Y014884D01*
X013267Y014871D01*
X013233Y014856D01*
X013233Y014855D01*
X013268Y014870D01*
X013303Y014883D01*
X013339Y014892D01*
X013375Y014899D01*
X013412Y014904D01*
X013450Y014905D01*
X013450Y014904D01*
X013412Y014903D01*
X013375Y014898D01*
X013339Y014891D01*
X013303Y014882D01*
X013268Y014869D01*
X013234Y014855D01*
X013234Y014854D01*
X013268Y014868D01*
X013303Y014881D01*
X013339Y014890D01*
X013376Y014897D01*
X013412Y014902D01*
X013450Y014903D01*
X013450Y014902D01*
X013412Y014901D01*
X013376Y014896D01*
X013339Y014889D01*
X013304Y014880D01*
X013269Y014868D01*
X013235Y014853D01*
X013235Y014852D01*
X013269Y014867D01*
X013304Y014879D01*
X013340Y014888D01*
X013376Y014895D01*
X013413Y014900D01*
X013450Y014901D01*
X013450Y014900D01*
X013413Y014899D01*
X013376Y014894D01*
X013340Y014888D01*
X013304Y014878D01*
X013269Y014866D01*
X013236Y014851D01*
X013236Y014850D01*
X013270Y014865D01*
X013304Y014877D01*
X013340Y014887D01*
X013376Y014893D01*
X013413Y014898D01*
X013450Y014899D01*
X013229Y013948D02*
X013237Y013965D01*
X013236Y013965D02*
X013270Y013950D01*
X013305Y013938D01*
X013340Y013928D01*
X013376Y013922D01*
X013413Y013917D01*
X013450Y013916D01*
X013450Y013898D01*
X013450Y013897D01*
X013411Y013898D01*
X013373Y013903D01*
X013336Y013910D01*
X013299Y013920D01*
X013263Y013932D01*
X013228Y013948D01*
X013229Y013949D01*
X013263Y013933D01*
X013299Y013921D01*
X013336Y013911D01*
X013374Y013904D01*
X013411Y013899D01*
X013450Y013898D01*
X013450Y013899D01*
X013412Y013900D01*
X013374Y013905D01*
X013336Y013912D01*
X013300Y013922D01*
X013264Y013934D01*
X013229Y013950D01*
X013264Y013935D01*
X013300Y013923D01*
X013337Y013913D01*
X013374Y013906D01*
X013412Y013901D01*
X013450Y013900D01*
X013450Y013901D01*
X013412Y013902D01*
X013374Y013907D01*
X013337Y013914D01*
X013300Y013924D01*
X013265Y013936D01*
X013230Y013951D01*
X013230Y013952D01*
X013265Y013937D01*
X013301Y013925D01*
X013337Y013915D01*
X013374Y013908D01*
X013412Y013903D01*
X013450Y013902D01*
X013450Y013903D01*
X013412Y013904D01*
X013374Y013909D01*
X013337Y013916D01*
X013301Y013926D01*
X013265Y013938D01*
X013231Y013953D01*
X013231Y013954D01*
X013266Y013939D01*
X013301Y013927D01*
X013338Y013917D01*
X013375Y013910D01*
X013412Y013905D01*
X013450Y013904D01*
X013450Y013905D01*
X013412Y013906D01*
X013375Y013911D01*
X013338Y013918D01*
X013301Y013927D01*
X013266Y013940D01*
X013232Y013955D01*
X013232Y013956D01*
X013266Y013941D01*
X013302Y013928D01*
X013338Y013919D01*
X013375Y013912D01*
X013412Y013907D01*
X013450Y013906D01*
X013450Y013907D01*
X013412Y013908D01*
X013375Y013913D01*
X013338Y013920D01*
X013302Y013929D01*
X013267Y013942D01*
X013233Y013957D01*
X013233Y013958D01*
X013267Y013943D01*
X013302Y013930D01*
X013338Y013921D01*
X013375Y013914D01*
X013412Y013909D01*
X013450Y013908D01*
X013450Y013909D01*
X013412Y013910D01*
X013375Y013915D01*
X013339Y013922D01*
X013303Y013931D01*
X013268Y013944D01*
X013233Y013959D01*
X013234Y013959D01*
X013268Y013945D01*
X013303Y013932D01*
X013339Y013923D01*
X013375Y013916D01*
X013412Y013911D01*
X013450Y013910D01*
X013450Y013911D01*
X013412Y013912D01*
X013376Y013917D01*
X013339Y013924D01*
X013303Y013933D01*
X013268Y013946D01*
X013234Y013960D01*
X013235Y013961D01*
X013269Y013946D01*
X013304Y013934D01*
X013339Y013925D01*
X013376Y013918D01*
X013412Y013913D01*
X013450Y013912D01*
X013450Y013913D01*
X013413Y013914D01*
X013376Y013919D01*
X013340Y013926D01*
X013304Y013935D01*
X013269Y013947D01*
X013235Y013962D01*
X013236Y013963D01*
X013269Y013948D01*
X013304Y013936D01*
X013340Y013926D01*
X013376Y013920D01*
X013413Y013915D01*
X013450Y013914D01*
X013450Y013915D01*
X013413Y013916D01*
X013376Y013921D01*
X013340Y013927D01*
X013304Y013937D01*
X013270Y013949D01*
X013236Y013964D01*
X012781Y013951D02*
X012797Y013962D01*
X012796Y013962D02*
X012829Y013917D01*
X012864Y013875D01*
X012903Y013836D01*
X012943Y013799D01*
X012987Y013766D01*
X013032Y013735D01*
X013080Y013708D01*
X013129Y013684D01*
X013180Y013663D01*
X013233Y013646D01*
X013286Y013633D01*
X013340Y013624D01*
X013395Y013618D01*
X013450Y013616D01*
X013450Y013598D01*
X013450Y013597D01*
X013393Y013599D01*
X013337Y013605D01*
X013282Y013615D01*
X013227Y013628D01*
X013174Y013645D01*
X013122Y013666D01*
X013071Y013691D01*
X013022Y013719D01*
X012976Y013750D01*
X012931Y013785D01*
X012889Y013822D01*
X012850Y013863D01*
X012814Y013906D01*
X012781Y013951D01*
X012781Y013952D01*
X012815Y013906D01*
X012851Y013863D01*
X012890Y013823D01*
X012932Y013786D01*
X012976Y013751D01*
X013023Y013720D01*
X013072Y013692D01*
X013122Y013667D01*
X013174Y013646D01*
X013228Y013629D01*
X013282Y013616D01*
X013338Y013606D01*
X013393Y013600D01*
X013450Y013598D01*
X013450Y013599D01*
X013393Y013601D01*
X013338Y013607D01*
X013282Y013617D01*
X013228Y013630D01*
X013175Y013647D01*
X013123Y013668D01*
X013072Y013693D01*
X013023Y013721D01*
X012977Y013752D01*
X012933Y013786D01*
X012891Y013824D01*
X012852Y013864D01*
X012815Y013907D01*
X012782Y013952D01*
X012783Y013953D01*
X012816Y013907D01*
X012852Y013865D01*
X012891Y013825D01*
X012933Y013787D01*
X012977Y013753D01*
X013024Y013722D01*
X013073Y013694D01*
X013123Y013669D01*
X013175Y013648D01*
X013228Y013631D01*
X013283Y013618D01*
X013338Y013608D01*
X013394Y013602D01*
X013450Y013600D01*
X013450Y013601D01*
X013394Y013603D01*
X013338Y013609D01*
X013283Y013619D01*
X013229Y013632D01*
X013175Y013649D01*
X013123Y013670D01*
X013073Y013695D01*
X013025Y013722D01*
X012978Y013754D01*
X012934Y013788D01*
X012892Y013825D01*
X012853Y013865D01*
X012817Y013908D01*
X012784Y013953D01*
X012785Y013954D01*
X012818Y013909D01*
X012854Y013866D01*
X012893Y013826D01*
X012934Y013789D01*
X012979Y013754D01*
X013025Y013723D01*
X013074Y013695D01*
X013124Y013671D01*
X013176Y013650D01*
X013229Y013633D01*
X013283Y013620D01*
X013338Y013610D01*
X013394Y013604D01*
X013450Y013602D01*
X013450Y013603D01*
X013394Y013605D01*
X013338Y013611D01*
X013283Y013620D01*
X013229Y013634D01*
X013176Y013651D01*
X013124Y013672D01*
X013074Y013696D01*
X013026Y013724D01*
X012979Y013755D01*
X012935Y013789D01*
X012894Y013827D01*
X012855Y013867D01*
X012819Y013909D01*
X012786Y013954D01*
X012786Y013955D01*
X012819Y013910D01*
X012855Y013867D01*
X012894Y013827D01*
X012936Y013790D01*
X012980Y013756D01*
X013026Y013725D01*
X013074Y013697D01*
X013125Y013673D01*
X013176Y013652D01*
X013229Y013635D01*
X013283Y013621D01*
X013338Y013612D01*
X013394Y013606D01*
X013450Y013604D01*
X013450Y013605D01*
X013394Y013607D01*
X013338Y013613D01*
X013284Y013622D01*
X013230Y013636D01*
X013177Y013653D01*
X013125Y013674D01*
X013075Y013698D01*
X013027Y013726D01*
X012980Y013757D01*
X012936Y013791D01*
X012895Y013828D01*
X012856Y013868D01*
X012820Y013911D01*
X012787Y013955D01*
X012788Y013956D01*
X012821Y013911D01*
X012857Y013869D01*
X012896Y013829D01*
X012937Y013792D01*
X012981Y013758D01*
X013027Y013727D01*
X013075Y013699D01*
X013125Y013675D01*
X013177Y013654D01*
X013230Y013637D01*
X013284Y013623D01*
X013339Y013614D01*
X013394Y013608D01*
X013450Y013606D01*
X013450Y013607D01*
X013394Y013609D01*
X013339Y013615D01*
X013284Y013624D01*
X013230Y013638D01*
X013177Y013655D01*
X013126Y013676D01*
X013076Y013700D01*
X013028Y013728D01*
X012982Y013758D01*
X012938Y013793D01*
X012896Y013830D01*
X012858Y013869D01*
X012822Y013912D01*
X012789Y013957D01*
X012790Y013957D01*
X012822Y013912D01*
X012858Y013870D01*
X012897Y013830D01*
X012938Y013793D01*
X012982Y013759D01*
X013028Y013728D01*
X013076Y013701D01*
X013126Y013677D01*
X013178Y013656D01*
X013230Y013639D01*
X013284Y013625D01*
X013339Y013616D01*
X013394Y013610D01*
X013450Y013608D01*
X013450Y013609D01*
X013394Y013611D01*
X013339Y013617D01*
X013284Y013626D01*
X013231Y013640D01*
X013178Y013657D01*
X013127Y013677D01*
X013077Y013702D01*
X013029Y013729D01*
X012983Y013760D01*
X012939Y013794D01*
X012898Y013831D01*
X012859Y013871D01*
X012823Y013913D01*
X012790Y013958D01*
X012791Y013958D01*
X012824Y013914D01*
X012860Y013871D01*
X012898Y013832D01*
X012940Y013795D01*
X012983Y013761D01*
X013029Y013730D01*
X013077Y013703D01*
X013127Y013678D01*
X013178Y013658D01*
X013231Y013641D01*
X013285Y013627D01*
X013339Y013618D01*
X013394Y013612D01*
X013450Y013610D01*
X013450Y013611D01*
X013394Y013613D01*
X013339Y013619D01*
X013285Y013628D01*
X013231Y013642D01*
X013179Y013659D01*
X013127Y013679D01*
X013078Y013703D01*
X013030Y013731D01*
X012984Y013762D01*
X012940Y013796D01*
X012899Y013832D01*
X012861Y013872D01*
X012825Y013914D01*
X012792Y013959D01*
X012793Y013959D01*
X012826Y013915D01*
X012861Y013873D01*
X012900Y013833D01*
X012941Y013796D01*
X012984Y013763D01*
X013030Y013732D01*
X013078Y013704D01*
X013128Y013680D01*
X013179Y013660D01*
X013232Y013643D01*
X013285Y013629D01*
X013339Y013620D01*
X013394Y013614D01*
X013450Y013612D01*
X013450Y013613D01*
X013394Y013615D01*
X013340Y013621D01*
X013285Y013630D01*
X013232Y013644D01*
X013179Y013661D01*
X013128Y013681D01*
X013079Y013705D01*
X013031Y013733D01*
X012985Y013763D01*
X012942Y013797D01*
X012900Y013834D01*
X012862Y013873D01*
X012826Y013916D01*
X012794Y013960D01*
X012795Y013961D01*
X012827Y013916D01*
X012863Y013874D01*
X012901Y013835D01*
X012942Y013798D01*
X012986Y013764D01*
X013031Y013733D01*
X013079Y013706D01*
X013129Y013682D01*
X013180Y013661D01*
X013232Y013645D01*
X013286Y013631D01*
X013340Y013622D01*
X013394Y013616D01*
X013450Y013614D01*
X013450Y013615D01*
X013395Y013617D01*
X013340Y013623D01*
X013286Y013632D01*
X013232Y013645D01*
X013180Y013662D01*
X013129Y013683D01*
X013080Y013707D01*
X013032Y013734D01*
X012986Y013765D01*
X012943Y013799D01*
X012902Y013835D01*
X012863Y013875D01*
X012828Y013917D01*
X012795Y013961D01*
D17*
X013450Y013907D02*
X016150Y013907D01*
X016150Y013607D02*
X013450Y013607D01*
X014400Y014407D02*
X014550Y014407D01*
X015050Y014407D02*
X015200Y014407D01*
X016150Y014907D02*
X013450Y014907D01*
X013450Y015207D02*
X016150Y015207D01*
X026300Y013527D02*
X028300Y013527D01*
X005745Y005297D02*
X005747Y005320D01*
X005753Y005342D01*
X005762Y005364D01*
X005775Y005383D01*
X005790Y005400D01*
X005808Y005414D01*
X005829Y005425D01*
X005851Y005433D01*
X005873Y005437D01*
X005897Y005437D01*
X005919Y005433D01*
X005941Y005425D01*
X005962Y005414D01*
X005980Y005400D01*
X005995Y005383D01*
X006008Y005364D01*
X006017Y005342D01*
X006023Y005320D01*
X006025Y005297D01*
X006023Y005274D01*
X006017Y005252D01*
X006008Y005230D01*
X005995Y005211D01*
X005980Y005194D01*
X005962Y005180D01*
X005941Y005169D01*
X005919Y005161D01*
X005897Y005157D01*
X005873Y005157D01*
X005851Y005161D01*
X005829Y005169D01*
X005808Y005180D01*
X005790Y005194D01*
X005775Y005211D01*
X005762Y005230D01*
X005753Y005252D01*
X005747Y005274D01*
X005745Y005297D01*
D18*
X003629Y007141D02*
X003629Y002682D01*
X000971Y002682D02*
X000971Y007141D01*
X015035Y007549D02*
X015193Y007392D01*
X018657Y007392D01*
X018815Y007549D01*
X018815Y011014D01*
X018657Y011171D01*
X015193Y011171D01*
X015035Y011014D01*
X015035Y007549D01*
X026401Y017024D02*
X028449Y017024D01*
X028449Y021039D01*
X026401Y021039D02*
X026401Y017024D01*
X031697Y005635D02*
X032778Y005635D01*
X032778Y005303D01*
X032778Y004510D02*
X032778Y004178D01*
X031697Y004178D01*
X031322Y004678D02*
X031322Y005135D01*
D19*
X015239Y007707D02*
X015241Y007727D01*
X015246Y007747D01*
X015256Y007765D01*
X015268Y007782D01*
X015283Y007796D01*
X015301Y007806D01*
X015320Y007814D01*
X015340Y007818D01*
X015360Y007818D01*
X015380Y007814D01*
X015399Y007806D01*
X015417Y007796D01*
X015432Y007782D01*
X015444Y007765D01*
X015454Y007747D01*
X015459Y007727D01*
X015461Y007707D01*
X015459Y007687D01*
X015454Y007667D01*
X015444Y007649D01*
X015432Y007632D01*
X015417Y007618D01*
X015399Y007608D01*
X015380Y007600D01*
X015360Y007596D01*
X015340Y007596D01*
X015320Y007600D01*
X015301Y007608D01*
X015283Y007618D01*
X015268Y007632D01*
X015256Y007649D01*
X015246Y007667D01*
X015241Y007687D01*
X015239Y007707D01*
D20*
X007761Y016657D03*
D21*
X009897Y009157D02*
X009899Y009205D01*
X009905Y009253D01*
X009915Y009300D01*
X009928Y009346D01*
X009946Y009391D01*
X009966Y009435D01*
X009991Y009477D01*
X010019Y009516D01*
X010049Y009553D01*
X010083Y009587D01*
X010120Y009619D01*
X010158Y009648D01*
X010199Y009673D01*
X010242Y009695D01*
X010287Y009713D01*
X010333Y009727D01*
X010380Y009738D01*
X010428Y009745D01*
X010476Y009748D01*
X010524Y009747D01*
X010572Y009742D01*
X010620Y009733D01*
X010666Y009721D01*
X010711Y009704D01*
X010755Y009684D01*
X010797Y009661D01*
X010837Y009634D01*
X010875Y009604D01*
X010910Y009571D01*
X010942Y009535D01*
X010972Y009497D01*
X010998Y009456D01*
X011020Y009413D01*
X011040Y009369D01*
X011055Y009324D01*
X011067Y009277D01*
X011075Y009229D01*
X011079Y009181D01*
X011079Y009133D01*
X011075Y009085D01*
X011067Y009037D01*
X011055Y008990D01*
X011040Y008945D01*
X011020Y008901D01*
X010998Y008858D01*
X010972Y008817D01*
X010942Y008779D01*
X010910Y008743D01*
X010875Y008710D01*
X010837Y008680D01*
X010797Y008653D01*
X010755Y008630D01*
X010711Y008610D01*
X010666Y008593D01*
X010620Y008581D01*
X010572Y008572D01*
X010524Y008567D01*
X010476Y008566D01*
X010428Y008569D01*
X010380Y008576D01*
X010333Y008587D01*
X010287Y008601D01*
X010242Y008619D01*
X010199Y008641D01*
X010158Y008666D01*
X010120Y008695D01*
X010083Y008727D01*
X010049Y008761D01*
X010019Y008798D01*
X009991Y008837D01*
X009966Y008879D01*
X009946Y008923D01*
X009928Y008968D01*
X009915Y009014D01*
X009905Y009061D01*
X009899Y009109D01*
X009897Y009157D01*
X031459Y019157D02*
X031461Y019205D01*
X031467Y019253D01*
X031477Y019300D01*
X031490Y019346D01*
X031508Y019391D01*
X031528Y019435D01*
X031553Y019477D01*
X031581Y019516D01*
X031611Y019553D01*
X031645Y019587D01*
X031682Y019619D01*
X031720Y019648D01*
X031761Y019673D01*
X031804Y019695D01*
X031849Y019713D01*
X031895Y019727D01*
X031942Y019738D01*
X031990Y019745D01*
X032038Y019748D01*
X032086Y019747D01*
X032134Y019742D01*
X032182Y019733D01*
X032228Y019721D01*
X032273Y019704D01*
X032317Y019684D01*
X032359Y019661D01*
X032399Y019634D01*
X032437Y019604D01*
X032472Y019571D01*
X032504Y019535D01*
X032534Y019497D01*
X032560Y019456D01*
X032582Y019413D01*
X032602Y019369D01*
X032617Y019324D01*
X032629Y019277D01*
X032637Y019229D01*
X032641Y019181D01*
X032641Y019133D01*
X032637Y019085D01*
X032629Y019037D01*
X032617Y018990D01*
X032602Y018945D01*
X032582Y018901D01*
X032560Y018858D01*
X032534Y018817D01*
X032504Y018779D01*
X032472Y018743D01*
X032437Y018710D01*
X032399Y018680D01*
X032359Y018653D01*
X032317Y018630D01*
X032273Y018610D01*
X032228Y018593D01*
X032182Y018581D01*
X032134Y018572D01*
X032086Y018567D01*
X032038Y018566D01*
X031990Y018569D01*
X031942Y018576D01*
X031895Y018587D01*
X031849Y018601D01*
X031804Y018619D01*
X031761Y018641D01*
X031720Y018666D01*
X031682Y018695D01*
X031645Y018727D01*
X031611Y018761D01*
X031581Y018798D01*
X031553Y018837D01*
X031528Y018879D01*
X031508Y018923D01*
X031490Y018968D01*
X031477Y019014D01*
X031467Y019061D01*
X031461Y019109D01*
X031459Y019157D01*
D22*
X025688Y013672D03*
X025288Y013672D03*
M02*
