G75*
G70*
%OFA0B0*%
%FSLAX24Y24*%
%IPPOS*%
%LPD*%
%AMOC8*
5,1,8,0,0,1.08239X$1,22.5*
%
%ADD10R,0.2140X0.0800*%
%ADD11C,0.0640*%
%ADD12R,0.0237X0.0631*%
%ADD13R,0.0631X0.0237*%
%ADD14R,0.0280X0.0910*%
%ADD15R,0.2339X0.1591*%
%ADD16R,0.0591X0.1221*%
%ADD17R,0.0591X0.0434*%
%ADD18R,0.1615X0.0670*%
%ADD19R,0.0631X0.0552*%
%ADD20R,0.0552X0.0670*%
%ADD21R,0.0552X0.0631*%
%ADD22C,0.0800*%
%ADD23R,0.0512X0.0512*%
%ADD24R,0.0631X0.0827*%
%ADD25R,0.0670X0.0552*%
%ADD26R,0.0906X0.0276*%
%ADD27R,0.0670X0.0394*%
%ADD28C,0.0540*%
%ADD29OC8,0.0890*%
%ADD30C,0.0050*%
%ADD31R,0.0634X0.0634*%
%ADD32C,0.0700*%
%ADD33C,0.0634*%
%ADD34C,0.0000*%
%ADD35C,0.1221*%
%ADD36R,0.0276X0.0276*%
%ADD37R,0.0827X0.0631*%
%ADD38R,0.1221X0.0591*%
%ADD39R,0.0300X0.0840*%
%ADD40C,0.0560*%
%ADD41OC8,0.0640*%
%ADD42R,0.0631X0.0197*%
%ADD43R,0.0430X0.0160*%
%ADD44R,0.1600X0.1600*%
%ADD45C,0.1290*%
%ADD46R,0.0160X0.0430*%
%ADD47C,0.0600*%
%ADD48C,0.0745*%
D10*
X012900Y014407D03*
X016700Y014407D03*
D11*
X014425Y016982D02*
X014425Y017582D01*
X013425Y017582D02*
X013425Y016982D01*
X012425Y016982D02*
X012425Y017582D01*
X011425Y017582D02*
X011425Y016982D01*
X014925Y022482D02*
X014925Y023082D01*
X015925Y023082D02*
X015925Y022482D01*
X016925Y022482D02*
X016925Y023082D01*
X017925Y023082D02*
X017925Y022482D01*
X018925Y022482D02*
X018925Y023082D01*
X019925Y023082D02*
X019925Y022482D01*
X020925Y022482D02*
X020925Y023082D01*
X020350Y020032D02*
X019750Y020032D01*
X019750Y019032D02*
X020350Y019032D01*
X020350Y018032D02*
X019750Y018032D01*
X010300Y007957D02*
X010300Y007357D01*
X010300Y006582D02*
X010300Y005982D01*
X009300Y005982D02*
X009300Y006582D01*
X009300Y007357D02*
X009300Y007957D01*
X008300Y007957D02*
X008300Y007357D01*
X008300Y006582D02*
X008300Y005982D01*
X008600Y004782D02*
X008000Y004782D01*
X008000Y003782D02*
X008600Y003782D01*
X009375Y003782D02*
X009975Y003782D01*
X010750Y003782D02*
X011350Y003782D01*
X012125Y003782D02*
X012725Y003782D01*
X013500Y003782D02*
X014100Y003782D01*
X014875Y003782D02*
X015475Y003782D01*
X015475Y004782D02*
X014875Y004782D01*
X014100Y004782D02*
X013500Y004782D01*
X012725Y004782D02*
X012125Y004782D01*
X011350Y004782D02*
X010750Y004782D01*
X009975Y004782D02*
X009375Y004782D01*
X009375Y002782D02*
X009975Y002782D01*
X010750Y002782D02*
X011350Y002782D01*
X012125Y002782D02*
X012725Y002782D01*
X013500Y002782D02*
X014100Y002782D01*
X014875Y002782D02*
X015475Y002782D01*
X019375Y002782D02*
X019975Y002782D01*
X020750Y002782D02*
X021350Y002782D01*
X022125Y002782D02*
X022725Y002782D01*
X023500Y002782D02*
X024100Y002782D01*
X024875Y002782D02*
X025475Y002782D01*
X026250Y002782D02*
X026850Y002782D01*
X026850Y003782D02*
X026250Y003782D01*
X025475Y003782D02*
X024875Y003782D01*
X024100Y003782D02*
X023500Y003782D01*
X022725Y003782D02*
X022125Y003782D01*
X021350Y003782D02*
X020750Y003782D01*
X019975Y003782D02*
X019375Y003782D01*
X019375Y004782D02*
X019975Y004782D01*
X020750Y004782D02*
X021350Y004782D01*
X022125Y004782D02*
X022725Y004782D01*
X023500Y004782D02*
X024100Y004782D01*
X024875Y004782D02*
X025475Y004782D01*
X026250Y004782D02*
X026850Y004782D01*
X008600Y002782D02*
X008000Y002782D01*
D12*
X015350Y006998D03*
X015665Y006998D03*
X015980Y006998D03*
X016295Y006998D03*
X016610Y006998D03*
X016925Y006998D03*
X017240Y006998D03*
X017555Y006998D03*
X017870Y006998D03*
X018185Y006998D03*
X018500Y006998D03*
X018500Y011565D03*
X018185Y011565D03*
X017870Y011565D03*
X017555Y011565D03*
X017240Y011565D03*
X016925Y011565D03*
X016610Y011565D03*
X016295Y011565D03*
X015980Y011565D03*
X015665Y011565D03*
X015350Y011565D03*
D13*
X014642Y010856D03*
X014642Y010541D03*
X014642Y010226D03*
X014642Y009911D03*
X014642Y009596D03*
X014642Y009282D03*
X014642Y008967D03*
X014642Y008652D03*
X014642Y008337D03*
X014642Y008022D03*
X014642Y007707D03*
X019208Y007707D03*
X019208Y008022D03*
X019208Y008337D03*
X019208Y008652D03*
X019208Y008967D03*
X019208Y009282D03*
X019208Y009596D03*
X019208Y009911D03*
X019208Y010226D03*
X019208Y010541D03*
X019208Y010856D03*
D14*
X005925Y005937D03*
X005425Y005937D03*
X004925Y005937D03*
X004425Y005937D03*
X004425Y003877D03*
X004925Y003877D03*
X005425Y003877D03*
X005925Y003877D03*
D15*
X002300Y003105D03*
X002300Y006708D03*
D16*
X017425Y004851D03*
X017425Y002962D03*
D17*
X010858Y011158D03*
X009992Y011532D03*
X010858Y011906D03*
D18*
X006948Y008407D03*
X004152Y008407D03*
X004448Y019532D03*
X001652Y019532D03*
D19*
X007175Y012406D03*
X007175Y011658D03*
X006550Y006031D03*
X006550Y005283D03*
X020550Y009033D03*
X020550Y009781D03*
X026050Y009908D03*
X026050Y010656D03*
X028300Y010781D03*
X028300Y010033D03*
X024800Y017970D03*
X024800Y018718D03*
X016425Y020408D03*
X016425Y021156D03*
D20*
X016426Y017282D03*
X017174Y017282D03*
X010799Y014157D03*
X010051Y014157D03*
X010051Y013407D03*
X010799Y013407D03*
X009299Y012282D03*
X008551Y012282D03*
X008551Y011532D03*
X009299Y011532D03*
X008926Y016657D03*
X009674Y016657D03*
D21*
X007424Y017532D03*
X006676Y017532D03*
X009051Y021094D03*
X009799Y021094D03*
X016426Y018282D03*
X017174Y018282D03*
X019926Y014657D03*
X020674Y014657D03*
X019049Y012282D03*
X018301Y012282D03*
X017424Y013032D03*
X016676Y013032D03*
X015924Y013032D03*
X015176Y013032D03*
X014424Y013032D03*
X013676Y013032D03*
X009299Y010782D03*
X008551Y010782D03*
X019676Y011782D03*
X020424Y011782D03*
X021176Y011282D03*
X021924Y011282D03*
X021924Y010532D03*
X021176Y010532D03*
X028801Y006907D03*
X029549Y006907D03*
X029549Y006157D03*
X028801Y006157D03*
D22*
X025175Y006657D03*
X025175Y007657D03*
X025175Y008657D03*
X025175Y009657D03*
X025175Y010657D03*
D23*
X008213Y016657D03*
X007387Y016657D03*
D24*
X018675Y016043D03*
X018675Y015020D03*
X028425Y005293D03*
X028425Y004270D03*
X030050Y004270D03*
X030050Y005293D03*
D25*
X031738Y003656D03*
X031738Y002908D03*
X032863Y002908D03*
X032863Y003656D03*
X032837Y004907D03*
X028300Y008658D03*
X028300Y009406D03*
D26*
X030526Y007532D03*
X030526Y007032D03*
X030526Y006532D03*
X030526Y006032D03*
X032574Y006032D03*
X032574Y006532D03*
X032574Y007032D03*
X032574Y007532D03*
D27*
X031263Y005458D03*
X031263Y004355D03*
D28*
X017800Y017282D03*
X011425Y015657D03*
X009925Y012282D03*
D29*
X007550Y010657D03*
X001488Y008907D03*
X002300Y016344D03*
X002300Y017344D03*
X028425Y003282D03*
X029425Y003282D03*
X030425Y003282D03*
X032675Y009032D03*
X032675Y010032D03*
D30*
X000480Y002061D02*
X000480Y024108D01*
X033945Y024108D01*
X033945Y002061D01*
X000480Y002061D01*
D31*
X001425Y022032D03*
D32*
X001425Y023032D03*
X003425Y023032D03*
D33*
X004425Y023032D03*
X005425Y023032D03*
X006425Y023032D03*
X007425Y023032D03*
X008425Y023032D03*
X009425Y023032D03*
X010425Y023032D03*
X011425Y023032D03*
X012425Y023032D03*
X013425Y023032D03*
X013425Y022032D03*
X012425Y022032D03*
X011425Y022032D03*
X010425Y022032D03*
X009425Y022032D03*
X008425Y022032D03*
X007425Y022032D03*
X006425Y022032D03*
X005425Y022032D03*
X004425Y022032D03*
X003425Y022032D03*
X002425Y022032D03*
X002425Y023032D03*
D34*
X009897Y009157D02*
X009899Y009205D01*
X009905Y009253D01*
X009915Y009300D01*
X009928Y009346D01*
X009946Y009391D01*
X009966Y009435D01*
X009991Y009477D01*
X010019Y009516D01*
X010049Y009553D01*
X010083Y009587D01*
X010120Y009619D01*
X010158Y009648D01*
X010199Y009673D01*
X010242Y009695D01*
X010287Y009713D01*
X010333Y009727D01*
X010380Y009738D01*
X010428Y009745D01*
X010476Y009748D01*
X010524Y009747D01*
X010572Y009742D01*
X010620Y009733D01*
X010666Y009721D01*
X010711Y009704D01*
X010755Y009684D01*
X010797Y009661D01*
X010837Y009634D01*
X010875Y009604D01*
X010910Y009571D01*
X010942Y009535D01*
X010972Y009497D01*
X010998Y009456D01*
X011020Y009413D01*
X011040Y009369D01*
X011055Y009324D01*
X011067Y009277D01*
X011075Y009229D01*
X011079Y009181D01*
X011079Y009133D01*
X011075Y009085D01*
X011067Y009037D01*
X011055Y008990D01*
X011040Y008945D01*
X011020Y008901D01*
X010998Y008858D01*
X010972Y008817D01*
X010942Y008779D01*
X010910Y008743D01*
X010875Y008710D01*
X010837Y008680D01*
X010797Y008653D01*
X010755Y008630D01*
X010711Y008610D01*
X010666Y008593D01*
X010620Y008581D01*
X010572Y008572D01*
X010524Y008567D01*
X010476Y008566D01*
X010428Y008569D01*
X010380Y008576D01*
X010333Y008587D01*
X010287Y008601D01*
X010242Y008619D01*
X010199Y008641D01*
X010158Y008666D01*
X010120Y008695D01*
X010083Y008727D01*
X010049Y008761D01*
X010019Y008798D01*
X009991Y008837D01*
X009966Y008879D01*
X009946Y008923D01*
X009928Y008968D01*
X009915Y009014D01*
X009905Y009061D01*
X009899Y009109D01*
X009897Y009157D01*
X031459Y019157D02*
X031461Y019205D01*
X031467Y019253D01*
X031477Y019300D01*
X031490Y019346D01*
X031508Y019391D01*
X031528Y019435D01*
X031553Y019477D01*
X031581Y019516D01*
X031611Y019553D01*
X031645Y019587D01*
X031682Y019619D01*
X031720Y019648D01*
X031761Y019673D01*
X031804Y019695D01*
X031849Y019713D01*
X031895Y019727D01*
X031942Y019738D01*
X031990Y019745D01*
X032038Y019748D01*
X032086Y019747D01*
X032134Y019742D01*
X032182Y019733D01*
X032228Y019721D01*
X032273Y019704D01*
X032317Y019684D01*
X032359Y019661D01*
X032399Y019634D01*
X032437Y019604D01*
X032472Y019571D01*
X032504Y019535D01*
X032534Y019497D01*
X032560Y019456D01*
X032582Y019413D01*
X032602Y019369D01*
X032617Y019324D01*
X032629Y019277D01*
X032637Y019229D01*
X032641Y019181D01*
X032641Y019133D01*
X032637Y019085D01*
X032629Y019037D01*
X032617Y018990D01*
X032602Y018945D01*
X032582Y018901D01*
X032560Y018858D01*
X032534Y018817D01*
X032504Y018779D01*
X032472Y018743D01*
X032437Y018710D01*
X032399Y018680D01*
X032359Y018653D01*
X032317Y018630D01*
X032273Y018610D01*
X032228Y018593D01*
X032182Y018581D01*
X032134Y018572D01*
X032086Y018567D01*
X032038Y018566D01*
X031990Y018569D01*
X031942Y018576D01*
X031895Y018587D01*
X031849Y018601D01*
X031804Y018619D01*
X031761Y018641D01*
X031720Y018666D01*
X031682Y018695D01*
X031645Y018727D01*
X031611Y018761D01*
X031581Y018798D01*
X031553Y018837D01*
X031528Y018879D01*
X031508Y018923D01*
X031490Y018968D01*
X031477Y019014D01*
X031467Y019061D01*
X031461Y019109D01*
X031459Y019157D01*
D35*
X032050Y019157D03*
X010488Y009157D03*
D36*
X014113Y009907D03*
X014113Y010219D03*
X014113Y010532D03*
X014113Y008344D03*
X014113Y008032D03*
D37*
X028413Y007907D03*
X029437Y007907D03*
D38*
X029355Y009657D03*
X031245Y009657D03*
D39*
X028050Y012947D03*
X027550Y012947D03*
X027050Y012947D03*
X026550Y012947D03*
X026550Y015367D03*
X027050Y015367D03*
X027550Y015367D03*
X028050Y015367D03*
D40*
X025988Y013157D03*
X024988Y013157D03*
D41*
X023175Y012782D03*
X023175Y013782D03*
X022175Y013782D03*
X021175Y013782D03*
X020175Y013782D03*
X020175Y012782D03*
X021175Y012782D03*
X022175Y012782D03*
X014425Y019157D03*
X013425Y019157D03*
X012425Y019157D03*
X011425Y019157D03*
X010425Y019157D03*
X010425Y020157D03*
X011425Y020157D03*
X012425Y020157D03*
X013425Y020157D03*
X014425Y020157D03*
X022675Y021782D03*
X023675Y021782D03*
X024675Y021782D03*
X025675Y021782D03*
X026675Y021782D03*
X026675Y022782D03*
X025675Y022782D03*
X024675Y022782D03*
X023675Y022782D03*
X022675Y022782D03*
X028800Y022782D03*
X029800Y022782D03*
X030800Y022782D03*
X031800Y022782D03*
X032800Y022782D03*
X032800Y021782D03*
X031800Y021782D03*
X030800Y021782D03*
X029800Y021782D03*
X028800Y021782D03*
D42*
X028852Y020695D03*
X028852Y020439D03*
X028852Y020183D03*
X028852Y019927D03*
X028852Y019671D03*
X028852Y019415D03*
X028852Y019159D03*
X028852Y018904D03*
X028852Y018648D03*
X028852Y018392D03*
X028852Y018136D03*
X028852Y017880D03*
X028852Y017624D03*
X028852Y017368D03*
X025998Y017368D03*
X025998Y017624D03*
X025998Y017880D03*
X025998Y018136D03*
X025998Y018392D03*
X025998Y018648D03*
X025998Y018904D03*
X025998Y019159D03*
X025998Y019415D03*
X025998Y019671D03*
X025998Y019927D03*
X025998Y020183D03*
X025998Y020439D03*
X025998Y020695D03*
D43*
X009074Y020558D03*
X009074Y020302D03*
X009074Y020046D03*
X009074Y019790D03*
X009074Y019534D03*
X009074Y019279D03*
X009074Y019023D03*
X009074Y018767D03*
X009074Y018511D03*
X009074Y018255D03*
X006776Y018255D03*
X006776Y018511D03*
X006776Y018767D03*
X006776Y019023D03*
X006776Y019279D03*
X006776Y019534D03*
X006776Y019790D03*
X006776Y020046D03*
X006776Y020302D03*
X006776Y020558D03*
D44*
X031425Y014782D03*
D45*
X031425Y017382D03*
X031425Y012182D03*
D46*
X019202Y018883D03*
X018946Y018883D03*
X018690Y018883D03*
X018434Y018883D03*
X018178Y018883D03*
X017922Y018883D03*
X017666Y018883D03*
X017410Y018883D03*
X017154Y018883D03*
X016898Y018883D03*
X016898Y021180D03*
X017154Y021180D03*
X017410Y021180D03*
X017666Y021180D03*
X017922Y021180D03*
X018178Y021180D03*
X018434Y021180D03*
X018690Y021180D03*
X018946Y021180D03*
X019202Y021180D03*
D47*
X006300Y016187D02*
X006300Y015627D01*
X005300Y015627D02*
X005300Y016187D01*
D48*
X002910Y014750D02*
X002205Y014750D01*
X002205Y012782D02*
X002910Y012782D01*
X002910Y010813D02*
X002205Y010813D01*
M02*
