G75*
G70*
%OFA0B0*%
%FSLAX24Y24*%
%IPPOS*%
%LPD*%
%AMOC8*
5,1,8,0,0,1.08239X$1,22.5*
%
%ADD10C,0.0600*%
%ADD11C,0.0787*%
%ADD12C,0.0760*%
%ADD13OC8,0.0850*%
%ADD14C,0.0050*%
%ADD15R,0.0594X0.0594*%
%ADD16C,0.0660*%
%ADD17C,0.0594*%
%ADD18C,0.0000*%
%ADD19R,0.0460X0.0630*%
%ADD20C,0.0520*%
%ADD21R,0.0630X0.0460*%
%ADD22OC8,0.0600*%
%ADD23R,0.1560X0.1560*%
%ADD24C,0.1250*%
%ADD25C,0.0560*%
%ADD26C,0.0705*%
%ADD27C,0.0560*%
%ADD28C,0.0100*%
%ADD29C,0.0160*%
D10*
X008000Y002782D02*
X008600Y002782D01*
X009375Y002782D02*
X009975Y002782D01*
X010750Y002782D02*
X011350Y002782D01*
X012125Y002782D02*
X012725Y002782D01*
X013500Y002782D02*
X014100Y002782D01*
X014875Y002782D02*
X015475Y002782D01*
X015475Y003782D02*
X014875Y003782D01*
X014100Y003782D02*
X013500Y003782D01*
X012725Y003782D02*
X012125Y003782D01*
X011350Y003782D02*
X010750Y003782D01*
X009975Y003782D02*
X009375Y003782D01*
X008600Y003782D02*
X008000Y003782D01*
X008000Y004782D02*
X008600Y004782D01*
X009375Y004782D02*
X009975Y004782D01*
X010750Y004782D02*
X011350Y004782D01*
X012125Y004782D02*
X012725Y004782D01*
X013500Y004782D02*
X014100Y004782D01*
X014875Y004782D02*
X015475Y004782D01*
X019375Y004782D02*
X019975Y004782D01*
X020750Y004782D02*
X021350Y004782D01*
X022125Y004782D02*
X022725Y004782D01*
X023500Y004782D02*
X024100Y004782D01*
X024875Y004782D02*
X025475Y004782D01*
X026250Y004782D02*
X026850Y004782D01*
X026850Y003782D02*
X026250Y003782D01*
X025475Y003782D02*
X024875Y003782D01*
X024100Y003782D02*
X023500Y003782D01*
X022725Y003782D02*
X022125Y003782D01*
X021350Y003782D02*
X020750Y003782D01*
X019975Y003782D02*
X019375Y003782D01*
X019375Y002782D02*
X019975Y002782D01*
X020750Y002782D02*
X021350Y002782D01*
X022125Y002782D02*
X022725Y002782D01*
X023500Y002782D02*
X024100Y002782D01*
X024875Y002782D02*
X025475Y002782D01*
X026250Y002782D02*
X026850Y002782D01*
X010300Y005982D02*
X010300Y006582D01*
X010300Y007357D02*
X010300Y007957D01*
X009300Y007957D02*
X009300Y007357D01*
X009300Y006582D02*
X009300Y005982D01*
X008300Y005982D02*
X008300Y006582D01*
X008300Y007357D02*
X008300Y007957D01*
X011425Y016982D02*
X011425Y017582D01*
X012425Y017582D02*
X012425Y016982D01*
X013425Y016982D02*
X013425Y017582D01*
X014425Y017582D02*
X014425Y016982D01*
X019750Y018032D02*
X020350Y018032D01*
X020350Y019032D02*
X019750Y019032D01*
X019750Y020032D02*
X020350Y020032D01*
X019925Y022482D02*
X019925Y023082D01*
X018925Y023082D02*
X018925Y022482D01*
X017925Y022482D02*
X017925Y023082D01*
X016925Y023082D02*
X016925Y022482D01*
X015925Y022482D02*
X015925Y023082D01*
X014925Y023082D02*
X014925Y022482D01*
X020925Y022482D02*
X020925Y023082D01*
D11*
X020550Y007157D03*
X019550Y007157D03*
X018550Y007157D03*
X017550Y007157D03*
X016550Y007157D03*
D12*
X025175Y007657D03*
X025175Y008657D03*
X025175Y009657D03*
X025175Y010657D03*
X025175Y006657D03*
D13*
X028425Y003282D03*
X029425Y003282D03*
X030425Y003282D03*
X032675Y009032D03*
X032675Y010032D03*
X007550Y010657D03*
X001488Y008907D03*
X002300Y016344D03*
X002300Y017344D03*
D14*
X000480Y024108D02*
X000480Y002061D01*
X033945Y002061D01*
X033945Y024108D01*
X000480Y024108D01*
D15*
X001425Y022032D03*
D16*
X001425Y023032D03*
X003425Y023032D03*
D17*
X004425Y023032D03*
X005425Y023032D03*
X006425Y023032D03*
X007425Y023032D03*
X008425Y023032D03*
X009425Y023032D03*
X010425Y023032D03*
X011425Y023032D03*
X012425Y023032D03*
X013425Y023032D03*
X013425Y022032D03*
X012425Y022032D03*
X011425Y022032D03*
X010425Y022032D03*
X009425Y022032D03*
X008425Y022032D03*
X007425Y022032D03*
X006425Y022032D03*
X005425Y022032D03*
X004425Y022032D03*
X003425Y022032D03*
X002425Y022032D03*
X002425Y023032D03*
D18*
X009897Y009157D02*
X009899Y009205D01*
X009905Y009253D01*
X009915Y009300D01*
X009928Y009346D01*
X009946Y009391D01*
X009966Y009435D01*
X009991Y009477D01*
X010019Y009516D01*
X010049Y009553D01*
X010083Y009587D01*
X010120Y009619D01*
X010158Y009648D01*
X010199Y009673D01*
X010242Y009695D01*
X010287Y009713D01*
X010333Y009727D01*
X010380Y009738D01*
X010428Y009745D01*
X010476Y009748D01*
X010524Y009747D01*
X010572Y009742D01*
X010620Y009733D01*
X010666Y009721D01*
X010711Y009704D01*
X010755Y009684D01*
X010797Y009661D01*
X010837Y009634D01*
X010875Y009604D01*
X010910Y009571D01*
X010942Y009535D01*
X010972Y009497D01*
X010998Y009456D01*
X011020Y009413D01*
X011040Y009369D01*
X011055Y009324D01*
X011067Y009277D01*
X011075Y009229D01*
X011079Y009181D01*
X011079Y009133D01*
X011075Y009085D01*
X011067Y009037D01*
X011055Y008990D01*
X011040Y008945D01*
X011020Y008901D01*
X010998Y008858D01*
X010972Y008817D01*
X010942Y008779D01*
X010910Y008743D01*
X010875Y008710D01*
X010837Y008680D01*
X010797Y008653D01*
X010755Y008630D01*
X010711Y008610D01*
X010666Y008593D01*
X010620Y008581D01*
X010572Y008572D01*
X010524Y008567D01*
X010476Y008566D01*
X010428Y008569D01*
X010380Y008576D01*
X010333Y008587D01*
X010287Y008601D01*
X010242Y008619D01*
X010199Y008641D01*
X010158Y008666D01*
X010120Y008695D01*
X010083Y008727D01*
X010049Y008761D01*
X010019Y008798D01*
X009991Y008837D01*
X009966Y008879D01*
X009946Y008923D01*
X009928Y008968D01*
X009915Y009014D01*
X009905Y009061D01*
X009899Y009109D01*
X009897Y009157D01*
X031459Y019157D02*
X031461Y019205D01*
X031467Y019253D01*
X031477Y019300D01*
X031490Y019346D01*
X031508Y019391D01*
X031528Y019435D01*
X031553Y019477D01*
X031581Y019516D01*
X031611Y019553D01*
X031645Y019587D01*
X031682Y019619D01*
X031720Y019648D01*
X031761Y019673D01*
X031804Y019695D01*
X031849Y019713D01*
X031895Y019727D01*
X031942Y019738D01*
X031990Y019745D01*
X032038Y019748D01*
X032086Y019747D01*
X032134Y019742D01*
X032182Y019733D01*
X032228Y019721D01*
X032273Y019704D01*
X032317Y019684D01*
X032359Y019661D01*
X032399Y019634D01*
X032437Y019604D01*
X032472Y019571D01*
X032504Y019535D01*
X032534Y019497D01*
X032560Y019456D01*
X032582Y019413D01*
X032602Y019369D01*
X032617Y019324D01*
X032629Y019277D01*
X032637Y019229D01*
X032641Y019181D01*
X032641Y019133D01*
X032637Y019085D01*
X032629Y019037D01*
X032617Y018990D01*
X032602Y018945D01*
X032582Y018901D01*
X032560Y018858D01*
X032534Y018817D01*
X032504Y018779D01*
X032472Y018743D01*
X032437Y018710D01*
X032399Y018680D01*
X032359Y018653D01*
X032317Y018630D01*
X032273Y018610D01*
X032228Y018593D01*
X032182Y018581D01*
X032134Y018572D01*
X032086Y018567D01*
X032038Y018566D01*
X031990Y018569D01*
X031942Y018576D01*
X031895Y018587D01*
X031849Y018601D01*
X031804Y018619D01*
X031761Y018641D01*
X031720Y018666D01*
X031682Y018695D01*
X031645Y018727D01*
X031611Y018761D01*
X031581Y018798D01*
X031553Y018837D01*
X031528Y018879D01*
X031508Y018923D01*
X031490Y018968D01*
X031477Y019014D01*
X031467Y019061D01*
X031461Y019109D01*
X031459Y019157D01*
D19*
X018900Y019157D03*
X018300Y019157D03*
X017700Y019157D03*
X023750Y007657D03*
X024350Y007657D03*
D20*
X024988Y013157D03*
X025988Y013157D03*
D21*
X003925Y016357D03*
X003925Y016957D03*
D22*
X010425Y019157D03*
X011425Y019157D03*
X012425Y019157D03*
X013425Y019157D03*
X014425Y019157D03*
X014425Y020157D03*
X013425Y020157D03*
X012425Y020157D03*
X011425Y020157D03*
X010425Y020157D03*
X020175Y013782D03*
X021175Y013782D03*
X022175Y013782D03*
X023175Y013782D03*
X023175Y012782D03*
X022175Y012782D03*
X021175Y012782D03*
X020175Y012782D03*
X022675Y021782D03*
X023675Y021782D03*
X024675Y021782D03*
X025675Y021782D03*
X026675Y021782D03*
X026675Y022782D03*
X025675Y022782D03*
X024675Y022782D03*
X023675Y022782D03*
X022675Y022782D03*
X028800Y022782D03*
X029800Y022782D03*
X030800Y022782D03*
X031800Y022782D03*
X032800Y022782D03*
X032800Y021782D03*
X031800Y021782D03*
X030800Y021782D03*
X029800Y021782D03*
X028800Y021782D03*
D23*
X031425Y014782D03*
D24*
X031425Y017382D03*
X031425Y012182D03*
D25*
X009300Y008407D02*
X009300Y007657D01*
X009300Y006282D01*
X009300Y008407D02*
X008925Y008782D01*
X007050Y008782D01*
X006300Y008032D01*
X006300Y002907D01*
X006300Y015627D02*
X006300Y016187D01*
X005300Y016187D02*
X005300Y015627D01*
D26*
X002910Y014750D02*
X002205Y014750D01*
X002205Y012782D02*
X002910Y012782D01*
X002910Y010813D02*
X002205Y010813D01*
D27*
X004425Y006782D03*
X007175Y004657D03*
X006300Y002907D03*
X007300Y002782D03*
X013300Y006157D03*
X013550Y008219D03*
X013175Y008782D03*
X012675Y009282D03*
X012675Y009969D03*
X014800Y012032D03*
X017050Y010282D03*
X017300Y009532D03*
X017925Y008907D03*
X017675Y008157D03*
X018175Y009907D03*
X019050Y011532D03*
X018550Y013907D03*
X022050Y011907D03*
X025300Y011907D03*
X024550Y015532D03*
X025425Y015907D03*
X026175Y016657D03*
X025300Y017407D03*
X027550Y016157D03*
X028050Y016657D03*
X030050Y018157D03*
X029550Y018657D03*
X028175Y019407D03*
X027925Y018657D03*
X026800Y020125D03*
X024425Y020532D03*
X021425Y021532D03*
X020675Y021532D03*
X018925Y020157D03*
X017925Y020532D03*
X017175Y020532D03*
X017925Y018282D03*
X018675Y018282D03*
X021050Y018032D03*
X023050Y016407D03*
X015550Y017282D03*
X010550Y016657D03*
X010300Y017782D03*
X009800Y018282D03*
X008550Y019532D03*
X008425Y020532D03*
X009675Y019782D03*
X010549Y021157D03*
X012925Y022532D03*
X007363Y018844D03*
X007488Y018219D03*
X005175Y018032D03*
X002425Y020532D03*
X001425Y021157D03*
X001175Y018657D03*
X006300Y021157D03*
X010425Y014907D03*
X011675Y012907D03*
X009300Y010157D03*
X008550Y009657D03*
X007925Y011532D03*
X022925Y006782D03*
X026800Y007157D03*
X027800Y023157D03*
D28*
X029300Y022032D02*
X029550Y022282D01*
X030050Y022282D01*
X030300Y022532D01*
X030300Y023532D01*
X030675Y022282D02*
X031300Y022282D01*
X031800Y022782D01*
X032300Y022282D02*
X032800Y022782D01*
X032300Y022282D02*
X032300Y021532D01*
X032050Y021282D01*
X031050Y021282D01*
X028425Y018657D01*
X027925Y018657D01*
X027550Y018157D02*
X026050Y019657D01*
X022550Y019657D01*
X021425Y020782D01*
X021425Y021532D01*
X020675Y021532D02*
X020675Y021157D01*
X022425Y019407D01*
X025925Y019407D01*
X027550Y017782D01*
X028300Y017782D01*
X028675Y018157D01*
X030050Y018157D01*
X029550Y018657D02*
X028800Y018657D01*
X028300Y018157D01*
X027550Y018157D01*
X026800Y017532D02*
X025425Y017532D01*
X025300Y017407D01*
X024925Y017782D01*
X022425Y017782D01*
X021800Y017157D01*
X016800Y017157D01*
X015925Y018032D01*
X015175Y018032D01*
X014675Y018532D01*
X014175Y018532D01*
X013925Y018782D01*
X013925Y019407D01*
X013675Y019657D01*
X013425Y019657D01*
X013175Y019657D01*
X012925Y019407D01*
X012925Y018907D01*
X012675Y018657D01*
X010175Y018657D01*
X009800Y018282D01*
X010300Y017782D02*
X010800Y018282D01*
X013050Y018282D01*
X013425Y018657D01*
X013925Y018157D01*
X014675Y018157D01*
X015050Y017782D01*
X015800Y017782D01*
X016675Y016907D01*
X021925Y016907D01*
X022550Y017532D01*
X024425Y017532D01*
X025050Y016907D01*
X025675Y016907D01*
X025925Y017157D01*
X026550Y017157D01*
X027550Y016157D01*
X027550Y013657D01*
X026175Y012282D01*
X026175Y009907D01*
X025925Y009657D01*
X025175Y009657D01*
X024425Y009032D02*
X024425Y015032D01*
X024550Y015157D01*
X024550Y015532D01*
X023514Y014443D02*
X019300Y014443D01*
X019300Y014541D02*
X023415Y014541D01*
X023317Y014640D02*
X019300Y014640D01*
X019300Y014657D02*
X019925Y015282D01*
X021425Y015282D01*
X022050Y014657D01*
X023300Y014657D01*
X023800Y014157D01*
X023800Y010157D01*
X022800Y009157D01*
X022767Y009124D02*
X019458Y009124D01*
X019359Y009222D02*
X022866Y009222D01*
X022964Y009321D02*
X019261Y009321D01*
X019162Y009419D02*
X023063Y009419D01*
X023161Y009518D02*
X019064Y009518D01*
X018965Y009616D02*
X023260Y009616D01*
X023358Y009715D02*
X018867Y009715D01*
X018800Y009782D02*
X018800Y010782D01*
X018550Y011032D01*
X017675Y011032D01*
X017675Y012532D01*
X018540Y013397D01*
X018622Y013397D01*
X019412Y012606D01*
X019499Y012519D01*
X019608Y012474D01*
X019800Y012282D01*
X019925Y012282D01*
X019955Y012252D01*
X020395Y012252D01*
X020425Y012282D01*
X020675Y012532D01*
X020955Y012252D01*
X021395Y012252D01*
X021675Y012532D01*
X021955Y012252D01*
X022395Y012252D01*
X022675Y012532D01*
X022955Y012252D01*
X023395Y012252D01*
X023705Y012562D01*
X023705Y013001D01*
X023425Y013282D01*
X023705Y013562D01*
X023705Y014001D01*
X023395Y014312D01*
X022955Y014312D01*
X022675Y014031D01*
X022395Y014312D01*
X021955Y014312D01*
X021675Y014031D01*
X021395Y014312D01*
X020955Y014312D01*
X020645Y014001D01*
X020645Y013562D01*
X020925Y013282D01*
X020675Y013031D01*
X020675Y013032D01*
X020425Y013282D01*
X020425Y013282D01*
X020675Y013032D01*
X020675Y012532D01*
X020675Y012532D01*
X020425Y012282D01*
X020425Y012282D01*
X019800Y012282D01*
X018675Y013407D01*
X018550Y013407D01*
X017675Y012532D01*
X017675Y011032D01*
X018550Y011032D01*
X018800Y010782D01*
X018800Y009782D01*
X020050Y008532D01*
X018800Y009782D01*
X018800Y009813D02*
X023457Y009813D01*
X023555Y009912D02*
X018800Y009912D01*
X018800Y010010D02*
X023654Y010010D01*
X023752Y010109D02*
X018800Y010109D01*
X018800Y010207D02*
X023800Y010207D01*
X023800Y010157D02*
X022175Y008532D01*
X020050Y008532D01*
X022175Y008532D01*
X022176Y008533D02*
X020049Y008533D01*
X019950Y008631D02*
X022275Y008631D01*
X022373Y008730D02*
X019852Y008730D01*
X019753Y008828D02*
X022472Y008828D01*
X022570Y008927D02*
X019655Y008927D01*
X019556Y009025D02*
X022669Y009025D01*
X023750Y008357D02*
X024425Y009032D01*
X025175Y008657D02*
X025925Y008657D01*
X026550Y009282D01*
X026550Y012157D01*
X028050Y013657D01*
X028050Y016657D01*
X027675Y016657D01*
X026800Y017532D01*
X026175Y016657D02*
X024925Y016657D01*
X024300Y017282D01*
X022675Y017282D01*
X022050Y016657D01*
X016175Y016657D01*
X015550Y017282D01*
X016550Y016407D02*
X023050Y016407D01*
X021574Y015132D02*
X019776Y015132D01*
X019874Y015231D02*
X021476Y015231D01*
X021425Y015282D02*
X019925Y015282D01*
X019300Y014657D01*
X019300Y014157D01*
X019060Y013917D01*
X019060Y013835D01*
X019613Y013282D01*
X019925Y013282D01*
X019955Y013312D01*
X020395Y013312D01*
X020425Y013282D01*
X019550Y013282D01*
X019050Y013782D01*
X019050Y013907D01*
X019300Y014157D01*
X019300Y014657D01*
X019382Y014738D02*
X021968Y014738D01*
X022050Y014657D02*
X021425Y015282D01*
X021673Y015034D02*
X019677Y015034D01*
X019579Y014935D02*
X021771Y014935D01*
X021870Y014837D02*
X019480Y014837D01*
X019300Y014344D02*
X023612Y014344D01*
X023711Y014246D02*
X023461Y014246D01*
X023559Y014147D02*
X023800Y014147D01*
X023800Y014157D02*
X023300Y014657D01*
X022050Y014657D01*
X021889Y014246D02*
X021461Y014246D01*
X021559Y014147D02*
X021791Y014147D01*
X021692Y014049D02*
X021658Y014049D01*
X021675Y014282D02*
X021675Y012282D01*
X021517Y012374D02*
X021833Y012374D01*
X021931Y012276D02*
X021419Y012276D01*
X021616Y012473D02*
X021734Y012473D01*
X022419Y012276D02*
X022931Y012276D01*
X022833Y012374D02*
X022517Y012374D01*
X022616Y012473D02*
X022734Y012473D01*
X022675Y012282D02*
X022675Y014282D01*
X022559Y014147D02*
X022791Y014147D01*
X022692Y014049D02*
X022658Y014049D01*
X022461Y014246D02*
X022889Y014246D01*
X023658Y014049D02*
X023800Y014049D01*
X023800Y013950D02*
X023705Y013950D01*
X023705Y013852D02*
X023800Y013852D01*
X023800Y013753D02*
X023705Y013753D01*
X023705Y013655D02*
X023800Y013655D01*
X023800Y013556D02*
X023699Y013556D01*
X023601Y013458D02*
X023800Y013458D01*
X023800Y013359D02*
X023502Y013359D01*
X023550Y013282D02*
X020800Y013282D01*
X020848Y013359D02*
X020389Y013359D01*
X020361Y013332D02*
X020625Y013595D01*
X020625Y013732D01*
X020225Y013732D01*
X020225Y013832D01*
X020125Y013832D01*
X020125Y014232D01*
X019989Y014232D01*
X019725Y013968D01*
X019725Y013832D01*
X020125Y013832D01*
X020125Y013732D01*
X019725Y013732D01*
X019725Y013595D01*
X019989Y013332D01*
X020125Y013332D01*
X020125Y013732D01*
X020225Y013732D01*
X020225Y013332D01*
X020361Y013332D01*
X020446Y013261D02*
X020904Y013261D01*
X020806Y013162D02*
X020544Y013162D01*
X020643Y013064D02*
X020707Y013064D01*
X020749Y013458D02*
X020487Y013458D01*
X020586Y013556D02*
X020651Y013556D01*
X020645Y013655D02*
X020625Y013655D01*
X020645Y013753D02*
X020225Y013753D01*
X020225Y013832D02*
X020625Y013832D01*
X020625Y013968D01*
X020361Y014232D01*
X020225Y014232D01*
X020225Y013832D01*
X020225Y013852D02*
X020125Y013852D01*
X020125Y013950D02*
X020225Y013950D01*
X020225Y014049D02*
X020125Y014049D01*
X020125Y014147D02*
X020225Y014147D01*
X020446Y014147D02*
X020791Y014147D01*
X020692Y014049D02*
X020544Y014049D01*
X020625Y013950D02*
X020645Y013950D01*
X020645Y013852D02*
X020625Y013852D01*
X020225Y013655D02*
X020125Y013655D01*
X020125Y013753D02*
X019142Y013753D01*
X019060Y013852D02*
X019725Y013852D01*
X019725Y013950D02*
X019094Y013950D01*
X019192Y014049D02*
X019806Y014049D01*
X019904Y014147D02*
X019291Y014147D01*
X019300Y014246D02*
X020889Y014246D01*
X020225Y013556D02*
X020125Y013556D01*
X020125Y013458D02*
X020225Y013458D01*
X020225Y013359D02*
X020125Y013359D01*
X019961Y013359D02*
X019536Y013359D01*
X019437Y013458D02*
X019863Y013458D01*
X019764Y013556D02*
X019339Y013556D01*
X019240Y013655D02*
X019725Y013655D01*
X018955Y013064D02*
X018207Y013064D01*
X018306Y013162D02*
X018856Y013162D01*
X018758Y013261D02*
X018404Y013261D01*
X018503Y013359D02*
X018659Y013359D01*
X019053Y012965D02*
X018109Y012965D01*
X018010Y012867D02*
X019152Y012867D01*
X019250Y012768D02*
X017912Y012768D01*
X017813Y012670D02*
X019349Y012670D01*
X019447Y012571D02*
X017715Y012571D01*
X017675Y012473D02*
X019609Y012473D01*
X019707Y012374D02*
X017675Y012374D01*
X017675Y012276D02*
X019931Y012276D01*
X020419Y012276D02*
X020931Y012276D01*
X020833Y012374D02*
X020518Y012374D01*
X020616Y012473D02*
X020734Y012473D01*
X018783Y010798D02*
X023800Y010798D01*
X023800Y010700D02*
X018800Y010700D01*
X018800Y010601D02*
X023800Y010601D01*
X023800Y010503D02*
X018800Y010503D01*
X018800Y010404D02*
X023800Y010404D01*
X023800Y010306D02*
X018800Y010306D01*
X018685Y010897D02*
X023800Y010897D01*
X023800Y010995D02*
X018586Y010995D01*
X017675Y011094D02*
X023800Y011094D01*
X023800Y011192D02*
X017675Y011192D01*
X017675Y011291D02*
X023800Y011291D01*
X023800Y011389D02*
X017675Y011389D01*
X017675Y011488D02*
X023800Y011488D01*
X023800Y011586D02*
X017675Y011586D01*
X017675Y011685D02*
X023800Y011685D01*
X023800Y011783D02*
X017675Y011783D01*
X017675Y011882D02*
X023800Y011882D01*
X023800Y011980D02*
X017675Y011980D01*
X017675Y012079D02*
X023800Y012079D01*
X023800Y012177D02*
X017675Y012177D01*
X016425Y010907D02*
X008300Y010907D01*
X008050Y010657D01*
X007550Y010657D01*
X005675Y010657D01*
X004425Y009407D01*
X004425Y006782D01*
X008300Y005157D02*
X008300Y004782D01*
X008300Y005157D02*
X008550Y005407D01*
X009675Y005407D01*
X009800Y005532D01*
X011800Y005532D01*
X012050Y005782D01*
X012050Y007782D01*
X012738Y008469D01*
X012863Y008469D01*
X013175Y008782D01*
X012550Y008657D02*
X012550Y009157D01*
X012675Y009282D01*
X012175Y009594D02*
X012175Y008657D01*
X011550Y008032D01*
X011550Y007782D01*
X011425Y007657D01*
X010300Y007657D01*
X011800Y007907D02*
X011800Y006532D01*
X011550Y006282D01*
X010300Y006282D01*
X009925Y005282D02*
X009675Y005032D01*
X009675Y004782D01*
X009925Y005282D02*
X011925Y005282D01*
X012300Y005657D01*
X012300Y007657D01*
X012863Y008219D01*
X013550Y008219D01*
X012550Y008657D02*
X011800Y007907D01*
X012175Y009594D02*
X012550Y009969D01*
X012675Y009969D01*
X014800Y012032D02*
X015300Y012532D01*
X015300Y015157D01*
X016550Y016407D01*
X017925Y018282D02*
X017700Y018507D01*
X017700Y019157D01*
X018300Y019157D02*
X018300Y019782D01*
X018425Y019907D01*
X018675Y019657D01*
X019300Y019657D01*
X019425Y019532D01*
X019925Y019532D01*
X020050Y019407D01*
X020050Y019032D01*
X020550Y018532D02*
X018900Y018532D01*
X018900Y018507D01*
X018675Y018282D01*
X018900Y018532D02*
X018900Y019157D01*
X018425Y019907D02*
X018425Y020907D01*
X017800Y021532D01*
X014675Y021532D01*
X013425Y022782D01*
X013425Y023032D01*
X013800Y023532D02*
X014050Y023282D01*
X014050Y022532D01*
X014800Y021782D01*
X018050Y021782D01*
X018925Y020907D01*
X018925Y020157D01*
X019300Y021032D02*
X020300Y021032D01*
X021175Y020157D01*
X021175Y018157D01*
X021050Y018032D01*
X020550Y018532D02*
X020800Y018782D01*
X020800Y019907D01*
X020675Y020032D01*
X020050Y020032D01*
X019300Y021032D02*
X018300Y022032D01*
X015675Y022032D01*
X015425Y022282D01*
X015425Y023407D01*
X015050Y023782D01*
X006300Y023782D01*
X005925Y023407D01*
X005925Y021532D01*
X006300Y021157D01*
X006300Y018606D01*
X006651Y018255D01*
X007452Y018255D01*
X007488Y018219D01*
X007363Y018844D02*
X007363Y021094D01*
X007925Y021657D01*
X007925Y022282D01*
X008175Y022532D01*
X008925Y022532D01*
X009425Y023032D01*
X011425Y023032D02*
X011925Y022532D01*
X011925Y021157D01*
X012425Y020657D01*
X012425Y020157D01*
X011675Y019657D02*
X010175Y019657D01*
X009800Y019282D01*
X008800Y019282D01*
X008550Y019532D01*
X007988Y018907D02*
X007738Y019157D01*
X007738Y020219D01*
X008050Y020532D01*
X008425Y020532D01*
X009675Y020157D02*
X009675Y019782D01*
X009675Y020157D02*
X010175Y020657D01*
X010925Y020657D01*
X011425Y020157D01*
X011675Y019657D02*
X011925Y019407D01*
X011925Y019282D01*
X012050Y019157D01*
X012425Y019157D01*
X013425Y019157D02*
X013425Y018657D01*
X013425Y019657D02*
X013425Y020157D01*
X014425Y020157D02*
X016800Y020157D01*
X017175Y020532D01*
X017925Y020532D02*
X017925Y020907D01*
X017675Y021157D01*
X013300Y021157D01*
X012925Y021532D01*
X012925Y022532D01*
X013800Y023532D02*
X006925Y023532D01*
X006425Y023032D01*
X005425Y023032D02*
X004925Y022532D01*
X004925Y021657D01*
X006050Y020532D01*
X006050Y018532D01*
X008550Y016032D01*
X009425Y016032D01*
X010425Y015032D01*
X010425Y014907D01*
X010925Y015157D02*
X009675Y016407D01*
X008675Y016407D01*
X007988Y017094D01*
X007988Y018907D01*
X006050Y016907D02*
X006300Y016657D01*
X006300Y015907D01*
X006300Y013157D01*
X007925Y011532D01*
X009300Y010157D02*
X009675Y010532D01*
X015675Y010532D01*
X016675Y009532D01*
X017300Y009532D01*
X017925Y008907D02*
X018175Y008657D01*
X018175Y007782D01*
X017550Y007157D01*
X016550Y007157D02*
X016550Y007782D01*
X016925Y008157D01*
X017675Y008157D01*
X018175Y009532D02*
X018175Y009907D01*
X018175Y009532D02*
X020550Y007157D01*
X019550Y007157D02*
X019550Y006157D01*
X023750Y007657D02*
X023750Y008357D01*
X024350Y007657D02*
X025175Y007657D01*
X027425Y007646D02*
X033675Y007646D01*
X033675Y007548D02*
X027425Y007548D01*
X027425Y007449D02*
X033675Y007449D01*
X033675Y007351D02*
X027425Y007351D01*
X027425Y007252D02*
X033675Y007252D01*
X033675Y007154D02*
X027425Y007154D01*
X027425Y007055D02*
X033675Y007055D01*
X033675Y006957D02*
X027425Y006957D01*
X027425Y006858D02*
X033675Y006858D01*
X033675Y006760D02*
X027447Y006760D01*
X027425Y006782D02*
X027425Y011032D01*
X033675Y011032D01*
X033675Y002316D01*
X027675Y002316D01*
X027675Y006532D01*
X027425Y006782D01*
X027545Y006661D02*
X033675Y006661D01*
X033675Y006563D02*
X027644Y006563D01*
X027675Y006464D02*
X033675Y006464D01*
X033675Y006366D02*
X027675Y006366D01*
X027675Y006267D02*
X033675Y006267D01*
X033675Y006169D02*
X027675Y006169D01*
X027675Y006070D02*
X033675Y006070D01*
X033675Y005972D02*
X027675Y005972D01*
X027675Y005873D02*
X033675Y005873D01*
X033675Y005775D02*
X027675Y005775D01*
X027675Y005676D02*
X033675Y005676D01*
X033675Y005578D02*
X027675Y005578D01*
X027675Y005479D02*
X033675Y005479D01*
X033675Y005381D02*
X027675Y005381D01*
X027675Y005282D02*
X033675Y005282D01*
X033675Y005184D02*
X027675Y005184D01*
X027675Y005085D02*
X033675Y005085D01*
X033675Y004987D02*
X027675Y004987D01*
X027675Y004888D02*
X033675Y004888D01*
X033675Y004790D02*
X027675Y004790D01*
X027675Y004691D02*
X033675Y004691D01*
X033675Y004593D02*
X027675Y004593D01*
X027675Y004494D02*
X033675Y004494D01*
X033675Y004396D02*
X027675Y004396D01*
X027675Y004297D02*
X033675Y004297D01*
X033675Y004199D02*
X027675Y004199D01*
X027675Y004100D02*
X033675Y004100D01*
X033675Y004002D02*
X027675Y004002D01*
X027675Y003903D02*
X028120Y003903D01*
X028154Y003937D02*
X027770Y003553D01*
X027770Y003010D01*
X028154Y002627D01*
X028696Y002627D01*
X028925Y002855D01*
X029154Y002627D01*
X029696Y002627D01*
X029982Y002912D01*
X030187Y002707D01*
X030375Y002707D01*
X030375Y003232D01*
X030475Y003232D01*
X030475Y003332D01*
X030375Y003332D01*
X030375Y003857D01*
X030187Y003857D01*
X029982Y003651D01*
X029696Y003937D01*
X029154Y003937D01*
X028925Y003708D01*
X028696Y003937D01*
X028154Y003937D01*
X028022Y003805D02*
X027675Y003805D01*
X027675Y003706D02*
X027923Y003706D01*
X027825Y003608D02*
X027675Y003608D01*
X027675Y003509D02*
X027770Y003509D01*
X027770Y003411D02*
X027675Y003411D01*
X027675Y003312D02*
X027770Y003312D01*
X027770Y003214D02*
X027675Y003214D01*
X027675Y003115D02*
X027770Y003115D01*
X027770Y003017D02*
X027675Y003017D01*
X027675Y002918D02*
X027862Y002918D01*
X027961Y002820D02*
X027675Y002820D01*
X027675Y002721D02*
X028059Y002721D01*
X027675Y002623D02*
X033675Y002623D01*
X033675Y002721D02*
X030678Y002721D01*
X030663Y002707D02*
X031000Y003043D01*
X031000Y003232D01*
X030475Y003232D01*
X030475Y002707D01*
X030663Y002707D01*
X030776Y002820D02*
X033675Y002820D01*
X033675Y002918D02*
X030875Y002918D01*
X030973Y003017D02*
X033675Y003017D01*
X033675Y003115D02*
X031000Y003115D01*
X031000Y003214D02*
X033675Y003214D01*
X033675Y003312D02*
X030475Y003312D01*
X030475Y003332D02*
X031000Y003332D01*
X031000Y003520D01*
X030663Y003857D01*
X030475Y003857D01*
X030475Y003332D01*
X030475Y003411D02*
X030375Y003411D01*
X030375Y003509D02*
X030475Y003509D01*
X030475Y003608D02*
X030375Y003608D01*
X030375Y003706D02*
X030475Y003706D01*
X030475Y003805D02*
X030375Y003805D01*
X030135Y003805D02*
X029828Y003805D01*
X029730Y003903D02*
X033675Y003903D01*
X033675Y003805D02*
X030715Y003805D01*
X030814Y003706D02*
X033675Y003706D01*
X033675Y003608D02*
X030912Y003608D01*
X031000Y003509D02*
X033675Y003509D01*
X033675Y003411D02*
X031000Y003411D01*
X030475Y003214D02*
X030375Y003214D01*
X030375Y003115D02*
X030475Y003115D01*
X030475Y003017D02*
X030375Y003017D01*
X030375Y002918D02*
X030475Y002918D01*
X030475Y002820D02*
X030375Y002820D01*
X030375Y002721D02*
X030475Y002721D01*
X030172Y002721D02*
X029791Y002721D01*
X029889Y002820D02*
X030074Y002820D01*
X029059Y002721D02*
X028791Y002721D01*
X028889Y002820D02*
X028961Y002820D01*
X029022Y003805D02*
X028828Y003805D01*
X028730Y003903D02*
X029120Y003903D01*
X029927Y003706D02*
X030036Y003706D01*
X027675Y002524D02*
X033675Y002524D01*
X033675Y002426D02*
X027675Y002426D01*
X027675Y002327D02*
X033675Y002327D01*
X033675Y007745D02*
X027425Y007745D01*
X027425Y007843D02*
X033675Y007843D01*
X033675Y007942D02*
X027425Y007942D01*
X027425Y008040D02*
X033675Y008040D01*
X033675Y008139D02*
X027425Y008139D01*
X027425Y008237D02*
X033675Y008237D01*
X033675Y008336D02*
X027425Y008336D01*
X027425Y008434D02*
X033675Y008434D01*
X033675Y008533D02*
X032989Y008533D01*
X032913Y008457D02*
X033250Y008793D01*
X033250Y008982D01*
X032725Y008982D01*
X032725Y009082D01*
X033250Y009082D01*
X033250Y009270D01*
X033045Y009475D01*
X033330Y009760D01*
X033330Y010303D01*
X032946Y010687D01*
X032404Y010687D01*
X032020Y010303D01*
X032020Y009760D01*
X032305Y009475D01*
X032100Y009270D01*
X032100Y009082D01*
X032625Y009082D01*
X032625Y008982D01*
X032100Y008982D01*
X032100Y008793D01*
X032437Y008457D01*
X032625Y008457D01*
X032625Y008982D01*
X032725Y008982D01*
X032725Y008457D01*
X032913Y008457D01*
X032725Y008533D02*
X032625Y008533D01*
X032625Y008631D02*
X032725Y008631D01*
X032725Y008730D02*
X032625Y008730D01*
X032625Y008828D02*
X032725Y008828D01*
X032725Y008927D02*
X032625Y008927D01*
X032625Y009025D02*
X027425Y009025D01*
X027425Y008927D02*
X032100Y008927D01*
X032100Y008828D02*
X027425Y008828D01*
X027425Y008730D02*
X032164Y008730D01*
X032262Y008631D02*
X027425Y008631D01*
X027425Y008533D02*
X032361Y008533D01*
X032725Y009025D02*
X033675Y009025D01*
X033675Y008927D02*
X033250Y008927D01*
X033250Y008828D02*
X033675Y008828D01*
X033675Y008730D02*
X033186Y008730D01*
X033088Y008631D02*
X033675Y008631D01*
X033675Y009124D02*
X033250Y009124D01*
X033250Y009222D02*
X033675Y009222D01*
X033675Y009321D02*
X033199Y009321D01*
X033101Y009419D02*
X033675Y009419D01*
X033675Y009518D02*
X033087Y009518D01*
X033186Y009616D02*
X033675Y009616D01*
X033675Y009715D02*
X033284Y009715D01*
X033330Y009813D02*
X033675Y009813D01*
X033675Y009912D02*
X033330Y009912D01*
X033330Y010010D02*
X033675Y010010D01*
X033675Y010109D02*
X033330Y010109D01*
X033330Y010207D02*
X033675Y010207D01*
X033675Y010306D02*
X033327Y010306D01*
X033229Y010404D02*
X033675Y010404D01*
X033675Y010503D02*
X033130Y010503D01*
X033032Y010601D02*
X033675Y010601D01*
X033675Y010700D02*
X027425Y010700D01*
X027425Y010798D02*
X033675Y010798D01*
X033675Y010897D02*
X027425Y010897D01*
X027425Y010995D02*
X033675Y010995D01*
X032318Y010601D02*
X027425Y010601D01*
X027425Y010503D02*
X032220Y010503D01*
X032121Y010404D02*
X027425Y010404D01*
X027425Y010306D02*
X032023Y010306D01*
X032020Y010207D02*
X027425Y010207D01*
X027425Y010109D02*
X032020Y010109D01*
X032020Y010010D02*
X027425Y010010D01*
X027425Y009912D02*
X032020Y009912D01*
X032020Y009813D02*
X027425Y009813D01*
X027425Y009715D02*
X032066Y009715D01*
X032164Y009616D02*
X027425Y009616D01*
X027425Y009518D02*
X032263Y009518D01*
X032249Y009419D02*
X027425Y009419D01*
X027425Y009321D02*
X032151Y009321D01*
X032100Y009222D02*
X027425Y009222D01*
X027425Y009124D02*
X032100Y009124D01*
X023800Y010157D02*
X023800Y014157D01*
X023800Y013261D02*
X023446Y013261D01*
X023544Y013162D02*
X023800Y013162D01*
X023800Y013064D02*
X023643Y013064D01*
X023705Y012965D02*
X023800Y012965D01*
X023800Y012867D02*
X023705Y012867D01*
X023705Y012768D02*
X023800Y012768D01*
X023800Y012670D02*
X023705Y012670D01*
X023705Y012571D02*
X023800Y012571D01*
X023800Y012473D02*
X023616Y012473D01*
X023517Y012374D02*
X023800Y012374D01*
X023800Y012276D02*
X023419Y012276D01*
X017050Y010282D02*
X016425Y010907D01*
X011675Y012907D02*
X010925Y013657D01*
X010925Y015157D01*
X006050Y016907D02*
X003975Y016907D01*
X003925Y016957D01*
X003350Y016957D01*
X002988Y017344D01*
X002300Y017344D01*
X003925Y016357D02*
X003925Y015657D01*
X003675Y015407D01*
X001550Y015407D01*
X001300Y015157D01*
X001300Y011157D01*
X001644Y010813D01*
X002558Y010813D01*
X005300Y015907D02*
X004800Y016407D01*
X004225Y016407D01*
X003925Y016357D01*
X005175Y018032D02*
X005175Y019407D01*
X003175Y021407D01*
X002050Y021407D01*
X001425Y022032D01*
X023175Y022032D02*
X023175Y021157D01*
X023675Y021282D02*
X023675Y021782D01*
X023175Y022032D02*
X023425Y022282D01*
X023925Y022282D01*
X024175Y022032D01*
X024175Y021157D01*
X023675Y021282D02*
X024425Y020532D01*
X025675Y021782D02*
X026800Y020657D01*
X026800Y020125D01*
X028175Y019407D02*
X028550Y019407D01*
X030300Y021157D01*
X030300Y021907D01*
X030675Y022282D01*
X029300Y022032D02*
X029300Y021282D01*
D29*
X029179Y021369D02*
X029421Y021369D01*
X029300Y021490D02*
X029568Y021222D01*
X029927Y021222D01*
X028525Y019820D01*
X028481Y019864D01*
X028282Y019947D01*
X028068Y019947D01*
X027869Y019864D01*
X027717Y019712D01*
X027635Y019514D01*
X027635Y019299D01*
X027698Y019147D01*
X027619Y019114D01*
X027467Y018962D01*
X027385Y018764D01*
X027385Y018760D01*
X026313Y019832D01*
X026226Y019919D01*
X026112Y019967D01*
X022678Y019967D01*
X021735Y020910D01*
X021735Y021078D01*
X021883Y021226D01*
X021965Y021424D01*
X021965Y021639D01*
X021883Y021837D01*
X021731Y021989D01*
X021532Y022072D01*
X021318Y022072D01*
X021299Y022064D01*
X021400Y022164D01*
X021485Y022370D01*
X021485Y023193D01*
X021400Y023399D01*
X021242Y023556D01*
X021036Y023642D01*
X020814Y023642D01*
X020608Y023556D01*
X020450Y023399D01*
X020381Y023231D01*
X020370Y023266D01*
X020336Y023333D01*
X020291Y023394D01*
X020238Y023448D01*
X020177Y023492D01*
X020109Y023526D01*
X020037Y023550D01*
X019963Y023562D01*
X019945Y023562D01*
X019945Y022802D01*
X019905Y022802D01*
X019905Y023562D01*
X019887Y023562D01*
X019813Y023550D01*
X019741Y023526D01*
X019673Y023492D01*
X019612Y023448D01*
X019559Y023394D01*
X019514Y023333D01*
X019480Y023266D01*
X019469Y023231D01*
X019400Y023399D01*
X019242Y023556D01*
X019036Y023642D01*
X018814Y023642D01*
X018608Y023556D01*
X018450Y023399D01*
X018425Y023338D01*
X018400Y023399D01*
X018242Y023556D01*
X018036Y023642D01*
X017814Y023642D01*
X017608Y023556D01*
X017450Y023399D01*
X017425Y023338D01*
X017400Y023399D01*
X017242Y023556D01*
X017036Y023642D01*
X016814Y023642D01*
X016608Y023556D01*
X016450Y023399D01*
X016425Y023338D01*
X016400Y023399D01*
X016242Y023556D01*
X016036Y023642D01*
X015814Y023642D01*
X015683Y023587D01*
X015601Y023669D01*
X015488Y023782D01*
X033660Y023782D01*
X033660Y011282D01*
X027175Y011282D01*
X027175Y007545D01*
X027106Y007614D01*
X026907Y007697D01*
X026693Y007697D01*
X026494Y007614D01*
X026342Y007462D01*
X026260Y007264D01*
X026260Y007049D01*
X026342Y006851D01*
X026460Y006733D01*
X026460Y006547D01*
X026284Y006372D01*
X025658Y006372D01*
X025694Y006442D01*
X025721Y006525D01*
X025735Y006612D01*
X025735Y006657D01*
X025735Y006701D01*
X025721Y006788D01*
X025694Y006871D01*
X025654Y006950D01*
X025602Y007021D01*
X025540Y007084D01*
X025512Y007104D01*
X025538Y007114D01*
X025718Y007294D01*
X025815Y007529D01*
X025815Y007784D01*
X025718Y008019D01*
X025580Y008157D01*
X025718Y008294D01*
X025739Y008347D01*
X025987Y008347D01*
X026101Y008394D01*
X026188Y008481D01*
X026813Y009106D01*
X026860Y009220D01*
X026860Y012028D01*
X028313Y013481D01*
X028360Y013595D01*
X028360Y016203D01*
X028508Y016351D01*
X028590Y016549D01*
X028590Y016764D01*
X028508Y016962D01*
X028356Y017114D01*
X028157Y017197D01*
X027943Y017197D01*
X027744Y017114D01*
X027700Y017070D01*
X027063Y017707D01*
X026976Y017794D01*
X026862Y017842D01*
X025629Y017842D01*
X025606Y017864D01*
X025407Y017947D01*
X025198Y017947D01*
X025101Y018044D01*
X024987Y018092D01*
X022363Y018092D01*
X022249Y018044D01*
X022162Y017957D01*
X021672Y017467D01*
X016928Y017467D01*
X016101Y018294D01*
X015987Y018342D01*
X015303Y018342D01*
X014851Y018794D01*
X014774Y018826D01*
X014905Y018958D01*
X014905Y019137D01*
X014445Y019137D01*
X014445Y019177D01*
X014905Y019177D01*
X014905Y019355D01*
X014660Y019600D01*
X014907Y019847D01*
X016862Y019847D01*
X016976Y019894D01*
X017073Y019992D01*
X017282Y019992D01*
X017481Y020074D01*
X017550Y020143D01*
X017619Y020074D01*
X017818Y019992D01*
X018032Y019992D01*
X018099Y020019D01*
X018037Y019957D01*
X017990Y019843D01*
X017990Y019728D01*
X017982Y019732D01*
X017418Y019732D01*
X017323Y019692D01*
X017250Y019619D01*
X017210Y019523D01*
X017210Y018790D01*
X017250Y018694D01*
X017323Y018621D01*
X017390Y018593D01*
X017390Y018445D01*
X017399Y018423D01*
X017385Y018389D01*
X017385Y018174D01*
X017467Y017976D01*
X017619Y017824D01*
X017818Y017742D01*
X018032Y017742D01*
X018231Y017824D01*
X018300Y017893D01*
X018369Y017824D01*
X018568Y017742D01*
X018782Y017742D01*
X018981Y017824D01*
X019133Y017976D01*
X019190Y018114D01*
X019190Y017920D01*
X019275Y017714D01*
X019433Y017557D01*
X019639Y017472D01*
X020461Y017472D01*
X020667Y017557D01*
X020714Y017604D01*
X020744Y017574D01*
X020943Y017492D01*
X021157Y017492D01*
X021356Y017574D01*
X021508Y017726D01*
X021590Y017924D01*
X021590Y018139D01*
X021508Y018337D01*
X021485Y018360D01*
X021485Y019908D01*
X022249Y019144D01*
X022363Y019097D01*
X025797Y019097D01*
X027374Y017519D01*
X027488Y017472D01*
X028362Y017472D01*
X028476Y017519D01*
X028563Y017606D01*
X028803Y017847D01*
X029596Y017847D01*
X029744Y017699D01*
X029943Y017617D01*
X030157Y017617D01*
X030356Y017699D01*
X030508Y017851D01*
X030590Y018049D01*
X030590Y018264D01*
X030508Y018462D01*
X030356Y018614D01*
X030157Y018697D01*
X030090Y018697D01*
X030090Y018764D01*
X030008Y018962D01*
X029856Y019114D01*
X029657Y019197D01*
X029443Y019197D01*
X029376Y019169D01*
X031178Y020972D01*
X032112Y020972D01*
X032226Y021019D01*
X032476Y021269D01*
X032498Y021291D01*
X032568Y021222D01*
X033032Y021222D01*
X033360Y021550D01*
X033360Y022013D01*
X033092Y022282D01*
X033360Y022550D01*
X033360Y023013D01*
X033032Y023342D01*
X032568Y023342D01*
X032300Y023073D01*
X032032Y023342D01*
X031568Y023342D01*
X031300Y023073D01*
X031032Y023342D01*
X030568Y023342D01*
X030300Y023073D01*
X030032Y023342D01*
X029568Y023342D01*
X029243Y023017D01*
X028999Y023262D01*
X028820Y023262D01*
X028820Y022802D01*
X028780Y022802D01*
X028780Y023262D01*
X028601Y023262D01*
X028320Y022980D01*
X028320Y022802D01*
X028780Y022802D01*
X028780Y022762D01*
X028320Y022762D01*
X028320Y022583D01*
X028565Y022338D01*
X028348Y022122D01*
X028316Y022122D01*
X028140Y022297D01*
X028140Y022733D01*
X028258Y022851D01*
X028340Y023049D01*
X028340Y023264D01*
X028258Y023462D01*
X028106Y023614D01*
X027907Y023697D01*
X027693Y023697D01*
X027494Y023614D01*
X027342Y023462D01*
X027260Y023264D01*
X027260Y023049D01*
X027342Y022851D01*
X027460Y022733D01*
X027460Y022089D01*
X027512Y021964D01*
X027887Y021589D01*
X027982Y021493D01*
X028107Y021442D01*
X028348Y021442D01*
X028568Y021222D01*
X029032Y021222D01*
X029300Y021490D01*
X029915Y021210D02*
X026685Y021210D01*
X026673Y021222D02*
X026907Y021222D01*
X027235Y021550D01*
X027235Y022013D01*
X026967Y022282D01*
X027235Y022550D01*
X027235Y023013D01*
X026907Y023342D01*
X026443Y023342D01*
X026175Y023073D01*
X025907Y023342D01*
X025443Y023342D01*
X025175Y023073D01*
X024907Y023342D01*
X024443Y023342D01*
X024175Y023073D01*
X023907Y023342D01*
X023443Y023342D01*
X023118Y023017D01*
X022874Y023262D01*
X022695Y023262D01*
X022695Y022802D01*
X022655Y022802D01*
X022655Y023262D01*
X022476Y023262D01*
X022195Y022980D01*
X022195Y022802D01*
X022655Y022802D01*
X022655Y022762D01*
X022195Y022762D01*
X022195Y022583D01*
X022440Y022338D01*
X022115Y022013D01*
X022115Y021550D01*
X022443Y021222D01*
X022907Y021222D01*
X023175Y021490D01*
X023365Y021300D01*
X023365Y021220D01*
X023412Y021106D01*
X023499Y021019D01*
X023885Y020633D01*
X023885Y020424D01*
X023967Y020226D01*
X024119Y020074D01*
X024318Y019992D01*
X024532Y019992D01*
X024731Y020074D01*
X024883Y020226D01*
X024965Y020424D01*
X024965Y020639D01*
X024883Y020837D01*
X024731Y020989D01*
X024532Y021072D01*
X024323Y021072D01*
X024040Y021355D01*
X024175Y021490D01*
X024443Y021222D01*
X024907Y021222D01*
X025175Y021490D01*
X025443Y021222D01*
X025797Y021222D01*
X026465Y020554D01*
X026342Y020431D01*
X026260Y020233D01*
X026260Y020018D01*
X026342Y019819D01*
X026494Y019667D01*
X026693Y019585D01*
X026907Y019585D01*
X027106Y019667D01*
X027258Y019819D01*
X027340Y020018D01*
X027340Y020233D01*
X027258Y020431D01*
X027110Y020579D01*
X027110Y020718D01*
X027063Y020832D01*
X026976Y020919D01*
X026673Y021222D01*
X026843Y021052D02*
X029757Y021052D01*
X029598Y020893D02*
X027002Y020893D01*
X027103Y020735D02*
X029440Y020735D01*
X029281Y020576D02*
X027113Y020576D01*
X027263Y020418D02*
X029123Y020418D01*
X028964Y020259D02*
X027329Y020259D01*
X027340Y020101D02*
X028806Y020101D01*
X028647Y019942D02*
X028293Y019942D01*
X028057Y019942D02*
X027309Y019942D01*
X027222Y019784D02*
X027788Y019784D01*
X027681Y019625D02*
X027003Y019625D01*
X026837Y019308D02*
X027635Y019308D01*
X027635Y019467D02*
X026678Y019467D01*
X026597Y019625D02*
X026520Y019625D01*
X026378Y019784D02*
X026361Y019784D01*
X026291Y019942D02*
X026171Y019942D01*
X026260Y020101D02*
X024758Y020101D01*
X024897Y020259D02*
X026271Y020259D01*
X026337Y020418D02*
X024962Y020418D01*
X024965Y020576D02*
X026442Y020576D01*
X026284Y020735D02*
X024925Y020735D01*
X024827Y020893D02*
X026125Y020893D01*
X025967Y021052D02*
X024581Y021052D01*
X024296Y021369D02*
X024054Y021369D01*
X024185Y021210D02*
X025808Y021210D01*
X025296Y021369D02*
X025054Y021369D01*
X023885Y020576D02*
X022069Y020576D01*
X022227Y020418D02*
X023888Y020418D01*
X023953Y020259D02*
X022386Y020259D01*
X022544Y020101D02*
X024092Y020101D01*
X023784Y020735D02*
X021910Y020735D01*
X021752Y020893D02*
X023625Y020893D01*
X023467Y021052D02*
X021735Y021052D01*
X021867Y021210D02*
X023369Y021210D01*
X023296Y021369D02*
X023054Y021369D01*
X022296Y021369D02*
X021942Y021369D01*
X021965Y021527D02*
X022138Y021527D01*
X022115Y021686D02*
X021946Y021686D01*
X021876Y021844D02*
X022115Y021844D01*
X022115Y022003D02*
X021699Y022003D01*
X021396Y022161D02*
X022263Y022161D01*
X022421Y022320D02*
X021464Y022320D01*
X021485Y022478D02*
X022300Y022478D01*
X022195Y022637D02*
X021485Y022637D01*
X021485Y022795D02*
X022655Y022795D01*
X022655Y022954D02*
X022695Y022954D01*
X022695Y023112D02*
X022655Y023112D01*
X022327Y023112D02*
X021485Y023112D01*
X021485Y022954D02*
X022195Y022954D01*
X023023Y023112D02*
X023214Y023112D01*
X023372Y023271D02*
X021453Y023271D01*
X021369Y023429D02*
X027328Y023429D01*
X027263Y023271D02*
X026978Y023271D01*
X027136Y023112D02*
X027260Y023112D01*
X027235Y022954D02*
X027300Y022954D01*
X027235Y022795D02*
X027398Y022795D01*
X027460Y022637D02*
X027235Y022637D01*
X027163Y022478D02*
X027460Y022478D01*
X027460Y022320D02*
X027005Y022320D01*
X027087Y022161D02*
X027460Y022161D01*
X027496Y022003D02*
X027235Y022003D01*
X027235Y021844D02*
X027632Y021844D01*
X027790Y021686D02*
X027235Y021686D01*
X027212Y021527D02*
X027949Y021527D01*
X028175Y021782D02*
X028800Y021782D01*
X028421Y021369D02*
X027054Y021369D01*
X027800Y022157D02*
X028175Y021782D01*
X028276Y022161D02*
X028388Y022161D01*
X028546Y022320D02*
X028140Y022320D01*
X028140Y022478D02*
X028425Y022478D01*
X028320Y022637D02*
X028140Y022637D01*
X028202Y022795D02*
X028780Y022795D01*
X028780Y022954D02*
X028820Y022954D01*
X028820Y023112D02*
X028780Y023112D01*
X028452Y023112D02*
X028340Y023112D01*
X028337Y023271D02*
X029497Y023271D01*
X029339Y023112D02*
X029148Y023112D01*
X028320Y022954D02*
X028300Y022954D01*
X028272Y023429D02*
X033660Y023429D01*
X033660Y023271D02*
X033103Y023271D01*
X033261Y023112D02*
X033660Y023112D01*
X033660Y022954D02*
X033360Y022954D01*
X033360Y022795D02*
X033660Y022795D01*
X033660Y022637D02*
X033360Y022637D01*
X033288Y022478D02*
X033660Y022478D01*
X033660Y022320D02*
X033130Y022320D01*
X033212Y022161D02*
X033660Y022161D01*
X033660Y022003D02*
X033360Y022003D01*
X033360Y021844D02*
X033660Y021844D01*
X033660Y021686D02*
X033360Y021686D01*
X033337Y021527D02*
X033660Y021527D01*
X033660Y021369D02*
X033179Y021369D01*
X033660Y021210D02*
X032417Y021210D01*
X032258Y021052D02*
X033660Y021052D01*
X033660Y020893D02*
X031100Y020893D01*
X030941Y020735D02*
X033660Y020735D01*
X033660Y020576D02*
X030783Y020576D01*
X030624Y020418D02*
X033660Y020418D01*
X033660Y020259D02*
X030466Y020259D01*
X030307Y020101D02*
X033660Y020101D01*
X033660Y019942D02*
X032376Y019942D01*
X032532Y019878D02*
X032219Y020007D01*
X031881Y020007D01*
X031568Y019878D01*
X031329Y019638D01*
X031199Y019326D01*
X031199Y018987D01*
X031329Y018675D01*
X031568Y018435D01*
X031881Y018306D01*
X032219Y018306D01*
X032532Y018435D01*
X032771Y018675D01*
X032901Y018987D01*
X032901Y019326D01*
X032771Y019638D01*
X032532Y019878D01*
X032626Y019784D02*
X033660Y019784D01*
X033660Y019625D02*
X032777Y019625D01*
X032842Y019467D02*
X033660Y019467D01*
X033660Y019308D02*
X032901Y019308D01*
X032901Y019150D02*
X033660Y019150D01*
X033660Y018991D02*
X032901Y018991D01*
X032836Y018833D02*
X033660Y018833D01*
X033660Y018674D02*
X032770Y018674D01*
X032612Y018516D02*
X033660Y018516D01*
X033660Y018357D02*
X032342Y018357D01*
X031957Y017988D02*
X031873Y018052D01*
X031782Y018105D01*
X031684Y018145D01*
X031582Y018173D01*
X031505Y018183D01*
X031505Y017462D01*
X031345Y017462D01*
X031345Y018183D01*
X031268Y018173D01*
X031166Y018145D01*
X031068Y018105D01*
X030977Y018052D01*
X030893Y017988D01*
X030818Y017913D01*
X030754Y017830D01*
X030701Y017738D01*
X030661Y017641D01*
X030634Y017539D01*
X030624Y017462D01*
X031345Y017462D01*
X031345Y017302D01*
X030624Y017302D01*
X030634Y017224D01*
X030661Y017122D01*
X030701Y017025D01*
X030754Y016933D01*
X030818Y016850D01*
X030893Y016775D01*
X030977Y016711D01*
X031068Y016658D01*
X031166Y016618D01*
X031268Y016590D01*
X031345Y016580D01*
X031345Y017302D01*
X031505Y017302D01*
X031505Y017462D01*
X032226Y017462D01*
X032216Y017539D01*
X032189Y017641D01*
X032149Y017738D01*
X032096Y017830D01*
X032032Y017913D01*
X031957Y017988D01*
X031889Y018040D02*
X033660Y018040D01*
X033660Y017882D02*
X032056Y017882D01*
X032155Y017723D02*
X033660Y017723D01*
X033660Y017565D02*
X032209Y017565D01*
X032226Y017302D02*
X031505Y017302D01*
X031505Y016580D01*
X031582Y016590D01*
X031684Y016618D01*
X031782Y016658D01*
X031873Y016711D01*
X031957Y016775D01*
X032032Y016850D01*
X032096Y016933D01*
X032149Y017025D01*
X032189Y017122D01*
X032216Y017224D01*
X032226Y017302D01*
X032219Y017248D02*
X033660Y017248D01*
X033660Y017406D02*
X031505Y017406D01*
X031505Y017248D02*
X031345Y017248D01*
X031345Y017406D02*
X027364Y017406D01*
X027329Y017565D02*
X027205Y017565D01*
X027170Y017723D02*
X027047Y017723D01*
X027012Y017882D02*
X025564Y017882D01*
X025105Y018040D02*
X026853Y018040D01*
X026695Y018199D02*
X021565Y018199D01*
X021590Y018040D02*
X022245Y018040D01*
X022087Y017882D02*
X021572Y017882D01*
X021505Y017723D02*
X021928Y017723D01*
X021770Y017565D02*
X021334Y017565D01*
X020766Y017565D02*
X020675Y017565D01*
X021488Y018357D02*
X026536Y018357D01*
X026378Y018516D02*
X021485Y018516D01*
X021485Y018674D02*
X026219Y018674D01*
X026061Y018833D02*
X021485Y018833D01*
X021485Y018991D02*
X025902Y018991D01*
X026995Y019150D02*
X027697Y019150D01*
X027496Y018991D02*
X027154Y018991D01*
X027312Y018833D02*
X027413Y018833D01*
X028680Y017723D02*
X029720Y017723D01*
X030380Y017723D02*
X030695Y017723D01*
X030641Y017565D02*
X028521Y017565D01*
X028381Y017089D02*
X030675Y017089D01*
X030631Y017248D02*
X027522Y017248D01*
X027681Y017089D02*
X027719Y017089D01*
X028521Y016931D02*
X030756Y016931D01*
X030897Y016772D02*
X028587Y016772D01*
X028590Y016614D02*
X031181Y016614D01*
X031345Y016614D02*
X031505Y016614D01*
X031505Y016772D02*
X031345Y016772D01*
X031345Y016931D02*
X031505Y016931D01*
X031505Y017089D02*
X031345Y017089D01*
X031953Y016772D02*
X033660Y016772D01*
X033660Y016614D02*
X031669Y016614D01*
X032094Y016931D02*
X033660Y016931D01*
X033660Y017089D02*
X032175Y017089D01*
X031505Y017565D02*
X031345Y017565D01*
X031345Y017723D02*
X031505Y017723D01*
X031505Y017882D02*
X031345Y017882D01*
X031345Y018040D02*
X031505Y018040D01*
X031758Y018357D02*
X030551Y018357D01*
X030590Y018199D02*
X033660Y018199D01*
X033660Y016455D02*
X028551Y016455D01*
X028454Y016297D02*
X033660Y016297D01*
X033660Y016138D02*
X028360Y016138D01*
X028360Y015980D02*
X033660Y015980D01*
X033660Y015821D02*
X032258Y015821D01*
X032257Y015822D02*
X030593Y015822D01*
X030498Y015782D01*
X030425Y015709D01*
X030385Y015613D01*
X030385Y013950D01*
X030425Y013854D01*
X030498Y013781D01*
X030593Y013742D01*
X032257Y013742D01*
X032352Y013781D01*
X032425Y013854D01*
X032465Y013950D01*
X032465Y015613D01*
X032425Y015709D01*
X032352Y015782D01*
X032257Y015822D01*
X032445Y015663D02*
X033660Y015663D01*
X033660Y015504D02*
X032465Y015504D01*
X032465Y015346D02*
X033660Y015346D01*
X033660Y015187D02*
X032465Y015187D01*
X032465Y015029D02*
X033660Y015029D01*
X033660Y014870D02*
X032465Y014870D01*
X032465Y014712D02*
X033660Y014712D01*
X033660Y014553D02*
X032465Y014553D01*
X032465Y014395D02*
X033660Y014395D01*
X033660Y014236D02*
X032465Y014236D01*
X032465Y014078D02*
X033660Y014078D01*
X033660Y013919D02*
X032452Y013919D01*
X032303Y013761D02*
X033660Y013761D01*
X033660Y013602D02*
X028360Y013602D01*
X028360Y013761D02*
X030547Y013761D01*
X030398Y013919D02*
X028360Y013919D01*
X028360Y014078D02*
X030385Y014078D01*
X030385Y014236D02*
X028360Y014236D01*
X028360Y014395D02*
X030385Y014395D01*
X030385Y014553D02*
X028360Y014553D01*
X028360Y014712D02*
X030385Y014712D01*
X030385Y014870D02*
X028360Y014870D01*
X028360Y015029D02*
X030385Y015029D01*
X030385Y015187D02*
X028360Y015187D01*
X028360Y015346D02*
X030385Y015346D01*
X030385Y015504D02*
X028360Y015504D01*
X028360Y015663D02*
X030405Y015663D01*
X030592Y015821D02*
X028360Y015821D01*
X027240Y015703D02*
X027240Y013785D01*
X026507Y013052D01*
X026507Y013053D01*
X026507Y013260D01*
X026428Y013451D01*
X026282Y013597D01*
X026091Y013677D01*
X025884Y013677D01*
X025693Y013597D01*
X025547Y013451D01*
X025487Y013308D01*
X025428Y013451D01*
X025282Y013597D01*
X025091Y013677D01*
X024884Y013677D01*
X024735Y013615D01*
X024735Y014903D01*
X024813Y014981D01*
X024850Y015071D01*
X024856Y015074D01*
X025008Y015226D01*
X025090Y015424D01*
X025090Y015639D01*
X025008Y015837D01*
X024856Y015989D01*
X024657Y016072D01*
X024443Y016072D01*
X024244Y015989D01*
X024092Y015837D01*
X024010Y015639D01*
X024010Y015424D01*
X024092Y015226D01*
X024147Y015171D01*
X024115Y015093D01*
X024115Y009160D01*
X023487Y008532D01*
X023440Y008418D01*
X023440Y008220D01*
X023373Y008192D01*
X023300Y008119D01*
X023260Y008023D01*
X023260Y007290D01*
X023300Y007194D01*
X023373Y007121D01*
X023468Y007082D01*
X024032Y007082D01*
X024050Y007089D01*
X024068Y007082D01*
X024632Y007082D01*
X024727Y007121D01*
X024766Y007160D01*
X024812Y007114D01*
X024838Y007104D01*
X024810Y007084D01*
X024748Y007021D01*
X024696Y006950D01*
X024656Y006871D01*
X024629Y006788D01*
X024615Y006701D01*
X024615Y006657D01*
X025175Y006657D01*
X025735Y006657D01*
X025175Y006657D01*
X025175Y006657D01*
X025175Y006657D01*
X024615Y006657D01*
X024615Y006612D01*
X024629Y006525D01*
X024638Y006497D01*
X019860Y006497D01*
X019860Y006577D01*
X019920Y006602D01*
X020050Y006732D01*
X020180Y006602D01*
X020420Y006503D01*
X020680Y006503D01*
X020920Y006602D01*
X021104Y006786D01*
X021204Y007026D01*
X021204Y007287D01*
X021104Y007527D01*
X020920Y007711D01*
X020680Y007810D01*
X020420Y007810D01*
X020360Y007785D01*
X019877Y008267D01*
X019988Y008222D01*
X022237Y008222D01*
X022351Y008269D01*
X022438Y008356D01*
X022485Y008470D01*
X022485Y008593D01*
X022438Y008707D01*
X022351Y008794D01*
X022237Y008842D01*
X020178Y008842D01*
X019110Y009910D01*
X019110Y010843D01*
X019063Y010957D01*
X019028Y010992D01*
X019157Y010992D01*
X019356Y011074D01*
X019508Y011226D01*
X019590Y011424D01*
X019590Y011639D01*
X019508Y011837D01*
X019356Y011989D01*
X019157Y012072D01*
X018943Y012072D01*
X018744Y011989D01*
X018592Y011837D01*
X018510Y011639D01*
X018510Y011424D01*
X018544Y011342D01*
X017985Y011342D01*
X017985Y012403D01*
X018613Y013031D01*
X019624Y012019D01*
X019738Y011972D01*
X020487Y011972D01*
X020601Y012019D01*
X020688Y012106D01*
X020873Y012291D01*
X020943Y012222D01*
X021365Y012222D01*
X021365Y012220D01*
X021412Y012106D01*
X021499Y012019D01*
X021510Y012014D01*
X021510Y011799D01*
X021592Y011601D01*
X021744Y011449D01*
X021943Y011367D01*
X022157Y011367D01*
X022356Y011449D01*
X022508Y011601D01*
X022590Y011799D01*
X022590Y011981D01*
X022613Y011972D01*
X022737Y011972D01*
X022851Y012019D01*
X022938Y012106D01*
X022985Y012220D01*
X022985Y012222D01*
X023407Y012222D01*
X023490Y012305D01*
X023490Y010285D01*
X022537Y009332D01*
X022490Y009218D01*
X022490Y009095D01*
X022537Y008981D01*
X022624Y008894D01*
X022738Y008847D01*
X022862Y008847D01*
X022976Y008894D01*
X024063Y009981D01*
X024110Y010095D01*
X024110Y014218D01*
X024063Y014332D01*
X023563Y014832D01*
X023563Y014832D01*
X023476Y014919D01*
X023362Y014967D01*
X022178Y014967D01*
X021688Y015457D01*
X021601Y015544D01*
X021487Y015592D01*
X019863Y015592D01*
X019749Y015544D01*
X019124Y014919D01*
X019037Y014832D01*
X018990Y014718D01*
X018990Y014285D01*
X018963Y014258D01*
X018856Y014364D01*
X018657Y014447D01*
X018443Y014447D01*
X018244Y014364D01*
X018092Y014212D01*
X018010Y014014D01*
X018010Y013799D01*
X018092Y013601D01*
X018199Y013494D01*
X017499Y012794D01*
X017412Y012707D01*
X017365Y012593D01*
X017365Y010970D01*
X017412Y010856D01*
X017499Y010769D01*
X017613Y010722D01*
X018422Y010722D01*
X018490Y010653D01*
X018490Y010355D01*
X018481Y010364D01*
X018282Y010447D01*
X018068Y010447D01*
X017869Y010364D01*
X017717Y010212D01*
X017635Y010014D01*
X017635Y009960D01*
X017606Y009989D01*
X017527Y010022D01*
X017590Y010174D01*
X017590Y010389D01*
X017508Y010587D01*
X017356Y010739D01*
X017157Y010822D01*
X016948Y010822D01*
X016688Y011082D01*
X016688Y011082D01*
X016601Y011169D01*
X016487Y011217D01*
X008374Y011217D01*
X008383Y011226D01*
X008465Y011424D01*
X008465Y011639D01*
X008383Y011837D01*
X008231Y011989D01*
X008032Y012072D01*
X007823Y012072D01*
X006610Y013285D01*
X010858Y013285D01*
X010749Y013394D02*
X011135Y013008D01*
X011135Y012799D01*
X011217Y012601D01*
X011369Y012449D01*
X011568Y012367D01*
X011782Y012367D01*
X011981Y012449D01*
X012133Y012601D01*
X012215Y012799D01*
X012215Y013014D01*
X012133Y013212D01*
X011981Y013364D01*
X011782Y013447D01*
X011573Y013447D01*
X011235Y013785D01*
X011235Y015218D01*
X011188Y015332D01*
X009938Y016582D01*
X009851Y016669D01*
X009737Y016717D01*
X008803Y016717D01*
X008578Y016942D01*
X010865Y016942D01*
X010865Y016870D01*
X010950Y016664D01*
X011108Y016507D01*
X011314Y016422D01*
X011536Y016422D01*
X011742Y016507D01*
X011900Y016664D01*
X011925Y016725D01*
X011950Y016664D01*
X012108Y016507D01*
X012314Y016422D01*
X012536Y016422D01*
X012742Y016507D01*
X012900Y016664D01*
X012925Y016725D01*
X012950Y016664D01*
X013108Y016507D01*
X013314Y016422D01*
X013536Y016422D01*
X013742Y016507D01*
X013900Y016664D01*
X013969Y016832D01*
X013980Y016797D01*
X014014Y016730D01*
X014059Y016669D01*
X014112Y016615D01*
X014173Y016571D01*
X014241Y016537D01*
X014313Y016513D01*
X014387Y016502D01*
X014405Y016502D01*
X014405Y017262D01*
X014445Y017262D01*
X014445Y017302D01*
X014905Y017302D01*
X014905Y017506D01*
X014988Y017472D01*
X015044Y017472D01*
X015010Y017389D01*
X015010Y017174D01*
X015092Y016976D01*
X015244Y016824D01*
X015443Y016742D01*
X015652Y016742D01*
X015912Y016481D01*
X015999Y016394D01*
X016070Y016365D01*
X015037Y015332D01*
X014990Y015218D01*
X014990Y012660D01*
X014902Y012572D01*
X014693Y012572D01*
X014494Y012489D01*
X014342Y012337D01*
X014260Y012139D01*
X014260Y011924D01*
X014342Y011726D01*
X014494Y011574D01*
X014693Y011492D01*
X014907Y011492D01*
X015106Y011574D01*
X015258Y011726D01*
X015340Y011924D01*
X015340Y012133D01*
X015476Y012269D01*
X015563Y012356D01*
X015610Y012470D01*
X015610Y015028D01*
X016678Y016097D01*
X022596Y016097D01*
X022744Y015949D01*
X022943Y015867D01*
X023157Y015867D01*
X023356Y015949D01*
X023508Y016101D01*
X023590Y016299D01*
X023590Y016514D01*
X023508Y016712D01*
X023356Y016864D01*
X023157Y016947D01*
X022943Y016947D01*
X022744Y016864D01*
X022596Y016717D01*
X022548Y016717D01*
X022803Y016972D01*
X024172Y016972D01*
X024749Y016394D01*
X024863Y016347D01*
X025721Y016347D01*
X025869Y016199D01*
X026068Y016117D01*
X026282Y016117D01*
X026481Y016199D01*
X026633Y016351D01*
X026715Y016549D01*
X026715Y016553D01*
X027010Y016258D01*
X027010Y016049D01*
X027092Y015851D01*
X027240Y015703D01*
X027240Y015663D02*
X025080Y015663D01*
X025090Y015504D02*
X027240Y015504D01*
X027240Y015346D02*
X025057Y015346D01*
X024969Y015187D02*
X027240Y015187D01*
X027240Y015029D02*
X024833Y015029D01*
X024735Y014870D02*
X027240Y014870D01*
X027240Y014712D02*
X024735Y014712D01*
X024735Y014553D02*
X027240Y014553D01*
X027240Y014395D02*
X024735Y014395D01*
X024735Y014236D02*
X027240Y014236D01*
X027240Y014078D02*
X024735Y014078D01*
X024735Y013919D02*
X027240Y013919D01*
X027216Y013761D02*
X024735Y013761D01*
X025271Y013602D02*
X025704Y013602D01*
X025544Y013444D02*
X025431Y013444D01*
X025487Y013005D02*
X025547Y012862D01*
X025693Y012716D01*
X025884Y012637D01*
X026091Y012637D01*
X026092Y012637D01*
X025912Y012457D01*
X025865Y012343D01*
X025865Y010035D01*
X025797Y009967D01*
X025739Y009967D01*
X025718Y010019D01*
X025580Y010157D01*
X025718Y010294D01*
X025815Y010529D01*
X025815Y010784D01*
X025718Y011019D01*
X025538Y011199D01*
X025302Y011297D01*
X025048Y011297D01*
X024812Y011199D01*
X024735Y011122D01*
X024735Y012698D01*
X024884Y012637D01*
X025091Y012637D01*
X025282Y012716D01*
X025428Y012862D01*
X025487Y013005D01*
X025472Y012968D02*
X025503Y012968D01*
X025599Y012810D02*
X025376Y012810D01*
X025126Y012651D02*
X025849Y012651D01*
X025948Y012493D02*
X024735Y012493D01*
X024735Y012651D02*
X024849Y012651D01*
X024735Y012334D02*
X025865Y012334D01*
X025865Y012176D02*
X024735Y012176D01*
X024735Y012017D02*
X025865Y012017D01*
X025865Y011859D02*
X024735Y011859D01*
X024735Y011700D02*
X025865Y011700D01*
X025865Y011542D02*
X024735Y011542D01*
X024735Y011383D02*
X025865Y011383D01*
X025865Y011225D02*
X025476Y011225D01*
X025671Y011066D02*
X025865Y011066D01*
X025865Y010908D02*
X025764Y010908D01*
X025815Y010749D02*
X025865Y010749D01*
X025865Y010591D02*
X025815Y010591D01*
X025775Y010432D02*
X025865Y010432D01*
X025865Y010274D02*
X025697Y010274D01*
X025622Y010115D02*
X025865Y010115D01*
X026860Y010115D02*
X027175Y010115D01*
X027175Y009957D02*
X026860Y009957D01*
X026860Y009798D02*
X027175Y009798D01*
X027175Y009640D02*
X026860Y009640D01*
X026860Y009481D02*
X027175Y009481D01*
X027175Y009323D02*
X026860Y009323D01*
X026837Y009164D02*
X027175Y009164D01*
X027175Y009006D02*
X026712Y009006D01*
X026554Y008847D02*
X027175Y008847D01*
X027175Y008689D02*
X026395Y008689D01*
X026237Y008530D02*
X027175Y008530D01*
X027175Y008372D02*
X026047Y008372D01*
X025637Y008213D02*
X027175Y008213D01*
X027175Y008055D02*
X025682Y008055D01*
X025769Y007896D02*
X027175Y007896D01*
X027175Y007738D02*
X025815Y007738D01*
X025815Y007579D02*
X026459Y007579D01*
X026325Y007421D02*
X025770Y007421D01*
X025686Y007262D02*
X026260Y007262D01*
X026260Y007104D02*
X025512Y007104D01*
X025657Y006945D02*
X026303Y006945D01*
X026406Y006787D02*
X025721Y006787D01*
X025735Y006628D02*
X026460Y006628D01*
X026382Y006470D02*
X025703Y006470D01*
X026425Y006032D02*
X024738Y006032D01*
X024613Y006157D01*
X019550Y006157D01*
X013300Y006157D01*
X013724Y006497D02*
X013606Y006614D01*
X013407Y006697D01*
X013193Y006697D01*
X012994Y006614D01*
X012842Y006462D01*
X012760Y006264D01*
X012760Y006049D01*
X012842Y005851D01*
X012994Y005699D01*
X013193Y005617D01*
X013407Y005617D01*
X013606Y005699D01*
X013724Y005817D01*
X024472Y005817D01*
X024545Y005743D01*
X024670Y005692D01*
X026493Y005692D01*
X026618Y005743D01*
X026713Y005839D01*
X026993Y006118D01*
X027088Y006214D01*
X027140Y006339D01*
X027140Y006733D01*
X027175Y006768D01*
X027175Y006657D01*
X027425Y006407D01*
X027425Y002532D01*
X027261Y002532D01*
X027295Y002597D01*
X027318Y002669D01*
X027330Y002744D01*
X027330Y002762D01*
X026570Y002762D01*
X026570Y002802D01*
X027330Y002802D01*
X027330Y002819D01*
X027318Y002894D01*
X027295Y002966D01*
X027261Y003033D01*
X027216Y003094D01*
X027163Y003148D01*
X027102Y003192D01*
X027034Y003226D01*
X027000Y003238D01*
X027167Y003307D01*
X027325Y003464D01*
X027410Y003670D01*
X027410Y003893D01*
X027325Y004099D01*
X027167Y004256D01*
X027106Y004282D01*
X027167Y004307D01*
X027325Y004464D01*
X027410Y004670D01*
X027410Y004893D01*
X027325Y005099D01*
X027167Y005256D01*
X026961Y005342D01*
X026139Y005342D01*
X025933Y005256D01*
X025862Y005186D01*
X025792Y005256D01*
X025586Y005342D01*
X024764Y005342D01*
X024558Y005256D01*
X024488Y005186D01*
X024417Y005256D01*
X024211Y005342D01*
X023389Y005342D01*
X023183Y005256D01*
X023112Y005186D01*
X023042Y005256D01*
X022836Y005342D01*
X022014Y005342D01*
X021808Y005256D01*
X021737Y005186D01*
X021667Y005256D01*
X021461Y005342D01*
X020639Y005342D01*
X020433Y005256D01*
X020362Y005186D01*
X020292Y005256D01*
X020086Y005342D01*
X019264Y005342D01*
X019058Y005256D01*
X018900Y005099D01*
X018815Y004893D01*
X018815Y004670D01*
X018900Y004464D01*
X019058Y004307D01*
X019119Y004282D01*
X019058Y004256D01*
X018900Y004099D01*
X018815Y003893D01*
X018815Y003670D01*
X018900Y003464D01*
X019058Y003307D01*
X019225Y003238D01*
X019191Y003226D01*
X019123Y003192D01*
X019062Y003148D01*
X019009Y003094D01*
X018964Y003033D01*
X018930Y002966D01*
X018907Y002894D01*
X018895Y002819D01*
X018895Y002802D01*
X019655Y002802D01*
X019655Y002762D01*
X018895Y002762D01*
X018895Y002744D01*
X018907Y002669D01*
X018930Y002597D01*
X018964Y002532D01*
X015886Y002532D01*
X015920Y002597D01*
X015943Y002669D01*
X015955Y002744D01*
X015955Y002762D01*
X015195Y002762D01*
X015195Y002802D01*
X015955Y002802D01*
X015955Y002819D01*
X015943Y002894D01*
X015920Y002966D01*
X015886Y003033D01*
X015841Y003094D01*
X015788Y003148D01*
X015727Y003192D01*
X015659Y003226D01*
X015625Y003238D01*
X015792Y003307D01*
X015950Y003464D01*
X016035Y003670D01*
X016035Y003893D01*
X015950Y004099D01*
X015792Y004256D01*
X015731Y004282D01*
X015792Y004307D01*
X015950Y004464D01*
X016035Y004670D01*
X016035Y004893D01*
X015950Y005099D01*
X015792Y005256D01*
X015586Y005342D01*
X014764Y005342D01*
X014558Y005256D01*
X014488Y005186D01*
X014417Y005256D01*
X014211Y005342D01*
X013389Y005342D01*
X013183Y005256D01*
X013112Y005186D01*
X013042Y005256D01*
X012836Y005342D01*
X012423Y005342D01*
X012563Y005481D01*
X012610Y005595D01*
X012610Y007528D01*
X012991Y007909D01*
X013096Y007909D01*
X013244Y007761D01*
X013443Y007679D01*
X013657Y007679D01*
X013856Y007761D01*
X014008Y007913D01*
X014090Y008112D01*
X014090Y008326D01*
X014008Y008525D01*
X013856Y008677D01*
X013715Y008735D01*
X013715Y008889D01*
X013633Y009087D01*
X013481Y009239D01*
X013282Y009322D01*
X013215Y009322D01*
X013215Y009389D01*
X013133Y009587D01*
X013095Y009625D01*
X013133Y009663D01*
X013215Y009862D01*
X013215Y010076D01*
X013155Y010222D01*
X015547Y010222D01*
X016499Y009269D01*
X016613Y009222D01*
X016846Y009222D01*
X016994Y009074D01*
X017193Y008992D01*
X017385Y008992D01*
X017385Y008799D01*
X017448Y008647D01*
X017369Y008614D01*
X017221Y008467D01*
X016863Y008467D01*
X016749Y008419D01*
X016374Y008044D01*
X016287Y007957D01*
X016240Y007843D01*
X016240Y007736D01*
X016180Y007711D01*
X015996Y007527D01*
X015896Y007287D01*
X015896Y007026D01*
X015996Y006786D01*
X016180Y006602D01*
X016420Y006503D01*
X016680Y006503D01*
X016920Y006602D01*
X017050Y006732D01*
X017180Y006602D01*
X017420Y006503D01*
X017680Y006503D01*
X017920Y006602D01*
X018104Y006786D01*
X018106Y006791D01*
X018112Y006783D01*
X018176Y006719D01*
X018249Y006666D01*
X018330Y006625D01*
X018416Y006597D01*
X018470Y006588D01*
X018470Y007077D01*
X018630Y007077D01*
X018630Y006588D01*
X018684Y006597D01*
X018770Y006625D01*
X018851Y006666D01*
X018924Y006719D01*
X018988Y006783D01*
X018994Y006791D01*
X018996Y006786D01*
X019180Y006602D01*
X019240Y006577D01*
X019240Y006497D01*
X013724Y006497D01*
X013573Y006628D02*
X016154Y006628D01*
X015996Y006787D02*
X012610Y006787D01*
X012610Y006945D02*
X015930Y006945D01*
X015896Y007104D02*
X012610Y007104D01*
X012610Y007262D02*
X015896Y007262D01*
X015952Y007421D02*
X012610Y007421D01*
X012661Y007579D02*
X016048Y007579D01*
X016240Y007738D02*
X013799Y007738D01*
X013991Y007896D02*
X016262Y007896D01*
X016385Y008055D02*
X014066Y008055D01*
X014090Y008213D02*
X016543Y008213D01*
X016702Y008372D02*
X014071Y008372D01*
X014003Y008530D02*
X017285Y008530D01*
X017431Y008689D02*
X013828Y008689D01*
X013715Y008847D02*
X017385Y008847D01*
X017159Y009006D02*
X013667Y009006D01*
X013556Y009164D02*
X016904Y009164D01*
X016446Y009323D02*
X013215Y009323D01*
X013177Y009481D02*
X016287Y009481D01*
X016129Y009640D02*
X013109Y009640D01*
X013189Y009798D02*
X015970Y009798D01*
X015812Y009957D02*
X013215Y009957D01*
X013199Y010115D02*
X015653Y010115D01*
X016704Y011066D02*
X017365Y011066D01*
X017365Y011225D02*
X008382Y011225D01*
X008448Y011383D02*
X017365Y011383D01*
X017365Y011542D02*
X015028Y011542D01*
X015232Y011700D02*
X017365Y011700D01*
X017365Y011859D02*
X015313Y011859D01*
X015340Y012017D02*
X017365Y012017D01*
X017365Y012176D02*
X015382Y012176D01*
X015541Y012334D02*
X017365Y012334D01*
X017365Y012493D02*
X015610Y012493D01*
X015610Y012651D02*
X017389Y012651D01*
X017515Y012810D02*
X015610Y012810D01*
X015610Y012968D02*
X017673Y012968D01*
X017832Y013127D02*
X015610Y013127D01*
X015610Y013285D02*
X017990Y013285D01*
X018149Y013444D02*
X015610Y013444D01*
X015610Y013602D02*
X018092Y013602D01*
X018026Y013761D02*
X015610Y013761D01*
X015610Y013919D02*
X018010Y013919D01*
X018036Y014078D02*
X015610Y014078D01*
X015610Y014236D02*
X018116Y014236D01*
X018317Y014395D02*
X015610Y014395D01*
X015610Y014553D02*
X018990Y014553D01*
X018990Y014395D02*
X018783Y014395D01*
X018990Y014712D02*
X015610Y014712D01*
X015610Y014870D02*
X019075Y014870D01*
X019234Y015029D02*
X015610Y015029D01*
X015769Y015187D02*
X019392Y015187D01*
X019551Y015346D02*
X015927Y015346D01*
X016086Y015504D02*
X019709Y015504D01*
X021641Y015504D02*
X024010Y015504D01*
X024020Y015663D02*
X016244Y015663D01*
X016403Y015821D02*
X024085Y015821D01*
X024234Y015980D02*
X023387Y015980D01*
X023523Y016138D02*
X026016Y016138D01*
X025771Y016297D02*
X023589Y016297D01*
X023590Y016455D02*
X024688Y016455D01*
X024530Y016614D02*
X023549Y016614D01*
X023448Y016772D02*
X024371Y016772D01*
X024213Y016931D02*
X023196Y016931D01*
X022904Y016931D02*
X022762Y016931D01*
X022652Y016772D02*
X022604Y016772D01*
X022713Y015980D02*
X016561Y015980D01*
X016002Y016297D02*
X010223Y016297D01*
X010065Y016455D02*
X011233Y016455D01*
X011001Y016614D02*
X009906Y016614D01*
X010382Y016138D02*
X015843Y016138D01*
X015685Y015980D02*
X010540Y015980D01*
X010699Y015821D02*
X015526Y015821D01*
X015368Y015663D02*
X010857Y015663D01*
X011016Y015504D02*
X015209Y015504D01*
X015051Y015346D02*
X011174Y015346D01*
X011235Y015187D02*
X014990Y015187D01*
X014990Y015029D02*
X011235Y015029D01*
X011235Y014870D02*
X014990Y014870D01*
X014990Y014712D02*
X011235Y014712D01*
X011235Y014553D02*
X014990Y014553D01*
X014990Y014395D02*
X011235Y014395D01*
X011235Y014236D02*
X014990Y014236D01*
X014990Y014078D02*
X011235Y014078D01*
X011235Y013919D02*
X014990Y013919D01*
X014990Y013761D02*
X011259Y013761D01*
X011418Y013602D02*
X014990Y013602D01*
X014990Y013444D02*
X011790Y013444D01*
X012060Y013285D02*
X014990Y013285D01*
X014990Y013127D02*
X012168Y013127D01*
X012215Y012968D02*
X014990Y012968D01*
X014990Y012810D02*
X012215Y012810D01*
X012154Y012651D02*
X014981Y012651D01*
X014502Y012493D02*
X012025Y012493D01*
X011325Y012493D02*
X007402Y012493D01*
X007244Y012651D02*
X011196Y012651D01*
X011135Y012810D02*
X007085Y012810D01*
X006927Y012968D02*
X011135Y012968D01*
X011017Y013127D02*
X006768Y013127D01*
X006610Y013285D02*
X006610Y015173D01*
X006758Y015321D01*
X006840Y015519D01*
X006840Y016294D01*
X006758Y016492D01*
X006610Y016640D01*
X006610Y016718D01*
X006563Y016832D01*
X006476Y016919D01*
X006226Y017169D01*
X006112Y017217D01*
X004500Y017217D01*
X004500Y017238D01*
X004460Y017334D01*
X004387Y017407D01*
X004292Y017447D01*
X003558Y017447D01*
X003463Y017407D01*
X003406Y017350D01*
X003252Y017515D01*
X003250Y017520D01*
X003210Y017560D01*
X003172Y017601D01*
X003167Y017603D01*
X003163Y017607D01*
X003111Y017628D01*
X003059Y017652D01*
X003054Y017652D01*
X003049Y017654D01*
X002993Y017654D01*
X002958Y017655D01*
X002584Y018029D01*
X002016Y018029D01*
X001615Y017628D01*
X001615Y017060D01*
X001888Y016787D01*
X001695Y016595D01*
X001695Y016364D01*
X002280Y016364D01*
X002280Y016324D01*
X002320Y016324D01*
X002320Y015739D01*
X002551Y015739D01*
X002905Y016093D01*
X002905Y016324D01*
X002320Y016324D01*
X002320Y016364D01*
X002905Y016364D01*
X002905Y016595D01*
X002712Y016787D01*
X002904Y016979D01*
X003085Y016786D01*
X003087Y016781D01*
X003127Y016741D01*
X003166Y016700D01*
X003171Y016698D01*
X003174Y016694D01*
X003227Y016672D01*
X003278Y016649D01*
X003283Y016649D01*
X003288Y016647D01*
X003345Y016647D01*
X003353Y016646D01*
X003350Y016638D01*
X003350Y016075D01*
X003390Y015979D01*
X003463Y015906D01*
X003558Y015867D01*
X003615Y015867D01*
X003615Y015785D01*
X003547Y015717D01*
X001488Y015717D01*
X001374Y015669D01*
X001124Y015419D01*
X001037Y015332D01*
X000990Y015218D01*
X000990Y011095D01*
X001037Y010981D01*
X001468Y010550D01*
X001582Y010503D01*
X001671Y010503D01*
X001686Y010466D01*
X001858Y010294D01*
X002084Y010201D01*
X003032Y010201D01*
X003257Y010294D01*
X003430Y010466D01*
X003523Y010691D01*
X003523Y010935D01*
X003430Y011160D01*
X003257Y011332D01*
X003032Y011426D01*
X002084Y011426D01*
X001858Y011332D01*
X001711Y011184D01*
X001610Y011285D01*
X001610Y014587D01*
X001686Y014403D01*
X001858Y014231D01*
X002084Y014138D01*
X003032Y014138D01*
X003257Y014231D01*
X003430Y014403D01*
X003523Y014628D01*
X003523Y014872D01*
X003430Y015097D01*
X003737Y015097D01*
X003851Y015144D01*
X003938Y015231D01*
X004188Y015481D01*
X004235Y015595D01*
X004235Y015867D01*
X004292Y015867D01*
X004387Y015906D01*
X004460Y015979D01*
X004500Y016075D01*
X004500Y016097D01*
X004672Y016097D01*
X004760Y016008D01*
X004760Y015519D01*
X004842Y015321D01*
X004994Y015169D01*
X005193Y015087D01*
X005407Y015087D01*
X005606Y015169D01*
X005758Y015321D01*
X005800Y015423D01*
X005842Y015321D01*
X005990Y015173D01*
X005990Y013095D01*
X006037Y012981D01*
X007385Y011633D01*
X007385Y011424D01*
X007419Y011342D01*
X007266Y011342D01*
X006891Y010967D01*
X005613Y010967D01*
X005499Y010919D01*
X005412Y010832D01*
X004162Y009582D01*
X004115Y009468D01*
X004115Y007235D01*
X003967Y007087D01*
X003885Y006889D01*
X003885Y006674D01*
X003967Y006476D01*
X004119Y006324D01*
X004318Y006242D01*
X004532Y006242D01*
X004731Y006324D01*
X004883Y006476D01*
X004965Y006674D01*
X004965Y006889D01*
X004883Y007087D01*
X004735Y007235D01*
X004735Y009278D01*
X005803Y010347D01*
X006891Y010347D01*
X007266Y009972D01*
X007834Y009972D01*
X008235Y010373D01*
X008235Y010403D01*
X008313Y010481D01*
X008428Y010597D01*
X008976Y010597D01*
X008842Y010462D01*
X008760Y010264D01*
X008760Y010049D01*
X008842Y009851D01*
X008994Y009699D01*
X009193Y009617D01*
X009407Y009617D01*
X009606Y009699D01*
X009758Y009851D01*
X009840Y010049D01*
X009840Y010222D01*
X012195Y010222D01*
X012135Y010076D01*
X012135Y009992D01*
X011912Y009770D01*
X011865Y009656D01*
X011865Y008785D01*
X011287Y008207D01*
X011240Y008093D01*
X011240Y007967D01*
X010860Y007967D01*
X010860Y008068D01*
X010775Y008274D01*
X010717Y008331D01*
X010969Y008435D01*
X011209Y008675D01*
X011338Y008987D01*
X011338Y009326D01*
X011209Y009638D01*
X010969Y009878D01*
X010657Y010007D01*
X010318Y010007D01*
X010006Y009878D01*
X009766Y009638D01*
X009637Y009326D01*
X009637Y008987D01*
X009746Y008724D01*
X009606Y008864D01*
X009231Y009239D01*
X009032Y009322D01*
X006943Y009322D01*
X006744Y009239D01*
X006592Y009087D01*
X005842Y008337D01*
X005760Y008139D01*
X005760Y002799D01*
X005842Y002601D01*
X005911Y002532D01*
X000925Y002532D01*
X000925Y008613D01*
X001237Y008302D01*
X001437Y008302D01*
X001437Y008857D01*
X001538Y008857D01*
X001538Y008957D01*
X002092Y008957D01*
X002092Y009157D01*
X001738Y009512D01*
X001538Y009512D01*
X001538Y008957D01*
X001437Y008957D01*
X001437Y009512D01*
X001237Y009512D01*
X000925Y009200D01*
X000925Y020301D01*
X000982Y020243D01*
X001107Y020192D01*
X002001Y020192D01*
X002119Y020074D01*
X002318Y019992D01*
X002532Y019992D01*
X002731Y020074D01*
X002883Y020226D01*
X002965Y020424D01*
X002965Y020639D01*
X002883Y020837D01*
X002731Y020989D01*
X002532Y021072D01*
X002318Y021072D01*
X002119Y020989D01*
X002001Y020872D01*
X001316Y020872D01*
X001140Y021047D01*
X001140Y021475D01*
X001543Y021475D01*
X001787Y021231D01*
X001874Y021144D01*
X001988Y021097D01*
X003047Y021097D01*
X004865Y019278D01*
X004865Y018485D01*
X004717Y018337D01*
X004635Y018139D01*
X004635Y017924D01*
X004717Y017726D01*
X004869Y017574D01*
X005068Y017492D01*
X005282Y017492D01*
X005481Y017574D01*
X005633Y017726D01*
X005715Y017924D01*
X005715Y018139D01*
X005633Y018337D01*
X005485Y018485D01*
X005485Y019468D01*
X005438Y019582D01*
X005351Y019669D01*
X003542Y021477D01*
X003740Y021559D01*
X003897Y021716D01*
X003925Y021784D01*
X003953Y021716D01*
X004110Y021559D01*
X004314Y021475D01*
X004536Y021475D01*
X004646Y021520D01*
X004662Y021481D01*
X005740Y020403D01*
X005740Y018470D01*
X005787Y018356D01*
X008287Y015856D01*
X008374Y015769D01*
X008488Y015722D01*
X009297Y015722D01*
X009920Y015098D01*
X009885Y015014D01*
X009885Y014799D01*
X009967Y014601D01*
X010119Y014449D01*
X010318Y014367D01*
X010532Y014367D01*
X010615Y014401D01*
X010615Y013595D01*
X010662Y013481D01*
X010749Y013394D01*
X010700Y013444D02*
X006610Y013444D01*
X006610Y013602D02*
X010615Y013602D01*
X010615Y013761D02*
X006610Y013761D01*
X006610Y013919D02*
X010615Y013919D01*
X010615Y014078D02*
X006610Y014078D01*
X006610Y014236D02*
X010615Y014236D01*
X010600Y014395D02*
X010615Y014395D01*
X010250Y014395D02*
X006610Y014395D01*
X006610Y014553D02*
X010015Y014553D01*
X009921Y014712D02*
X006610Y014712D01*
X006610Y014870D02*
X009885Y014870D01*
X009891Y015029D02*
X006610Y015029D01*
X006624Y015187D02*
X009831Y015187D01*
X009673Y015346D02*
X006768Y015346D01*
X006834Y015504D02*
X009514Y015504D01*
X009356Y015663D02*
X006840Y015663D01*
X006840Y015821D02*
X008322Y015821D01*
X008164Y015980D02*
X006840Y015980D01*
X006840Y016138D02*
X008005Y016138D01*
X007847Y016297D02*
X006839Y016297D01*
X006773Y016455D02*
X007688Y016455D01*
X007530Y016614D02*
X006637Y016614D01*
X006588Y016772D02*
X007371Y016772D01*
X007213Y016931D02*
X006464Y016931D01*
X006306Y017089D02*
X007054Y017089D01*
X006896Y017248D02*
X004496Y017248D01*
X004388Y017406D02*
X006737Y017406D01*
X006579Y017565D02*
X005459Y017565D01*
X005630Y017723D02*
X006420Y017723D01*
X006262Y017882D02*
X005697Y017882D01*
X005715Y018040D02*
X006103Y018040D01*
X005945Y018199D02*
X005690Y018199D01*
X005613Y018357D02*
X005787Y018357D01*
X005740Y018516D02*
X005485Y018516D01*
X005485Y018674D02*
X005740Y018674D01*
X005740Y018833D02*
X005485Y018833D01*
X005485Y018991D02*
X005740Y018991D01*
X005740Y019150D02*
X005485Y019150D01*
X005485Y019308D02*
X005740Y019308D01*
X005740Y019467D02*
X005485Y019467D01*
X005395Y019625D02*
X005740Y019625D01*
X005740Y019784D02*
X005236Y019784D01*
X005078Y019942D02*
X005740Y019942D01*
X005740Y020101D02*
X004919Y020101D01*
X004761Y020259D02*
X005740Y020259D01*
X005726Y020418D02*
X004602Y020418D01*
X004444Y020576D02*
X005567Y020576D01*
X005409Y020735D02*
X004285Y020735D01*
X004127Y020893D02*
X005250Y020893D01*
X005092Y021052D02*
X003968Y021052D01*
X003810Y021210D02*
X004933Y021210D01*
X004775Y021369D02*
X003651Y021369D01*
X003662Y021527D02*
X004188Y021527D01*
X003983Y021686D02*
X003867Y021686D01*
X003925Y021532D02*
X003925Y023032D01*
X003425Y023032D01*
X003443Y023050D02*
X003407Y023050D01*
X003407Y023542D01*
X003385Y023542D01*
X003306Y023529D01*
X003229Y023504D01*
X003158Y023468D01*
X003093Y023421D01*
X003036Y023364D01*
X002989Y023299D01*
X002952Y023227D01*
X002950Y023220D01*
X002897Y023347D01*
X002740Y023504D01*
X002536Y023588D01*
X002314Y023588D01*
X002110Y023504D01*
X001953Y023347D01*
X001943Y023323D01*
X001925Y023366D01*
X001759Y023532D01*
X001542Y023622D01*
X001308Y023622D01*
X001091Y023532D01*
X000925Y023366D01*
X000925Y023782D01*
X005862Y023782D01*
X005662Y023582D01*
X005646Y023543D01*
X005536Y023588D01*
X005314Y023588D01*
X005110Y023504D01*
X004953Y023347D01*
X004925Y023280D01*
X004897Y023347D01*
X004740Y023504D01*
X004536Y023588D01*
X004314Y023588D01*
X004110Y023504D01*
X003953Y023347D01*
X003900Y023220D01*
X003898Y023227D01*
X003861Y023299D01*
X003814Y023364D01*
X003757Y023421D01*
X003692Y023468D01*
X003621Y023504D01*
X003544Y023529D01*
X003465Y023542D01*
X003443Y023542D01*
X003443Y023050D01*
X003443Y023112D02*
X003407Y023112D01*
X003407Y023271D02*
X003443Y023271D01*
X003443Y023429D02*
X003407Y023429D01*
X003104Y023429D02*
X002815Y023429D01*
X002929Y023271D02*
X002974Y023271D01*
X002538Y023588D02*
X004312Y023588D01*
X004538Y023588D02*
X005312Y023588D01*
X005538Y023588D02*
X005668Y023588D01*
X005826Y023746D02*
X000925Y023746D01*
X000925Y023588D02*
X001226Y023588D01*
X000988Y023429D02*
X000925Y023429D01*
X001050Y023032D02*
X001425Y023032D01*
X001050Y023032D02*
X000800Y022782D01*
X000800Y020907D01*
X001175Y020532D01*
X002425Y020532D01*
X002925Y020735D02*
X003409Y020735D01*
X003250Y020893D02*
X002827Y020893D01*
X002581Y021052D02*
X003092Y021052D01*
X002965Y020576D02*
X003567Y020576D01*
X003726Y020418D02*
X002962Y020418D01*
X002897Y020259D02*
X003884Y020259D01*
X004043Y020101D02*
X002758Y020101D01*
X002092Y020101D02*
X000925Y020101D01*
X000925Y020259D02*
X000967Y020259D01*
X000925Y019942D02*
X004201Y019942D01*
X004360Y019784D02*
X000925Y019784D01*
X000925Y019625D02*
X004518Y019625D01*
X004677Y019467D02*
X000925Y019467D01*
X000925Y019308D02*
X004835Y019308D01*
X004865Y019150D02*
X000925Y019150D01*
X000925Y018991D02*
X004865Y018991D01*
X004865Y018833D02*
X000925Y018833D01*
X000925Y018674D02*
X004865Y018674D01*
X004865Y018516D02*
X000925Y018516D01*
X000925Y018357D02*
X004737Y018357D01*
X004660Y018199D02*
X000925Y018199D01*
X000925Y018040D02*
X004635Y018040D01*
X004653Y017882D02*
X002731Y017882D01*
X002890Y017723D02*
X004720Y017723D01*
X004891Y017565D02*
X003206Y017565D01*
X003354Y017406D02*
X003462Y017406D01*
X002950Y016931D02*
X002855Y016931D01*
X002728Y016772D02*
X003096Y016772D01*
X002886Y016614D02*
X003350Y016614D01*
X003350Y016455D02*
X002905Y016455D01*
X002905Y016297D02*
X003350Y016297D01*
X003350Y016138D02*
X002905Y016138D01*
X002791Y015980D02*
X003389Y015980D01*
X003615Y015821D02*
X002633Y015821D01*
X002320Y015821D02*
X002280Y015821D01*
X002280Y015739D02*
X002280Y016324D01*
X001695Y016324D01*
X001695Y016093D01*
X002049Y015739D01*
X002280Y015739D01*
X002280Y015980D02*
X002320Y015980D01*
X002320Y016138D02*
X002280Y016138D01*
X002280Y016297D02*
X002320Y016297D01*
X001809Y015980D02*
X000925Y015980D01*
X000925Y016138D02*
X001695Y016138D01*
X001695Y016297D02*
X000925Y016297D01*
X000925Y016455D02*
X001695Y016455D01*
X001714Y016614D02*
X000925Y016614D01*
X000925Y016772D02*
X001872Y016772D01*
X001745Y016931D02*
X000925Y016931D01*
X000925Y017089D02*
X001615Y017089D01*
X001615Y017248D02*
X000925Y017248D01*
X000925Y017406D02*
X001615Y017406D01*
X001615Y017565D02*
X000925Y017565D01*
X000925Y017723D02*
X001710Y017723D01*
X001869Y017882D02*
X000925Y017882D01*
X000925Y015821D02*
X001967Y015821D01*
X001368Y015663D02*
X000925Y015663D01*
X000925Y015504D02*
X001209Y015504D01*
X001051Y015346D02*
X000925Y015346D01*
X000925Y015187D02*
X000990Y015187D01*
X000990Y015029D02*
X000925Y015029D01*
X000925Y014870D02*
X000990Y014870D01*
X000990Y014712D02*
X000925Y014712D01*
X000925Y014553D02*
X000990Y014553D01*
X000990Y014395D02*
X000925Y014395D01*
X000925Y014236D02*
X000990Y014236D01*
X000990Y014078D02*
X000925Y014078D01*
X000925Y013919D02*
X000990Y013919D01*
X000990Y013761D02*
X000925Y013761D01*
X000925Y013602D02*
X000990Y013602D01*
X000990Y013444D02*
X000925Y013444D01*
X000925Y013285D02*
X000990Y013285D01*
X000990Y013127D02*
X000925Y013127D01*
X000925Y012968D02*
X000990Y012968D01*
X000990Y012810D02*
X000925Y012810D01*
X000925Y012651D02*
X000990Y012651D01*
X000990Y012493D02*
X000925Y012493D01*
X000925Y012334D02*
X000990Y012334D01*
X000990Y012176D02*
X000925Y012176D01*
X000925Y012017D02*
X000990Y012017D01*
X000990Y011859D02*
X000925Y011859D01*
X000925Y011700D02*
X000990Y011700D01*
X000990Y011542D02*
X000925Y011542D01*
X000925Y011383D02*
X000990Y011383D01*
X000990Y011225D02*
X000925Y011225D01*
X000925Y011066D02*
X001002Y011066D01*
X000925Y010908D02*
X001111Y010908D01*
X001269Y010749D02*
X000925Y010749D01*
X000925Y010591D02*
X001428Y010591D01*
X001720Y010432D02*
X000925Y010432D01*
X000925Y010274D02*
X001907Y010274D01*
X001769Y009481D02*
X004120Y009481D01*
X004115Y009323D02*
X001927Y009323D01*
X002086Y009164D02*
X004115Y009164D01*
X004115Y009006D02*
X002092Y009006D01*
X002092Y008857D02*
X001538Y008857D01*
X001538Y008302D01*
X001738Y008302D01*
X002092Y008656D01*
X002092Y008857D01*
X002092Y008847D02*
X004115Y008847D01*
X004115Y008689D02*
X002092Y008689D01*
X001967Y008530D02*
X004115Y008530D01*
X004115Y008372D02*
X001808Y008372D01*
X001538Y008372D02*
X001437Y008372D01*
X001437Y008530D02*
X001538Y008530D01*
X001538Y008689D02*
X001437Y008689D01*
X001437Y008847D02*
X001538Y008847D01*
X001538Y009006D02*
X001437Y009006D01*
X001437Y009164D02*
X001538Y009164D01*
X001538Y009323D02*
X001437Y009323D01*
X001437Y009481D02*
X001538Y009481D01*
X001206Y009481D02*
X000925Y009481D01*
X000925Y009323D02*
X001048Y009323D01*
X000925Y009640D02*
X004220Y009640D01*
X004378Y009798D02*
X000925Y009798D01*
X000925Y009957D02*
X004537Y009957D01*
X004695Y010115D02*
X000925Y010115D01*
X001670Y011225D02*
X001751Y011225D01*
X001610Y011383D02*
X001981Y011383D01*
X001610Y011542D02*
X007385Y011542D01*
X007402Y011383D02*
X003135Y011383D01*
X003365Y011225D02*
X007149Y011225D01*
X006991Y011066D02*
X003469Y011066D01*
X003523Y010908D02*
X005488Y010908D01*
X005329Y010749D02*
X003523Y010749D01*
X003481Y010591D02*
X005171Y010591D01*
X005012Y010432D02*
X003396Y010432D01*
X003208Y010274D02*
X004854Y010274D01*
X005413Y009957D02*
X008798Y009957D01*
X008760Y010115D02*
X007977Y010115D01*
X008136Y010274D02*
X008764Y010274D01*
X008830Y010432D02*
X008264Y010432D01*
X008422Y010591D02*
X008970Y010591D01*
X009840Y010115D02*
X012151Y010115D01*
X012099Y009957D02*
X010779Y009957D01*
X011049Y009798D02*
X011941Y009798D01*
X011865Y009640D02*
X011207Y009640D01*
X011274Y009481D02*
X011865Y009481D01*
X011865Y009323D02*
X011338Y009323D01*
X011338Y009164D02*
X011865Y009164D01*
X011865Y009006D02*
X011338Y009006D01*
X011280Y008847D02*
X011865Y008847D01*
X011769Y008689D02*
X011214Y008689D01*
X011064Y008530D02*
X011610Y008530D01*
X011452Y008372D02*
X010815Y008372D01*
X010800Y008213D02*
X011293Y008213D01*
X011240Y008055D02*
X010860Y008055D01*
X009695Y008847D02*
X009623Y008847D01*
X009637Y009006D02*
X009465Y009006D01*
X009306Y009164D02*
X009637Y009164D01*
X009637Y009323D02*
X004779Y009323D01*
X004735Y009164D02*
X006669Y009164D01*
X006510Y009006D02*
X004735Y009006D01*
X004735Y008847D02*
X006352Y008847D01*
X006193Y008689D02*
X004735Y008689D01*
X004735Y008530D02*
X006035Y008530D01*
X005876Y008372D02*
X004735Y008372D01*
X004735Y008213D02*
X005791Y008213D01*
X005760Y008055D02*
X004735Y008055D01*
X004735Y007896D02*
X005760Y007896D01*
X005760Y007738D02*
X004735Y007738D01*
X004735Y007579D02*
X005760Y007579D01*
X005760Y007421D02*
X004735Y007421D01*
X004735Y007262D02*
X005760Y007262D01*
X005760Y007104D02*
X004867Y007104D01*
X004942Y006945D02*
X005760Y006945D01*
X005760Y006787D02*
X004965Y006787D01*
X004946Y006628D02*
X005760Y006628D01*
X005760Y006470D02*
X004877Y006470D01*
X004700Y006311D02*
X005760Y006311D01*
X005760Y006153D02*
X000925Y006153D01*
X000925Y006311D02*
X004150Y006311D01*
X003973Y006470D02*
X000925Y006470D01*
X000925Y006628D02*
X003904Y006628D01*
X003885Y006787D02*
X000925Y006787D01*
X000925Y006945D02*
X003908Y006945D01*
X003983Y007104D02*
X000925Y007104D01*
X000925Y007262D02*
X004115Y007262D01*
X004115Y007421D02*
X000925Y007421D01*
X000925Y007579D02*
X004115Y007579D01*
X004115Y007738D02*
X000925Y007738D01*
X000925Y007896D02*
X004115Y007896D01*
X004115Y008055D02*
X000925Y008055D01*
X000925Y008213D02*
X004115Y008213D01*
X004938Y009481D02*
X009701Y009481D01*
X009768Y009640D02*
X009463Y009640D01*
X009705Y009798D02*
X009926Y009798D01*
X009802Y009957D02*
X010196Y009957D01*
X009137Y009640D02*
X005096Y009640D01*
X005255Y009798D02*
X008895Y009798D01*
X007123Y010115D02*
X005572Y010115D01*
X005730Y010274D02*
X006964Y010274D01*
X007318Y011700D02*
X001610Y011700D01*
X001610Y011859D02*
X007160Y011859D01*
X007001Y012017D02*
X001610Y012017D01*
X001610Y012176D02*
X006843Y012176D01*
X006684Y012334D02*
X003200Y012334D01*
X003189Y012326D02*
X003257Y012375D01*
X003317Y012435D01*
X003366Y012502D01*
X003404Y012577D01*
X003430Y012657D01*
X003443Y012740D01*
X003443Y012744D01*
X002595Y012744D01*
X002595Y012249D01*
X002952Y012249D01*
X003035Y012262D01*
X003115Y012288D01*
X003189Y012326D01*
X003359Y012493D02*
X006526Y012493D01*
X006367Y012651D02*
X003428Y012651D01*
X003443Y012819D02*
X003443Y012823D01*
X003430Y012906D01*
X003404Y012986D01*
X003366Y013061D01*
X003317Y013128D01*
X003257Y013188D01*
X003189Y013237D01*
X003115Y013275D01*
X003035Y013301D01*
X002952Y013314D01*
X002595Y013314D01*
X002595Y012819D01*
X002520Y012819D01*
X002520Y012744D01*
X001673Y012744D01*
X001673Y012740D01*
X001686Y012657D01*
X001712Y012577D01*
X001750Y012502D01*
X001799Y012435D01*
X001858Y012375D01*
X001926Y012326D01*
X002001Y012288D01*
X002081Y012262D01*
X002163Y012249D01*
X002520Y012249D01*
X002520Y012744D01*
X002595Y012744D01*
X002595Y012819D01*
X003443Y012819D01*
X003410Y012968D02*
X006050Y012968D01*
X005990Y013127D02*
X003318Y013127D01*
X003084Y013285D02*
X005990Y013285D01*
X005990Y013444D02*
X001610Y013444D01*
X001610Y013602D02*
X005990Y013602D01*
X005990Y013761D02*
X001610Y013761D01*
X001610Y013919D02*
X005990Y013919D01*
X005990Y014078D02*
X001610Y014078D01*
X001610Y014236D02*
X001853Y014236D01*
X001695Y014395D02*
X001610Y014395D01*
X001610Y014553D02*
X001624Y014553D01*
X001610Y013285D02*
X002032Y013285D01*
X002001Y013275D02*
X001926Y013237D01*
X001858Y013188D01*
X001799Y013128D01*
X001750Y013061D01*
X001712Y012986D01*
X001686Y012906D01*
X001673Y012823D01*
X001673Y012819D01*
X002520Y012819D01*
X002520Y013314D01*
X002163Y013314D01*
X002081Y013301D01*
X002001Y013275D01*
X001798Y013127D02*
X001610Y013127D01*
X001610Y012968D02*
X001706Y012968D01*
X001610Y012810D02*
X002520Y012810D01*
X002595Y012810D02*
X006209Y012810D01*
X007561Y012334D02*
X014341Y012334D01*
X014275Y012176D02*
X007719Y012176D01*
X008164Y012017D02*
X014260Y012017D01*
X014287Y011859D02*
X008362Y011859D01*
X008440Y011700D02*
X014368Y011700D01*
X014572Y011542D02*
X008465Y011542D01*
X005990Y014236D02*
X003263Y014236D01*
X003421Y014395D02*
X005990Y014395D01*
X005990Y014553D02*
X003492Y014553D01*
X003523Y014712D02*
X005990Y014712D01*
X005990Y014870D02*
X003523Y014870D01*
X003458Y015029D02*
X005990Y015029D01*
X005976Y015187D02*
X005624Y015187D01*
X005768Y015346D02*
X005832Y015346D01*
X004976Y015187D02*
X003894Y015187D01*
X004052Y015346D02*
X004832Y015346D01*
X004766Y015504D02*
X004197Y015504D01*
X004235Y015663D02*
X004760Y015663D01*
X004760Y015821D02*
X004235Y015821D01*
X004461Y015980D02*
X004760Y015980D01*
X002595Y013285D02*
X002520Y013285D01*
X002520Y013127D02*
X002595Y013127D01*
X002595Y012968D02*
X002520Y012968D01*
X002520Y012651D02*
X002595Y012651D01*
X002595Y012493D02*
X002520Y012493D01*
X002520Y012334D02*
X002595Y012334D01*
X001915Y012334D02*
X001610Y012334D01*
X001610Y012493D02*
X001757Y012493D01*
X001688Y012651D02*
X001610Y012651D01*
X001008Y008530D02*
X000925Y008530D01*
X000925Y008372D02*
X001167Y008372D01*
X000925Y005994D02*
X005760Y005994D01*
X005760Y005836D02*
X000925Y005836D01*
X000925Y005677D02*
X005760Y005677D01*
X005760Y005519D02*
X000925Y005519D01*
X000925Y005360D02*
X005760Y005360D01*
X005760Y005202D02*
X000925Y005202D01*
X000925Y005043D02*
X005760Y005043D01*
X005760Y004885D02*
X000925Y004885D01*
X000925Y004726D02*
X005760Y004726D01*
X005760Y004568D02*
X000925Y004568D01*
X000925Y004409D02*
X005760Y004409D01*
X005760Y004251D02*
X000925Y004251D01*
X000925Y004092D02*
X005760Y004092D01*
X005760Y003934D02*
X000925Y003934D01*
X000925Y003775D02*
X005760Y003775D01*
X005760Y003617D02*
X000925Y003617D01*
X000925Y003458D02*
X005760Y003458D01*
X005760Y003300D02*
X000925Y003300D01*
X000925Y003141D02*
X005760Y003141D01*
X005760Y002983D02*
X000925Y002983D01*
X000925Y002824D02*
X005760Y002824D01*
X005815Y002666D02*
X000925Y002666D01*
X006689Y002532D02*
X006758Y002601D01*
X006840Y002799D01*
X006840Y007808D01*
X007274Y008242D01*
X007914Y008242D01*
X007889Y008208D01*
X007855Y008141D01*
X007832Y008069D01*
X007820Y007994D01*
X007820Y007677D01*
X008280Y007677D01*
X008280Y007637D01*
X007820Y007637D01*
X007820Y007319D01*
X007832Y007244D01*
X007855Y007172D01*
X007889Y007105D01*
X007934Y007044D01*
X007987Y006990D01*
X008017Y006969D01*
X007987Y006948D01*
X007934Y006894D01*
X007889Y006833D01*
X007855Y006766D01*
X007832Y006694D01*
X007820Y006619D01*
X007820Y006302D01*
X008280Y006302D01*
X008280Y007062D01*
X008280Y007637D01*
X008320Y007637D01*
X008320Y006302D01*
X008280Y006302D01*
X008280Y006262D01*
X007820Y006262D01*
X007820Y005944D01*
X007832Y005869D01*
X007855Y005797D01*
X007889Y005730D01*
X007934Y005669D01*
X007987Y005615D01*
X008048Y005571D01*
X008116Y005537D01*
X008188Y005513D01*
X008214Y005509D01*
X008124Y005419D01*
X008047Y005342D01*
X007889Y005342D01*
X007683Y005256D01*
X007525Y005099D01*
X007440Y004893D01*
X007440Y004670D01*
X007525Y004464D01*
X007683Y004307D01*
X007744Y004282D01*
X007683Y004256D01*
X007525Y004099D01*
X007440Y003893D01*
X007440Y003670D01*
X007525Y003464D01*
X007683Y003307D01*
X007850Y003238D01*
X007816Y003226D01*
X007748Y003192D01*
X007687Y003148D01*
X007634Y003094D01*
X007589Y003033D01*
X007555Y002966D01*
X007532Y002894D01*
X007520Y002819D01*
X007520Y002802D01*
X008280Y002802D01*
X008280Y002762D01*
X007520Y002762D01*
X007520Y002744D01*
X007532Y002669D01*
X007555Y002597D01*
X007589Y002532D01*
X006689Y002532D01*
X006785Y002666D02*
X007533Y002666D01*
X007521Y002824D02*
X006840Y002824D01*
X006840Y002983D02*
X007564Y002983D01*
X007681Y003141D02*
X006840Y003141D01*
X006840Y003300D02*
X007700Y003300D01*
X007532Y003458D02*
X006840Y003458D01*
X006840Y003617D02*
X007462Y003617D01*
X007440Y003775D02*
X006840Y003775D01*
X006840Y003934D02*
X007457Y003934D01*
X007522Y004092D02*
X006840Y004092D01*
X006840Y004251D02*
X007677Y004251D01*
X007581Y004409D02*
X006840Y004409D01*
X006840Y004568D02*
X007483Y004568D01*
X007440Y004726D02*
X006840Y004726D01*
X006840Y004885D02*
X007440Y004885D01*
X007502Y005043D02*
X006840Y005043D01*
X006840Y005202D02*
X007628Y005202D01*
X008065Y005360D02*
X006840Y005360D01*
X006840Y005519D02*
X008172Y005519D01*
X007928Y005677D02*
X006840Y005677D01*
X006840Y005836D02*
X007843Y005836D01*
X007820Y005994D02*
X006840Y005994D01*
X006840Y006153D02*
X007820Y006153D01*
X007820Y006311D02*
X006840Y006311D01*
X006840Y006470D02*
X007820Y006470D01*
X007821Y006628D02*
X006840Y006628D01*
X006840Y006787D02*
X007866Y006787D01*
X007985Y006945D02*
X006840Y006945D01*
X006840Y007104D02*
X007890Y007104D01*
X007829Y007262D02*
X006840Y007262D01*
X006840Y007421D02*
X007820Y007421D01*
X007820Y007579D02*
X006840Y007579D01*
X006840Y007738D02*
X007820Y007738D01*
X007820Y007896D02*
X006928Y007896D01*
X007087Y008055D02*
X007830Y008055D01*
X007893Y008213D02*
X007245Y008213D01*
X008280Y007579D02*
X008320Y007579D01*
X008320Y007421D02*
X008280Y007421D01*
X008280Y007262D02*
X008320Y007262D01*
X008320Y007104D02*
X008280Y007104D01*
X008280Y006945D02*
X008320Y006945D01*
X008320Y006787D02*
X008280Y006787D01*
X008280Y006628D02*
X008320Y006628D01*
X008320Y006470D02*
X008280Y006470D01*
X008280Y006311D02*
X008320Y006311D01*
X012442Y005360D02*
X027425Y005360D01*
X027425Y005202D02*
X027222Y005202D01*
X027348Y005043D02*
X027425Y005043D01*
X027410Y004885D02*
X027425Y004885D01*
X027410Y004726D02*
X027425Y004726D01*
X027425Y004568D02*
X027367Y004568D01*
X027425Y004409D02*
X027269Y004409D01*
X027173Y004251D02*
X027425Y004251D01*
X027425Y004092D02*
X027328Y004092D01*
X027393Y003934D02*
X027425Y003934D01*
X027410Y003775D02*
X027425Y003775D01*
X027425Y003617D02*
X027388Y003617D01*
X027425Y003458D02*
X027318Y003458D01*
X027425Y003300D02*
X027150Y003300D01*
X027169Y003141D02*
X027425Y003141D01*
X027425Y002983D02*
X027286Y002983D01*
X027329Y002824D02*
X027425Y002824D01*
X027425Y002666D02*
X027317Y002666D01*
X026530Y002762D02*
X025955Y002762D01*
X025195Y002762D01*
X025195Y002802D01*
X026530Y002802D01*
X026530Y002762D01*
X025155Y002762D02*
X024395Y002762D01*
X023820Y002762D01*
X023820Y002802D01*
X025155Y002802D01*
X025155Y002762D01*
X023780Y002762D02*
X023020Y002762D01*
X022445Y002762D01*
X022445Y002802D01*
X023780Y002802D01*
X023780Y002762D01*
X022405Y002762D02*
X021645Y002762D01*
X021070Y002762D01*
X021070Y002802D01*
X022405Y002802D01*
X022405Y002762D01*
X021030Y002762D02*
X020270Y002762D01*
X019695Y002762D01*
X019695Y002802D01*
X021030Y002802D01*
X021030Y002762D01*
X019056Y003141D02*
X015794Y003141D01*
X015775Y003300D02*
X019075Y003300D01*
X018907Y003458D02*
X015943Y003458D01*
X016013Y003617D02*
X018837Y003617D01*
X018815Y003775D02*
X016035Y003775D01*
X016018Y003934D02*
X018832Y003934D01*
X018897Y004092D02*
X015953Y004092D01*
X015798Y004251D02*
X019052Y004251D01*
X018956Y004409D02*
X015894Y004409D01*
X015992Y004568D02*
X018858Y004568D01*
X018815Y004726D02*
X016035Y004726D01*
X016035Y004885D02*
X018815Y004885D01*
X018877Y005043D02*
X015973Y005043D01*
X015847Y005202D02*
X019003Y005202D01*
X020347Y005202D02*
X020378Y005202D01*
X021722Y005202D02*
X021753Y005202D01*
X023097Y005202D02*
X023128Y005202D01*
X024472Y005202D02*
X024503Y005202D01*
X025847Y005202D02*
X025878Y005202D01*
X026710Y005836D02*
X027425Y005836D01*
X027425Y005994D02*
X026868Y005994D01*
X027027Y006153D02*
X027425Y006153D01*
X027425Y006311D02*
X027128Y006311D01*
X027140Y006470D02*
X027362Y006470D01*
X027203Y006628D02*
X027140Y006628D01*
X026800Y006407D02*
X026800Y007157D01*
X027141Y007579D02*
X027175Y007579D01*
X026800Y006407D02*
X026425Y006032D01*
X027425Y005677D02*
X013553Y005677D01*
X013047Y005677D02*
X012610Y005677D01*
X012610Y005836D02*
X012857Y005836D01*
X012783Y005994D02*
X012610Y005994D01*
X012610Y006153D02*
X012760Y006153D01*
X012780Y006311D02*
X012610Y006311D01*
X012610Y006470D02*
X012849Y006470D01*
X013027Y006628D02*
X012610Y006628D01*
X012578Y005519D02*
X027425Y005519D01*
X024615Y006628D02*
X020946Y006628D01*
X021104Y006787D02*
X024629Y006787D01*
X024693Y006945D02*
X021170Y006945D01*
X021204Y007104D02*
X023415Y007104D01*
X023272Y007262D02*
X021204Y007262D01*
X021148Y007421D02*
X023260Y007421D01*
X023260Y007579D02*
X021052Y007579D01*
X020856Y007738D02*
X023260Y007738D01*
X023260Y007896D02*
X020249Y007896D01*
X020090Y008055D02*
X023273Y008055D01*
X023424Y008213D02*
X019932Y008213D01*
X019458Y007810D02*
X019420Y007810D01*
X019180Y007711D01*
X018996Y007527D01*
X018994Y007522D01*
X018988Y007530D01*
X018924Y007594D01*
X018851Y007647D01*
X018770Y007688D01*
X018684Y007716D01*
X018630Y007725D01*
X018630Y007237D01*
X018470Y007237D01*
X018470Y007684D01*
X018485Y007720D01*
X018485Y008718D01*
X018458Y008783D01*
X018465Y008799D01*
X018465Y008803D01*
X019458Y007810D01*
X019372Y007896D02*
X018485Y007896D01*
X018485Y007738D02*
X019244Y007738D01*
X019048Y007579D02*
X018939Y007579D01*
X018630Y007579D02*
X018470Y007579D01*
X018470Y007421D02*
X018630Y007421D01*
X018630Y007262D02*
X018470Y007262D01*
X018470Y006945D02*
X018630Y006945D01*
X018630Y006787D02*
X018470Y006787D01*
X018470Y006628D02*
X018630Y006628D01*
X018776Y006628D02*
X019154Y006628D01*
X018996Y006787D02*
X018990Y006787D01*
X018324Y006628D02*
X017946Y006628D01*
X018104Y006787D02*
X018110Y006787D01*
X017154Y006628D02*
X016946Y006628D01*
X018485Y008055D02*
X019214Y008055D01*
X019055Y008213D02*
X018485Y008213D01*
X018485Y008372D02*
X018897Y008372D01*
X018738Y008530D02*
X018485Y008530D01*
X018485Y008689D02*
X018580Y008689D01*
X019539Y009481D02*
X022686Y009481D01*
X022533Y009323D02*
X019697Y009323D01*
X019856Y009164D02*
X022490Y009164D01*
X022527Y009006D02*
X020014Y009006D01*
X020173Y008847D02*
X022737Y008847D01*
X022863Y008847D02*
X023802Y008847D01*
X023644Y008689D02*
X022446Y008689D01*
X022485Y008530D02*
X023486Y008530D01*
X023440Y008372D02*
X022444Y008372D01*
X023087Y009006D02*
X023961Y009006D01*
X024115Y009164D02*
X023246Y009164D01*
X023404Y009323D02*
X024115Y009323D01*
X024115Y009481D02*
X023563Y009481D01*
X023721Y009640D02*
X024115Y009640D01*
X024115Y009798D02*
X023880Y009798D01*
X024038Y009957D02*
X024115Y009957D01*
X024110Y010115D02*
X024115Y010115D01*
X024110Y010274D02*
X024115Y010274D01*
X024110Y010432D02*
X024115Y010432D01*
X024110Y010591D02*
X024115Y010591D01*
X024110Y010749D02*
X024115Y010749D01*
X024110Y010908D02*
X024115Y010908D01*
X024110Y011066D02*
X024115Y011066D01*
X024110Y011225D02*
X024115Y011225D01*
X024110Y011383D02*
X024115Y011383D01*
X024110Y011542D02*
X024115Y011542D01*
X024110Y011700D02*
X024115Y011700D01*
X024110Y011859D02*
X024115Y011859D01*
X024110Y012017D02*
X024115Y012017D01*
X024110Y012176D02*
X024115Y012176D01*
X024110Y012334D02*
X024115Y012334D01*
X024110Y012493D02*
X024115Y012493D01*
X024110Y012651D02*
X024115Y012651D01*
X024110Y012810D02*
X024115Y012810D01*
X024110Y012968D02*
X024115Y012968D01*
X024110Y013127D02*
X024115Y013127D01*
X024110Y013285D02*
X024115Y013285D01*
X024110Y013444D02*
X024115Y013444D01*
X024110Y013602D02*
X024115Y013602D01*
X024110Y013761D02*
X024115Y013761D01*
X024110Y013919D02*
X024115Y013919D01*
X024110Y014078D02*
X024115Y014078D01*
X024103Y014236D02*
X024115Y014236D01*
X024115Y014395D02*
X024000Y014395D01*
X024115Y014553D02*
X023842Y014553D01*
X023683Y014712D02*
X024115Y014712D01*
X024115Y014870D02*
X023525Y014870D01*
X024115Y015029D02*
X022116Y015029D01*
X021958Y015187D02*
X024131Y015187D01*
X024043Y015346D02*
X021799Y015346D01*
X020175Y012782D02*
X019675Y012782D01*
X018550Y013907D01*
X018550Y012968D02*
X018675Y012968D01*
X018834Y012810D02*
X018391Y012810D01*
X018233Y012651D02*
X018992Y012651D01*
X019151Y012493D02*
X018074Y012493D01*
X017985Y012334D02*
X019309Y012334D01*
X019468Y012176D02*
X017985Y012176D01*
X017985Y012017D02*
X018811Y012017D01*
X018613Y011859D02*
X017985Y011859D01*
X017985Y011700D02*
X018535Y011700D01*
X018510Y011542D02*
X017985Y011542D01*
X017985Y011383D02*
X018527Y011383D01*
X019083Y010908D02*
X023490Y010908D01*
X023490Y011066D02*
X019337Y011066D01*
X019507Y011225D02*
X023490Y011225D01*
X023490Y011383D02*
X022197Y011383D01*
X021903Y011383D02*
X019573Y011383D01*
X019590Y011542D02*
X021651Y011542D01*
X021551Y011700D02*
X019565Y011700D01*
X019487Y011859D02*
X021510Y011859D01*
X021510Y012014D02*
X021510Y012014D01*
X021503Y012017D02*
X020597Y012017D01*
X020757Y012176D02*
X021383Y012176D01*
X022449Y011542D02*
X023490Y011542D01*
X023490Y011700D02*
X022549Y011700D01*
X022590Y011859D02*
X023490Y011859D01*
X023490Y012017D02*
X022847Y012017D01*
X022967Y012176D02*
X023490Y012176D01*
X024735Y011225D02*
X024874Y011225D01*
X023490Y010749D02*
X019110Y010749D01*
X019110Y010591D02*
X023490Y010591D01*
X023490Y010432D02*
X019110Y010432D01*
X019110Y010274D02*
X023479Y010274D01*
X023320Y010115D02*
X019110Y010115D01*
X019110Y009957D02*
X023162Y009957D01*
X023003Y009798D02*
X019222Y009798D01*
X019380Y009640D02*
X022845Y009640D01*
X024685Y007104D02*
X024838Y007104D01*
X026860Y010274D02*
X027175Y010274D01*
X027175Y010432D02*
X026860Y010432D01*
X026860Y010591D02*
X027175Y010591D01*
X027175Y010749D02*
X026860Y010749D01*
X026860Y010908D02*
X027175Y010908D01*
X027175Y011066D02*
X026860Y011066D01*
X026860Y011225D02*
X027175Y011225D01*
X026860Y011383D02*
X031323Y011383D01*
X031345Y011383D02*
X031505Y011383D01*
X031505Y011380D02*
X031582Y011390D01*
X031684Y011418D01*
X031782Y011458D01*
X031873Y011511D01*
X031957Y011575D01*
X032032Y011650D01*
X032096Y011733D01*
X032149Y011825D01*
X032189Y011922D01*
X032216Y012024D01*
X032226Y012102D01*
X031505Y012102D01*
X031505Y012262D01*
X031345Y012262D01*
X031345Y012983D01*
X031268Y012973D01*
X031166Y012945D01*
X031068Y012905D01*
X030977Y012852D01*
X030893Y012788D01*
X030818Y012713D01*
X030754Y012630D01*
X030701Y012538D01*
X030661Y012441D01*
X030634Y012339D01*
X030624Y012262D01*
X031345Y012262D01*
X031345Y012102D01*
X030624Y012102D01*
X030634Y012024D01*
X030661Y011922D01*
X030701Y011825D01*
X030754Y011733D01*
X030818Y011650D01*
X030893Y011575D01*
X030977Y011511D01*
X031068Y011458D01*
X031166Y011418D01*
X031268Y011390D01*
X031345Y011380D01*
X031345Y012102D01*
X031505Y012102D01*
X031505Y011380D01*
X031527Y011383D02*
X033660Y011383D01*
X033660Y011542D02*
X031913Y011542D01*
X032070Y011700D02*
X033660Y011700D01*
X033660Y011859D02*
X032163Y011859D01*
X032214Y012017D02*
X033660Y012017D01*
X033660Y012176D02*
X031505Y012176D01*
X031505Y012262D02*
X032226Y012262D01*
X032216Y012339D01*
X032189Y012441D01*
X032149Y012538D01*
X032096Y012630D01*
X032032Y012713D01*
X031957Y012788D01*
X031873Y012852D01*
X031782Y012905D01*
X031684Y012945D01*
X031582Y012973D01*
X031505Y012983D01*
X031505Y012262D01*
X031505Y012334D02*
X031345Y012334D01*
X031345Y012176D02*
X027007Y012176D01*
X026860Y012017D02*
X030636Y012017D01*
X030687Y011859D02*
X026860Y011859D01*
X026860Y011700D02*
X030780Y011700D01*
X030937Y011542D02*
X026860Y011542D01*
X027166Y012334D02*
X030633Y012334D01*
X030683Y012493D02*
X027324Y012493D01*
X027483Y012651D02*
X030771Y012651D01*
X030921Y012810D02*
X027641Y012810D01*
X027800Y012968D02*
X031250Y012968D01*
X031345Y012968D02*
X031505Y012968D01*
X031600Y012968D02*
X033660Y012968D01*
X033660Y012810D02*
X031929Y012810D01*
X032079Y012651D02*
X033660Y012651D01*
X033660Y012493D02*
X032167Y012493D01*
X032217Y012334D02*
X033660Y012334D01*
X033660Y013127D02*
X027958Y013127D01*
X028117Y013285D02*
X033660Y013285D01*
X033660Y013444D02*
X028275Y013444D01*
X027057Y013602D02*
X026271Y013602D01*
X026431Y013444D02*
X026899Y013444D01*
X026740Y013285D02*
X026497Y013285D01*
X026507Y013127D02*
X026582Y013127D01*
X027122Y015821D02*
X025015Y015821D01*
X024866Y015980D02*
X027039Y015980D01*
X027010Y016138D02*
X026334Y016138D01*
X026579Y016297D02*
X026972Y016297D01*
X026813Y016455D02*
X026676Y016455D01*
X029979Y018991D02*
X031199Y018991D01*
X031199Y019150D02*
X029771Y019150D01*
X029515Y019308D02*
X031199Y019308D01*
X031258Y019467D02*
X029673Y019467D01*
X029832Y019625D02*
X031323Y019625D01*
X031474Y019784D02*
X029990Y019784D01*
X030149Y019942D02*
X031724Y019942D01*
X031264Y018833D02*
X030062Y018833D01*
X030212Y018674D02*
X031330Y018674D01*
X031488Y018516D02*
X030455Y018516D01*
X030586Y018040D02*
X030961Y018040D01*
X030794Y017882D02*
X030521Y017882D01*
X027800Y022157D02*
X027800Y023157D01*
X028133Y023588D02*
X033660Y023588D01*
X033660Y023746D02*
X015524Y023746D01*
X015682Y023588D02*
X015683Y023588D01*
X016167Y023588D02*
X016683Y023588D01*
X016481Y023429D02*
X016369Y023429D01*
X017167Y023588D02*
X017683Y023588D01*
X017481Y023429D02*
X017369Y023429D01*
X018167Y023588D02*
X018683Y023588D01*
X018481Y023429D02*
X018369Y023429D01*
X019167Y023588D02*
X020683Y023588D01*
X020481Y023429D02*
X020256Y023429D01*
X020367Y023271D02*
X020397Y023271D01*
X019945Y023271D02*
X019905Y023271D01*
X019905Y023429D02*
X019945Y023429D01*
X019594Y023429D02*
X019369Y023429D01*
X019453Y023271D02*
X019483Y023271D01*
X019905Y023112D02*
X019945Y023112D01*
X019945Y022954D02*
X019905Y022954D01*
X019905Y022762D02*
X019945Y022762D01*
X019945Y022002D01*
X019963Y022002D01*
X020037Y022013D01*
X020109Y022037D01*
X020177Y022071D01*
X020238Y022115D01*
X020291Y022169D01*
X020336Y022230D01*
X020370Y022297D01*
X020381Y022332D01*
X020450Y022164D01*
X020550Y022064D01*
X020369Y021989D01*
X020217Y021837D01*
X020135Y021639D01*
X020135Y021424D01*
X020169Y021342D01*
X019428Y021342D01*
X018848Y021922D01*
X019036Y021922D01*
X019242Y022007D01*
X019400Y022164D01*
X019469Y022332D01*
X019480Y022297D01*
X019514Y022230D01*
X019559Y022169D01*
X019612Y022115D01*
X019673Y022071D01*
X019741Y022037D01*
X019813Y022013D01*
X019887Y022002D01*
X019905Y022002D01*
X019905Y022762D01*
X019905Y022637D02*
X019945Y022637D01*
X019945Y022478D02*
X019905Y022478D01*
X019905Y022320D02*
X019945Y022320D01*
X019945Y022161D02*
X019905Y022161D01*
X019905Y022003D02*
X019945Y022003D01*
X019969Y022003D02*
X020401Y022003D01*
X020454Y022161D02*
X020283Y022161D01*
X020377Y022320D02*
X020386Y022320D01*
X019881Y022003D02*
X019232Y022003D01*
X019396Y022161D02*
X019567Y022161D01*
X019473Y022320D02*
X019464Y022320D01*
X018926Y021844D02*
X020224Y021844D01*
X020154Y021686D02*
X019084Y021686D01*
X019243Y021527D02*
X020135Y021527D01*
X020158Y021369D02*
X019401Y021369D01*
X017592Y020101D02*
X017508Y020101D01*
X017024Y019942D02*
X018031Y019942D01*
X017990Y019784D02*
X014844Y019784D01*
X014685Y019625D02*
X017256Y019625D01*
X017210Y019467D02*
X014794Y019467D01*
X014905Y019308D02*
X017210Y019308D01*
X017210Y019150D02*
X014445Y019150D01*
X014780Y018833D02*
X017210Y018833D01*
X017210Y018991D02*
X014905Y018991D01*
X014971Y018674D02*
X017270Y018674D01*
X017390Y018516D02*
X015129Y018516D01*
X015288Y018357D02*
X017385Y018357D01*
X017385Y018199D02*
X016196Y018199D01*
X016355Y018040D02*
X017441Y018040D01*
X017561Y017882D02*
X016513Y017882D01*
X016672Y017723D02*
X019272Y017723D01*
X019206Y017882D02*
X019039Y017882D01*
X019159Y018040D02*
X019190Y018040D01*
X019425Y017565D02*
X016830Y017565D01*
X015780Y016614D02*
X014735Y016614D01*
X014738Y016615D02*
X014791Y016669D01*
X014836Y016730D01*
X014870Y016797D01*
X014893Y016869D01*
X014905Y016944D01*
X014905Y017262D01*
X014445Y017262D01*
X014445Y016502D01*
X014463Y016502D01*
X014537Y016513D01*
X014609Y016537D01*
X014677Y016571D01*
X014738Y016615D01*
X014857Y016772D02*
X015369Y016772D01*
X015137Y016931D02*
X014903Y016931D01*
X014905Y017089D02*
X015045Y017089D01*
X015010Y017248D02*
X014905Y017248D01*
X014905Y017406D02*
X015017Y017406D01*
X014445Y017248D02*
X014405Y017248D01*
X014405Y017089D02*
X014445Y017089D01*
X014445Y016931D02*
X014405Y016931D01*
X014405Y016772D02*
X014445Y016772D01*
X014445Y016614D02*
X014405Y016614D01*
X014115Y016614D02*
X013849Y016614D01*
X013944Y016772D02*
X013993Y016772D01*
X013617Y016455D02*
X015938Y016455D01*
X018289Y017882D02*
X018311Y017882D01*
X021485Y019150D02*
X022244Y019150D01*
X022085Y019308D02*
X021485Y019308D01*
X021485Y019467D02*
X021927Y019467D01*
X021768Y019625D02*
X021485Y019625D01*
X021485Y019784D02*
X021610Y019784D01*
X024136Y023112D02*
X024214Y023112D01*
X024372Y023271D02*
X023978Y023271D01*
X024978Y023271D02*
X025372Y023271D01*
X025214Y023112D02*
X025136Y023112D01*
X025978Y023271D02*
X026372Y023271D01*
X026214Y023112D02*
X026136Y023112D01*
X027467Y023588D02*
X021167Y023588D01*
X014425Y020157D02*
X013925Y020657D01*
X013175Y020657D01*
X012925Y020407D01*
X012925Y019907D01*
X012675Y019657D01*
X012175Y019657D01*
X011925Y019907D01*
X011925Y020532D01*
X011300Y021157D01*
X010549Y021157D01*
X009675Y021157D01*
X009425Y020907D01*
X009425Y020532D01*
X008925Y020032D01*
X008300Y020032D01*
X008050Y019782D01*
X008050Y019282D01*
X008300Y019032D01*
X008300Y017532D01*
X008550Y017282D01*
X011425Y017282D01*
X010865Y016931D02*
X008589Y016931D01*
X008748Y016772D02*
X010906Y016772D01*
X011617Y016455D02*
X012233Y016455D01*
X012001Y016614D02*
X011849Y016614D01*
X012617Y016455D02*
X013233Y016455D01*
X013001Y016614D02*
X012849Y016614D01*
X019289Y012017D02*
X019628Y012017D01*
X018490Y010591D02*
X017505Y010591D01*
X017547Y010749D02*
X017332Y010749D01*
X017391Y010908D02*
X016862Y010908D01*
X017572Y010432D02*
X018033Y010432D01*
X018317Y010432D02*
X018490Y010432D01*
X017778Y010274D02*
X017590Y010274D01*
X017566Y010115D02*
X017677Y010115D01*
X013301Y007738D02*
X012819Y007738D01*
X012978Y007896D02*
X013109Y007896D01*
X013097Y005202D02*
X013128Y005202D01*
X014472Y005202D02*
X014503Y005202D01*
X015911Y002983D02*
X018939Y002983D01*
X018896Y002824D02*
X015954Y002824D01*
X015942Y002666D02*
X018908Y002666D01*
X015155Y002762D02*
X014580Y002762D01*
X013820Y002762D01*
X013820Y002802D01*
X015155Y002802D01*
X015155Y002762D01*
X013780Y002762D02*
X013020Y002762D01*
X012445Y002762D01*
X012445Y002802D01*
X013780Y002802D01*
X013780Y002762D01*
X012405Y002762D02*
X011645Y002762D01*
X011070Y002762D01*
X011070Y002802D01*
X012405Y002802D01*
X012405Y002762D01*
X011030Y002762D02*
X010270Y002762D01*
X009695Y002762D01*
X009695Y002802D01*
X011030Y002802D01*
X011030Y002762D01*
X009655Y002762D02*
X008895Y002762D01*
X008320Y002762D01*
X008320Y002802D01*
X009655Y002802D01*
X009655Y002762D01*
X019946Y006628D02*
X020154Y006628D01*
X031345Y011542D02*
X031505Y011542D01*
X031505Y011700D02*
X031345Y011700D01*
X031345Y011859D02*
X031505Y011859D01*
X031505Y012017D02*
X031345Y012017D01*
X031345Y012493D02*
X031505Y012493D01*
X031505Y012651D02*
X031345Y012651D01*
X031345Y012810D02*
X031505Y012810D01*
X031339Y023112D02*
X031261Y023112D01*
X031103Y023271D02*
X031497Y023271D01*
X032103Y023271D02*
X032497Y023271D01*
X032339Y023112D02*
X032261Y023112D01*
X030497Y023271D02*
X030103Y023271D01*
X030261Y023112D02*
X030339Y023112D01*
X005035Y023429D02*
X004815Y023429D01*
X004035Y023429D02*
X003746Y023429D01*
X003925Y023407D02*
X003925Y023032D01*
X003921Y023271D02*
X003876Y023271D01*
X002312Y023588D02*
X001624Y023588D01*
X001862Y023429D02*
X002035Y023429D01*
X001650Y021369D02*
X001140Y021369D01*
X001140Y021210D02*
X001808Y021210D01*
X002023Y020893D02*
X001294Y020893D01*
X001140Y021052D02*
X002269Y021052D01*
M02*
