G75*
G70*
%OFA0B0*%
%FSLAX24Y24*%
%IPPOS*%
%LPD*%
%AMOC8*
5,1,8,0,0,1.08239X$1,22.5*
%
%ADD10C,0.0640*%
%ADD11C,0.0827*%
%ADD12C,0.0800*%
%ADD13OC8,0.0890*%
%ADD14C,0.0050*%
%ADD15R,0.0634X0.0634*%
%ADD16C,0.0700*%
%ADD17C,0.0634*%
%ADD18C,0.0000*%
%ADD19C,0.1221*%
%ADD20R,0.0500X0.0670*%
%ADD21R,0.0060X0.0720*%
%ADD22C,0.0560*%
%ADD23R,0.0670X0.0500*%
%ADD24R,0.0720X0.0060*%
%ADD25OC8,0.0640*%
%ADD26R,0.1600X0.1600*%
%ADD27C,0.1290*%
%ADD28C,0.0600*%
%ADD29C,0.0745*%
D10*
X008000Y002782D02*
X008600Y002782D01*
X009375Y002782D02*
X009975Y002782D01*
X010750Y002782D02*
X011350Y002782D01*
X012125Y002782D02*
X012725Y002782D01*
X013500Y002782D02*
X014100Y002782D01*
X014875Y002782D02*
X015475Y002782D01*
X015475Y003782D02*
X014875Y003782D01*
X014100Y003782D02*
X013500Y003782D01*
X012725Y003782D02*
X012125Y003782D01*
X011350Y003782D02*
X010750Y003782D01*
X009975Y003782D02*
X009375Y003782D01*
X008600Y003782D02*
X008000Y003782D01*
X008000Y004782D02*
X008600Y004782D01*
X009375Y004782D02*
X009975Y004782D01*
X010750Y004782D02*
X011350Y004782D01*
X012125Y004782D02*
X012725Y004782D01*
X013500Y004782D02*
X014100Y004782D01*
X014875Y004782D02*
X015475Y004782D01*
X019375Y004782D02*
X019975Y004782D01*
X020750Y004782D02*
X021350Y004782D01*
X022125Y004782D02*
X022725Y004782D01*
X023500Y004782D02*
X024100Y004782D01*
X024875Y004782D02*
X025475Y004782D01*
X026250Y004782D02*
X026850Y004782D01*
X026850Y003782D02*
X026250Y003782D01*
X025475Y003782D02*
X024875Y003782D01*
X024100Y003782D02*
X023500Y003782D01*
X022725Y003782D02*
X022125Y003782D01*
X021350Y003782D02*
X020750Y003782D01*
X019975Y003782D02*
X019375Y003782D01*
X019375Y002782D02*
X019975Y002782D01*
X020750Y002782D02*
X021350Y002782D01*
X022125Y002782D02*
X022725Y002782D01*
X023500Y002782D02*
X024100Y002782D01*
X024875Y002782D02*
X025475Y002782D01*
X026250Y002782D02*
X026850Y002782D01*
X010300Y005982D02*
X010300Y006582D01*
X010300Y007357D02*
X010300Y007957D01*
X009300Y007957D02*
X009300Y007357D01*
X009300Y006582D02*
X009300Y005982D01*
X008300Y005982D02*
X008300Y006582D01*
X008300Y007357D02*
X008300Y007957D01*
X011425Y016982D02*
X011425Y017582D01*
X012425Y017582D02*
X012425Y016982D01*
X013425Y016982D02*
X013425Y017582D01*
X014425Y017582D02*
X014425Y016982D01*
X019750Y018032D02*
X020350Y018032D01*
X020350Y019032D02*
X019750Y019032D01*
X019750Y020032D02*
X020350Y020032D01*
X019925Y022482D02*
X019925Y023082D01*
X018925Y023082D02*
X018925Y022482D01*
X017925Y022482D02*
X017925Y023082D01*
X016925Y023082D02*
X016925Y022482D01*
X015925Y022482D02*
X015925Y023082D01*
X014925Y023082D02*
X014925Y022482D01*
X020925Y022482D02*
X020925Y023082D01*
D11*
X020550Y007157D03*
X019550Y007157D03*
X018550Y007157D03*
X017550Y007157D03*
X016550Y007157D03*
D12*
X025175Y007657D03*
X025175Y008657D03*
X025175Y009657D03*
X025175Y010657D03*
X025175Y006657D03*
D13*
X028425Y003282D03*
X029425Y003282D03*
X030425Y003282D03*
X032675Y009032D03*
X032675Y010032D03*
X007550Y010657D03*
X001488Y008907D03*
X002300Y016344D03*
X002300Y017344D03*
D14*
X000480Y024108D02*
X000480Y002061D01*
X033945Y002061D01*
X033945Y024108D01*
X000480Y024108D01*
D15*
X001425Y022032D03*
D16*
X001425Y023032D03*
X003425Y023032D03*
D17*
X004425Y023032D03*
X005425Y023032D03*
X006425Y023032D03*
X007425Y023032D03*
X008425Y023032D03*
X009425Y023032D03*
X010425Y023032D03*
X011425Y023032D03*
X012425Y023032D03*
X013425Y023032D03*
X013425Y022032D03*
X012425Y022032D03*
X011425Y022032D03*
X010425Y022032D03*
X009425Y022032D03*
X008425Y022032D03*
X007425Y022032D03*
X006425Y022032D03*
X005425Y022032D03*
X004425Y022032D03*
X003425Y022032D03*
X002425Y022032D03*
X002425Y023032D03*
D18*
X009897Y009157D02*
X009899Y009205D01*
X009905Y009253D01*
X009915Y009300D01*
X009928Y009346D01*
X009946Y009391D01*
X009966Y009435D01*
X009991Y009477D01*
X010019Y009516D01*
X010049Y009553D01*
X010083Y009587D01*
X010120Y009619D01*
X010158Y009648D01*
X010199Y009673D01*
X010242Y009695D01*
X010287Y009713D01*
X010333Y009727D01*
X010380Y009738D01*
X010428Y009745D01*
X010476Y009748D01*
X010524Y009747D01*
X010572Y009742D01*
X010620Y009733D01*
X010666Y009721D01*
X010711Y009704D01*
X010755Y009684D01*
X010797Y009661D01*
X010837Y009634D01*
X010875Y009604D01*
X010910Y009571D01*
X010942Y009535D01*
X010972Y009497D01*
X010998Y009456D01*
X011020Y009413D01*
X011040Y009369D01*
X011055Y009324D01*
X011067Y009277D01*
X011075Y009229D01*
X011079Y009181D01*
X011079Y009133D01*
X011075Y009085D01*
X011067Y009037D01*
X011055Y008990D01*
X011040Y008945D01*
X011020Y008901D01*
X010998Y008858D01*
X010972Y008817D01*
X010942Y008779D01*
X010910Y008743D01*
X010875Y008710D01*
X010837Y008680D01*
X010797Y008653D01*
X010755Y008630D01*
X010711Y008610D01*
X010666Y008593D01*
X010620Y008581D01*
X010572Y008572D01*
X010524Y008567D01*
X010476Y008566D01*
X010428Y008569D01*
X010380Y008576D01*
X010333Y008587D01*
X010287Y008601D01*
X010242Y008619D01*
X010199Y008641D01*
X010158Y008666D01*
X010120Y008695D01*
X010083Y008727D01*
X010049Y008761D01*
X010019Y008798D01*
X009991Y008837D01*
X009966Y008879D01*
X009946Y008923D01*
X009928Y008968D01*
X009915Y009014D01*
X009905Y009061D01*
X009899Y009109D01*
X009897Y009157D01*
X031459Y019157D02*
X031461Y019205D01*
X031467Y019253D01*
X031477Y019300D01*
X031490Y019346D01*
X031508Y019391D01*
X031528Y019435D01*
X031553Y019477D01*
X031581Y019516D01*
X031611Y019553D01*
X031645Y019587D01*
X031682Y019619D01*
X031720Y019648D01*
X031761Y019673D01*
X031804Y019695D01*
X031849Y019713D01*
X031895Y019727D01*
X031942Y019738D01*
X031990Y019745D01*
X032038Y019748D01*
X032086Y019747D01*
X032134Y019742D01*
X032182Y019733D01*
X032228Y019721D01*
X032273Y019704D01*
X032317Y019684D01*
X032359Y019661D01*
X032399Y019634D01*
X032437Y019604D01*
X032472Y019571D01*
X032504Y019535D01*
X032534Y019497D01*
X032560Y019456D01*
X032582Y019413D01*
X032602Y019369D01*
X032617Y019324D01*
X032629Y019277D01*
X032637Y019229D01*
X032641Y019181D01*
X032641Y019133D01*
X032637Y019085D01*
X032629Y019037D01*
X032617Y018990D01*
X032602Y018945D01*
X032582Y018901D01*
X032560Y018858D01*
X032534Y018817D01*
X032504Y018779D01*
X032472Y018743D01*
X032437Y018710D01*
X032399Y018680D01*
X032359Y018653D01*
X032317Y018630D01*
X032273Y018610D01*
X032228Y018593D01*
X032182Y018581D01*
X032134Y018572D01*
X032086Y018567D01*
X032038Y018566D01*
X031990Y018569D01*
X031942Y018576D01*
X031895Y018587D01*
X031849Y018601D01*
X031804Y018619D01*
X031761Y018641D01*
X031720Y018666D01*
X031682Y018695D01*
X031645Y018727D01*
X031611Y018761D01*
X031581Y018798D01*
X031553Y018837D01*
X031528Y018879D01*
X031508Y018923D01*
X031490Y018968D01*
X031477Y019014D01*
X031467Y019061D01*
X031461Y019109D01*
X031459Y019157D01*
D19*
X032050Y019157D03*
X010488Y009157D03*
D20*
X017700Y019157D03*
X018300Y019157D03*
X018900Y019157D03*
X023750Y007657D03*
X024350Y007657D03*
D21*
X024050Y007657D03*
D22*
X024988Y013157D03*
X025988Y013157D03*
D23*
X003925Y016357D03*
X003925Y016957D03*
D24*
X003925Y016657D03*
D25*
X010425Y019157D03*
X011425Y019157D03*
X012425Y019157D03*
X013425Y019157D03*
X014425Y019157D03*
X014425Y020157D03*
X013425Y020157D03*
X012425Y020157D03*
X011425Y020157D03*
X010425Y020157D03*
X020175Y013782D03*
X021175Y013782D03*
X022175Y013782D03*
X023175Y013782D03*
X023175Y012782D03*
X022175Y012782D03*
X021175Y012782D03*
X020175Y012782D03*
X022675Y021782D03*
X023675Y021782D03*
X024675Y021782D03*
X025675Y021782D03*
X026675Y021782D03*
X026675Y022782D03*
X025675Y022782D03*
X024675Y022782D03*
X023675Y022782D03*
X022675Y022782D03*
X028800Y022782D03*
X029800Y022782D03*
X030800Y022782D03*
X031800Y022782D03*
X032800Y022782D03*
X032800Y021782D03*
X031800Y021782D03*
X030800Y021782D03*
X029800Y021782D03*
X028800Y021782D03*
D26*
X031425Y014782D03*
D27*
X031425Y017382D03*
X031425Y012182D03*
D28*
X006300Y015627D02*
X006300Y016187D01*
X005300Y016187D02*
X005300Y015627D01*
D29*
X002910Y014750D02*
X002205Y014750D01*
X002205Y012782D02*
X002910Y012782D01*
X002910Y010813D02*
X002205Y010813D01*
M02*
