G75*
G70*
%OFA0B0*%
%FSLAX24Y24*%
%IPPOS*%
%LPD*%
%AMOC8*
5,1,8,0,0,1.08239X$1,22.5*
%
%ADD10R,0.2100X0.0760*%
%ADD11C,0.0600*%
%ADD12R,0.0197X0.0591*%
%ADD13R,0.0591X0.0197*%
%ADD14R,0.0240X0.0870*%
%ADD15R,0.2299X0.1551*%
%ADD16R,0.0551X0.1181*%
%ADD17R,0.0551X0.0394*%
%ADD18R,0.1575X0.0630*%
%ADD19R,0.0591X0.0512*%
%ADD20R,0.0512X0.0630*%
%ADD21R,0.0512X0.0591*%
%ADD22C,0.0760*%
%ADD23R,0.0472X0.0472*%
%ADD24R,0.0591X0.0787*%
%ADD25R,0.0630X0.0512*%
%ADD26R,0.0866X0.0236*%
%ADD27R,0.0630X0.0354*%
%ADD28C,0.0500*%
%ADD29OC8,0.0850*%
%ADD30C,0.0050*%
%ADD31R,0.0594X0.0594*%
%ADD32C,0.0660*%
%ADD33C,0.0594*%
%ADD34C,0.0000*%
%ADD35R,0.0236X0.0236*%
%ADD36R,0.0787X0.0591*%
%ADD37R,0.1181X0.0551*%
%ADD38R,0.0260X0.0800*%
%ADD39C,0.0520*%
%ADD40OC8,0.0600*%
%ADD41R,0.0591X0.0157*%
%ADD42R,0.0390X0.0120*%
%ADD43R,0.1560X0.1560*%
%ADD44C,0.1250*%
%ADD45R,0.0120X0.0390*%
%ADD46C,0.0560*%
%ADD47C,0.0705*%
%ADD48C,0.0100*%
%ADD49C,0.0560*%
%ADD50C,0.0160*%
%ADD51C,0.0320*%
%ADD52C,0.0400*%
D10*
X012900Y014407D03*
X016700Y014407D03*
D11*
X014425Y016982D02*
X014425Y017582D01*
X013425Y017582D02*
X013425Y016982D01*
X012425Y016982D02*
X012425Y017582D01*
X011425Y017582D02*
X011425Y016982D01*
X014925Y022482D02*
X014925Y023082D01*
X015925Y023082D02*
X015925Y022482D01*
X016925Y022482D02*
X016925Y023082D01*
X017925Y023082D02*
X017925Y022482D01*
X018925Y022482D02*
X018925Y023082D01*
X019925Y023082D02*
X019925Y022482D01*
X020925Y022482D02*
X020925Y023082D01*
X020350Y020032D02*
X019750Y020032D01*
X019750Y019032D02*
X020350Y019032D01*
X020350Y018032D02*
X019750Y018032D01*
X010300Y007957D02*
X010300Y007357D01*
X010300Y006582D02*
X010300Y005982D01*
X009300Y005982D02*
X009300Y006582D01*
X009300Y007357D02*
X009300Y007957D01*
X008300Y007957D02*
X008300Y007357D01*
X008300Y006582D02*
X008300Y005982D01*
X008600Y004782D02*
X008000Y004782D01*
X008000Y003782D02*
X008600Y003782D01*
X009375Y003782D02*
X009975Y003782D01*
X010750Y003782D02*
X011350Y003782D01*
X012125Y003782D02*
X012725Y003782D01*
X013500Y003782D02*
X014100Y003782D01*
X014875Y003782D02*
X015475Y003782D01*
X015475Y004782D02*
X014875Y004782D01*
X014100Y004782D02*
X013500Y004782D01*
X012725Y004782D02*
X012125Y004782D01*
X011350Y004782D02*
X010750Y004782D01*
X009975Y004782D02*
X009375Y004782D01*
X009375Y002782D02*
X009975Y002782D01*
X010750Y002782D02*
X011350Y002782D01*
X012125Y002782D02*
X012725Y002782D01*
X013500Y002782D02*
X014100Y002782D01*
X014875Y002782D02*
X015475Y002782D01*
X019375Y002782D02*
X019975Y002782D01*
X020750Y002782D02*
X021350Y002782D01*
X022125Y002782D02*
X022725Y002782D01*
X023500Y002782D02*
X024100Y002782D01*
X024875Y002782D02*
X025475Y002782D01*
X026250Y002782D02*
X026850Y002782D01*
X026850Y003782D02*
X026250Y003782D01*
X025475Y003782D02*
X024875Y003782D01*
X024100Y003782D02*
X023500Y003782D01*
X022725Y003782D02*
X022125Y003782D01*
X021350Y003782D02*
X020750Y003782D01*
X019975Y003782D02*
X019375Y003782D01*
X019375Y004782D02*
X019975Y004782D01*
X020750Y004782D02*
X021350Y004782D01*
X022125Y004782D02*
X022725Y004782D01*
X023500Y004782D02*
X024100Y004782D01*
X024875Y004782D02*
X025475Y004782D01*
X026250Y004782D02*
X026850Y004782D01*
X008600Y002782D02*
X008000Y002782D01*
D12*
X015350Y006998D03*
X015665Y006998D03*
X015980Y006998D03*
X016295Y006998D03*
X016610Y006998D03*
X016925Y006998D03*
X017240Y006998D03*
X017555Y006998D03*
X017870Y006998D03*
X018185Y006998D03*
X018500Y006998D03*
X018500Y011565D03*
X018185Y011565D03*
X017870Y011565D03*
X017555Y011565D03*
X017240Y011565D03*
X016925Y011565D03*
X016610Y011565D03*
X016295Y011565D03*
X015980Y011565D03*
X015665Y011565D03*
X015350Y011565D03*
D13*
X014642Y010856D03*
X014642Y010541D03*
X014642Y010226D03*
X014642Y009911D03*
X014642Y009596D03*
X014642Y009282D03*
X014642Y008967D03*
X014642Y008652D03*
X014642Y008337D03*
X014642Y008022D03*
X014642Y007707D03*
X019208Y007707D03*
X019208Y008022D03*
X019208Y008337D03*
X019208Y008652D03*
X019208Y008967D03*
X019208Y009282D03*
X019208Y009596D03*
X019208Y009911D03*
X019208Y010226D03*
X019208Y010541D03*
X019208Y010856D03*
D14*
X005925Y005937D03*
X005425Y005937D03*
X004925Y005937D03*
X004425Y005937D03*
X004425Y003877D03*
X004925Y003877D03*
X005425Y003877D03*
X005925Y003877D03*
D15*
X002300Y003105D03*
X002300Y006708D03*
D16*
X017425Y004851D03*
X017425Y002962D03*
D17*
X010858Y011158D03*
X009992Y011532D03*
X010858Y011906D03*
D18*
X006948Y008407D03*
X004152Y008407D03*
X004448Y019532D03*
X001652Y019532D03*
D19*
X007175Y012406D03*
X007175Y011658D03*
X006550Y006031D03*
X006550Y005283D03*
X020550Y009033D03*
X020550Y009781D03*
X026050Y009908D03*
X026050Y010656D03*
X028300Y010781D03*
X028300Y010033D03*
X024800Y017970D03*
X024800Y018718D03*
X016425Y020408D03*
X016425Y021156D03*
D20*
X016426Y017282D03*
X017174Y017282D03*
X010799Y014157D03*
X010051Y014157D03*
X010051Y013407D03*
X010799Y013407D03*
X009299Y012282D03*
X008551Y012282D03*
X008551Y011532D03*
X009299Y011532D03*
X008926Y016657D03*
X009674Y016657D03*
D21*
X007424Y017532D03*
X006676Y017532D03*
X009051Y021094D03*
X009799Y021094D03*
X016426Y018282D03*
X017174Y018282D03*
X019926Y014657D03*
X020674Y014657D03*
X019049Y012282D03*
X018301Y012282D03*
X017424Y013032D03*
X016676Y013032D03*
X015924Y013032D03*
X015176Y013032D03*
X014424Y013032D03*
X013676Y013032D03*
X009299Y010782D03*
X008551Y010782D03*
X019676Y011782D03*
X020424Y011782D03*
X021176Y011282D03*
X021924Y011282D03*
X021924Y010532D03*
X021176Y010532D03*
X028801Y006907D03*
X029549Y006907D03*
X029549Y006157D03*
X028801Y006157D03*
D22*
X025175Y006657D03*
X025175Y007657D03*
X025175Y008657D03*
X025175Y009657D03*
X025175Y010657D03*
D23*
X008213Y016657D03*
X007387Y016657D03*
D24*
X018675Y016043D03*
X018675Y015020D03*
X028425Y005293D03*
X028425Y004270D03*
X030050Y004270D03*
X030050Y005293D03*
D25*
X031738Y003656D03*
X031738Y002908D03*
X032863Y002908D03*
X032863Y003656D03*
X032837Y004907D03*
X028300Y008658D03*
X028300Y009406D03*
D26*
X030526Y007532D03*
X030526Y007032D03*
X030526Y006532D03*
X030526Y006032D03*
X032574Y006032D03*
X032574Y006532D03*
X032574Y007032D03*
X032574Y007532D03*
D27*
X031263Y005458D03*
X031263Y004355D03*
D28*
X017800Y017282D03*
X011425Y015657D03*
X009925Y012282D03*
D29*
X007550Y010657D03*
X001488Y008907D03*
X002300Y016344D03*
X002300Y017344D03*
X028425Y003282D03*
X029425Y003282D03*
X030425Y003282D03*
X032675Y009032D03*
X032675Y010032D03*
D30*
X000480Y002061D02*
X000480Y024108D01*
X033945Y024108D01*
X033945Y002061D01*
X000480Y002061D01*
D31*
X001425Y022032D03*
D32*
X001425Y023032D03*
X003425Y023032D03*
D33*
X004425Y023032D03*
X005425Y023032D03*
X006425Y023032D03*
X007425Y023032D03*
X008425Y023032D03*
X009425Y023032D03*
X010425Y023032D03*
X011425Y023032D03*
X012425Y023032D03*
X013425Y023032D03*
X013425Y022032D03*
X012425Y022032D03*
X011425Y022032D03*
X010425Y022032D03*
X009425Y022032D03*
X008425Y022032D03*
X007425Y022032D03*
X006425Y022032D03*
X005425Y022032D03*
X004425Y022032D03*
X003425Y022032D03*
X002425Y022032D03*
X002425Y023032D03*
D34*
X009897Y009157D02*
X009899Y009205D01*
X009905Y009253D01*
X009915Y009300D01*
X009928Y009346D01*
X009946Y009391D01*
X009966Y009435D01*
X009991Y009477D01*
X010019Y009516D01*
X010049Y009553D01*
X010083Y009587D01*
X010120Y009619D01*
X010158Y009648D01*
X010199Y009673D01*
X010242Y009695D01*
X010287Y009713D01*
X010333Y009727D01*
X010380Y009738D01*
X010428Y009745D01*
X010476Y009748D01*
X010524Y009747D01*
X010572Y009742D01*
X010620Y009733D01*
X010666Y009721D01*
X010711Y009704D01*
X010755Y009684D01*
X010797Y009661D01*
X010837Y009634D01*
X010875Y009604D01*
X010910Y009571D01*
X010942Y009535D01*
X010972Y009497D01*
X010998Y009456D01*
X011020Y009413D01*
X011040Y009369D01*
X011055Y009324D01*
X011067Y009277D01*
X011075Y009229D01*
X011079Y009181D01*
X011079Y009133D01*
X011075Y009085D01*
X011067Y009037D01*
X011055Y008990D01*
X011040Y008945D01*
X011020Y008901D01*
X010998Y008858D01*
X010972Y008817D01*
X010942Y008779D01*
X010910Y008743D01*
X010875Y008710D01*
X010837Y008680D01*
X010797Y008653D01*
X010755Y008630D01*
X010711Y008610D01*
X010666Y008593D01*
X010620Y008581D01*
X010572Y008572D01*
X010524Y008567D01*
X010476Y008566D01*
X010428Y008569D01*
X010380Y008576D01*
X010333Y008587D01*
X010287Y008601D01*
X010242Y008619D01*
X010199Y008641D01*
X010158Y008666D01*
X010120Y008695D01*
X010083Y008727D01*
X010049Y008761D01*
X010019Y008798D01*
X009991Y008837D01*
X009966Y008879D01*
X009946Y008923D01*
X009928Y008968D01*
X009915Y009014D01*
X009905Y009061D01*
X009899Y009109D01*
X009897Y009157D01*
X031459Y019157D02*
X031461Y019205D01*
X031467Y019253D01*
X031477Y019300D01*
X031490Y019346D01*
X031508Y019391D01*
X031528Y019435D01*
X031553Y019477D01*
X031581Y019516D01*
X031611Y019553D01*
X031645Y019587D01*
X031682Y019619D01*
X031720Y019648D01*
X031761Y019673D01*
X031804Y019695D01*
X031849Y019713D01*
X031895Y019727D01*
X031942Y019738D01*
X031990Y019745D01*
X032038Y019748D01*
X032086Y019747D01*
X032134Y019742D01*
X032182Y019733D01*
X032228Y019721D01*
X032273Y019704D01*
X032317Y019684D01*
X032359Y019661D01*
X032399Y019634D01*
X032437Y019604D01*
X032472Y019571D01*
X032504Y019535D01*
X032534Y019497D01*
X032560Y019456D01*
X032582Y019413D01*
X032602Y019369D01*
X032617Y019324D01*
X032629Y019277D01*
X032637Y019229D01*
X032641Y019181D01*
X032641Y019133D01*
X032637Y019085D01*
X032629Y019037D01*
X032617Y018990D01*
X032602Y018945D01*
X032582Y018901D01*
X032560Y018858D01*
X032534Y018817D01*
X032504Y018779D01*
X032472Y018743D01*
X032437Y018710D01*
X032399Y018680D01*
X032359Y018653D01*
X032317Y018630D01*
X032273Y018610D01*
X032228Y018593D01*
X032182Y018581D01*
X032134Y018572D01*
X032086Y018567D01*
X032038Y018566D01*
X031990Y018569D01*
X031942Y018576D01*
X031895Y018587D01*
X031849Y018601D01*
X031804Y018619D01*
X031761Y018641D01*
X031720Y018666D01*
X031682Y018695D01*
X031645Y018727D01*
X031611Y018761D01*
X031581Y018798D01*
X031553Y018837D01*
X031528Y018879D01*
X031508Y018923D01*
X031490Y018968D01*
X031477Y019014D01*
X031467Y019061D01*
X031461Y019109D01*
X031459Y019157D01*
D35*
X014113Y010532D03*
X014113Y010219D03*
X014113Y009907D03*
X014113Y008344D03*
X014113Y008032D03*
D36*
X028413Y007907D03*
X029437Y007907D03*
D37*
X029355Y009657D03*
X031245Y009657D03*
D38*
X028050Y012947D03*
X027550Y012947D03*
X027050Y012947D03*
X026550Y012947D03*
X026550Y015367D03*
X027050Y015367D03*
X027550Y015367D03*
X028050Y015367D03*
D39*
X025988Y013157D03*
X024988Y013157D03*
D40*
X023175Y012782D03*
X023175Y013782D03*
X022175Y013782D03*
X021175Y013782D03*
X020175Y013782D03*
X020175Y012782D03*
X021175Y012782D03*
X022175Y012782D03*
X014425Y019157D03*
X013425Y019157D03*
X012425Y019157D03*
X011425Y019157D03*
X010425Y019157D03*
X010425Y020157D03*
X011425Y020157D03*
X012425Y020157D03*
X013425Y020157D03*
X014425Y020157D03*
X022675Y021782D03*
X023675Y021782D03*
X024675Y021782D03*
X025675Y021782D03*
X026675Y021782D03*
X026675Y022782D03*
X025675Y022782D03*
X024675Y022782D03*
X023675Y022782D03*
X022675Y022782D03*
X028800Y022782D03*
X029800Y022782D03*
X030800Y022782D03*
X031800Y022782D03*
X032800Y022782D03*
X032800Y021782D03*
X031800Y021782D03*
X030800Y021782D03*
X029800Y021782D03*
X028800Y021782D03*
D41*
X028852Y020695D03*
X028852Y020439D03*
X028852Y020183D03*
X028852Y019927D03*
X028852Y019671D03*
X028852Y019415D03*
X028852Y019159D03*
X028852Y018904D03*
X028852Y018648D03*
X028852Y018392D03*
X028852Y018136D03*
X028852Y017880D03*
X028852Y017624D03*
X028852Y017368D03*
X025998Y017368D03*
X025998Y017624D03*
X025998Y017880D03*
X025998Y018136D03*
X025998Y018392D03*
X025998Y018648D03*
X025998Y018904D03*
X025998Y019159D03*
X025998Y019415D03*
X025998Y019671D03*
X025998Y019927D03*
X025998Y020183D03*
X025998Y020439D03*
X025998Y020695D03*
D42*
X009074Y020558D03*
X009074Y020302D03*
X009074Y020046D03*
X009074Y019790D03*
X009074Y019534D03*
X009074Y019279D03*
X009074Y019023D03*
X009074Y018767D03*
X009074Y018511D03*
X009074Y018255D03*
X006776Y018255D03*
X006776Y018511D03*
X006776Y018767D03*
X006776Y019023D03*
X006776Y019279D03*
X006776Y019534D03*
X006776Y019790D03*
X006776Y020046D03*
X006776Y020302D03*
X006776Y020558D03*
D43*
X031425Y014782D03*
D44*
X031425Y017382D03*
X031425Y012182D03*
D45*
X019202Y018883D03*
X018946Y018883D03*
X018690Y018883D03*
X018434Y018883D03*
X018178Y018883D03*
X017922Y018883D03*
X017666Y018883D03*
X017410Y018883D03*
X017154Y018883D03*
X016898Y018883D03*
X016898Y021180D03*
X017154Y021180D03*
X017410Y021180D03*
X017666Y021180D03*
X017922Y021180D03*
X018178Y021180D03*
X018434Y021180D03*
X018690Y021180D03*
X018946Y021180D03*
X019202Y021180D03*
D46*
X006300Y016187D02*
X006300Y015627D01*
X005300Y015627D02*
X005300Y016187D01*
X003300Y010782D02*
X002589Y010782D01*
X002558Y010813D01*
X003300Y010782D02*
X004175Y009907D01*
X004175Y008509D01*
X004152Y008407D01*
X003925Y008407D01*
X004152Y008407D02*
X002675Y008407D01*
X002351Y008083D01*
X002351Y007282D01*
X002300Y006708D01*
X002300Y003105D02*
X002351Y003105D01*
X002550Y002907D01*
X004925Y002907D01*
X006300Y002907D01*
X007175Y003782D01*
X008300Y003782D01*
X009675Y003782D01*
X011050Y003782D01*
X012425Y003782D01*
X013800Y003782D01*
X015175Y003782D01*
X016050Y003782D01*
X017050Y004782D01*
X017425Y004782D01*
X017425Y004851D01*
X017425Y004782D02*
X017800Y004782D01*
X018800Y003782D01*
X019675Y003782D01*
X021050Y003782D01*
X022425Y003782D01*
X023800Y003782D01*
X025175Y003782D01*
X026550Y003782D01*
D47*
X002910Y010813D02*
X002205Y010813D01*
X002205Y012782D02*
X002910Y012782D01*
X002910Y014750D02*
X002205Y014750D01*
D48*
X005175Y017782D02*
X005425Y017532D01*
X006676Y017532D01*
X006675Y017531D01*
X006675Y017032D01*
X007050Y016657D01*
X007387Y016657D01*
X008213Y016657D02*
X008926Y016657D01*
X010300Y017782D02*
X010300Y018532D01*
X010065Y018767D01*
X009074Y018767D01*
X009074Y019023D02*
X009916Y019023D01*
X010050Y019157D01*
X010425Y019157D01*
X009797Y019279D02*
X010425Y019907D01*
X010425Y020157D01*
X010175Y020657D02*
X009800Y020282D01*
X009550Y020282D01*
X009315Y020046D01*
X009074Y020046D01*
X009074Y019790D02*
X009666Y019790D01*
X009675Y019782D01*
X009797Y019279D02*
X009074Y019279D01*
X009074Y019534D02*
X008553Y019534D01*
X008550Y019532D01*
X009074Y020302D02*
X009321Y020302D01*
X009800Y020782D01*
X009799Y021094D01*
X010113Y021094D01*
X010175Y021157D01*
X010549Y021157D01*
X010675Y021657D02*
X010925Y021657D01*
X011800Y020782D01*
X014550Y020782D01*
X014925Y020407D01*
X014925Y019907D01*
X015949Y018883D01*
X016898Y018883D01*
X017154Y018883D02*
X017154Y018301D01*
X017174Y018282D01*
X017175Y018281D01*
X017175Y017907D01*
X017300Y017782D01*
X018050Y017782D01*
X018300Y017532D01*
X020925Y017532D01*
X021050Y017657D01*
X021050Y018032D01*
X021050Y018407D01*
X020925Y018532D01*
X019300Y018532D01*
X019202Y018630D01*
X019202Y018883D01*
X019202Y018880D01*
X018946Y018883D02*
X018946Y020136D01*
X018925Y020157D01*
X018690Y019267D02*
X017925Y020032D01*
X017925Y020532D01*
X017675Y019907D02*
X017922Y019659D01*
X017922Y018883D01*
X017666Y018883D02*
X017666Y019540D01*
X017550Y019657D01*
X015925Y019657D01*
X015425Y020157D01*
X015425Y020657D01*
X014800Y021282D01*
X012800Y021282D01*
X012425Y021657D01*
X012425Y022032D01*
X012925Y022532D02*
X008925Y022532D01*
X008425Y022032D01*
X007925Y021657D02*
X007425Y021157D01*
X007425Y020032D01*
X007184Y019790D01*
X006776Y019790D01*
X006776Y019534D02*
X007235Y019534D01*
X007363Y019407D01*
X007363Y018844D01*
X006776Y018767D02*
X006065Y018767D01*
X005925Y018907D01*
X005925Y019782D01*
X005675Y020032D01*
X005675Y020282D01*
X005300Y020657D01*
X005300Y021157D01*
X005050Y021407D01*
X004425Y021407D01*
X004175Y021657D01*
X003800Y021657D01*
X003425Y022032D01*
X003050Y021407D02*
X004050Y021407D01*
X004300Y021157D01*
X004925Y021157D01*
X005050Y021032D01*
X005050Y020532D01*
X005425Y020157D01*
X005425Y019907D01*
X005675Y019657D01*
X005675Y018782D01*
X005946Y018511D01*
X006776Y018511D01*
X006776Y018255D02*
X006800Y018231D01*
X006800Y018032D01*
X006676Y017908D01*
X006676Y017532D01*
X006550Y017781D01*
X006776Y018255D02*
X007452Y018255D01*
X007488Y018219D01*
X006776Y019023D02*
X006309Y019023D01*
X006175Y019157D01*
X006175Y019907D01*
X005925Y020157D01*
X005925Y020407D01*
X005550Y020782D01*
X005550Y021282D01*
X005175Y021657D01*
X004800Y021657D01*
X004425Y022032D01*
X004925Y022532D02*
X006675Y022532D01*
X006925Y022282D01*
X006925Y021657D01*
X006800Y021532D01*
X006800Y020558D01*
X006776Y020558D01*
X006776Y020302D02*
X006529Y020302D01*
X006425Y020407D01*
X006425Y021032D01*
X006300Y021157D01*
X005800Y021407D02*
X005800Y020907D01*
X006175Y020532D01*
X006175Y020282D01*
X006425Y020032D01*
X006425Y019407D01*
X006553Y019279D01*
X006776Y019279D01*
X006776Y020046D02*
X007065Y020046D01*
X007175Y020157D01*
X007175Y021407D01*
X007425Y021657D01*
X007425Y022032D01*
X007925Y021657D02*
X007925Y022532D01*
X008425Y023032D01*
X006425Y022032D02*
X005800Y021407D01*
X004925Y022532D02*
X004425Y023032D01*
X003050Y021407D02*
X002425Y022032D01*
X005175Y018032D02*
X005175Y017782D01*
X008425Y020532D02*
X008452Y020558D01*
X009074Y020558D01*
X010175Y020657D02*
X010675Y020657D01*
X010925Y020407D01*
X010925Y019657D01*
X011425Y019157D01*
X011925Y019657D02*
X011925Y018657D01*
X012425Y018157D01*
X012425Y017282D01*
X013425Y017282D02*
X013425Y018157D01*
X012425Y019157D01*
X011925Y019657D02*
X011425Y020157D01*
X012425Y020157D02*
X012925Y019657D01*
X013675Y019657D01*
X013925Y019407D01*
X013925Y018782D01*
X014175Y018532D01*
X014675Y018532D01*
X015550Y017657D01*
X015550Y017282D01*
X016426Y017282D01*
X017174Y017282D02*
X017800Y017282D01*
X017174Y017282D02*
X017174Y017656D01*
X017300Y017782D01*
X017925Y018282D02*
X018425Y017782D01*
X018925Y017782D01*
X019175Y018032D01*
X020050Y018032D01*
X018675Y018282D02*
X018434Y018585D01*
X018434Y018883D01*
X018690Y018883D02*
X018690Y019267D01*
X018178Y018883D02*
X018178Y018534D01*
X017925Y018282D01*
X017410Y018883D02*
X017410Y019296D01*
X017300Y019407D01*
X015800Y019407D01*
X015175Y020032D01*
X015175Y020532D01*
X014675Y021032D01*
X012050Y021032D01*
X011425Y021657D01*
X011425Y022032D01*
X010675Y021657D02*
X010425Y021907D01*
X010425Y022032D01*
X012425Y023032D02*
X012925Y023532D01*
X013675Y023532D01*
X013925Y023282D01*
X013925Y021782D01*
X014175Y021532D01*
X014925Y021532D01*
X015675Y020782D01*
X015675Y020282D01*
X016050Y019907D01*
X017675Y019907D01*
X017175Y020532D02*
X017154Y020552D01*
X017154Y021180D01*
X016898Y021180D02*
X016898Y021558D01*
X016800Y021657D01*
X016050Y021657D01*
X014925Y022782D01*
X015925Y022782D02*
X015925Y022157D01*
X016175Y021907D01*
X017050Y021907D01*
X017410Y021546D01*
X017410Y021180D01*
X017666Y021180D02*
X017666Y021665D01*
X016925Y022407D01*
X016925Y022782D01*
X017922Y022779D02*
X017925Y022782D01*
X017922Y022779D02*
X017922Y021180D01*
X018178Y021180D02*
X018178Y021659D01*
X018925Y022407D01*
X018925Y022782D01*
X018925Y022032D02*
X021175Y022032D01*
X021425Y021782D01*
X021425Y021532D01*
X021300Y021032D02*
X020425Y021032D01*
X019925Y021532D01*
X019050Y021532D01*
X018946Y021427D01*
X018946Y021180D01*
X019202Y021180D02*
X019276Y021180D01*
X019300Y021157D01*
X018690Y021180D02*
X018690Y021421D01*
X019050Y021782D01*
X020425Y021782D01*
X020675Y021532D01*
X021300Y021032D02*
X022050Y020282D01*
X022050Y019407D01*
X023050Y018407D01*
X023050Y016407D01*
X024300Y016157D02*
X024300Y019032D01*
X024425Y019157D01*
X024425Y020532D01*
X024675Y021032D02*
X023675Y021032D01*
X023175Y021532D01*
X023175Y022282D01*
X023675Y022782D01*
X024175Y022282D02*
X024675Y022782D01*
X025175Y023032D02*
X025175Y022532D01*
X024675Y022032D01*
X024675Y021782D01*
X025175Y021532D02*
X025175Y022032D01*
X025675Y022532D01*
X025675Y022782D01*
X025425Y023282D02*
X025175Y023032D01*
X025425Y023282D02*
X026925Y023282D01*
X027300Y022907D01*
X027300Y019657D01*
X027059Y019415D01*
X025998Y019415D01*
X025998Y019159D02*
X025672Y019159D01*
X024925Y019907D01*
X024925Y020782D01*
X024675Y021032D01*
X024425Y021282D02*
X024175Y021532D01*
X024175Y022282D01*
X025175Y021532D02*
X025425Y021282D01*
X025425Y020407D01*
X025648Y020183D01*
X025998Y020183D01*
X026008Y019938D02*
X026613Y019938D01*
X026800Y020125D01*
X026457Y020439D02*
X026925Y020907D01*
X026925Y021532D01*
X026675Y021782D01*
X026175Y022282D02*
X026675Y022782D01*
X026175Y022282D02*
X026175Y021032D01*
X025998Y020854D01*
X025998Y020695D01*
X025998Y020439D02*
X026457Y020439D01*
X026008Y019938D02*
X025998Y019927D01*
X025998Y019671D02*
X025660Y019671D01*
X025175Y020157D01*
X025175Y021032D01*
X024925Y021282D01*
X024425Y021282D01*
X024425Y019157D02*
X025300Y019157D01*
X025550Y018907D01*
X025995Y018907D01*
X025998Y018904D01*
X025989Y018657D02*
X025998Y018648D01*
X027059Y018648D01*
X027059Y018915D01*
X027675Y019532D01*
X027675Y022657D01*
X027800Y022782D01*
X027800Y023157D01*
X028300Y022282D02*
X029050Y022282D01*
X029300Y022532D01*
X029300Y023032D01*
X029550Y023282D01*
X030300Y023282D01*
X030800Y022782D01*
X029800Y022782D02*
X029800Y022532D01*
X029300Y022032D01*
X029300Y021282D01*
X029050Y021032D01*
X028425Y021032D01*
X028300Y020907D01*
X028300Y020532D01*
X028393Y020439D01*
X028852Y020439D01*
X028852Y020183D02*
X028827Y020183D01*
X028800Y020157D01*
X029300Y020157D01*
X030800Y021657D01*
X030800Y021782D01*
X030925Y021282D02*
X031300Y021282D01*
X031800Y021782D01*
X032050Y021032D02*
X031175Y021032D01*
X029303Y019159D01*
X028852Y019159D01*
X028852Y018904D02*
X028172Y018904D01*
X027925Y018657D01*
X027550Y018157D02*
X028831Y018157D01*
X028852Y018136D01*
X028852Y018392D02*
X029175Y018407D01*
X029425Y018157D01*
X030050Y018157D01*
X029550Y018657D02*
X028852Y018648D01*
X028852Y019415D02*
X028059Y019415D01*
X028175Y019407D01*
X028279Y019927D02*
X028050Y020157D01*
X028050Y022032D01*
X028300Y022282D01*
X029800Y021782D02*
X029800Y021157D01*
X029338Y020695D01*
X028852Y020695D01*
X028852Y019927D02*
X028279Y019927D01*
X028800Y019657D02*
X029300Y019657D01*
X030925Y021282D01*
X032050Y021032D02*
X032800Y021782D01*
X028852Y019671D02*
X028815Y019671D01*
X028800Y019657D01*
X027550Y018157D02*
X027059Y018648D01*
X026925Y018407D02*
X026013Y018407D01*
X025998Y018392D01*
X025989Y018657D02*
X025425Y018657D01*
X025300Y018782D01*
X024801Y018782D01*
X024800Y018718D01*
X025518Y017624D02*
X025300Y017407D01*
X025518Y017624D02*
X025998Y017624D01*
X025998Y017880D02*
X026550Y017875D01*
X026581Y017875D01*
X026925Y017532D01*
X026925Y016782D01*
X027550Y016157D01*
X027550Y015367D01*
X027050Y015367D02*
X027050Y016032D01*
X026800Y016282D01*
X026550Y016282D01*
X026175Y016657D01*
X027452Y017880D02*
X026925Y018407D01*
X027452Y017880D02*
X028852Y017880D01*
X028852Y017624D01*
X028050Y016657D02*
X028050Y015367D01*
X026550Y015367D02*
X026510Y015407D01*
X025925Y015407D01*
X025175Y014657D01*
X024488Y014657D01*
X023800Y014157D02*
X023800Y010157D01*
X022800Y009157D01*
X022767Y009124D02*
X020995Y009124D01*
X020995Y009083D02*
X020995Y009308D01*
X020987Y009341D01*
X021075Y009429D01*
X021075Y009502D01*
X022481Y009502D01*
X022584Y009544D01*
X022662Y009623D01*
X023334Y010294D01*
X023334Y010294D01*
X023412Y010373D01*
X023455Y010476D01*
X023455Y012312D01*
X023705Y012562D01*
X023705Y013001D01*
X023425Y013282D01*
X023705Y013562D01*
X023705Y014001D01*
X023395Y014312D01*
X022955Y014312D01*
X022675Y014031D01*
X022395Y014312D01*
X021955Y014312D01*
X021675Y014031D01*
X021454Y014252D01*
X021454Y014532D01*
X021454Y014588D01*
X021454Y014588D01*
X021454Y014589D01*
X021433Y014639D01*
X021411Y014691D01*
X021411Y014691D01*
X021411Y014691D01*
X021372Y014730D01*
X021209Y014894D01*
X021160Y014914D01*
X021160Y015047D01*
X021025Y015182D01*
X020323Y015182D01*
X020234Y015093D01*
X020202Y015102D01*
X019976Y015102D01*
X019976Y014707D01*
X019876Y014707D01*
X019876Y015102D01*
X019745Y015102D01*
X019925Y015282D01*
X021425Y015282D01*
X022050Y014657D01*
X023300Y014657D01*
X023800Y014157D01*
X023300Y014657D01*
X022050Y014657D01*
X021425Y015282D01*
X019925Y015282D01*
X019300Y014657D01*
X019520Y014877D01*
X019520Y014707D01*
X019876Y014707D01*
X019876Y014607D01*
X019520Y014607D01*
X019520Y014342D01*
X019530Y014303D01*
X019550Y014269D01*
X019578Y014241D01*
X019612Y014221D01*
X019650Y014211D01*
X019876Y014211D01*
X019876Y014607D01*
X019976Y014607D01*
X019976Y014219D01*
X019725Y013968D01*
X019725Y013832D01*
X020125Y013832D01*
X020125Y013732D01*
X019725Y013732D01*
X019725Y013595D01*
X019759Y013562D01*
X018926Y013562D01*
X018982Y013618D01*
X019060Y013805D01*
X019060Y013917D01*
X019300Y014157D01*
X019300Y014657D01*
X019300Y014157D01*
X019291Y014147D02*
X019904Y014147D01*
X019876Y014246D02*
X019976Y014246D01*
X019976Y014344D02*
X019876Y014344D01*
X019876Y014443D02*
X019976Y014443D01*
X019976Y014541D02*
X019876Y014541D01*
X019876Y014640D02*
X019300Y014640D01*
X019300Y014541D02*
X019520Y014541D01*
X019520Y014443D02*
X019300Y014443D01*
X019300Y014344D02*
X019520Y014344D01*
X019574Y014246D02*
X019300Y014246D01*
X019192Y014049D02*
X019806Y014049D01*
X019725Y013950D02*
X019094Y013950D01*
X019060Y013852D02*
X019725Y013852D01*
X019725Y013655D02*
X018998Y013655D01*
X019038Y013753D02*
X020125Y013753D01*
X020225Y013753D02*
X020645Y013753D01*
X020625Y013732D02*
X020625Y013628D01*
X020645Y013648D01*
X020645Y014001D01*
X020775Y014131D01*
X020462Y014131D01*
X020625Y013968D01*
X020625Y013832D01*
X020225Y013832D01*
X020225Y013732D01*
X020625Y013732D01*
X020625Y013655D02*
X020645Y013655D01*
X020645Y013852D02*
X020625Y013852D01*
X020625Y013950D02*
X020645Y013950D01*
X020692Y014049D02*
X020544Y014049D01*
X021175Y013782D02*
X020675Y013282D01*
X018425Y013282D01*
X017870Y012726D01*
X017870Y011565D01*
X018185Y011565D02*
X018185Y012166D01*
X018301Y012282D02*
X018175Y012532D01*
X018175Y012657D01*
X018425Y012907D01*
X019300Y012907D01*
X019925Y012282D01*
X020675Y012282D01*
X021175Y012782D01*
X021675Y012657D02*
X020800Y011782D01*
X020425Y011782D01*
X020425Y011657D01*
X020425Y011532D01*
X019750Y010856D01*
X019208Y010856D01*
X019208Y010541D02*
X019935Y010541D01*
X020675Y011282D01*
X021176Y011282D01*
X021175Y011658D01*
X021175Y011782D01*
X022175Y012782D01*
X021675Y012657D02*
X021675Y013282D01*
X022175Y013782D01*
X022658Y014049D02*
X022692Y014049D01*
X022791Y014147D02*
X022559Y014147D01*
X022461Y014246D02*
X022889Y014246D01*
X023461Y014246D02*
X023711Y014246D01*
X023800Y014157D02*
X023800Y010157D01*
X022175Y008532D01*
X020196Y008532D01*
X019839Y008889D01*
X019803Y008904D01*
X019800Y008907D01*
X019796Y008907D01*
X019736Y008932D01*
X019734Y008932D01*
X019734Y009631D01*
X019929Y009631D01*
X019938Y009623D01*
X020016Y009544D01*
X020025Y009541D01*
X020025Y009429D01*
X020113Y009341D01*
X020105Y009308D01*
X020105Y009083D01*
X020500Y009083D01*
X020500Y008983D01*
X020105Y008983D01*
X020105Y008757D01*
X020115Y008719D01*
X020135Y008685D01*
X020163Y008657D01*
X020197Y008637D01*
X020235Y008627D01*
X020500Y008627D01*
X020500Y008983D01*
X020600Y008983D01*
X020600Y009083D01*
X020995Y009083D01*
X020995Y008983D02*
X020600Y008983D01*
X020600Y008627D01*
X020865Y008627D01*
X020903Y008637D01*
X020937Y008657D01*
X020965Y008685D01*
X020985Y008719D01*
X020995Y008757D01*
X020995Y008983D01*
X020995Y008927D02*
X022570Y008927D01*
X022669Y009025D02*
X020600Y009025D01*
X020600Y008927D02*
X020500Y008927D01*
X020500Y009025D02*
X019734Y009025D01*
X019734Y009124D02*
X020105Y009124D01*
X020105Y009222D02*
X019734Y009222D01*
X019734Y009321D02*
X020108Y009321D01*
X020035Y009419D02*
X019734Y009419D01*
X019734Y009518D02*
X020025Y009518D01*
X019945Y009616D02*
X019734Y009616D01*
X019938Y009623D02*
X019938Y009623D01*
X020175Y009782D02*
X020549Y009782D01*
X020550Y009781D01*
X020800Y009782D02*
X022425Y009782D01*
X023175Y010532D01*
X023175Y012782D01*
X023544Y013162D02*
X023800Y013162D01*
X023800Y013064D02*
X023643Y013064D01*
X023705Y012965D02*
X023800Y012965D01*
X023800Y012867D02*
X023705Y012867D01*
X023705Y012768D02*
X023800Y012768D01*
X023800Y012670D02*
X023705Y012670D01*
X023705Y012571D02*
X023800Y012571D01*
X023800Y012473D02*
X023616Y012473D01*
X023517Y012374D02*
X023800Y012374D01*
X023800Y012276D02*
X023455Y012276D01*
X023455Y012177D02*
X023800Y012177D01*
X023800Y012079D02*
X023455Y012079D01*
X023455Y011980D02*
X023800Y011980D01*
X023800Y011882D02*
X023455Y011882D01*
X023455Y011783D02*
X023800Y011783D01*
X023800Y011685D02*
X023455Y011685D01*
X023455Y011586D02*
X023800Y011586D01*
X023800Y011488D02*
X023455Y011488D01*
X023455Y011389D02*
X023800Y011389D01*
X023800Y011291D02*
X023455Y011291D01*
X023455Y011192D02*
X023800Y011192D01*
X023800Y011094D02*
X023455Y011094D01*
X023455Y010995D02*
X023800Y010995D01*
X023800Y010897D02*
X023455Y010897D01*
X023455Y010798D02*
X023800Y010798D01*
X023800Y010700D02*
X023455Y010700D01*
X023455Y010601D02*
X023800Y010601D01*
X023800Y010503D02*
X023455Y010503D01*
X023425Y010404D02*
X023800Y010404D01*
X023800Y010306D02*
X023345Y010306D01*
X023246Y010207D02*
X023800Y010207D01*
X023752Y010109D02*
X023148Y010109D01*
X023049Y010010D02*
X023654Y010010D01*
X023555Y009912D02*
X022951Y009912D01*
X022852Y009813D02*
X023457Y009813D01*
X023358Y009715D02*
X022754Y009715D01*
X022662Y009623D02*
X022662Y009623D01*
X022655Y009616D02*
X023260Y009616D01*
X023161Y009518D02*
X022519Y009518D01*
X022866Y009222D02*
X020995Y009222D01*
X020992Y009321D02*
X022964Y009321D01*
X023063Y009419D02*
X021065Y009419D01*
X021300Y010032D02*
X021175Y010157D01*
X021175Y010281D01*
X021176Y010532D01*
X020425Y010532D01*
X020105Y010226D01*
X019208Y010226D01*
X019208Y009911D02*
X020045Y009911D01*
X020175Y009782D01*
X020105Y008927D02*
X019748Y008927D01*
X019899Y008828D02*
X020105Y008828D01*
X020112Y008730D02*
X019998Y008730D01*
X020096Y008631D02*
X020218Y008631D01*
X020195Y008533D02*
X022176Y008533D01*
X022175Y008532D02*
X020175Y008532D01*
X020050Y008282D02*
X020050Y006907D01*
X020300Y006657D01*
X022175Y006657D01*
X022925Y005907D01*
X023800Y005907D01*
X024175Y005532D01*
X026175Y005532D01*
X026550Y005157D01*
X026550Y004782D01*
X027675Y004790D02*
X027915Y004790D01*
X027923Y004782D02*
X027900Y004759D01*
X027900Y003781D01*
X027949Y003732D01*
X027770Y003553D01*
X027770Y003010D01*
X028154Y002627D01*
X028696Y002627D01*
X028925Y002855D01*
X029154Y002627D01*
X029696Y002627D01*
X029982Y002912D01*
X030187Y002707D01*
X030375Y002707D01*
X030375Y003232D01*
X030475Y003232D01*
X030475Y003332D01*
X031000Y003332D01*
X031000Y003520D01*
X030663Y003857D01*
X030575Y003857D01*
X030575Y004759D01*
X030552Y004782D01*
X030575Y004804D01*
X030575Y005002D01*
X030731Y005002D01*
X030834Y005044D01*
X030846Y005057D01*
X030852Y005051D01*
X031645Y005051D01*
X031645Y004667D01*
X031635Y004672D01*
X031597Y004683D01*
X031301Y004683D01*
X031301Y004394D01*
X031224Y004394D01*
X031224Y004683D01*
X030928Y004683D01*
X030890Y004672D01*
X030856Y004653D01*
X030828Y004625D01*
X030808Y004590D01*
X030798Y004552D01*
X030798Y004394D01*
X031224Y004394D01*
X031224Y004317D01*
X030798Y004317D01*
X030798Y004158D01*
X030808Y004120D01*
X030828Y004086D01*
X030856Y004058D01*
X030890Y004038D01*
X030928Y004028D01*
X031214Y004028D01*
X031193Y004007D01*
X031193Y003304D01*
X031215Y003282D01*
X031193Y003259D01*
X031193Y002556D01*
X031327Y002422D01*
X032148Y002422D01*
X032282Y002556D01*
X032282Y002649D01*
X032335Y002670D01*
X032398Y002733D01*
X032398Y002632D01*
X032408Y002594D01*
X032428Y002560D01*
X032455Y002532D01*
X032490Y002512D01*
X032528Y002502D01*
X032813Y002502D01*
X032813Y002858D01*
X032912Y002858D01*
X032913Y002858D02*
X032913Y002958D01*
X033327Y002958D01*
X033327Y003183D01*
X033319Y003216D01*
X033407Y003304D01*
X033407Y004007D01*
X033273Y004141D01*
X033142Y004141D01*
X033142Y004421D01*
X033248Y004421D01*
X033382Y004555D01*
X033382Y005258D01*
X033248Y005392D01*
X033182Y005392D01*
X033537Y005748D01*
X033580Y005851D01*
X033580Y006962D01*
X033537Y007065D01*
X033412Y007190D01*
X033334Y007269D01*
X033231Y007312D01*
X033170Y007312D01*
X033139Y007343D01*
X033146Y007356D01*
X033157Y007394D01*
X033157Y007522D01*
X032583Y007522D01*
X032583Y007541D01*
X032565Y007541D01*
X032565Y007800D01*
X032121Y007800D01*
X032083Y007789D01*
X032048Y007770D01*
X032021Y007742D01*
X032001Y007708D01*
X031991Y007669D01*
X031991Y007541D01*
X032565Y007541D01*
X032565Y007522D01*
X031991Y007522D01*
X031991Y007394D01*
X032001Y007356D01*
X032008Y007343D01*
X031911Y007245D01*
X031911Y006818D01*
X032008Y006720D01*
X032001Y006708D01*
X031991Y006669D01*
X031991Y006541D01*
X032565Y006541D01*
X032565Y006522D01*
X031991Y006522D01*
X031991Y006394D01*
X032001Y006356D01*
X032008Y006343D01*
X031911Y006245D01*
X031911Y005818D01*
X032045Y005683D01*
X032681Y005683D01*
X032625Y005628D01*
X032583Y005525D01*
X032583Y005392D01*
X032427Y005392D01*
X032292Y005258D01*
X032292Y004555D01*
X032427Y004421D01*
X032583Y004421D01*
X032583Y004141D01*
X032452Y004141D01*
X032318Y004007D01*
X032318Y003915D01*
X032282Y003901D01*
X032282Y004007D01*
X032200Y004089D01*
X032205Y004101D01*
X032205Y005337D01*
X032162Y005440D01*
X032084Y005519D01*
X032084Y005519D01*
X031907Y005695D01*
X031805Y005738D01*
X031800Y005738D01*
X031673Y005865D01*
X031189Y005865D01*
X031189Y006245D01*
X031153Y006282D01*
X031189Y006318D01*
X031189Y006745D01*
X031153Y006782D01*
X031189Y006818D01*
X031189Y007245D01*
X031153Y007282D01*
X031189Y007318D01*
X031189Y007745D01*
X031055Y007880D01*
X030836Y007880D01*
X030836Y008242D01*
X030789Y008356D01*
X030313Y008832D01*
X030226Y008919D01*
X030112Y008967D01*
X029665Y008967D01*
X029665Y009151D01*
X030041Y009151D01*
X030176Y009286D01*
X030176Y010027D01*
X030041Y010162D01*
X028825Y010162D01*
X028825Y010384D01*
X028737Y010472D01*
X028745Y010505D01*
X028745Y010731D01*
X028350Y010731D01*
X028350Y010831D01*
X028745Y010831D01*
X028745Y011032D01*
X033675Y011032D01*
X033675Y002316D01*
X027675Y002316D01*
X027675Y006532D01*
X027425Y006782D01*
X027425Y006877D01*
X028106Y006877D01*
X028209Y006919D01*
X028287Y006998D01*
X028395Y007106D01*
X028395Y006957D01*
X028246Y006957D01*
X028344Y007055D02*
X028395Y007055D01*
X028395Y006957D02*
X028751Y006957D01*
X028751Y006857D01*
X028395Y006857D01*
X028395Y006592D01*
X028405Y006553D01*
X028418Y006532D01*
X028405Y006510D01*
X028395Y006472D01*
X028395Y006207D01*
X028751Y006207D01*
X028751Y006857D01*
X028851Y006857D01*
X028851Y006602D01*
X028851Y006207D01*
X028751Y006207D01*
X028751Y006107D01*
X028395Y006107D01*
X028395Y005917D01*
X028034Y005917D01*
X027900Y005782D01*
X027900Y004804D01*
X027923Y004782D01*
X027900Y004691D02*
X027675Y004691D01*
X027675Y004593D02*
X027900Y004593D01*
X027900Y004494D02*
X027675Y004494D01*
X027675Y004396D02*
X027900Y004396D01*
X027900Y004297D02*
X027675Y004297D01*
X027675Y004199D02*
X027900Y004199D01*
X027900Y004100D02*
X027675Y004100D01*
X027675Y004002D02*
X027900Y004002D01*
X027900Y003903D02*
X027675Y003903D01*
X027675Y003805D02*
X027900Y003805D01*
X027923Y003706D02*
X027675Y003706D01*
X027675Y003608D02*
X027825Y003608D01*
X027770Y003509D02*
X027675Y003509D01*
X027675Y003411D02*
X027770Y003411D01*
X027770Y003312D02*
X027675Y003312D01*
X027675Y003214D02*
X027770Y003214D01*
X027770Y003115D02*
X027675Y003115D01*
X027675Y003017D02*
X027770Y003017D01*
X027862Y002918D02*
X027675Y002918D01*
X027675Y002820D02*
X027961Y002820D01*
X028059Y002721D02*
X027675Y002721D01*
X027675Y002623D02*
X031193Y002623D01*
X031193Y002721D02*
X030678Y002721D01*
X030663Y002707D02*
X031000Y003043D01*
X031000Y003232D01*
X030475Y003232D01*
X030475Y002707D01*
X030663Y002707D01*
X030776Y002820D02*
X031193Y002820D01*
X031193Y002918D02*
X030875Y002918D01*
X030973Y003017D02*
X031193Y003017D01*
X031193Y003115D02*
X031000Y003115D01*
X031000Y003214D02*
X031193Y003214D01*
X031193Y003312D02*
X030475Y003312D01*
X030475Y003214D02*
X030375Y003214D01*
X030375Y003115D02*
X030475Y003115D01*
X030475Y003017D02*
X030375Y003017D01*
X030375Y002918D02*
X030475Y002918D01*
X030475Y002820D02*
X030375Y002820D01*
X030375Y002721D02*
X030475Y002721D01*
X030172Y002721D02*
X029791Y002721D01*
X029889Y002820D02*
X030074Y002820D01*
X029425Y003282D02*
X029425Y004032D01*
X029675Y004282D01*
X030038Y004282D01*
X030050Y004270D01*
X030575Y004297D02*
X030798Y004297D01*
X030798Y004199D02*
X030575Y004199D01*
X030575Y004100D02*
X030820Y004100D01*
X030575Y004002D02*
X031193Y004002D01*
X031193Y003903D02*
X030575Y003903D01*
X030715Y003805D02*
X031193Y003805D01*
X031193Y003706D02*
X030814Y003706D01*
X030912Y003608D02*
X031193Y003608D01*
X031193Y003509D02*
X031000Y003509D01*
X031000Y003411D02*
X031193Y003411D01*
X031738Y003656D02*
X031738Y003969D01*
X031925Y004157D01*
X031925Y005282D01*
X031749Y005458D01*
X031263Y005458D01*
X030851Y005458D01*
X030675Y005282D01*
X030062Y005282D01*
X030050Y005293D01*
X028425Y005293D01*
X027900Y005282D02*
X027675Y005282D01*
X027675Y005184D02*
X027900Y005184D01*
X027900Y005085D02*
X027675Y005085D01*
X027675Y004987D02*
X027900Y004987D01*
X027900Y004888D02*
X027675Y004888D01*
X027675Y005381D02*
X027900Y005381D01*
X027900Y005479D02*
X027675Y005479D01*
X027675Y005578D02*
X027900Y005578D01*
X027900Y005676D02*
X027675Y005676D01*
X027675Y005775D02*
X027900Y005775D01*
X027990Y005873D02*
X027675Y005873D01*
X027675Y005972D02*
X028395Y005972D01*
X028395Y006070D02*
X027675Y006070D01*
X027675Y006169D02*
X028751Y006169D01*
X028751Y006267D02*
X028851Y006267D01*
X028851Y006366D02*
X028751Y006366D01*
X028751Y006464D02*
X028851Y006464D01*
X028851Y006563D02*
X028751Y006563D01*
X028751Y006661D02*
X028851Y006661D01*
X028851Y006760D02*
X028751Y006760D01*
X028751Y006858D02*
X027425Y006858D01*
X027447Y006760D02*
X028395Y006760D01*
X028395Y006661D02*
X027545Y006661D01*
X027644Y006563D02*
X028403Y006563D01*
X028395Y006464D02*
X027675Y006464D01*
X027675Y006366D02*
X028395Y006366D01*
X028395Y006267D02*
X027675Y006267D01*
X028050Y007157D02*
X026800Y007157D01*
X027425Y007437D02*
X027425Y011032D01*
X027855Y011032D01*
X027855Y010831D01*
X028250Y010831D01*
X028250Y010731D01*
X027855Y010731D01*
X027855Y010505D01*
X027863Y010472D01*
X027775Y010384D01*
X027775Y009776D01*
X027755Y009757D01*
X027755Y009054D01*
X027778Y009032D01*
X027755Y009009D01*
X027755Y008306D01*
X027869Y008192D01*
X027869Y007957D01*
X028363Y007957D01*
X028363Y007857D01*
X027869Y007857D01*
X027869Y007592D01*
X027880Y007553D01*
X027899Y007519D01*
X027927Y007491D01*
X027962Y007471D01*
X027967Y007470D01*
X027934Y007437D01*
X027425Y007437D01*
X027425Y007449D02*
X027947Y007449D01*
X027883Y007548D02*
X027425Y007548D01*
X027425Y007646D02*
X027869Y007646D01*
X027869Y007745D02*
X027425Y007745D01*
X027425Y007843D02*
X027869Y007843D01*
X027869Y008040D02*
X027425Y008040D01*
X027425Y007942D02*
X028363Y007942D01*
X027869Y008139D02*
X027425Y008139D01*
X027425Y008237D02*
X027824Y008237D01*
X027755Y008336D02*
X027425Y008336D01*
X027425Y008434D02*
X027755Y008434D01*
X027755Y008533D02*
X027425Y008533D01*
X027425Y008631D02*
X027755Y008631D01*
X027755Y008730D02*
X027425Y008730D01*
X027425Y008828D02*
X027755Y008828D01*
X027755Y008927D02*
X027425Y008927D01*
X027425Y009025D02*
X027771Y009025D01*
X027755Y009124D02*
X027425Y009124D01*
X027425Y009222D02*
X027755Y009222D01*
X027755Y009321D02*
X027425Y009321D01*
X027425Y009419D02*
X027755Y009419D01*
X027755Y009518D02*
X027425Y009518D01*
X027425Y009616D02*
X027755Y009616D01*
X027755Y009715D02*
X027425Y009715D01*
X027425Y009813D02*
X027775Y009813D01*
X027775Y009912D02*
X027425Y009912D01*
X027425Y010010D02*
X027775Y010010D01*
X027775Y010109D02*
X027425Y010109D01*
X027425Y010207D02*
X027775Y010207D01*
X027775Y010306D02*
X027425Y010306D01*
X027425Y010404D02*
X027795Y010404D01*
X027855Y010503D02*
X027425Y010503D01*
X027425Y010601D02*
X027855Y010601D01*
X027855Y010700D02*
X027425Y010700D01*
X027425Y010798D02*
X028250Y010798D01*
X028350Y010798D02*
X033675Y010798D01*
X033675Y010700D02*
X028745Y010700D01*
X028745Y010601D02*
X032318Y010601D01*
X032404Y010687D02*
X032020Y010303D01*
X032020Y010073D01*
X031931Y010162D01*
X030559Y010162D01*
X030424Y010027D01*
X030424Y009286D01*
X030559Y009151D01*
X031931Y009151D01*
X032065Y009286D01*
X032065Y009347D01*
X032177Y009347D01*
X032100Y009270D01*
X032100Y009082D01*
X032625Y009082D01*
X032625Y008982D01*
X032100Y008982D01*
X032100Y008793D01*
X032437Y008457D01*
X032625Y008457D01*
X032625Y008982D01*
X032725Y008982D01*
X032725Y009082D01*
X033250Y009082D01*
X033250Y009270D01*
X033045Y009475D01*
X033330Y009760D01*
X033330Y010303D01*
X032946Y010687D01*
X032404Y010687D01*
X032220Y010503D02*
X028745Y010503D01*
X028805Y010404D02*
X032121Y010404D01*
X032023Y010306D02*
X028825Y010306D01*
X028825Y010207D02*
X032020Y010207D01*
X032020Y010109D02*
X031984Y010109D01*
X032065Y009321D02*
X032151Y009321D01*
X032100Y009222D02*
X032002Y009222D01*
X032100Y009124D02*
X029665Y009124D01*
X029665Y009025D02*
X032625Y009025D01*
X032625Y008927D02*
X032725Y008927D01*
X032725Y008982D02*
X032725Y008457D01*
X032913Y008457D01*
X033250Y008793D01*
X033250Y008982D01*
X032725Y008982D01*
X032725Y009025D02*
X033675Y009025D01*
X033675Y008927D02*
X033250Y008927D01*
X033250Y008828D02*
X033675Y008828D01*
X033675Y008730D02*
X033186Y008730D01*
X033088Y008631D02*
X033675Y008631D01*
X033675Y008533D02*
X032989Y008533D01*
X032725Y008533D02*
X032625Y008533D01*
X032625Y008631D02*
X032725Y008631D01*
X032725Y008730D02*
X032625Y008730D01*
X032625Y008828D02*
X032725Y008828D01*
X032361Y008533D02*
X030612Y008533D01*
X030514Y008631D02*
X032262Y008631D01*
X032164Y008730D02*
X030415Y008730D01*
X030317Y008828D02*
X032100Y008828D01*
X032100Y008927D02*
X030208Y008927D01*
X030112Y009222D02*
X030488Y009222D01*
X030424Y009321D02*
X030176Y009321D01*
X030176Y009419D02*
X030424Y009419D01*
X030424Y009518D02*
X030176Y009518D01*
X030176Y009616D02*
X030424Y009616D01*
X030424Y009715D02*
X030176Y009715D01*
X030176Y009813D02*
X030424Y009813D01*
X030424Y009912D02*
X030176Y009912D01*
X030176Y010010D02*
X030424Y010010D01*
X030505Y010109D02*
X030095Y010109D01*
X028745Y010897D02*
X033675Y010897D01*
X033675Y010995D02*
X028745Y010995D01*
X027855Y010995D02*
X027425Y010995D01*
X027425Y010897D02*
X027855Y010897D01*
X027800Y012157D02*
X028925Y012157D01*
X029550Y012782D01*
X029550Y013782D01*
X030550Y014782D01*
X031425Y014782D01*
X027800Y012157D02*
X027550Y012407D01*
X027550Y012947D01*
X027550Y012907D01*
X027050Y012947D02*
X027050Y012532D01*
X026800Y012282D01*
X025863Y012282D01*
X024988Y013157D01*
X025988Y013157D02*
X026198Y012947D01*
X026550Y012947D01*
X023800Y013261D02*
X023446Y013261D01*
X023502Y013359D02*
X023800Y013359D01*
X023800Y013458D02*
X023601Y013458D01*
X023699Y013556D02*
X023800Y013556D01*
X023800Y013655D02*
X023705Y013655D01*
X023705Y013753D02*
X023800Y013753D01*
X023800Y013852D02*
X023705Y013852D01*
X023705Y013950D02*
X023800Y013950D01*
X023800Y014049D02*
X023658Y014049D01*
X023559Y014147D02*
X023800Y014147D01*
X023612Y014344D02*
X021454Y014344D01*
X021454Y014443D02*
X023514Y014443D01*
X023415Y014541D02*
X021454Y014541D01*
X021433Y014640D02*
X023317Y014640D01*
X023175Y013782D02*
X022675Y013282D01*
X022675Y010407D01*
X022300Y010032D01*
X021300Y010032D01*
X021874Y010582D02*
X021874Y010977D01*
X021874Y011232D01*
X021974Y011232D01*
X021974Y011332D01*
X021874Y011332D01*
X021874Y011727D01*
X021648Y011727D01*
X021616Y011718D01*
X021562Y011772D01*
X022041Y012252D01*
X022395Y012252D01*
X022395Y010523D01*
X022330Y010457D01*
X022330Y010482D01*
X021974Y010482D01*
X021974Y010582D01*
X021874Y010582D01*
X021874Y010601D02*
X021974Y010601D01*
X021974Y010582D02*
X021974Y011232D01*
X022330Y011232D01*
X022330Y010967D01*
X022320Y010928D01*
X022307Y010907D01*
X022320Y010885D01*
X022330Y010847D01*
X022330Y010582D01*
X021974Y010582D01*
X021974Y010503D02*
X022375Y010503D01*
X022395Y010601D02*
X022330Y010601D01*
X022330Y010700D02*
X022395Y010700D01*
X022395Y010798D02*
X022330Y010798D01*
X022313Y010897D02*
X022395Y010897D01*
X022395Y010995D02*
X022330Y010995D01*
X022330Y011094D02*
X022395Y011094D01*
X022395Y011192D02*
X022330Y011192D01*
X022395Y011291D02*
X021974Y011291D01*
X021974Y011332D02*
X022330Y011332D01*
X022330Y011597D01*
X022320Y011635D01*
X022300Y011669D01*
X022272Y011697D01*
X022238Y011717D01*
X022200Y011727D01*
X021974Y011727D01*
X021974Y011332D01*
X021974Y011389D02*
X021874Y011389D01*
X021874Y011488D02*
X021974Y011488D01*
X021974Y011586D02*
X021874Y011586D01*
X021874Y011685D02*
X021974Y011685D01*
X022284Y011685D02*
X022395Y011685D01*
X022395Y011783D02*
X021573Y011783D01*
X021671Y011882D02*
X022395Y011882D01*
X022395Y011980D02*
X021770Y011980D01*
X021868Y012079D02*
X022395Y012079D01*
X022395Y012177D02*
X021967Y012177D01*
X022395Y012252D02*
X022395Y012252D01*
X022395Y011586D02*
X022330Y011586D01*
X022330Y011488D02*
X022395Y011488D01*
X022395Y011389D02*
X022330Y011389D01*
X021974Y011192D02*
X021874Y011192D01*
X021874Y011094D02*
X021974Y011094D01*
X021974Y010995D02*
X021874Y010995D01*
X021874Y010897D02*
X021974Y010897D01*
X021974Y010798D02*
X021874Y010798D01*
X021874Y010700D02*
X021974Y010700D01*
X020425Y011657D02*
X020424Y011782D01*
X019726Y011732D02*
X019726Y011336D01*
X019834Y011336D01*
X019641Y011143D01*
X019599Y011185D01*
X018828Y011185D01*
X018828Y011836D01*
X018999Y011836D01*
X018999Y012232D01*
X019099Y012232D01*
X019099Y012332D01*
X019455Y012332D01*
X019455Y012356D01*
X019584Y012227D01*
X019455Y012227D01*
X019455Y012232D01*
X019099Y012232D01*
X019099Y011836D01*
X019270Y011836D01*
X019270Y011832D01*
X019626Y011832D01*
X019626Y011732D01*
X019270Y011732D01*
X019270Y011467D01*
X019280Y011428D01*
X019300Y011394D01*
X019328Y011366D01*
X019362Y011346D01*
X019400Y011336D01*
X019626Y011336D01*
X019626Y011732D01*
X019726Y011732D01*
X019726Y011685D02*
X019626Y011685D01*
X019626Y011783D02*
X018828Y011783D01*
X018828Y011685D02*
X019270Y011685D01*
X019270Y011586D02*
X018828Y011586D01*
X018828Y011488D02*
X019270Y011488D01*
X019305Y011389D02*
X018828Y011389D01*
X018828Y011291D02*
X019788Y011291D01*
X019726Y011389D02*
X019626Y011389D01*
X019626Y011488D02*
X019726Y011488D01*
X019726Y011586D02*
X019626Y011586D01*
X019690Y011192D02*
X018828Y011192D01*
X018999Y011882D02*
X019099Y011882D01*
X019099Y011980D02*
X018999Y011980D01*
X018999Y012079D02*
X019099Y012079D01*
X019099Y012177D02*
X018999Y012177D01*
X019099Y012276D02*
X019535Y012276D01*
X021175Y013782D02*
X021174Y014533D01*
X021050Y014657D01*
X020674Y014657D01*
X021160Y014935D02*
X021771Y014935D01*
X021673Y015034D02*
X021160Y015034D01*
X021075Y015132D02*
X021574Y015132D01*
X021476Y015231D02*
X019874Y015231D01*
X019776Y015132D02*
X020273Y015132D01*
X019976Y015034D02*
X019876Y015034D01*
X019876Y014935D02*
X019976Y014935D01*
X019976Y014837D02*
X019876Y014837D01*
X019876Y014738D02*
X019976Y014738D01*
X019520Y014738D02*
X019382Y014738D01*
X019480Y014837D02*
X019520Y014837D01*
X018550Y013907D02*
X017674Y013031D01*
X017550Y013031D01*
X017424Y013032D01*
X017550Y013031D02*
X017550Y012657D01*
X016925Y012032D01*
X016925Y011565D01*
X016925Y010907D01*
X016550Y010532D01*
X016550Y009532D01*
X017240Y008842D01*
X017240Y006998D01*
X017555Y006998D02*
X017555Y006911D01*
X017555Y006527D01*
X018675Y005407D01*
X019300Y005407D01*
X019675Y005032D01*
X019675Y004782D01*
X018800Y005657D02*
X020675Y005657D01*
X021050Y005282D01*
X021050Y004782D01*
X021800Y005907D02*
X022425Y005282D01*
X022425Y004782D01*
X022675Y005407D02*
X023550Y005407D01*
X023800Y005157D01*
X023800Y004782D01*
X024050Y005282D02*
X025050Y005282D01*
X025175Y005157D01*
X025175Y004782D01*
X024050Y005282D02*
X023675Y005657D01*
X022800Y005657D01*
X022050Y006407D01*
X020175Y006407D01*
X019800Y006782D01*
X019800Y008157D01*
X019620Y008337D01*
X019208Y008337D01*
X019208Y008652D02*
X019680Y008652D01*
X020050Y008282D01*
X020500Y008631D02*
X020600Y008631D01*
X020600Y008730D02*
X020500Y008730D01*
X020500Y008828D02*
X020600Y008828D01*
X020882Y008631D02*
X022275Y008631D01*
X022373Y008730D02*
X020988Y008730D01*
X020995Y008828D02*
X022472Y008828D01*
X019208Y008967D02*
X018735Y008967D01*
X017925Y008157D01*
X017675Y008157D01*
X016925Y008532D02*
X015675Y009782D01*
X015675Y010532D01*
X016050Y010532D01*
X016613Y011094D01*
X016613Y011563D01*
X016610Y011565D01*
X016610Y012217D01*
X016800Y012407D01*
X016800Y013156D01*
X016676Y013032D01*
X016050Y013032D02*
X015924Y013032D01*
X016050Y013156D01*
X016050Y013032D02*
X016050Y014408D01*
X017425Y014407D01*
X016700Y014407D01*
X016050Y013032D02*
X016050Y012657D01*
X016295Y012411D01*
X016295Y011565D01*
X015980Y011565D02*
X015980Y012226D01*
X015675Y012532D01*
X013925Y012532D01*
X013675Y012782D01*
X013676Y013032D01*
X013675Y013407D01*
X013675Y014407D01*
X013550Y014408D01*
X013550Y014407D01*
X012900Y014407D01*
X011925Y013407D02*
X010799Y013407D01*
X010051Y013407D02*
X010051Y014157D01*
X010050Y014532D01*
X010425Y014907D01*
X011425Y015657D02*
X011425Y016032D01*
X009074Y018055D02*
X008925Y018032D01*
X009074Y018055D02*
X009074Y018255D01*
X009074Y018511D02*
X009571Y018511D01*
X009800Y018282D01*
X011925Y013407D02*
X012175Y013157D01*
X012175Y008907D01*
X013375Y007707D01*
X014642Y007707D01*
X014642Y008022D02*
X014122Y008022D01*
X014113Y008032D01*
X014120Y008337D02*
X014113Y008344D01*
X014120Y008337D02*
X014642Y008337D01*
X014642Y008652D02*
X014637Y008657D01*
X013925Y008657D01*
X013800Y008532D01*
X013800Y008469D01*
X013550Y008219D01*
X013175Y008782D02*
X013360Y008967D01*
X014642Y008967D01*
X014642Y009282D02*
X012675Y009282D01*
X013360Y009596D02*
X013050Y009969D01*
X012675Y009969D01*
X013360Y009596D02*
X014642Y009596D01*
X014642Y009911D02*
X014117Y009911D01*
X014113Y009907D01*
X014113Y010219D02*
X014120Y010226D01*
X014642Y010226D01*
X014642Y010541D02*
X014122Y010541D01*
X014113Y010532D01*
X014800Y011407D02*
X015675Y010532D01*
X015665Y011565D02*
X015675Y011907D01*
X015425Y012157D01*
X014925Y012157D01*
X014800Y012032D01*
X017240Y011565D02*
X017240Y010471D01*
X017050Y010282D01*
X017555Y009786D02*
X017300Y009532D01*
X017555Y009786D02*
X017555Y011565D01*
X018175Y009907D02*
X018485Y009596D01*
X019208Y009596D01*
X019208Y009282D02*
X018300Y009282D01*
X017925Y008907D01*
X016925Y008532D02*
X016925Y006998D01*
X016925Y006532D01*
X017050Y006407D01*
X016610Y006342D02*
X016610Y006998D01*
X016295Y006998D02*
X016295Y006402D01*
X015300Y005407D01*
X014050Y005407D01*
X013800Y005157D01*
X013800Y004782D01*
X013550Y005282D02*
X013925Y005657D01*
X015175Y005657D01*
X015980Y006462D01*
X015980Y006998D01*
X015665Y006998D02*
X015665Y006522D01*
X015050Y005907D01*
X013800Y005907D01*
X013425Y005532D01*
X011425Y005532D01*
X011050Y005157D01*
X011050Y004782D01*
X012425Y004782D02*
X012425Y005032D01*
X012675Y005282D01*
X013550Y005282D01*
X015175Y004907D02*
X015175Y004782D01*
X015175Y004907D02*
X016610Y006342D01*
X017550Y006907D02*
X017555Y006911D01*
X017870Y006998D02*
X017870Y006587D01*
X018800Y005657D01*
X018925Y005907D02*
X021800Y005907D01*
X021925Y006157D02*
X022675Y005407D01*
X021925Y006157D02*
X019050Y006157D01*
X018500Y006707D01*
X018500Y006998D01*
X018185Y006998D02*
X018185Y006647D01*
X018925Y005907D01*
X015350Y006998D02*
X015208Y006998D01*
X014800Y007407D01*
X013300Y007407D01*
X011925Y008782D01*
X011925Y012657D01*
X011675Y012907D01*
X009925Y012282D02*
X009299Y012281D01*
X009299Y012282D01*
X009299Y011532D01*
X009992Y011532D01*
X009299Y011532D02*
X009300Y010782D01*
X009300Y010157D01*
X007550Y010657D02*
X007175Y011032D01*
X007175Y011658D01*
X007925Y011532D02*
X007925Y012032D01*
X008175Y012282D01*
X008551Y012282D01*
X006550Y006782D02*
X006550Y006031D01*
X005925Y006032D01*
X005925Y005937D01*
X005675Y004657D02*
X002550Y004657D01*
X002300Y004907D01*
X002300Y006708D01*
X004425Y006782D02*
X004425Y005937D01*
X005675Y004657D02*
X005925Y004407D01*
X005925Y003877D01*
X004925Y003877D02*
X004925Y002907D01*
X021461Y014246D02*
X021889Y014246D01*
X021791Y014147D02*
X021559Y014147D01*
X021658Y014049D02*
X021692Y014049D01*
X021968Y014738D02*
X021364Y014738D01*
X021266Y014837D02*
X021870Y014837D01*
X024300Y016157D02*
X024550Y015907D01*
X024550Y015532D01*
X026049Y010657D02*
X026050Y010656D01*
X029437Y007907D02*
X029550Y007895D01*
X029550Y007532D01*
X029425Y007407D01*
X028300Y007407D01*
X028050Y007157D01*
X029425Y007407D02*
X029549Y007283D01*
X029549Y006907D01*
X029925Y006907D01*
X030050Y007032D01*
X030526Y007032D01*
X030526Y006532D02*
X030050Y006532D01*
X029925Y006407D01*
X029925Y006282D01*
X029800Y006157D01*
X029549Y006157D01*
X030575Y004987D02*
X031645Y004987D01*
X031645Y004888D02*
X030575Y004888D01*
X030560Y004790D02*
X031645Y004790D01*
X031645Y004691D02*
X030575Y004691D01*
X030575Y004593D02*
X030809Y004593D01*
X030798Y004494D02*
X030575Y004494D01*
X030575Y004396D02*
X030798Y004396D01*
X031224Y004396D02*
X031301Y004396D01*
X031301Y004494D02*
X031224Y004494D01*
X031224Y004593D02*
X031301Y004593D01*
X032205Y004593D02*
X032292Y004593D01*
X032292Y004691D02*
X032205Y004691D01*
X032205Y004790D02*
X032292Y004790D01*
X032292Y004888D02*
X032205Y004888D01*
X032205Y004987D02*
X032292Y004987D01*
X032292Y005085D02*
X032205Y005085D01*
X032205Y005184D02*
X032292Y005184D01*
X032317Y005282D02*
X032205Y005282D01*
X032187Y005381D02*
X032415Y005381D01*
X032583Y005479D02*
X032123Y005479D01*
X032025Y005578D02*
X032604Y005578D01*
X032674Y005676D02*
X031926Y005676D01*
X031954Y005775D02*
X031763Y005775D01*
X031911Y005873D02*
X031189Y005873D01*
X031189Y005972D02*
X031911Y005972D01*
X031911Y006070D02*
X031189Y006070D01*
X031189Y006169D02*
X031911Y006169D01*
X031933Y006267D02*
X031167Y006267D01*
X031189Y006366D02*
X031998Y006366D01*
X031991Y006464D02*
X031189Y006464D01*
X031189Y006563D02*
X031991Y006563D01*
X031991Y006661D02*
X031189Y006661D01*
X031175Y006760D02*
X031969Y006760D01*
X031911Y006858D02*
X031189Y006858D01*
X031189Y006957D02*
X031911Y006957D01*
X031911Y007055D02*
X031189Y007055D01*
X031189Y007154D02*
X031911Y007154D01*
X031918Y007252D02*
X031182Y007252D01*
X031189Y007351D02*
X032004Y007351D01*
X031991Y007449D02*
X031189Y007449D01*
X031189Y007548D02*
X031991Y007548D01*
X031991Y007646D02*
X031189Y007646D01*
X031189Y007745D02*
X032023Y007745D01*
X032565Y007745D02*
X032583Y007745D01*
X032583Y007800D02*
X032583Y007541D01*
X033157Y007541D01*
X033157Y007669D01*
X033146Y007708D01*
X033127Y007742D01*
X033099Y007770D01*
X033065Y007789D01*
X033026Y007800D01*
X032583Y007800D01*
X032583Y007646D02*
X032565Y007646D01*
X032565Y007548D02*
X032583Y007548D01*
X032574Y007032D02*
X033175Y007032D01*
X033300Y006907D01*
X033300Y005907D01*
X032863Y005469D01*
X032863Y004932D01*
X032837Y004907D01*
X032863Y004932D02*
X032863Y003656D01*
X032862Y003657D01*
X032425Y003657D01*
X032300Y003532D01*
X032300Y003032D01*
X032176Y002908D01*
X031738Y002908D01*
X032282Y002623D02*
X032400Y002623D01*
X032398Y002721D02*
X032385Y002721D01*
X032469Y002524D02*
X032250Y002524D01*
X032152Y002426D02*
X033675Y002426D01*
X033675Y002524D02*
X033256Y002524D01*
X033270Y002532D02*
X033297Y002560D01*
X033317Y002594D01*
X033327Y002632D01*
X033327Y002858D01*
X032913Y002858D01*
X032912Y002858D02*
X032912Y002502D01*
X033197Y002502D01*
X033235Y002512D01*
X033270Y002532D01*
X033325Y002623D02*
X033675Y002623D01*
X033675Y002721D02*
X033327Y002721D01*
X033327Y002820D02*
X033675Y002820D01*
X033675Y002918D02*
X032913Y002918D01*
X032912Y002820D02*
X032813Y002820D01*
X032813Y002721D02*
X032912Y002721D01*
X032912Y002623D02*
X032813Y002623D01*
X032813Y002524D02*
X032912Y002524D01*
X033327Y003017D02*
X033675Y003017D01*
X033675Y003115D02*
X033327Y003115D01*
X033319Y003214D02*
X033675Y003214D01*
X033675Y003312D02*
X033407Y003312D01*
X033407Y003411D02*
X033675Y003411D01*
X033675Y003509D02*
X033407Y003509D01*
X033407Y003608D02*
X033675Y003608D01*
X033675Y003706D02*
X033407Y003706D01*
X033407Y003805D02*
X033675Y003805D01*
X033675Y003903D02*
X033407Y003903D01*
X033407Y004002D02*
X033675Y004002D01*
X033675Y004100D02*
X033314Y004100D01*
X033142Y004199D02*
X033675Y004199D01*
X033675Y004297D02*
X033142Y004297D01*
X033142Y004396D02*
X033675Y004396D01*
X033675Y004494D02*
X033321Y004494D01*
X033382Y004593D02*
X033675Y004593D01*
X033675Y004691D02*
X033382Y004691D01*
X033382Y004790D02*
X033675Y004790D01*
X033675Y004888D02*
X033382Y004888D01*
X033382Y004987D02*
X033675Y004987D01*
X033675Y005085D02*
X033382Y005085D01*
X033382Y005184D02*
X033675Y005184D01*
X033675Y005282D02*
X033358Y005282D01*
X033260Y005381D02*
X033675Y005381D01*
X033675Y005479D02*
X033268Y005479D01*
X033367Y005578D02*
X033675Y005578D01*
X033675Y005676D02*
X033465Y005676D01*
X033548Y005775D02*
X033675Y005775D01*
X033675Y005873D02*
X033580Y005873D01*
X033580Y005972D02*
X033675Y005972D01*
X033675Y006070D02*
X033580Y006070D01*
X033580Y006169D02*
X033675Y006169D01*
X033675Y006267D02*
X033580Y006267D01*
X033580Y006366D02*
X033675Y006366D01*
X033675Y006464D02*
X033580Y006464D01*
X033580Y006563D02*
X033675Y006563D01*
X033675Y006661D02*
X033580Y006661D01*
X033580Y006760D02*
X033675Y006760D01*
X033675Y006858D02*
X033580Y006858D01*
X033580Y006957D02*
X033675Y006957D01*
X033675Y007055D02*
X033542Y007055D01*
X033449Y007154D02*
X033675Y007154D01*
X033675Y007252D02*
X033350Y007252D01*
X033144Y007351D02*
X033675Y007351D01*
X033675Y007449D02*
X033157Y007449D01*
X033157Y007548D02*
X033675Y007548D01*
X033675Y007646D02*
X033157Y007646D01*
X033124Y007745D02*
X033675Y007745D01*
X033675Y007843D02*
X031091Y007843D01*
X030836Y007942D02*
X033675Y007942D01*
X033675Y008040D02*
X030836Y008040D01*
X030836Y008139D02*
X033675Y008139D01*
X033675Y008237D02*
X030836Y008237D01*
X030798Y008336D02*
X033675Y008336D01*
X033675Y008434D02*
X030711Y008434D01*
X029549Y007894D02*
X029437Y007907D01*
X033032Y010601D02*
X033675Y010601D01*
X033675Y010503D02*
X033130Y010503D01*
X033229Y010404D02*
X033675Y010404D01*
X033675Y010306D02*
X033327Y010306D01*
X033330Y010207D02*
X033675Y010207D01*
X033675Y010109D02*
X033330Y010109D01*
X033330Y010010D02*
X033675Y010010D01*
X033675Y009912D02*
X033330Y009912D01*
X033330Y009813D02*
X033675Y009813D01*
X033675Y009715D02*
X033284Y009715D01*
X033186Y009616D02*
X033675Y009616D01*
X033675Y009518D02*
X033087Y009518D01*
X033101Y009419D02*
X033675Y009419D01*
X033675Y009321D02*
X033199Y009321D01*
X033250Y009222D02*
X033675Y009222D01*
X033675Y009124D02*
X033250Y009124D01*
X032354Y004494D02*
X032205Y004494D01*
X032205Y004396D02*
X032583Y004396D01*
X032583Y004297D02*
X032205Y004297D01*
X032205Y004199D02*
X032583Y004199D01*
X032411Y004100D02*
X032205Y004100D01*
X032282Y004002D02*
X032318Y004002D01*
X032288Y003903D02*
X032282Y003903D01*
X031225Y002524D02*
X027675Y002524D01*
X027675Y002426D02*
X031323Y002426D01*
X029059Y002721D02*
X028791Y002721D01*
X028889Y002820D02*
X028961Y002820D01*
X028425Y003282D02*
X028425Y004270D01*
X027675Y002327D02*
X033675Y002327D01*
X017050Y020407D02*
X016425Y020408D01*
X017050Y020407D02*
X017175Y020532D01*
X018434Y021180D02*
X018434Y021540D01*
X018925Y022032D01*
D49*
X020675Y021532D03*
X021425Y021532D03*
X018925Y020157D03*
X017925Y020532D03*
X017175Y020532D03*
X017925Y018282D03*
X018675Y018282D03*
X021050Y018032D03*
X023050Y016407D03*
X024550Y015532D03*
X025425Y015907D03*
X026175Y016657D03*
X025300Y017407D03*
X027550Y016157D03*
X028050Y016657D03*
X030050Y018157D03*
X029550Y018657D03*
X028175Y019407D03*
X027925Y018657D03*
X026800Y020125D03*
X024425Y020532D03*
X027800Y023157D03*
X018550Y013907D03*
X019050Y011532D03*
X017050Y010282D03*
X017300Y009532D03*
X017925Y008907D03*
X017675Y008157D03*
X018175Y009907D03*
X014800Y012032D03*
X012675Y009969D03*
X012675Y009282D03*
X013175Y008782D03*
X013550Y008219D03*
X013300Y006157D03*
X008550Y009657D03*
X009300Y010157D03*
X007925Y011532D03*
X011675Y012907D03*
X010425Y014907D03*
X010550Y016657D03*
X010300Y017782D03*
X009800Y018282D03*
X008550Y019532D03*
X008425Y020532D03*
X009675Y019782D03*
X010549Y021157D03*
X012925Y022532D03*
X007363Y018844D03*
X007488Y018219D03*
X005175Y018032D03*
X002425Y020532D03*
X001425Y021157D03*
X001175Y018657D03*
X006300Y021157D03*
X015550Y017282D03*
X022050Y011907D03*
X025300Y011907D03*
X026800Y007157D03*
X022925Y006782D03*
X007175Y004657D03*
X006300Y002907D03*
X007300Y002782D03*
X004425Y006782D03*
D50*
X003885Y006787D02*
X003710Y006787D01*
X003710Y006945D02*
X003908Y006945D01*
X003885Y006889D02*
X003885Y006674D01*
X003967Y006476D01*
X004045Y006398D01*
X004045Y005450D01*
X004085Y005354D01*
X004158Y005281D01*
X004253Y005242D01*
X004597Y005242D01*
X004692Y005281D01*
X004743Y005332D01*
X004781Y005322D01*
X004925Y005322D01*
X005069Y005322D01*
X005107Y005332D01*
X005158Y005281D01*
X005253Y005242D01*
X005597Y005242D01*
X005675Y005274D01*
X005753Y005242D01*
X006097Y005242D01*
X006192Y005281D01*
X006242Y005330D01*
X006502Y005330D01*
X006502Y005235D01*
X006075Y005235D01*
X006075Y005003D01*
X006087Y004957D01*
X006111Y004916D01*
X006144Y004883D01*
X006185Y004859D01*
X006231Y004847D01*
X006502Y004847D01*
X006502Y005235D01*
X006598Y005235D01*
X006598Y005330D01*
X007020Y005330D01*
X007137Y005214D01*
X007232Y005118D01*
X007357Y005067D01*
X007512Y005067D01*
X007440Y004893D01*
X007440Y004670D01*
X007525Y004464D01*
X007668Y004322D01*
X007068Y004322D01*
X006869Y004239D01*
X006717Y004087D01*
X006305Y003675D01*
X006305Y004363D01*
X006265Y004459D01*
X006220Y004504D01*
X006188Y004582D01*
X005938Y004832D01*
X005851Y004919D01*
X005737Y004967D01*
X002678Y004967D01*
X002610Y005035D01*
X002610Y005672D01*
X003501Y005672D01*
X003597Y005712D01*
X003670Y005785D01*
X003710Y005880D01*
X003710Y007535D01*
X003670Y007631D01*
X003597Y007704D01*
X003501Y007743D01*
X002891Y007743D01*
X002891Y007859D01*
X002899Y007867D01*
X003229Y007867D01*
X003313Y007832D01*
X004991Y007832D01*
X005087Y007871D01*
X005160Y007944D01*
X005200Y008040D01*
X005200Y008773D01*
X005160Y008869D01*
X005087Y008942D01*
X004991Y008981D01*
X004715Y008981D01*
X004715Y010014D01*
X004633Y010212D01*
X004481Y010364D01*
X003758Y011087D01*
X003758Y011087D01*
X003606Y011239D01*
X003407Y011322D01*
X003268Y011322D01*
X003257Y011332D01*
X003032Y011426D01*
X002084Y011426D01*
X001858Y011332D01*
X001686Y011160D01*
X001593Y010935D01*
X001593Y010691D01*
X001686Y010466D01*
X001858Y010294D01*
X002084Y010201D01*
X003032Y010201D01*
X003092Y010225D01*
X003635Y009683D01*
X003635Y008981D01*
X003313Y008981D01*
X003229Y008947D01*
X002568Y008947D01*
X002369Y008864D01*
X002217Y008712D01*
X001893Y008389D01*
X001811Y008190D01*
X001811Y007743D01*
X001099Y007743D01*
X001003Y007704D01*
X000930Y007631D01*
X000925Y007619D01*
X000925Y008613D01*
X001237Y008302D01*
X001437Y008302D01*
X001437Y008857D01*
X001538Y008857D01*
X001538Y008957D01*
X002092Y008957D01*
X002092Y009157D01*
X001738Y009512D01*
X001538Y009512D01*
X001538Y008957D01*
X001437Y008957D01*
X001437Y009512D01*
X001237Y009512D01*
X000925Y009200D01*
X000925Y019037D01*
X001575Y019037D01*
X001575Y019454D01*
X001730Y019454D01*
X001730Y019609D01*
X002620Y019609D01*
X002620Y019870D01*
X002607Y019916D01*
X002584Y019957D01*
X002550Y019991D01*
X002542Y019995D01*
X002731Y020074D01*
X002769Y020112D01*
X003626Y020112D01*
X003631Y020106D01*
X003609Y020106D01*
X003513Y020067D01*
X003440Y019994D01*
X003400Y019898D01*
X003400Y019165D01*
X003440Y019069D01*
X003513Y018996D01*
X003609Y018957D01*
X003950Y018957D01*
X003734Y018742D01*
X001833Y018742D01*
X001664Y018671D01*
X001164Y018171D01*
X001035Y018042D01*
X000965Y017873D01*
X000965Y015065D01*
X001035Y014896D01*
X001164Y014767D01*
X001164Y014767D01*
X001571Y014360D01*
X001740Y014290D01*
X001799Y014290D01*
X001858Y014231D01*
X002084Y014138D01*
X003032Y014138D01*
X003257Y014231D01*
X003430Y014403D01*
X003433Y014410D01*
X003566Y014410D01*
X003585Y014391D01*
X003585Y011589D01*
X003637Y011464D01*
X005210Y009891D01*
X005210Y007214D01*
X005262Y007089D01*
X005729Y006622D01*
X005675Y006599D01*
X005597Y006632D01*
X005253Y006632D01*
X005158Y006592D01*
X005107Y006541D01*
X005069Y006552D01*
X004925Y006552D01*
X004914Y006552D01*
X004965Y006674D01*
X004965Y006889D01*
X004883Y007087D01*
X004731Y007239D01*
X004532Y007322D01*
X004318Y007322D01*
X004119Y007239D01*
X003967Y007087D01*
X003885Y006889D01*
X003983Y007104D02*
X003710Y007104D01*
X003710Y007262D02*
X004174Y007262D01*
X004676Y007262D02*
X005210Y007262D01*
X005210Y007421D02*
X003710Y007421D01*
X003691Y007579D02*
X005210Y007579D01*
X005210Y007738D02*
X003515Y007738D01*
X003710Y006628D02*
X003904Y006628D01*
X003973Y006470D02*
X003710Y006470D01*
X003710Y006311D02*
X004045Y006311D01*
X004045Y006153D02*
X003710Y006153D01*
X003710Y005994D02*
X004045Y005994D01*
X004045Y005836D02*
X003691Y005836D01*
X003513Y005677D02*
X004045Y005677D01*
X004045Y005519D02*
X002610Y005519D01*
X002610Y005360D02*
X004082Y005360D01*
X004925Y005360D02*
X004925Y005360D01*
X004925Y005322D02*
X004925Y005937D01*
X004925Y006552D01*
X004925Y005937D01*
X004925Y005937D01*
X004925Y005937D01*
X004925Y005322D01*
X004925Y005519D02*
X004925Y005519D01*
X004925Y005677D02*
X004925Y005677D01*
X004925Y005836D02*
X004925Y005836D01*
X004925Y005994D02*
X004925Y005994D01*
X004925Y006153D02*
X004925Y006153D01*
X004925Y006311D02*
X004925Y006311D01*
X004925Y006470D02*
X004925Y006470D01*
X004946Y006628D02*
X005245Y006628D01*
X004965Y006787D02*
X005564Y006787D01*
X005605Y006628D02*
X005723Y006628D01*
X006050Y006782D02*
X006550Y006782D01*
X006925Y006782D01*
X007175Y006532D01*
X007175Y005657D01*
X007425Y005407D01*
X010675Y005407D01*
X011050Y005782D01*
X012925Y005782D01*
X013300Y006157D01*
X013820Y006311D02*
X015016Y006311D01*
X014922Y006217D02*
X015163Y006458D01*
X015104Y006482D01*
X015031Y006556D01*
X014992Y006651D01*
X014992Y006776D01*
X014672Y007097D01*
X013238Y007097D01*
X013124Y007144D01*
X011749Y008519D01*
X011662Y008606D01*
X011615Y008720D01*
X011615Y012367D01*
X011568Y012367D01*
X011369Y012449D01*
X011217Y012601D01*
X011135Y012799D01*
X011135Y012843D01*
X011107Y012832D01*
X010491Y012832D01*
X010425Y012859D01*
X010359Y012832D01*
X009743Y012832D01*
X009648Y012871D01*
X009575Y012944D01*
X009535Y013040D01*
X009535Y013773D01*
X009539Y013782D01*
X009535Y013790D01*
X009535Y014523D01*
X009575Y014619D01*
X009648Y014692D01*
X009743Y014731D01*
X009812Y014731D01*
X009830Y014750D01*
X009874Y014794D01*
X009874Y014794D01*
X009885Y014805D01*
X009885Y015014D01*
X009967Y015212D01*
X010119Y015364D01*
X010318Y015447D01*
X010532Y015447D01*
X010731Y015364D01*
X010883Y015212D01*
X010965Y015014D01*
X010965Y014799D01*
X010904Y014651D01*
X011079Y014651D01*
X011124Y014639D01*
X011165Y014616D01*
X011199Y014582D01*
X011223Y014541D01*
X011235Y014495D01*
X011235Y014204D01*
X010847Y014204D01*
X010847Y014109D01*
X011235Y014109D01*
X011235Y013909D01*
X011275Y013869D01*
X011315Y013773D01*
X011315Y013717D01*
X011987Y013717D01*
X012101Y013669D01*
X012188Y013582D01*
X012438Y013332D01*
X012485Y013218D01*
X012485Y010475D01*
X012568Y010509D01*
X012782Y010509D01*
X012981Y010427D01*
X013133Y010275D01*
X013134Y010273D01*
X013140Y010272D01*
X013182Y010250D01*
X013226Y010232D01*
X013236Y010222D01*
X013249Y010215D01*
X013279Y010178D01*
X013313Y010145D01*
X013318Y010131D01*
X013505Y009906D01*
X013734Y009906D01*
X013734Y010701D01*
X013774Y010797D01*
X013847Y010870D01*
X013943Y010910D01*
X014086Y010910D01*
X014086Y011006D01*
X014126Y011102D01*
X014199Y011175D01*
X014295Y011215D01*
X014989Y011215D01*
X014994Y011212D01*
X014992Y011218D01*
X014992Y011526D01*
X014907Y011492D01*
X014693Y011492D01*
X014494Y011574D01*
X014342Y011726D01*
X014260Y011924D01*
X014260Y012139D01*
X014294Y012222D01*
X013863Y012222D01*
X013749Y012269D01*
X013542Y012476D01*
X013368Y012476D01*
X013273Y012516D01*
X013200Y012589D01*
X013160Y012685D01*
X013160Y013379D01*
X013200Y013474D01*
X013273Y013547D01*
X013365Y013585D01*
X013365Y013767D01*
X011798Y013767D01*
X011703Y013806D01*
X011630Y013879D01*
X011590Y013975D01*
X011590Y014838D01*
X011630Y014934D01*
X011703Y015007D01*
X011798Y015047D01*
X014002Y015047D01*
X014097Y015007D01*
X014170Y014934D01*
X014210Y014838D01*
X014210Y013975D01*
X014170Y013879D01*
X014097Y013806D01*
X014002Y013767D01*
X013985Y013767D01*
X013985Y013586D01*
X014079Y013547D01*
X014125Y013502D01*
X014144Y013507D01*
X014376Y013507D01*
X014376Y013079D01*
X014472Y013079D01*
X014860Y013079D01*
X015128Y013079D01*
X015128Y012984D01*
X014472Y012984D01*
X014472Y013079D01*
X014472Y013507D01*
X014704Y013507D01*
X014749Y013495D01*
X014790Y013471D01*
X014800Y013461D01*
X014810Y013471D01*
X014851Y013495D01*
X014896Y013507D01*
X015128Y013507D01*
X015128Y013079D01*
X015224Y013079D01*
X015224Y013507D01*
X015456Y013507D01*
X015475Y013502D01*
X015521Y013547D01*
X015616Y013587D01*
X015740Y013587D01*
X015740Y013767D01*
X015598Y013767D01*
X015503Y013806D01*
X015430Y013879D01*
X015390Y013975D01*
X015390Y014838D01*
X015430Y014934D01*
X015503Y015007D01*
X015598Y015047D01*
X017802Y015047D01*
X017897Y015007D01*
X017970Y014934D01*
X018010Y014838D01*
X018010Y013975D01*
X017970Y013879D01*
X017897Y013806D01*
X017802Y013767D01*
X016360Y013767D01*
X016360Y013514D01*
X016374Y013501D01*
X016396Y013507D01*
X016628Y013507D01*
X016628Y013079D01*
X016724Y013079D01*
X016724Y013507D01*
X016956Y013507D01*
X016975Y013502D01*
X017021Y013547D01*
X017116Y013587D01*
X017732Y013587D01*
X017774Y013569D01*
X018010Y013805D01*
X018010Y014014D01*
X018092Y014212D01*
X018244Y014364D01*
X018288Y014383D01*
X018232Y014406D01*
X018159Y014479D01*
X018120Y014574D01*
X018120Y014942D01*
X018107Y014942D01*
X017982Y014993D01*
X017887Y015089D01*
X017284Y015692D01*
X011935Y015692D01*
X011935Y015555D01*
X011857Y015368D01*
X011714Y015224D01*
X011526Y015147D01*
X011324Y015147D01*
X011136Y015224D01*
X010993Y015368D01*
X010915Y015555D01*
X010915Y015692D01*
X010441Y015692D01*
X009588Y014839D01*
X009588Y014839D01*
X009493Y014743D01*
X009368Y014692D01*
X004227Y014692D01*
X004265Y014599D01*
X004265Y011797D01*
X005743Y010320D01*
X005838Y010224D01*
X005890Y010099D01*
X005890Y007422D01*
X006191Y007122D01*
X006993Y007122D01*
X007118Y007070D01*
X007368Y006820D01*
X007463Y006724D01*
X007515Y006599D01*
X007515Y005797D01*
X007566Y005747D01*
X007881Y005747D01*
X007855Y005797D01*
X007832Y005869D01*
X007820Y005944D01*
X007820Y006262D01*
X008280Y006262D01*
X008280Y006302D01*
X008280Y006877D01*
X008280Y007637D01*
X007820Y007637D01*
X007820Y007319D01*
X007832Y007244D01*
X007855Y007172D01*
X007889Y007105D01*
X007934Y007044D01*
X007987Y006990D01*
X008017Y006969D01*
X007987Y006948D01*
X007934Y006894D01*
X007889Y006833D01*
X007855Y006766D01*
X007832Y006694D01*
X007820Y006619D01*
X007820Y006302D01*
X008280Y006302D01*
X008320Y006302D01*
X008320Y007637D01*
X008280Y007637D01*
X008280Y007677D01*
X008280Y008437D01*
X008262Y008437D01*
X008188Y008425D01*
X008116Y008401D01*
X008048Y008367D01*
X007987Y008323D01*
X007934Y008269D01*
X007915Y008243D01*
X007915Y008329D01*
X007025Y008329D01*
X007025Y007912D01*
X007759Y007912D01*
X007805Y007924D01*
X007820Y007933D01*
X007820Y007677D01*
X008280Y007677D01*
X008320Y007677D01*
X008320Y008437D01*
X008338Y008437D01*
X008412Y008425D01*
X008484Y008401D01*
X008552Y008367D01*
X008613Y008323D01*
X008666Y008269D01*
X008711Y008208D01*
X008745Y008141D01*
X008756Y008106D01*
X008825Y008274D01*
X008983Y008431D01*
X009189Y008517D01*
X009411Y008517D01*
X009617Y008431D01*
X009775Y008274D01*
X009800Y008213D01*
X009800Y008213D01*
X009825Y008274D01*
X009983Y008431D01*
X010002Y008439D01*
X009766Y008675D01*
X009637Y008987D01*
X009637Y009326D01*
X009766Y009638D01*
X010006Y009878D01*
X010318Y010007D01*
X010657Y010007D01*
X010969Y009878D01*
X011209Y009638D01*
X011338Y009326D01*
X011338Y008987D01*
X011209Y008675D01*
X010969Y008435D01*
X010717Y008331D01*
X010775Y008274D01*
X010860Y008068D01*
X010860Y007245D01*
X010775Y007039D01*
X010704Y006969D01*
X010775Y006899D01*
X010860Y006693D01*
X010860Y006071D01*
X010982Y006122D01*
X012760Y006122D01*
X012760Y006264D01*
X012842Y006462D01*
X012994Y006614D01*
X013193Y006697D01*
X013407Y006697D01*
X013606Y006614D01*
X013758Y006462D01*
X013840Y006264D01*
X013840Y006217D01*
X014922Y006217D01*
X015135Y006470D02*
X013751Y006470D01*
X013573Y006628D02*
X015001Y006628D01*
X014982Y006787D02*
X010821Y006787D01*
X010860Y006628D02*
X013027Y006628D01*
X012849Y006470D02*
X010860Y006470D01*
X010860Y006311D02*
X012780Y006311D01*
X012760Y006153D02*
X010860Y006153D01*
X010728Y006945D02*
X014823Y006945D01*
X015195Y007551D02*
X015197Y007557D01*
X015197Y007857D01*
X015194Y007864D01*
X015197Y007872D01*
X015197Y008172D01*
X015194Y008179D01*
X015197Y008187D01*
X015197Y008487D01*
X015194Y008494D01*
X015197Y008501D01*
X015197Y008802D01*
X015194Y008809D01*
X015197Y008816D01*
X015197Y009117D01*
X015194Y009124D01*
X015197Y009131D01*
X015197Y009432D01*
X015194Y009439D01*
X015197Y009446D01*
X015197Y009747D01*
X015194Y009754D01*
X015197Y009761D01*
X015197Y010062D01*
X015194Y010069D01*
X015197Y010076D01*
X015197Y010377D01*
X015194Y010384D01*
X015197Y010391D01*
X015197Y010692D01*
X015194Y010699D01*
X015197Y010706D01*
X015197Y011006D01*
X015195Y011012D01*
X015200Y011010D01*
X015500Y011010D01*
X015508Y011013D01*
X015515Y011010D01*
X015815Y011010D01*
X015823Y011013D01*
X015830Y011010D01*
X016130Y011010D01*
X016138Y011013D01*
X016145Y011010D01*
X016445Y011010D01*
X016541Y011049D01*
X016581Y011090D01*
X016610Y011090D01*
X016610Y011119D01*
X016610Y011119D01*
X016610Y011119D01*
X016610Y011090D01*
X016615Y011090D01*
X016615Y011035D01*
X016374Y010794D01*
X016287Y010707D01*
X016240Y010593D01*
X016240Y009470D01*
X016287Y009356D01*
X016930Y008713D01*
X016930Y007473D01*
X016925Y007473D01*
X016925Y007445D01*
X016925Y007473D01*
X016896Y007473D01*
X016856Y007514D01*
X016760Y007553D01*
X016460Y007553D01*
X016453Y007550D01*
X016445Y007553D01*
X016145Y007553D01*
X016138Y007550D01*
X016130Y007553D01*
X015830Y007553D01*
X015823Y007550D01*
X015815Y007553D01*
X015515Y007553D01*
X015508Y007550D01*
X015500Y007553D01*
X015200Y007553D01*
X015195Y007551D01*
X015197Y007579D02*
X016930Y007579D01*
X016925Y007445D02*
X016925Y007444D01*
X016925Y007445D01*
X016930Y007738D02*
X015197Y007738D01*
X015197Y007896D02*
X016930Y007896D01*
X016930Y008055D02*
X015197Y008055D01*
X015197Y008213D02*
X016930Y008213D01*
X016930Y008372D02*
X015197Y008372D01*
X015197Y008530D02*
X016930Y008530D01*
X016930Y008689D02*
X015197Y008689D01*
X015197Y008847D02*
X016796Y008847D01*
X016638Y009006D02*
X015197Y009006D01*
X015197Y009164D02*
X016479Y009164D01*
X016321Y009323D02*
X015197Y009323D01*
X015197Y009481D02*
X016240Y009481D01*
X016240Y009640D02*
X015197Y009640D01*
X015197Y009798D02*
X016240Y009798D01*
X016240Y009957D02*
X015197Y009957D01*
X015197Y010115D02*
X016240Y010115D01*
X016240Y010274D02*
X015197Y010274D01*
X015197Y010432D02*
X016240Y010432D01*
X016240Y010591D02*
X015197Y010591D01*
X015197Y010749D02*
X016329Y010749D01*
X016488Y010908D02*
X015197Y010908D01*
X014992Y011225D02*
X012485Y011225D01*
X012485Y011383D02*
X014992Y011383D01*
X014572Y011542D02*
X012485Y011542D01*
X012485Y011700D02*
X014368Y011700D01*
X014287Y011859D02*
X012485Y011859D01*
X012485Y012017D02*
X014260Y012017D01*
X014275Y012176D02*
X012485Y012176D01*
X012485Y012334D02*
X013684Y012334D01*
X013329Y012493D02*
X012485Y012493D01*
X012485Y012651D02*
X013174Y012651D01*
X013160Y012810D02*
X012485Y012810D01*
X012485Y012968D02*
X013160Y012968D01*
X013160Y013127D02*
X012485Y013127D01*
X012457Y013285D02*
X013160Y013285D01*
X013187Y013444D02*
X012326Y013444D01*
X012168Y013602D02*
X013365Y013602D01*
X013365Y013761D02*
X011315Y013761D01*
X011235Y013919D02*
X011613Y013919D01*
X011590Y014078D02*
X011235Y014078D01*
X011235Y014236D02*
X011590Y014236D01*
X011590Y014395D02*
X011235Y014395D01*
X011216Y014553D02*
X011590Y014553D01*
X011590Y014712D02*
X010929Y014712D01*
X010965Y014870D02*
X011603Y014870D01*
X011755Y015029D02*
X010959Y015029D01*
X010893Y015187D02*
X011226Y015187D01*
X011015Y015346D02*
X010750Y015346D01*
X010936Y015504D02*
X010253Y015504D01*
X010100Y015346D02*
X010095Y015346D01*
X009957Y015187D02*
X009936Y015187D01*
X009891Y015029D02*
X009778Y015029D01*
X009885Y014870D02*
X009619Y014870D01*
X009695Y014712D02*
X009416Y014712D01*
X009547Y014553D02*
X004265Y014553D01*
X004265Y014395D02*
X009535Y014395D01*
X009535Y014236D02*
X004265Y014236D01*
X004265Y014078D02*
X009535Y014078D01*
X009535Y013919D02*
X004265Y013919D01*
X004265Y013761D02*
X009535Y013761D01*
X009535Y013602D02*
X004265Y013602D01*
X004265Y013444D02*
X009535Y013444D01*
X009535Y013285D02*
X004265Y013285D01*
X004265Y013127D02*
X009535Y013127D01*
X009565Y012968D02*
X004265Y012968D01*
X004265Y012810D02*
X006776Y012810D01*
X006769Y012805D02*
X006736Y012772D01*
X006712Y012731D01*
X006700Y012685D01*
X006700Y012453D01*
X007127Y012453D01*
X007127Y012358D01*
X006700Y012358D01*
X006700Y012126D01*
X006705Y012106D01*
X006659Y012061D01*
X006620Y011965D01*
X006620Y011350D01*
X006659Y011254D01*
X006732Y011181D01*
X006828Y011142D01*
X006865Y011142D01*
X006865Y010970D01*
X006874Y010949D01*
X006865Y010940D01*
X006865Y010373D01*
X007266Y009972D01*
X007834Y009972D01*
X008197Y010335D01*
X008226Y010319D01*
X008271Y010306D01*
X008503Y010306D01*
X008503Y010734D01*
X008599Y010734D01*
X008599Y010306D01*
X008778Y010306D01*
X008760Y010264D01*
X008760Y010049D01*
X008842Y009851D01*
X008994Y009699D01*
X009193Y009617D01*
X009407Y009617D01*
X009606Y009699D01*
X009758Y009851D01*
X009840Y010049D01*
X009840Y010264D01*
X009792Y010380D01*
X009815Y010435D01*
X009815Y011075D01*
X010319Y011075D01*
X010402Y011109D01*
X010402Y010937D01*
X010415Y010891D01*
X010438Y010850D01*
X010472Y010817D01*
X010513Y010793D01*
X010559Y010781D01*
X010840Y010781D01*
X010840Y011139D01*
X010876Y011139D01*
X010876Y010781D01*
X011157Y010781D01*
X011203Y010793D01*
X011244Y010817D01*
X011278Y010850D01*
X011301Y010891D01*
X011314Y010937D01*
X011314Y011139D01*
X010877Y011139D01*
X010877Y011176D01*
X011314Y011176D01*
X011314Y011378D01*
X011301Y011424D01*
X011278Y011465D01*
X011262Y011480D01*
X011281Y011488D01*
X011354Y011561D01*
X011394Y011657D01*
X011394Y012154D01*
X011354Y012250D01*
X011281Y012323D01*
X011185Y012362D01*
X010531Y012362D01*
X010435Y012323D01*
X010435Y012323D01*
X010435Y012383D01*
X010357Y012570D01*
X010214Y012714D01*
X010026Y012792D01*
X009824Y012792D01*
X009756Y012763D01*
X009702Y012817D01*
X009607Y012856D01*
X008991Y012856D01*
X008925Y012829D01*
X008859Y012856D01*
X008243Y012856D01*
X008148Y012817D01*
X008075Y012744D01*
X008035Y012648D01*
X008035Y012559D01*
X007999Y012544D01*
X007749Y012294D01*
X007662Y012207D01*
X007650Y012178D01*
X007650Y012358D01*
X007223Y012358D01*
X007223Y012453D01*
X007650Y012453D01*
X007650Y012685D01*
X007638Y012731D01*
X007614Y012772D01*
X007581Y012805D01*
X007540Y012829D01*
X007494Y012841D01*
X007223Y012841D01*
X007223Y012454D01*
X007127Y012454D01*
X007127Y012841D01*
X006856Y012841D01*
X006810Y012829D01*
X006769Y012805D01*
X006700Y012651D02*
X004265Y012651D01*
X004265Y012493D02*
X006700Y012493D01*
X006700Y012334D02*
X004265Y012334D01*
X004265Y012176D02*
X006700Y012176D01*
X006641Y012017D02*
X004265Y012017D01*
X004265Y011859D02*
X006620Y011859D01*
X006620Y011700D02*
X004362Y011700D01*
X004521Y011542D02*
X006620Y011542D01*
X006620Y011383D02*
X004679Y011383D01*
X004838Y011225D02*
X006689Y011225D01*
X006865Y011066D02*
X004996Y011066D01*
X005155Y010908D02*
X006865Y010908D01*
X006865Y010749D02*
X005313Y010749D01*
X005472Y010591D02*
X006865Y010591D01*
X006865Y010432D02*
X005630Y010432D01*
X005789Y010274D02*
X006964Y010274D01*
X007123Y010115D02*
X005883Y010115D01*
X005890Y009957D02*
X008798Y009957D01*
X008760Y010115D02*
X007977Y010115D01*
X008136Y010274D02*
X008764Y010274D01*
X008599Y010432D02*
X008503Y010432D01*
X008503Y010591D02*
X008599Y010591D01*
X008599Y010829D02*
X008503Y010829D01*
X008503Y011257D01*
X008503Y011484D01*
X008599Y011484D01*
X008599Y010829D01*
X008599Y010908D02*
X008503Y010908D01*
X008503Y011066D02*
X008599Y011066D01*
X008599Y011225D02*
X008503Y011225D01*
X008503Y011383D02*
X008599Y011383D01*
X009815Y011066D02*
X010402Y011066D01*
X010410Y010908D02*
X009815Y010908D01*
X009815Y010749D02*
X011615Y010749D01*
X011615Y010591D02*
X009815Y010591D01*
X009814Y010432D02*
X011615Y010432D01*
X011615Y010274D02*
X009836Y010274D01*
X009840Y010115D02*
X011615Y010115D01*
X011615Y009957D02*
X010779Y009957D01*
X011049Y009798D02*
X011615Y009798D01*
X011615Y009640D02*
X011207Y009640D01*
X011274Y009481D02*
X011615Y009481D01*
X011615Y009323D02*
X011338Y009323D01*
X011338Y009164D02*
X011615Y009164D01*
X011615Y009006D02*
X011338Y009006D01*
X011280Y008847D02*
X011615Y008847D01*
X011628Y008689D02*
X011214Y008689D01*
X011064Y008530D02*
X011738Y008530D01*
X011897Y008372D02*
X010815Y008372D01*
X010800Y008213D02*
X012055Y008213D01*
X012214Y008055D02*
X010860Y008055D01*
X010860Y007896D02*
X012372Y007896D01*
X012531Y007738D02*
X010860Y007738D01*
X010860Y007579D02*
X012689Y007579D01*
X012848Y007421D02*
X010860Y007421D01*
X010860Y007262D02*
X013006Y007262D01*
X013221Y007104D02*
X010801Y007104D01*
X009923Y008372D02*
X009677Y008372D01*
X009911Y008530D02*
X007915Y008530D01*
X007915Y008484D02*
X007915Y008745D01*
X007903Y008791D01*
X007879Y008832D01*
X007846Y008866D01*
X007805Y008889D01*
X007759Y008901D01*
X007025Y008901D01*
X007025Y008484D01*
X006870Y008484D01*
X006870Y008329D01*
X005980Y008329D01*
X005980Y008068D01*
X005993Y008022D01*
X006016Y007981D01*
X006050Y007948D01*
X006091Y007924D01*
X006137Y007912D01*
X006870Y007912D01*
X006870Y008329D01*
X007025Y008329D01*
X007025Y008484D01*
X007915Y008484D01*
X008057Y008372D02*
X007025Y008372D01*
X006870Y008372D02*
X005890Y008372D01*
X005980Y008484D02*
X006870Y008484D01*
X006870Y008901D01*
X006137Y008901D01*
X006091Y008889D01*
X006050Y008866D01*
X006016Y008832D01*
X005993Y008791D01*
X005980Y008745D01*
X005980Y008484D01*
X005980Y008530D02*
X005890Y008530D01*
X005890Y008689D02*
X005980Y008689D01*
X006031Y008847D02*
X005890Y008847D01*
X005890Y009006D02*
X009637Y009006D01*
X009637Y009164D02*
X005890Y009164D01*
X005890Y009323D02*
X009637Y009323D01*
X009701Y009481D02*
X005890Y009481D01*
X005890Y009640D02*
X009137Y009640D01*
X008895Y009798D02*
X005890Y009798D01*
X005550Y010032D02*
X005550Y007282D01*
X006050Y006782D01*
X006050Y007262D02*
X007829Y007262D01*
X007820Y007421D02*
X005892Y007421D01*
X005890Y007579D02*
X007820Y007579D01*
X007820Y007738D02*
X005890Y007738D01*
X005890Y007896D02*
X007820Y007896D01*
X008280Y007896D02*
X008320Y007896D01*
X008320Y007738D02*
X008280Y007738D01*
X008280Y007579D02*
X008320Y007579D01*
X008320Y007421D02*
X008280Y007421D01*
X008280Y007262D02*
X008320Y007262D01*
X008320Y007104D02*
X008280Y007104D01*
X008280Y006945D02*
X008320Y006945D01*
X008320Y006787D02*
X008280Y006787D01*
X008280Y006628D02*
X008320Y006628D01*
X008320Y006470D02*
X008280Y006470D01*
X008280Y006311D02*
X008320Y006311D01*
X007820Y006311D02*
X007515Y006311D01*
X007515Y006153D02*
X007820Y006153D01*
X007820Y005994D02*
X007515Y005994D01*
X007515Y005836D02*
X007843Y005836D01*
X007820Y006470D02*
X007515Y006470D01*
X007503Y006628D02*
X007821Y006628D01*
X007866Y006787D02*
X007401Y006787D01*
X007242Y006945D02*
X007985Y006945D01*
X007890Y007104D02*
X007036Y007104D01*
X007025Y008055D02*
X006870Y008055D01*
X006870Y008213D02*
X007025Y008213D01*
X007025Y008530D02*
X006870Y008530D01*
X006870Y008689D02*
X007025Y008689D01*
X007025Y008847D02*
X006870Y008847D01*
X007864Y008847D02*
X009695Y008847D01*
X009761Y008689D02*
X007915Y008689D01*
X008280Y008372D02*
X008320Y008372D01*
X008320Y008213D02*
X008280Y008213D01*
X008280Y008055D02*
X008320Y008055D01*
X008707Y008213D02*
X008800Y008213D01*
X008923Y008372D02*
X008543Y008372D01*
X009463Y009640D02*
X009768Y009640D01*
X009705Y009798D02*
X009926Y009798D01*
X009802Y009957D02*
X010196Y009957D01*
X010840Y010908D02*
X010876Y010908D01*
X010876Y011066D02*
X010840Y011066D01*
X011314Y011066D02*
X011615Y011066D01*
X011615Y010908D02*
X011306Y010908D01*
X011314Y011225D02*
X011615Y011225D01*
X011615Y011383D02*
X011312Y011383D01*
X011334Y011542D02*
X011615Y011542D01*
X011615Y011700D02*
X011394Y011700D01*
X011394Y011859D02*
X011615Y011859D01*
X011615Y012017D02*
X011394Y012017D01*
X011385Y012176D02*
X011615Y012176D01*
X011615Y012334D02*
X011254Y012334D01*
X011325Y012493D02*
X010390Y012493D01*
X010435Y012334D02*
X010462Y012334D01*
X010277Y012651D02*
X011196Y012651D01*
X011135Y012810D02*
X009710Y012810D01*
X008140Y012810D02*
X007574Y012810D01*
X007650Y012651D02*
X008036Y012651D01*
X007948Y012493D02*
X007650Y012493D01*
X007650Y012334D02*
X007789Y012334D01*
X007223Y012493D02*
X007127Y012493D01*
X007127Y012651D02*
X007223Y012651D01*
X007223Y012810D02*
X007127Y012810D01*
X009300Y015032D02*
X003925Y015032D01*
X003675Y014782D01*
X003925Y014532D01*
X003925Y011657D01*
X005550Y010032D01*
X005210Y009798D02*
X004715Y009798D01*
X004715Y009640D02*
X005210Y009640D01*
X005210Y009481D02*
X004715Y009481D01*
X004715Y009323D02*
X005210Y009323D01*
X005210Y009164D02*
X004715Y009164D01*
X004715Y009006D02*
X005210Y009006D01*
X005210Y008847D02*
X005169Y008847D01*
X005200Y008689D02*
X005210Y008689D01*
X005200Y008530D02*
X005210Y008530D01*
X005200Y008372D02*
X005210Y008372D01*
X005200Y008213D02*
X005210Y008213D01*
X005200Y008055D02*
X005210Y008055D01*
X005210Y007896D02*
X005112Y007896D01*
X005890Y008055D02*
X005984Y008055D01*
X005980Y008213D02*
X005890Y008213D01*
X005256Y007104D02*
X004867Y007104D01*
X004942Y006945D02*
X005406Y006945D01*
X006598Y005235D02*
X007025Y005235D01*
X007025Y005003D01*
X007013Y004957D01*
X006989Y004916D01*
X006956Y004883D01*
X006915Y004859D01*
X006869Y004847D01*
X006598Y004847D01*
X006598Y005235D01*
X006598Y005202D02*
X006502Y005202D01*
X006502Y005043D02*
X006598Y005043D01*
X006598Y004885D02*
X006502Y004885D01*
X006142Y004885D02*
X005885Y004885D01*
X006044Y004726D02*
X007440Y004726D01*
X007440Y004885D02*
X006958Y004885D01*
X007025Y005043D02*
X007502Y005043D01*
X007149Y005202D02*
X007025Y005202D01*
X007483Y004568D02*
X006194Y004568D01*
X006286Y004409D02*
X007581Y004409D01*
X006896Y004251D02*
X006305Y004251D01*
X006305Y004092D02*
X006722Y004092D01*
X006563Y003934D02*
X006305Y003934D01*
X006305Y003775D02*
X006405Y003775D01*
X007140Y002983D02*
X007564Y002983D01*
X007555Y002966D02*
X007532Y002894D01*
X007520Y002819D01*
X007520Y002802D01*
X008280Y002802D01*
X008280Y002762D01*
X007520Y002762D01*
X007520Y002744D01*
X007532Y002669D01*
X007555Y002597D01*
X007589Y002532D01*
X006689Y002532D01*
X006758Y002601D01*
X007399Y003242D01*
X007840Y003242D01*
X007850Y003238D01*
X007816Y003226D01*
X007748Y003192D01*
X007687Y003148D01*
X007634Y003094D01*
X007589Y003033D01*
X007555Y002966D01*
X007521Y002824D02*
X006981Y002824D01*
X006823Y002666D02*
X007533Y002666D01*
X007681Y003141D02*
X007298Y003141D01*
X006758Y002601D02*
X006758Y002601D01*
X008320Y002762D02*
X008320Y002802D01*
X009655Y002802D01*
X009655Y002762D01*
X008895Y002762D01*
X008320Y002762D01*
X009695Y002762D02*
X009695Y002802D01*
X011030Y002802D01*
X011030Y002762D01*
X010270Y002762D01*
X009695Y002762D01*
X011070Y002762D02*
X011070Y002802D01*
X012405Y002802D01*
X012405Y002762D01*
X011645Y002762D01*
X011070Y002762D01*
X012445Y002762D02*
X012445Y002802D01*
X013780Y002802D01*
X013780Y002762D01*
X013020Y002762D01*
X012445Y002762D01*
X013820Y002762D02*
X013820Y002802D01*
X015155Y002802D01*
X015155Y002762D01*
X014580Y002762D01*
X013820Y002762D01*
X015195Y002762D02*
X015195Y002802D01*
X015955Y002802D01*
X015955Y002819D01*
X015943Y002894D01*
X015920Y002966D01*
X015886Y003033D01*
X015841Y003094D01*
X015788Y003148D01*
X015727Y003192D01*
X015659Y003226D01*
X015625Y003238D01*
X015635Y003242D01*
X016157Y003242D01*
X016356Y003324D01*
X016508Y003476D01*
X017052Y004020D01*
X017098Y004001D01*
X017752Y004001D01*
X017798Y004020D01*
X018342Y003476D01*
X018342Y003476D01*
X018494Y003324D01*
X018693Y003242D01*
X019215Y003242D01*
X019225Y003238D01*
X019191Y003226D01*
X019123Y003192D01*
X019062Y003148D01*
X019009Y003094D01*
X018964Y003033D01*
X018930Y002966D01*
X018907Y002894D01*
X018895Y002819D01*
X018895Y002802D01*
X019655Y002802D01*
X019655Y002762D01*
X018895Y002762D01*
X018895Y002744D01*
X018907Y002669D01*
X018930Y002597D01*
X018964Y002532D01*
X017881Y002532D01*
X017881Y002904D01*
X017483Y002904D01*
X017483Y003019D01*
X017881Y003019D01*
X017881Y003576D01*
X017868Y003622D01*
X017845Y003663D01*
X017811Y003696D01*
X017770Y003720D01*
X017724Y003732D01*
X017483Y003732D01*
X017483Y003019D01*
X017367Y003019D01*
X017367Y002904D01*
X016969Y002904D01*
X016969Y002532D01*
X015886Y002532D01*
X015920Y002597D01*
X015943Y002669D01*
X015955Y002744D01*
X015955Y002762D01*
X015195Y002762D01*
X015794Y003141D02*
X016969Y003141D01*
X016969Y003019D02*
X017367Y003019D01*
X017367Y003732D01*
X017126Y003732D01*
X017080Y003720D01*
X017039Y003696D01*
X017005Y003663D01*
X016982Y003622D01*
X016969Y003576D01*
X016969Y003019D01*
X016969Y002824D02*
X015954Y002824D01*
X015942Y002666D02*
X016969Y002666D01*
X017367Y002983D02*
X015911Y002983D01*
X016297Y003300D02*
X016969Y003300D01*
X016969Y003458D02*
X016490Y003458D01*
X016508Y003476D02*
X016508Y003476D01*
X016649Y003617D02*
X016980Y003617D01*
X016807Y003775D02*
X018043Y003775D01*
X018201Y003617D02*
X017870Y003617D01*
X017881Y003458D02*
X018360Y003458D01*
X018553Y003300D02*
X017881Y003300D01*
X017881Y003141D02*
X019056Y003141D01*
X018939Y002983D02*
X017483Y002983D01*
X017483Y003141D02*
X017367Y003141D01*
X017367Y003300D02*
X017483Y003300D01*
X017483Y003458D02*
X017367Y003458D01*
X017367Y003617D02*
X017483Y003617D01*
X017884Y003934D02*
X016966Y003934D01*
X016072Y004568D02*
X015992Y004568D01*
X016035Y004670D02*
X015950Y004464D01*
X015807Y004322D01*
X015826Y004322D01*
X016592Y005087D01*
X016744Y005239D01*
X016889Y005300D01*
X016889Y005494D01*
X016929Y005589D01*
X017002Y005662D01*
X017098Y005702D01*
X017752Y005702D01*
X017848Y005662D01*
X017921Y005589D01*
X017961Y005494D01*
X017961Y005300D01*
X018106Y005239D01*
X018258Y005087D01*
X019024Y004322D01*
X019043Y004322D01*
X018900Y004464D01*
X018815Y004670D01*
X018815Y004893D01*
X018899Y005097D01*
X018613Y005097D01*
X018499Y005144D01*
X018412Y005231D01*
X017292Y006351D01*
X017254Y006443D01*
X017090Y006443D01*
X016994Y006482D01*
X016954Y006523D01*
X016925Y006523D01*
X016925Y006552D01*
X016925Y006552D01*
X016925Y006552D01*
X016925Y006523D01*
X016920Y006523D01*
X016920Y006280D01*
X016873Y006166D01*
X015878Y005171D01*
X015950Y005099D01*
X016035Y004893D01*
X016035Y004670D01*
X016035Y004726D02*
X016231Y004726D01*
X016389Y004885D02*
X016035Y004885D01*
X015973Y005043D02*
X016548Y005043D01*
X016706Y005202D02*
X015908Y005202D01*
X016067Y005360D02*
X016889Y005360D01*
X016900Y005519D02*
X016225Y005519D01*
X016384Y005677D02*
X017038Y005677D01*
X016701Y005994D02*
X017649Y005994D01*
X017491Y006153D02*
X016859Y006153D01*
X016920Y006311D02*
X017332Y006311D01*
X017025Y006470D02*
X016920Y006470D01*
X016542Y005836D02*
X017808Y005836D01*
X017812Y005677D02*
X017966Y005677D01*
X017950Y005519D02*
X018125Y005519D01*
X018283Y005360D02*
X017961Y005360D01*
X018144Y005202D02*
X018442Y005202D01*
X018302Y005043D02*
X018877Y005043D01*
X018815Y004885D02*
X018461Y004885D01*
X018619Y004726D02*
X018815Y004726D01*
X018778Y004568D02*
X018858Y004568D01*
X018936Y004409D02*
X018956Y004409D01*
X018896Y002824D02*
X017881Y002824D01*
X017881Y002666D02*
X018908Y002666D01*
X019695Y002762D02*
X019695Y002802D01*
X021030Y002802D01*
X021030Y002762D01*
X020270Y002762D01*
X019695Y002762D01*
X021070Y002762D02*
X021070Y002802D01*
X022405Y002802D01*
X022405Y002762D01*
X021645Y002762D01*
X021070Y002762D01*
X022445Y002762D02*
X022445Y002802D01*
X023780Y002802D01*
X023780Y002762D01*
X023020Y002762D01*
X022445Y002762D01*
X023820Y002762D02*
X023820Y002802D01*
X025155Y002802D01*
X025155Y002762D01*
X024580Y002762D01*
X023820Y002762D01*
X025195Y002762D02*
X025195Y002802D01*
X026530Y002802D01*
X026530Y002762D01*
X025770Y002762D01*
X025195Y002762D01*
X026570Y002762D02*
X026570Y002802D01*
X027330Y002802D01*
X027330Y002819D01*
X027318Y002894D01*
X027295Y002966D01*
X027261Y003033D01*
X027216Y003094D01*
X027163Y003148D01*
X027102Y003192D01*
X027034Y003226D01*
X027000Y003238D01*
X027167Y003307D01*
X027325Y003464D01*
X027410Y003670D01*
X027410Y003893D01*
X027325Y004099D01*
X027167Y004256D01*
X027106Y004282D01*
X027167Y004307D01*
X027325Y004464D01*
X027410Y004670D01*
X027410Y004893D01*
X027325Y005099D01*
X027167Y005256D01*
X026961Y005342D01*
X026803Y005342D01*
X026351Y005794D01*
X026237Y005842D01*
X024303Y005842D01*
X023976Y006169D01*
X023862Y006217D01*
X023053Y006217D01*
X022351Y006919D01*
X022237Y006967D01*
X020428Y006967D01*
X020360Y007035D01*
X020360Y008222D01*
X022237Y008222D01*
X022351Y008269D01*
X022438Y008356D01*
X022485Y008470D01*
X022485Y008593D01*
X022438Y008707D01*
X022351Y008794D01*
X022237Y008842D01*
X021105Y008842D01*
X021105Y009340D01*
X021078Y009407D01*
X021105Y009472D01*
X022487Y009472D01*
X022601Y009519D01*
X023438Y010356D01*
X023485Y010470D01*
X023485Y012300D01*
X023490Y012305D01*
X023490Y010285D01*
X022537Y009332D01*
X022490Y009218D01*
X022490Y009095D01*
X022537Y008981D01*
X022624Y008894D01*
X022738Y008847D01*
X022862Y008847D01*
X022976Y008894D01*
X024063Y009981D01*
X024110Y010095D01*
X024110Y014218D01*
X024063Y014332D01*
X023563Y014832D01*
X023476Y014919D01*
X023362Y014967D01*
X022178Y014967D01*
X021688Y015457D01*
X021601Y015544D01*
X021487Y015592D01*
X019863Y015592D01*
X019749Y015544D01*
X019230Y015025D01*
X019230Y015465D01*
X019191Y015561D01*
X019145Y015606D01*
X019150Y015626D01*
X019150Y015976D01*
X018743Y015976D01*
X018743Y016111D01*
X019150Y016111D01*
X019150Y016461D01*
X019138Y016507D01*
X019114Y016548D01*
X019081Y016581D01*
X019040Y016605D01*
X018994Y016617D01*
X018743Y016617D01*
X018743Y016111D01*
X018607Y016111D01*
X018607Y015976D01*
X018200Y015976D01*
X018200Y015738D01*
X017618Y016320D01*
X017493Y016372D01*
X011765Y016372D01*
X011765Y016530D01*
X011900Y016664D01*
X011925Y016725D01*
X011950Y016664D01*
X012108Y016507D01*
X012314Y016422D01*
X012536Y016422D01*
X012742Y016507D01*
X012900Y016664D01*
X012925Y016725D01*
X012950Y016664D01*
X013108Y016507D01*
X013314Y016422D01*
X013536Y016422D01*
X013742Y016507D01*
X013900Y016664D01*
X013969Y016832D01*
X013980Y016797D01*
X014014Y016730D01*
X014059Y016669D01*
X014112Y016615D01*
X014173Y016571D01*
X014241Y016537D01*
X014313Y016513D01*
X014387Y016502D01*
X014405Y016502D01*
X014405Y017262D01*
X014445Y017262D01*
X014445Y017302D01*
X014405Y017302D01*
X014405Y018062D01*
X014387Y018062D01*
X014313Y018050D01*
X014241Y018026D01*
X014173Y017992D01*
X014112Y017948D01*
X014059Y017894D01*
X014014Y017833D01*
X013980Y017766D01*
X013969Y017731D01*
X013900Y017899D01*
X013742Y018056D01*
X013735Y018059D01*
X013735Y018218D01*
X013688Y018332D01*
X013601Y018419D01*
X013423Y018597D01*
X013657Y018597D01*
X013664Y018604D01*
X013912Y018356D01*
X013999Y018269D01*
X014113Y018222D01*
X014547Y018222D01*
X015136Y017632D01*
X015092Y017587D01*
X015010Y017389D01*
X015010Y017174D01*
X015092Y016976D01*
X015244Y016824D01*
X015443Y016742D01*
X015657Y016742D01*
X015856Y016824D01*
X015921Y016889D01*
X015950Y016819D01*
X016023Y016746D01*
X016118Y016707D01*
X016734Y016707D01*
X016800Y016734D01*
X016866Y016707D01*
X017482Y016707D01*
X017577Y016746D01*
X017631Y016800D01*
X017699Y016772D01*
X017901Y016772D01*
X018089Y016849D01*
X018232Y016993D01*
X018310Y017180D01*
X018310Y017222D01*
X020987Y017222D01*
X021101Y017269D01*
X021188Y017356D01*
X021313Y017481D01*
X021350Y017571D01*
X021356Y017574D01*
X021508Y017726D01*
X021590Y017924D01*
X021590Y018139D01*
X021508Y018337D01*
X021356Y018489D01*
X021350Y018492D01*
X021313Y018582D01*
X021226Y018669D01*
X021101Y018794D01*
X020987Y018842D01*
X020877Y018842D01*
X020910Y018920D01*
X020910Y019143D01*
X020825Y019349D01*
X020667Y019506D01*
X020606Y019532D01*
X020667Y019557D01*
X020825Y019714D01*
X020910Y019920D01*
X020910Y020143D01*
X020825Y020349D01*
X020667Y020506D01*
X020461Y020592D01*
X019639Y020592D01*
X019433Y020506D01*
X019385Y020458D01*
X019383Y020462D01*
X019231Y020614D01*
X019032Y020697D01*
X018818Y020697D01*
X018619Y020614D01*
X018467Y020462D01*
X018465Y020457D01*
X018465Y020639D01*
X018429Y020725D01*
X018546Y020725D01*
X018562Y020732D01*
X018578Y020725D01*
X018801Y020725D01*
X018818Y020732D01*
X018834Y020725D01*
X019057Y020725D01*
X019153Y020765D01*
X019193Y020805D01*
X019202Y020805D01*
X019285Y020805D01*
X019331Y020818D01*
X019372Y020841D01*
X019406Y020875D01*
X019429Y020916D01*
X019442Y020962D01*
X019442Y021180D01*
X019266Y021180D01*
X019266Y021180D01*
X019442Y021180D01*
X019442Y021222D01*
X019797Y021222D01*
X020249Y020769D01*
X020363Y020722D01*
X021172Y020722D01*
X021740Y020153D01*
X021740Y019345D01*
X021787Y019231D01*
X021874Y019144D01*
X022740Y018278D01*
X022740Y016860D01*
X022592Y016712D01*
X022510Y016514D01*
X022510Y016299D01*
X022592Y016101D01*
X022744Y015949D01*
X022943Y015867D01*
X023157Y015867D01*
X023356Y015949D01*
X023508Y016101D01*
X023590Y016299D01*
X023590Y016514D01*
X023508Y016712D01*
X023360Y016860D01*
X023360Y018468D01*
X023313Y018582D01*
X022360Y019535D01*
X022360Y020343D01*
X022313Y020457D01*
X021706Y021064D01*
X021731Y021074D01*
X021883Y021226D01*
X021965Y021424D01*
X021965Y021449D01*
X021982Y021442D01*
X022223Y021442D01*
X022443Y021222D01*
X022504Y021222D01*
X023710Y020016D01*
X023710Y015026D01*
X023762Y014901D01*
X024148Y014516D01*
X024148Y011276D01*
X024199Y011151D01*
X024544Y010806D01*
X024535Y010784D01*
X024535Y010529D01*
X024632Y010294D01*
X024770Y010157D01*
X024632Y010019D01*
X024535Y009784D01*
X024535Y009529D01*
X024632Y009294D01*
X024770Y009157D01*
X024632Y009019D01*
X024535Y008784D01*
X024535Y008529D01*
X024632Y008294D01*
X024770Y008157D01*
X024632Y008019D01*
X024535Y007784D01*
X024535Y007529D01*
X024632Y007294D01*
X024812Y007114D01*
X024838Y007104D01*
X024810Y007084D01*
X024748Y007021D01*
X024696Y006950D01*
X024656Y006871D01*
X024629Y006788D01*
X024615Y006701D01*
X024615Y006657D01*
X025175Y006657D01*
X025735Y006657D01*
X025735Y006701D01*
X025721Y006788D01*
X025694Y006871D01*
X025654Y006950D01*
X025602Y007021D01*
X025540Y007084D01*
X025512Y007104D01*
X025538Y007114D01*
X025718Y007294D01*
X025815Y007529D01*
X025815Y007784D01*
X025718Y008019D01*
X025580Y008157D01*
X025718Y008294D01*
X025815Y008529D01*
X025815Y008784D01*
X025718Y009019D01*
X025580Y009157D01*
X025718Y009294D01*
X025791Y009472D01*
X026002Y009472D01*
X026002Y009860D01*
X026098Y009860D01*
X026098Y009472D01*
X026369Y009472D01*
X026415Y009484D01*
X026456Y009508D01*
X026460Y009512D01*
X026460Y007580D01*
X026342Y007462D01*
X026260Y007264D01*
X026260Y007049D01*
X026342Y006851D01*
X026494Y006699D01*
X026693Y006617D01*
X026907Y006617D01*
X027106Y006699D01*
X027175Y006768D01*
X027175Y006657D01*
X027425Y006407D01*
X027425Y002532D01*
X027261Y002532D01*
X027295Y002597D01*
X027318Y002669D01*
X027330Y002744D01*
X027330Y002762D01*
X026570Y002762D01*
X027169Y003141D02*
X027425Y003141D01*
X027425Y002983D02*
X027286Y002983D01*
X027329Y002824D02*
X027425Y002824D01*
X027425Y002666D02*
X027317Y002666D01*
X027425Y003300D02*
X027150Y003300D01*
X027318Y003458D02*
X027425Y003458D01*
X027425Y003617D02*
X027388Y003617D01*
X027410Y003775D02*
X027425Y003775D01*
X027425Y003934D02*
X027393Y003934D01*
X027425Y004092D02*
X027328Y004092D01*
X027425Y004251D02*
X027173Y004251D01*
X027269Y004409D02*
X027425Y004409D01*
X027425Y004568D02*
X027367Y004568D01*
X027410Y004726D02*
X027425Y004726D01*
X027410Y004885D02*
X027425Y004885D01*
X027425Y005043D02*
X027348Y005043D01*
X027425Y005202D02*
X027222Y005202D01*
X027425Y005360D02*
X026785Y005360D01*
X026626Y005519D02*
X027425Y005519D01*
X027425Y005677D02*
X026468Y005677D01*
X026251Y005836D02*
X027425Y005836D01*
X027425Y005994D02*
X024151Y005994D01*
X023992Y006153D02*
X024931Y006153D01*
X024960Y006138D02*
X025044Y006110D01*
X025131Y006097D01*
X025175Y006097D01*
X025219Y006097D01*
X025306Y006110D01*
X025390Y006138D01*
X025469Y006178D01*
X025540Y006229D01*
X025602Y006292D01*
X025654Y006363D01*
X025694Y006442D01*
X025721Y006525D01*
X025735Y006612D01*
X025735Y006657D01*
X025175Y006657D01*
X025175Y006657D01*
X025175Y006657D01*
X024615Y006657D01*
X024615Y006612D01*
X024629Y006525D01*
X024656Y006442D01*
X024696Y006363D01*
X024748Y006292D01*
X024810Y006229D01*
X024881Y006178D01*
X024960Y006138D01*
X025175Y006153D02*
X025175Y006153D01*
X025175Y006097D02*
X025175Y006657D01*
X025175Y006657D01*
X025175Y006097D01*
X025175Y006311D02*
X025175Y006311D01*
X025175Y006470D02*
X025175Y006470D01*
X025175Y006628D02*
X025175Y006628D01*
X024734Y006311D02*
X022959Y006311D01*
X022800Y006470D02*
X024647Y006470D01*
X024615Y006628D02*
X022642Y006628D01*
X022483Y006787D02*
X024629Y006787D01*
X024693Y006945D02*
X022289Y006945D01*
X022444Y008372D02*
X024600Y008372D01*
X024535Y008530D02*
X022485Y008530D01*
X022446Y008689D02*
X024535Y008689D01*
X024561Y008847D02*
X022863Y008847D01*
X022737Y008847D02*
X021105Y008847D01*
X021105Y009006D02*
X022527Y009006D01*
X022490Y009164D02*
X021105Y009164D01*
X021105Y009323D02*
X022533Y009323D01*
X022510Y009481D02*
X022686Y009481D01*
X022721Y009640D02*
X022845Y009640D01*
X022880Y009798D02*
X023003Y009798D01*
X023038Y009957D02*
X023162Y009957D01*
X023197Y010115D02*
X023320Y010115D01*
X023355Y010274D02*
X023479Y010274D01*
X023469Y010432D02*
X023490Y010432D01*
X023485Y010591D02*
X023490Y010591D01*
X023485Y010749D02*
X023490Y010749D01*
X023485Y010908D02*
X023490Y010908D01*
X023485Y011066D02*
X023490Y011066D01*
X023485Y011225D02*
X023490Y011225D01*
X023485Y011383D02*
X023490Y011383D01*
X023485Y011542D02*
X023490Y011542D01*
X023485Y011700D02*
X023490Y011700D01*
X023485Y011859D02*
X023490Y011859D01*
X023485Y012017D02*
X023490Y012017D01*
X023485Y012176D02*
X023490Y012176D01*
X024110Y012176D02*
X024148Y012176D01*
X024148Y012334D02*
X024110Y012334D01*
X024110Y012493D02*
X024148Y012493D01*
X024148Y012651D02*
X024110Y012651D01*
X024110Y012810D02*
X024148Y012810D01*
X024148Y012968D02*
X024110Y012968D01*
X024110Y013127D02*
X024148Y013127D01*
X024148Y013285D02*
X024110Y013285D01*
X024110Y013444D02*
X024148Y013444D01*
X024148Y013602D02*
X024110Y013602D01*
X024110Y013761D02*
X024148Y013761D01*
X024148Y013919D02*
X024110Y013919D01*
X024110Y014078D02*
X024148Y014078D01*
X024148Y014236D02*
X024103Y014236D01*
X024148Y014395D02*
X024000Y014395D01*
X024110Y014553D02*
X023842Y014553D01*
X023952Y014712D02*
X023683Y014712D01*
X023793Y014870D02*
X023525Y014870D01*
X023710Y015029D02*
X022116Y015029D01*
X021958Y015187D02*
X023710Y015187D01*
X023710Y015346D02*
X021799Y015346D01*
X021641Y015504D02*
X023710Y015504D01*
X023710Y015663D02*
X019150Y015663D01*
X019150Y015821D02*
X023710Y015821D01*
X023710Y015980D02*
X023387Y015980D01*
X023523Y016138D02*
X023710Y016138D01*
X023710Y016297D02*
X023589Y016297D01*
X023590Y016455D02*
X023710Y016455D01*
X023710Y016614D02*
X023549Y016614D01*
X023448Y016772D02*
X023710Y016772D01*
X023710Y016931D02*
X023360Y016931D01*
X023360Y017089D02*
X023710Y017089D01*
X023710Y017248D02*
X023360Y017248D01*
X023360Y017406D02*
X023710Y017406D01*
X023710Y017565D02*
X023360Y017565D01*
X023360Y017723D02*
X023710Y017723D01*
X023710Y017882D02*
X023360Y017882D01*
X023360Y018040D02*
X023710Y018040D01*
X023710Y018199D02*
X023360Y018199D01*
X023360Y018357D02*
X023710Y018357D01*
X023710Y018516D02*
X023340Y018516D01*
X023221Y018674D02*
X023710Y018674D01*
X023710Y018833D02*
X023062Y018833D01*
X022904Y018991D02*
X023710Y018991D01*
X023710Y019150D02*
X022745Y019150D01*
X022587Y019308D02*
X023710Y019308D01*
X023710Y019467D02*
X022428Y019467D01*
X022360Y019625D02*
X023710Y019625D01*
X023710Y019784D02*
X022360Y019784D01*
X022360Y019942D02*
X023710Y019942D01*
X023625Y020101D02*
X022360Y020101D01*
X022360Y020259D02*
X023467Y020259D01*
X023308Y020418D02*
X022329Y020418D01*
X022194Y020576D02*
X023150Y020576D01*
X022991Y020735D02*
X022035Y020735D01*
X021877Y020893D02*
X022833Y020893D01*
X022674Y021052D02*
X021718Y021052D01*
X021867Y021210D02*
X022516Y021210D01*
X022296Y021369D02*
X021942Y021369D01*
X022050Y021782D02*
X021800Y022032D01*
X021800Y022532D01*
X021550Y022782D01*
X021800Y023032D01*
X021800Y023407D01*
X022050Y023657D01*
X027300Y023657D01*
X027800Y023157D01*
X028202Y022795D02*
X028780Y022795D01*
X028780Y022802D02*
X028780Y022762D01*
X028320Y022762D01*
X028320Y022592D01*
X028238Y022592D01*
X028124Y022544D01*
X028037Y022457D01*
X027985Y022405D01*
X027985Y022528D01*
X028063Y022606D01*
X028100Y022696D01*
X028106Y022699D01*
X028258Y022851D01*
X028340Y023049D01*
X028340Y023264D01*
X028258Y023462D01*
X028106Y023614D01*
X027907Y023697D01*
X027741Y023697D01*
X027656Y023782D01*
X033660Y023782D01*
X033660Y011282D01*
X027175Y011282D01*
X027175Y007545D01*
X027140Y007580D01*
X027140Y010474D01*
X027088Y010599D01*
X026838Y010849D01*
X026743Y010945D01*
X026618Y010997D01*
X026591Y010997D01*
X026566Y011059D01*
X026493Y011132D01*
X026397Y011171D01*
X025703Y011171D01*
X025607Y011132D01*
X025606Y011131D01*
X025538Y011199D01*
X025302Y011297D01*
X025048Y011297D01*
X025025Y011287D01*
X024827Y011485D01*
X024827Y012660D01*
X024884Y012637D01*
X025069Y012637D01*
X025687Y012019D01*
X025801Y011972D01*
X026862Y011972D01*
X026976Y012019D01*
X027063Y012106D01*
X027252Y012295D01*
X027259Y012298D01*
X027287Y012231D01*
X027537Y011981D01*
X027624Y011894D01*
X027738Y011847D01*
X028987Y011847D01*
X029101Y011894D01*
X029726Y012519D01*
X029813Y012606D01*
X029860Y012720D01*
X029860Y013653D01*
X030385Y014178D01*
X030385Y013950D01*
X030425Y013854D01*
X030498Y013781D01*
X030593Y013742D01*
X032257Y013742D01*
X032352Y013781D01*
X032425Y013854D01*
X032465Y013950D01*
X032465Y015613D01*
X032425Y015709D01*
X032352Y015782D01*
X032257Y015822D01*
X030593Y015822D01*
X030498Y015782D01*
X030425Y015709D01*
X030385Y015613D01*
X030385Y015049D01*
X030374Y015044D01*
X030287Y014957D01*
X029374Y014044D01*
X029287Y013957D01*
X029240Y013843D01*
X029240Y012910D01*
X028797Y012467D01*
X028342Y012467D01*
X028348Y012477D01*
X028360Y012523D01*
X028360Y012947D01*
X028360Y013370D01*
X028348Y013416D01*
X028324Y013457D01*
X028291Y013491D01*
X028249Y013514D01*
X028204Y013527D01*
X028050Y013527D01*
X027896Y013527D01*
X027874Y013520D01*
X027827Y013567D01*
X027732Y013607D01*
X027368Y013607D01*
X027300Y013578D01*
X027232Y013607D01*
X026868Y013607D01*
X026800Y013578D01*
X026732Y013607D01*
X026368Y013607D01*
X026301Y013579D01*
X026282Y013597D01*
X026091Y013677D01*
X025884Y013677D01*
X025693Y013597D01*
X025547Y013451D01*
X025487Y013308D01*
X025428Y013451D01*
X025282Y013597D01*
X025091Y013677D01*
X024884Y013677D01*
X024827Y013653D01*
X024827Y014347D01*
X025237Y014347D01*
X025351Y014394D01*
X026053Y015097D01*
X026160Y015097D01*
X026160Y014915D01*
X026200Y014819D01*
X026273Y014746D01*
X026368Y014707D01*
X026732Y014707D01*
X026800Y014735D01*
X026868Y014707D01*
X027232Y014707D01*
X027300Y014735D01*
X027368Y014707D01*
X027732Y014707D01*
X027800Y014735D01*
X027868Y014707D01*
X028232Y014707D01*
X028327Y014746D01*
X028400Y014819D01*
X028440Y014915D01*
X028440Y015818D01*
X028400Y015914D01*
X028360Y015954D01*
X028360Y016203D01*
X028508Y016351D01*
X028590Y016549D01*
X028590Y016764D01*
X028508Y016962D01*
X028356Y017114D01*
X028157Y017197D01*
X027943Y017197D01*
X027744Y017114D01*
X027592Y016962D01*
X027510Y016764D01*
X027510Y016697D01*
X027448Y016697D01*
X027235Y016910D01*
X027235Y017593D01*
X027188Y017707D01*
X027101Y017794D01*
X026757Y018138D01*
X026643Y018185D01*
X026553Y018185D01*
X026553Y018266D01*
X026524Y018338D01*
X026930Y018338D01*
X027287Y017981D01*
X027374Y017894D01*
X027488Y017847D01*
X028377Y017847D01*
X028377Y017778D01*
X028384Y017752D01*
X028377Y017726D01*
X028377Y017624D01*
X028377Y017522D01*
X028384Y017496D01*
X028377Y017471D01*
X028377Y017368D01*
X028377Y017266D01*
X028389Y017220D01*
X028413Y017179D01*
X028446Y017145D01*
X028487Y017122D01*
X028533Y017109D01*
X028852Y017109D01*
X028852Y017368D01*
X028852Y017368D01*
X028852Y017109D01*
X029171Y017109D01*
X029217Y017122D01*
X029258Y017145D01*
X029291Y017179D01*
X029315Y017220D01*
X029327Y017266D01*
X029327Y017368D01*
X029182Y017368D01*
X029327Y017368D01*
X029327Y017471D01*
X029321Y017496D01*
X029327Y017522D01*
X029327Y017624D01*
X029182Y017624D01*
X029182Y017624D01*
X029327Y017624D01*
X029327Y017726D01*
X029321Y017752D01*
X029327Y017778D01*
X029327Y017861D01*
X029363Y017847D01*
X029596Y017847D01*
X029744Y017699D01*
X029943Y017617D01*
X030157Y017617D01*
X030356Y017699D01*
X030508Y017851D01*
X030590Y018049D01*
X030590Y018264D01*
X030508Y018462D01*
X030356Y018614D01*
X030157Y018697D01*
X030090Y018697D01*
X030090Y018764D01*
X030008Y018962D01*
X029856Y019114D01*
X029743Y019161D01*
X031303Y020722D01*
X032112Y020722D01*
X032226Y020769D01*
X032678Y021222D01*
X033032Y021222D01*
X033360Y021550D01*
X033360Y022013D01*
X033092Y022282D01*
X033360Y022550D01*
X033360Y023013D01*
X033032Y023342D01*
X032568Y023342D01*
X032300Y023073D01*
X032032Y023342D01*
X031568Y023342D01*
X031300Y023073D01*
X031032Y023342D01*
X030678Y023342D01*
X030476Y023544D01*
X030362Y023592D01*
X029488Y023592D01*
X029374Y023544D01*
X029287Y023457D01*
X029045Y023215D01*
X028999Y023262D01*
X028820Y023262D01*
X028820Y022802D01*
X028780Y022802D01*
X028780Y023262D01*
X028601Y023262D01*
X028320Y022980D01*
X028320Y022802D01*
X028780Y022802D01*
X028780Y022954D02*
X028820Y022954D01*
X028820Y023112D02*
X028780Y023112D01*
X028452Y023112D02*
X028340Y023112D01*
X028337Y023271D02*
X029101Y023271D01*
X029259Y023429D02*
X028272Y023429D01*
X028133Y023588D02*
X029479Y023588D01*
X030371Y023588D02*
X033660Y023588D01*
X033660Y023746D02*
X027691Y023746D01*
X028300Y022954D02*
X028320Y022954D01*
X028320Y022637D02*
X028075Y022637D01*
X028058Y022478D02*
X027985Y022478D01*
X030591Y023429D02*
X033660Y023429D01*
X033660Y023271D02*
X033103Y023271D01*
X033261Y023112D02*
X033660Y023112D01*
X033660Y022954D02*
X033360Y022954D01*
X033360Y022795D02*
X033660Y022795D01*
X033660Y022637D02*
X033360Y022637D01*
X033288Y022478D02*
X033660Y022478D01*
X033660Y022320D02*
X033130Y022320D01*
X033212Y022161D02*
X033660Y022161D01*
X033660Y022003D02*
X033360Y022003D01*
X033360Y021844D02*
X033660Y021844D01*
X033660Y021686D02*
X033360Y021686D01*
X033337Y021527D02*
X033660Y021527D01*
X033660Y021369D02*
X033179Y021369D01*
X033660Y021210D02*
X032667Y021210D01*
X032508Y021052D02*
X033660Y021052D01*
X033660Y020893D02*
X032350Y020893D01*
X032143Y020735D02*
X033660Y020735D01*
X033660Y020576D02*
X031158Y020576D01*
X030999Y020418D02*
X033660Y020418D01*
X033660Y020259D02*
X030841Y020259D01*
X030682Y020101D02*
X033660Y020101D01*
X033660Y019942D02*
X032376Y019942D01*
X032532Y019878D02*
X032219Y020007D01*
X031881Y020007D01*
X031568Y019878D01*
X031329Y019638D01*
X031199Y019326D01*
X031199Y018987D01*
X031329Y018675D01*
X031568Y018435D01*
X031881Y018306D01*
X032219Y018306D01*
X032532Y018435D01*
X032771Y018675D01*
X032901Y018987D01*
X032901Y019326D01*
X032771Y019638D01*
X032532Y019878D01*
X032626Y019784D02*
X033660Y019784D01*
X033660Y019625D02*
X032777Y019625D01*
X032925Y019657D02*
X032675Y019907D01*
X032925Y019657D02*
X032925Y017782D01*
X033660Y017723D02*
X032155Y017723D01*
X032149Y017738D02*
X032096Y017830D01*
X032032Y017913D01*
X031957Y017988D01*
X031873Y018052D01*
X031782Y018105D01*
X031684Y018145D01*
X031582Y018173D01*
X031505Y018183D01*
X031505Y017462D01*
X031345Y017462D01*
X031345Y018183D01*
X031268Y018173D01*
X031166Y018145D01*
X031068Y018105D01*
X030977Y018052D01*
X030893Y017988D01*
X030818Y017913D01*
X030754Y017830D01*
X030701Y017738D01*
X030661Y017641D01*
X030634Y017539D01*
X030624Y017462D01*
X031345Y017462D01*
X031345Y017302D01*
X030624Y017302D01*
X030634Y017224D01*
X030661Y017122D01*
X030701Y017025D01*
X030754Y016933D01*
X030818Y016850D01*
X030893Y016775D01*
X030977Y016711D01*
X031068Y016658D01*
X031166Y016618D01*
X031268Y016590D01*
X031345Y016580D01*
X031345Y017302D01*
X031505Y017302D01*
X031505Y017462D01*
X032226Y017462D01*
X032216Y017539D01*
X032189Y017641D01*
X032149Y017738D01*
X032056Y017882D02*
X033660Y017882D01*
X033660Y018040D02*
X031889Y018040D01*
X031758Y018357D02*
X030551Y018357D01*
X030590Y018199D02*
X033660Y018199D01*
X033660Y018357D02*
X032342Y018357D01*
X032612Y018516D02*
X033660Y018516D01*
X033660Y018674D02*
X032770Y018674D01*
X032836Y018833D02*
X033660Y018833D01*
X033660Y018991D02*
X032901Y018991D01*
X032901Y019150D02*
X033660Y019150D01*
X033660Y019308D02*
X032901Y019308D01*
X032842Y019467D02*
X033660Y019467D01*
X031724Y019942D02*
X030524Y019942D01*
X030365Y019784D02*
X031474Y019784D01*
X031323Y019625D02*
X030207Y019625D01*
X030048Y019467D02*
X031258Y019467D01*
X031199Y019308D02*
X029890Y019308D01*
X029771Y019150D02*
X031199Y019150D01*
X031199Y018991D02*
X029979Y018991D01*
X030062Y018833D02*
X031264Y018833D01*
X031330Y018674D02*
X030212Y018674D01*
X030455Y018516D02*
X031488Y018516D01*
X031505Y018040D02*
X031345Y018040D01*
X031345Y017882D02*
X031505Y017882D01*
X031505Y017723D02*
X031345Y017723D01*
X031345Y017565D02*
X031505Y017565D01*
X031505Y017406D02*
X033660Y017406D01*
X033660Y017248D02*
X032219Y017248D01*
X032216Y017224D02*
X032226Y017302D01*
X031505Y017302D01*
X031505Y016580D01*
X031582Y016590D01*
X031684Y016618D01*
X031782Y016658D01*
X031873Y016711D01*
X031957Y016775D01*
X032032Y016850D01*
X032096Y016933D01*
X032149Y017025D01*
X032189Y017122D01*
X032216Y017224D01*
X032175Y017089D02*
X033660Y017089D01*
X033660Y016931D02*
X032094Y016931D01*
X031953Y016772D02*
X033660Y016772D01*
X033660Y016614D02*
X031669Y016614D01*
X031505Y016614D02*
X031345Y016614D01*
X031345Y016772D02*
X031505Y016772D01*
X031505Y016931D02*
X031345Y016931D01*
X031345Y017089D02*
X031505Y017089D01*
X031505Y017248D02*
X031345Y017248D01*
X031345Y017406D02*
X029327Y017406D01*
X029182Y017368D02*
X029182Y017368D01*
X029323Y017248D02*
X030631Y017248D01*
X030675Y017089D02*
X028381Y017089D01*
X028382Y017248D02*
X027235Y017248D01*
X027235Y017406D02*
X028377Y017406D01*
X028377Y017368D02*
X028523Y017368D01*
X028377Y017368D01*
X028523Y017368D02*
X028523Y017368D01*
X028377Y017565D02*
X027235Y017565D01*
X027172Y017723D02*
X028377Y017723D01*
X028377Y017624D02*
X028523Y017624D01*
X028523Y017624D01*
X028523Y017624D01*
X028377Y017624D01*
X028852Y017624D02*
X028852Y017368D01*
X028852Y017368D01*
X028852Y017621D01*
X028852Y017624D01*
X028852Y017624D01*
X028852Y017565D02*
X028852Y017565D01*
X028852Y017406D02*
X028852Y017406D01*
X028852Y017248D02*
X028852Y017248D01*
X028521Y016931D02*
X030756Y016931D01*
X030897Y016772D02*
X028587Y016772D01*
X028590Y016614D02*
X031181Y016614D01*
X030592Y015821D02*
X028439Y015821D01*
X028440Y015663D02*
X030405Y015663D01*
X030385Y015504D02*
X028440Y015504D01*
X028440Y015346D02*
X030385Y015346D01*
X030385Y015187D02*
X028440Y015187D01*
X028440Y015029D02*
X030359Y015029D01*
X030200Y014870D02*
X028421Y014870D01*
X028244Y014712D02*
X030042Y014712D01*
X029883Y014553D02*
X025510Y014553D01*
X025668Y014712D02*
X026356Y014712D01*
X026179Y014870D02*
X025827Y014870D01*
X025985Y015029D02*
X026160Y015029D01*
X026744Y014712D02*
X026856Y014712D01*
X027244Y014712D02*
X027356Y014712D01*
X027744Y014712D02*
X027856Y014712D01*
X027743Y013602D02*
X029240Y013602D01*
X029240Y013444D02*
X028332Y013444D01*
X028360Y013285D02*
X029240Y013285D01*
X029240Y013127D02*
X028360Y013127D01*
X028360Y012968D02*
X029240Y012968D01*
X029140Y012810D02*
X028360Y012810D01*
X028360Y012947D02*
X028050Y012947D01*
X028050Y013527D01*
X028050Y012947D01*
X028050Y012947D01*
X028360Y012947D01*
X028360Y012651D02*
X028981Y012651D01*
X028823Y012493D02*
X028352Y012493D01*
X028050Y012947D02*
X028050Y012947D01*
X028050Y012968D02*
X028050Y012968D01*
X028050Y013127D02*
X028050Y013127D01*
X028050Y013285D02*
X028050Y013285D01*
X028050Y013444D02*
X028050Y013444D01*
X027357Y013602D02*
X027243Y013602D01*
X026857Y013602D02*
X026743Y013602D01*
X026357Y013602D02*
X026271Y013602D01*
X025704Y013602D02*
X025271Y013602D01*
X025431Y013444D02*
X025544Y013444D01*
X024827Y013761D02*
X029240Y013761D01*
X029271Y013919D02*
X024827Y013919D01*
X024827Y014078D02*
X029408Y014078D01*
X029566Y014236D02*
X024827Y014236D01*
X024488Y014657D02*
X024050Y015094D01*
X024050Y020157D01*
X022675Y021532D01*
X022675Y021782D01*
X022050Y021782D01*
X022191Y022122D02*
X022140Y022172D01*
X022140Y022599D01*
X022088Y022724D01*
X022031Y022782D01*
X022088Y022839D01*
X022140Y022964D01*
X022140Y023266D01*
X022191Y023317D01*
X023418Y023317D01*
X023118Y023017D01*
X022874Y023262D01*
X022695Y023262D01*
X022695Y022802D01*
X022655Y022802D01*
X022655Y023262D01*
X022476Y023262D01*
X022195Y022980D01*
X022195Y022802D01*
X022655Y022802D01*
X022655Y022762D01*
X022195Y022762D01*
X022195Y022583D01*
X022440Y022338D01*
X022223Y022122D01*
X022191Y022122D01*
X022151Y022161D02*
X022263Y022161D01*
X022140Y022320D02*
X022421Y022320D01*
X022300Y022478D02*
X022140Y022478D01*
X022125Y022637D02*
X022195Y022637D01*
X022044Y022795D02*
X022655Y022795D01*
X022655Y022954D02*
X022695Y022954D01*
X022695Y023112D02*
X022655Y023112D01*
X022327Y023112D02*
X022140Y023112D01*
X022136Y022954D02*
X022195Y022954D01*
X022145Y023271D02*
X023372Y023271D01*
X023214Y023112D02*
X023023Y023112D01*
X021694Y023782D02*
X021512Y023599D01*
X021460Y023474D01*
X021460Y023253D01*
X021400Y023399D01*
X021242Y023556D01*
X021036Y023642D01*
X020814Y023642D01*
X020608Y023556D01*
X020450Y023399D01*
X020381Y023231D01*
X020370Y023266D01*
X020336Y023333D01*
X020291Y023394D01*
X020238Y023448D01*
X020177Y023492D01*
X020109Y023526D01*
X020037Y023550D01*
X019963Y023562D01*
X019945Y023562D01*
X019945Y022802D01*
X019905Y022802D01*
X019905Y023562D01*
X019887Y023562D01*
X019813Y023550D01*
X019741Y023526D01*
X019673Y023492D01*
X019612Y023448D01*
X019559Y023394D01*
X019514Y023333D01*
X019480Y023266D01*
X019469Y023231D01*
X019400Y023399D01*
X019242Y023556D01*
X019036Y023642D01*
X018814Y023642D01*
X018608Y023556D01*
X018450Y023399D01*
X018425Y023338D01*
X018400Y023399D01*
X018242Y023556D01*
X018036Y023642D01*
X017814Y023642D01*
X017608Y023556D01*
X017450Y023399D01*
X017425Y023338D01*
X017400Y023399D01*
X017242Y023556D01*
X017036Y023642D01*
X016814Y023642D01*
X016608Y023556D01*
X016450Y023399D01*
X016425Y023338D01*
X016400Y023399D01*
X016242Y023556D01*
X016036Y023642D01*
X015814Y023642D01*
X015608Y023556D01*
X015450Y023399D01*
X015425Y023338D01*
X015400Y023399D01*
X015242Y023556D01*
X015036Y023642D01*
X014814Y023642D01*
X014608Y023556D01*
X014450Y023399D01*
X014365Y023193D01*
X014365Y022370D01*
X014450Y022164D01*
X014608Y022007D01*
X014814Y021922D01*
X015036Y021922D01*
X015242Y022007D01*
X015252Y022016D01*
X015787Y021481D01*
X015874Y021394D01*
X015950Y021363D01*
X015950Y021203D01*
X016377Y021203D01*
X016377Y021108D01*
X015950Y021108D01*
X015950Y020928D01*
X015938Y020957D01*
X015851Y021044D01*
X015188Y021707D01*
X015101Y021794D01*
X014987Y021842D01*
X014303Y021842D01*
X014235Y021910D01*
X014235Y023343D01*
X014188Y023457D01*
X013938Y023707D01*
X013863Y023782D01*
X021694Y023782D01*
X021659Y023746D02*
X013899Y023746D01*
X014050Y023782D02*
X012425Y023782D01*
X012536Y023588D02*
X012541Y023586D01*
X012737Y023782D01*
X000925Y023782D01*
X000925Y023366D01*
X001091Y023532D01*
X001308Y023622D01*
X001542Y023622D01*
X001759Y023532D01*
X001925Y023366D01*
X001943Y023323D01*
X001953Y023347D01*
X002110Y023504D01*
X002314Y023588D01*
X002536Y023588D01*
X002740Y023504D01*
X002897Y023347D01*
X002950Y023220D01*
X002952Y023227D01*
X002989Y023299D01*
X003036Y023364D01*
X003093Y023421D01*
X003158Y023468D01*
X003229Y023504D01*
X003306Y023529D01*
X003385Y023542D01*
X003407Y023542D01*
X003407Y023050D01*
X003443Y023050D01*
X003443Y023542D01*
X003465Y023542D01*
X003544Y023529D01*
X003621Y023504D01*
X003692Y023468D01*
X003757Y023421D01*
X003814Y023364D01*
X003861Y023299D01*
X003898Y023227D01*
X003900Y023220D01*
X003953Y023347D01*
X004110Y023504D01*
X004314Y023588D01*
X004536Y023588D01*
X004740Y023504D01*
X004897Y023347D01*
X004925Y023280D01*
X004953Y023347D01*
X005110Y023504D01*
X005314Y023588D01*
X005536Y023588D01*
X005740Y023504D01*
X005897Y023347D01*
X005925Y023280D01*
X005953Y023347D01*
X006110Y023504D01*
X006314Y023588D01*
X006536Y023588D01*
X006740Y023504D01*
X006897Y023347D01*
X006925Y023280D01*
X006953Y023347D01*
X007110Y023504D01*
X007314Y023588D01*
X007536Y023588D01*
X007740Y023504D01*
X007897Y023347D01*
X007925Y023280D01*
X007953Y023347D01*
X008110Y023504D01*
X008314Y023588D01*
X008536Y023588D01*
X008740Y023504D01*
X008897Y023347D01*
X008925Y023280D01*
X008953Y023347D01*
X009110Y023504D01*
X009314Y023588D01*
X009536Y023588D01*
X009740Y023504D01*
X009897Y023347D01*
X009925Y023280D01*
X009953Y023347D01*
X010110Y023504D01*
X010314Y023588D01*
X010536Y023588D01*
X010740Y023504D01*
X010897Y023347D01*
X010925Y023280D01*
X010953Y023347D01*
X011110Y023504D01*
X011314Y023588D01*
X011536Y023588D01*
X011740Y023504D01*
X011897Y023347D01*
X011925Y023280D01*
X011953Y023347D01*
X012110Y023504D01*
X012314Y023588D01*
X012536Y023588D01*
X012538Y023588D02*
X012543Y023588D01*
X012701Y023746D02*
X000925Y023746D01*
X000925Y023588D02*
X001226Y023588D01*
X000988Y023429D02*
X000925Y023429D01*
X001050Y023032D02*
X001425Y023032D01*
X001050Y023032D02*
X000800Y022782D01*
X000800Y020907D01*
X001175Y020532D01*
X002425Y020532D01*
X002233Y020026D02*
X002119Y020074D01*
X002001Y020192D01*
X001107Y020192D01*
X000982Y020243D01*
X000925Y020301D01*
X000925Y020026D01*
X001575Y020026D01*
X001575Y019609D01*
X001730Y019609D01*
X001730Y020026D01*
X002233Y020026D01*
X002092Y020101D02*
X000925Y020101D01*
X000925Y020259D02*
X000967Y020259D01*
X001575Y019942D02*
X001730Y019942D01*
X001730Y019784D02*
X001575Y019784D01*
X001575Y019625D02*
X001730Y019625D01*
X001730Y019467D02*
X003400Y019467D01*
X003400Y019625D02*
X002620Y019625D01*
X002620Y019784D02*
X003400Y019784D01*
X003418Y019942D02*
X002592Y019942D01*
X002758Y020101D02*
X003594Y020101D01*
X004191Y020735D02*
X004740Y020735D01*
X004740Y020847D02*
X004238Y020847D01*
X004124Y020894D01*
X004037Y020981D01*
X003922Y021097D01*
X002988Y021097D01*
X002874Y021144D01*
X002787Y021231D01*
X002541Y021477D01*
X002536Y021475D01*
X002314Y021475D01*
X002110Y021559D01*
X001982Y021687D01*
X001982Y021683D01*
X001942Y021587D01*
X001869Y021514D01*
X001774Y021475D01*
X001140Y021475D01*
X001140Y021047D01*
X001316Y020872D01*
X002001Y020872D01*
X002119Y020989D01*
X002318Y021072D01*
X002532Y021072D01*
X002731Y020989D01*
X002769Y020952D01*
X003884Y020952D01*
X004038Y020888D01*
X004156Y020769D01*
X004781Y020144D01*
X004797Y020106D01*
X005037Y020106D01*
X004874Y020269D01*
X004874Y020269D01*
X004787Y020356D01*
X004740Y020470D01*
X004740Y020847D01*
X004740Y020576D02*
X004349Y020576D01*
X004508Y020418D02*
X004762Y020418D01*
X004666Y020259D02*
X004884Y020259D01*
X004126Y020893D02*
X004025Y020893D01*
X003967Y021052D02*
X002581Y021052D01*
X002808Y021210D02*
X001140Y021210D01*
X001140Y021052D02*
X002269Y021052D01*
X002023Y020893D02*
X001294Y020893D01*
X001140Y021369D02*
X002650Y021369D01*
X002188Y021527D02*
X001882Y021527D01*
X001982Y021686D02*
X001983Y021686D01*
X002925Y023032D02*
X002925Y023782D01*
X002815Y023429D02*
X003104Y023429D01*
X002974Y023271D02*
X002929Y023271D01*
X002925Y023032D02*
X003425Y023032D01*
X003407Y023112D02*
X003443Y023112D01*
X003443Y023271D02*
X003407Y023271D01*
X003407Y023429D02*
X003443Y023429D01*
X003746Y023429D02*
X004035Y023429D01*
X003921Y023271D02*
X003876Y023271D01*
X004312Y023588D02*
X002538Y023588D01*
X002312Y023588D02*
X001624Y023588D01*
X001862Y023429D02*
X002035Y023429D01*
X004538Y023588D02*
X005312Y023588D01*
X005538Y023588D02*
X006312Y023588D01*
X006538Y023588D02*
X007312Y023588D01*
X007538Y023588D02*
X008312Y023588D01*
X008538Y023588D02*
X009312Y023588D01*
X009538Y023588D02*
X010312Y023588D01*
X010538Y023588D02*
X011312Y023588D01*
X011538Y023588D02*
X012312Y023588D01*
X012035Y023429D02*
X011815Y023429D01*
X011035Y023429D02*
X010815Y023429D01*
X010035Y023429D02*
X009815Y023429D01*
X009035Y023429D02*
X008815Y023429D01*
X008035Y023429D02*
X007815Y023429D01*
X007035Y023429D02*
X006815Y023429D01*
X006035Y023429D02*
X005815Y023429D01*
X005035Y023429D02*
X004815Y023429D01*
X007917Y021210D02*
X008615Y021210D01*
X008615Y021142D02*
X009003Y021142D01*
X009003Y021046D01*
X008615Y021046D01*
X008615Y021037D01*
X008532Y021072D01*
X008318Y021072D01*
X008119Y020989D01*
X007967Y020837D01*
X007885Y020639D01*
X007885Y020424D01*
X007967Y020226D01*
X008119Y020074D01*
X008284Y020006D01*
X008244Y019989D01*
X008092Y019837D01*
X008010Y019639D01*
X008010Y019424D01*
X008092Y019226D01*
X008244Y019074D01*
X008443Y018992D01*
X008619Y018992D01*
X008619Y018911D01*
X008625Y018895D01*
X008619Y018878D01*
X008619Y018655D01*
X008625Y018639D01*
X008619Y018623D01*
X008619Y018399D01*
X008658Y018304D01*
X008699Y018263D01*
X008699Y018255D01*
X008707Y018255D01*
X008699Y018255D01*
X008699Y018171D01*
X008711Y018125D01*
X008735Y018084D01*
X008768Y018051D01*
X008809Y018027D01*
X008855Y018015D01*
X009074Y018015D01*
X009292Y018015D01*
X009323Y018023D01*
X009342Y017976D01*
X009494Y017824D01*
X009693Y017742D01*
X009760Y017742D01*
X009760Y017674D01*
X009842Y017476D01*
X009994Y017324D01*
X010193Y017242D01*
X010407Y017242D01*
X010606Y017324D01*
X010758Y017476D01*
X010840Y017674D01*
X010840Y017889D01*
X010758Y018087D01*
X010610Y018235D01*
X010610Y018593D01*
X010609Y018597D01*
X010657Y018597D01*
X010925Y018865D01*
X011193Y018597D01*
X011615Y018597D01*
X011615Y018595D01*
X011662Y018481D01*
X012097Y018046D01*
X011950Y017899D01*
X011925Y017838D01*
X011900Y017899D01*
X011742Y018056D01*
X011536Y018142D01*
X011314Y018142D01*
X011108Y018056D01*
X010950Y017899D01*
X010865Y017693D01*
X010865Y016870D01*
X010950Y016664D01*
X011085Y016530D01*
X011085Y016372D01*
X010232Y016372D01*
X010110Y016321D01*
X010110Y016609D01*
X009722Y016609D01*
X009722Y016704D01*
X010110Y016704D01*
X010110Y016995D01*
X010098Y017041D01*
X010074Y017082D01*
X010040Y017116D01*
X009999Y017139D01*
X009954Y017151D01*
X009722Y017151D01*
X009722Y016704D01*
X009626Y016704D01*
X009626Y017151D01*
X009394Y017151D01*
X009375Y017146D01*
X009329Y017192D01*
X009234Y017231D01*
X008618Y017231D01*
X008523Y017192D01*
X008484Y017153D01*
X007925Y017153D01*
X007830Y017113D01*
X007800Y017083D01*
X007791Y017093D01*
X007824Y017126D01*
X007848Y017167D01*
X007860Y017213D01*
X007860Y017484D01*
X007472Y017484D01*
X007472Y017579D01*
X007860Y017579D01*
X007860Y017828D01*
X007945Y017913D01*
X008027Y018112D01*
X008027Y018326D01*
X007945Y018525D01*
X007853Y018617D01*
X007902Y018737D01*
X007902Y018951D01*
X007820Y019150D01*
X007672Y019298D01*
X007672Y019468D01*
X007625Y019582D01*
X007520Y019688D01*
X007688Y019856D01*
X007735Y019970D01*
X007735Y021028D01*
X008188Y021481D01*
X008204Y021520D01*
X008314Y021475D01*
X008536Y021475D01*
X008703Y021544D01*
X008685Y021533D01*
X008651Y021500D01*
X008627Y021459D01*
X008615Y021413D01*
X008615Y021142D01*
X008581Y021052D02*
X009003Y021052D01*
X009003Y021142D02*
X009003Y021569D01*
X008771Y021569D01*
X008743Y021562D01*
X008897Y021716D01*
X008925Y021784D01*
X008953Y021716D01*
X009100Y021569D01*
X009099Y021569D01*
X009099Y021142D01*
X009003Y021142D01*
X009003Y021210D02*
X009099Y021210D01*
X009099Y021369D02*
X009003Y021369D01*
X009003Y021527D02*
X009099Y021527D01*
X008983Y021686D02*
X008867Y021686D01*
X008678Y021527D02*
X008662Y021527D01*
X008615Y021369D02*
X008075Y021369D01*
X008269Y021052D02*
X007758Y021052D01*
X007735Y020893D02*
X008023Y020893D01*
X007925Y020735D02*
X007735Y020735D01*
X007735Y020576D02*
X007885Y020576D01*
X007888Y020418D02*
X007735Y020418D01*
X007735Y020259D02*
X007953Y020259D01*
X008092Y020101D02*
X007735Y020101D01*
X007723Y019942D02*
X008197Y019942D01*
X008070Y019784D02*
X007615Y019784D01*
X007582Y019625D02*
X008010Y019625D01*
X008010Y019467D02*
X007672Y019467D01*
X007672Y019308D02*
X008058Y019308D01*
X008168Y019150D02*
X007820Y019150D01*
X007886Y018991D02*
X008619Y018991D01*
X008619Y018833D02*
X007902Y018833D01*
X007877Y018674D02*
X008619Y018674D01*
X008619Y018516D02*
X007949Y018516D01*
X008015Y018357D02*
X008636Y018357D01*
X008707Y018255D02*
X008707Y018255D01*
X008699Y018199D02*
X008027Y018199D01*
X007998Y018040D02*
X008787Y018040D01*
X009074Y018040D02*
X009074Y018040D01*
X009074Y018015D02*
X009074Y018191D01*
X009074Y018191D01*
X009074Y018015D01*
X009436Y017882D02*
X007914Y017882D01*
X007860Y017723D02*
X009760Y017723D01*
X009805Y017565D02*
X007472Y017565D01*
X007860Y017406D02*
X009912Y017406D01*
X010178Y017248D02*
X007860Y017248D01*
X007806Y017089D02*
X007794Y017089D01*
X007800Y016230D02*
X007830Y016200D01*
X007925Y016160D01*
X008484Y016160D01*
X008523Y016121D01*
X008618Y016082D01*
X009234Y016082D01*
X009329Y016121D01*
X009375Y016167D01*
X009394Y016162D01*
X009626Y016162D01*
X009626Y016609D01*
X009722Y016609D01*
X009722Y016162D01*
X009949Y016162D01*
X009159Y015372D01*
X006779Y015372D01*
X006840Y015519D01*
X006840Y016294D01*
X006758Y016492D01*
X006606Y016644D01*
X006407Y016727D01*
X006193Y016727D01*
X005994Y016644D01*
X005842Y016492D01*
X005800Y016391D01*
X005758Y016492D01*
X005606Y016644D01*
X005407Y016727D01*
X005193Y016727D01*
X004994Y016644D01*
X004842Y016492D01*
X004760Y016294D01*
X004760Y015519D01*
X004821Y015372D01*
X003857Y015372D01*
X003732Y015320D01*
X003503Y015090D01*
X003433Y015090D01*
X003430Y015097D01*
X003257Y015269D01*
X003032Y015363D01*
X002084Y015363D01*
X001932Y015300D01*
X001885Y015347D01*
X001885Y015903D01*
X002049Y015739D01*
X002280Y015739D01*
X002280Y016324D01*
X002320Y016324D01*
X002320Y015739D01*
X002551Y015739D01*
X002905Y016093D01*
X002905Y016324D01*
X002320Y016324D01*
X002320Y016364D01*
X002905Y016364D01*
X002905Y016595D01*
X002712Y016787D01*
X002985Y017060D01*
X002985Y017628D01*
X002791Y017822D01*
X004016Y017822D01*
X004186Y017892D01*
X004315Y018021D01*
X004838Y018544D01*
X004908Y018713D01*
X004908Y018957D01*
X005287Y018957D01*
X005365Y018989D01*
X005365Y018720D01*
X005412Y018606D01*
X005683Y018335D01*
X005770Y018248D01*
X005884Y018201D01*
X006321Y018201D01*
X006321Y018143D01*
X006348Y018078D01*
X006273Y018047D01*
X006200Y017974D01*
X006160Y017879D01*
X006160Y017842D01*
X005681Y017842D01*
X005715Y017924D01*
X005715Y018139D01*
X005633Y018337D01*
X005481Y018489D01*
X005282Y018572D01*
X005068Y018572D01*
X004869Y018489D01*
X004717Y018337D01*
X004635Y018139D01*
X004635Y017924D01*
X004717Y017726D01*
X004869Y017574D01*
X004998Y017521D01*
X005162Y017356D01*
X005249Y017269D01*
X005363Y017222D01*
X006160Y017222D01*
X006160Y017185D01*
X006200Y017089D01*
X006273Y017016D01*
X006365Y016978D01*
X006365Y016970D01*
X006412Y016856D01*
X006499Y016769D01*
X006874Y016394D01*
X006890Y016387D01*
X006890Y016369D01*
X006930Y016273D01*
X007003Y016200D01*
X007099Y016160D01*
X007675Y016160D01*
X007770Y016200D01*
X007800Y016230D01*
X008506Y016138D02*
X006840Y016138D01*
X006840Y015980D02*
X009767Y015980D01*
X009926Y016138D02*
X009346Y016138D01*
X009626Y016297D02*
X009722Y016297D01*
X009722Y016455D02*
X009626Y016455D01*
X009722Y016614D02*
X011001Y016614D01*
X011085Y016455D02*
X010110Y016455D01*
X010110Y016772D02*
X010906Y016772D01*
X010865Y016931D02*
X010110Y016931D01*
X010067Y017089D02*
X010865Y017089D01*
X010865Y017248D02*
X010422Y017248D01*
X010688Y017406D02*
X010865Y017406D01*
X010865Y017565D02*
X010795Y017565D01*
X010840Y017723D02*
X010877Y017723D01*
X010840Y017882D02*
X010943Y017882D01*
X011092Y018040D02*
X010777Y018040D01*
X010647Y018199D02*
X011945Y018199D01*
X012092Y018040D02*
X011758Y018040D01*
X011907Y017882D02*
X011943Y017882D01*
X011786Y018357D02*
X010610Y018357D01*
X010610Y018516D02*
X011648Y018516D01*
X011116Y018674D02*
X010734Y018674D01*
X010893Y018833D02*
X010957Y018833D01*
X011425Y017282D02*
X011425Y016032D01*
X017425Y016032D01*
X018175Y015282D01*
X018663Y015282D01*
X018675Y015020D01*
X018675Y014032D01*
X018550Y013907D01*
X018116Y014236D02*
X018010Y014236D01*
X018010Y014078D02*
X018036Y014078D01*
X018010Y013919D02*
X017987Y013919D01*
X017966Y013761D02*
X016360Y013761D01*
X016360Y013602D02*
X017807Y013602D01*
X018010Y014395D02*
X018259Y014395D01*
X018129Y014553D02*
X018010Y014553D01*
X018010Y014712D02*
X018120Y014712D01*
X018120Y014870D02*
X017997Y014870D01*
X017947Y015029D02*
X017845Y015029D01*
X017789Y015187D02*
X011624Y015187D01*
X011835Y015346D02*
X017630Y015346D01*
X017472Y015504D02*
X011914Y015504D01*
X011935Y015663D02*
X017313Y015663D01*
X017799Y016138D02*
X018200Y016138D01*
X018200Y016111D02*
X018607Y016111D01*
X018607Y016617D01*
X018356Y016617D01*
X018310Y016605D01*
X018269Y016581D01*
X018236Y016548D01*
X018212Y016507D01*
X018200Y016461D01*
X018200Y016111D01*
X018200Y016297D02*
X017641Y016297D01*
X017958Y015980D02*
X018607Y015980D01*
X018743Y015980D02*
X022713Y015980D01*
X022577Y016138D02*
X019150Y016138D01*
X019150Y016297D02*
X022511Y016297D01*
X022510Y016455D02*
X019150Y016455D01*
X019007Y016614D02*
X022551Y016614D01*
X022652Y016772D02*
X017903Y016772D01*
X017697Y016772D02*
X017603Y016772D01*
X018170Y016931D02*
X022740Y016931D01*
X022740Y017089D02*
X018272Y017089D01*
X018343Y016614D02*
X014735Y016614D01*
X014738Y016615D02*
X014791Y016669D01*
X014836Y016730D01*
X014870Y016797D01*
X014893Y016869D01*
X014905Y016944D01*
X014905Y017262D01*
X014445Y017262D01*
X014445Y016502D01*
X014463Y016502D01*
X014537Y016513D01*
X014609Y016537D01*
X014677Y016571D01*
X014738Y016615D01*
X014857Y016772D02*
X015369Y016772D01*
X015137Y016931D02*
X014903Y016931D01*
X014905Y017089D02*
X015045Y017089D01*
X015010Y017248D02*
X014905Y017248D01*
X014905Y017302D02*
X014905Y017619D01*
X014893Y017694D01*
X014870Y017766D01*
X014836Y017833D01*
X014791Y017894D01*
X014738Y017948D01*
X014677Y017992D01*
X014609Y018026D01*
X014537Y018050D01*
X014463Y018062D01*
X014445Y018062D01*
X014445Y017302D01*
X014905Y017302D01*
X014905Y017406D02*
X015017Y017406D01*
X015083Y017565D02*
X014905Y017565D01*
X014884Y017723D02*
X015045Y017723D01*
X014887Y017882D02*
X014800Y017882D01*
X014728Y018040D02*
X014567Y018040D01*
X014445Y018040D02*
X014405Y018040D01*
X014283Y018040D02*
X013758Y018040D01*
X013735Y018199D02*
X014570Y018199D01*
X014445Y017882D02*
X014405Y017882D01*
X014405Y017723D02*
X014445Y017723D01*
X014445Y017565D02*
X014405Y017565D01*
X014405Y017406D02*
X014445Y017406D01*
X014445Y017248D02*
X014405Y017248D01*
X014405Y017089D02*
X014445Y017089D01*
X014445Y016931D02*
X014405Y016931D01*
X014405Y016772D02*
X014445Y016772D01*
X014445Y016614D02*
X014405Y016614D01*
X014115Y016614D02*
X013849Y016614D01*
X013944Y016772D02*
X013993Y016772D01*
X013617Y016455D02*
X018200Y016455D01*
X018607Y016455D02*
X018743Y016455D01*
X018743Y016297D02*
X018607Y016297D01*
X018607Y016138D02*
X018743Y016138D01*
X018743Y016614D02*
X018607Y016614D01*
X018200Y015821D02*
X018116Y015821D01*
X019214Y015504D02*
X019709Y015504D01*
X019551Y015346D02*
X019230Y015346D01*
X019230Y015187D02*
X019392Y015187D01*
X019234Y015029D02*
X019230Y015029D01*
X016724Y013444D02*
X016628Y013444D01*
X016628Y013285D02*
X016724Y013285D01*
X016724Y013127D02*
X016628Y013127D01*
X016628Y012984D02*
X016724Y012984D01*
X016724Y012556D01*
X016956Y012556D01*
X016975Y012562D01*
X016996Y012541D01*
X016662Y012207D01*
X016615Y012093D01*
X016615Y012040D01*
X016610Y012040D01*
X016605Y012040D01*
X016605Y012473D01*
X016571Y012556D01*
X016628Y012556D01*
X016628Y012984D01*
X016628Y012968D02*
X016724Y012968D01*
X016724Y012810D02*
X016628Y012810D01*
X016628Y012651D02*
X016724Y012651D01*
X016597Y012493D02*
X016948Y012493D01*
X016789Y012334D02*
X016605Y012334D01*
X016605Y012176D02*
X016649Y012176D01*
X016610Y012040D02*
X016610Y012011D01*
X016610Y012011D01*
X016610Y012011D01*
X016610Y012040D01*
X016610Y012017D02*
X016610Y012017D01*
X016615Y011066D02*
X016558Y011066D01*
X014111Y011066D02*
X012485Y011066D01*
X012485Y010908D02*
X013938Y010908D01*
X013754Y010749D02*
X012485Y010749D01*
X012485Y010591D02*
X013734Y010591D01*
X013734Y010432D02*
X012968Y010432D01*
X013133Y010274D02*
X013734Y010274D01*
X013734Y010115D02*
X013332Y010115D01*
X013464Y009957D02*
X013734Y009957D01*
X014376Y013127D02*
X014472Y013127D01*
X014472Y013285D02*
X014376Y013285D01*
X014376Y013444D02*
X014472Y013444D01*
X013985Y013602D02*
X015740Y013602D01*
X015740Y013761D02*
X013985Y013761D01*
X014187Y013919D02*
X015413Y013919D01*
X015390Y014078D02*
X014210Y014078D01*
X014210Y014236D02*
X015390Y014236D01*
X015390Y014395D02*
X014210Y014395D01*
X014210Y014553D02*
X015390Y014553D01*
X015390Y014712D02*
X014210Y014712D01*
X014197Y014870D02*
X015403Y014870D01*
X015555Y015029D02*
X014045Y015029D01*
X013233Y016455D02*
X012617Y016455D01*
X012849Y016614D02*
X013001Y016614D01*
X012233Y016455D02*
X011765Y016455D01*
X011849Y016614D02*
X012001Y016614D01*
X011425Y016032D02*
X010300Y016032D01*
X009300Y015032D01*
X009292Y015504D02*
X006834Y015504D01*
X006840Y015663D02*
X009450Y015663D01*
X009609Y015821D02*
X006840Y015821D01*
X006839Y016297D02*
X006920Y016297D01*
X006813Y016455D02*
X006773Y016455D01*
X006655Y016614D02*
X006637Y016614D01*
X006496Y016772D02*
X002728Y016772D01*
X002855Y016931D02*
X006381Y016931D01*
X006200Y017089D02*
X002985Y017089D01*
X002985Y017248D02*
X005301Y017248D01*
X005112Y017406D02*
X002985Y017406D01*
X002985Y017565D02*
X004891Y017565D01*
X004720Y017723D02*
X002890Y017723D01*
X004161Y017882D02*
X004653Y017882D01*
X004635Y018040D02*
X004334Y018040D01*
X004493Y018199D02*
X004660Y018199D01*
X004651Y018357D02*
X004737Y018357D01*
X004810Y018516D02*
X004932Y018516D01*
X004892Y018674D02*
X005384Y018674D01*
X005365Y018833D02*
X004908Y018833D01*
X005418Y018516D02*
X005503Y018516D01*
X005613Y018357D02*
X005661Y018357D01*
X005690Y018199D02*
X006321Y018199D01*
X006266Y018040D02*
X005715Y018040D01*
X005697Y017882D02*
X006161Y017882D01*
X005963Y016614D02*
X005637Y016614D01*
X005773Y016455D02*
X005827Y016455D01*
X004963Y016614D02*
X002886Y016614D01*
X002905Y016455D02*
X004827Y016455D01*
X004761Y016297D02*
X002905Y016297D01*
X002905Y016138D02*
X004760Y016138D01*
X004760Y015980D02*
X002791Y015980D01*
X002633Y015821D02*
X004760Y015821D01*
X004760Y015663D02*
X001885Y015663D01*
X001885Y015821D02*
X001967Y015821D01*
X002280Y015821D02*
X002320Y015821D01*
X002320Y015980D02*
X002280Y015980D01*
X002280Y016138D02*
X002320Y016138D01*
X002320Y016297D02*
X002280Y016297D01*
X001885Y015504D02*
X004766Y015504D01*
X003795Y015346D02*
X003073Y015346D01*
X003340Y015187D02*
X003600Y015187D01*
X003675Y014782D02*
X003644Y014750D01*
X002558Y014750D01*
X002043Y015346D02*
X001887Y015346D01*
X001219Y014712D02*
X000925Y014712D01*
X000925Y014870D02*
X001061Y014870D01*
X000980Y015029D02*
X000925Y015029D01*
X000925Y015187D02*
X000965Y015187D01*
X000965Y015346D02*
X000925Y015346D01*
X000925Y015504D02*
X000965Y015504D01*
X000965Y015663D02*
X000925Y015663D01*
X000925Y015821D02*
X000965Y015821D01*
X000965Y015980D02*
X000925Y015980D01*
X000925Y016138D02*
X000965Y016138D01*
X000965Y016297D02*
X000925Y016297D01*
X000925Y016455D02*
X000965Y016455D01*
X000965Y016614D02*
X000925Y016614D01*
X000925Y016772D02*
X000965Y016772D01*
X000965Y016931D02*
X000925Y016931D01*
X000925Y017089D02*
X000965Y017089D01*
X000965Y017248D02*
X000925Y017248D01*
X000925Y017406D02*
X000965Y017406D01*
X000965Y017565D02*
X000925Y017565D01*
X000925Y017723D02*
X000965Y017723D01*
X000969Y017882D02*
X000925Y017882D01*
X000925Y018040D02*
X001034Y018040D01*
X000925Y018199D02*
X001191Y018199D01*
X001350Y018357D02*
X000925Y018357D01*
X000925Y018516D02*
X001508Y018516D01*
X001671Y018674D02*
X000925Y018674D01*
X000925Y018833D02*
X003825Y018833D01*
X003525Y018991D02*
X000925Y018991D01*
X001575Y019150D02*
X001730Y019150D01*
X001730Y019037D02*
X002463Y019037D01*
X002509Y019049D01*
X002550Y019073D01*
X002584Y019106D01*
X002607Y019147D01*
X002620Y019193D01*
X002620Y019454D01*
X001730Y019454D01*
X001730Y019037D01*
X001730Y019308D02*
X001575Y019308D01*
X002620Y019308D02*
X003400Y019308D01*
X003407Y019150D02*
X002608Y019150D01*
X001378Y014553D02*
X000925Y014553D01*
X000925Y014395D02*
X001536Y014395D01*
X001853Y014236D02*
X000925Y014236D01*
X000925Y014078D02*
X003585Y014078D01*
X003585Y014236D02*
X003263Y014236D01*
X003421Y014395D02*
X003581Y014395D01*
X003585Y013919D02*
X000925Y013919D01*
X000925Y013761D02*
X003585Y013761D01*
X003585Y013602D02*
X000925Y013602D01*
X000925Y013444D02*
X003585Y013444D01*
X003585Y013285D02*
X003084Y013285D01*
X003115Y013275D02*
X003035Y013301D01*
X002952Y013314D01*
X002595Y013314D01*
X002595Y012819D01*
X002520Y012819D01*
X002520Y012744D01*
X001673Y012744D01*
X001673Y012740D01*
X001686Y012657D01*
X001712Y012577D01*
X001750Y012502D01*
X001799Y012435D01*
X001858Y012375D01*
X001926Y012326D01*
X002001Y012288D01*
X002081Y012262D01*
X002163Y012249D01*
X002520Y012249D01*
X002520Y012744D01*
X002595Y012744D01*
X002595Y012249D01*
X002952Y012249D01*
X003035Y012262D01*
X003115Y012288D01*
X003189Y012326D01*
X003257Y012375D01*
X003317Y012435D01*
X003366Y012502D01*
X003404Y012577D01*
X003430Y012657D01*
X003443Y012740D01*
X003443Y012744D01*
X002595Y012744D01*
X002595Y012819D01*
X003443Y012819D01*
X003443Y012823D01*
X003430Y012906D01*
X003404Y012986D01*
X003366Y013061D01*
X003317Y013128D01*
X003257Y013188D01*
X003189Y013237D01*
X003115Y013275D01*
X003318Y013127D02*
X003585Y013127D01*
X003585Y012968D02*
X003410Y012968D01*
X003585Y012810D02*
X002595Y012810D01*
X002520Y012810D02*
X000925Y012810D01*
X000925Y012968D02*
X001706Y012968D01*
X001712Y012986D02*
X001686Y012906D01*
X001673Y012823D01*
X001673Y012819D01*
X002520Y012819D01*
X002520Y013314D01*
X002163Y013314D01*
X002081Y013301D01*
X002001Y013275D01*
X001926Y013237D01*
X001858Y013188D01*
X001799Y013128D01*
X001750Y013061D01*
X001712Y012986D01*
X001798Y013127D02*
X000925Y013127D01*
X000925Y013285D02*
X002032Y013285D01*
X002520Y013285D02*
X002595Y013285D01*
X002595Y013127D02*
X002520Y013127D01*
X002520Y012968D02*
X002595Y012968D01*
X002595Y012651D02*
X002520Y012651D01*
X002520Y012493D02*
X002595Y012493D01*
X002595Y012334D02*
X002520Y012334D01*
X001915Y012334D02*
X000925Y012334D01*
X000925Y012176D02*
X003585Y012176D01*
X003585Y012334D02*
X003200Y012334D01*
X003359Y012493D02*
X003585Y012493D01*
X003585Y012651D02*
X003428Y012651D01*
X003585Y012017D02*
X000925Y012017D01*
X000925Y011859D02*
X003585Y011859D01*
X003585Y011700D02*
X000925Y011700D01*
X000925Y011542D02*
X003605Y011542D01*
X003718Y011383D02*
X003135Y011383D01*
X003621Y011225D02*
X003876Y011225D01*
X003779Y011066D02*
X004035Y011066D01*
X003938Y010908D02*
X004193Y010908D01*
X004096Y010749D02*
X004352Y010749D01*
X004255Y010591D02*
X004510Y010591D01*
X004413Y010432D02*
X004669Y010432D01*
X004572Y010274D02*
X004827Y010274D01*
X004673Y010115D02*
X004986Y010115D01*
X005144Y009957D02*
X004715Y009957D01*
X004481Y010364D02*
X004481Y010364D01*
X003635Y009640D02*
X000925Y009640D01*
X000925Y009798D02*
X003520Y009798D01*
X003361Y009957D02*
X000925Y009957D01*
X000925Y010115D02*
X003203Y010115D01*
X003635Y009481D02*
X001769Y009481D01*
X001927Y009323D02*
X003635Y009323D01*
X003635Y009164D02*
X002086Y009164D01*
X002092Y009006D02*
X003635Y009006D01*
X002352Y008847D02*
X002092Y008847D01*
X002092Y008857D02*
X002092Y008656D01*
X001738Y008302D01*
X001538Y008302D01*
X001538Y008857D01*
X002092Y008857D01*
X002092Y008689D02*
X002193Y008689D01*
X002035Y008530D02*
X001967Y008530D01*
X001886Y008372D02*
X001808Y008372D01*
X001821Y008213D02*
X000925Y008213D01*
X000925Y008055D02*
X001811Y008055D01*
X001811Y007896D02*
X000925Y007896D01*
X000925Y007738D02*
X001085Y007738D01*
X001167Y008372D02*
X000925Y008372D01*
X000925Y008530D02*
X001008Y008530D01*
X001437Y008530D02*
X001538Y008530D01*
X001538Y008372D02*
X001437Y008372D01*
X001437Y008689D02*
X001538Y008689D01*
X001538Y008847D02*
X001437Y008847D01*
X001437Y009006D02*
X001538Y009006D01*
X001538Y009164D02*
X001437Y009164D01*
X001437Y009323D02*
X001538Y009323D01*
X001538Y009481D02*
X001437Y009481D01*
X001206Y009481D02*
X000925Y009481D01*
X000925Y009323D02*
X001048Y009323D01*
X000925Y010274D02*
X001907Y010274D01*
X001720Y010432D02*
X000925Y010432D01*
X000925Y010591D02*
X001635Y010591D01*
X001593Y010749D02*
X000925Y010749D01*
X000925Y010908D02*
X001593Y010908D01*
X001647Y011066D02*
X000925Y011066D01*
X000925Y011225D02*
X001751Y011225D01*
X001981Y011383D02*
X000925Y011383D01*
X000925Y012493D02*
X001757Y012493D01*
X001688Y012651D02*
X000925Y012651D01*
X009626Y016772D02*
X009722Y016772D01*
X009722Y016931D02*
X009626Y016931D01*
X009626Y017089D02*
X009722Y017089D01*
X010412Y015663D02*
X010915Y015663D01*
X013907Y017882D02*
X014050Y017882D01*
X013911Y018357D02*
X013663Y018357D01*
X013753Y018516D02*
X013504Y018516D01*
X014445Y019137D02*
X014445Y019177D01*
X014905Y019177D01*
X014905Y019355D01*
X014660Y019600D01*
X014727Y019666D01*
X015686Y018707D01*
X015773Y018620D01*
X015887Y018573D01*
X015990Y018573D01*
X015990Y018329D01*
X016378Y018329D01*
X016378Y018234D01*
X015990Y018234D01*
X015990Y017963D01*
X016002Y017917D01*
X016026Y017876D01*
X016060Y017842D01*
X016070Y017836D01*
X016023Y017817D01*
X015950Y017744D01*
X015921Y017674D01*
X015856Y017739D01*
X015850Y017742D01*
X015813Y017832D01*
X015726Y017919D01*
X014851Y018794D01*
X014774Y018826D01*
X014905Y018958D01*
X014905Y019137D01*
X014445Y019137D01*
X014445Y019150D02*
X015244Y019150D01*
X015085Y019308D02*
X014905Y019308D01*
X014927Y019467D02*
X014794Y019467D01*
X014768Y019625D02*
X014685Y019625D01*
X014905Y018991D02*
X015402Y018991D01*
X015561Y018833D02*
X014780Y018833D01*
X014971Y018674D02*
X015719Y018674D01*
X015686Y018707D02*
X015686Y018707D01*
X015990Y018516D02*
X015129Y018516D01*
X015288Y018357D02*
X015990Y018357D01*
X015990Y018199D02*
X015446Y018199D01*
X015605Y018040D02*
X015990Y018040D01*
X016023Y017882D02*
X015763Y017882D01*
X015872Y017723D02*
X015941Y017723D01*
X015997Y016772D02*
X015731Y016772D01*
X015224Y013444D02*
X015128Y013444D01*
X015128Y013285D02*
X015224Y013285D01*
X015224Y013127D02*
X015128Y013127D01*
X021049Y017248D02*
X022740Y017248D01*
X022740Y017406D02*
X021238Y017406D01*
X021347Y017565D02*
X022740Y017565D01*
X022740Y017723D02*
X021505Y017723D01*
X021572Y017882D02*
X022740Y017882D01*
X022740Y018040D02*
X021590Y018040D01*
X021565Y018199D02*
X022740Y018199D01*
X022661Y018357D02*
X021488Y018357D01*
X021340Y018516D02*
X022503Y018516D01*
X022344Y018674D02*
X021221Y018674D01*
X021008Y018833D02*
X022186Y018833D01*
X022027Y018991D02*
X020910Y018991D01*
X020907Y019150D02*
X021869Y019150D01*
X021755Y019308D02*
X020842Y019308D01*
X020707Y019467D02*
X021740Y019467D01*
X021740Y019625D02*
X020735Y019625D01*
X020853Y019784D02*
X021740Y019784D01*
X021740Y019942D02*
X020910Y019942D01*
X020910Y020101D02*
X021740Y020101D01*
X021634Y020259D02*
X020862Y020259D01*
X020756Y020418D02*
X021476Y020418D01*
X021317Y020576D02*
X020499Y020576D01*
X020332Y020735D02*
X019080Y020735D01*
X019202Y020805D02*
X019202Y020813D01*
X019202Y020813D01*
X019202Y020805D01*
X019416Y020893D02*
X020125Y020893D01*
X019967Y021052D02*
X019442Y021052D01*
X019442Y021210D02*
X019808Y021210D01*
X019601Y020576D02*
X019269Y020576D01*
X018581Y020576D02*
X018465Y020576D01*
X015950Y021052D02*
X015843Y021052D01*
X015950Y021210D02*
X015685Y021210D01*
X015526Y021369D02*
X015935Y021369D01*
X015741Y021527D02*
X015368Y021527D01*
X015209Y021686D02*
X015583Y021686D01*
X015424Y021844D02*
X014301Y021844D01*
X014235Y022003D02*
X014618Y022003D01*
X014454Y022161D02*
X014235Y022161D01*
X014235Y022320D02*
X014386Y022320D01*
X014365Y022478D02*
X014235Y022478D01*
X014235Y022637D02*
X014365Y022637D01*
X014365Y022795D02*
X014235Y022795D01*
X014235Y022954D02*
X014365Y022954D01*
X014365Y023112D02*
X014235Y023112D01*
X014235Y023271D02*
X014397Y023271D01*
X014481Y023429D02*
X014199Y023429D01*
X014057Y023588D02*
X014683Y023588D01*
X015167Y023588D02*
X015683Y023588D01*
X015481Y023429D02*
X015369Y023429D01*
X016167Y023588D02*
X016683Y023588D01*
X016481Y023429D02*
X016369Y023429D01*
X017167Y023588D02*
X017683Y023588D01*
X017481Y023429D02*
X017369Y023429D01*
X018167Y023588D02*
X018683Y023588D01*
X018481Y023429D02*
X018369Y023429D01*
X019167Y023588D02*
X020683Y023588D01*
X020481Y023429D02*
X020256Y023429D01*
X020367Y023271D02*
X020397Y023271D01*
X019945Y023271D02*
X019905Y023271D01*
X019905Y023429D02*
X019945Y023429D01*
X019594Y023429D02*
X019369Y023429D01*
X019453Y023271D02*
X019483Y023271D01*
X019905Y023112D02*
X019945Y023112D01*
X019945Y022954D02*
X019905Y022954D01*
X020925Y022782D02*
X021550Y022782D01*
X021460Y023271D02*
X021453Y023271D01*
X021460Y023429D02*
X021369Y023429D01*
X021507Y023588D02*
X021167Y023588D01*
X015266Y022003D02*
X015232Y022003D01*
X024752Y017922D02*
X024752Y017534D01*
X024610Y017534D01*
X024610Y016285D01*
X024813Y016082D01*
X024850Y015992D01*
X024856Y015989D01*
X025008Y015837D01*
X025090Y015639D01*
X025090Y015424D01*
X025008Y015226D01*
X024856Y015074D01*
X024657Y014992D01*
X024633Y014992D01*
X024658Y014967D01*
X025047Y014967D01*
X025662Y015582D01*
X025749Y015669D01*
X025863Y015717D01*
X026160Y015717D01*
X026160Y015818D01*
X026200Y015914D01*
X026273Y015987D01*
X026367Y016026D01*
X026277Y016117D01*
X026068Y016117D01*
X025869Y016199D01*
X025717Y016351D01*
X025635Y016549D01*
X025635Y016764D01*
X025717Y016962D01*
X025784Y017029D01*
X025687Y017029D01*
X025606Y016949D01*
X025407Y016867D01*
X025193Y016867D01*
X024994Y016949D01*
X024842Y017101D01*
X024760Y017299D01*
X024760Y017514D01*
X024842Y017712D01*
X024848Y017718D01*
X024848Y017922D01*
X024752Y017922D01*
X024752Y017882D02*
X024848Y017882D01*
X024848Y017922D02*
X025134Y017922D01*
X025193Y017947D01*
X025407Y017947D01*
X025443Y017932D01*
X025443Y018266D01*
X025476Y018347D01*
X025363Y018347D01*
X025334Y018359D01*
X025316Y018315D01*
X025270Y018269D01*
X025275Y018250D01*
X025275Y018018D01*
X024848Y018018D01*
X024848Y017922D01*
X024848Y017723D02*
X024752Y017723D01*
X024752Y017565D02*
X024781Y017565D01*
X024760Y017406D02*
X024610Y017406D01*
X024610Y017248D02*
X024781Y017248D01*
X024854Y017089D02*
X024610Y017089D01*
X024610Y016931D02*
X025038Y016931D01*
X024610Y016772D02*
X025638Y016772D01*
X025635Y016614D02*
X024610Y016614D01*
X024610Y016455D02*
X025674Y016455D01*
X025771Y016297D02*
X024610Y016297D01*
X024757Y016138D02*
X026016Y016138D01*
X026265Y015980D02*
X024866Y015980D01*
X025015Y015821D02*
X026161Y015821D01*
X025743Y015663D02*
X025080Y015663D01*
X025090Y015504D02*
X025584Y015504D01*
X025426Y015346D02*
X025057Y015346D01*
X024969Y015187D02*
X025267Y015187D01*
X025109Y015029D02*
X024747Y015029D01*
X024488Y014657D02*
X024488Y011344D01*
X025175Y010657D01*
X025176Y010656D01*
X026050Y010656D01*
X026051Y010657D01*
X026550Y010657D01*
X026800Y010407D01*
X026800Y007157D01*
X026303Y006945D02*
X025657Y006945D01*
X025721Y006787D02*
X026406Y006787D01*
X026665Y006628D02*
X025735Y006628D01*
X025703Y006470D02*
X027362Y006470D01*
X027425Y006311D02*
X025616Y006311D01*
X025419Y006153D02*
X027425Y006153D01*
X027203Y006628D02*
X026935Y006628D01*
X026260Y007104D02*
X025512Y007104D01*
X025686Y007262D02*
X026260Y007262D01*
X026325Y007421D02*
X025770Y007421D01*
X025815Y007579D02*
X026459Y007579D01*
X026460Y007738D02*
X025815Y007738D01*
X025769Y007896D02*
X026460Y007896D01*
X026460Y008055D02*
X025682Y008055D01*
X025637Y008213D02*
X026460Y008213D01*
X026460Y008372D02*
X025750Y008372D01*
X025815Y008530D02*
X026460Y008530D01*
X026460Y008689D02*
X025815Y008689D01*
X025789Y008847D02*
X026460Y008847D01*
X026460Y009006D02*
X025723Y009006D01*
X025588Y009164D02*
X026460Y009164D01*
X026460Y009323D02*
X025729Y009323D01*
X026002Y009481D02*
X026098Y009481D01*
X026098Y009640D02*
X026002Y009640D01*
X026002Y009798D02*
X026098Y009798D01*
X026404Y009481D02*
X026460Y009481D01*
X027140Y009481D02*
X027175Y009481D01*
X027175Y009323D02*
X027140Y009323D01*
X027140Y009164D02*
X027175Y009164D01*
X027175Y009006D02*
X027140Y009006D01*
X027140Y008847D02*
X027175Y008847D01*
X027175Y008689D02*
X027140Y008689D01*
X027140Y008530D02*
X027175Y008530D01*
X027175Y008372D02*
X027140Y008372D01*
X027140Y008213D02*
X027175Y008213D01*
X027175Y008055D02*
X027140Y008055D01*
X027140Y007896D02*
X027175Y007896D01*
X027175Y007738D02*
X027140Y007738D01*
X027141Y007579D02*
X027175Y007579D01*
X028301Y008657D02*
X028300Y008658D01*
X028301Y008657D02*
X029425Y008657D01*
X029355Y008726D01*
X029355Y009657D01*
X028300Y009406D02*
X028300Y010033D01*
X027175Y009957D02*
X027140Y009957D01*
X027140Y010115D02*
X027175Y010115D01*
X027175Y010274D02*
X027140Y010274D01*
X027140Y010432D02*
X027175Y010432D01*
X027175Y010591D02*
X027092Y010591D01*
X027175Y010749D02*
X026938Y010749D01*
X026780Y010908D02*
X027175Y010908D01*
X027175Y011066D02*
X026558Y011066D01*
X027175Y011225D02*
X025476Y011225D01*
X024929Y011383D02*
X031323Y011383D01*
X031345Y011383D02*
X031505Y011383D01*
X031505Y011380D02*
X031582Y011390D01*
X031684Y011418D01*
X031782Y011458D01*
X031873Y011511D01*
X031957Y011575D01*
X032032Y011650D01*
X032096Y011733D01*
X032149Y011825D01*
X032189Y011922D01*
X032216Y012024D01*
X032226Y012102D01*
X031505Y012102D01*
X031505Y012262D01*
X031345Y012262D01*
X031345Y012983D01*
X031268Y012973D01*
X031166Y012945D01*
X031068Y012905D01*
X030977Y012852D01*
X030893Y012788D01*
X030818Y012713D01*
X030754Y012630D01*
X030701Y012538D01*
X030661Y012441D01*
X030634Y012339D01*
X030624Y012262D01*
X031345Y012262D01*
X031345Y012102D01*
X030624Y012102D01*
X030634Y012024D01*
X030661Y011922D01*
X030701Y011825D01*
X030754Y011733D01*
X030818Y011650D01*
X030893Y011575D01*
X030977Y011511D01*
X031068Y011458D01*
X031166Y011418D01*
X031268Y011390D01*
X031345Y011380D01*
X031345Y012102D01*
X031505Y012102D01*
X031505Y011380D01*
X031527Y011383D02*
X033660Y011383D01*
X033660Y011542D02*
X031913Y011542D01*
X032070Y011700D02*
X033660Y011700D01*
X033660Y011859D02*
X032163Y011859D01*
X032214Y012017D02*
X033660Y012017D01*
X033660Y012176D02*
X031505Y012176D01*
X031505Y012262D02*
X032226Y012262D01*
X032216Y012339D01*
X032189Y012441D01*
X032149Y012538D01*
X032096Y012630D01*
X032032Y012713D01*
X031957Y012788D01*
X031873Y012852D01*
X031782Y012905D01*
X031684Y012945D01*
X031582Y012973D01*
X031505Y012983D01*
X031505Y012262D01*
X031505Y012334D02*
X031345Y012334D01*
X031345Y012176D02*
X029382Y012176D01*
X029541Y012334D02*
X030633Y012334D01*
X030683Y012493D02*
X029699Y012493D01*
X029831Y012651D02*
X030771Y012651D01*
X030921Y012810D02*
X029860Y012810D01*
X029860Y012968D02*
X031250Y012968D01*
X031345Y012968D02*
X031505Y012968D01*
X031600Y012968D02*
X033660Y012968D01*
X033660Y012810D02*
X031929Y012810D01*
X032079Y012651D02*
X033660Y012651D01*
X033660Y012493D02*
X032167Y012493D01*
X032217Y012334D02*
X033660Y012334D01*
X033660Y013127D02*
X029860Y013127D01*
X029860Y013285D02*
X033660Y013285D01*
X033660Y013444D02*
X029860Y013444D01*
X029860Y013602D02*
X033660Y013602D01*
X033660Y013761D02*
X032303Y013761D01*
X032452Y013919D02*
X033660Y013919D01*
X033660Y014078D02*
X032465Y014078D01*
X032465Y014236D02*
X033660Y014236D01*
X033660Y014395D02*
X032465Y014395D01*
X032465Y014553D02*
X033660Y014553D01*
X033660Y014712D02*
X032465Y014712D01*
X032465Y014870D02*
X033660Y014870D01*
X033660Y015029D02*
X032465Y015029D01*
X032465Y015187D02*
X033660Y015187D01*
X033660Y015346D02*
X032465Y015346D01*
X032465Y015504D02*
X033660Y015504D01*
X033660Y015663D02*
X032445Y015663D01*
X032258Y015821D02*
X033660Y015821D01*
X033660Y015980D02*
X028360Y015980D01*
X028360Y016138D02*
X033660Y016138D01*
X033660Y016297D02*
X028454Y016297D01*
X028551Y016455D02*
X033660Y016455D01*
X033660Y017565D02*
X032209Y017565D01*
X030961Y018040D02*
X030586Y018040D01*
X030521Y017882D02*
X030794Y017882D01*
X030695Y017723D02*
X030380Y017723D01*
X030641Y017565D02*
X029327Y017565D01*
X029182Y017624D02*
X029182Y017624D01*
X029327Y017723D02*
X029720Y017723D01*
X027719Y017089D02*
X027235Y017089D01*
X027235Y016931D02*
X027579Y016931D01*
X027513Y016772D02*
X027373Y016772D01*
X027404Y017882D02*
X027013Y017882D01*
X026855Y018040D02*
X027228Y018040D01*
X027070Y018199D02*
X026553Y018199D01*
X025443Y018199D02*
X025275Y018199D01*
X025275Y018040D02*
X025443Y018040D01*
X025338Y018357D02*
X025333Y018357D01*
X025562Y016931D02*
X025704Y016931D01*
X025351Y014395D02*
X029725Y014395D01*
X030284Y014078D02*
X030385Y014078D01*
X030398Y013919D02*
X030126Y013919D01*
X029967Y013761D02*
X030547Y013761D01*
X031345Y012810D02*
X031505Y012810D01*
X031505Y012651D02*
X031345Y012651D01*
X031345Y012493D02*
X031505Y012493D01*
X031505Y012017D02*
X031345Y012017D01*
X031345Y011859D02*
X031505Y011859D01*
X031505Y011700D02*
X031345Y011700D01*
X031345Y011542D02*
X031505Y011542D01*
X030937Y011542D02*
X024827Y011542D01*
X024827Y011700D02*
X030780Y011700D01*
X030687Y011859D02*
X029016Y011859D01*
X029224Y012017D02*
X030636Y012017D01*
X032675Y010032D02*
X032300Y009657D01*
X031245Y009657D01*
X030050Y008657D02*
X029425Y008657D01*
X030050Y008657D02*
X030526Y008180D01*
X030526Y007532D01*
X027175Y009640D02*
X027140Y009640D01*
X027140Y009798D02*
X027175Y009798D01*
X024728Y010115D02*
X024110Y010115D01*
X024110Y010274D02*
X024653Y010274D01*
X024575Y010432D02*
X024110Y010432D01*
X024110Y010591D02*
X024535Y010591D01*
X024535Y010749D02*
X024110Y010749D01*
X024110Y010908D02*
X024443Y010908D01*
X024285Y011066D02*
X024110Y011066D01*
X024110Y011225D02*
X024169Y011225D01*
X024148Y011383D02*
X024110Y011383D01*
X024110Y011542D02*
X024148Y011542D01*
X024148Y011700D02*
X024110Y011700D01*
X024110Y011859D02*
X024148Y011859D01*
X024148Y012017D02*
X024110Y012017D01*
X024827Y012017D02*
X025691Y012017D01*
X025530Y012176D02*
X024827Y012176D01*
X024827Y012334D02*
X025372Y012334D01*
X025213Y012493D02*
X024827Y012493D01*
X024827Y012651D02*
X024849Y012651D01*
X024827Y011859D02*
X027709Y011859D01*
X027501Y012017D02*
X026972Y012017D01*
X027132Y012176D02*
X027343Y012176D01*
X024607Y009957D02*
X024038Y009957D01*
X023880Y009798D02*
X024541Y009798D01*
X024535Y009640D02*
X023721Y009640D01*
X023563Y009481D02*
X024555Y009481D01*
X024621Y009323D02*
X023404Y009323D01*
X023246Y009164D02*
X024762Y009164D01*
X024627Y009006D02*
X023087Y009006D01*
X024713Y008213D02*
X020360Y008213D01*
X020360Y008055D02*
X024668Y008055D01*
X024581Y007896D02*
X020360Y007896D01*
X020360Y007738D02*
X024535Y007738D01*
X024535Y007579D02*
X020360Y007579D01*
X020360Y007421D02*
X024580Y007421D01*
X024664Y007262D02*
X020360Y007262D01*
X020360Y007104D02*
X024838Y007104D01*
X015914Y004409D02*
X015894Y004409D01*
X006075Y005043D02*
X002610Y005043D01*
X002610Y005202D02*
X006075Y005202D01*
X031103Y023271D02*
X031497Y023271D01*
X031339Y023112D02*
X031261Y023112D01*
X032103Y023271D02*
X032497Y023271D01*
X032339Y023112D02*
X032261Y023112D01*
D51*
X029050Y011407D02*
X029050Y010907D01*
X004425Y019532D02*
X004425Y019907D01*
X003800Y020532D01*
X002425Y020532D01*
D52*
X004448Y019532D02*
X004448Y018804D01*
X003925Y018282D01*
X001925Y018282D01*
X001425Y017782D01*
X001425Y015157D01*
X001831Y014750D01*
X002558Y014750D01*
M02*
