solid OpenSCAD_Model
  facet normal -1 -0 -0
    outer loop
      vertex -19.8 -3.85 -1.9
      vertex -19.8 -3.85 1.6
      vertex -19.8 3.85 -1.9
    endloop
  endfacet
  facet normal -1 0 0
    outer loop
      vertex -19.8 3.85 -1.9
      vertex -19.8 -3.85 1.6
      vertex -19.8 3.85 1.6
    endloop
  endfacet
  facet normal 0 -1 0
    outer loop
      vertex -19.8 -3.85 1.6
      vertex -19.8 -3.85 -1.9
      vertex -17.8 -3.85 -1.9
    endloop
  endfacet
  facet normal 0 -1 0
    outer loop
      vertex -17.8 -3.85 1.6
      vertex -19.8 -3.85 1.6
      vertex -17.8 -3.85 -1.9
    endloop
  endfacet
  facet normal -0 -0 -1
    outer loop
      vertex -19.8 -3.85 -1.9
      vertex -19.8 3.85 -1.9
      vertex -17.8 -3.85 -1.9
    endloop
  endfacet
  facet normal 0 0 -1
    outer loop
      vertex -17.8 2.85 -1.9
      vertex -19.8 3.85 -1.9
      vertex -17.8 3.85 -1.9
    endloop
  endfacet
  facet normal 0 0 -1
    outer loop
      vertex -17.8 -3.85 -1.9
      vertex -19.8 3.85 -1.9
      vertex -17.8 -2.85 -1.9
    endloop
  endfacet
  facet normal 0 -0 -1
    outer loop
      vertex 17.8 2.85 -1.9
      vertex 17.8 3.85 -1.9
      vertex 19.8 3.85 -1.9
    endloop
  endfacet
  facet normal -0 0 -1
    outer loop
      vertex 17.8 2.85 -1.9
      vertex 19.8 3.85 -1.9
      vertex 19.8 -3.85 -1.9
    endloop
  endfacet
  facet normal 0 0 -1
    outer loop
      vertex 17.8 -2.85 -1.9
      vertex 19.8 -3.85 -1.9
      vertex 17.8 -3.85 -1.9
    endloop
  endfacet
  facet normal 0 0 -1
    outer loop
      vertex 17.8 2.85 -1.9
      vertex 19.8 -3.85 -1.9
      vertex 17.8 -2.85 -1.9
    endloop
  endfacet
  facet normal 0 0 -1
    outer loop
      vertex -17.8 2.85 -1.9
      vertex -17.8 -2.85 -1.9
      vertex -19.8 3.85 -1.9
    endloop
  endfacet
  facet normal 0 -0 -1
    outer loop
      vertex -0.772542 2.37764 -1.9
      vertex -17.8 2.85 -1.9
      vertex -0.261321 2.4863 -1.9
    endloop
  endfacet
  facet normal 0 0 -1
    outer loop
      vertex -17.8 2.85 -1.9
      vertex -2.5 0 -1.9
      vertex -17.8 -2.85 -1.9
    endloop
  endfacet
  facet normal 0 0 -1
    outer loop
      vertex -2.28386 -1.01684 -1.9
      vertex -17.8 -2.85 -1.9
      vertex -2.44537 -0.519779 -1.9
    endloop
  endfacet
  facet normal 0 0 -1
    outer loop
      vertex -2.44537 -0.519779 -1.9
      vertex -17.8 -2.85 -1.9
      vertex -2.5 0 -1.9
    endloop
  endfacet
  facet normal -0 0 -1
    outer loop
      vertex 2.5 0 -1.9
      vertex 17.8 2.85 -1.9
      vertex 2.44537 -0.519779 -1.9
    endloop
  endfacet
  facet normal 0 0 -1
    outer loop
      vertex 2.28386 -1.01684 -1.9
      vertex 17.8 -2.85 -1.9
      vertex 2.02254 -1.46946 -1.9
    endloop
  endfacet
  facet normal 0 0 -1
    outer loop
      vertex 2.02254 -1.46946 -1.9
      vertex 17.8 -2.85 -1.9
      vertex 1.67283 -1.85786 -1.9
    endloop
  endfacet
  facet normal 0 0 -1
    outer loop
      vertex 1.67283 -1.85786 -1.9
      vertex 17.8 -2.85 -1.9
      vertex 1.25 -2.16506 -1.9
    endloop
  endfacet
  facet normal 0 0 -1
    outer loop
      vertex 1.25 -2.16506 -1.9
      vertex 17.8 -2.85 -1.9
      vertex 0.772542 -2.37764 -1.9
    endloop
  endfacet
  facet normal 0 0 -1
    outer loop
      vertex 0.261321 -2.4863 -1.9
      vertex 17.8 -2.85 -1.9
      vertex -0.261321 -2.4863 -1.9
    endloop
  endfacet
  facet normal 0 0 -1
    outer loop
      vertex 17.8 2.85 -1.9
      vertex 17.8 -2.85 -1.9
      vertex 2.28386 -1.01684 -1.9
    endloop
  endfacet
  facet normal 0 0 -1
    outer loop
      vertex 17.8 2.85 -1.9
      vertex 2.28386 -1.01684 -1.9
      vertex 2.44537 -0.519779 -1.9
    endloop
  endfacet
  facet normal -0 0 -1
    outer loop
      vertex 2.28386 1.01684 -1.9
      vertex 17.8 2.85 -1.9
      vertex 2.44537 0.519779 -1.9
    endloop
  endfacet
  facet normal -0 0 -1
    outer loop
      vertex 2.02254 1.46946 -1.9
      vertex 17.8 2.85 -1.9
      vertex 2.28386 1.01684 -1.9
    endloop
  endfacet
  facet normal -0 0 -1
    outer loop
      vertex 1.67283 1.85786 -1.9
      vertex 17.8 2.85 -1.9
      vertex 2.02254 1.46946 -1.9
    endloop
  endfacet
  facet normal -0 0 -1
    outer loop
      vertex 1.25 2.16506 -1.9
      vertex 17.8 2.85 -1.9
      vertex 1.67283 1.85786 -1.9
    endloop
  endfacet
  facet normal -0 0 -1
    outer loop
      vertex 0.772542 2.37764 -1.9
      vertex 17.8 2.85 -1.9
      vertex 1.25 2.16506 -1.9
    endloop
  endfacet
  facet normal -0 0 -1
    outer loop
      vertex 0.261321 2.4863 -1.9
      vertex 17.8 2.85 -1.9
      vertex 0.772542 2.37764 -1.9
    endloop
  endfacet
  facet normal 0 0 -1
    outer loop
      vertex -17.8 2.85 -1.9
      vertex 17.8 2.85 -1.9
      vertex 0.261321 2.4863 -1.9
    endloop
  endfacet
  facet normal 0 0 -1
    outer loop
      vertex -17.8 2.85 -1.9
      vertex 0.261321 2.4863 -1.9
      vertex -0.261321 2.4863 -1.9
    endloop
  endfacet
  facet normal 0 -0 -1
    outer loop
      vertex -1.25 2.16506 -1.9
      vertex -17.8 2.85 -1.9
      vertex -0.772542 2.37764 -1.9
    endloop
  endfacet
  facet normal 0 -0 -1
    outer loop
      vertex -1.67283 1.85786 -1.9
      vertex -17.8 2.85 -1.9
      vertex -1.25 2.16506 -1.9
    endloop
  endfacet
  facet normal 0 -0 -1
    outer loop
      vertex -2.02254 1.46946 -1.9
      vertex -17.8 2.85 -1.9
      vertex -1.67283 1.85786 -1.9
    endloop
  endfacet
  facet normal 0 -0 -1
    outer loop
      vertex -2.28386 1.01684 -1.9
      vertex -17.8 2.85 -1.9
      vertex -2.02254 1.46946 -1.9
    endloop
  endfacet
  facet normal 0 0 -1
    outer loop
      vertex -17.8 2.85 -1.9
      vertex -2.28386 1.01684 -1.9
      vertex -2.44537 0.519779 -1.9
    endloop
  endfacet
  facet normal 0 0 -1
    outer loop
      vertex -17.8 2.85 -1.9
      vertex -2.44537 0.519779 -1.9
      vertex -2.5 0 -1.9
    endloop
  endfacet
  facet normal -0 0 -1
    outer loop
      vertex 2.44537 0.519779 -1.9
      vertex 17.8 2.85 -1.9
      vertex 2.5 0 -1.9
    endloop
  endfacet
  facet normal 0 0 -1
    outer loop
      vertex 0.772542 -2.37764 -1.9
      vertex 17.8 -2.85 -1.9
      vertex 0.261321 -2.4863 -1.9
    endloop
  endfacet
  facet normal 0 0 -1
    outer loop
      vertex -17.8 -2.85 -1.9
      vertex -2.28386 -1.01684 -1.9
      vertex -2.02254 -1.46946 -1.9
    endloop
  endfacet
  facet normal 0 0 -1
    outer loop
      vertex -17.8 -2.85 -1.9
      vertex -2.02254 -1.46946 -1.9
      vertex -1.67283 -1.85786 -1.9
    endloop
  endfacet
  facet normal 0 0 -1
    outer loop
      vertex -17.8 -2.85 -1.9
      vertex -1.67283 -1.85786 -1.9
      vertex -1.25 -2.16506 -1.9
    endloop
  endfacet
  facet normal 0 0 -1
    outer loop
      vertex -17.8 -2.85 -1.9
      vertex -1.25 -2.16506 -1.9
      vertex -0.772542 -2.37764 -1.9
    endloop
  endfacet
  facet normal 0 0 -1
    outer loop
      vertex -17.8 -2.85 -1.9
      vertex -0.772542 -2.37764 -1.9
      vertex -0.261321 -2.4863 -1.9
    endloop
  endfacet
  facet normal -0 0 -1
    outer loop
      vertex -17.8 -2.85 -1.9
      vertex -0.261321 -2.4863 -1.9
      vertex 17.8 -2.85 -1.9
    endloop
  endfacet
  facet normal 0 1 0
    outer loop
      vertex -19.8 3.85 -1.9
      vertex -19.8 3.85 1.6
      vertex -17.8 3.85 -1.9
    endloop
  endfacet
  facet normal 0 1 0
    outer loop
      vertex -17.8 3.85 -1.9
      vertex -19.8 3.85 1.6
      vertex -17.8 3.85 1.6
    endloop
  endfacet
  facet normal 0 -0 1
    outer loop
      vertex -19.8 3.85 1.6
      vertex -19.8 -3.85 1.6
      vertex -17.8 -3.85 1.6
    endloop
  endfacet
  facet normal -0 0 1
    outer loop
      vertex -13.3 -2.85 1.6
      vertex -19.8 3.85 1.6
      vertex -17.8 -2.85 1.6
    endloop
  endfacet
  facet normal -0 0 1
    outer loop
      vertex -17.8 -2.85 1.6
      vertex -19.8 3.85 1.6
      vertex -17.8 -3.85 1.6
    endloop
  endfacet
  facet normal -0 -0 1
    outer loop
      vertex -17.8 2.85 1.6
      vertex -19.8 3.85 1.6
      vertex -13.3 -2.85 1.6
    endloop
  endfacet
  facet normal 0 0 1
    outer loop
      vertex -13.3 2.85 1.6
      vertex -17.8 2.85 1.6
      vertex -13.3 -2.85 1.6
    endloop
  endfacet
  facet normal 0 0 1
    outer loop
      vertex -17.8 2.85 1.6
      vertex -17.8 3.85 1.6
      vertex -19.8 3.85 1.6
    endloop
  endfacet
  facet normal 1 0 0
    outer loop
      vertex -17.8 -2.85 -1.9
      vertex -17.8 -2.85 1.6
      vertex -17.8 -3.85 1.6
    endloop
  endfacet
  facet normal 1 0 0
    outer loop
      vertex -17.8 -3.85 -1.9
      vertex -17.8 -2.85 -1.9
      vertex -17.8 -3.85 1.6
    endloop
  endfacet
  facet normal 0 -0 0
    outer loop
      vertex 13.3 -2.85 -1.9
      vertex -17.8 -2.85 -1.9
      vertex 17.8 -2.85 -1.9
    endloop
  endfacet
  facet normal 0 -1 0
    outer loop
      vertex -13.3 -2.85 -1.9
      vertex -13.3 -2.85 1.6
      vertex -17.8 -2.85 1.6
    endloop
  endfacet
  facet normal 0 -1 0
    outer loop
      vertex 17.8 -2.85 1.6
      vertex 13.3 -2.85 1.6
      vertex 17.8 -2.85 -1.9
    endloop
  endfacet
  facet normal 0 -0 0
    outer loop
      vertex -13.3 -2.85 -1.9
      vertex -17.8 -2.85 -1.9
      vertex 13.3 -2.85 -1.9
    endloop
  endfacet
  facet normal 0 -1 0
    outer loop
      vertex -17.8 -2.85 1.6
      vertex -17.8 -2.85 -1.9
      vertex -13.3 -2.85 -1.9
    endloop
  endfacet
  facet normal 0 -1 0
    outer loop
      vertex 13.3 -2.85 1.6
      vertex 13.3 -2.85 -1.9
      vertex 17.8 -2.85 -1.9
    endloop
  endfacet
  facet normal -1 0 0
    outer loop
      vertex 17.8 -2.85 1.6
      vertex 17.8 -2.85 -1.9
      vertex 17.8 -3.85 1.6
    endloop
  endfacet
  facet normal -1 0 0
    outer loop
      vertex 17.8 -3.85 1.6
      vertex 17.8 -2.85 -1.9
      vertex 17.8 -3.85 -1.9
    endloop
  endfacet
  facet normal 0 -1 0
    outer loop
      vertex 17.8 -3.85 1.6
      vertex 17.8 -3.85 -1.9
      vertex 19.8 -3.85 -1.9
    endloop
  endfacet
  facet normal 0 -1 0
    outer loop
      vertex 19.8 -3.85 1.6
      vertex 17.8 -3.85 1.6
      vertex 19.8 -3.85 -1.9
    endloop
  endfacet
  facet normal 1 0 -0
    outer loop
      vertex 19.8 -3.85 1.6
      vertex 19.8 -3.85 -1.9
      vertex 19.8 3.85 -1.9
    endloop
  endfacet
  facet normal 1 0 0
    outer loop
      vertex 19.8 3.85 1.6
      vertex 19.8 -3.85 1.6
      vertex 19.8 3.85 -1.9
    endloop
  endfacet
  facet normal 0 1 0
    outer loop
      vertex 17.8 3.85 -1.9
      vertex 17.8 3.85 1.6
      vertex 19.8 3.85 -1.9
    endloop
  endfacet
  facet normal 0 1 0
    outer loop
      vertex 19.8 3.85 -1.9
      vertex 17.8 3.85 1.6
      vertex 19.8 3.85 1.6
    endloop
  endfacet
  facet normal -1 0 0
    outer loop
      vertex 17.8 3.85 1.6
      vertex 17.8 3.85 -1.9
      vertex 17.8 2.85 1.6
    endloop
  endfacet
  facet normal -1 0 0
    outer loop
      vertex 17.8 2.85 1.6
      vertex 17.8 3.85 -1.9
      vertex 17.8 2.85 -1.9
    endloop
  endfacet
  facet normal 0 1 0
    outer loop
      vertex -17.8 2.85 -1.9
      vertex -17.8 2.85 1.6
      vertex -13.3 2.85 -1.9
    endloop
  endfacet
  facet normal 0 0 0
    outer loop
      vertex -17.8 2.85 -1.9
      vertex -13.3 2.85 -1.9
      vertex 17.8 2.85 -1.9
    endloop
  endfacet
  facet normal 0 1 -0
    outer loop
      vertex 13.3 2.85 1.6
      vertex 17.8 2.85 -1.9
      vertex 13.3 2.85 -1.9
    endloop
  endfacet
  facet normal 0 0 0
    outer loop
      vertex -13.3 2.85 -1.9
      vertex 13.3 2.85 -1.9
      vertex 17.8 2.85 -1.9
    endloop
  endfacet
  facet normal 0 1 0
    outer loop
      vertex 17.8 2.85 -1.9
      vertex 13.3 2.85 1.6
      vertex 17.8 2.85 1.6
    endloop
  endfacet
  facet normal 0 1 0
    outer loop
      vertex -13.3 2.85 -1.9
      vertex -17.8 2.85 1.6
      vertex -13.3 2.85 1.6
    endloop
  endfacet
  facet normal 1 0 0
    outer loop
      vertex -17.8 3.85 -1.9
      vertex -17.8 3.85 1.6
      vertex -17.8 2.85 1.6
    endloop
  endfacet
  facet normal 1 0 0
    outer loop
      vertex -17.8 2.85 -1.9
      vertex -17.8 3.85 -1.9
      vertex -17.8 2.85 1.6
    endloop
  endfacet
  facet normal 0.994522 -0.104529 0
    outer loop
      vertex -2.44537 0.519779 -1.9
      vertex -2.44537 0.519779 5.7
      vertex -2.5 0 5.7
    endloop
  endfacet
  facet normal 0.994522 -0.104529 0
    outer loop
      vertex -2.5 0 -1.9
      vertex -2.44537 0.519779 -1.9
      vertex -2.5 0 5.7
    endloop
  endfacet
  facet normal 0.994522 0.104529 0
    outer loop
      vertex -2.5 0 5.7
      vertex -2.44537 -0.519779 5.7
      vertex -2.44537 -0.519779 -1.9
    endloop
  endfacet
  facet normal 0.994522 0.104529 0
    outer loop
      vertex -2.5 0 -1.9
      vertex -2.5 0 5.7
      vertex -2.44537 -0.519779 -1.9
    endloop
  endfacet
  facet normal 0.951057 -0.309016 0
    outer loop
      vertex -2.28386 1.01684 -1.9
      vertex -2.28386 1.01684 5.7
      vertex -2.44537 0.519779 5.7
    endloop
  endfacet
  facet normal 0.951057 -0.309016 0
    outer loop
      vertex -2.44537 0.519779 -1.9
      vertex -2.28386 1.01684 -1.9
      vertex -2.44537 0.519779 5.7
    endloop
  endfacet
  facet normal 0.866024 -0.500002 0
    outer loop
      vertex -2.02254 1.46946 -1.9
      vertex -2.02254 1.46946 5.7
      vertex -2.28386 1.01684 5.7
    endloop
  endfacet
  facet normal 0.866024 -0.500002 0
    outer loop
      vertex -2.28386 1.01684 -1.9
      vertex -2.02254 1.46946 -1.9
      vertex -2.28386 1.01684 5.7
    endloop
  endfacet
  facet normal 0.743146 -0.66913 0
    outer loop
      vertex -1.67283 1.85786 -1.9
      vertex -1.67283 1.85786 5.7
      vertex -2.02254 1.46946 5.7
    endloop
  endfacet
  facet normal 0.743146 -0.66913 0
    outer loop
      vertex -2.02254 1.46946 -1.9
      vertex -1.67283 1.85786 -1.9
      vertex -2.02254 1.46946 5.7
    endloop
  endfacet
  facet normal 0.587786 -0.809017 0
    outer loop
      vertex -1.25 2.16506 -1.9
      vertex -1.25 2.16506 5.7
      vertex -1.67283 1.85786 5.7
    endloop
  endfacet
  facet normal 0.587786 -0.809017 0
    outer loop
      vertex -1.67283 1.85786 -1.9
      vertex -1.25 2.16506 -1.9
      vertex -1.67283 1.85786 5.7
    endloop
  endfacet
  facet normal 0.406735 -0.913546 0
    outer loop
      vertex -0.772542 2.37764 -1.9
      vertex -0.772542 2.37764 5.7
      vertex -1.25 2.16506 5.7
    endloop
  endfacet
  facet normal 0.406735 -0.913546 0
    outer loop
      vertex -1.25 2.16506 -1.9
      vertex -0.772542 2.37764 -1.9
      vertex -1.25 2.16506 5.7
    endloop
  endfacet
  facet normal 0.207913 -0.978147 0
    outer loop
      vertex -0.261321 2.4863 -1.9
      vertex -0.261321 2.4863 5.7
      vertex -0.772542 2.37764 5.7
    endloop
  endfacet
  facet normal 0.207913 -0.978147 0
    outer loop
      vertex -0.772542 2.37764 -1.9
      vertex -0.261321 2.4863 -1.9
      vertex -0.772542 2.37764 5.7
    endloop
  endfacet
  facet normal 0 -1 0
    outer loop
      vertex 0.261321 2.4863 -1.9
      vertex 0.261321 2.4863 5.7
      vertex -0.261321 2.4863 5.7
    endloop
  endfacet
  facet normal -0 -1 -0
    outer loop
      vertex -0.261321 2.4863 -1.9
      vertex 0.261321 2.4863 -1.9
      vertex -0.261321 2.4863 5.7
    endloop
  endfacet
  facet normal -0.207913 -0.978147 -0
    outer loop
      vertex 0.772542 2.37764 -1.9
      vertex 0.772542 2.37764 5.7
      vertex 0.261321 2.4863 5.7
    endloop
  endfacet
  facet normal -0.207913 -0.978147 -0
    outer loop
      vertex 0.261321 2.4863 -1.9
      vertex 0.772542 2.37764 -1.9
      vertex 0.261321 2.4863 5.7
    endloop
  endfacet
  facet normal -0.406735 -0.913546 -0
    outer loop
      vertex 1.25 2.16506 -1.9
      vertex 1.25 2.16506 5.7
      vertex 0.772542 2.37764 5.7
    endloop
  endfacet
  facet normal -0.406735 -0.913546 -0
    outer loop
      vertex 0.772542 2.37764 -1.9
      vertex 1.25 2.16506 -1.9
      vertex 0.772542 2.37764 5.7
    endloop
  endfacet
  facet normal -0.587786 -0.809017 -0
    outer loop
      vertex 1.67283 1.85786 -1.9
      vertex 1.67283 1.85786 5.7
      vertex 1.25 2.16506 5.7
    endloop
  endfacet
  facet normal -0.587786 -0.809017 -0
    outer loop
      vertex 1.25 2.16506 -1.9
      vertex 1.67283 1.85786 -1.9
      vertex 1.25 2.16506 5.7
    endloop
  endfacet
  facet normal -0.743146 -0.66913 0
    outer loop
      vertex 2.02254 1.46946 5.7
      vertex 1.67283 1.85786 5.7
      vertex 2.02254 1.46946 -1.9
    endloop
  endfacet
  facet normal -0.743146 -0.66913 0
    outer loop
      vertex 2.02254 1.46946 -1.9
      vertex 1.67283 1.85786 5.7
      vertex 1.67283 1.85786 -1.9
    endloop
  endfacet
  facet normal -0.866024 -0.500002 0
    outer loop
      vertex 2.28386 1.01684 5.7
      vertex 2.02254 1.46946 5.7
      vertex 2.28386 1.01684 -1.9
    endloop
  endfacet
  facet normal -0.866024 -0.500002 0
    outer loop
      vertex 2.28386 1.01684 -1.9
      vertex 2.02254 1.46946 5.7
      vertex 2.02254 1.46946 -1.9
    endloop
  endfacet
  facet normal -0.951057 -0.309016 0
    outer loop
      vertex 2.44537 0.519779 5.7
      vertex 2.28386 1.01684 5.7
      vertex 2.44537 0.519779 -1.9
    endloop
  endfacet
  facet normal -0.951057 -0.309016 0
    outer loop
      vertex 2.44537 0.519779 -1.9
      vertex 2.28386 1.01684 5.7
      vertex 2.28386 1.01684 -1.9
    endloop
  endfacet
  facet normal -0.994522 -0.104529 0
    outer loop
      vertex 2.5 0 5.7
      vertex 2.44537 0.519779 5.7
      vertex 2.5 0 -1.9
    endloop
  endfacet
  facet normal -0.994522 -0.104529 0
    outer loop
      vertex 2.5 0 -1.9
      vertex 2.44537 0.519779 5.7
      vertex 2.44537 0.519779 -1.9
    endloop
  endfacet
  facet normal -0.994522 0.104529 0
    outer loop
      vertex 2.5 0 5.7
      vertex 2.5 0 -1.9
      vertex 2.44537 -0.519779 5.7
    endloop
  endfacet
  facet normal -0.994522 0.104529 0
    outer loop
      vertex 2.44537 -0.519779 5.7
      vertex 2.5 0 -1.9
      vertex 2.44537 -0.519779 -1.9
    endloop
  endfacet
  facet normal -0.951057 0.309016 0
    outer loop
      vertex 2.44537 -0.519779 5.7
      vertex 2.44537 -0.519779 -1.9
      vertex 2.28386 -1.01684 5.7
    endloop
  endfacet
  facet normal -0.951057 0.309016 0
    outer loop
      vertex 2.28386 -1.01684 5.7
      vertex 2.44537 -0.519779 -1.9
      vertex 2.28386 -1.01684 -1.9
    endloop
  endfacet
  facet normal -0.866024 0.500002 0
    outer loop
      vertex 2.28386 -1.01684 5.7
      vertex 2.28386 -1.01684 -1.9
      vertex 2.02254 -1.46946 5.7
    endloop
  endfacet
  facet normal -0.866024 0.500002 0
    outer loop
      vertex 2.02254 -1.46946 5.7
      vertex 2.28386 -1.01684 -1.9
      vertex 2.02254 -1.46946 -1.9
    endloop
  endfacet
  facet normal -0.743146 0.66913 0
    outer loop
      vertex 2.02254 -1.46946 5.7
      vertex 2.02254 -1.46946 -1.9
      vertex 1.67283 -1.85786 5.7
    endloop
  endfacet
  facet normal -0.743146 0.66913 0
    outer loop
      vertex 1.67283 -1.85786 5.7
      vertex 2.02254 -1.46946 -1.9
      vertex 1.67283 -1.85786 -1.9
    endloop
  endfacet
  facet normal -0.587786 0.809017 0
    outer loop
      vertex 1.67283 -1.85786 5.7
      vertex 1.67283 -1.85786 -1.9
      vertex 1.25 -2.16506 5.7
    endloop
  endfacet
  facet normal -0.587786 0.809017 0
    outer loop
      vertex 1.25 -2.16506 5.7
      vertex 1.67283 -1.85786 -1.9
      vertex 1.25 -2.16506 -1.9
    endloop
  endfacet
  facet normal -0.406735 0.913546 0
    outer loop
      vertex 1.25 -2.16506 5.7
      vertex 1.25 -2.16506 -1.9
      vertex 0.772542 -2.37764 5.7
    endloop
  endfacet
  facet normal -0.406735 0.913546 0
    outer loop
      vertex 0.772542 -2.37764 5.7
      vertex 1.25 -2.16506 -1.9
      vertex 0.772542 -2.37764 -1.9
    endloop
  endfacet
  facet normal -0.207913 0.978147 0
    outer loop
      vertex 0.772542 -2.37764 5.7
      vertex 0.772542 -2.37764 -1.9
      vertex 0.261321 -2.4863 5.7
    endloop
  endfacet
  facet normal -0.207913 0.978147 0
    outer loop
      vertex 0.261321 -2.4863 5.7
      vertex 0.772542 -2.37764 -1.9
      vertex 0.261321 -2.4863 -1.9
    endloop
  endfacet
  facet normal 0 1 0
    outer loop
      vertex 0.261321 -2.4863 5.7
      vertex 0.261321 -2.4863 -1.9
      vertex -0.261321 -2.4863 5.7
    endloop
  endfacet
  facet normal 0 1 -0
    outer loop
      vertex -0.261321 -2.4863 5.7
      vertex 0.261321 -2.4863 -1.9
      vertex -0.261321 -2.4863 -1.9
    endloop
  endfacet
  facet normal 0.207913 0.978147 -0
    outer loop
      vertex -0.261321 -2.4863 5.7
      vertex -0.261321 -2.4863 -1.9
      vertex -0.772542 -2.37764 5.7
    endloop
  endfacet
  facet normal 0.207913 0.978147 -0
    outer loop
      vertex -0.772542 -2.37764 5.7
      vertex -0.261321 -2.4863 -1.9
      vertex -0.772542 -2.37764 -1.9
    endloop
  endfacet
  facet normal 0.406735 0.913546 -0
    outer loop
      vertex -0.772542 -2.37764 5.7
      vertex -0.772542 -2.37764 -1.9
      vertex -1.25 -2.16506 5.7
    endloop
  endfacet
  facet normal 0.406735 0.913546 -0
    outer loop
      vertex -1.25 -2.16506 5.7
      vertex -0.772542 -2.37764 -1.9
      vertex -1.25 -2.16506 -1.9
    endloop
  endfacet
  facet normal 0.587786 0.809017 -0
    outer loop
      vertex -1.25 -2.16506 5.7
      vertex -1.25 -2.16506 -1.9
      vertex -1.67283 -1.85786 5.7
    endloop
  endfacet
  facet normal 0.587786 0.809017 -0
    outer loop
      vertex -1.67283 -1.85786 5.7
      vertex -1.25 -2.16506 -1.9
      vertex -1.67283 -1.85786 -1.9
    endloop
  endfacet
  facet normal 0.743146 0.66913 0
    outer loop
      vertex -2.02254 -1.46946 5.7
      vertex -1.67283 -1.85786 5.7
      vertex -1.67283 -1.85786 -1.9
    endloop
  endfacet
  facet normal 0.743146 0.66913 0
    outer loop
      vertex -2.02254 -1.46946 -1.9
      vertex -2.02254 -1.46946 5.7
      vertex -1.67283 -1.85786 -1.9
    endloop
  endfacet
  facet normal 0.866024 0.500002 0
    outer loop
      vertex -2.28386 -1.01684 5.7
      vertex -2.02254 -1.46946 5.7
      vertex -2.02254 -1.46946 -1.9
    endloop
  endfacet
  facet normal 0.866024 0.500002 0
    outer loop
      vertex -2.28386 -1.01684 -1.9
      vertex -2.28386 -1.01684 5.7
      vertex -2.02254 -1.46946 -1.9
    endloop
  endfacet
  facet normal 0.951057 0.309016 0
    outer loop
      vertex -2.44537 -0.519779 5.7
      vertex -2.28386 -1.01684 5.7
      vertex -2.28386 -1.01684 -1.9
    endloop
  endfacet
  facet normal 0.951057 0.309016 0
    outer loop
      vertex -2.44537 -0.519779 -1.9
      vertex -2.44537 -0.519779 5.7
      vertex -2.28386 -1.01684 -1.9
    endloop
  endfacet
  facet normal -1 -0 -0
    outer loop
      vertex -13.3 -7.5 -1.9
      vertex -13.3 -7.5 1.9
      vertex -13.3 -2.85 -1.9
    endloop
  endfacet
  facet normal -1 0 -0
    outer loop
      vertex -13.3 -2.85 1.6
      vertex -13.3 -7.5 1.9
      vertex -13.3 -1.50354 1.9
    endloop
  endfacet
  facet normal -1 0 0
    outer loop
      vertex -13.3 1.5 1.89
      vertex -13.3 1.50354 1.9
      vertex -13.3 7.5 1.9
    endloop
  endfacet
  facet normal -1 0 0
    outer loop
      vertex -13.3 -2.85 1.6
      vertex -13.3 -1.50354 1.9
      vertex -13.3 -1.5 1.89
    endloop
  endfacet
  facet normal -1 -0 0
    outer loop
      vertex -13.3 2.85 -1.9
      vertex -13.3 7.5 1.9
      vertex -13.3 7.5 -1.9
    endloop
  endfacet
  facet normal -1 0 0
    outer loop
      vertex -13.3 -2.85 1.6
      vertex -13.3 -1.5 1.89
      vertex -13.3 1.5 1.89
    endloop
  endfacet
  facet normal -1 -0 0
    outer loop
      vertex -13.3 1.5 1.89
      vertex -13.3 7.5 1.9
      vertex -13.3 2.85 1.6
    endloop
  endfacet
  facet normal -1 0 0
    outer loop
      vertex -13.3 -2.85 -1.9
      vertex -13.3 -7.5 1.9
      vertex -13.3 -2.85 1.6
    endloop
  endfacet
  facet normal -1 -0 0
    outer loop
      vertex -13.3 2.85 1.6
      vertex -13.3 7.5 1.9
      vertex -13.3 2.85 -1.9
    endloop
  endfacet
  facet normal -1 -0 0
    outer loop
      vertex -13.3 -2.85 1.6
      vertex -13.3 1.5 1.89
      vertex -13.3 2.85 1.6
    endloop
  endfacet
  facet normal -0 -0 -1
    outer loop
      vertex -13.3 -7.5 -1.9
      vertex -13.3 -2.85 -1.9
      vertex 13.3 -7.5 -1.9
    endloop
  endfacet
  facet normal 0 0 -1
    outer loop
      vertex 13.3 -7.5 -1.9
      vertex -13.3 -2.85 -1.9
      vertex 13.3 -2.85 -1.9
    endloop
  endfacet
  facet normal 1 0 -0
    outer loop
      vertex 13.3 -7.5 1.9
      vertex 13.3 -7.5 -1.9
      vertex 13.3 -2.85 -1.9
    endloop
  endfacet
  facet normal 1 -0 0
    outer loop
      vertex 13.3 2.85 1.6
      vertex 13.3 -7.5 1.9
      vertex 13.3 -2.85 1.6
    endloop
  endfacet
  facet normal 1 -0 0
    outer loop
      vertex 13.3 -2.85 1.6
      vertex 13.3 -7.5 1.9
      vertex 13.3 -2.85 -1.9
    endloop
  endfacet
  facet normal 1 0 0
    outer loop
      vertex 13.3 7.5 1.9
      vertex 13.3 -7.5 1.9
      vertex 13.3 2.85 1.6
    endloop
  endfacet
  facet normal 1 -0 0
    outer loop
      vertex 13.3 7.5 -1.9
      vertex 13.3 2.85 1.6
      vertex 13.3 2.85 -1.9
    endloop
  endfacet
  facet normal 1 0 0
    outer loop
      vertex 13.3 7.5 1.9
      vertex 13.3 2.85 1.6
      vertex 13.3 7.5 -1.9
    endloop
  endfacet
  facet normal 0 -0 1
    outer loop
      vertex 13.3 2.85 1.6
      vertex 13.3 -2.85 1.6
      vertex 17.8 -2.85 1.6
    endloop
  endfacet
  facet normal 0 0 1
    outer loop
      vertex 19.8 -3.85 1.6
      vertex 13.3 2.85 1.6
      vertex 17.8 -2.85 1.6
    endloop
  endfacet
  facet normal 0 0 1
    outer loop
      vertex 17.8 -3.85 1.6
      vertex 19.8 -3.85 1.6
      vertex 17.8 -2.85 1.6
    endloop
  endfacet
  facet normal 0 0 1
    outer loop
      vertex 19.8 -3.85 1.6
      vertex 17.8 2.85 1.6
      vertex 13.3 2.85 1.6
    endloop
  endfacet
  facet normal 0 0 1
    outer loop
      vertex 19.8 -3.85 1.6
      vertex 19.8 3.85 1.6
      vertex 17.8 2.85 1.6
    endloop
  endfacet
  facet normal 0 -0 1
    outer loop
      vertex 17.8 3.85 1.6
      vertex 17.8 2.85 1.6
      vertex 19.8 3.85 1.6
    endloop
  endfacet
  facet normal -0 -0 -1
    outer loop
      vertex -13.3 2.85 -1.9
      vertex -13.3 7.5 -1.9
      vertex 13.3 2.85 -1.9
    endloop
  endfacet
  facet normal 0 0 -1
    outer loop
      vertex 13.3 2.85 -1.9
      vertex -13.3 7.5 -1.9
      vertex 13.3 7.5 -1.9
    endloop
  endfacet
  facet normal -2.00341e-16 1.43948e-16 1
    outer loop
      vertex 0.261321 -2.4863 5.7
      vertex -13.3 -2.85 5.7
      vertex 13.3 -2.85 5.7
    endloop
  endfacet
  facet normal -1.8065e-16 -8.49886e-16 1
    outer loop
      vertex 0.261321 2.4863 5.7
      vertex 0.772542 2.37764 5.7
      vertex 13.3 2.85 5.7
    endloop
  endfacet
  facet normal -1.8065e-16 -8.49886e-16 1
    outer loop
      vertex -0.261321 -2.4863 5.7
      vertex -0.772542 -2.37764 5.7
      vertex -13.3 -2.85 5.7
    endloop
  endfacet
  facet normal -1.6365e-16 0 1
    outer loop
      vertex -13.3 2.85 5.7
      vertex -13.3 -2.85 5.7
      vertex -2.44537 -0.519779 5.7
    endloop
  endfacet
  facet normal -1.47116e-16 8.4938e-17 1
    outer loop
      vertex 2.28386 -1.01684 5.7
      vertex 2.02254 -1.46946 5.7
      vertex 13.3 -2.85 5.7
    endloop
  endfacet
  facet normal -1.6917e-16 -1.77804e-17 1
    outer loop
      vertex -13.3 2.85 5.7
      vertex -2.44537 -0.519779 5.7
      vertex -2.5 0 5.7
    endloop
  endfacet
  facet normal -3.9402e-16 1.93199e-15 1
    outer loop
      vertex 1.67283 1.85786 5.7
      vertex 2.02254 1.46946 5.7
      vertex 13.3 2.85 5.7
    endloop
  endfacet
  facet normal -1.60039e-16 1.68208e-17 1
    outer loop
      vertex -13.3 2.85 5.7
      vertex -2.5 0 5.7
      vertex -2.44537 0.519779 5.7
    endloop
  endfacet
  facet normal -2.20674e-16 1.27407e-16 1
    outer loop
      vertex -2.02254 1.46946 5.7
      vertex -13.3 2.85 5.7
      vertex -2.28386 1.01684 5.7
    endloop
  endfacet
  facet normal -1.60039e-16 1.68208e-17 1
    outer loop
      vertex 2.5 0 5.7
      vertex 2.44537 -0.519779 5.7
      vertex 13.3 -2.85 5.7
    endloop
  endfacet
  facet normal -2.12814e-16 1.91618e-16 1
    outer loop
      vertex -1.67283 1.85786 5.7
      vertex -13.3 2.85 5.7
      vertex -2.02254 1.46946 5.7
    endloop
  endfacet
  facet normal -2.05079e-16 2.82267e-16 1
    outer loop
      vertex -1.25 2.16506 5.7
      vertex -13.3 2.85 5.7
      vertex -1.67283 1.85786 5.7
    endloop
  endfacet
  facet normal -1.96089e-16 4.40425e-16 1
    outer loop
      vertex -0.772542 2.37764 5.7
      vertex -13.3 2.85 5.7
      vertex -1.25 2.16506 5.7
    endloop
  endfacet
  facet normal -1.8065e-16 8.49886e-16 1
    outer loop
      vertex -0.261321 2.4863 5.7
      vertex -13.3 2.85 5.7
      vertex -0.772542 2.37764 5.7
    endloop
  endfacet
  facet normal -2.00341e-16 1.43948e-16 1
    outer loop
      vertex 13.3 2.85 5.7
      vertex -13.3 2.85 5.7
      vertex -0.261321 2.4863 5.7
    endloop
  endfacet
  facet normal -1.96089e-16 -4.40425e-16 1
    outer loop
      vertex 0.772542 2.37764 5.7
      vertex 1.25 2.16506 5.7
      vertex 13.3 2.85 5.7
    endloop
  endfacet
  facet normal -3.4247e-31 -7.32629e-15 1
    outer loop
      vertex 13.3 2.85 5.7
      vertex -0.261321 2.4863 5.7
      vertex 0.261321 2.4863 5.7
    endloop
  endfacet
  facet normal -2.05079e-16 -2.82267e-16 1
    outer loop
      vertex 1.25 2.16506 5.7
      vertex 1.67283 1.85786 5.7
      vertex 13.3 2.85 5.7
    endloop
  endfacet
  facet normal -1.52979e-16 4.97057e-17 1
    outer loop
      vertex 2.44537 -0.519779 5.7
      vertex 2.28386 -1.01684 5.7
      vertex 13.3 -2.85 5.7
    endloop
  endfacet
  facet normal -1.57514e-16 0 1
    outer loop
      vertex 13.3 2.85 5.7
      vertex 2.02254 1.46946 5.7
      vertex 13.3 -2.85 5.7
    endloop
  endfacet
  facet normal -2.02236e-16 -1.16761e-16 1
    outer loop
      vertex 2.02254 1.46946 5.7
      vertex 2.28386 1.01684 5.7
      vertex 13.3 -2.85 5.7
    endloop
  endfacet
  facet normal -1.82009e-16 -5.91381e-17 1
    outer loop
      vertex 2.28386 1.01684 5.7
      vertex 2.44537 0.519779 5.7
      vertex 13.3 -2.85 5.7
    endloop
  endfacet
  facet normal -1.6917e-16 -1.77804e-17 1
    outer loop
      vertex 2.44537 0.519779 5.7
      vertex 2.5 0 5.7
      vertex 13.3 -2.85 5.7
    endloop
  endfacet
  facet normal -3.9402e-16 -1.93199e-15 1
    outer loop
      vertex 2.02254 -1.46946 5.7
      vertex 1.67283 -1.85786 5.7
      vertex 13.3 -2.85 5.7
    endloop
  endfacet
  facet normal -2.05079e-16 2.82267e-16 1
    outer loop
      vertex 1.67283 -1.85786 5.7
      vertex 1.25 -2.16506 5.7
      vertex 13.3 -2.85 5.7
    endloop
  endfacet
  facet normal -1.96089e-16 4.40425e-16 1
    outer loop
      vertex 1.25 -2.16506 5.7
      vertex 0.772542 -2.37764 5.7
      vertex 13.3 -2.85 5.7
    endloop
  endfacet
  facet normal -1.8065e-16 8.49886e-16 1
    outer loop
      vertex 0.772542 -2.37764 5.7
      vertex 0.261321 -2.4863 5.7
      vertex 13.3 -2.85 5.7
    endloop
  endfacet
  facet normal 0 -7.32629e-15 1
    outer loop
      vertex -0.261321 -2.4863 5.7
      vertex -13.3 -2.85 5.7
      vertex 0.261321 -2.4863 5.7
    endloop
  endfacet
  facet normal -1.96089e-16 -4.40425e-16 1
    outer loop
      vertex -0.772542 -2.37764 5.7
      vertex -1.25 -2.16506 5.7
      vertex -13.3 -2.85 5.7
    endloop
  endfacet
  facet normal -2.05079e-16 -2.82267e-16 1
    outer loop
      vertex -1.25 -2.16506 5.7
      vertex -1.67283 -1.85786 5.7
      vertex -13.3 -2.85 5.7
    endloop
  endfacet
  facet normal -2.12814e-16 -1.91618e-16 1
    outer loop
      vertex -1.67283 -1.85786 5.7
      vertex -2.02254 -1.46946 5.7
      vertex -13.3 -2.85 5.7
    endloop
  endfacet
  facet normal -2.20674e-16 -1.27407e-16 1
    outer loop
      vertex -2.28386 -1.01684 5.7
      vertex -13.3 -2.85 5.7
      vertex -2.02254 -1.46946 5.7
    endloop
  endfacet
  facet normal -5.1156e-16 1.62064e-15 1
    outer loop
      vertex -2.44537 -0.519779 5.7
      vertex -13.3 -2.85 5.7
      vertex -2.28386 -1.01684 5.7
    endloop
  endfacet
  facet normal -5.1156e-16 -1.62064e-15 1
    outer loop
      vertex -2.44537 0.519779 5.7
      vertex -2.28386 1.01684 5.7
      vertex -13.3 2.85 5.7
    endloop
  endfacet
  facet normal 0 1 0
    outer loop
      vertex -13.3 7.5 -1.9
      vertex -13.3 7.5 1.9
      vertex 13.3 7.5 -1.9
    endloop
  endfacet
  facet normal 0 1 0
    outer loop
      vertex 13.3 7.5 -1.9
      vertex -13.3 7.5 1.9
      vertex 13.3 7.5 1.9
    endloop
  endfacet
  facet normal 0 -0 1
    outer loop
      vertex 0.522642 -4.97261 1.9
      vertex -13.3 -7.5 1.9
      vertex 13.3 -7.5 1.9
    endloop
  endfacet
  facet normal 0 -0 1
    outer loop
      vertex 1.54508 -4.75528 1.9
      vertex 0.522642 -4.97261 1.9
      vertex 13.3 -7.5 1.9
    endloop
  endfacet
  facet normal 0 0 1
    outer loop
      vertex -1.54508 -4.75528 1.9
      vertex -2.5 -4.33013 1.9
      vertex -13.3 -1.50354 1.9
    endloop
  endfacet
  facet normal 0 0 1
    outer loop
      vertex 4.56773 2.03368 1.9
      vertex 13.3 1.50354 1.9
      vertex 4.04508 2.93893 1.9
    endloop
  endfacet
  facet normal 0 0 1
    outer loop
      vertex 4.73998 1.50354 1.9
      vertex 13.3 1.50354 1.9
      vertex 4.56773 2.03368 1.9
    endloop
  endfacet
  facet normal 0 0 1
    outer loop
      vertex -13.3 1.50354 1.9
      vertex -4.73998 1.50354 1.9
      vertex -4.56773 2.03368 1.9
    endloop
  endfacet
  facet normal 0 0 1
    outer loop
      vertex -13.3 1.50354 1.9
      vertex -4.56773 2.03368 1.9
      vertex -4.04508 2.93893 1.9
    endloop
  endfacet
  facet normal 0 0 1
    outer loop
      vertex -0.522642 4.97261 1.9
      vertex 0.522642 4.97261 1.9
      vertex 13.3 7.5 1.9
    endloop
  endfacet
  facet normal 0 0 1
    outer loop
      vertex -13.3 1.50354 1.9
      vertex -4.04508 2.93893 1.9
      vertex -3.34565 3.71572 1.9
    endloop
  endfacet
  facet normal 0 -0 1
    outer loop
      vertex -13.3 7.5 1.9
      vertex -13.3 1.50354 1.9
      vertex -2.5 4.33013 1.9
    endloop
  endfacet
  facet normal 0 0 1
    outer loop
      vertex -13.3 7.5 1.9
      vertex -2.5 4.33013 1.9
      vertex -1.54508 4.75528 1.9
    endloop
  endfacet
  facet normal 0 0 1
    outer loop
      vertex -13.3 7.5 1.9
      vertex -0.522642 4.97261 1.9
      vertex 13.3 7.5 1.9
    endloop
  endfacet
  facet normal 0 0 1
    outer loop
      vertex -13.3 7.5 1.9
      vertex -1.54508 4.75528 1.9
      vertex -0.522642 4.97261 1.9
    endloop
  endfacet
  facet normal -0 -0 1
    outer loop
      vertex 13.3 -1.50354 1.9
      vertex 4.73998 -1.50354 1.9
      vertex 13.3 -7.5 1.9
    endloop
  endfacet
  facet normal 0 0 1
    outer loop
      vertex 13.3 7.5 1.9
      vertex 3.34565 3.71572 1.9
      vertex 4.04508 2.93893 1.9
    endloop
  endfacet
  facet normal 0 0 1.18424e-16
    outer loop
      vertex 13.3 7.5 1.9
      vertex 13.3 1.50354 1.9
      vertex 13.3 -7.5 1.9
    endloop
  endfacet
  facet normal 0 0 1
    outer loop
      vertex 13.3 7.5 1.9
      vertex 4.04508 2.93893 1.9
      vertex 13.3 1.50354 1.9
    endloop
  endfacet
  facet normal 0 -0 2.6319e-16
    outer loop
      vertex 13.3 1.50354 1.9
      vertex 13.3 -1.50354 1.9
      vertex 13.3 -7.5 1.9
    endloop
  endfacet
  facet normal 0 -0 1
    outer loop
      vertex 4.73998 -1.50354 1.9
      vertex 4.56773 -2.03368 1.9
      vertex 13.3 -7.5 1.9
    endloop
  endfacet
  facet normal 0 -0 1
    outer loop
      vertex 4.56773 -2.03368 1.9
      vertex 4.04508 -2.93893 1.9
      vertex 13.3 -7.5 1.9
    endloop
  endfacet
  facet normal 0 -0 1
    outer loop
      vertex 4.04508 -2.93893 1.9
      vertex 3.34565 -3.71572 1.9
      vertex 13.3 -7.5 1.9
    endloop
  endfacet
  facet normal 0 0 1
    outer loop
      vertex -4.56773 -2.03368 1.9
      vertex -4.73998 -1.50354 1.9
      vertex -13.3 -1.50354 1.9
    endloop
  endfacet
  facet normal 0 -0 1
    outer loop
      vertex 3.34565 -3.71572 1.9
      vertex 2.5 -4.33013 1.9
      vertex 13.3 -7.5 1.9
    endloop
  endfacet
  facet normal 0 -0 1
    outer loop
      vertex 2.5 -4.33013 1.9
      vertex 1.54508 -4.75528 1.9
      vertex 13.3 -7.5 1.9
    endloop
  endfacet
  facet normal 0 -0 1
    outer loop
      vertex -0.522642 -4.97261 1.9
      vertex -13.3 -7.5 1.9
      vertex 0.522642 -4.97261 1.9
    endloop
  endfacet
  facet normal 0 -0 1
    outer loop
      vertex -1.54508 -4.75528 1.9
      vertex -13.3 -7.5 1.9
      vertex -0.522642 -4.97261 1.9
    endloop
  endfacet
  facet normal 0 0 1
    outer loop
      vertex -2.5 -4.33013 1.9
      vertex -3.34565 -3.71572 1.9
      vertex -13.3 -1.50354 1.9
    endloop
  endfacet
  facet normal 0 -0 1
    outer loop
      vertex -13.3 -1.50354 1.9
      vertex -13.3 -7.5 1.9
      vertex -1.54508 -4.75528 1.9
    endloop
  endfacet
  facet normal 0 0 1
    outer loop
      vertex -3.34565 -3.71572 1.9
      vertex -4.04508 -2.93893 1.9
      vertex -13.3 -1.50354 1.9
    endloop
  endfacet
  facet normal 0 0 1
    outer loop
      vertex -4.04508 -2.93893 1.9
      vertex -4.56773 -2.03368 1.9
      vertex -13.3 -1.50354 1.9
    endloop
  endfacet
  facet normal 0 0 1
    outer loop
      vertex 1.54508 4.75528 1.9
      vertex 2.5 4.33013 1.9
      vertex 13.3 7.5 1.9
    endloop
  endfacet
  facet normal -0 0 1
    outer loop
      vertex -3.34565 3.71572 1.9
      vertex -2.5 4.33013 1.9
      vertex -13.3 1.50354 1.9
    endloop
  endfacet
  facet normal 0 0 1
    outer loop
      vertex 0.522642 4.97261 1.9
      vertex 1.54508 4.75528 1.9
      vertex 13.3 7.5 1.9
    endloop
  endfacet
  facet normal 0 0 1
    outer loop
      vertex 2.5 4.33013 1.9
      vertex 3.34565 3.71572 1.9
      vertex 13.3 7.5 1.9
    endloop
  endfacet
  facet normal 2.81254e-16 0.942579 -0.333985
    outer loop
      vertex -4.56773 2.03368 3.39617
      vertex -13.3 1.50354 1.9
      vertex -13.3 2.85 5.7
    endloop
  endfacet
  facet normal 2.93403e-16 0.942579 -0.333985
    outer loop
      vertex 4.73998 1.50354 1.9
      vertex 13.3 2.85 5.7
      vertex 13.3 1.50354 1.9
    endloop
  endfacet
  facet normal 3.24021e-16 0.942579 -0.333985
    outer loop
      vertex 4.56773 2.03368 3.39617
      vertex 13.3 2.85 5.7
      vertex 4.73998 1.50354 1.9
    endloop
  endfacet
  facet normal 3.26555e-16 0.942579 -0.333985
    outer loop
      vertex -4.56773 2.03368 3.39617
      vertex -13.3 2.85 5.7
      vertex -4.09643 2.85 5.7
    endloop
  endfacet
  facet normal 3.90995e-32 1.44267e-16 -4.34824e-17
    outer loop
      vertex -4.09643 2.85 5.7
      vertex 13.3 2.85 5.7
      vertex 4.09643 2.85 5.7
    endloop
  endfacet
  facet normal 2.3413e-32 6.93178e-17 -3.59948e-17
    outer loop
      vertex -13.3 2.85 5.7
      vertex 13.3 2.85 5.7
      vertex -4.09643 2.85 5.7
    endloop
  endfacet
  facet normal 2.68953e-16 0.942579 -0.333985
    outer loop
      vertex -13.3 1.50354 1.9
      vertex -4.56773 2.03368 3.39617
      vertex -4.73998 1.50354 1.9
    endloop
  endfacet
  facet normal 1.07173e-16 1.22371e-18 -4.336e-19
    outer loop
      vertex -13.3 2.85 5.7
      vertex -13.3 1.50354 1.9
      vertex -13.3 1.5 1.89
    endloop
  endfacet
  facet normal 2.84347e-16 0.942579 -0.333985
    outer loop
      vertex 4.09643 2.85 5.7
      vertex 13.3 2.85 5.7
      vertex 4.56773 2.03368 3.39617
    endloop
  endfacet
  facet normal 4.96565e-17 -4.68692e-16 -1.66072e-16
    outer loop
      vertex -13.3 -1.50354 1.9
      vertex -13.3 -2.85 5.7
      vertex -13.3 -1.5 1.89
    endloop
  endfacet
  facet normal -1.48287e-16 -0.942579 -0.333985
    outer loop
      vertex -4.56773 -2.03368 3.39617
      vertex -13.3 -2.85 5.7
      vertex -13.3 -1.50354 1.9
    endloop
  endfacet
  facet normal -1.36443e-16 -0.942579 -0.333985
    outer loop
      vertex -4.09643 -2.85 5.7
      vertex -13.3 -2.85 5.7
      vertex -4.56773 -2.03368 3.39617
    endloop
  endfacet
  facet normal -1.00341e-32 -6.93178e-17 -2.5009e-17
    outer loop
      vertex 13.3 -2.85 5.7
      vertex -13.3 -2.85 5.7
      vertex -4.09643 -2.85 5.7
    endloop
  endfacet
  facet normal -1.56398e-32 -1.44267e-16 -6.91671e-17
    outer loop
      vertex 13.3 -2.85 5.7
      vertex -4.09643 -2.85 5.7
      vertex 4.09643 -2.85 5.7
    endloop
  endfacet
  facet normal -1.00213e-16 -0.942579 -0.333985
    outer loop
      vertex 4.73998 -1.50354 1.9
      vertex 13.3 -2.85 5.7
      vertex 4.56773 -2.03368 3.39617
    endloop
  endfacet
  facet normal -1.46701e-16 -0.942579 -0.333985
    outer loop
      vertex 13.3 -1.50354 1.9
      vertex 13.3 -2.85 5.7
      vertex 4.73998 -1.50354 1.9
    endloop
  endfacet
  facet normal -1.46701e-16 -0.942579 -0.333985
    outer loop
      vertex -4.73998 -1.50354 1.9
      vertex -4.56773 -2.03368 3.39617
      vertex -13.3 -1.50354 1.9
    endloop
  endfacet
  facet normal -1.70465e-16 -0.942579 -0.333985
    outer loop
      vertex 4.09643 -2.85 5.7
      vertex 4.56773 -2.03368 3.39617
      vertex 13.3 -2.85 5.7
    endloop
  endfacet
  facet normal 0 -1 0
    outer loop
      vertex -13.3 -7.5 1.9
      vertex -13.3 -7.5 -1.9
      vertex 13.3 -7.5 -1.9
    endloop
  endfacet
  facet normal 0 -1 0
    outer loop
      vertex 13.3 -7.5 1.9
      vertex -13.3 -7.5 1.9
      vertex 13.3 -7.5 -1.9
    endloop
  endfacet
  facet normal -1 0 0
    outer loop
      vertex -13.3 -2.85 5.7
      vertex -13.3 2.85 5.7
      vertex -13.3 -1.5 1.89
    endloop
  endfacet
  facet normal -1 5.92119e-16 -6.76041e-16
    outer loop
      vertex -13.3 -1.5 1.89
      vertex -13.3 2.85 5.7
      vertex -13.3 1.5 1.89
    endloop
  endfacet
  facet normal 1 0 0
    outer loop
      vertex 13.3 2.85 5.7
      vertex 13.3 -2.85 5.7
      vertex 13.3 -1.50354 1.9
    endloop
  endfacet
  facet normal 1 -5.90724e-16 6.76774e-16
    outer loop
      vertex 13.3 1.50354 1.9
      vertex 13.3 2.85 5.7
      vertex 13.3 -1.50354 1.9
    endloop
  endfacet
  facet normal -0.951056 -0.309017 0
    outer loop
      vertex -4.56773 -2.03368 3.39617
      vertex -4.73998 -1.50354 1.9
      vertex -4.56773 -2.03368 1.9
    endloop
  endfacet
  facet normal -0.866026 -0.5 -0
    outer loop
      vertex -4.56773 -2.03368 1.9
      vertex -4.04508 -2.93893 1.9
      vertex -4.56773 -2.03368 3.39617
    endloop
  endfacet
  facet normal -0.866026 -0.5 0
    outer loop
      vertex -4.56773 -2.03368 3.39617
      vertex -4.04508 -2.93893 1.9
      vertex -4.04508 -2.93893 5.7
    endloop
  endfacet
  facet normal -0.866026 -0.5 3.09953e-15
    outer loop
      vertex -4.56773 -2.03368 3.39617
      vertex -4.04508 -2.93893 5.7
      vertex -4.09643 -2.85 5.7
    endloop
  endfacet
  facet normal -0.743145 -0.669131 -0
    outer loop
      vertex -4.04508 -2.93893 1.9
      vertex -3.34565 -3.71572 1.9
      vertex -4.04508 -2.93893 5.7
    endloop
  endfacet
  facet normal -0.743145 -0.669131 0
    outer loop
      vertex -4.04508 -2.93893 5.7
      vertex -3.34565 -3.71572 1.9
      vertex -3.34565 -3.71572 5.7
    endloop
  endfacet
  facet normal -0.587785 -0.809017 0
    outer loop
      vertex -3.34565 -3.71572 5.7
      vertex -3.34565 -3.71572 1.9
      vertex -2.5 -4.33013 1.9
    endloop
  endfacet
  facet normal -0.587785 -0.809017 0
    outer loop
      vertex -2.5 -4.33013 5.7
      vertex -3.34565 -3.71572 5.7
      vertex -2.5 -4.33013 1.9
    endloop
  endfacet
  facet normal -0.406737 -0.913545 0
    outer loop
      vertex -2.5 -4.33013 5.7
      vertex -2.5 -4.33013 1.9
      vertex -1.54508 -4.75528 1.9
    endloop
  endfacet
  facet normal -0.406737 -0.913545 0
    outer loop
      vertex -1.54508 -4.75528 5.7
      vertex -2.5 -4.33013 5.7
      vertex -1.54508 -4.75528 1.9
    endloop
  endfacet
  facet normal -0.207911 -0.978148 0
    outer loop
      vertex -1.54508 -4.75528 5.7
      vertex -1.54508 -4.75528 1.9
      vertex -0.522642 -4.97261 1.9
    endloop
  endfacet
  facet normal -0.207911 -0.978148 0
    outer loop
      vertex -0.522642 -4.97261 5.7
      vertex -1.54508 -4.75528 5.7
      vertex -0.522642 -4.97261 1.9
    endloop
  endfacet
  facet normal 0 -1 0
    outer loop
      vertex -0.522642 -4.97261 5.7
      vertex -0.522642 -4.97261 1.9
      vertex 0.522642 -4.97261 1.9
    endloop
  endfacet
  facet normal 0 -1 0
    outer loop
      vertex 0.522642 -4.97261 5.7
      vertex -0.522642 -4.97261 5.7
      vertex 0.522642 -4.97261 1.9
    endloop
  endfacet
  facet normal 0.207911 -0.978148 0
    outer loop
      vertex 0.522642 -4.97261 5.7
      vertex 0.522642 -4.97261 1.9
      vertex 1.54508 -4.75528 1.9
    endloop
  endfacet
  facet normal 0.207911 -0.978148 0
    outer loop
      vertex 1.54508 -4.75528 5.7
      vertex 0.522642 -4.97261 5.7
      vertex 1.54508 -4.75528 1.9
    endloop
  endfacet
  facet normal 0.406737 -0.913545 0
    outer loop
      vertex 1.54508 -4.75528 5.7
      vertex 1.54508 -4.75528 1.9
      vertex 2.5 -4.33013 1.9
    endloop
  endfacet
  facet normal 0.406737 -0.913545 0
    outer loop
      vertex 2.5 -4.33013 5.7
      vertex 1.54508 -4.75528 5.7
      vertex 2.5 -4.33013 1.9
    endloop
  endfacet
  facet normal 0.587785 -0.809017 0
    outer loop
      vertex 2.5 -4.33013 5.7
      vertex 2.5 -4.33013 1.9
      vertex 3.34565 -3.71572 1.9
    endloop
  endfacet
  facet normal 0.587785 -0.809017 0
    outer loop
      vertex 3.34565 -3.71572 5.7
      vertex 2.5 -4.33013 5.7
      vertex 3.34565 -3.71572 1.9
    endloop
  endfacet
  facet normal 0.743145 -0.669131 0
    outer loop
      vertex 3.34565 -3.71572 5.7
      vertex 3.34565 -3.71572 1.9
      vertex 4.04508 -2.93893 1.9
    endloop
  endfacet
  facet normal 0.743145 -0.669131 0
    outer loop
      vertex 4.04508 -2.93893 5.7
      vertex 3.34565 -3.71572 5.7
      vertex 4.04508 -2.93893 1.9
    endloop
  endfacet
  facet normal 0.866026 -0.5 0
    outer loop
      vertex 4.04508 -2.93893 5.7
      vertex 4.04508 -2.93893 1.9
      vertex 4.56773 -2.03368 1.9
    endloop
  endfacet
  facet normal 0.866026 -0.5 1.09997e-15
    outer loop
      vertex 4.09643 -2.85 5.7
      vertex 4.04508 -2.93893 5.7
      vertex 4.56773 -2.03368 3.39617
    endloop
  endfacet
  facet normal 0.866026 -0.5 0
    outer loop
      vertex 4.56773 -2.03368 3.39617
      vertex 4.04508 -2.93893 5.7
      vertex 4.56773 -2.03368 1.9
    endloop
  endfacet
  facet normal 0.951056 -0.309017 0
    outer loop
      vertex 4.56773 -2.03368 3.39617
      vertex 4.56773 -2.03368 1.9
      vertex 4.73998 -1.50354 1.9
    endloop
  endfacet
  facet normal 0.951056 0.309017 0
    outer loop
      vertex 4.73998 1.50354 1.9
      vertex 4.56773 2.03368 1.9
      vertex 4.56773 2.03368 3.39617
    endloop
  endfacet
  facet normal 0.866026 0.5 0
    outer loop
      vertex 4.56773 2.03368 1.9
      vertex 4.04508 2.93893 1.9
      vertex 4.04508 2.93893 5.7
    endloop
  endfacet
  facet normal 0.866026 0.5 -0
    outer loop
      vertex 4.56773 2.03368 3.39617
      vertex 4.56773 2.03368 1.9
      vertex 4.09643 2.85 5.7
    endloop
  endfacet
  facet normal 0.866026 0.5 4.89127e-16
    outer loop
      vertex 4.09643 2.85 5.7
      vertex 4.56773 2.03368 1.9
      vertex 4.04508 2.93893 5.7
    endloop
  endfacet
  facet normal 0.743145 0.669131 0
    outer loop
      vertex 4.04508 2.93893 1.9
      vertex 3.34565 3.71572 1.9
      vertex 3.34565 3.71572 5.7
    endloop
  endfacet
  facet normal 0.743145 0.669131 -0
    outer loop
      vertex 4.04508 2.93893 5.7
      vertex 4.04508 2.93893 1.9
      vertex 3.34565 3.71572 5.7
    endloop
  endfacet
  facet normal 0.587785 0.809017 0
    outer loop
      vertex 2.5 4.33013 1.9
      vertex 2.5 4.33013 5.7
      vertex 3.34565 3.71572 1.9
    endloop
  endfacet
  facet normal 0.587785 0.809017 0
    outer loop
      vertex 3.34565 3.71572 1.9
      vertex 2.5 4.33013 5.7
      vertex 3.34565 3.71572 5.7
    endloop
  endfacet
  facet normal 0.406737 0.913545 0
    outer loop
      vertex 1.54508 4.75528 1.9
      vertex 1.54508 4.75528 5.7
      vertex 2.5 4.33013 1.9
    endloop
  endfacet
  facet normal 0.406737 0.913545 0
    outer loop
      vertex 2.5 4.33013 1.9
      vertex 1.54508 4.75528 5.7
      vertex 2.5 4.33013 5.7
    endloop
  endfacet
  facet normal 0.207911 0.978148 0
    outer loop
      vertex 0.522642 4.97261 1.9
      vertex 0.522642 4.97261 5.7
      vertex 1.54508 4.75528 1.9
    endloop
  endfacet
  facet normal 0.207911 0.978148 0
    outer loop
      vertex 1.54508 4.75528 1.9
      vertex 0.522642 4.97261 5.7
      vertex 1.54508 4.75528 5.7
    endloop
  endfacet
  facet normal 0 1 0
    outer loop
      vertex -0.522642 4.97261 1.9
      vertex -0.522642 4.97261 5.7
      vertex 0.522642 4.97261 1.9
    endloop
  endfacet
  facet normal 0 1 0
    outer loop
      vertex 0.522642 4.97261 1.9
      vertex -0.522642 4.97261 5.7
      vertex 0.522642 4.97261 5.7
    endloop
  endfacet
  facet normal -0.207911 0.978148 0
    outer loop
      vertex -1.54508 4.75528 1.9
      vertex -1.54508 4.75528 5.7
      vertex -0.522642 4.97261 1.9
    endloop
  endfacet
  facet normal -0.207911 0.978148 0
    outer loop
      vertex -0.522642 4.97261 1.9
      vertex -1.54508 4.75528 5.7
      vertex -0.522642 4.97261 5.7
    endloop
  endfacet
  facet normal -0.406737 0.913545 0
    outer loop
      vertex -2.5 4.33013 1.9
      vertex -2.5 4.33013 5.7
      vertex -1.54508 4.75528 1.9
    endloop
  endfacet
  facet normal -0.406737 0.913545 0
    outer loop
      vertex -1.54508 4.75528 1.9
      vertex -2.5 4.33013 5.7
      vertex -1.54508 4.75528 5.7
    endloop
  endfacet
  facet normal -0.587785 0.809017 0
    outer loop
      vertex -3.34565 3.71572 1.9
      vertex -3.34565 3.71572 5.7
      vertex -2.5 4.33013 1.9
    endloop
  endfacet
  facet normal -0.587785 0.809017 0
    outer loop
      vertex -2.5 4.33013 1.9
      vertex -3.34565 3.71572 5.7
      vertex -2.5 4.33013 5.7
    endloop
  endfacet
  facet normal -0.743145 0.669131 0
    outer loop
      vertex -4.04508 2.93893 1.9
      vertex -4.04508 2.93893 5.7
      vertex -3.34565 3.71572 1.9
    endloop
  endfacet
  facet normal -0.743145 0.669131 0
    outer loop
      vertex -3.34565 3.71572 1.9
      vertex -4.04508 2.93893 5.7
      vertex -3.34565 3.71572 5.7
    endloop
  endfacet
  facet normal -0.866026 0.5 0
    outer loop
      vertex -4.56773 2.03368 1.9
      vertex -4.56773 2.03368 3.39617
      vertex -4.04508 2.93893 1.9
    endloop
  endfacet
  facet normal -0.866026 0.5 1.65026e-16
    outer loop
      vertex -4.04508 2.93893 1.9
      vertex -4.56773 2.03368 3.39617
      vertex -4.09643 2.85 5.7
    endloop
  endfacet
  facet normal -0.866026 0.5 0
    outer loop
      vertex -4.04508 2.93893 1.9
      vertex -4.09643 2.85 5.7
      vertex -4.04508 2.93893 5.7
    endloop
  endfacet
  facet normal -0.951056 0.309017 0
    outer loop
      vertex -4.56773 2.03368 1.9
      vertex -4.73998 1.50354 1.9
      vertex -4.56773 2.03368 3.39617
    endloop
  endfacet
  facet normal 0 -0 1
    outer loop
      vertex -4.04508 2.93893 5.7
      vertex -4.09643 2.85 5.7
      vertex 4.09643 2.85 5.7
    endloop
  endfacet
  facet normal 0 -0 1
    outer loop
      vertex 3.34565 3.71572 5.7
      vertex -4.04508 2.93893 5.7
      vertex 4.04508 2.93893 5.7
    endloop
  endfacet
  facet normal 0 -0 1
    outer loop
      vertex 4.04508 2.93893 5.7
      vertex -4.04508 2.93893 5.7
      vertex 4.09643 2.85 5.7
    endloop
  endfacet
  facet normal 0 -0 1
    outer loop
      vertex 2.5 4.33013 5.7
      vertex -4.04508 2.93893 5.7
      vertex 3.34565 3.71572 5.7
    endloop
  endfacet
  facet normal 0 -0 1
    outer loop
      vertex 1.54508 4.75528 5.7
      vertex -4.04508 2.93893 5.7
      vertex 2.5 4.33013 5.7
    endloop
  endfacet
  facet normal 0 -0 1
    outer loop
      vertex 0.522642 4.97261 5.7
      vertex -4.04508 2.93893 5.7
      vertex 1.54508 4.75528 5.7
    endloop
  endfacet
  facet normal 0 -0 1
    outer loop
      vertex -0.522642 4.97261 5.7
      vertex -4.04508 2.93893 5.7
      vertex 0.522642 4.97261 5.7
    endloop
  endfacet
  facet normal 0 -0 1
    outer loop
      vertex -1.54508 4.75528 5.7
      vertex -4.04508 2.93893 5.7
      vertex -0.522642 4.97261 5.7
    endloop
  endfacet
  facet normal 0 -0 1
    outer loop
      vertex -2.5 4.33013 5.7
      vertex -4.04508 2.93893 5.7
      vertex -1.54508 4.75528 5.7
    endloop
  endfacet
  facet normal 0 -0 1
    outer loop
      vertex -3.34565 3.71572 5.7
      vertex -4.04508 2.93893 5.7
      vertex -2.5 4.33013 5.7
    endloop
  endfacet
  facet normal -0 0 1
    outer loop
      vertex 4.09643 -2.85 5.7
      vertex -4.09643 -2.85 5.7
      vertex -4.04508 -2.93893 5.7
    endloop
  endfacet
  facet normal 0 0 1
    outer loop
      vertex -2.5 -4.33013 5.7
      vertex 4.09643 -2.85 5.7
      vertex -3.34565 -3.71572 5.7
    endloop
  endfacet
  facet normal 0 0 1
    outer loop
      vertex -3.34565 -3.71572 5.7
      vertex 4.09643 -2.85 5.7
      vertex -4.04508 -2.93893 5.7
    endloop
  endfacet
  facet normal 0 0 1
    outer loop
      vertex -1.54508 -4.75528 5.7
      vertex 4.09643 -2.85 5.7
      vertex -2.5 -4.33013 5.7
    endloop
  endfacet
  facet normal 0 0 1
    outer loop
      vertex -0.522642 -4.97261 5.7
      vertex 4.09643 -2.85 5.7
      vertex -1.54508 -4.75528 5.7
    endloop
  endfacet
  facet normal -0 0 1
    outer loop
      vertex 0.522642 -4.97261 5.7
      vertex 4.09643 -2.85 5.7
      vertex -0.522642 -4.97261 5.7
    endloop
  endfacet
  facet normal -0 0 1
    outer loop
      vertex 1.54508 -4.75528 5.7
      vertex 4.09643 -2.85 5.7
      vertex 0.522642 -4.97261 5.7
    endloop
  endfacet
  facet normal -0 0 1
    outer loop
      vertex 2.5 -4.33013 5.7
      vertex 4.09643 -2.85 5.7
      vertex 1.54508 -4.75528 5.7
    endloop
  endfacet
  facet normal -0 0 1
    outer loop
      vertex 3.34565 -3.71572 5.7
      vertex 4.09643 -2.85 5.7
      vertex 2.5 -4.33013 5.7
    endloop
  endfacet
  facet normal -0 0 1
    outer loop
      vertex 4.04508 -2.93893 5.7
      vertex 4.09643 -2.85 5.7
      vertex 3.34565 -3.71572 5.7
    endloop
  endfacet
endsolid OpenSCAD_Model
