solid OpenSCAD_Model
  facet normal -1 -0 -0
    outer loop
      vertex -7.5 -40 0
      vertex -7.5 -40 3.8
      vertex -7.5 40 0
    endloop
  endfacet
  facet normal -1 0 0
    outer loop
      vertex -7.5 40 0
      vertex -7.5 -40 3.8
      vertex -7.5 40 3.8
    endloop
  endfacet
  facet normal -0.994522 -0.104528 -0
    outer loop
      vertex -7.5 -40 0
      vertex -7.33611 -41.5593 0
      vertex -7.5 -40 3.8
    endloop
  endfacet
  facet normal -0.994522 -0.104528 0
    outer loop
      vertex -7.5 -40 3.8
      vertex -7.33611 -41.5593 0
      vertex -7.33611 -41.5593 3.8
    endloop
  endfacet
  facet normal -0 -0 -1
    outer loop
      vertex -7.5 -40 0
      vertex -7.5 40 0
      vertex -7.33611 -41.5593 0
    endloop
  endfacet
  facet normal 0 0 -1
    outer loop
      vertex -7.33611 -41.5593 0
      vertex -7.5 40 0
      vertex -7.33611 41.5593 0
    endloop
  endfacet
  facet normal 0 -0 -1
    outer loop
      vertex -7.33611 -41.5593 0
      vertex -7.33611 41.5593 0
      vertex -6.85159 43.0505 0
    endloop
  endfacet
  facet normal 0 0 -1
    outer loop
      vertex -7.33611 -41.5593 0
      vertex -6.85159 43.0505 0
      vertex -6.06763 44.4084 0
    endloop
  endfacet
  facet normal 0 0 -1
    outer loop
      vertex -7.33611 -41.5593 0
      vertex -6.06763 44.4084 0
      vertex -5.01848 45.5736 0
    endloop
  endfacet
  facet normal 0 0 -1
    outer loop
      vertex -7.33611 -41.5593 0
      vertex -5.01848 45.5736 0
      vertex -3.75 46.4952 0
    endloop
  endfacet
  facet normal 0 0 -1
    outer loop
      vertex -7.33611 -41.5593 0
      vertex -3.75 46.4952 0
      vertex -2.31763 47.1329 0
    endloop
  endfacet
  facet normal 0 -0 -1
    outer loop
      vertex -2.28386 41.0168 0
      vertex -2.31763 47.1329 0
      vertex -0.783963 47.4589 0
    endloop
  endfacet
  facet normal 0 -0 -1
    outer loop
      vertex -0.772542 42.3776 0
      vertex -0.783963 47.4589 0
      vertex 0.783963 47.4589 0
    endloop
  endfacet
  facet normal 0 -0 -1
    outer loop
      vertex 1.25 42.1651 0
      vertex 0.783963 47.4589 0
      vertex 2.31763 47.1329 0
    endloop
  endfacet
  facet normal 0 0 -1
    outer loop
      vertex 2.28386 41.0168 0
      vertex 2.31763 47.1329 0
      vertex 3.75 46.4952 0
    endloop
  endfacet
  facet normal 0 0 -1
    outer loop
      vertex -0.344944 3.28192 0
      vertex 5.01848 45.5736 0
      vertex 6.06763 44.4084 0
    endloop
  endfacet
  facet normal 0 0 -1
    outer loop
      vertex -1.65 2.85788 0
      vertex 5.01848 45.5736 0
      vertex -1.01976 3.13849 0
    endloop
  endfacet
  facet normal 0 0 -1
    outer loop
      vertex 0.344944 3.28192 0
      vertex 6.85159 43.0505 0
      vertex 7.33611 41.5593 0
    endloop
  endfacet
  facet normal 0 0 -1
    outer loop
      vertex -2.66976 1.93969 0
      vertex 3.75 46.4952 0
      vertex -2.20813 2.45238 0
    endloop
  endfacet
  facet normal -0 0 -1
    outer loop
      vertex 3.3 0 0
      vertex 7.5 40 0
      vertex 7.5 -40 0
    endloop
  endfacet
  facet normal -0 0 -1
    outer loop
      vertex 2.02254 -41.4695 0
      vertex 7.5 -40 0
      vertex 7.33611 -41.5593 0
    endloop
  endfacet
  facet normal -0 0 -1
    outer loop
      vertex 1.25 -42.1651 0
      vertex 7.33611 -41.5593 0
      vertex 6.85159 -43.0505 0
    endloop
  endfacet
  facet normal 0 0 -1
    outer loop
      vertex -0.261321 -42.4863 0
      vertex 6.85159 -43.0505 0
      vertex 6.06763 -44.4084 0
    endloop
  endfacet
  facet normal 0 0 -1
    outer loop
      vertex -7.33611 -41.5593 0
      vertex 6.06763 -44.4084 0
      vertex 5.01848 -45.5736 0
    endloop
  endfacet
  facet normal 0 0 -1
    outer loop
      vertex -7.33611 -41.5593 0
      vertex 5.01848 -45.5736 0
      vertex 3.75 -46.4952 0
    endloop
  endfacet
  facet normal 0 0 -1
    outer loop
      vertex -7.33611 -41.5593 0
      vertex 3.75 -46.4952 0
      vertex 2.31763 -47.1329 0
    endloop
  endfacet
  facet normal 0 0 -1
    outer loop
      vertex -7.33611 -41.5593 0
      vertex 2.31763 -47.1329 0
      vertex 0.783963 -47.4589 0
    endloop
  endfacet
  facet normal 0 0 -1
    outer loop
      vertex -7.33611 -41.5593 0
      vertex 0.783963 -47.4589 0
      vertex -0.783963 -47.4589 0
    endloop
  endfacet
  facet normal 0 0 -1
    outer loop
      vertex -7.33611 -41.5593 0
      vertex -0.783963 -47.4589 0
      vertex -2.31763 -47.1329 0
    endloop
  endfacet
  facet normal 0 0 -1
    outer loop
      vertex -7.33611 -41.5593 0
      vertex -2.31763 -47.1329 0
      vertex -3.75 -46.4952 0
    endloop
  endfacet
  facet normal 0 0 -1
    outer loop
      vertex -7.33611 -41.5593 0
      vertex -3.75 -46.4952 0
      vertex -5.01848 -45.5736 0
    endloop
  endfacet
  facet normal 0 0 -1
    outer loop
      vertex -7.33611 -41.5593 0
      vertex -5.01848 -45.5736 0
      vertex -6.06763 -44.4084 0
    endloop
  endfacet
  facet normal 0 0 -1
    outer loop
      vertex -7.33611 -41.5593 0
      vertex -6.06763 -44.4084 0
      vertex -6.85159 -43.0505 0
    endloop
  endfacet
  facet normal -0 0 -1
    outer loop
      vertex 1.25 42.1651 0
      vertex 2.31763 47.1329 0
      vertex 1.67283 41.8579 0
    endloop
  endfacet
  facet normal 0 0 -1
    outer loop
      vertex -7.33611 -41.5593 0
      vertex -3.3 0 0
      vertex -3.22789 -0.686109 0
    endloop
  endfacet
  facet normal 0 0 -1
    outer loop
      vertex -7.33611 -41.5593 0
      vertex -3.22789 -0.686109 0
      vertex -3.0147 -1.34223 0
    endloop
  endfacet
  facet normal -0 0 -1
    outer loop
      vertex -3 1.9 0
      vertex 1.25 37.8349 0
      vertex -2.69267 1.9 0
    endloop
  endfacet
  facet normal 0 0 -1
    outer loop
      vertex -7.33611 -41.5593 0
      vertex -3.0147 -1.34223 0
      vertex -3 -1.36769 0
    endloop
  endfacet
  facet normal 0 0 -1
    outer loop
      vertex -2.66976 1.93969 0
      vertex 2.02254 38.5305 0
      vertex 2.28386 38.9832 0
    endloop
  endfacet
  facet normal 0 0 -1
    outer loop
      vertex -2.20813 -2.45238 0
      vertex -7.33611 -41.5593 0
      vertex -2.66976 -1.93969 0
    endloop
  endfacet
  facet normal 0 0 -1
    outer loop
      vertex -7.33611 -41.5593 0
      vertex -3 -1.9 0
      vertex -2.69267 -1.9 0
    endloop
  endfacet
  facet normal 0 0 -1
    outer loop
      vertex -2.66976 1.93969 0
      vertex 1.67283 38.1421 0
      vertex 2.02254 38.5305 0
    endloop
  endfacet
  facet normal 0 0 -1
    outer loop
      vertex -7.33611 -41.5593 0
      vertex -2.69267 -1.9 0
      vertex -2.66976 -1.93969 0
    endloop
  endfacet
  facet normal 0 0 -1
    outer loop
      vertex -2.20813 2.45238 0
      vertex 3.75 46.4952 0
      vertex -1.65 2.85788 0
    endloop
  endfacet
  facet normal 0 0 -1
    outer loop
      vertex -7.33611 -41.5593 0
      vertex -2.20813 -2.45238 0
      vertex -1.9 -2.67625 0
    endloop
  endfacet
  facet normal 0 0 -1
    outer loop
      vertex -2.66976 1.93969 0
      vertex 2.28386 38.9832 0
      vertex 2.44537 39.4802 0
    endloop
  endfacet
  facet normal 0 0 -1
    outer loop
      vertex 1.9 -7 0
      vertex -7.33611 -41.5593 0
      vertex -1.9 -7 0
    endloop
  endfacet
  facet normal 0 0 -1
    outer loop
      vertex -2.66976 1.93969 0
      vertex 2.44537 39.4802 0
      vertex 3.75 46.4952 0
    endloop
  endfacet
  facet normal -0 -0 -1
    outer loop
      vertex 2.44537 -39.4802 0
      vertex 1.9 -7 0
      vertex 2.5 -40 0
    endloop
  endfacet
  facet normal 0 0 -1
    outer loop
      vertex -0.344944 3.28192 0
      vertex 6.06763 44.4084 0
      vertex 6.85159 43.0505 0
    endloop
  endfacet
  facet normal 0 0 -1
    outer loop
      vertex 2.66976 -1.93969 0
      vertex 1.9 -7 0
      vertex 2.20813 -2.45238 0
    endloop
  endfacet
  facet normal -0 0 -1
    outer loop
      vertex 2.20813 2.45238 0
      vertex 7.5 40 0
      vertex 2.66976 1.93969 0
    endloop
  endfacet
  facet normal -0 0 -1
    outer loop
      vertex 1.9 -2.67625 0
      vertex 2.20813 -2.45238 0
      vertex 1.9 -7 0
    endloop
  endfacet
  facet normal -0 0 -1
    outer loop
      vertex 2.69267 1.9 0
      vertex 7.5 40 0
      vertex 3 1.9 0
    endloop
  endfacet
  facet normal -0 0 -1
    outer loop
      vertex 1.9 -7 0
      vertex 2.66976 -1.93969 0
      vertex 7.5 -40 0
    endloop
  endfacet
  facet normal -0 0 -1
    outer loop
      vertex 2.66976 -1.93969 0
      vertex 2.69267 -1.9 0
      vertex 7.5 -40 0
    endloop
  endfacet
  facet normal 0 0 -1
    outer loop
      vertex 2.69267 -1.9 0
      vertex 3 -1.9 0
      vertex 7.5 -40 0
    endloop
  endfacet
  facet normal -0 0 -1
    outer loop
      vertex 3.0147 1.34223 0
      vertex 7.5 40 0
      vertex 3.22789 0.686109 0
    endloop
  endfacet
  facet normal -0 0 -1
    outer loop
      vertex 3 -1.36769 0
      vertex 3.0147 -1.34223 0
      vertex 3 -1.9 0
    endloop
  endfacet
  facet normal -0 0 -1
    outer loop
      vertex 3.22789 0.686109 0
      vertex 7.5 40 0
      vertex 3.3 0 0
    endloop
  endfacet
  facet normal -0 0 -1
    outer loop
      vertex 3 -1.9 0
      vertex 3.22789 -0.686109 0
      vertex 7.5 -40 0
    endloop
  endfacet
  facet normal -0 0 -1
    outer loop
      vertex 3.22789 -0.686109 0
      vertex 3.3 0 0
      vertex 7.5 -40 0
    endloop
  endfacet
  facet normal -0 0 -1
    outer loop
      vertex 3 1.36769 0
      vertex 7.5 40 0
      vertex 3.0147 1.34223 0
    endloop
  endfacet
  facet normal 0 0 -1
    outer loop
      vertex 3.22789 -0.686109 0
      vertex 3 -1.9 0
      vertex 3.0147 -1.34223 0
    endloop
  endfacet
  facet normal -0 0 -1
    outer loop
      vertex 3 1.9 0
      vertex 7.5 40 0
      vertex 3 1.36769 0
    endloop
  endfacet
  facet normal -0 0 -1
    outer loop
      vertex 2.66976 1.93969 0
      vertex 7.5 40 0
      vertex 2.69267 1.9 0
    endloop
  endfacet
  facet normal -0 0 -1
    outer loop
      vertex -0.344944 3.28192 0
      vertex 6.85159 43.0505 0
      vertex 0.344944 3.28192 0
    endloop
  endfacet
  facet normal -0 0 -1
    outer loop
      vertex 1.65 2.85788 0
      vertex 7.5 40 0
      vertex 2.20813 2.45238 0
    endloop
  endfacet
  facet normal -0 0 -1
    outer loop
      vertex 1.01976 3.13849 0
      vertex 7.5 40 0
      vertex 1.65 2.85788 0
    endloop
  endfacet
  facet normal 0 0 -1
    outer loop
      vertex 0.344944 3.28192 0
      vertex 7.33611 41.5593 0
      vertex 7.5 40 0
    endloop
  endfacet
  facet normal -0 0 -1
    outer loop
      vertex 0.344944 3.28192 0
      vertex 7.5 40 0
      vertex 1.01976 3.13849 0
    endloop
  endfacet
  facet normal 0 0 -1
    outer loop
      vertex -1.01976 3.13849 0
      vertex 5.01848 45.5736 0
      vertex -0.344944 3.28192 0
    endloop
  endfacet
  facet normal 0 0 -1
    outer loop
      vertex -1.9 -7 0
      vertex -7.33611 -41.5593 0
      vertex -1.9 -2.67625 0
    endloop
  endfacet
  facet normal -0 0 -1
    outer loop
      vertex 2.44537 40.5198 0
      vertex 3.75 46.4952 0
      vertex 2.5 40 0
    endloop
  endfacet
  facet normal 0 0 -1
    outer loop
      vertex 1.67283 38.1421 0
      vertex -2.66976 1.93969 0
      vertex -2.69267 1.9 0
    endloop
  endfacet
  facet normal 0 0 -1
    outer loop
      vertex 1.67283 38.1421 0
      vertex -2.69267 1.9 0
      vertex 1.25 37.8349 0
    endloop
  endfacet
  facet normal 0 0 -1
    outer loop
      vertex -3.0147 1.34223 0
      vertex -3 1.9 0
      vertex -3 1.36769 0
    endloop
  endfacet
  facet normal 0 0 -1
    outer loop
      vertex -3.22789 0.686109 0
      vertex -3 1.9 0
      vertex -3.0147 1.34223 0
    endloop
  endfacet
  facet normal 0 0 -1
    outer loop
      vertex 1.25 37.8349 0
      vertex -3.22789 0.686109 0
      vertex 0.772542 37.6224 0
    endloop
  endfacet
  facet normal 0 0 -1
    outer loop
      vertex -2.02254 -41.4695 0
      vertex -7.33611 -41.5593 0
      vertex -2.28386 -41.0168 0
    endloop
  endfacet
  facet normal 0 0 -1
    outer loop
      vertex -1.25 37.8349 0
      vertex -7.33611 -41.5593 0
      vertex -1.67283 38.1421 0
    endloop
  endfacet
  facet normal -0 -0 -1
    outer loop
      vertex 2.5 -40 0
      vertex 1.9 -7 0
      vertex 7.5 -40 0
    endloop
  endfacet
  facet normal 0 0 -1
    outer loop
      vertex -7.33611 -41.5593 0
      vertex -2.5 -40 0
      vertex -2.44537 -40.5198 0
    endloop
  endfacet
  facet normal 0 0 -1
    outer loop
      vertex -7.33611 -41.5593 0
      vertex -2.44537 -40.5198 0
      vertex -2.28386 -41.0168 0
    endloop
  endfacet
  facet normal 0 0 -1
    outer loop
      vertex -1.67283 -41.8579 0
      vertex -7.33611 -41.5593 0
      vertex -2.02254 -41.4695 0
    endloop
  endfacet
  facet normal 0 0 -1
    outer loop
      vertex -0.772542 -42.3776 0
      vertex -7.33611 -41.5593 0
      vertex -1.25 -42.1651 0
    endloop
  endfacet
  facet normal 0 0 -1
    outer loop
      vertex -7.33611 -41.5593 0
      vertex -1.67283 -41.8579 0
      vertex -1.25 -42.1651 0
    endloop
  endfacet
  facet normal 0 0 -1
    outer loop
      vertex 0.772542 -42.3776 0
      vertex 6.85159 -43.0505 0
      vertex 0.261321 -42.4863 0
    endloop
  endfacet
  facet normal 0 0 -1
    outer loop
      vertex -7.33611 -41.5593 0
      vertex -0.772542 -42.3776 0
      vertex 6.06763 -44.4084 0
    endloop
  endfacet
  facet normal 0 0 -1
    outer loop
      vertex 0.261321 -42.4863 0
      vertex 6.85159 -43.0505 0
      vertex -0.261321 -42.4863 0
    endloop
  endfacet
  facet normal 0 0 -1
    outer loop
      vertex -0.772542 -42.3776 0
      vertex -0.261321 -42.4863 0
      vertex 6.06763 -44.4084 0
    endloop
  endfacet
  facet normal 0 0 -1
    outer loop
      vertex 1.25 -42.1651 0
      vertex 6.85159 -43.0505 0
      vertex 0.772542 -42.3776 0
    endloop
  endfacet
  facet normal -0 0 -1
    outer loop
      vertex 1.67283 -41.8579 0
      vertex 7.33611 -41.5593 0
      vertex 1.25 -42.1651 0
    endloop
  endfacet
  facet normal 0 0 -1
    outer loop
      vertex 2.02254 -41.4695 0
      vertex 7.33611 -41.5593 0
      vertex 1.67283 -41.8579 0
    endloop
  endfacet
  facet normal -0 0 -1
    outer loop
      vertex 2.28386 -41.0168 0
      vertex 7.5 -40 0
      vertex 2.02254 -41.4695 0
    endloop
  endfacet
  facet normal -0 0 -1
    outer loop
      vertex 2.44537 -40.5198 0
      vertex 7.5 -40 0
      vertex 2.28386 -41.0168 0
    endloop
  endfacet
  facet normal 0 0 -1
    outer loop
      vertex 2.5 -40 0
      vertex 7.5 -40 0
      vertex 2.44537 -40.5198 0
    endloop
  endfacet
  facet normal 0 0 -1
    outer loop
      vertex -2.44537 -39.4802 0
      vertex 1.9 -7 0
      vertex -2.28386 -38.9832 0
    endloop
  endfacet
  facet normal -0 -0 -1
    outer loop
      vertex 2.28386 -38.9832 0
      vertex 1.9 -7 0
      vertex 2.44537 -39.4802 0
    endloop
  endfacet
  facet normal -0 -0 -1
    outer loop
      vertex 2.02254 -38.5305 0
      vertex 1.9 -7 0
      vertex 2.28386 -38.9832 0
    endloop
  endfacet
  facet normal -0 0 -1
    outer loop
      vertex 1.67283 -38.1421 0
      vertex 1.9 -7 0
      vertex 2.02254 -38.5305 0
    endloop
  endfacet
  facet normal -0 0 -1
    outer loop
      vertex 1.25 -37.8349 0
      vertex 1.9 -7 0
      vertex 1.67283 -38.1421 0
    endloop
  endfacet
  facet normal -0 0 -1
    outer loop
      vertex 0.772542 -37.6224 0
      vertex 1.9 -7 0
      vertex 1.25 -37.8349 0
    endloop
  endfacet
  facet normal -0 0 -1
    outer loop
      vertex 0.261321 -37.5137 0
      vertex 1.9 -7 0
      vertex 0.772542 -37.6224 0
    endloop
  endfacet
  facet normal -0 0 -1
    outer loop
      vertex -0.261321 -37.5137 0
      vertex 1.9 -7 0
      vertex 0.261321 -37.5137 0
    endloop
  endfacet
  facet normal 0 0 -1
    outer loop
      vertex -0.772542 -37.6224 0
      vertex 1.9 -7 0
      vertex -0.261321 -37.5137 0
    endloop
  endfacet
  facet normal 0 0 -1
    outer loop
      vertex -1.25 -37.8349 0
      vertex 1.9 -7 0
      vertex -0.772542 -37.6224 0
    endloop
  endfacet
  facet normal 0 0 -1
    outer loop
      vertex -1.67283 -38.1421 0
      vertex 1.9 -7 0
      vertex -1.25 -37.8349 0
    endloop
  endfacet
  facet normal 0 0 -1
    outer loop
      vertex -2.02254 -38.5305 0
      vertex 1.9 -7 0
      vertex -1.67283 -38.1421 0
    endloop
  endfacet
  facet normal 0 0 -1
    outer loop
      vertex -2.28386 -38.9832 0
      vertex 1.9 -7 0
      vertex -2.02254 -38.5305 0
    endloop
  endfacet
  facet normal 0 0 -1
    outer loop
      vertex -1.67283 41.8579 0
      vertex -0.783963 47.4589 0
      vertex -1.25 42.1651 0
    endloop
  endfacet
  facet normal 0 0 -1
    outer loop
      vertex -7.33611 -41.5593 0
      vertex 1.9 -7 0
      vertex -2.44537 -39.4802 0
    endloop
  endfacet
  facet normal 0 0 -1
    outer loop
      vertex -7.33611 -41.5593 0
      vertex -2.44537 -39.4802 0
      vertex -2.5 -40 0
    endloop
  endfacet
  facet normal 0 0 -1
    outer loop
      vertex -7.33611 -41.5593 0
      vertex -2.31763 47.1329 0
      vertex -2.5 40 0
    endloop
  endfacet
  facet normal 0 0 -1
    outer loop
      vertex -7.33611 -41.5593 0
      vertex -2.5 40 0
      vertex -2.44537 39.4802 0
    endloop
  endfacet
  facet normal 0 0 -1
    outer loop
      vertex -7.33611 -41.5593 0
      vertex -2.44537 39.4802 0
      vertex -2.28386 38.9832 0
    endloop
  endfacet
  facet normal 0 0 -1
    outer loop
      vertex -7.33611 -41.5593 0
      vertex -2.28386 38.9832 0
      vertex -2.02254 38.5305 0
    endloop
  endfacet
  facet normal 0 0 -1
    outer loop
      vertex -7.33611 -41.5593 0
      vertex -2.02254 38.5305 0
      vertex -1.67283 38.1421 0
    endloop
  endfacet
  facet normal 0 0 -1
    outer loop
      vertex 0.261321 37.5137 0
      vertex -3.22789 0.686109 0
      vertex -3.3 0 0
    endloop
  endfacet
  facet normal 0 0 -1
    outer loop
      vertex -7.33611 -41.5593 0
      vertex -1.25 37.8349 0
      vertex -0.772542 37.6224 0
    endloop
  endfacet
  facet normal 0 0 -1
    outer loop
      vertex -7.33611 -41.5593 0
      vertex -0.772542 37.6224 0
      vertex -0.261321 37.5137 0
    endloop
  endfacet
  facet normal 0 0 -1
    outer loop
      vertex 1.25 37.8349 0
      vertex -3 1.9 0
      vertex -3.22789 0.686109 0
    endloop
  endfacet
  facet normal 0 0 -1
    outer loop
      vertex -3.22789 0.686109 0
      vertex 0.261321 37.5137 0
      vertex 0.772542 37.6224 0
    endloop
  endfacet
  facet normal 0 0 -1
    outer loop
      vertex 2.44537 39.4802 0
      vertex 2.5 40 0
      vertex 3.75 46.4952 0
    endloop
  endfacet
  facet normal -0 0 -1
    outer loop
      vertex 2.28386 41.0168 0
      vertex 3.75 46.4952 0
      vertex 2.44537 40.5198 0
    endloop
  endfacet
  facet normal -0 0 -1
    outer loop
      vertex 2.02254 41.4695 0
      vertex 2.31763 47.1329 0
      vertex 2.28386 41.0168 0
    endloop
  endfacet
  facet normal -0 0 -1
    outer loop
      vertex 1.67283 41.8579 0
      vertex 2.31763 47.1329 0
      vertex 2.02254 41.4695 0
    endloop
  endfacet
  facet normal -0 0 -1
    outer loop
      vertex 0.772542 42.3776 0
      vertex 0.783963 47.4589 0
      vertex 1.25 42.1651 0
    endloop
  endfacet
  facet normal -0 0 -1
    outer loop
      vertex 0.261321 42.4863 0
      vertex 0.783963 47.4589 0
      vertex 0.772542 42.3776 0
    endloop
  endfacet
  facet normal -0 0 -1
    outer loop
      vertex -0.261321 42.4863 0
      vertex 0.783963 47.4589 0
      vertex 0.261321 42.4863 0
    endloop
  endfacet
  facet normal 0 0 -1
    outer loop
      vertex -0.772542 42.3776 0
      vertex 0.783963 47.4589 0
      vertex -0.261321 42.4863 0
    endloop
  endfacet
  facet normal 0 0 -1
    outer loop
      vertex -1.25 42.1651 0
      vertex -0.783963 47.4589 0
      vertex -0.772542 42.3776 0
    endloop
  endfacet
  facet normal 0 0 -1
    outer loop
      vertex 0.261321 37.5137 0
      vertex -7.33611 -41.5593 0
      vertex -0.261321 37.5137 0
    endloop
  endfacet
  facet normal 0 0 -1
    outer loop
      vertex 0.261321 37.5137 0
      vertex -3.3 0 0
      vertex -7.33611 -41.5593 0
    endloop
  endfacet
  facet normal 0 0 -1
    outer loop
      vertex -2.02254 41.4695 0
      vertex -0.783963 47.4589 0
      vertex -1.67283 41.8579 0
    endloop
  endfacet
  facet normal 0 0 -1
    outer loop
      vertex -2.28386 41.0168 0
      vertex -0.783963 47.4589 0
      vertex -2.02254 41.4695 0
    endloop
  endfacet
  facet normal 0 0 -1
    outer loop
      vertex -2.44537 40.5198 0
      vertex -2.31763 47.1329 0
      vertex -2.28386 41.0168 0
    endloop
  endfacet
  facet normal 0 0 -1
    outer loop
      vertex -2.5 40 0
      vertex -2.31763 47.1329 0
      vertex -2.44537 40.5198 0
    endloop
  endfacet
  facet normal 0 0 -1
    outer loop
      vertex -3 -1.9 0
      vertex -7.33611 -41.5593 0
      vertex -3 -1.36769 0
    endloop
  endfacet
  facet normal 0 0 -1
    outer loop
      vertex -1.65 2.85788 0
      vertex 3.75 46.4952 0
      vertex 5.01848 45.5736 0
    endloop
  endfacet
  facet normal -0.994522 0.104528 0
    outer loop
      vertex -7.5 40 0
      vertex -7.5 40 3.8
      vertex -7.33611 41.5593 0
    endloop
  endfacet
  facet normal -0.994522 0.104528 0
    outer loop
      vertex -7.33611 41.5593 0
      vertex -7.5 40 3.8
      vertex -7.33611 41.5593 3.8
    endloop
  endfacet
  facet normal 0 -0 1
    outer loop
      vertex -7.5 40 3.8
      vertex -7.5 -40 3.8
      vertex -7.33611 -41.5593 3.8
    endloop
  endfacet
  facet normal 0 0 1
    outer loop
      vertex -6.06763 -44.4084 3.8
      vertex -7.5 40 3.8
      vertex -6.85159 -43.0505 3.8
    endloop
  endfacet
  facet normal 0 0 1
    outer loop
      vertex -6.85159 -43.0505 3.8
      vertex -7.5 40 3.8
      vertex -7.33611 -41.5593 3.8
    endloop
  endfacet
  facet normal 0 0 1
    outer loop
      vertex -5.01848 -45.5736 3.8
      vertex -7.5 40 3.8
      vertex -6.06763 -44.4084 3.8
    endloop
  endfacet
  facet normal 0 0 1
    outer loop
      vertex -3.75 -46.4952 3.8
      vertex -7.5 40 3.8
      vertex -5.01848 -45.5736 3.8
    endloop
  endfacet
  facet normal 0 0 1
    outer loop
      vertex -2.31763 -47.1329 3.8
      vertex -7.5 40 3.8
      vertex -3.75 -46.4952 3.8
    endloop
  endfacet
  facet normal -0 -0 1
    outer loop
      vertex -2.5 -40 3.8
      vertex -7.5 40 3.8
      vertex -2.31763 -47.1329 3.8
    endloop
  endfacet
  facet normal 0 -0 1
    outer loop
      vertex 0.261321 -42.4863 3.8
      vertex -0.261321 -42.4863 3.8
      vertex 0.783963 -47.4589 3.8
    endloop
  endfacet
  facet normal 0 0 1
    outer loop
      vertex 0.772542 -37.6224 3.8
      vertex -3 -1.9 3.8
      vertex -3.22789 -0.686109 3.8
    endloop
  endfacet
  facet normal 0 0 1
    outer loop
      vertex -2.66976 1.93969 3.8
      vertex -2.20813 2.45238 3.8
      vertex -7.5 40 3.8
    endloop
  endfacet
  facet normal 0 0 1
    outer loop
      vertex -2.20813 2.45238 3.8
      vertex -1.65 2.85788 3.8
      vertex -7.5 40 3.8
    endloop
  endfacet
  facet normal 0 0 1
    outer loop
      vertex 3.0147 1.34223 3.8
      vertex 3.22789 0.686109 3.8
      vertex 3 1.9 3.8
    endloop
  endfacet
  facet normal 0 -0 1
    outer loop
      vertex -2.5 40 3.8
      vertex -7.5 40 3.8
      vertex -2.44537 39.4802 3.8
    endloop
  endfacet
  facet normal 0 0 1
    outer loop
      vertex 0.261321 42.4863 3.8
      vertex 0.772542 42.3776 3.8
      vertex 6.06763 44.4084 3.8
    endloop
  endfacet
  facet normal 0 -0 1
    outer loop
      vertex 3.75 46.4952 3.8
      vertex -7.5 40 3.8
      vertex 5.01848 45.5736 3.8
    endloop
  endfacet
  facet normal 0 -0 1
    outer loop
      vertex 2.31763 47.1329 3.8
      vertex -7.5 40 3.8
      vertex 3.75 46.4952 3.8
    endloop
  endfacet
  facet normal 0 -0 1
    outer loop
      vertex 0.783963 47.4589 3.8
      vertex -7.5 40 3.8
      vertex 2.31763 47.1329 3.8
    endloop
  endfacet
  facet normal 0 -0 1
    outer loop
      vertex -0.783963 47.4589 3.8
      vertex -7.5 40 3.8
      vertex 0.783963 47.4589 3.8
    endloop
  endfacet
  facet normal 0 -0 1
    outer loop
      vertex -2.31763 47.1329 3.8
      vertex -7.5 40 3.8
      vertex -0.783963 47.4589 3.8
    endloop
  endfacet
  facet normal 0 -0 1
    outer loop
      vertex -3.75 46.4952 3.8
      vertex -7.5 40 3.8
      vertex -2.31763 47.1329 3.8
    endloop
  endfacet
  facet normal 0 -0 1
    outer loop
      vertex -5.01848 45.5736 3.8
      vertex -7.5 40 3.8
      vertex -3.75 46.4952 3.8
    endloop
  endfacet
  facet normal 0 -0 1
    outer loop
      vertex -6.06763 44.4084 3.8
      vertex -7.5 40 3.8
      vertex -5.01848 45.5736 3.8
    endloop
  endfacet
  facet normal 0 -0 1
    outer loop
      vertex -6.85159 43.0505 3.8
      vertex -7.5 40 3.8
      vertex -6.06763 44.4084 3.8
    endloop
  endfacet
  facet normal 0 -0 1
    outer loop
      vertex -7.33611 41.5593 3.8
      vertex -7.5 40 3.8
      vertex -6.85159 43.0505 3.8
    endloop
  endfacet
  facet normal -0 0 1
    outer loop
      vertex -3 1.36769 3.8
      vertex -7.5 40 3.8
      vertex -3.0147 1.34223 3.8
    endloop
  endfacet
  facet normal -0 0 1
    outer loop
      vertex -3 1.9 3.8
      vertex -7.5 40 3.8
      vertex -3 1.36769 3.8
    endloop
  endfacet
  facet normal -0 0 1
    outer loop
      vertex -2.69267 1.9 3.8
      vertex -7.5 40 3.8
      vertex -3 1.9 3.8
    endloop
  endfacet
  facet normal -0 0 1
    outer loop
      vertex -2.66976 1.93969 3.8
      vertex -7.5 40 3.8
      vertex -2.69267 1.9 3.8
    endloop
  endfacet
  facet normal 0 0 1
    outer loop
      vertex -1.65 2.85788 3.8
      vertex -1.01976 3.13849 3.8
      vertex -7.5 40 3.8
    endloop
  endfacet
  facet normal 0 0 1
    outer loop
      vertex -1.01976 3.13849 3.8
      vertex -0.344944 3.28192 3.8
      vertex -7.5 40 3.8
    endloop
  endfacet
  facet normal 0 -0 1
    outer loop
      vertex 3.3 0 3.8
      vertex 3.22789 -0.686109 3.8
      vertex 7.5 -40 3.8
    endloop
  endfacet
  facet normal -0 -0 1
    outer loop
      vertex -2.44537 39.4802 3.8
      vertex -7.5 40 3.8
      vertex -0.344944 3.28192 3.8
    endloop
  endfacet
  facet normal 0 -0 1
    outer loop
      vertex -2.69267 -1.9 3.8
      vertex -3 -1.9 3.8
      vertex 1.25 -37.8349 3.8
    endloop
  endfacet
  facet normal 0 0 1
    outer loop
      vertex 7.5 40 3.8
      vertex -0.344944 3.28192 3.8
      vertex 0.344944 3.28192 3.8
    endloop
  endfacet
  facet normal 0 0 1
    outer loop
      vertex 7.5 40 3.8
      vertex 0.344944 3.28192 3.8
      vertex 1.01976 3.13849 3.8
    endloop
  endfacet
  facet normal 0 0 1
    outer loop
      vertex 7.5 40 3.8
      vertex 1.01976 3.13849 3.8
      vertex 1.65 2.85788 3.8
    endloop
  endfacet
  facet normal 0 -0 1
    outer loop
      vertex 2.66976 -1.93969 3.8
      vertex 2.20813 -2.45238 3.8
      vertex 7.5 -40 3.8
    endloop
  endfacet
  facet normal 0 0 1
    outer loop
      vertex 7.5 40 3.8
      vertex 1.65 2.85788 3.8
      vertex 2.20813 2.45238 3.8
    endloop
  endfacet
  facet normal 0 -0 1
    outer loop
      vertex 3 -1.9 3.8
      vertex 2.69267 -1.9 3.8
      vertex 7.5 -40 3.8
    endloop
  endfacet
  facet normal 0 0 1
    outer loop
      vertex 7.5 40 3.8
      vertex 2.20813 2.45238 3.8
      vertex 2.66976 1.93969 3.8
    endloop
  endfacet
  facet normal 0 -0 1
    outer loop
      vertex 1.9 -2.67625 3.8
      vertex 1.9 -7 3.8
      vertex 7.5 -40 3.8
    endloop
  endfacet
  facet normal 0 0 1
    outer loop
      vertex 7.5 40 3.8
      vertex 2.66976 1.93969 3.8
      vertex 2.69267 1.9 3.8
    endloop
  endfacet
  facet normal 0 0 1
    outer loop
      vertex 7.5 40 3.8
      vertex 2.69267 1.9 3.8
      vertex 3 1.9 3.8
    endloop
  endfacet
  facet normal 0 -0 1
    outer loop
      vertex 3 1.9 3.8
      vertex 3 1.36769 3.8
      vertex 3.0147 1.34223 3.8
    endloop
  endfacet
  facet normal 0 0 1
    outer loop
      vertex 7.5 40 3.8
      vertex 3 1.9 3.8
      vertex 3.22789 0.686109 3.8
    endloop
  endfacet
  facet normal 0 0 1
    outer loop
      vertex 7.5 40 3.8
      vertex 3.3 0 3.8
      vertex 7.5 -40 3.8
    endloop
  endfacet
  facet normal 0 0 1
    outer loop
      vertex 7.5 40 3.8
      vertex 3.22789 0.686109 3.8
      vertex 3.3 0 3.8
    endloop
  endfacet
  facet normal 0 -0 1
    outer loop
      vertex 3.0147 -1.34223 3.8
      vertex 3 -1.36769 3.8
      vertex 7.5 -40 3.8
    endloop
  endfacet
  facet normal 0 -0 1
    outer loop
      vertex 3 -1.36769 3.8
      vertex 3 -1.9 3.8
      vertex 7.5 -40 3.8
    endloop
  endfacet
  facet normal 0 -0 1
    outer loop
      vertex 2.69267 -1.9 3.8
      vertex 2.66976 -1.93969 3.8
      vertex 7.5 -40 3.8
    endloop
  endfacet
  facet normal 0 -0 1
    outer loop
      vertex 2.20813 -2.45238 3.8
      vertex 1.9 -2.67625 3.8
      vertex 7.5 -40 3.8
    endloop
  endfacet
  facet normal -0 -0 1
    outer loop
      vertex -2.20813 -2.45238 3.8
      vertex -2.66976 -1.93969 3.8
      vertex -1.9 -7 3.8
    endloop
  endfacet
  facet normal 0 -0 1
    outer loop
      vertex 2.5 -40 3.8
      vertex 2.44537 -40.5198 3.8
      vertex 3.75 -46.4952 3.8
    endloop
  endfacet
  facet normal 0 0 1
    outer loop
      vertex 1.25 -37.8349 3.8
      vertex -2.66976 -1.93969 3.8
      vertex -2.69267 -1.9 3.8
    endloop
  endfacet
  facet normal 0 0 1
    outer loop
      vertex -3.3 0 3.8
      vertex -3.22789 0.686109 3.8
      vertex -7.5 40 3.8
    endloop
  endfacet
  facet normal 0 0 1
    outer loop
      vertex -2.5 -40 3.8
      vertex -2.44537 -39.4802 3.8
      vertex -7.5 40 3.8
    endloop
  endfacet
  facet normal -0 0 1
    outer loop
      vertex -3 -1.36769 3.8
      vertex -3.0147 -1.34223 3.8
      vertex -3 -1.9 3.8
    endloop
  endfacet
  facet normal 0 0 1
    outer loop
      vertex -0.783963 -47.4589 3.8
      vertex -2.44537 -40.5198 3.8
      vertex -2.31763 -47.1329 3.8
    endloop
  endfacet
  facet normal -0 -0 1
    outer loop
      vertex -2.44537 -40.5198 3.8
      vertex -2.5 -40 3.8
      vertex -2.31763 -47.1329 3.8
    endloop
  endfacet
  facet normal -0 0 1
    outer loop
      vertex -2.28386 -38.9832 3.8
      vertex -7.5 40 3.8
      vertex -2.44537 -39.4802 3.8
    endloop
  endfacet
  facet normal -0 0 1
    outer loop
      vertex -2.02254 -38.5305 3.8
      vertex -7.5 40 3.8
      vertex -2.28386 -38.9832 3.8
    endloop
  endfacet
  facet normal -0 0 1
    outer loop
      vertex -1.67283 -38.1421 3.8
      vertex -7.5 40 3.8
      vertex -2.02254 -38.5305 3.8
    endloop
  endfacet
  facet normal -0 -0 1
    outer loop
      vertex -1.67283 -41.8579 3.8
      vertex -2.02254 -41.4695 3.8
      vertex -0.783963 -47.4589 3.8
    endloop
  endfacet
  facet normal 0 0 1
    outer loop
      vertex -0.261321 -37.5137 3.8
      vertex -3.22789 -0.686109 3.8
      vertex -3.3 0 3.8
    endloop
  endfacet
  facet normal -0 0 1
    outer loop
      vertex -0.772542 -37.6224 3.8
      vertex -7.5 40 3.8
      vertex -1.25 -37.8349 3.8
    endloop
  endfacet
  facet normal -0 0 1
    outer loop
      vertex -0.261321 -37.5137 3.8
      vertex -7.5 40 3.8
      vertex -0.772542 -37.6224 3.8
    endloop
  endfacet
  facet normal 0 0 1
    outer loop
      vertex 0.772542 -37.6224 3.8
      vertex 1.25 -37.8349 3.8
      vertex -3 -1.9 3.8
    endloop
  endfacet
  facet normal -0 -0 1
    outer loop
      vertex -1.25 -42.1651 3.8
      vertex -1.67283 -41.8579 3.8
      vertex -0.783963 -47.4589 3.8
    endloop
  endfacet
  facet normal 0 0 1
    outer loop
      vertex 0.772542 -37.6224 3.8
      vertex -3.22789 -0.686109 3.8
      vertex 0.261321 -37.5137 3.8
    endloop
  endfacet
  facet normal 0 0 1
    outer loop
      vertex 1.25 -37.8349 3.8
      vertex 1.67283 -38.1421 3.8
      vertex -1.9 -7 3.8
    endloop
  endfacet
  facet normal 0 0 1
    outer loop
      vertex -1.67283 -38.1421 3.8
      vertex -1.25 -37.8349 3.8
      vertex -7.5 40 3.8
    endloop
  endfacet
  facet normal 0 -0 1
    outer loop
      vertex 3.22789 -0.686109 3.8
      vertex 3.0147 -1.34223 3.8
      vertex 7.5 -40 3.8
    endloop
  endfacet
  facet normal 0 -0 1
    outer loop
      vertex 1.67283 -41.8579 3.8
      vertex 1.25 -42.1651 3.8
      vertex 2.31763 -47.1329 3.8
    endloop
  endfacet
  facet normal 0 0 1
    outer loop
      vertex 2.02254 -38.5305 3.8
      vertex -1.9 -7 3.8
      vertex 1.67283 -38.1421 3.8
    endloop
  endfacet
  facet normal 0 0 1
    outer loop
      vertex 2.28386 -38.9832 3.8
      vertex -1.9 -7 3.8
      vertex 2.02254 -38.5305 3.8
    endloop
  endfacet
  facet normal 0 -0 1
    outer loop
      vertex 2.44537 -40.5198 3.8
      vertex 2.28386 -41.0168 3.8
      vertex 3.75 -46.4952 3.8
    endloop
  endfacet
  facet normal 0 0 1
    outer loop
      vertex 2.44537 -39.4802 3.8
      vertex -1.9 -7 3.8
      vertex 2.28386 -38.9832 3.8
    endloop
  endfacet
  facet normal 0 0 1
    outer loop
      vertex 3.75 -46.4952 3.8
      vertex -1.9 -7 3.8
      vertex 2.44537 -39.4802 3.8
    endloop
  endfacet
  facet normal 0 -0 1
    outer loop
      vertex 2.02254 -41.4695 3.8
      vertex 1.67283 -41.8579 3.8
      vertex 2.31763 -47.1329 3.8
    endloop
  endfacet
  facet normal 0 0 1
    outer loop
      vertex 3.75 -46.4952 3.8
      vertex 2.44537 -39.4802 3.8
      vertex 2.5 -40 3.8
    endloop
  endfacet
  facet normal -0 0 1
    outer loop
      vertex 3.75 -46.4952 3.8
      vertex 2.28386 -41.0168 3.8
      vertex 2.31763 -47.1329 3.8
    endloop
  endfacet
  facet normal 0 -0 1
    outer loop
      vertex 2.28386 -41.0168 3.8
      vertex 2.02254 -41.4695 3.8
      vertex 2.31763 -47.1329 3.8
    endloop
  endfacet
  facet normal 0 -0 1
    outer loop
      vertex 0.772542 -42.3776 3.8
      vertex 0.261321 -42.4863 3.8
      vertex 0.783963 -47.4589 3.8
    endloop
  endfacet
  facet normal 0 0 1
    outer loop
      vertex 1.25 -37.8349 3.8
      vertex -1.9 -7 3.8
      vertex -2.66976 -1.93969 3.8
    endloop
  endfacet
  facet normal -0 0 1
    outer loop
      vertex 2.31763 -47.1329 3.8
      vertex 1.25 -42.1651 3.8
      vertex 0.783963 -47.4589 3.8
    endloop
  endfacet
  facet normal 0 0 1
    outer loop
      vertex 1.25 -42.1651 3.8
      vertex 0.772542 -42.3776 3.8
      vertex 0.783963 -47.4589 3.8
    endloop
  endfacet
  facet normal -0 -0 1
    outer loop
      vertex -0.261321 -42.4863 3.8
      vertex -0.772542 -42.3776 3.8
      vertex 0.783963 -47.4589 3.8
    endloop
  endfacet
  facet normal -0 0 1
    outer loop
      vertex -0.772542 -42.3776 3.8
      vertex -1.25 -42.1651 3.8
      vertex -0.783963 -47.4589 3.8
    endloop
  endfacet
  facet normal -0 0 1
    outer loop
      vertex 0.783963 -47.4589 3.8
      vertex -0.772542 -42.3776 3.8
      vertex -0.783963 -47.4589 3.8
    endloop
  endfacet
  facet normal 0 0 1
    outer loop
      vertex -0.261321 42.4863 3.8
      vertex 0.261321 42.4863 3.8
      vertex 6.06763 44.4084 3.8
    endloop
  endfacet
  facet normal 0 0 1
    outer loop
      vertex -0.261321 -37.5137 3.8
      vertex -3.3 0 3.8
      vertex -7.5 40 3.8
    endloop
  endfacet
  facet normal -0 -0 1
    outer loop
      vertex -2.02254 -41.4695 3.8
      vertex -2.28386 -41.0168 3.8
      vertex -0.783963 -47.4589 3.8
    endloop
  endfacet
  facet normal -0 0 1
    outer loop
      vertex -2.44537 40.5198 3.8
      vertex -2.28386 41.0168 3.8
      vertex -7.5 40 3.8
    endloop
  endfacet
  facet normal 0 0 1
    outer loop
      vertex -0.783963 -47.4589 3.8
      vertex -2.28386 -41.0168 3.8
      vertex -2.44537 -40.5198 3.8
    endloop
  endfacet
  facet normal 0 0 1
    outer loop
      vertex 2.28386 41.0168 3.8
      vertex 2.44537 40.5198 3.8
      vertex 7.33611 41.5593 3.8
    endloop
  endfacet
  facet normal -0 -0 1
    outer loop
      vertex -2.28386 38.9832 3.8
      vertex -2.44537 39.4802 3.8
      vertex -0.344944 3.28192 3.8
    endloop
  endfacet
  facet normal 0 0 1
    outer loop
      vertex -2.44537 40.5198 3.8
      vertex -7.5 40 3.8
      vertex -2.5 40 3.8
    endloop
  endfacet
  facet normal -0 0 1
    outer loop
      vertex -2.28386 41.0168 3.8
      vertex -2.02254 41.4695 3.8
      vertex -7.5 40 3.8
    endloop
  endfacet
  facet normal -0 0 1
    outer loop
      vertex -1.67283 41.8579 3.8
      vertex -1.25 42.1651 3.8
      vertex -7.5 40 3.8
    endloop
  endfacet
  facet normal 0 0 1
    outer loop
      vertex 2.02254 41.4695 3.8
      vertex 2.28386 41.0168 3.8
      vertex 7.33611 41.5593 3.8
    endloop
  endfacet
  facet normal 0 0 1
    outer loop
      vertex -1.67283 41.8579 3.8
      vertex -7.5 40 3.8
      vertex -2.02254 41.4695 3.8
    endloop
  endfacet
  facet normal 0 0 1
    outer loop
      vertex 1.25 42.1651 3.8
      vertex 1.67283 41.8579 3.8
      vertex 6.85159 43.0505 3.8
    endloop
  endfacet
  facet normal 0 0 1
    outer loop
      vertex 5.01848 45.5736 3.8
      vertex -7.5 40 3.8
      vertex -1.25 42.1651 3.8
    endloop
  endfacet
  facet normal 0 -0 1
    outer loop
      vertex 5.01848 45.5736 3.8
      vertex -0.772542 42.3776 3.8
      vertex 6.06763 44.4084 3.8
    endloop
  endfacet
  facet normal 0 0 1
    outer loop
      vertex 5.01848 45.5736 3.8
      vertex -1.25 42.1651 3.8
      vertex -0.772542 42.3776 3.8
    endloop
  endfacet
  facet normal 0 0 1
    outer loop
      vertex -0.772542 42.3776 3.8
      vertex -0.261321 42.4863 3.8
      vertex 6.06763 44.4084 3.8
    endloop
  endfacet
  facet normal 0 -0 1
    outer loop
      vertex 6.06763 44.4084 3.8
      vertex 0.772542 42.3776 3.8
      vertex 6.85159 43.0505 3.8
    endloop
  endfacet
  facet normal 0 0 1
    outer loop
      vertex 0.772542 42.3776 3.8
      vertex 1.25 42.1651 3.8
      vertex 6.85159 43.0505 3.8
    endloop
  endfacet
  facet normal 0 -0 1
    outer loop
      vertex 6.85159 43.0505 3.8
      vertex 1.67283 41.8579 3.8
      vertex 7.33611 41.5593 3.8
    endloop
  endfacet
  facet normal 0 0 1
    outer loop
      vertex 1.67283 41.8579 3.8
      vertex 2.02254 41.4695 3.8
      vertex 7.33611 41.5593 3.8
    endloop
  endfacet
  facet normal 0 -0 1
    outer loop
      vertex 2.5 40 3.8
      vertex 2.44537 39.4802 3.8
      vertex 7.5 40 3.8
    endloop
  endfacet
  facet normal 0 -0 1
    outer loop
      vertex 7.33611 41.5593 3.8
      vertex 2.44537 40.5198 3.8
      vertex 7.5 40 3.8
    endloop
  endfacet
  facet normal 0 0 1
    outer loop
      vertex 2.44537 40.5198 3.8
      vertex 2.5 40 3.8
      vertex 7.5 40 3.8
    endloop
  endfacet
  facet normal 0 0 1
    outer loop
      vertex 7.5 40 3.8
      vertex 2.44537 39.4802 3.8
      vertex -0.344944 3.28192 3.8
    endloop
  endfacet
  facet normal 0 0 1
    outer loop
      vertex 2.44537 39.4802 3.8
      vertex 2.28386 38.9832 3.8
      vertex -0.344944 3.28192 3.8
    endloop
  endfacet
  facet normal 0 0 1
    outer loop
      vertex 2.28386 38.9832 3.8
      vertex 2.02254 38.5305 3.8
      vertex -0.344944 3.28192 3.8
    endloop
  endfacet
  facet normal 0 0 1
    outer loop
      vertex 2.02254 38.5305 3.8
      vertex 1.67283 38.1421 3.8
      vertex -0.344944 3.28192 3.8
    endloop
  endfacet
  facet normal 0 0 1
    outer loop
      vertex 1.67283 38.1421 3.8
      vertex 1.25 37.8349 3.8
      vertex -0.344944 3.28192 3.8
    endloop
  endfacet
  facet normal 0 0 1
    outer loop
      vertex 1.25 37.8349 3.8
      vertex 0.772542 37.6224 3.8
      vertex -0.344944 3.28192 3.8
    endloop
  endfacet
  facet normal 0 0 1
    outer loop
      vertex 0.772542 37.6224 3.8
      vertex 0.261321 37.5137 3.8
      vertex -0.344944 3.28192 3.8
    endloop
  endfacet
  facet normal 0 0 1
    outer loop
      vertex 0.261321 37.5137 3.8
      vertex -0.261321 37.5137 3.8
      vertex -0.344944 3.28192 3.8
    endloop
  endfacet
  facet normal -0 0 1
    outer loop
      vertex -0.261321 37.5137 3.8
      vertex -0.772542 37.6224 3.8
      vertex -0.344944 3.28192 3.8
    endloop
  endfacet
  facet normal -0 -0 1
    outer loop
      vertex -0.772542 37.6224 3.8
      vertex -1.25 37.8349 3.8
      vertex -0.344944 3.28192 3.8
    endloop
  endfacet
  facet normal -0 -0 1
    outer loop
      vertex -1.25 37.8349 3.8
      vertex -1.67283 38.1421 3.8
      vertex -0.344944 3.28192 3.8
    endloop
  endfacet
  facet normal -0 -0 1
    outer loop
      vertex -1.67283 38.1421 3.8
      vertex -2.02254 38.5305 3.8
      vertex -0.344944 3.28192 3.8
    endloop
  endfacet
  facet normal -0 -0 1
    outer loop
      vertex -2.02254 38.5305 3.8
      vertex -2.28386 38.9832 3.8
      vertex -0.344944 3.28192 3.8
    endloop
  endfacet
  facet normal -0 -0 1
    outer loop
      vertex -3.0147 -1.34223 3.8
      vertex -3.22789 -0.686109 3.8
      vertex -3 -1.9 3.8
    endloop
  endfacet
  facet normal 0 0 1
    outer loop
      vertex -0.261321 -37.5137 3.8
      vertex 0.261321 -37.5137 3.8
      vertex -3.22789 -0.686109 3.8
    endloop
  endfacet
  facet normal 0 0 1
    outer loop
      vertex -3.22789 0.686109 3.8
      vertex -3.0147 1.34223 3.8
      vertex -7.5 40 3.8
    endloop
  endfacet
  facet normal 0 0 1
    outer loop
      vertex -1.9 -7 3.8
      vertex -1.9 -2.67625 3.8
      vertex -2.20813 -2.45238 3.8
    endloop
  endfacet
  facet normal 0 0 1
    outer loop
      vertex 1.9 -7 3.8
      vertex 7.33611 -41.5593 3.8
      vertex 7.5 -40 3.8
    endloop
  endfacet
  facet normal 0 0 1
    outer loop
      vertex 1.9 -7 3.8
      vertex 6.85159 -43.0505 3.8
      vertex 7.33611 -41.5593 3.8
    endloop
  endfacet
  facet normal 0 0 1
    outer loop
      vertex 1.9 -7 3.8
      vertex 6.06763 -44.4084 3.8
      vertex 6.85159 -43.0505 3.8
    endloop
  endfacet
  facet normal 0 0 1
    outer loop
      vertex 1.9 -7 3.8
      vertex 5.01848 -45.5736 3.8
      vertex 6.06763 -44.4084 3.8
    endloop
  endfacet
  facet normal 0 0 1
    outer loop
      vertex 1.9 -7 3.8
      vertex 3.75 -46.4952 3.8
      vertex 5.01848 -45.5736 3.8
    endloop
  endfacet
  facet normal 0 -0 1
    outer loop
      vertex 1.9 -7 3.8
      vertex -1.9 -7 3.8
      vertex 3.75 -46.4952 3.8
    endloop
  endfacet
  facet normal -0.951057 -0.309017 -0
    outer loop
      vertex -7.33611 -41.5593 0
      vertex -6.85159 -43.0505 0
      vertex -7.33611 -41.5593 3.8
    endloop
  endfacet
  facet normal -0.951057 -0.309017 0
    outer loop
      vertex -7.33611 -41.5593 3.8
      vertex -6.85159 -43.0505 0
      vertex -6.85159 -43.0505 3.8
    endloop
  endfacet
  facet normal -0.866025 -0.5 -0
    outer loop
      vertex -6.85159 -43.0505 0
      vertex -6.06763 -44.4084 0
      vertex -6.85159 -43.0505 3.8
    endloop
  endfacet
  facet normal -0.866025 -0.5 0
    outer loop
      vertex -6.85159 -43.0505 3.8
      vertex -6.06763 -44.4084 0
      vertex -6.06763 -44.4084 3.8
    endloop
  endfacet
  facet normal -0.743145 -0.66913 -0
    outer loop
      vertex -6.06763 -44.4084 0
      vertex -5.01848 -45.5736 0
      vertex -6.06763 -44.4084 3.8
    endloop
  endfacet
  facet normal -0.743145 -0.66913 0
    outer loop
      vertex -6.06763 -44.4084 3.8
      vertex -5.01848 -45.5736 0
      vertex -5.01848 -45.5736 3.8
    endloop
  endfacet
  facet normal -0.587785 -0.809017 0
    outer loop
      vertex -5.01848 -45.5736 3.8
      vertex -5.01848 -45.5736 0
      vertex -3.75 -46.4952 0
    endloop
  endfacet
  facet normal -0.587785 -0.809017 0
    outer loop
      vertex -3.75 -46.4952 3.8
      vertex -5.01848 -45.5736 3.8
      vertex -3.75 -46.4952 0
    endloop
  endfacet
  facet normal -0.406736 -0.913546 0
    outer loop
      vertex -3.75 -46.4952 3.8
      vertex -3.75 -46.4952 0
      vertex -2.31763 -47.1329 0
    endloop
  endfacet
  facet normal -0.406736 -0.913546 0
    outer loop
      vertex -2.31763 -47.1329 3.8
      vertex -3.75 -46.4952 3.8
      vertex -2.31763 -47.1329 0
    endloop
  endfacet
  facet normal -0.207911 -0.978148 0
    outer loop
      vertex -2.31763 -47.1329 3.8
      vertex -2.31763 -47.1329 0
      vertex -0.783963 -47.4589 0
    endloop
  endfacet
  facet normal -0.207911 -0.978148 0
    outer loop
      vertex -0.783963 -47.4589 3.8
      vertex -2.31763 -47.1329 3.8
      vertex -0.783963 -47.4589 0
    endloop
  endfacet
  facet normal 0 -1 0
    outer loop
      vertex -0.783963 -47.4589 3.8
      vertex -0.783963 -47.4589 0
      vertex 0.783963 -47.4589 0
    endloop
  endfacet
  facet normal 0 -1 0
    outer loop
      vertex 0.783963 -47.4589 3.8
      vertex -0.783963 -47.4589 3.8
      vertex 0.783963 -47.4589 0
    endloop
  endfacet
  facet normal 0.207911 -0.978148 0
    outer loop
      vertex 0.783963 -47.4589 3.8
      vertex 0.783963 -47.4589 0
      vertex 2.31763 -47.1329 0
    endloop
  endfacet
  facet normal 0.207911 -0.978148 0
    outer loop
      vertex 2.31763 -47.1329 3.8
      vertex 0.783963 -47.4589 3.8
      vertex 2.31763 -47.1329 0
    endloop
  endfacet
  facet normal 0.406736 -0.913546 0
    outer loop
      vertex 2.31763 -47.1329 3.8
      vertex 2.31763 -47.1329 0
      vertex 3.75 -46.4952 0
    endloop
  endfacet
  facet normal 0.406736 -0.913546 0
    outer loop
      vertex 3.75 -46.4952 3.8
      vertex 2.31763 -47.1329 3.8
      vertex 3.75 -46.4952 0
    endloop
  endfacet
  facet normal 0.587785 -0.809017 0
    outer loop
      vertex 3.75 -46.4952 3.8
      vertex 3.75 -46.4952 0
      vertex 5.01848 -45.5736 0
    endloop
  endfacet
  facet normal 0.587785 -0.809017 0
    outer loop
      vertex 5.01848 -45.5736 3.8
      vertex 3.75 -46.4952 3.8
      vertex 5.01848 -45.5736 0
    endloop
  endfacet
  facet normal 0.743145 -0.66913 0
    outer loop
      vertex 5.01848 -45.5736 3.8
      vertex 5.01848 -45.5736 0
      vertex 6.06763 -44.4084 0
    endloop
  endfacet
  facet normal 0.743145 -0.66913 0
    outer loop
      vertex 6.06763 -44.4084 3.8
      vertex 5.01848 -45.5736 3.8
      vertex 6.06763 -44.4084 0
    endloop
  endfacet
  facet normal 0.866025 -0.5 0
    outer loop
      vertex 6.06763 -44.4084 3.8
      vertex 6.06763 -44.4084 0
      vertex 6.85159 -43.0505 0
    endloop
  endfacet
  facet normal 0.866025 -0.5 0
    outer loop
      vertex 6.85159 -43.0505 3.8
      vertex 6.06763 -44.4084 3.8
      vertex 6.85159 -43.0505 0
    endloop
  endfacet
  facet normal 0.951057 -0.309017 0
    outer loop
      vertex 6.85159 -43.0505 3.8
      vertex 6.85159 -43.0505 0
      vertex 7.33611 -41.5593 0
    endloop
  endfacet
  facet normal 0.951057 -0.309017 0
    outer loop
      vertex 7.33611 -41.5593 3.8
      vertex 6.85159 -43.0505 3.8
      vertex 7.33611 -41.5593 0
    endloop
  endfacet
  facet normal 0.994522 -0.104528 0
    outer loop
      vertex 7.33611 -41.5593 3.8
      vertex 7.33611 -41.5593 0
      vertex 7.5 -40 0
    endloop
  endfacet
  facet normal 0.994522 -0.104528 0
    outer loop
      vertex 7.5 -40 3.8
      vertex 7.33611 -41.5593 3.8
      vertex 7.5 -40 0
    endloop
  endfacet
  facet normal 1 0 -0
    outer loop
      vertex 7.5 -40 3.8
      vertex 7.5 -40 0
      vertex 7.5 40 0
    endloop
  endfacet
  facet normal 1 0 0
    outer loop
      vertex 7.5 40 3.8
      vertex 7.5 -40 3.8
      vertex 7.5 40 0
    endloop
  endfacet
  facet normal 0.994522 0.104528 0
    outer loop
      vertex 7.5 40 0
      vertex 7.33611 41.5593 0
      vertex 7.33611 41.5593 3.8
    endloop
  endfacet
  facet normal 0.994522 0.104528 -0
    outer loop
      vertex 7.5 40 3.8
      vertex 7.5 40 0
      vertex 7.33611 41.5593 3.8
    endloop
  endfacet
  facet normal 0.951057 0.309017 0
    outer loop
      vertex 7.33611 41.5593 0
      vertex 6.85159 43.0505 0
      vertex 6.85159 43.0505 3.8
    endloop
  endfacet
  facet normal 0.951057 0.309017 -0
    outer loop
      vertex 7.33611 41.5593 3.8
      vertex 7.33611 41.5593 0
      vertex 6.85159 43.0505 3.8
    endloop
  endfacet
  facet normal 0.866025 0.5 0
    outer loop
      vertex 6.85159 43.0505 0
      vertex 6.06763 44.4084 0
      vertex 6.06763 44.4084 3.8
    endloop
  endfacet
  facet normal 0.866025 0.5 -0
    outer loop
      vertex 6.85159 43.0505 3.8
      vertex 6.85159 43.0505 0
      vertex 6.06763 44.4084 3.8
    endloop
  endfacet
  facet normal 0.743145 0.66913 0
    outer loop
      vertex 6.06763 44.4084 0
      vertex 5.01848 45.5736 0
      vertex 5.01848 45.5736 3.8
    endloop
  endfacet
  facet normal 0.743145 0.66913 -0
    outer loop
      vertex 6.06763 44.4084 3.8
      vertex 6.06763 44.4084 0
      vertex 5.01848 45.5736 3.8
    endloop
  endfacet
  facet normal 0.587785 0.809017 0
    outer loop
      vertex 3.75 46.4952 0
      vertex 3.75 46.4952 3.8
      vertex 5.01848 45.5736 0
    endloop
  endfacet
  facet normal 0.587785 0.809017 0
    outer loop
      vertex 5.01848 45.5736 0
      vertex 3.75 46.4952 3.8
      vertex 5.01848 45.5736 3.8
    endloop
  endfacet
  facet normal 0.406736 0.913546 0
    outer loop
      vertex 2.31763 47.1329 0
      vertex 2.31763 47.1329 3.8
      vertex 3.75 46.4952 0
    endloop
  endfacet
  facet normal 0.406736 0.913546 0
    outer loop
      vertex 3.75 46.4952 0
      vertex 2.31763 47.1329 3.8
      vertex 3.75 46.4952 3.8
    endloop
  endfacet
  facet normal 0.207911 0.978148 0
    outer loop
      vertex 0.783963 47.4589 0
      vertex 0.783963 47.4589 3.8
      vertex 2.31763 47.1329 0
    endloop
  endfacet
  facet normal 0.207911 0.978148 0
    outer loop
      vertex 2.31763 47.1329 0
      vertex 0.783963 47.4589 3.8
      vertex 2.31763 47.1329 3.8
    endloop
  endfacet
  facet normal 0 1 0
    outer loop
      vertex -0.783963 47.4589 0
      vertex -0.783963 47.4589 3.8
      vertex 0.783963 47.4589 0
    endloop
  endfacet
  facet normal 0 1 0
    outer loop
      vertex 0.783963 47.4589 0
      vertex -0.783963 47.4589 3.8
      vertex 0.783963 47.4589 3.8
    endloop
  endfacet
  facet normal -0.207911 0.978148 0
    outer loop
      vertex -2.31763 47.1329 0
      vertex -2.31763 47.1329 3.8
      vertex -0.783963 47.4589 0
    endloop
  endfacet
  facet normal -0.207911 0.978148 0
    outer loop
      vertex -0.783963 47.4589 0
      vertex -2.31763 47.1329 3.8
      vertex -0.783963 47.4589 3.8
    endloop
  endfacet
  facet normal -0.406736 0.913546 0
    outer loop
      vertex -3.75 46.4952 0
      vertex -3.75 46.4952 3.8
      vertex -2.31763 47.1329 0
    endloop
  endfacet
  facet normal -0.406736 0.913546 0
    outer loop
      vertex -2.31763 47.1329 0
      vertex -3.75 46.4952 3.8
      vertex -2.31763 47.1329 3.8
    endloop
  endfacet
  facet normal -0.587785 0.809017 0
    outer loop
      vertex -5.01848 45.5736 0
      vertex -5.01848 45.5736 3.8
      vertex -3.75 46.4952 0
    endloop
  endfacet
  facet normal -0.587785 0.809017 0
    outer loop
      vertex -3.75 46.4952 0
      vertex -5.01848 45.5736 3.8
      vertex -3.75 46.4952 3.8
    endloop
  endfacet
  facet normal -0.743145 0.66913 0
    outer loop
      vertex -6.06763 44.4084 0
      vertex -6.06763 44.4084 3.8
      vertex -5.01848 45.5736 0
    endloop
  endfacet
  facet normal -0.743145 0.66913 0
    outer loop
      vertex -5.01848 45.5736 0
      vertex -6.06763 44.4084 3.8
      vertex -5.01848 45.5736 3.8
    endloop
  endfacet
  facet normal -0.866025 0.5 0
    outer loop
      vertex -6.85159 43.0505 0
      vertex -6.85159 43.0505 3.8
      vertex -6.06763 44.4084 0
    endloop
  endfacet
  facet normal -0.866025 0.5 0
    outer loop
      vertex -6.06763 44.4084 0
      vertex -6.85159 43.0505 3.8
      vertex -6.06763 44.4084 3.8
    endloop
  endfacet
  facet normal -0.951057 0.309017 0
    outer loop
      vertex -7.33611 41.5593 0
      vertex -7.33611 41.5593 3.8
      vertex -6.85159 43.0505 0
    endloop
  endfacet
  facet normal -0.951057 0.309017 0
    outer loop
      vertex -6.85159 43.0505 0
      vertex -7.33611 41.5593 3.8
      vertex -6.85159 43.0505 3.8
    endloop
  endfacet
  facet normal 0.994522 -0.104529 0
    outer loop
      vertex -3.22789 0.686109 0
      vertex -3.22789 0.686109 3.8
      vertex -3.3 0 3.8
    endloop
  endfacet
  facet normal 0.994522 -0.104529 0
    outer loop
      vertex -3.3 0 0
      vertex -3.22789 0.686109 0
      vertex -3.3 0 3.8
    endloop
  endfacet
  facet normal 0.994522 0.104529 0
    outer loop
      vertex -3.3 0 3.8
      vertex -3.22789 -0.686109 3.8
      vertex -3.22789 -0.686109 0
    endloop
  endfacet
  facet normal 0.994522 0.104529 0
    outer loop
      vertex -3.3 0 0
      vertex -3.3 0 3.8
      vertex -3.22789 -0.686109 0
    endloop
  endfacet
  facet normal 0.951056 -0.309017 0
    outer loop
      vertex -3.0147 1.34223 0
      vertex -3.0147 1.34223 3.8
      vertex -3.22789 0.686109 3.8
    endloop
  endfacet
  facet normal 0.951056 -0.309017 0
    outer loop
      vertex -3.22789 0.686109 0
      vertex -3.0147 1.34223 0
      vertex -3.22789 0.686109 3.8
    endloop
  endfacet
  facet normal 0.866025 -0.5 0
    outer loop
      vertex -3 1.36769 0
      vertex -3 1.36769 3.8
      vertex -3.0147 1.34223 3.8
    endloop
  endfacet
  facet normal 0.866025 -0.5 0
    outer loop
      vertex -3.0147 1.34223 0
      vertex -3 1.36769 0
      vertex -3.0147 1.34223 3.8
    endloop
  endfacet
  facet normal 1 0 0
    outer loop
      vertex -3 1.9 0
      vertex -3 1.9 3.8
      vertex -3 1.36769 3.8
    endloop
  endfacet
  facet normal 1 0 0
    outer loop
      vertex -3 1.36769 0
      vertex -3 1.9 0
      vertex -3 1.36769 3.8
    endloop
  endfacet
  facet normal 0 -1 0
    outer loop
      vertex -2.69267 1.9 0
      vertex -2.69267 1.9 3.8
      vertex -3 1.9 3.8
    endloop
  endfacet
  facet normal -0 -1 -0
    outer loop
      vertex -3 1.9 0
      vertex -2.69267 1.9 0
      vertex -3 1.9 3.8
    endloop
  endfacet
  facet normal 0.866025 -0.5 0
    outer loop
      vertex -2.66976 1.93969 0
      vertex -2.66976 1.93969 3.8
      vertex -2.69267 1.9 3.8
    endloop
  endfacet
  facet normal 0.866025 -0.5 0
    outer loop
      vertex -2.69267 1.9 0
      vertex -2.66976 1.93969 0
      vertex -2.69267 1.9 3.8
    endloop
  endfacet
  facet normal 0.743145 -0.66913 0
    outer loop
      vertex -2.20813 2.45238 0
      vertex -2.20813 2.45238 3.8
      vertex -2.66976 1.93969 3.8
    endloop
  endfacet
  facet normal 0.743145 -0.66913 0
    outer loop
      vertex -2.66976 1.93969 0
      vertex -2.20813 2.45238 0
      vertex -2.66976 1.93969 3.8
    endloop
  endfacet
  facet normal 0.587785 -0.809017 0
    outer loop
      vertex -1.65 2.85788 0
      vertex -1.65 2.85788 3.8
      vertex -2.20813 2.45238 3.8
    endloop
  endfacet
  facet normal 0.587785 -0.809017 0
    outer loop
      vertex -2.20813 2.45238 0
      vertex -1.65 2.85788 0
      vertex -2.20813 2.45238 3.8
    endloop
  endfacet
  facet normal 0.406737 -0.913545 0
    outer loop
      vertex -1.01976 3.13849 0
      vertex -1.01976 3.13849 3.8
      vertex -1.65 2.85788 3.8
    endloop
  endfacet
  facet normal 0.406737 -0.913545 0
    outer loop
      vertex -1.65 2.85788 0
      vertex -1.01976 3.13849 0
      vertex -1.65 2.85788 3.8
    endloop
  endfacet
  facet normal 0.207911 -0.978148 0
    outer loop
      vertex -0.344944 3.28192 0
      vertex -0.344944 3.28192 3.8
      vertex -1.01976 3.13849 3.8
    endloop
  endfacet
  facet normal 0.207911 -0.978148 0
    outer loop
      vertex -1.01976 3.13849 0
      vertex -0.344944 3.28192 0
      vertex -1.01976 3.13849 3.8
    endloop
  endfacet
  facet normal 0 -1 0
    outer loop
      vertex 0.344944 3.28192 0
      vertex 0.344944 3.28192 3.8
      vertex -0.344944 3.28192 3.8
    endloop
  endfacet
  facet normal -0 -1 -0
    outer loop
      vertex -0.344944 3.28192 0
      vertex 0.344944 3.28192 0
      vertex -0.344944 3.28192 3.8
    endloop
  endfacet
  facet normal -0.207911 -0.978148 -0
    outer loop
      vertex 1.01976 3.13849 0
      vertex 1.01976 3.13849 3.8
      vertex 0.344944 3.28192 3.8
    endloop
  endfacet
  facet normal -0.207911 -0.978148 -0
    outer loop
      vertex 0.344944 3.28192 0
      vertex 1.01976 3.13849 0
      vertex 0.344944 3.28192 3.8
    endloop
  endfacet
  facet normal -0.406737 -0.913545 -0
    outer loop
      vertex 1.65 2.85788 0
      vertex 1.65 2.85788 3.8
      vertex 1.01976 3.13849 3.8
    endloop
  endfacet
  facet normal -0.406737 -0.913545 -0
    outer loop
      vertex 1.01976 3.13849 0
      vertex 1.65 2.85788 0
      vertex 1.01976 3.13849 3.8
    endloop
  endfacet
  facet normal -0.587785 -0.809017 -0
    outer loop
      vertex 2.20813 2.45238 0
      vertex 2.20813 2.45238 3.8
      vertex 1.65 2.85788 3.8
    endloop
  endfacet
  facet normal -0.587785 -0.809017 -0
    outer loop
      vertex 1.65 2.85788 0
      vertex 2.20813 2.45238 0
      vertex 1.65 2.85788 3.8
    endloop
  endfacet
  facet normal -0.743145 -0.66913 0
    outer loop
      vertex 2.66976 1.93969 3.8
      vertex 2.20813 2.45238 3.8
      vertex 2.66976 1.93969 0
    endloop
  endfacet
  facet normal -0.743145 -0.66913 0
    outer loop
      vertex 2.66976 1.93969 0
      vertex 2.20813 2.45238 3.8
      vertex 2.20813 2.45238 0
    endloop
  endfacet
  facet normal -0.866025 -0.5 0
    outer loop
      vertex 2.69267 1.9 3.8
      vertex 2.66976 1.93969 3.8
      vertex 2.69267 1.9 0
    endloop
  endfacet
  facet normal -0.866025 -0.5 0
    outer loop
      vertex 2.69267 1.9 0
      vertex 2.66976 1.93969 3.8
      vertex 2.66976 1.93969 0
    endloop
  endfacet
  facet normal 0 -1 0
    outer loop
      vertex 3 1.9 0
      vertex 3 1.9 3.8
      vertex 2.69267 1.9 3.8
    endloop
  endfacet
  facet normal -0 -1 -0
    outer loop
      vertex 2.69267 1.9 0
      vertex 3 1.9 0
      vertex 2.69267 1.9 3.8
    endloop
  endfacet
  facet normal -1 0 0
    outer loop
      vertex 3 1.9 3.8
      vertex 3 1.9 0
      vertex 3 1.36769 3.8
    endloop
  endfacet
  facet normal -1 0 0
    outer loop
      vertex 3 1.36769 3.8
      vertex 3 1.9 0
      vertex 3 1.36769 0
    endloop
  endfacet
  facet normal -0.866025 -0.5 0
    outer loop
      vertex 3.0147 1.34223 3.8
      vertex 3 1.36769 3.8
      vertex 3.0147 1.34223 0
    endloop
  endfacet
  facet normal -0.866025 -0.5 0
    outer loop
      vertex 3.0147 1.34223 0
      vertex 3 1.36769 3.8
      vertex 3 1.36769 0
    endloop
  endfacet
  facet normal -0.951056 -0.309017 0
    outer loop
      vertex 3.22789 0.686109 3.8
      vertex 3.0147 1.34223 3.8
      vertex 3.22789 0.686109 0
    endloop
  endfacet
  facet normal -0.951056 -0.309017 0
    outer loop
      vertex 3.22789 0.686109 0
      vertex 3.0147 1.34223 3.8
      vertex 3.0147 1.34223 0
    endloop
  endfacet
  facet normal -0.994522 -0.104529 0
    outer loop
      vertex 3.3 0 3.8
      vertex 3.22789 0.686109 3.8
      vertex 3.3 0 0
    endloop
  endfacet
  facet normal -0.994522 -0.104529 0
    outer loop
      vertex 3.3 0 0
      vertex 3.22789 0.686109 3.8
      vertex 3.22789 0.686109 0
    endloop
  endfacet
  facet normal -0.994522 0.104529 0
    outer loop
      vertex 3.3 0 3.8
      vertex 3.3 0 0
      vertex 3.22789 -0.686109 3.8
    endloop
  endfacet
  facet normal -0.994522 0.104529 0
    outer loop
      vertex 3.22789 -0.686109 3.8
      vertex 3.3 0 0
      vertex 3.22789 -0.686109 0
    endloop
  endfacet
  facet normal -0.951056 0.309017 0
    outer loop
      vertex 3.22789 -0.686109 3.8
      vertex 3.22789 -0.686109 0
      vertex 3.0147 -1.34223 3.8
    endloop
  endfacet
  facet normal -0.951056 0.309017 0
    outer loop
      vertex 3.0147 -1.34223 3.8
      vertex 3.22789 -0.686109 0
      vertex 3.0147 -1.34223 0
    endloop
  endfacet
  facet normal -0.866025 0.5 0
    outer loop
      vertex 3.0147 -1.34223 3.8
      vertex 3.0147 -1.34223 0
      vertex 3 -1.36769 3.8
    endloop
  endfacet
  facet normal -0.866025 0.5 0
    outer loop
      vertex 3 -1.36769 3.8
      vertex 3.0147 -1.34223 0
      vertex 3 -1.36769 0
    endloop
  endfacet
  facet normal -1 0 0
    outer loop
      vertex 3 -1.36769 3.8
      vertex 3 -1.36769 0
      vertex 3 -1.9 3.8
    endloop
  endfacet
  facet normal -1 0 0
    outer loop
      vertex 3 -1.9 3.8
      vertex 3 -1.36769 0
      vertex 3 -1.9 0
    endloop
  endfacet
  facet normal 0 1 0
    outer loop
      vertex 3 -1.9 3.8
      vertex 3 -1.9 0
      vertex 2.69267 -1.9 3.8
    endloop
  endfacet
  facet normal 0 1 -0
    outer loop
      vertex 2.69267 -1.9 3.8
      vertex 3 -1.9 0
      vertex 2.69267 -1.9 0
    endloop
  endfacet
  facet normal -0.866025 0.5 0
    outer loop
      vertex 2.69267 -1.9 3.8
      vertex 2.69267 -1.9 0
      vertex 2.66976 -1.93969 3.8
    endloop
  endfacet
  facet normal -0.866025 0.5 0
    outer loop
      vertex 2.66976 -1.93969 3.8
      vertex 2.69267 -1.9 0
      vertex 2.66976 -1.93969 0
    endloop
  endfacet
  facet normal -0.743145 0.66913 0
    outer loop
      vertex 2.66976 -1.93969 3.8
      vertex 2.66976 -1.93969 0
      vertex 2.20813 -2.45238 3.8
    endloop
  endfacet
  facet normal -0.743145 0.66913 0
    outer loop
      vertex 2.20813 -2.45238 3.8
      vertex 2.66976 -1.93969 0
      vertex 2.20813 -2.45238 0
    endloop
  endfacet
  facet normal -0.587785 0.809017 0
    outer loop
      vertex 2.20813 -2.45238 3.8
      vertex 2.20813 -2.45238 0
      vertex 1.9 -2.67625 3.8
    endloop
  endfacet
  facet normal -0.587785 0.809017 0
    outer loop
      vertex 1.9 -2.67625 3.8
      vertex 2.20813 -2.45238 0
      vertex 1.9 -2.67625 0
    endloop
  endfacet
  facet normal -1 0 0
    outer loop
      vertex 1.9 -2.67625 3.8
      vertex 1.9 -2.67625 0
      vertex 1.9 -7 3.8
    endloop
  endfacet
  facet normal -1 0 0
    outer loop
      vertex 1.9 -7 3.8
      vertex 1.9 -2.67625 0
      vertex 1.9 -7 0
    endloop
  endfacet
  facet normal 0 1 0
    outer loop
      vertex 1.9 -7 3.8
      vertex 1.9 -7 0
      vertex -1.9 -7 3.8
    endloop
  endfacet
  facet normal 0 1 -0
    outer loop
      vertex -1.9 -7 3.8
      vertex 1.9 -7 0
      vertex -1.9 -7 0
    endloop
  endfacet
  facet normal 1 0 0
    outer loop
      vertex -1.9 -2.67625 0
      vertex -1.9 -2.67625 3.8
      vertex -1.9 -7 3.8
    endloop
  endfacet
  facet normal 1 0 0
    outer loop
      vertex -1.9 -7 0
      vertex -1.9 -2.67625 0
      vertex -1.9 -7 3.8
    endloop
  endfacet
  facet normal 0.587785 0.809017 -0
    outer loop
      vertex -1.9 -2.67625 3.8
      vertex -1.9 -2.67625 0
      vertex -2.20813 -2.45238 3.8
    endloop
  endfacet
  facet normal 0.587785 0.809017 -0
    outer loop
      vertex -2.20813 -2.45238 3.8
      vertex -1.9 -2.67625 0
      vertex -2.20813 -2.45238 0
    endloop
  endfacet
  facet normal 0.743145 0.66913 0
    outer loop
      vertex -2.66976 -1.93969 3.8
      vertex -2.20813 -2.45238 3.8
      vertex -2.20813 -2.45238 0
    endloop
  endfacet
  facet normal 0.743145 0.66913 0
    outer loop
      vertex -2.66976 -1.93969 0
      vertex -2.66976 -1.93969 3.8
      vertex -2.20813 -2.45238 0
    endloop
  endfacet
  facet normal 0.866025 0.5 0
    outer loop
      vertex -2.69267 -1.9 3.8
      vertex -2.66976 -1.93969 3.8
      vertex -2.66976 -1.93969 0
    endloop
  endfacet
  facet normal 0.866025 0.5 0
    outer loop
      vertex -2.69267 -1.9 0
      vertex -2.69267 -1.9 3.8
      vertex -2.66976 -1.93969 0
    endloop
  endfacet
  facet normal 0 1 0
    outer loop
      vertex -2.69267 -1.9 3.8
      vertex -2.69267 -1.9 0
      vertex -3 -1.9 3.8
    endloop
  endfacet
  facet normal 0 1 -0
    outer loop
      vertex -3 -1.9 3.8
      vertex -2.69267 -1.9 0
      vertex -3 -1.9 0
    endloop
  endfacet
  facet normal 1 0 0
    outer loop
      vertex -3 -1.36769 0
      vertex -3 -1.36769 3.8
      vertex -3 -1.9 3.8
    endloop
  endfacet
  facet normal 1 0 0
    outer loop
      vertex -3 -1.9 0
      vertex -3 -1.36769 0
      vertex -3 -1.9 3.8
    endloop
  endfacet
  facet normal 0.866025 0.5 0
    outer loop
      vertex -3.0147 -1.34223 3.8
      vertex -3 -1.36769 3.8
      vertex -3 -1.36769 0
    endloop
  endfacet
  facet normal 0.866025 0.5 0
    outer loop
      vertex -3.0147 -1.34223 0
      vertex -3.0147 -1.34223 3.8
      vertex -3 -1.36769 0
    endloop
  endfacet
  facet normal 0.951056 0.309017 0
    outer loop
      vertex -3.22789 -0.686109 3.8
      vertex -3.0147 -1.34223 3.8
      vertex -3.0147 -1.34223 0
    endloop
  endfacet
  facet normal 0.951056 0.309017 0
    outer loop
      vertex -3.22789 -0.686109 0
      vertex -3.22789 -0.686109 3.8
      vertex -3.0147 -1.34223 0
    endloop
  endfacet
  facet normal 0.994522 -0.104529 0
    outer loop
      vertex -2.44537 -39.4802 0
      vertex -2.44537 -39.4802 3.8
      vertex -2.5 -40 3.8
    endloop
  endfacet
  facet normal 0.994522 -0.104529 0
    outer loop
      vertex -2.5 -40 0
      vertex -2.44537 -39.4802 0
      vertex -2.5 -40 3.8
    endloop
  endfacet
  facet normal 0.994522 0.104529 0
    outer loop
      vertex -2.5 -40 3.8
      vertex -2.44537 -40.5198 3.8
      vertex -2.44537 -40.5198 0
    endloop
  endfacet
  facet normal 0.994522 0.104529 0
    outer loop
      vertex -2.5 -40 0
      vertex -2.5 -40 3.8
      vertex -2.44537 -40.5198 0
    endloop
  endfacet
  facet normal 0.951057 -0.309016 0
    outer loop
      vertex -2.28386 -38.9832 0
      vertex -2.28386 -38.9832 3.8
      vertex -2.44537 -39.4802 3.8
    endloop
  endfacet
  facet normal 0.951057 -0.309016 0
    outer loop
      vertex -2.44537 -39.4802 0
      vertex -2.28386 -38.9832 0
      vertex -2.44537 -39.4802 3.8
    endloop
  endfacet
  facet normal 0.866024 -0.500002 0
    outer loop
      vertex -2.02254 -38.5305 0
      vertex -2.02254 -38.5305 3.8
      vertex -2.28386 -38.9832 3.8
    endloop
  endfacet
  facet normal 0.866024 -0.500002 0
    outer loop
      vertex -2.28386 -38.9832 0
      vertex -2.02254 -38.5305 0
      vertex -2.28386 -38.9832 3.8
    endloop
  endfacet
  facet normal 0.743146 -0.66913 0
    outer loop
      vertex -1.67283 -38.1421 0
      vertex -1.67283 -38.1421 3.8
      vertex -2.02254 -38.5305 3.8
    endloop
  endfacet
  facet normal 0.743146 -0.66913 0
    outer loop
      vertex -2.02254 -38.5305 0
      vertex -1.67283 -38.1421 0
      vertex -2.02254 -38.5305 3.8
    endloop
  endfacet
  facet normal 0.587786 -0.809017 0
    outer loop
      vertex -1.25 -37.8349 0
      vertex -1.25 -37.8349 3.8
      vertex -1.67283 -38.1421 3.8
    endloop
  endfacet
  facet normal 0.587786 -0.809017 0
    outer loop
      vertex -1.67283 -38.1421 0
      vertex -1.25 -37.8349 0
      vertex -1.67283 -38.1421 3.8
    endloop
  endfacet
  facet normal 0.406735 -0.913546 0
    outer loop
      vertex -0.772542 -37.6224 0
      vertex -0.772542 -37.6224 3.8
      vertex -1.25 -37.8349 3.8
    endloop
  endfacet
  facet normal 0.406735 -0.913546 0
    outer loop
      vertex -1.25 -37.8349 0
      vertex -0.772542 -37.6224 0
      vertex -1.25 -37.8349 3.8
    endloop
  endfacet
  facet normal 0.207913 -0.978147 0
    outer loop
      vertex -0.261321 -37.5137 0
      vertex -0.261321 -37.5137 3.8
      vertex -0.772542 -37.6224 3.8
    endloop
  endfacet
  facet normal 0.207913 -0.978147 0
    outer loop
      vertex -0.772542 -37.6224 0
      vertex -0.261321 -37.5137 0
      vertex -0.772542 -37.6224 3.8
    endloop
  endfacet
  facet normal 0 -1 0
    outer loop
      vertex 0.261321 -37.5137 0
      vertex 0.261321 -37.5137 3.8
      vertex -0.261321 -37.5137 3.8
    endloop
  endfacet
  facet normal -0 -1 -0
    outer loop
      vertex -0.261321 -37.5137 0
      vertex 0.261321 -37.5137 0
      vertex -0.261321 -37.5137 3.8
    endloop
  endfacet
  facet normal -0.207913 -0.978147 -0
    outer loop
      vertex 0.772542 -37.6224 0
      vertex 0.772542 -37.6224 3.8
      vertex 0.261321 -37.5137 3.8
    endloop
  endfacet
  facet normal -0.207913 -0.978147 -0
    outer loop
      vertex 0.261321 -37.5137 0
      vertex 0.772542 -37.6224 0
      vertex 0.261321 -37.5137 3.8
    endloop
  endfacet
  facet normal -0.406735 -0.913546 -0
    outer loop
      vertex 1.25 -37.8349 0
      vertex 1.25 -37.8349 3.8
      vertex 0.772542 -37.6224 3.8
    endloop
  endfacet
  facet normal -0.406735 -0.913546 -0
    outer loop
      vertex 0.772542 -37.6224 0
      vertex 1.25 -37.8349 0
      vertex 0.772542 -37.6224 3.8
    endloop
  endfacet
  facet normal -0.587786 -0.809017 -0
    outer loop
      vertex 1.67283 -38.1421 0
      vertex 1.67283 -38.1421 3.8
      vertex 1.25 -37.8349 3.8
    endloop
  endfacet
  facet normal -0.587786 -0.809017 -0
    outer loop
      vertex 1.25 -37.8349 0
      vertex 1.67283 -38.1421 0
      vertex 1.25 -37.8349 3.8
    endloop
  endfacet
  facet normal -0.743146 -0.66913 0
    outer loop
      vertex 2.02254 -38.5305 3.8
      vertex 1.67283 -38.1421 3.8
      vertex 2.02254 -38.5305 0
    endloop
  endfacet
  facet normal -0.743146 -0.66913 0
    outer loop
      vertex 2.02254 -38.5305 0
      vertex 1.67283 -38.1421 3.8
      vertex 1.67283 -38.1421 0
    endloop
  endfacet
  facet normal -0.866024 -0.500002 0
    outer loop
      vertex 2.28386 -38.9832 3.8
      vertex 2.02254 -38.5305 3.8
      vertex 2.28386 -38.9832 0
    endloop
  endfacet
  facet normal -0.866024 -0.500002 0
    outer loop
      vertex 2.28386 -38.9832 0
      vertex 2.02254 -38.5305 3.8
      vertex 2.02254 -38.5305 0
    endloop
  endfacet
  facet normal -0.951057 -0.309016 0
    outer loop
      vertex 2.44537 -39.4802 3.8
      vertex 2.28386 -38.9832 3.8
      vertex 2.44537 -39.4802 0
    endloop
  endfacet
  facet normal -0.951057 -0.309016 0
    outer loop
      vertex 2.44537 -39.4802 0
      vertex 2.28386 -38.9832 3.8
      vertex 2.28386 -38.9832 0
    endloop
  endfacet
  facet normal -0.994522 -0.104529 0
    outer loop
      vertex 2.5 -40 3.8
      vertex 2.44537 -39.4802 3.8
      vertex 2.5 -40 0
    endloop
  endfacet
  facet normal -0.994522 -0.104529 0
    outer loop
      vertex 2.5 -40 0
      vertex 2.44537 -39.4802 3.8
      vertex 2.44537 -39.4802 0
    endloop
  endfacet
  facet normal -0.994522 0.104529 0
    outer loop
      vertex 2.5 -40 3.8
      vertex 2.5 -40 0
      vertex 2.44537 -40.5198 3.8
    endloop
  endfacet
  facet normal -0.994522 0.104529 0
    outer loop
      vertex 2.44537 -40.5198 3.8
      vertex 2.5 -40 0
      vertex 2.44537 -40.5198 0
    endloop
  endfacet
  facet normal -0.951057 0.309016 0
    outer loop
      vertex 2.44537 -40.5198 3.8
      vertex 2.44537 -40.5198 0
      vertex 2.28386 -41.0168 3.8
    endloop
  endfacet
  facet normal -0.951057 0.309016 0
    outer loop
      vertex 2.28386 -41.0168 3.8
      vertex 2.44537 -40.5198 0
      vertex 2.28386 -41.0168 0
    endloop
  endfacet
  facet normal -0.866024 0.500002 0
    outer loop
      vertex 2.28386 -41.0168 3.8
      vertex 2.28386 -41.0168 0
      vertex 2.02254 -41.4695 3.8
    endloop
  endfacet
  facet normal -0.866024 0.500002 0
    outer loop
      vertex 2.02254 -41.4695 3.8
      vertex 2.28386 -41.0168 0
      vertex 2.02254 -41.4695 0
    endloop
  endfacet
  facet normal -0.743146 0.66913 0
    outer loop
      vertex 2.02254 -41.4695 3.8
      vertex 2.02254 -41.4695 0
      vertex 1.67283 -41.8579 3.8
    endloop
  endfacet
  facet normal -0.743146 0.66913 0
    outer loop
      vertex 1.67283 -41.8579 3.8
      vertex 2.02254 -41.4695 0
      vertex 1.67283 -41.8579 0
    endloop
  endfacet
  facet normal -0.587786 0.809017 0
    outer loop
      vertex 1.67283 -41.8579 3.8
      vertex 1.67283 -41.8579 0
      vertex 1.25 -42.1651 3.8
    endloop
  endfacet
  facet normal -0.587786 0.809017 0
    outer loop
      vertex 1.25 -42.1651 3.8
      vertex 1.67283 -41.8579 0
      vertex 1.25 -42.1651 0
    endloop
  endfacet
  facet normal -0.406735 0.913546 0
    outer loop
      vertex 1.25 -42.1651 3.8
      vertex 1.25 -42.1651 0
      vertex 0.772542 -42.3776 3.8
    endloop
  endfacet
  facet normal -0.406735 0.913546 0
    outer loop
      vertex 0.772542 -42.3776 3.8
      vertex 1.25 -42.1651 0
      vertex 0.772542 -42.3776 0
    endloop
  endfacet
  facet normal -0.207913 0.978147 0
    outer loop
      vertex 0.772542 -42.3776 3.8
      vertex 0.772542 -42.3776 0
      vertex 0.261321 -42.4863 3.8
    endloop
  endfacet
  facet normal -0.207913 0.978147 0
    outer loop
      vertex 0.261321 -42.4863 3.8
      vertex 0.772542 -42.3776 0
      vertex 0.261321 -42.4863 0
    endloop
  endfacet
  facet normal 0 1 0
    outer loop
      vertex 0.261321 -42.4863 3.8
      vertex 0.261321 -42.4863 0
      vertex -0.261321 -42.4863 3.8
    endloop
  endfacet
  facet normal 0 1 -0
    outer loop
      vertex -0.261321 -42.4863 3.8
      vertex 0.261321 -42.4863 0
      vertex -0.261321 -42.4863 0
    endloop
  endfacet
  facet normal 0.207913 0.978147 -0
    outer loop
      vertex -0.261321 -42.4863 3.8
      vertex -0.261321 -42.4863 0
      vertex -0.772542 -42.3776 3.8
    endloop
  endfacet
  facet normal 0.207913 0.978147 -0
    outer loop
      vertex -0.772542 -42.3776 3.8
      vertex -0.261321 -42.4863 0
      vertex -0.772542 -42.3776 0
    endloop
  endfacet
  facet normal 0.406735 0.913546 -0
    outer loop
      vertex -0.772542 -42.3776 3.8
      vertex -0.772542 -42.3776 0
      vertex -1.25 -42.1651 3.8
    endloop
  endfacet
  facet normal 0.406735 0.913546 -0
    outer loop
      vertex -1.25 -42.1651 3.8
      vertex -0.772542 -42.3776 0
      vertex -1.25 -42.1651 0
    endloop
  endfacet
  facet normal 0.587786 0.809017 -0
    outer loop
      vertex -1.25 -42.1651 3.8
      vertex -1.25 -42.1651 0
      vertex -1.67283 -41.8579 3.8
    endloop
  endfacet
  facet normal 0.587786 0.809017 -0
    outer loop
      vertex -1.67283 -41.8579 3.8
      vertex -1.25 -42.1651 0
      vertex -1.67283 -41.8579 0
    endloop
  endfacet
  facet normal 0.743146 0.66913 0
    outer loop
      vertex -2.02254 -41.4695 3.8
      vertex -1.67283 -41.8579 3.8
      vertex -1.67283 -41.8579 0
    endloop
  endfacet
  facet normal 0.743146 0.66913 0
    outer loop
      vertex -2.02254 -41.4695 0
      vertex -2.02254 -41.4695 3.8
      vertex -1.67283 -41.8579 0
    endloop
  endfacet
  facet normal 0.866024 0.500002 0
    outer loop
      vertex -2.28386 -41.0168 3.8
      vertex -2.02254 -41.4695 3.8
      vertex -2.02254 -41.4695 0
    endloop
  endfacet
  facet normal 0.866024 0.500002 0
    outer loop
      vertex -2.28386 -41.0168 0
      vertex -2.28386 -41.0168 3.8
      vertex -2.02254 -41.4695 0
    endloop
  endfacet
  facet normal 0.951057 0.309016 0
    outer loop
      vertex -2.44537 -40.5198 3.8
      vertex -2.28386 -41.0168 3.8
      vertex -2.28386 -41.0168 0
    endloop
  endfacet
  facet normal 0.951057 0.309016 0
    outer loop
      vertex -2.44537 -40.5198 0
      vertex -2.44537 -40.5198 3.8
      vertex -2.28386 -41.0168 0
    endloop
  endfacet
  facet normal 0.994522 -0.104529 0
    outer loop
      vertex -2.44537 40.5198 0
      vertex -2.44537 40.5198 3.8
      vertex -2.5 40 3.8
    endloop
  endfacet
  facet normal 0.994522 -0.104529 0
    outer loop
      vertex -2.5 40 0
      vertex -2.44537 40.5198 0
      vertex -2.5 40 3.8
    endloop
  endfacet
  facet normal 0.994522 0.104529 0
    outer loop
      vertex -2.5 40 3.8
      vertex -2.44537 39.4802 3.8
      vertex -2.44537 39.4802 0
    endloop
  endfacet
  facet normal 0.994522 0.104529 0
    outer loop
      vertex -2.5 40 0
      vertex -2.5 40 3.8
      vertex -2.44537 39.4802 0
    endloop
  endfacet
  facet normal 0.951057 -0.309016 0
    outer loop
      vertex -2.28386 41.0168 0
      vertex -2.28386 41.0168 3.8
      vertex -2.44537 40.5198 3.8
    endloop
  endfacet
  facet normal 0.951057 -0.309016 0
    outer loop
      vertex -2.44537 40.5198 0
      vertex -2.28386 41.0168 0
      vertex -2.44537 40.5198 3.8
    endloop
  endfacet
  facet normal 0.866024 -0.500002 0
    outer loop
      vertex -2.02254 41.4695 0
      vertex -2.02254 41.4695 3.8
      vertex -2.28386 41.0168 3.8
    endloop
  endfacet
  facet normal 0.866024 -0.500002 0
    outer loop
      vertex -2.28386 41.0168 0
      vertex -2.02254 41.4695 0
      vertex -2.28386 41.0168 3.8
    endloop
  endfacet
  facet normal 0.743146 -0.66913 0
    outer loop
      vertex -1.67283 41.8579 0
      vertex -1.67283 41.8579 3.8
      vertex -2.02254 41.4695 3.8
    endloop
  endfacet
  facet normal 0.743146 -0.66913 0
    outer loop
      vertex -2.02254 41.4695 0
      vertex -1.67283 41.8579 0
      vertex -2.02254 41.4695 3.8
    endloop
  endfacet
  facet normal 0.587786 -0.809017 0
    outer loop
      vertex -1.25 42.1651 0
      vertex -1.25 42.1651 3.8
      vertex -1.67283 41.8579 3.8
    endloop
  endfacet
  facet normal 0.587786 -0.809017 0
    outer loop
      vertex -1.67283 41.8579 0
      vertex -1.25 42.1651 0
      vertex -1.67283 41.8579 3.8
    endloop
  endfacet
  facet normal 0.406735 -0.913546 0
    outer loop
      vertex -0.772542 42.3776 0
      vertex -0.772542 42.3776 3.8
      vertex -1.25 42.1651 3.8
    endloop
  endfacet
  facet normal 0.406735 -0.913546 0
    outer loop
      vertex -1.25 42.1651 0
      vertex -0.772542 42.3776 0
      vertex -1.25 42.1651 3.8
    endloop
  endfacet
  facet normal 0.207913 -0.978147 0
    outer loop
      vertex -0.261321 42.4863 0
      vertex -0.261321 42.4863 3.8
      vertex -0.772542 42.3776 3.8
    endloop
  endfacet
  facet normal 0.207913 -0.978147 0
    outer loop
      vertex -0.772542 42.3776 0
      vertex -0.261321 42.4863 0
      vertex -0.772542 42.3776 3.8
    endloop
  endfacet
  facet normal 0 -1 0
    outer loop
      vertex 0.261321 42.4863 0
      vertex 0.261321 42.4863 3.8
      vertex -0.261321 42.4863 3.8
    endloop
  endfacet
  facet normal -0 -1 -0
    outer loop
      vertex -0.261321 42.4863 0
      vertex 0.261321 42.4863 0
      vertex -0.261321 42.4863 3.8
    endloop
  endfacet
  facet normal -0.207913 -0.978147 -0
    outer loop
      vertex 0.772542 42.3776 0
      vertex 0.772542 42.3776 3.8
      vertex 0.261321 42.4863 3.8
    endloop
  endfacet
  facet normal -0.207913 -0.978147 -0
    outer loop
      vertex 0.261321 42.4863 0
      vertex 0.772542 42.3776 0
      vertex 0.261321 42.4863 3.8
    endloop
  endfacet
  facet normal -0.406735 -0.913546 -0
    outer loop
      vertex 1.25 42.1651 0
      vertex 1.25 42.1651 3.8
      vertex 0.772542 42.3776 3.8
    endloop
  endfacet
  facet normal -0.406735 -0.913546 -0
    outer loop
      vertex 0.772542 42.3776 0
      vertex 1.25 42.1651 0
      vertex 0.772542 42.3776 3.8
    endloop
  endfacet
  facet normal -0.587786 -0.809017 -0
    outer loop
      vertex 1.67283 41.8579 0
      vertex 1.67283 41.8579 3.8
      vertex 1.25 42.1651 3.8
    endloop
  endfacet
  facet normal -0.587786 -0.809017 -0
    outer loop
      vertex 1.25 42.1651 0
      vertex 1.67283 41.8579 0
      vertex 1.25 42.1651 3.8
    endloop
  endfacet
  facet normal -0.743146 -0.66913 0
    outer loop
      vertex 2.02254 41.4695 3.8
      vertex 1.67283 41.8579 3.8
      vertex 2.02254 41.4695 0
    endloop
  endfacet
  facet normal -0.743146 -0.66913 0
    outer loop
      vertex 2.02254 41.4695 0
      vertex 1.67283 41.8579 3.8
      vertex 1.67283 41.8579 0
    endloop
  endfacet
  facet normal -0.866024 -0.500002 0
    outer loop
      vertex 2.28386 41.0168 3.8
      vertex 2.02254 41.4695 3.8
      vertex 2.28386 41.0168 0
    endloop
  endfacet
  facet normal -0.866024 -0.500002 0
    outer loop
      vertex 2.28386 41.0168 0
      vertex 2.02254 41.4695 3.8
      vertex 2.02254 41.4695 0
    endloop
  endfacet
  facet normal -0.951057 -0.309016 0
    outer loop
      vertex 2.44537 40.5198 3.8
      vertex 2.28386 41.0168 3.8
      vertex 2.44537 40.5198 0
    endloop
  endfacet
  facet normal -0.951057 -0.309016 0
    outer loop
      vertex 2.44537 40.5198 0
      vertex 2.28386 41.0168 3.8
      vertex 2.28386 41.0168 0
    endloop
  endfacet
  facet normal -0.994522 -0.104529 0
    outer loop
      vertex 2.5 40 3.8
      vertex 2.44537 40.5198 3.8
      vertex 2.5 40 0
    endloop
  endfacet
  facet normal -0.994522 -0.104529 0
    outer loop
      vertex 2.5 40 0
      vertex 2.44537 40.5198 3.8
      vertex 2.44537 40.5198 0
    endloop
  endfacet
  facet normal -0.994522 0.104529 0
    outer loop
      vertex 2.5 40 3.8
      vertex 2.5 40 0
      vertex 2.44537 39.4802 3.8
    endloop
  endfacet
  facet normal -0.994522 0.104529 0
    outer loop
      vertex 2.44537 39.4802 3.8
      vertex 2.5 40 0
      vertex 2.44537 39.4802 0
    endloop
  endfacet
  facet normal -0.951057 0.309016 0
    outer loop
      vertex 2.44537 39.4802 3.8
      vertex 2.44537 39.4802 0
      vertex 2.28386 38.9832 3.8
    endloop
  endfacet
  facet normal -0.951057 0.309016 0
    outer loop
      vertex 2.28386 38.9832 3.8
      vertex 2.44537 39.4802 0
      vertex 2.28386 38.9832 0
    endloop
  endfacet
  facet normal -0.866024 0.500002 0
    outer loop
      vertex 2.28386 38.9832 3.8
      vertex 2.28386 38.9832 0
      vertex 2.02254 38.5305 3.8
    endloop
  endfacet
  facet normal -0.866024 0.500002 0
    outer loop
      vertex 2.02254 38.5305 3.8
      vertex 2.28386 38.9832 0
      vertex 2.02254 38.5305 0
    endloop
  endfacet
  facet normal -0.743146 0.66913 0
    outer loop
      vertex 2.02254 38.5305 3.8
      vertex 2.02254 38.5305 0
      vertex 1.67283 38.1421 3.8
    endloop
  endfacet
  facet normal -0.743146 0.66913 0
    outer loop
      vertex 1.67283 38.1421 3.8
      vertex 2.02254 38.5305 0
      vertex 1.67283 38.1421 0
    endloop
  endfacet
  facet normal -0.587786 0.809017 0
    outer loop
      vertex 1.67283 38.1421 3.8
      vertex 1.67283 38.1421 0
      vertex 1.25 37.8349 3.8
    endloop
  endfacet
  facet normal -0.587786 0.809017 0
    outer loop
      vertex 1.25 37.8349 3.8
      vertex 1.67283 38.1421 0
      vertex 1.25 37.8349 0
    endloop
  endfacet
  facet normal -0.406735 0.913546 0
    outer loop
      vertex 1.25 37.8349 3.8
      vertex 1.25 37.8349 0
      vertex 0.772542 37.6224 3.8
    endloop
  endfacet
  facet normal -0.406735 0.913546 0
    outer loop
      vertex 0.772542 37.6224 3.8
      vertex 1.25 37.8349 0
      vertex 0.772542 37.6224 0
    endloop
  endfacet
  facet normal -0.207913 0.978147 0
    outer loop
      vertex 0.772542 37.6224 3.8
      vertex 0.772542 37.6224 0
      vertex 0.261321 37.5137 3.8
    endloop
  endfacet
  facet normal -0.207913 0.978147 0
    outer loop
      vertex 0.261321 37.5137 3.8
      vertex 0.772542 37.6224 0
      vertex 0.261321 37.5137 0
    endloop
  endfacet
  facet normal 0 1 0
    outer loop
      vertex 0.261321 37.5137 3.8
      vertex 0.261321 37.5137 0
      vertex -0.261321 37.5137 3.8
    endloop
  endfacet
  facet normal 0 1 -0
    outer loop
      vertex -0.261321 37.5137 3.8
      vertex 0.261321 37.5137 0
      vertex -0.261321 37.5137 0
    endloop
  endfacet
  facet normal 0.207913 0.978147 -0
    outer loop
      vertex -0.261321 37.5137 3.8
      vertex -0.261321 37.5137 0
      vertex -0.772542 37.6224 3.8
    endloop
  endfacet
  facet normal 0.207913 0.978147 -0
    outer loop
      vertex -0.772542 37.6224 3.8
      vertex -0.261321 37.5137 0
      vertex -0.772542 37.6224 0
    endloop
  endfacet
  facet normal 0.406735 0.913546 -0
    outer loop
      vertex -0.772542 37.6224 3.8
      vertex -0.772542 37.6224 0
      vertex -1.25 37.8349 3.8
    endloop
  endfacet
  facet normal 0.406735 0.913546 -0
    outer loop
      vertex -1.25 37.8349 3.8
      vertex -0.772542 37.6224 0
      vertex -1.25 37.8349 0
    endloop
  endfacet
  facet normal 0.587786 0.809017 -0
    outer loop
      vertex -1.25 37.8349 3.8
      vertex -1.25 37.8349 0
      vertex -1.67283 38.1421 3.8
    endloop
  endfacet
  facet normal 0.587786 0.809017 -0
    outer loop
      vertex -1.67283 38.1421 3.8
      vertex -1.25 37.8349 0
      vertex -1.67283 38.1421 0
    endloop
  endfacet
  facet normal 0.743146 0.66913 0
    outer loop
      vertex -2.02254 38.5305 3.8
      vertex -1.67283 38.1421 3.8
      vertex -1.67283 38.1421 0
    endloop
  endfacet
  facet normal 0.743146 0.66913 0
    outer loop
      vertex -2.02254 38.5305 0
      vertex -2.02254 38.5305 3.8
      vertex -1.67283 38.1421 0
    endloop
  endfacet
  facet normal 0.866024 0.500002 0
    outer loop
      vertex -2.28386 38.9832 3.8
      vertex -2.02254 38.5305 3.8
      vertex -2.02254 38.5305 0
    endloop
  endfacet
  facet normal 0.866024 0.500002 0
    outer loop
      vertex -2.28386 38.9832 0
      vertex -2.28386 38.9832 3.8
      vertex -2.02254 38.5305 0
    endloop
  endfacet
  facet normal 0.951057 0.309016 0
    outer loop
      vertex -2.44537 39.4802 3.8
      vertex -2.28386 38.9832 3.8
      vertex -2.28386 38.9832 0
    endloop
  endfacet
  facet normal 0.951057 0.309016 0
    outer loop
      vertex -2.44537 39.4802 0
      vertex -2.44537 39.4802 3.8
      vertex -2.28386 38.9832 0
    endloop
  endfacet
endsolid OpenSCAD_Model
