solid OpenSCAD_Model
  facet normal 1 -7.95063e-17 1.07441e-16
    outer loop
      vertex 6 5 -0.3
      vertex 6 0 4.26667
      vertex 6 0 -4
    endloop
  endfacet
  facet normal 1 -0 1.54466e-16
    outer loop
      vertex 6 24 7.5
      vertex 6 19.4 7.5
      vertex 6 24 -4
    endloop
  endfacet
  facet normal 1 -6.89862e-17 3.02031e-16
    outer loop
      vertex 6 9.5 2.29808
      vertex 6 11 -0.3
      vertex 6 19.4 7.5
    endloop
  endfacet
  facet normal 1 8.81263e-17 2.9098e-16
    outer loop
      vertex 6 6.5 2.29808
      vertex 6 0 4.26667
      vertex 6 5 -0.3
    endloop
  endfacet
  facet normal 1 2.95311e-17 9.75075e-17
    outer loop
      vertex 6 19.4 7.5
      vertex 6 0 4.26667
      vertex 6 6.5 2.29808
    endloop
  endfacet
  facet normal 1 -4.07529e-32 1.7074e-16
    outer loop
      vertex 6 19.4 7.5
      vertex 6 6.5 2.29808
      vertex 6 9.5 2.29808
    endloop
  endfacet
  facet normal 1 0 0
    outer loop
      vertex 6 16.5 -2.89808
      vertex 6 11 -0.3
      vertex 6 9.5 -2.89808
    endloop
  endfacet
  facet normal 1 6.00495e-32 2.27738e-16
    outer loop
      vertex 6 15 -0.3
      vertex 6 19.4 7.5
      vertex 6 11 -0.3
    endloop
  endfacet
  facet normal 1 -0 0
    outer loop
      vertex 6 24 -4
      vertex 6 9.5 -2.89808
      vertex 6 0 -4
    endloop
  endfacet
  facet normal 1 0 -0
    outer loop
      vertex 6 21 -0.3
      vertex 6 19.5 -2.89808
      vertex 6 24 -4
    endloop
  endfacet
  facet normal 1 0 0
    outer loop
      vertex 6 9.5 -2.89808
      vertex 6 6.5 -2.89808
      vertex 6 0 -4
    endloop
  endfacet
  facet normal 1 8.61444e-15 -4.63169e-15
    outer loop
      vertex 6 16.5 2.29808
      vertex 6 19.4 7.5
      vertex 6 15 -0.3
    endloop
  endfacet
  facet normal 1 -2.52747e-32 1.7074e-16
    outer loop
      vertex 6 19.5 2.29808
      vertex 6 19.4 7.5
      vertex 6 16.5 2.29808
    endloop
  endfacet
  facet normal 1 4.27405e-17 1.71562e-16
    outer loop
      vertex 6 24 -4
      vertex 6 19.4 7.5
      vertex 6 19.5 2.29808
    endloop
  endfacet
  facet normal 1 1.46432e-15 1.18728e-15
    outer loop
      vertex 6 24 -4
      vertex 6 19.5 2.29808
      vertex 6 21 -0.3
    endloop
  endfacet
  facet normal 1 0 0
    outer loop
      vertex 6 24 -4
      vertex 6 16.5 -2.89808
      vertex 6 9.5 -2.89808
    endloop
  endfacet
  facet normal 1 0 0
    outer loop
      vertex 6 24 -4
      vertex 6 19.5 -2.89808
      vertex 6 16.5 -2.89808
    endloop
  endfacet
  facet normal 1 -0 0
    outer loop
      vertex 6 6.5 -2.89808
      vertex 6 5 -0.3
      vertex 6 0 -4
    endloop
  endfacet
  facet normal 1 0 0
    outer loop
      vertex 6 16.5 -2.89808
      vertex 6 15 -0.3
      vertex 6 11 -0.3
    endloop
  endfacet
  facet normal 0 -1 0
    outer loop
      vertex 6 0 -4
      vertex 6 0 4.26667
      vertex -6 0 4.26667
    endloop
  endfacet
  facet normal 0 -1 -0
    outer loop
      vertex -6 0 -4
      vertex 6 0 -4
      vertex -6 0 4.26667
    endloop
  endfacet
  facet normal 1.70352e-16 -0.164399 0.986394
    outer loop
      vertex 6 19.4 7.5
      vertex -6 19.4 7.5
      vertex -6 0 4.26667
    endloop
  endfacet
  facet normal 1.46016e-16 -0.164399 0.986394
    outer loop
      vertex 6 0 4.26667
      vertex 6 19.4 7.5
      vertex -6 0 4.26667
    endloop
  endfacet
  facet normal -7.40149e-17 2.14312e-32 1
    outer loop
      vertex -6 19.4 7.5
      vertex 6 19.4 7.5
      vertex 6 24 7.5
    endloop
  endfacet
  facet normal -7.40149e-17 0 1
    outer loop
      vertex -6 24 7.5
      vertex -6 19.4 7.5
      vertex 6 24 7.5
    endloop
  endfacet
  facet normal 0 1 -0
    outer loop
      vertex 6 24 7.5
      vertex 6 24 -4
      vertex 2 24 4
    endloop
  endfacet
  facet normal 0 1 0
    outer loop
      vertex 6 24 7.5
      vertex 2 24 4
      vertex -6 24 7.5
    endloop
  endfacet
  facet normal 0 1 0
    outer loop
      vertex -2 24 -4
      vertex -6 24 7.5
      vertex -2 24 4
    endloop
  endfacet
  facet normal -0 1 0
    outer loop
      vertex 2 24 4
      vertex -2 24 4
      vertex -6 24 7.5
    endloop
  endfacet
  facet normal 0 1 0
    outer loop
      vertex -6 24 7.5
      vertex -2 24 -4
      vertex -6 24 -4
    endloop
  endfacet
  facet normal 0 1 0
    outer loop
      vertex 2 24 4
      vertex 6 24 -4
      vertex 2 24 -4
    endloop
  endfacet
  facet normal 7.40149e-17 0 -1
    outer loop
      vertex 6 0 -4
      vertex -6 0 -4
      vertex 6 24 -4
    endloop
  endfacet
  facet normal 0 0 -1
    outer loop
      vertex -2 24 -4
      vertex -6 0 -4
      vertex -6 24 -4
    endloop
  endfacet
  facet normal 1.11022e-16 -1.85037e-17 -1
    outer loop
      vertex 6 24 -4
      vertex -6 0 -4
      vertex 2 24 -4
    endloop
  endfacet
  facet normal 1.11022e-16 2.77556e-17 -1
    outer loop
      vertex -2 24 -4
      vertex -3 28 -4
      vertex 2 24 -4
    endloop
  endfacet
  facet normal 1.11022e-16 -1.85037e-17 -1
    outer loop
      vertex -2 24 -4
      vertex 2 24 -4
      vertex -6 0 -4
    endloop
  endfacet
  facet normal 7.40149e-17 -1.85037e-17 -1
    outer loop
      vertex 2 24 -4
      vertex -3 28 -4
      vertex 3 28 -4
    endloop
  endfacet
  facet normal -2.34968e-16 0.866025 0.5
    outer loop
      vertex 4.11 6.5 -2.89808
      vertex 4.11 5 -0.3
      vertex 6 6.5 -2.89808
    endloop
  endfacet
  facet normal -1.52627e-16 0.866025 0.5
    outer loop
      vertex 6 6.5 -2.89808
      vertex 4.11 5 -0.3
      vertex 6 5 -0.3
    endloop
  endfacet
  facet normal 2.34968e-16 0.866025 -0.5
    outer loop
      vertex 4.11 6.5 2.29808
      vertex 6 6.5 2.29808
      vertex 4.11 5 -0.3
    endloop
  endfacet
  facet normal 1.76226e-16 0.866025 -0.5
    outer loop
      vertex 4.11 5 -0.3
      vertex 6 6.5 2.29808
      vertex 6 5 -0.3
    endloop
  endfacet
  facet normal -4.69936e-16 -1.4803e-16 1
    outer loop
      vertex 6 9.5 -2.89808
      vertex 4.11 9.5 -2.89808
      vertex 4.11 6.5 -2.89808
    endloop
  endfacet
  facet normal -4.69936e-16 -1.4803e-16 1
    outer loop
      vertex 6 6.5 -2.89808
      vertex 6 9.5 -2.89808
      vertex 4.11 6.5 -2.89808
    endloop
  endfacet
  facet normal -1.6154e-16 -0.866025 0.5
    outer loop
      vertex 6 11 -0.3
      vertex 4.11 11 -0.3
      vertex 4.11 9.5 -2.89808
    endloop
  endfacet
  facet normal -2.34968e-16 -0.866025 0.5
    outer loop
      vertex 6 9.5 -2.89808
      vertex 6 11 -0.3
      vertex 4.11 9.5 -2.89808
    endloop
  endfacet
  facet normal 1.32169e-16 -0.866025 -0.5
    outer loop
      vertex 4.11 9.5 2.29808
      vertex 4.11 11 -0.3
      vertex 6 11 -0.3
    endloop
  endfacet
  facet normal 2.34968e-16 -0.866025 -0.5
    outer loop
      vertex 6 9.5 2.29808
      vertex 4.11 9.5 2.29808
      vertex 6 11 -0.3
    endloop
  endfacet
  facet normal 4.69936e-16 1.4803e-16 -1
    outer loop
      vertex 4.11 9.5 2.29808
      vertex 6 9.5 2.29808
      vertex 4.11 6.5 2.29808
    endloop
  endfacet
  facet normal 4.69936e-16 1.4803e-16 -1
    outer loop
      vertex 4.11 6.5 2.29808
      vertex 6 9.5 2.29808
      vertex 6 6.5 2.29808
    endloop
  endfacet
  facet normal -2.34968e-16 0.866025 0.5
    outer loop
      vertex 4.11 16.5 -2.89808
      vertex 4.11 15 -0.3
      vertex 6 16.5 -2.89808
    endloop
  endfacet
  facet normal -1.52627e-16 0.866025 0.5
    outer loop
      vertex 6 16.5 -2.89808
      vertex 4.11 15 -0.3
      vertex 6 15 -0.3
    endloop
  endfacet
  facet normal 2.34968e-16 0.866025 -0.5
    outer loop
      vertex 4.11 16.5 2.29808
      vertex 6 16.5 2.29808
      vertex 4.11 15 -0.3
    endloop
  endfacet
  facet normal 1.76226e-16 0.866025 -0.5
    outer loop
      vertex 4.11 15 -0.3
      vertex 6 16.5 2.29808
      vertex 6 15 -0.3
    endloop
  endfacet
  facet normal -4.69936e-16 -1.4803e-16 1
    outer loop
      vertex 6 19.5 -2.89808
      vertex 4.11 19.5 -2.89808
      vertex 4.11 16.5 -2.89808
    endloop
  endfacet
  facet normal -4.69936e-16 -1.4803e-16 1
    outer loop
      vertex 6 16.5 -2.89808
      vertex 6 19.5 -2.89808
      vertex 4.11 16.5 -2.89808
    endloop
  endfacet
  facet normal -1.6154e-16 -0.866025 0.5
    outer loop
      vertex 6 21 -0.3
      vertex 4.11 21 -0.3
      vertex 4.11 19.5 -2.89808
    endloop
  endfacet
  facet normal -2.34968e-16 -0.866025 0.5
    outer loop
      vertex 6 19.5 -2.89808
      vertex 6 21 -0.3
      vertex 4.11 19.5 -2.89808
    endloop
  endfacet
  facet normal 1.32169e-16 -0.866025 -0.5
    outer loop
      vertex 4.11 19.5 2.29808
      vertex 4.11 21 -0.3
      vertex 6 21 -0.3
    endloop
  endfacet
  facet normal 2.34968e-16 -0.866025 -0.5
    outer loop
      vertex 6 19.5 2.29808
      vertex 4.11 19.5 2.29808
      vertex 6 21 -0.3
    endloop
  endfacet
  facet normal 4.69936e-16 1.4803e-16 -1
    outer loop
      vertex 4.11 19.5 2.29808
      vertex 6 19.5 2.29808
      vertex 4.11 16.5 2.29808
    endloop
  endfacet
  facet normal 4.69936e-16 1.4803e-16 -1
    outer loop
      vertex 4.11 16.5 2.29808
      vertex 6 19.5 2.29808
      vertex 6 16.5 2.29808
    endloop
  endfacet
  facet normal -1 5.08561e-17 -3.12498e-16
    outer loop
      vertex -6 9.5 2.29808
      vertex -6 24 7.5
      vertex -6 11 -0.3
    endloop
  endfacet
  facet normal -1 -1.90508e-16 -1.54466e-16
    outer loop
      vertex -6 21 -0.3
      vertex -6 24 7.5
      vertex -6 24 -4
    endloop
  endfacet
  facet normal -1 -2.95311e-17 -9.75075e-17
    outer loop
      vertex -6 0 4.26667
      vertex -6 19.4 7.5
      vertex -6 6.5 2.29808
    endloop
  endfacet
  facet normal -1 -3.25396e-17 -1.07441e-16
    outer loop
      vertex -6 0 4.26667
      vertex -6 6.5 2.29808
      vertex -6 0 -4
    endloop
  endfacet
  facet normal -1 2.52747e-32 -1.7074e-16
    outer loop
      vertex -6 16.5 2.29808
      vertex -6 24 7.5
      vertex -6 19.5 2.29808
    endloop
  endfacet
  facet normal -1 4.41679e-16 -5.96864e-16
    outer loop
      vertex -6 6.5 2.29808
      vertex -6 5 -0.3
      vertex -6 0 -4
    endloop
  endfacet
  facet normal -1 0 -1.7074e-16
    outer loop
      vertex -6 9.5 2.29808
      vertex -6 19.4 7.5
      vertex -6 24 7.5
    endloop
  endfacet
  facet normal -1 -0 0
    outer loop
      vertex -6 0 -4
      vertex -6 6.5 -2.89808
      vertex -6 24 -4
    endloop
  endfacet
  facet normal -1 2.22045e-16 -4.70058e-16
    outer loop
      vertex -6 15 -0.3
      vertex -6 9.5 -2.89808
      vertex -6 16.5 2.29808
    endloop
  endfacet
  facet normal -1 -0 0
    outer loop
      vertex -6 6.5 -2.89808
      vertex -6 9.5 -2.89808
      vertex -6 24 -4
    endloop
  endfacet
  facet normal -1 2.52747e-32 -1.7074e-16
    outer loop
      vertex -6 6.5 2.29808
      vertex -6 19.4 7.5
      vertex -6 9.5 2.29808
    endloop
  endfacet
  facet normal -1 -2.53444e-16 1.94669e-16
    outer loop
      vertex -6 11 -0.3
      vertex -6 24 7.5
      vertex -6 16.5 2.29808
    endloop
  endfacet
  facet normal -1 -2.22045e-16 1.28198e-16
    outer loop
      vertex -6 11 -0.3
      vertex -6 16.5 2.29808
      vertex -6 9.5 -2.89808
    endloop
  endfacet
  facet normal -1 -0 0
    outer loop
      vertex -6 9.5 -2.89808
      vertex -6 15 -0.3
      vertex -6 16.5 -2.89808
    endloop
  endfacet
  facet normal -1 0 0
    outer loop
      vertex -6 9.5 -2.89808
      vertex -6 16.5 -2.89808
      vertex -6 24 -4
    endloop
  endfacet
  facet normal -1 -0 0
    outer loop
      vertex -6 16.5 -2.89808
      vertex -6 19.5 -2.89808
      vertex -6 24 -4
    endloop
  endfacet
  facet normal -1 1.18634e-16 -2.73367e-16
    outer loop
      vertex -6 19.5 2.29808
      vertex -6 24 7.5
      vertex -6 21 -0.3
    endloop
  endfacet
  facet normal -1 0 0
    outer loop
      vertex -6 6.5 -2.89808
      vertex -6 0 -4
      vertex -6 5 -0.3
    endloop
  endfacet
  facet normal -1 0 0
    outer loop
      vertex -6 21 -0.3
      vertex -6 24 -4
      vertex -6 19.5 -2.89808
    endloop
  endfacet
  facet normal -0.970143 -0.242536 -1.34634e-16
    outer loop
      vertex -2 24 4
      vertex -3 28 4
      vertex -2 24 -4
    endloop
  endfacet
  facet normal -0.970143 -0.242536 -1.61561e-16
    outer loop
      vertex -2 24 -4
      vertex -3 28 4
      vertex -3 28 -4
    endloop
  endfacet
  facet normal -7.40149e-17 1.85037e-17 1
    outer loop
      vertex 2 24 4
      vertex 3 28 4
      vertex -3 28 4
    endloop
  endfacet
  facet normal -1.11022e-16 -2.77556e-17 1
    outer loop
      vertex -2 24 4
      vertex 2 24 4
      vertex -3 28 4
    endloop
  endfacet
  facet normal 0.970143 -0.242536 1.61561e-16
    outer loop
      vertex 3 28 -4
      vertex 3 28 4
      vertex 2 24 4
    endloop
  endfacet
  facet normal 0.970143 -0.242536 1.34634e-16
    outer loop
      vertex 2 24 -4
      vertex 3 28 -4
      vertex 2 24 4
    endloop
  endfacet
  facet normal 0 1 -0
    outer loop
      vertex 3 28 4
      vertex 3 28 -4
      vertex -3 28 4
    endloop
  endfacet
  facet normal 0 1 0
    outer loop
      vertex -3 28 4
      vertex 3 28 -4
      vertex -3 28 -4
    endloop
  endfacet
  facet normal 1 0 3.4186e-16
    outer loop
      vertex 4.11 9.5 -2.89808
      vertex 4.11 11 -0.3
      vertex 4.11 9.5 2.29808
    endloop
  endfacet
  facet normal 1 -2.76302e-15 1.73832e-16
    outer loop
      vertex 4.11 9.34734 -0.215233
      vertex 4.11 9.32609 -0.552965
      vertex 4.11 9.5 -2.89808
    endloop
  endfacet
  facet normal 1 1.89819e-16 3.4186e-16
    outer loop
      vertex 4.11 9.34734 -0.215233
      vertex 4.11 9.5 -2.89808
      vertex 4.11 9.5 2.29808
    endloop
  endfacet
  facet normal 1 -5.06055e-32 3.4186e-16
    outer loop
      vertex 4.11 6.5 -2.89808
      vertex 4.11 9.5 -2.89808
      vertex 4.11 5 -0.3
    endloop
  endfacet
  facet normal 1 -3.17512e-16 4.3702e-16
    outer loop
      vertex 4.11 7.07586 0.684108
      vertex 4.11 7.34963 0.883014
      vertex 4.11 6.5 2.29808
    endloop
  endfacet
  facet normal 1 0 0
    outer loop
      vertex 4.11 7.50303 -1.5552
      vertex 4.11 9.5 -2.89808
      vertex 4.11 7.8308 -1.63936
    endloop
  endfacet
  facet normal 1 -1.39552e-15 -2.07525e-15
    outer loop
      vertex 4.11 5 -0.3
      vertex 4.11 9.5 -2.89808
      vertex 4.11 7.50303 -1.5552
    endloop
  endfacet
  facet normal 1 -4.04029e-15 -7.34927e-15
    outer loop
      vertex 4.11 5 -0.3
      vertex 4.11 7.50303 -1.5552
      vertex 4.11 7.20649 -1.39217
    endloop
  endfacet
  facet normal 1 -4.6476e-16 3.84482e-16
    outer loop
      vertex 4.11 6.86016 0.423366
      vertex 4.11 7.07586 0.684108
      vertex 4.11 6.5 2.29808
    endloop
  endfacet
  facet normal 1 -7.14932e-16 3.3642e-16
    outer loop
      vertex 4.11 6.71607 0.117173
      vertex 4.11 6.86016 0.423366
      vertex 4.11 6.5 2.29808
    endloop
  endfacet
  facet normal 1 1.26392e-15 3.91067e-15
    outer loop
      vertex 4.11 5 -0.3
      vertex 4.11 6.95981 -1.16052
      vertex 4.11 6.77848 -0.874802
    endloop
  endfacet
  facet normal 1 3.45684e-15 9.14779e-16
    outer loop
      vertex 4.11 9.22152 -0.874802
      vertex 4.11 9.04019 -1.16052
      vertex 4.11 9.5 -2.89808
    endloop
  endfacet
  facet normal 1 0 0
    outer loop
      vertex 4.11 5 -0.3
      vertex 4.11 6.77848 -0.874802
      vertex 4.11 6.67391 -0.552965
    endloop
  endfacet
  facet normal 1 -1.80695e-17 3.52292e-16
    outer loop
      vertex 4.11 5 -0.3
      vertex 4.11 6.65266 -0.215233
      vertex 4.11 6.5 2.29808
    endloop
  endfacet
  facet normal 1 0 0
    outer loop
      vertex 4.11 5 -0.3
      vertex 4.11 6.67391 -0.552965
      vertex 4.11 6.65266 -0.215233
    endloop
  endfacet
  facet normal 1 -9.29124e-32 6.2766e-16
    outer loop
      vertex 4.11 6.5 2.29808
      vertex 4.11 7.34963 0.883014
      vertex 4.11 9.5 2.29808
    endloop
  endfacet
  facet normal 1 -6.23862e-16 1.5757e-15
    outer loop
      vertex 4.11 7.34963 0.883014
      vertex 4.11 7.66427 1.00759
      vertex 4.11 9.5 2.29808
    endloop
  endfacet
  facet normal 1 -1.05995e-16 8.39028e-16
    outer loop
      vertex 4.11 7.66427 1.00759
      vertex 4.11 8 1.05
      vertex 4.11 9.5 2.29808
    endloop
  endfacet
  facet normal 1 7.8051e-17 6.17833e-16
    outer loop
      vertex 4.11 8 1.05
      vertex 4.11 8.33573 1.00759
      vertex 4.11 9.5 2.29808
    endloop
  endfacet
  facet normal 1 2.00778e-16 5.07109e-16
    outer loop
      vertex 4.11 8.33573 1.00759
      vertex 4.11 8.65037 0.883014
      vertex 4.11 9.5 2.29808
    endloop
  endfacet
  facet normal 1 3.17512e-16 4.3702e-16
    outer loop
      vertex 4.11 8.65037 0.883014
      vertex 4.11 8.92414 0.684108
      vertex 4.11 9.5 2.29808
    endloop
  endfacet
  facet normal 1 4.6476e-16 3.84482e-16
    outer loop
      vertex 4.11 8.92414 0.684108
      vertex 4.11 9.13984 0.423366
      vertex 4.11 9.5 2.29808
    endloop
  endfacet
  facet normal 1 7.14932e-16 3.3642e-16
    outer loop
      vertex 4.11 9.13984 0.423366
      vertex 4.11 9.28393 0.117173
      vertex 4.11 9.5 2.29808
    endloop
  endfacet
  facet normal 1 1.40511e-15 2.6804e-16
    outer loop
      vertex 4.11 9.28393 0.117173
      vertex 4.11 9.34734 -0.215233
      vertex 4.11 9.5 2.29808
    endloop
  endfacet
  facet normal 1 -9.49027e-16 3.08357e-16
    outer loop
      vertex 4.11 9.32609 -0.552965
      vertex 4.11 9.22152 -0.874802
      vertex 4.11 9.5 -2.89808
    endloop
  endfacet
  facet normal 1 0 -0
    outer loop
      vertex 4.11 9.04019 -1.16052
      vertex 4.11 8.79351 -1.39217
      vertex 4.11 9.5 -2.89808
    endloop
  endfacet
  facet normal 1 0 0
    outer loop
      vertex 4.11 8.1692 -1.63936
      vertex 4.11 9.5 -2.89808
      vertex 4.11 8.49697 -1.5552
    endloop
  endfacet
  facet normal 1 0 0
    outer loop
      vertex 4.11 7.8308 -1.63936
      vertex 4.11 9.5 -2.89808
      vertex 4.11 8.1692 -1.63936
    endloop
  endfacet
  facet normal 1 -8.51198e-16 -9.06433e-16
    outer loop
      vertex 4.11 7.20649 -1.39217
      vertex 4.11 6.95981 -1.16052
      vertex 4.11 5 -0.3
    endloop
  endfacet
  facet normal 1 -1.40511e-15 2.6804e-16
    outer loop
      vertex 4.11 6.65266 -0.215233
      vertex 4.11 6.71607 0.117173
      vertex 4.11 6.5 2.29808
    endloop
  endfacet
  facet normal 1 0 -0
    outer loop
      vertex 4.11 8.79351 -1.39217
      vertex 4.11 8.49697 -1.5552
      vertex 4.11 9.5 -2.89808
    endloop
  endfacet
  facet normal 1 0 3.4186e-16
    outer loop
      vertex 4.11 19.5 -2.89808
      vertex 4.11 21 -0.3
      vertex 4.11 19.5 2.29808
    endloop
  endfacet
  facet normal 1 -2.76302e-15 1.73832e-16
    outer loop
      vertex 4.11 19.3473 -0.215233
      vertex 4.11 19.3261 -0.552965
      vertex 4.11 19.5 -2.89808
    endloop
  endfacet
  facet normal 1 1.89819e-16 3.4186e-16
    outer loop
      vertex 4.11 19.3473 -0.215233
      vertex 4.11 19.5 -2.89808
      vertex 4.11 19.5 2.29808
    endloop
  endfacet
  facet normal 1 -5.06055e-32 3.4186e-16
    outer loop
      vertex 4.11 16.5 -2.89808
      vertex 4.11 19.5 -2.89808
      vertex 4.11 15 -0.3
    endloop
  endfacet
  facet normal 1 -3.17512e-16 4.3702e-16
    outer loop
      vertex 4.11 17.0759 0.684108
      vertex 4.11 17.3496 0.883014
      vertex 4.11 16.5 2.29808
    endloop
  endfacet
  facet normal 1 0 0
    outer loop
      vertex 4.11 17.503 -1.5552
      vertex 4.11 19.5 -2.89808
      vertex 4.11 17.8308 -1.63936
    endloop
  endfacet
  facet normal 1 -1.39552e-15 -2.07525e-15
    outer loop
      vertex 4.11 15 -0.3
      vertex 4.11 19.5 -2.89808
      vertex 4.11 17.503 -1.5552
    endloop
  endfacet
  facet normal 1 -4.04029e-15 -7.34927e-15
    outer loop
      vertex 4.11 15 -0.3
      vertex 4.11 17.503 -1.5552
      vertex 4.11 17.2065 -1.39217
    endloop
  endfacet
  facet normal 1 -4.6476e-16 3.84482e-16
    outer loop
      vertex 4.11 16.8602 0.423366
      vertex 4.11 17.0759 0.684108
      vertex 4.11 16.5 2.29808
    endloop
  endfacet
  facet normal 1 -7.14932e-16 3.3642e-16
    outer loop
      vertex 4.11 16.7161 0.117173
      vertex 4.11 16.8602 0.423366
      vertex 4.11 16.5 2.29808
    endloop
  endfacet
  facet normal 1 1.26392e-15 3.91067e-15
    outer loop
      vertex 4.11 15 -0.3
      vertex 4.11 16.9598 -1.16052
      vertex 4.11 16.7785 -0.874802
    endloop
  endfacet
  facet normal 1 3.45684e-15 9.14779e-16
    outer loop
      vertex 4.11 19.2215 -0.874802
      vertex 4.11 19.0402 -1.16052
      vertex 4.11 19.5 -2.89808
    endloop
  endfacet
  facet normal 1 0 0
    outer loop
      vertex 4.11 15 -0.3
      vertex 4.11 16.7785 -0.874802
      vertex 4.11 16.6739 -0.552965
    endloop
  endfacet
  facet normal 1 -1.80695e-17 3.52292e-16
    outer loop
      vertex 4.11 15 -0.3
      vertex 4.11 16.6527 -0.215233
      vertex 4.11 16.5 2.29808
    endloop
  endfacet
  facet normal 1 0 0
    outer loop
      vertex 4.11 15 -0.3
      vertex 4.11 16.6739 -0.552965
      vertex 4.11 16.6527 -0.215233
    endloop
  endfacet
  facet normal 1 -9.29124e-32 6.2766e-16
    outer loop
      vertex 4.11 16.5 2.29808
      vertex 4.11 17.3496 0.883014
      vertex 4.11 19.5 2.29808
    endloop
  endfacet
  facet normal 1 -6.23862e-16 1.5757e-15
    outer loop
      vertex 4.11 17.3496 0.883014
      vertex 4.11 17.6643 1.00759
      vertex 4.11 19.5 2.29808
    endloop
  endfacet
  facet normal 1 -1.05995e-16 8.39028e-16
    outer loop
      vertex 4.11 17.6643 1.00759
      vertex 4.11 18 1.05
      vertex 4.11 19.5 2.29808
    endloop
  endfacet
  facet normal 1 7.8051e-17 6.17833e-16
    outer loop
      vertex 4.11 18 1.05
      vertex 4.11 18.3357 1.00759
      vertex 4.11 19.5 2.29808
    endloop
  endfacet
  facet normal 1 2.00778e-16 5.07109e-16
    outer loop
      vertex 4.11 18.3357 1.00759
      vertex 4.11 18.6504 0.883014
      vertex 4.11 19.5 2.29808
    endloop
  endfacet
  facet normal 1 3.17512e-16 4.3702e-16
    outer loop
      vertex 4.11 18.6504 0.883014
      vertex 4.11 18.9241 0.684108
      vertex 4.11 19.5 2.29808
    endloop
  endfacet
  facet normal 1 4.6476e-16 3.84482e-16
    outer loop
      vertex 4.11 18.9241 0.684108
      vertex 4.11 19.1398 0.423366
      vertex 4.11 19.5 2.29808
    endloop
  endfacet
  facet normal 1 7.14932e-16 3.3642e-16
    outer loop
      vertex 4.11 19.1398 0.423366
      vertex 4.11 19.2839 0.117173
      vertex 4.11 19.5 2.29808
    endloop
  endfacet
  facet normal 1 1.40511e-15 2.6804e-16
    outer loop
      vertex 4.11 19.2839 0.117173
      vertex 4.11 19.3473 -0.215233
      vertex 4.11 19.5 2.29808
    endloop
  endfacet
  facet normal 1 -9.49027e-16 3.08357e-16
    outer loop
      vertex 4.11 19.3261 -0.552965
      vertex 4.11 19.2215 -0.874802
      vertex 4.11 19.5 -2.89808
    endloop
  endfacet
  facet normal 1 0 -0
    outer loop
      vertex 4.11 19.0402 -1.16052
      vertex 4.11 18.7935 -1.39217
      vertex 4.11 19.5 -2.89808
    endloop
  endfacet
  facet normal 1 0 0
    outer loop
      vertex 4.11 18.1692 -1.63936
      vertex 4.11 19.5 -2.89808
      vertex 4.11 18.497 -1.5552
    endloop
  endfacet
  facet normal 1 0 0
    outer loop
      vertex 4.11 17.8308 -1.63936
      vertex 4.11 19.5 -2.89808
      vertex 4.11 18.1692 -1.63936
    endloop
  endfacet
  facet normal 1 -8.51198e-16 -9.06433e-16
    outer loop
      vertex 4.11 17.2065 -1.39217
      vertex 4.11 16.9598 -1.16052
      vertex 4.11 15 -0.3
    endloop
  endfacet
  facet normal 1 -1.40511e-15 2.6804e-16
    outer loop
      vertex 4.11 16.6527 -0.215233
      vertex 4.11 16.7161 0.117173
      vertex 4.11 16.5 2.29808
    endloop
  endfacet
  facet normal 1 0 -0
    outer loop
      vertex 4.11 18.7935 -1.39217
      vertex 4.11 18.497 -1.5552
      vertex 4.11 19.5 -2.89808
    endloop
  endfacet
  facet normal 2.34968e-16 0.866025 -0.5
    outer loop
      vertex -6 6.5 2.29808
      vertex -4.11 6.5 2.29808
      vertex -6 5 -0.3
    endloop
  endfacet
  facet normal 1.76226e-16 0.866025 -0.5
    outer loop
      vertex -6 5 -0.3
      vertex -4.11 6.5 2.29808
      vertex -4.11 5 -0.3
    endloop
  endfacet
  facet normal 4.69936e-16 1.4803e-16 -1
    outer loop
      vertex -6 9.5 2.29808
      vertex -4.11 9.5 2.29808
      vertex -6 6.5 2.29808
    endloop
  endfacet
  facet normal 4.69936e-16 1.4803e-16 -1
    outer loop
      vertex -6 6.5 2.29808
      vertex -4.11 9.5 2.29808
      vertex -4.11 6.5 2.29808
    endloop
  endfacet
  facet normal 2.34968e-16 -0.866025 -0.5
    outer loop
      vertex -4.11 9.5 2.29808
      vertex -6 9.5 2.29808
      vertex -6 11 -0.3
    endloop
  endfacet
  facet normal 1.76226e-16 -0.866025 -0.5
    outer loop
      vertex -4.11 11 -0.3
      vertex -4.11 9.5 2.29808
      vertex -6 11 -0.3
    endloop
  endfacet
  facet normal -1.76226e-16 -0.866025 0.5
    outer loop
      vertex -4.11 11 -0.3
      vertex -6 11 -0.3
      vertex -6 9.5 -2.89808
    endloop
  endfacet
  facet normal -2.34968e-16 -0.866025 0.5
    outer loop
      vertex -4.11 9.5 -2.89808
      vertex -4.11 11 -0.3
      vertex -6 9.5 -2.89808
    endloop
  endfacet
  facet normal -4.69936e-16 -1.4803e-16 1
    outer loop
      vertex -4.11 9.5 -2.89808
      vertex -6 9.5 -2.89808
      vertex -6 6.5 -2.89808
    endloop
  endfacet
  facet normal -4.69936e-16 -1.4803e-16 1
    outer loop
      vertex -4.11 6.5 -2.89808
      vertex -4.11 9.5 -2.89808
      vertex -6 6.5 -2.89808
    endloop
  endfacet
  facet normal -1.76226e-16 0.866025 0.5
    outer loop
      vertex -6 5 -0.3
      vertex -4.11 5 -0.3
      vertex -6 6.5 -2.89808
    endloop
  endfacet
  facet normal -2.34968e-16 0.866025 0.5
    outer loop
      vertex -6 6.5 -2.89808
      vertex -4.11 5 -0.3
      vertex -4.11 6.5 -2.89808
    endloop
  endfacet
  facet normal 2.34968e-16 0.866025 -0.5
    outer loop
      vertex -6 16.5 2.29808
      vertex -4.11 16.5 2.29808
      vertex -6 15 -0.3
    endloop
  endfacet
  facet normal 1.76226e-16 0.866025 -0.5
    outer loop
      vertex -6 15 -0.3
      vertex -4.11 16.5 2.29808
      vertex -4.11 15 -0.3
    endloop
  endfacet
  facet normal 4.69936e-16 1.4803e-16 -1
    outer loop
      vertex -6 19.5 2.29808
      vertex -4.11 19.5 2.29808
      vertex -6 16.5 2.29808
    endloop
  endfacet
  facet normal 4.69936e-16 1.4803e-16 -1
    outer loop
      vertex -6 16.5 2.29808
      vertex -4.11 19.5 2.29808
      vertex -4.11 16.5 2.29808
    endloop
  endfacet
  facet normal 2.34968e-16 -0.866025 -0.5
    outer loop
      vertex -4.11 19.5 2.29808
      vertex -6 19.5 2.29808
      vertex -6 21 -0.3
    endloop
  endfacet
  facet normal 1.76226e-16 -0.866025 -0.5
    outer loop
      vertex -4.11 21 -0.3
      vertex -4.11 19.5 2.29808
      vertex -6 21 -0.3
    endloop
  endfacet
  facet normal -1.76226e-16 -0.866025 0.5
    outer loop
      vertex -4.11 21 -0.3
      vertex -6 21 -0.3
      vertex -6 19.5 -2.89808
    endloop
  endfacet
  facet normal -2.34968e-16 -0.866025 0.5
    outer loop
      vertex -4.11 19.5 -2.89808
      vertex -4.11 21 -0.3
      vertex -6 19.5 -2.89808
    endloop
  endfacet
  facet normal -4.69936e-16 -1.4803e-16 1
    outer loop
      vertex -4.11 19.5 -2.89808
      vertex -6 19.5 -2.89808
      vertex -6 16.5 -2.89808
    endloop
  endfacet
  facet normal -4.69936e-16 -1.4803e-16 1
    outer loop
      vertex -4.11 16.5 -2.89808
      vertex -4.11 19.5 -2.89808
      vertex -6 16.5 -2.89808
    endloop
  endfacet
  facet normal -1.76226e-16 0.866025 0.5
    outer loop
      vertex -6 15 -0.3
      vertex -4.11 15 -0.3
      vertex -6 16.5 -2.89808
    endloop
  endfacet
  facet normal -2.34968e-16 0.866025 0.5
    outer loop
      vertex -6 16.5 -2.89808
      vertex -4.11 15 -0.3
      vertex -4.11 16.5 -2.89808
    endloop
  endfacet
  facet normal -3.51165e-16 0 1
    outer loop
      vertex 4.11 8.1692 -1.63936
      vertex -4.11 8.1692 -1.63936
      vertex -4.11 7.8308 -1.63936
    endloop
  endfacet
  facet normal -3.51165e-16 0 1
    outer loop
      vertex 4.11 7.8308 -1.63936
      vertex 4.11 8.1692 -1.63936
      vertex -4.11 7.8308 -1.63936
    endloop
  endfacet
  facet normal -3.40056e-16 0.248691 0.968583
    outer loop
      vertex -4.11 7.8308 -1.63936
      vertex -4.11 7.50303 -1.5552
      vertex 4.11 7.50303 -1.5552
    endloop
  endfacet
  facet normal -3.40133e-16 0.248691 0.968583
    outer loop
      vertex 4.11 7.8308 -1.63936
      vertex -4.11 7.8308 -1.63936
      vertex 4.11 7.50303 -1.5552
    endloop
  endfacet
  facet normal -3.40133e-16 -0.248691 0.968583
    outer loop
      vertex 4.11 8.49697 -1.5552
      vertex -4.11 8.49697 -1.5552
      vertex -4.11 8.1692 -1.63936
    endloop
  endfacet
  facet normal -3.40133e-16 -0.248691 0.968583
    outer loop
      vertex 4.11 8.1692 -1.63936
      vertex 4.11 8.49697 -1.5552
      vertex -4.11 8.1692 -1.63936
    endloop
  endfacet
  facet normal -3.07729e-16 -0.481753 0.876307
    outer loop
      vertex 4.11 8.79351 -1.39217
      vertex -4.11 8.79351 -1.39217
      vertex -4.11 8.49697 -1.5552
    endloop
  endfacet
  facet normal -3.07729e-16 -0.481753 0.876307
    outer loop
      vertex 4.11 8.49697 -1.5552
      vertex 4.11 8.79351 -1.39217
      vertex -4.11 8.49697 -1.5552
    endloop
  endfacet
  facet normal -2.55988e-16 -0.684547 0.728968
    outer loop
      vertex 4.11 9.04019 -1.16052
      vertex -4.11 9.04019 -1.16052
      vertex -4.11 8.79351 -1.39217
    endloop
  endfacet
  facet normal -2.55988e-16 -0.684547 0.728968
    outer loop
      vertex 4.11 8.79351 -1.39217
      vertex 4.11 9.04019 -1.16052
      vertex -4.11 8.79351 -1.39217
    endloop
  endfacet
  facet normal -1.80927e-16 -0.844327 0.535828
    outer loop
      vertex 4.11 9.22152 -0.874802
      vertex -4.11 9.22152 -0.874802
      vertex -4.11 9.04019 -1.16052
    endloop
  endfacet
  facet normal -1.88164e-16 -0.844327 0.535828
    outer loop
      vertex 4.11 9.04019 -1.16052
      vertex 4.11 9.22152 -0.874802
      vertex -4.11 9.04019 -1.16052
    endloop
  endfacet
  facet normal -1.04342e-16 -0.951057 0.309017
    outer loop
      vertex 4.11 9.32609 -0.552965
      vertex -4.11 9.32609 -0.552965
      vertex -4.11 9.22152 -0.874802
    endloop
  endfacet
  facet normal -1.04342e-16 -0.951057 0.309017
    outer loop
      vertex 4.11 9.22152 -0.874802
      vertex 4.11 9.32609 -0.552965
      vertex -4.11 9.22152 -0.874802
    endloop
  endfacet
  facet normal -2.16255e-17 -0.998027 0.0627896
    outer loop
      vertex 4.11 9.34734 -0.215233
      vertex -4.11 9.34734 -0.215233
      vertex -4.11 9.32609 -0.552965
    endloop
  endfacet
  facet normal -2.12015e-17 -0.998027 0.0627896
    outer loop
      vertex 4.11 9.32609 -0.552965
      vertex 4.11 9.34734 -0.215233
      vertex -4.11 9.32609 -0.552965
    endloop
  endfacet
  facet normal 6.48529e-17 -0.982287 -0.187382
    outer loop
      vertex 4.11 9.28393 0.117173
      vertex -4.11 9.28393 0.117173
      vertex -4.11 9.34734 -0.215233
    endloop
  endfacet
  facet normal 6.45366e-17 -0.982287 -0.187382
    outer loop
      vertex 4.11 9.34734 -0.215233
      vertex 4.11 9.28393 0.117173
      vertex -4.11 9.34734 -0.215233
    endloop
  endfacet
  facet normal 1.46643e-16 -0.904828 -0.425778
    outer loop
      vertex 4.11 9.13984 0.423366
      vertex -4.11 9.13984 0.423366
      vertex -4.11 9.28393 0.117173
    endloop
  endfacet
  facet normal 1.47362e-16 -0.904828 -0.425778
    outer loop
      vertex 4.11 9.28393 0.117173
      vertex 4.11 9.13984 0.423366
      vertex -4.11 9.28393 0.117173
    endloop
  endfacet
  facet normal 2.15232e-16 -0.770514 -0.637423
    outer loop
      vertex 4.11 8.92414 0.684108
      vertex -4.11 8.92414 0.684108
      vertex -4.11 9.13984 0.423366
    endloop
  endfacet
  facet normal 2.19536e-16 -0.770514 -0.637423
    outer loop
      vertex 4.11 9.13984 0.423366
      vertex 4.11 8.92414 0.684108
      vertex -4.11 9.13984 0.423366
    endloop
  endfacet
  facet normal 2.73172e-16 -0.587783 -0.809018
    outer loop
      vertex -4.11 8.65037 0.883014
      vertex -4.11 8.92414 0.684108
      vertex 4.11 8.65037 0.883014
    endloop
  endfacet
  facet normal 2.71704e-16 -0.587783 -0.809018
    outer loop
      vertex 4.11 8.65037 0.883014
      vertex -4.11 8.92414 0.684108
      vertex 4.11 8.92414 0.684108
    endloop
  endfacet
  facet normal 3.26505e-16 -0.368124 -0.929777
    outer loop
      vertex -4.11 8.33573 1.00759
      vertex -4.11 8.65037 0.883014
      vertex 4.11 8.33573 1.00759
    endloop
  endfacet
  facet normal 3.14798e-16 -0.368124 -0.929777
    outer loop
      vertex 4.11 8.33573 1.00759
      vertex -4.11 8.65037 0.883014
      vertex 4.11 8.65037 0.883014
    endloop
  endfacet
  facet normal 3.48396e-16 -0.125334 -0.992115
    outer loop
      vertex -4.11 8 1.05
      vertex -4.11 8.33573 1.00759
      vertex 4.11 8 1.05
    endloop
  endfacet
  facet normal 3.48808e-16 -0.125334 -0.992115
    outer loop
      vertex 4.11 8 1.05
      vertex -4.11 8.33573 1.00759
      vertex 4.11 8.33573 1.00759
    endloop
  endfacet
  facet normal 3.48396e-16 0.125334 -0.992115
    outer loop
      vertex -4.11 8 1.05
      vertex 4.11 8 1.05
      vertex -4.11 7.66427 1.00759
    endloop
  endfacet
  facet normal 3.48396e-16 0.125334 -0.992115
    outer loop
      vertex -4.11 7.66427 1.00759
      vertex 4.11 8 1.05
      vertex 4.11 7.66427 1.00759
    endloop
  endfacet
  facet normal 3.26505e-16 0.368124 -0.929777
    outer loop
      vertex -4.11 7.66427 1.00759
      vertex 4.11 7.66427 1.00759
      vertex -4.11 7.34963 0.883014
    endloop
  endfacet
  facet normal 3.13948e-16 0.368124 -0.929777
    outer loop
      vertex -4.11 7.34963 0.883014
      vertex 4.11 7.66427 1.00759
      vertex 4.11 7.34963 0.883014
    endloop
  endfacet
  facet normal 2.73172e-16 0.587783 -0.809018
    outer loop
      vertex -4.11 7.34963 0.883014
      vertex 4.11 7.34963 0.883014
      vertex -4.11 7.07586 0.684108
    endloop
  endfacet
  facet normal 2.73172e-16 0.587783 -0.809018
    outer loop
      vertex -4.11 7.07586 0.684108
      vertex 4.11 7.34963 0.883014
      vertex 4.11 7.07586 0.684108
    endloop
  endfacet
  facet normal 2.15232e-16 0.770514 -0.637423
    outer loop
      vertex -4.11 7.07586 0.684108
      vertex 4.11 7.07586 0.684108
      vertex -4.11 6.86016 0.423366
    endloop
  endfacet
  facet normal 2.19536e-16 0.770514 -0.637423
    outer loop
      vertex -4.11 6.86016 0.423366
      vertex 4.11 7.07586 0.684108
      vertex 4.11 6.86016 0.423366
    endloop
  endfacet
  facet normal 1.46643e-16 0.904828 -0.425778
    outer loop
      vertex -4.11 6.86016 0.423366
      vertex 4.11 6.86016 0.423366
      vertex -4.11 6.71607 0.117173
    endloop
  endfacet
  facet normal 1.47362e-16 0.904828 -0.425778
    outer loop
      vertex -4.11 6.71607 0.117173
      vertex 4.11 6.86016 0.423366
      vertex 4.11 6.71607 0.117173
    endloop
  endfacet
  facet normal 6.48529e-17 0.982287 -0.187382
    outer loop
      vertex -4.11 6.71607 0.117173
      vertex 4.11 6.71607 0.117173
      vertex -4.11 6.65266 -0.215233
    endloop
  endfacet
  facet normal 6.45366e-17 0.982287 -0.187382
    outer loop
      vertex -4.11 6.65266 -0.215233
      vertex 4.11 6.71607 0.117173
      vertex 4.11 6.65266 -0.215233
    endloop
  endfacet
  facet normal -2.16255e-17 0.998027 0.0627896
    outer loop
      vertex -4.11 6.65266 -0.215233
      vertex 4.11 6.65266 -0.215233
      vertex -4.11 6.67391 -0.552965
    endloop
  endfacet
  facet normal -2.12015e-17 0.998027 0.0627896
    outer loop
      vertex -4.11 6.67391 -0.552965
      vertex 4.11 6.65266 -0.215233
      vertex 4.11 6.67391 -0.552965
    endloop
  endfacet
  facet normal -1.04342e-16 0.951057 0.309017
    outer loop
      vertex -4.11 6.67391 -0.552965
      vertex 4.11 6.67391 -0.552965
      vertex -4.11 6.77848 -0.874802
    endloop
  endfacet
  facet normal -1.04342e-16 0.951057 0.309017
    outer loop
      vertex -4.11 6.77848 -0.874802
      vertex 4.11 6.67391 -0.552965
      vertex 4.11 6.77848 -0.874802
    endloop
  endfacet
  facet normal -1.80927e-16 0.844327 0.535828
    outer loop
      vertex -4.11 6.77848 -0.874802
      vertex 4.11 6.77848 -0.874802
      vertex -4.11 6.95981 -1.16052
    endloop
  endfacet
  facet normal -1.88164e-16 0.844327 0.535828
    outer loop
      vertex -4.11 6.95981 -1.16052
      vertex 4.11 6.77848 -0.874802
      vertex 4.11 6.95981 -1.16052
    endloop
  endfacet
  facet normal -2.57383e-16 0.684547 0.728968
    outer loop
      vertex -4.11 7.20649 -1.39217
      vertex -4.11 6.95981 -1.16052
      vertex 4.11 6.95981 -1.16052
    endloop
  endfacet
  facet normal -2.55988e-16 0.684547 0.728968
    outer loop
      vertex 4.11 7.20649 -1.39217
      vertex -4.11 7.20649 -1.39217
      vertex 4.11 6.95981 -1.16052
    endloop
  endfacet
  facet normal -3.0718e-16 0.481753 0.876307
    outer loop
      vertex -4.11 7.50303 -1.5552
      vertex -4.11 7.20649 -1.39217
      vertex 4.11 7.20649 -1.39217
    endloop
  endfacet
  facet normal -3.07729e-16 0.481753 0.876307
    outer loop
      vertex 4.11 7.50303 -1.5552
      vertex -4.11 7.50303 -1.5552
      vertex 4.11 7.20649 -1.39217
    endloop
  endfacet
  facet normal -3.51165e-16 0 1
    outer loop
      vertex 4.11 18.1692 -1.63936
      vertex -4.11 18.1692 -1.63936
      vertex -4.11 17.8308 -1.63936
    endloop
  endfacet
  facet normal -3.51165e-16 0 1
    outer loop
      vertex 4.11 17.8308 -1.63936
      vertex 4.11 18.1692 -1.63936
      vertex -4.11 17.8308 -1.63936
    endloop
  endfacet
  facet normal -3.38825e-16 0.248691 0.968583
    outer loop
      vertex -4.11 17.8308 -1.63936
      vertex -4.11 17.503 -1.5552
      vertex 4.11 17.503 -1.5552
    endloop
  endfacet
  facet normal -3.40133e-16 0.248691 0.968583
    outer loop
      vertex 4.11 17.8308 -1.63936
      vertex -4.11 17.8308 -1.63936
      vertex 4.11 17.503 -1.5552
    endloop
  endfacet
  facet normal -3.40133e-16 -0.248691 0.968583
    outer loop
      vertex 4.11 18.497 -1.5552
      vertex -4.11 18.497 -1.5552
      vertex -4.11 18.1692 -1.63936
    endloop
  endfacet
  facet normal -3.40133e-16 -0.248691 0.968583
    outer loop
      vertex 4.11 18.1692 -1.63936
      vertex 4.11 18.497 -1.5552
      vertex -4.11 18.1692 -1.63936
    endloop
  endfacet
  facet normal -3.07729e-16 -0.481753 0.876307
    outer loop
      vertex 4.11 18.7935 -1.39217
      vertex -4.11 18.7935 -1.39217
      vertex -4.11 18.497 -1.5552
    endloop
  endfacet
  facet normal -3.07729e-16 -0.481753 0.876307
    outer loop
      vertex 4.11 18.497 -1.5552
      vertex 4.11 18.7935 -1.39217
      vertex -4.11 18.497 -1.5552
    endloop
  endfacet
  facet normal -2.55988e-16 -0.684547 0.728968
    outer loop
      vertex 4.11 19.0402 -1.16052
      vertex -4.11 19.0402 -1.16052
      vertex -4.11 18.7935 -1.39217
    endloop
  endfacet
  facet normal -2.55988e-16 -0.684547 0.728968
    outer loop
      vertex 4.11 18.7935 -1.39217
      vertex 4.11 19.0402 -1.16052
      vertex -4.11 18.7935 -1.39217
    endloop
  endfacet
  facet normal -1.80927e-16 -0.844327 0.535828
    outer loop
      vertex 4.11 19.2215 -0.874802
      vertex -4.11 19.2215 -0.874802
      vertex -4.11 19.0402 -1.16052
    endloop
  endfacet
  facet normal -1.88164e-16 -0.844327 0.535828
    outer loop
      vertex 4.11 19.0402 -1.16052
      vertex 4.11 19.2215 -0.874802
      vertex -4.11 19.0402 -1.16052
    endloop
  endfacet
  facet normal -1.04342e-16 -0.951057 0.309017
    outer loop
      vertex 4.11 19.3261 -0.552965
      vertex -4.11 19.3261 -0.552965
      vertex -4.11 19.2215 -0.874802
    endloop
  endfacet
  facet normal -1.04342e-16 -0.951057 0.309017
    outer loop
      vertex 4.11 19.2215 -0.874802
      vertex 4.11 19.3261 -0.552965
      vertex -4.11 19.2215 -0.874802
    endloop
  endfacet
  facet normal -2.16255e-17 -0.998027 0.0627896
    outer loop
      vertex 4.11 19.3473 -0.215233
      vertex -4.11 19.3473 -0.215233
      vertex -4.11 19.3261 -0.552965
    endloop
  endfacet
  facet normal -2.12015e-17 -0.998027 0.0627896
    outer loop
      vertex 4.11 19.3261 -0.552965
      vertex 4.11 19.3473 -0.215233
      vertex -4.11 19.3261 -0.552965
    endloop
  endfacet
  facet normal 6.48529e-17 -0.982287 -0.187382
    outer loop
      vertex 4.11 19.2839 0.117173
      vertex -4.11 19.2839 0.117173
      vertex -4.11 19.3473 -0.215233
    endloop
  endfacet
  facet normal 6.45366e-17 -0.982287 -0.187382
    outer loop
      vertex 4.11 19.3473 -0.215233
      vertex 4.11 19.2839 0.117173
      vertex -4.11 19.3473 -0.215233
    endloop
  endfacet
  facet normal 1.46643e-16 -0.904828 -0.425778
    outer loop
      vertex 4.11 19.1398 0.423366
      vertex -4.11 19.1398 0.423366
      vertex -4.11 19.2839 0.117173
    endloop
  endfacet
  facet normal 1.47362e-16 -0.904828 -0.425778
    outer loop
      vertex 4.11 19.2839 0.117173
      vertex 4.11 19.1398 0.423366
      vertex -4.11 19.2839 0.117173
    endloop
  endfacet
  facet normal 2.15232e-16 -0.770514 -0.637423
    outer loop
      vertex 4.11 18.9241 0.684108
      vertex -4.11 18.9241 0.684108
      vertex -4.11 19.1398 0.423366
    endloop
  endfacet
  facet normal 2.19536e-16 -0.770514 -0.637423
    outer loop
      vertex 4.11 19.1398 0.423366
      vertex 4.11 18.9241 0.684108
      vertex -4.11 19.1398 0.423366
    endloop
  endfacet
  facet normal 2.73172e-16 -0.587783 -0.809018
    outer loop
      vertex -4.11 18.6504 0.883014
      vertex -4.11 18.9241 0.684108
      vertex 4.11 18.6504 0.883014
    endloop
  endfacet
  facet normal 2.71681e-16 -0.587783 -0.809018
    outer loop
      vertex 4.11 18.6504 0.883014
      vertex -4.11 18.9241 0.684108
      vertex 4.11 18.9241 0.684108
    endloop
  endfacet
  facet normal 3.26505e-16 -0.368124 -0.929777
    outer loop
      vertex -4.11 18.3357 1.00759
      vertex -4.11 18.6504 0.883014
      vertex 4.11 18.3357 1.00759
    endloop
  endfacet
  facet normal 3.14798e-16 -0.368124 -0.929777
    outer loop
      vertex 4.11 18.3357 1.00759
      vertex -4.11 18.6504 0.883014
      vertex 4.11 18.6504 0.883014
    endloop
  endfacet
  facet normal 3.48396e-16 -0.125334 -0.992115
    outer loop
      vertex -4.11 18 1.05
      vertex -4.11 18.3357 1.00759
      vertex 4.11 18 1.05
    endloop
  endfacet
  facet normal 3.48808e-16 -0.125334 -0.992115
    outer loop
      vertex 4.11 18 1.05
      vertex -4.11 18.3357 1.00759
      vertex 4.11 18.3357 1.00759
    endloop
  endfacet
  facet normal 3.48396e-16 0.125334 -0.992115
    outer loop
      vertex -4.11 18 1.05
      vertex 4.11 18 1.05
      vertex -4.11 17.6643 1.00759
    endloop
  endfacet
  facet normal 3.48396e-16 0.125334 -0.992115
    outer loop
      vertex -4.11 17.6643 1.00759
      vertex 4.11 18 1.05
      vertex 4.11 17.6643 1.00759
    endloop
  endfacet
  facet normal 3.26505e-16 0.368124 -0.929777
    outer loop
      vertex -4.11 17.6643 1.00759
      vertex 4.11 17.6643 1.00759
      vertex -4.11 17.3496 0.883014
    endloop
  endfacet
  facet normal 3.13948e-16 0.368124 -0.929777
    outer loop
      vertex -4.11 17.3496 0.883014
      vertex 4.11 17.6643 1.00759
      vertex 4.11 17.3496 0.883014
    endloop
  endfacet
  facet normal 2.73172e-16 0.587783 -0.809018
    outer loop
      vertex -4.11 17.3496 0.883014
      vertex 4.11 17.3496 0.883014
      vertex -4.11 17.0759 0.684108
    endloop
  endfacet
  facet normal 2.73172e-16 0.587783 -0.809018
    outer loop
      vertex -4.11 17.0759 0.684108
      vertex 4.11 17.3496 0.883014
      vertex 4.11 17.0759 0.684108
    endloop
  endfacet
  facet normal 2.15232e-16 0.770514 -0.637423
    outer loop
      vertex -4.11 17.0759 0.684108
      vertex 4.11 17.0759 0.684108
      vertex -4.11 16.8602 0.423366
    endloop
  endfacet
  facet normal 2.19536e-16 0.770514 -0.637423
    outer loop
      vertex -4.11 16.8602 0.423366
      vertex 4.11 17.0759 0.684108
      vertex 4.11 16.8602 0.423366
    endloop
  endfacet
  facet normal 1.46643e-16 0.904828 -0.425778
    outer loop
      vertex -4.11 16.8602 0.423366
      vertex 4.11 16.8602 0.423366
      vertex -4.11 16.7161 0.117173
    endloop
  endfacet
  facet normal 1.47362e-16 0.904828 -0.425778
    outer loop
      vertex -4.11 16.7161 0.117173
      vertex 4.11 16.8602 0.423366
      vertex 4.11 16.7161 0.117173
    endloop
  endfacet
  facet normal 6.48529e-17 0.982287 -0.187382
    outer loop
      vertex -4.11 16.7161 0.117173
      vertex 4.11 16.7161 0.117173
      vertex -4.11 16.6527 -0.215233
    endloop
  endfacet
  facet normal 6.45366e-17 0.982287 -0.187382
    outer loop
      vertex -4.11 16.6527 -0.215233
      vertex 4.11 16.7161 0.117173
      vertex 4.11 16.6527 -0.215233
    endloop
  endfacet
  facet normal -2.16255e-17 0.998027 0.0627896
    outer loop
      vertex -4.11 16.6527 -0.215233
      vertex 4.11 16.6527 -0.215233
      vertex -4.11 16.6739 -0.552965
    endloop
  endfacet
  facet normal -2.12015e-17 0.998027 0.0627896
    outer loop
      vertex -4.11 16.6739 -0.552965
      vertex 4.11 16.6527 -0.215233
      vertex 4.11 16.6739 -0.552965
    endloop
  endfacet
  facet normal -1.04342e-16 0.951057 0.309017
    outer loop
      vertex -4.11 16.6739 -0.552965
      vertex 4.11 16.6739 -0.552965
      vertex -4.11 16.7785 -0.874802
    endloop
  endfacet
  facet normal -1.04342e-16 0.951057 0.309017
    outer loop
      vertex -4.11 16.7785 -0.874802
      vertex 4.11 16.6739 -0.552965
      vertex 4.11 16.7785 -0.874802
    endloop
  endfacet
  facet normal -1.80927e-16 0.844327 0.535828
    outer loop
      vertex -4.11 16.7785 -0.874802
      vertex 4.11 16.7785 -0.874802
      vertex -4.11 16.9598 -1.16052
    endloop
  endfacet
  facet normal -1.88164e-16 0.844327 0.535828
    outer loop
      vertex -4.11 16.9598 -1.16052
      vertex 4.11 16.7785 -0.874802
      vertex 4.11 16.9598 -1.16052
    endloop
  endfacet
  facet normal -2.575e-16 0.684547 0.728968
    outer loop
      vertex -4.11 17.2065 -1.39217
      vertex -4.11 16.9598 -1.16052
      vertex 4.11 16.9598 -1.16052
    endloop
  endfacet
  facet normal -2.55988e-16 0.684547 0.728968
    outer loop
      vertex 4.11 17.2065 -1.39217
      vertex -4.11 17.2065 -1.39217
      vertex 4.11 16.9598 -1.16052
    endloop
  endfacet
  facet normal -3.07993e-16 0.481753 0.876307
    outer loop
      vertex -4.11 17.503 -1.5552
      vertex -4.11 17.2065 -1.39217
      vertex 4.11 17.2065 -1.39217
    endloop
  endfacet
  facet normal -3.07729e-16 0.481753 0.876307
    outer loop
      vertex 4.11 17.503 -1.5552
      vertex -4.11 17.503 -1.5552
      vertex 4.11 17.2065 -1.39217
    endloop
  endfacet
  facet normal -1 5.06055e-32 -3.4186e-16
    outer loop
      vertex -4.11 6.5 2.29808
      vertex -4.11 9.5 2.29808
      vertex -4.11 5 -0.3
    endloop
  endfacet
  facet normal -1 -1.80695e-17 -3.52292e-16
    outer loop
      vertex -4.11 9.34734 -0.215233
      vertex -4.11 9.5 2.29808
      vertex -4.11 11 -0.3
    endloop
  endfacet
  facet normal -1 -0 0
    outer loop
      vertex -4.11 8.49697 -1.5552
      vertex -4.11 11 -0.3
      vertex -4.11 9.5 -2.89808
    endloop
  endfacet
  facet normal -1 0 0
    outer loop
      vertex -4.11 5 -0.3
      vertex -4.11 9.5 -2.89808
      vertex -4.11 6.5 -2.89808
    endloop
  endfacet
  facet normal -1 0 0
    outer loop
      vertex -4.11 9.34734 -0.215233
      vertex -4.11 11 -0.3
      vertex -4.11 9.32609 -0.552965
    endloop
  endfacet
  facet normal -1 0 0
    outer loop
      vertex -4.11 7.8308 -1.63936
      vertex -4.11 8.1692 -1.63936
      vertex -4.11 9.5 -2.89808
    endloop
  endfacet
  facet normal -1 -0 0
    outer loop
      vertex -4.11 8.79351 -1.39217
      vertex -4.11 11 -0.3
      vertex -4.11 8.49697 -1.5552
    endloop
  endfacet
  facet normal -1 -0 0
    outer loop
      vertex -4.11 8.1692 -1.63936
      vertex -4.11 8.49697 -1.5552
      vertex -4.11 9.5 -2.89808
    endloop
  endfacet
  facet normal -1 -0 0
    outer loop
      vertex -4.11 9.22152 -0.874802
      vertex -4.11 11 -0.3
      vertex -4.11 9.04019 -1.16052
    endloop
  endfacet
  facet normal -1 -0 0
    outer loop
      vertex -4.11 9.32609 -0.552965
      vertex -4.11 11 -0.3
      vertex -4.11 9.22152 -0.874802
    endloop
  endfacet
  facet normal -1 9.21889e-15 -9.13366e-16
    outer loop
      vertex -4.11 9.28393 0.117173
      vertex -4.11 9.5 2.29808
      vertex -4.11 9.34734 -0.215233
    endloop
  endfacet
  facet normal -1 -1.23128e-15 1.69472e-15
    outer loop
      vertex -4.11 7.07586 0.684108
      vertex -4.11 5 -0.3
      vertex -4.11 7.34963 0.883014
    endloop
  endfacet
  facet normal -1 -0 0
    outer loop
      vertex -4.11 9.13984 0.423366
      vertex -4.11 9.5 2.29808
      vertex -4.11 9.28393 0.117173
    endloop
  endfacet
  facet normal -1 -0 0
    outer loop
      vertex -4.11 8.92414 0.684108
      vertex -4.11 9.5 2.29808
      vertex -4.11 9.13984 0.423366
    endloop
  endfacet
  facet normal -1 -0 0
    outer loop
      vertex -4.11 8.65037 0.883014
      vertex -4.11 9.5 2.29808
      vertex -4.11 8.92414 0.684108
    endloop
  endfacet
  facet normal -1 -0 0
    outer loop
      vertex -4.11 8.33573 1.00759
      vertex -4.11 9.5 2.29808
      vertex -4.11 8.65037 0.883014
    endloop
  endfacet
  facet normal -1 -0 0
    outer loop
      vertex -4.11 8 1.05
      vertex -4.11 9.5 2.29808
      vertex -4.11 8.33573 1.00759
    endloop
  endfacet
  facet normal -1 0 0
    outer loop
      vertex -4.11 7.66427 1.00759
      vertex -4.11 9.5 2.29808
      vertex -4.11 8 1.05
    endloop
  endfacet
  facet normal -1 0 0
    outer loop
      vertex -4.11 7.34963 0.883014
      vertex -4.11 9.5 2.29808
      vertex -4.11 7.66427 1.00759
    endloop
  endfacet
  facet normal -1 -1.60933e-15 2.44559e-15
    outer loop
      vertex -4.11 5 -0.3
      vertex -4.11 9.5 2.29808
      vertex -4.11 7.34963 0.883014
    endloop
  endfacet
  facet normal -1 -7.03932e-16 5.82342e-16
    outer loop
      vertex -4.11 6.86016 0.423366
      vertex -4.11 5 -0.3
      vertex -4.11 7.07586 0.684108
    endloop
  endfacet
  facet normal -1 -5.84417e-16 2.75005e-16
    outer loop
      vertex -4.11 6.71607 0.117173
      vertex -4.11 5 -0.3
      vertex -4.11 6.86016 0.423366
    endloop
  endfacet
  facet normal -1 1.38402e-16 -2.69837e-15
    outer loop
      vertex -4.11 6.65266 -0.215233
      vertex -4.11 5 -0.3
      vertex -4.11 6.71607 0.117173
    endloop
  endfacet
  facet normal -1 0 0
    outer loop
      vertex -4.11 6.67391 -0.552965
      vertex -4.11 5 -0.3
      vertex -4.11 6.65266 -0.215233
    endloop
  endfacet
  facet normal -1 0 0
    outer loop
      vertex -4.11 6.77848 -0.874802
      vertex -4.11 5 -0.3
      vertex -4.11 6.67391 -0.552965
    endloop
  endfacet
  facet normal -1 0 0
    outer loop
      vertex -4.11 6.95981 -1.16052
      vertex -4.11 5 -0.3
      vertex -4.11 6.77848 -0.874802
    endloop
  endfacet
  facet normal -1 0 0
    outer loop
      vertex -4.11 7.8308 -1.63936
      vertex -4.11 9.5 -2.89808
      vertex -4.11 7.50303 -1.5552
    endloop
  endfacet
  facet normal -1 0 0
    outer loop
      vertex -4.11 5 -0.3
      vertex -4.11 6.95981 -1.16052
      vertex -4.11 7.20649 -1.39217
    endloop
  endfacet
  facet normal -1 0 0
    outer loop
      vertex -4.11 5 -0.3
      vertex -4.11 7.20649 -1.39217
      vertex -4.11 9.5 -2.89808
    endloop
  endfacet
  facet normal -1 0 0
    outer loop
      vertex -4.11 7.20649 -1.39217
      vertex -4.11 7.50303 -1.5552
      vertex -4.11 9.5 -2.89808
    endloop
  endfacet
  facet normal -1 -0 0
    outer loop
      vertex -4.11 9.04019 -1.16052
      vertex -4.11 11 -0.3
      vertex -4.11 8.79351 -1.39217
    endloop
  endfacet
  facet normal -1 5.06055e-32 -3.4186e-16
    outer loop
      vertex -4.11 16.5 2.29808
      vertex -4.11 19.5 2.29808
      vertex -4.11 15 -0.3
    endloop
  endfacet
  facet normal -1 -1.80695e-17 -3.52292e-16
    outer loop
      vertex -4.11 19.3473 -0.215233
      vertex -4.11 19.5 2.29808
      vertex -4.11 21 -0.3
    endloop
  endfacet
  facet normal -1 -0 0
    outer loop
      vertex -4.11 18.497 -1.5552
      vertex -4.11 21 -0.3
      vertex -4.11 19.5 -2.89808
    endloop
  endfacet
  facet normal -1 0 0
    outer loop
      vertex -4.11 15 -0.3
      vertex -4.11 19.5 -2.89808
      vertex -4.11 16.5 -2.89808
    endloop
  endfacet
  facet normal -1 0 0
    outer loop
      vertex -4.11 19.3473 -0.215233
      vertex -4.11 21 -0.3
      vertex -4.11 19.3261 -0.552965
    endloop
  endfacet
  facet normal -1 0 0
    outer loop
      vertex -4.11 17.8308 -1.63936
      vertex -4.11 18.1692 -1.63936
      vertex -4.11 19.5 -2.89808
    endloop
  endfacet
  facet normal -1 -0 0
    outer loop
      vertex -4.11 18.7935 -1.39217
      vertex -4.11 21 -0.3
      vertex -4.11 18.497 -1.5552
    endloop
  endfacet
  facet normal -1 -0 0
    outer loop
      vertex -4.11 18.1692 -1.63936
      vertex -4.11 18.497 -1.5552
      vertex -4.11 19.5 -2.89808
    endloop
  endfacet
  facet normal -1 -0 0
    outer loop
      vertex -4.11 19.2215 -0.874802
      vertex -4.11 21 -0.3
      vertex -4.11 19.0402 -1.16052
    endloop
  endfacet
  facet normal -1 -0 0
    outer loop
      vertex -4.11 19.3261 -0.552965
      vertex -4.11 21 -0.3
      vertex -4.11 19.2215 -0.874802
    endloop
  endfacet
  facet normal -1 9.21889e-15 -9.13366e-16
    outer loop
      vertex -4.11 19.2839 0.117173
      vertex -4.11 19.5 2.29808
      vertex -4.11 19.3473 -0.215233
    endloop
  endfacet
  facet normal -1 -1.23128e-15 1.69472e-15
    outer loop
      vertex -4.11 17.0759 0.684108
      vertex -4.11 15 -0.3
      vertex -4.11 17.3496 0.883014
    endloop
  endfacet
  facet normal -1 -0 0
    outer loop
      vertex -4.11 19.1398 0.423366
      vertex -4.11 19.5 2.29808
      vertex -4.11 19.2839 0.117173
    endloop
  endfacet
  facet normal -1 -0 0
    outer loop
      vertex -4.11 18.9241 0.684108
      vertex -4.11 19.5 2.29808
      vertex -4.11 19.1398 0.423366
    endloop
  endfacet
  facet normal -1 -0 0
    outer loop
      vertex -4.11 18.6504 0.883014
      vertex -4.11 19.5 2.29808
      vertex -4.11 18.9241 0.684108
    endloop
  endfacet
  facet normal -1 -0 0
    outer loop
      vertex -4.11 18.3357 1.00759
      vertex -4.11 19.5 2.29808
      vertex -4.11 18.6504 0.883014
    endloop
  endfacet
  facet normal -1 -0 0
    outer loop
      vertex -4.11 18 1.05
      vertex -4.11 19.5 2.29808
      vertex -4.11 18.3357 1.00759
    endloop
  endfacet
  facet normal -1 0 0
    outer loop
      vertex -4.11 17.6643 1.00759
      vertex -4.11 19.5 2.29808
      vertex -4.11 18 1.05
    endloop
  endfacet
  facet normal -1 0 0
    outer loop
      vertex -4.11 17.3496 0.883014
      vertex -4.11 19.5 2.29808
      vertex -4.11 17.6643 1.00759
    endloop
  endfacet
  facet normal -1 -1.60933e-15 2.44559e-15
    outer loop
      vertex -4.11 15 -0.3
      vertex -4.11 19.5 2.29808
      vertex -4.11 17.3496 0.883014
    endloop
  endfacet
  facet normal -1 -7.03932e-16 5.82342e-16
    outer loop
      vertex -4.11 16.8602 0.423366
      vertex -4.11 15 -0.3
      vertex -4.11 17.0759 0.684108
    endloop
  endfacet
  facet normal -1 -5.84417e-16 2.75005e-16
    outer loop
      vertex -4.11 16.7161 0.117173
      vertex -4.11 15 -0.3
      vertex -4.11 16.8602 0.423366
    endloop
  endfacet
  facet normal -1 1.38402e-16 -2.69837e-15
    outer loop
      vertex -4.11 16.6527 -0.215233
      vertex -4.11 15 -0.3
      vertex -4.11 16.7161 0.117173
    endloop
  endfacet
  facet normal -1 0 0
    outer loop
      vertex -4.11 16.6739 -0.552965
      vertex -4.11 15 -0.3
      vertex -4.11 16.6527 -0.215233
    endloop
  endfacet
  facet normal -1 0 0
    outer loop
      vertex -4.11 16.7785 -0.874802
      vertex -4.11 15 -0.3
      vertex -4.11 16.6739 -0.552965
    endloop
  endfacet
  facet normal -1 0 0
    outer loop
      vertex -4.11 16.9598 -1.16052
      vertex -4.11 15 -0.3
      vertex -4.11 16.7785 -0.874802
    endloop
  endfacet
  facet normal -1 0 0
    outer loop
      vertex -4.11 17.8308 -1.63936
      vertex -4.11 19.5 -2.89808
      vertex -4.11 17.503 -1.5552
    endloop
  endfacet
  facet normal -1 0 0
    outer loop
      vertex -4.11 15 -0.3
      vertex -4.11 16.9598 -1.16052
      vertex -4.11 17.2065 -1.39217
    endloop
  endfacet
  facet normal -1 0 0
    outer loop
      vertex -4.11 15 -0.3
      vertex -4.11 17.2065 -1.39217
      vertex -4.11 19.5 -2.89808
    endloop
  endfacet
  facet normal -1 0 0
    outer loop
      vertex -4.11 17.2065 -1.39217
      vertex -4.11 17.503 -1.5552
      vertex -4.11 19.5 -2.89808
    endloop
  endfacet
  facet normal -1 -0 0
    outer loop
      vertex -4.11 19.0402 -1.16052
      vertex -4.11 21 -0.3
      vertex -4.11 18.7935 -1.39217
    endloop
  endfacet
endsolid OpenSCAD_Model
