solid OpenSCAD_Model
  facet normal -1 -0 -0
    outer loop
      vertex -16.5 -3.85 -1.9
      vertex -16.5 -3.85 1.6
      vertex -16.5 3.85 -1.9
    endloop
  endfacet
  facet normal -1 0 0
    outer loop
      vertex -16.5 3.85 -1.9
      vertex -16.5 -3.85 1.6
      vertex -16.5 3.85 1.6
    endloop
  endfacet
  facet normal 0 -1 0
    outer loop
      vertex -16.5 -3.85 1.6
      vertex -16.5 -3.85 -1.9
      vertex -14.5 -3.85 -1.9
    endloop
  endfacet
  facet normal 0 -1 0
    outer loop
      vertex -14.5 -3.85 1.6
      vertex -16.5 -3.85 1.6
      vertex -14.5 -3.85 -1.9
    endloop
  endfacet
  facet normal -0 -0 -1
    outer loop
      vertex -16.5 -3.85 -1.9
      vertex -16.5 3.85 -1.9
      vertex -14.5 -3.85 -1.9
    endloop
  endfacet
  facet normal 0 0 -1
    outer loop
      vertex -14.5 2.85 -1.9
      vertex -16.5 3.85 -1.9
      vertex -14.5 3.85 -1.9
    endloop
  endfacet
  facet normal 0 0 -1
    outer loop
      vertex -14.5 -3.85 -1.9
      vertex -16.5 3.85 -1.9
      vertex -14.5 -2.85 -1.9
    endloop
  endfacet
  facet normal 0 -0 -1
    outer loop
      vertex 14.5 2.85 -1.9
      vertex 14.5 3.85 -1.9
      vertex 16.5 3.85 -1.9
    endloop
  endfacet
  facet normal -0 0 -1
    outer loop
      vertex 14.5 2.85 -1.9
      vertex 16.5 3.85 -1.9
      vertex 16.5 -3.85 -1.9
    endloop
  endfacet
  facet normal 0 0 -1
    outer loop
      vertex 14.5 -2.85 -1.9
      vertex 16.5 -3.85 -1.9
      vertex 14.5 -3.85 -1.9
    endloop
  endfacet
  facet normal 0 0 -1
    outer loop
      vertex 14.5 2.85 -1.9
      vertex 16.5 -3.85 -1.9
      vertex 14.5 -2.85 -1.9
    endloop
  endfacet
  facet normal 0 0 -1
    outer loop
      vertex -14.5 2.85 -1.9
      vertex -14.5 -2.85 -1.9
      vertex -16.5 3.85 -1.9
    endloop
  endfacet
  facet normal 0 -0 -1
    outer loop
      vertex -0.772542 2.37764 -1.9
      vertex -14.5 2.85 -1.9
      vertex -0.261321 2.4863 -1.9
    endloop
  endfacet
  facet normal 0 0 -1
    outer loop
      vertex -14.5 2.85 -1.9
      vertex -2.5 0 -1.9
      vertex -14.5 -2.85 -1.9
    endloop
  endfacet
  facet normal 0 0 -1
    outer loop
      vertex 0.772542 -2.37764 -1.9
      vertex 14.5 -2.85 -1.9
      vertex 0.261321 -2.4863 -1.9
    endloop
  endfacet
  facet normal 0 0 -1
    outer loop
      vertex -2.44537 -0.519779 -1.9
      vertex -14.5 -2.85 -1.9
      vertex -2.5 0 -1.9
    endloop
  endfacet
  facet normal -0 0 -1
    outer loop
      vertex 2.28386 1.01684 -1.9
      vertex 14.5 2.85 -1.9
      vertex 2.44537 0.519779 -1.9
    endloop
  endfacet
  facet normal -0 0 -1
    outer loop
      vertex 2.5 0 -1.9
      vertex 14.5 2.85 -1.9
      vertex 2.44537 -0.519779 -1.9
    endloop
  endfacet
  facet normal 0 0 -1
    outer loop
      vertex 2.02254 -1.46946 -1.9
      vertex 14.5 -2.85 -1.9
      vertex 1.67283 -1.85786 -1.9
    endloop
  endfacet
  facet normal 0 0 -1
    outer loop
      vertex 1.67283 -1.85786 -1.9
      vertex 14.5 -2.85 -1.9
      vertex 1.25 -2.16506 -1.9
    endloop
  endfacet
  facet normal 0 0 -1
    outer loop
      vertex 1.25 -2.16506 -1.9
      vertex 14.5 -2.85 -1.9
      vertex 0.772542 -2.37764 -1.9
    endloop
  endfacet
  facet normal 0 0 -1
    outer loop
      vertex 0.261321 -2.4863 -1.9
      vertex 14.5 -2.85 -1.9
      vertex -0.261321 -2.4863 -1.9
    endloop
  endfacet
  facet normal 0 0 -1
    outer loop
      vertex 14.5 2.85 -1.9
      vertex 14.5 -2.85 -1.9
      vertex 2.02254 -1.46946 -1.9
    endloop
  endfacet
  facet normal 0 0 -1
    outer loop
      vertex 14.5 2.85 -1.9
      vertex 2.02254 -1.46946 -1.9
      vertex 2.28386 -1.01684 -1.9
    endloop
  endfacet
  facet normal 0 0 -1
    outer loop
      vertex 14.5 2.85 -1.9
      vertex 2.28386 -1.01684 -1.9
      vertex 2.44537 -0.519779 -1.9
    endloop
  endfacet
  facet normal -0 0 -1
    outer loop
      vertex 2.44537 0.519779 -1.9
      vertex 14.5 2.85 -1.9
      vertex 2.5 0 -1.9
    endloop
  endfacet
  facet normal -0 0 -1
    outer loop
      vertex 2.02254 1.46946 -1.9
      vertex 14.5 2.85 -1.9
      vertex 2.28386 1.01684 -1.9
    endloop
  endfacet
  facet normal -0 0 -1
    outer loop
      vertex 1.67283 1.85786 -1.9
      vertex 14.5 2.85 -1.9
      vertex 2.02254 1.46946 -1.9
    endloop
  endfacet
  facet normal -0 0 -1
    outer loop
      vertex 1.25 2.16506 -1.9
      vertex 14.5 2.85 -1.9
      vertex 1.67283 1.85786 -1.9
    endloop
  endfacet
  facet normal -0 0 -1
    outer loop
      vertex 0.772542 2.37764 -1.9
      vertex 14.5 2.85 -1.9
      vertex 1.25 2.16506 -1.9
    endloop
  endfacet
  facet normal -0 0 -1
    outer loop
      vertex 0.261321 2.4863 -1.9
      vertex 14.5 2.85 -1.9
      vertex 0.772542 2.37764 -1.9
    endloop
  endfacet
  facet normal 0 0 -1
    outer loop
      vertex -14.5 2.85 -1.9
      vertex 14.5 2.85 -1.9
      vertex 0.261321 2.4863 -1.9
    endloop
  endfacet
  facet normal 0 0 -1
    outer loop
      vertex -14.5 2.85 -1.9
      vertex 0.261321 2.4863 -1.9
      vertex -0.261321 2.4863 -1.9
    endloop
  endfacet
  facet normal 0 -0 -1
    outer loop
      vertex -1.25 2.16506 -1.9
      vertex -14.5 2.85 -1.9
      vertex -0.772542 2.37764 -1.9
    endloop
  endfacet
  facet normal 0 -0 -1
    outer loop
      vertex -1.67283 1.85786 -1.9
      vertex -14.5 2.85 -1.9
      vertex -1.25 2.16506 -1.9
    endloop
  endfacet
  facet normal 0 -0 -1
    outer loop
      vertex -2.02254 1.46946 -1.9
      vertex -14.5 2.85 -1.9
      vertex -1.67283 1.85786 -1.9
    endloop
  endfacet
  facet normal 0 0 -1
    outer loop
      vertex -14.5 2.85 -1.9
      vertex -2.02254 1.46946 -1.9
      vertex -2.28386 1.01684 -1.9
    endloop
  endfacet
  facet normal 0 0 -1
    outer loop
      vertex -14.5 2.85 -1.9
      vertex -2.28386 1.01684 -1.9
      vertex -2.44537 0.519779 -1.9
    endloop
  endfacet
  facet normal 0 0 -1
    outer loop
      vertex -14.5 2.85 -1.9
      vertex -2.44537 0.519779 -1.9
      vertex -2.5 0 -1.9
    endloop
  endfacet
  facet normal 0 0 -1
    outer loop
      vertex -14.5 -2.85 -1.9
      vertex -2.44537 -0.519779 -1.9
      vertex -2.28386 -1.01684 -1.9
    endloop
  endfacet
  facet normal 0 0 -1
    outer loop
      vertex -14.5 -2.85 -1.9
      vertex -2.28386 -1.01684 -1.9
      vertex -2.02254 -1.46946 -1.9
    endloop
  endfacet
  facet normal 0 0 -1
    outer loop
      vertex -14.5 -2.85 -1.9
      vertex -2.02254 -1.46946 -1.9
      vertex -1.67283 -1.85786 -1.9
    endloop
  endfacet
  facet normal 0 0 -1
    outer loop
      vertex -14.5 -2.85 -1.9
      vertex -1.67283 -1.85786 -1.9
      vertex -1.25 -2.16506 -1.9
    endloop
  endfacet
  facet normal 0 0 -1
    outer loop
      vertex -14.5 -2.85 -1.9
      vertex -1.25 -2.16506 -1.9
      vertex -0.772542 -2.37764 -1.9
    endloop
  endfacet
  facet normal 0 0 -1
    outer loop
      vertex -14.5 -2.85 -1.9
      vertex -0.772542 -2.37764 -1.9
      vertex -0.261321 -2.4863 -1.9
    endloop
  endfacet
  facet normal -0 0 -1
    outer loop
      vertex -14.5 -2.85 -1.9
      vertex -0.261321 -2.4863 -1.9
      vertex 14.5 -2.85 -1.9
    endloop
  endfacet
  facet normal 0 1 0
    outer loop
      vertex -16.5 3.85 -1.9
      vertex -16.5 3.85 1.6
      vertex -14.5 3.85 -1.9
    endloop
  endfacet
  facet normal 0 1 0
    outer loop
      vertex -14.5 3.85 -1.9
      vertex -16.5 3.85 1.6
      vertex -14.5 3.85 1.6
    endloop
  endfacet
  facet normal 0 -0 1
    outer loop
      vertex -16.5 3.85 1.6
      vertex -16.5 -3.85 1.6
      vertex -14.5 -3.85 1.6
    endloop
  endfacet
  facet normal -0 0 1
    outer loop
      vertex -10 -2.85 1.6
      vertex -16.5 3.85 1.6
      vertex -14.5 -2.85 1.6
    endloop
  endfacet
  facet normal -0 0 1
    outer loop
      vertex -14.5 -2.85 1.6
      vertex -16.5 3.85 1.6
      vertex -14.5 -3.85 1.6
    endloop
  endfacet
  facet normal -0 -0 1
    outer loop
      vertex -14.5 2.85 1.6
      vertex -16.5 3.85 1.6
      vertex -10 -2.85 1.6
    endloop
  endfacet
  facet normal 0 0 1
    outer loop
      vertex -10 2.85 1.6
      vertex -14.5 2.85 1.6
      vertex -10 -2.85 1.6
    endloop
  endfacet
  facet normal 0 0 1
    outer loop
      vertex -14.5 2.85 1.6
      vertex -14.5 3.85 1.6
      vertex -16.5 3.85 1.6
    endloop
  endfacet
  facet normal 1 0 0
    outer loop
      vertex -14.5 -2.85 -1.9
      vertex -14.5 -2.85 1.6
      vertex -14.5 -3.85 1.6
    endloop
  endfacet
  facet normal 1 0 0
    outer loop
      vertex -14.5 -3.85 -1.9
      vertex -14.5 -2.85 -1.9
      vertex -14.5 -3.85 1.6
    endloop
  endfacet
  facet normal 0 -0 0
    outer loop
      vertex 10 -2.85 -1.9
      vertex -14.5 -2.85 -1.9
      vertex 14.5 -2.85 -1.9
    endloop
  endfacet
  facet normal 0 -1 0
    outer loop
      vertex -10 -2.85 -1.9
      vertex -10 -2.85 1.6
      vertex -14.5 -2.85 1.6
    endloop
  endfacet
  facet normal 0 -1 0
    outer loop
      vertex 14.5 -2.85 1.6
      vertex 10 -2.85 1.6
      vertex 14.5 -2.85 -1.9
    endloop
  endfacet
  facet normal 0 -0 0
    outer loop
      vertex -10 -2.85 -1.9
      vertex -14.5 -2.85 -1.9
      vertex 10 -2.85 -1.9
    endloop
  endfacet
  facet normal 0 -1 0
    outer loop
      vertex -14.5 -2.85 1.6
      vertex -14.5 -2.85 -1.9
      vertex -10 -2.85 -1.9
    endloop
  endfacet
  facet normal 0 -1 0
    outer loop
      vertex 10 -2.85 1.6
      vertex 10 -2.85 -1.9
      vertex 14.5 -2.85 -1.9
    endloop
  endfacet
  facet normal -1 0 0
    outer loop
      vertex 14.5 -2.85 1.6
      vertex 14.5 -2.85 -1.9
      vertex 14.5 -3.85 1.6
    endloop
  endfacet
  facet normal -1 0 0
    outer loop
      vertex 14.5 -3.85 1.6
      vertex 14.5 -2.85 -1.9
      vertex 14.5 -3.85 -1.9
    endloop
  endfacet
  facet normal 0 -1 0
    outer loop
      vertex 14.5 -3.85 1.6
      vertex 14.5 -3.85 -1.9
      vertex 16.5 -3.85 -1.9
    endloop
  endfacet
  facet normal 0 -1 0
    outer loop
      vertex 16.5 -3.85 1.6
      vertex 14.5 -3.85 1.6
      vertex 16.5 -3.85 -1.9
    endloop
  endfacet
  facet normal 1 0 -0
    outer loop
      vertex 16.5 -3.85 1.6
      vertex 16.5 -3.85 -1.9
      vertex 16.5 3.85 -1.9
    endloop
  endfacet
  facet normal 1 0 0
    outer loop
      vertex 16.5 3.85 1.6
      vertex 16.5 -3.85 1.6
      vertex 16.5 3.85 -1.9
    endloop
  endfacet
  facet normal 0 1 0
    outer loop
      vertex 14.5 3.85 -1.9
      vertex 14.5 3.85 1.6
      vertex 16.5 3.85 -1.9
    endloop
  endfacet
  facet normal 0 1 0
    outer loop
      vertex 16.5 3.85 -1.9
      vertex 14.5 3.85 1.6
      vertex 16.5 3.85 1.6
    endloop
  endfacet
  facet normal -1 0 0
    outer loop
      vertex 14.5 3.85 1.6
      vertex 14.5 3.85 -1.9
      vertex 14.5 2.85 1.6
    endloop
  endfacet
  facet normal -1 0 0
    outer loop
      vertex 14.5 2.85 1.6
      vertex 14.5 3.85 -1.9
      vertex 14.5 2.85 -1.9
    endloop
  endfacet
  facet normal 0 1 0
    outer loop
      vertex -14.5 2.85 -1.9
      vertex -14.5 2.85 1.6
      vertex -10 2.85 -1.9
    endloop
  endfacet
  facet normal 0 0 0
    outer loop
      vertex -14.5 2.85 -1.9
      vertex -10 2.85 -1.9
      vertex 14.5 2.85 -1.9
    endloop
  endfacet
  facet normal 0 1 -0
    outer loop
      vertex 10 2.85 1.6
      vertex 14.5 2.85 -1.9
      vertex 10 2.85 -1.9
    endloop
  endfacet
  facet normal 0 0 0
    outer loop
      vertex -10 2.85 -1.9
      vertex 10 2.85 -1.9
      vertex 14.5 2.85 -1.9
    endloop
  endfacet
  facet normal 0 1 0
    outer loop
      vertex 14.5 2.85 -1.9
      vertex 10 2.85 1.6
      vertex 14.5 2.85 1.6
    endloop
  endfacet
  facet normal 0 1 0
    outer loop
      vertex -10 2.85 -1.9
      vertex -14.5 2.85 1.6
      vertex -10 2.85 1.6
    endloop
  endfacet
  facet normal 1 0 0
    outer loop
      vertex -14.5 3.85 -1.9
      vertex -14.5 3.85 1.6
      vertex -14.5 2.85 1.6
    endloop
  endfacet
  facet normal 1 0 0
    outer loop
      vertex -14.5 2.85 -1.9
      vertex -14.5 3.85 -1.9
      vertex -14.5 2.85 1.6
    endloop
  endfacet
  facet normal 0.994522 -0.104529 0
    outer loop
      vertex -2.44537 0.519779 -1.9
      vertex -2.44537 0.519779 5.7
      vertex -2.5 0 5.7
    endloop
  endfacet
  facet normal 0.994522 -0.104529 0
    outer loop
      vertex -2.5 0 -1.9
      vertex -2.44537 0.519779 -1.9
      vertex -2.5 0 5.7
    endloop
  endfacet
  facet normal 0.994522 0.104529 0
    outer loop
      vertex -2.5 0 5.7
      vertex -2.44537 -0.519779 5.7
      vertex -2.44537 -0.519779 -1.9
    endloop
  endfacet
  facet normal 0.994522 0.104529 0
    outer loop
      vertex -2.5 0 -1.9
      vertex -2.5 0 5.7
      vertex -2.44537 -0.519779 -1.9
    endloop
  endfacet
  facet normal 0.951057 -0.309016 0
    outer loop
      vertex -2.28386 1.01684 -1.9
      vertex -2.28386 1.01684 5.7
      vertex -2.44537 0.519779 5.7
    endloop
  endfacet
  facet normal 0.951057 -0.309016 0
    outer loop
      vertex -2.44537 0.519779 -1.9
      vertex -2.28386 1.01684 -1.9
      vertex -2.44537 0.519779 5.7
    endloop
  endfacet
  facet normal 0.866024 -0.500002 0
    outer loop
      vertex -2.02254 1.46946 -1.9
      vertex -2.02254 1.46946 5.7
      vertex -2.28386 1.01684 5.7
    endloop
  endfacet
  facet normal 0.866024 -0.500002 0
    outer loop
      vertex -2.28386 1.01684 -1.9
      vertex -2.02254 1.46946 -1.9
      vertex -2.28386 1.01684 5.7
    endloop
  endfacet
  facet normal 0.743146 -0.66913 0
    outer loop
      vertex -1.67283 1.85786 -1.9
      vertex -1.67283 1.85786 5.7
      vertex -2.02254 1.46946 5.7
    endloop
  endfacet
  facet normal 0.743146 -0.66913 0
    outer loop
      vertex -2.02254 1.46946 -1.9
      vertex -1.67283 1.85786 -1.9
      vertex -2.02254 1.46946 5.7
    endloop
  endfacet
  facet normal 0.587786 -0.809017 0
    outer loop
      vertex -1.25 2.16506 -1.9
      vertex -1.25 2.16506 5.7
      vertex -1.67283 1.85786 5.7
    endloop
  endfacet
  facet normal 0.587786 -0.809017 0
    outer loop
      vertex -1.67283 1.85786 -1.9
      vertex -1.25 2.16506 -1.9
      vertex -1.67283 1.85786 5.7
    endloop
  endfacet
  facet normal 0.406735 -0.913546 0
    outer loop
      vertex -0.772542 2.37764 -1.9
      vertex -0.772542 2.37764 5.7
      vertex -1.25 2.16506 5.7
    endloop
  endfacet
  facet normal 0.406735 -0.913546 0
    outer loop
      vertex -1.25 2.16506 -1.9
      vertex -0.772542 2.37764 -1.9
      vertex -1.25 2.16506 5.7
    endloop
  endfacet
  facet normal 0.207913 -0.978147 0
    outer loop
      vertex -0.261321 2.4863 -1.9
      vertex -0.261321 2.4863 5.7
      vertex -0.772542 2.37764 5.7
    endloop
  endfacet
  facet normal 0.207913 -0.978147 0
    outer loop
      vertex -0.772542 2.37764 -1.9
      vertex -0.261321 2.4863 -1.9
      vertex -0.772542 2.37764 5.7
    endloop
  endfacet
  facet normal 0 -1 0
    outer loop
      vertex 0.261321 2.4863 -1.9
      vertex 0.261321 2.4863 5.7
      vertex -0.261321 2.4863 5.7
    endloop
  endfacet
  facet normal -0 -1 -0
    outer loop
      vertex -0.261321 2.4863 -1.9
      vertex 0.261321 2.4863 -1.9
      vertex -0.261321 2.4863 5.7
    endloop
  endfacet
  facet normal -0.207913 -0.978147 -0
    outer loop
      vertex 0.772542 2.37764 -1.9
      vertex 0.772542 2.37764 5.7
      vertex 0.261321 2.4863 5.7
    endloop
  endfacet
  facet normal -0.207913 -0.978147 -0
    outer loop
      vertex 0.261321 2.4863 -1.9
      vertex 0.772542 2.37764 -1.9
      vertex 0.261321 2.4863 5.7
    endloop
  endfacet
  facet normal -0.406735 -0.913546 -0
    outer loop
      vertex 1.25 2.16506 -1.9
      vertex 1.25 2.16506 5.7
      vertex 0.772542 2.37764 5.7
    endloop
  endfacet
  facet normal -0.406735 -0.913546 -0
    outer loop
      vertex 0.772542 2.37764 -1.9
      vertex 1.25 2.16506 -1.9
      vertex 0.772542 2.37764 5.7
    endloop
  endfacet
  facet normal -0.587786 -0.809017 -0
    outer loop
      vertex 1.67283 1.85786 -1.9
      vertex 1.67283 1.85786 5.7
      vertex 1.25 2.16506 5.7
    endloop
  endfacet
  facet normal -0.587786 -0.809017 -0
    outer loop
      vertex 1.25 2.16506 -1.9
      vertex 1.67283 1.85786 -1.9
      vertex 1.25 2.16506 5.7
    endloop
  endfacet
  facet normal -0.743146 -0.66913 0
    outer loop
      vertex 2.02254 1.46946 5.7
      vertex 1.67283 1.85786 5.7
      vertex 2.02254 1.46946 -1.9
    endloop
  endfacet
  facet normal -0.743146 -0.66913 0
    outer loop
      vertex 2.02254 1.46946 -1.9
      vertex 1.67283 1.85786 5.7
      vertex 1.67283 1.85786 -1.9
    endloop
  endfacet
  facet normal -0.866024 -0.500002 0
    outer loop
      vertex 2.28386 1.01684 5.7
      vertex 2.02254 1.46946 5.7
      vertex 2.28386 1.01684 -1.9
    endloop
  endfacet
  facet normal -0.866024 -0.500002 0
    outer loop
      vertex 2.28386 1.01684 -1.9
      vertex 2.02254 1.46946 5.7
      vertex 2.02254 1.46946 -1.9
    endloop
  endfacet
  facet normal -0.951057 -0.309016 0
    outer loop
      vertex 2.44537 0.519779 5.7
      vertex 2.28386 1.01684 5.7
      vertex 2.44537 0.519779 -1.9
    endloop
  endfacet
  facet normal -0.951057 -0.309016 0
    outer loop
      vertex 2.44537 0.519779 -1.9
      vertex 2.28386 1.01684 5.7
      vertex 2.28386 1.01684 -1.9
    endloop
  endfacet
  facet normal -0.994522 -0.104529 0
    outer loop
      vertex 2.5 0 5.7
      vertex 2.44537 0.519779 5.7
      vertex 2.5 0 -1.9
    endloop
  endfacet
  facet normal -0.994522 -0.104529 0
    outer loop
      vertex 2.5 0 -1.9
      vertex 2.44537 0.519779 5.7
      vertex 2.44537 0.519779 -1.9
    endloop
  endfacet
  facet normal -0.994522 0.104529 0
    outer loop
      vertex 2.5 0 5.7
      vertex 2.5 0 -1.9
      vertex 2.44537 -0.519779 5.7
    endloop
  endfacet
  facet normal -0.994522 0.104529 0
    outer loop
      vertex 2.44537 -0.519779 5.7
      vertex 2.5 0 -1.9
      vertex 2.44537 -0.519779 -1.9
    endloop
  endfacet
  facet normal -0.951057 0.309016 0
    outer loop
      vertex 2.44537 -0.519779 5.7
      vertex 2.44537 -0.519779 -1.9
      vertex 2.28386 -1.01684 5.7
    endloop
  endfacet
  facet normal -0.951057 0.309016 0
    outer loop
      vertex 2.28386 -1.01684 5.7
      vertex 2.44537 -0.519779 -1.9
      vertex 2.28386 -1.01684 -1.9
    endloop
  endfacet
  facet normal -0.866024 0.500002 0
    outer loop
      vertex 2.28386 -1.01684 5.7
      vertex 2.28386 -1.01684 -1.9
      vertex 2.02254 -1.46946 5.7
    endloop
  endfacet
  facet normal -0.866024 0.500002 0
    outer loop
      vertex 2.02254 -1.46946 5.7
      vertex 2.28386 -1.01684 -1.9
      vertex 2.02254 -1.46946 -1.9
    endloop
  endfacet
  facet normal -0.743146 0.66913 0
    outer loop
      vertex 2.02254 -1.46946 5.7
      vertex 2.02254 -1.46946 -1.9
      vertex 1.67283 -1.85786 5.7
    endloop
  endfacet
  facet normal -0.743146 0.66913 0
    outer loop
      vertex 1.67283 -1.85786 5.7
      vertex 2.02254 -1.46946 -1.9
      vertex 1.67283 -1.85786 -1.9
    endloop
  endfacet
  facet normal -0.587786 0.809017 0
    outer loop
      vertex 1.67283 -1.85786 5.7
      vertex 1.67283 -1.85786 -1.9
      vertex 1.25 -2.16506 5.7
    endloop
  endfacet
  facet normal -0.587786 0.809017 0
    outer loop
      vertex 1.25 -2.16506 5.7
      vertex 1.67283 -1.85786 -1.9
      vertex 1.25 -2.16506 -1.9
    endloop
  endfacet
  facet normal -0.406735 0.913546 0
    outer loop
      vertex 1.25 -2.16506 5.7
      vertex 1.25 -2.16506 -1.9
      vertex 0.772542 -2.37764 5.7
    endloop
  endfacet
  facet normal -0.406735 0.913546 0
    outer loop
      vertex 0.772542 -2.37764 5.7
      vertex 1.25 -2.16506 -1.9
      vertex 0.772542 -2.37764 -1.9
    endloop
  endfacet
  facet normal -0.207913 0.978147 0
    outer loop
      vertex 0.772542 -2.37764 5.7
      vertex 0.772542 -2.37764 -1.9
      vertex 0.261321 -2.4863 5.7
    endloop
  endfacet
  facet normal -0.207913 0.978147 0
    outer loop
      vertex 0.261321 -2.4863 5.7
      vertex 0.772542 -2.37764 -1.9
      vertex 0.261321 -2.4863 -1.9
    endloop
  endfacet
  facet normal 0 1 0
    outer loop
      vertex 0.261321 -2.4863 5.7
      vertex 0.261321 -2.4863 -1.9
      vertex -0.261321 -2.4863 5.7
    endloop
  endfacet
  facet normal 0 1 -0
    outer loop
      vertex -0.261321 -2.4863 5.7
      vertex 0.261321 -2.4863 -1.9
      vertex -0.261321 -2.4863 -1.9
    endloop
  endfacet
  facet normal 0.207913 0.978147 -0
    outer loop
      vertex -0.261321 -2.4863 5.7
      vertex -0.261321 -2.4863 -1.9
      vertex -0.772542 -2.37764 5.7
    endloop
  endfacet
  facet normal 0.207913 0.978147 -0
    outer loop
      vertex -0.772542 -2.37764 5.7
      vertex -0.261321 -2.4863 -1.9
      vertex -0.772542 -2.37764 -1.9
    endloop
  endfacet
  facet normal 0.406735 0.913546 -0
    outer loop
      vertex -0.772542 -2.37764 5.7
      vertex -0.772542 -2.37764 -1.9
      vertex -1.25 -2.16506 5.7
    endloop
  endfacet
  facet normal 0.406735 0.913546 -0
    outer loop
      vertex -1.25 -2.16506 5.7
      vertex -0.772542 -2.37764 -1.9
      vertex -1.25 -2.16506 -1.9
    endloop
  endfacet
  facet normal 0.587786 0.809017 -0
    outer loop
      vertex -1.25 -2.16506 5.7
      vertex -1.25 -2.16506 -1.9
      vertex -1.67283 -1.85786 5.7
    endloop
  endfacet
  facet normal 0.587786 0.809017 -0
    outer loop
      vertex -1.67283 -1.85786 5.7
      vertex -1.25 -2.16506 -1.9
      vertex -1.67283 -1.85786 -1.9
    endloop
  endfacet
  facet normal 0.743146 0.66913 0
    outer loop
      vertex -2.02254 -1.46946 5.7
      vertex -1.67283 -1.85786 5.7
      vertex -1.67283 -1.85786 -1.9
    endloop
  endfacet
  facet normal 0.743146 0.66913 0
    outer loop
      vertex -2.02254 -1.46946 -1.9
      vertex -2.02254 -1.46946 5.7
      vertex -1.67283 -1.85786 -1.9
    endloop
  endfacet
  facet normal 0.866024 0.500002 0
    outer loop
      vertex -2.28386 -1.01684 5.7
      vertex -2.02254 -1.46946 5.7
      vertex -2.02254 -1.46946 -1.9
    endloop
  endfacet
  facet normal 0.866024 0.500002 0
    outer loop
      vertex -2.28386 -1.01684 -1.9
      vertex -2.28386 -1.01684 5.7
      vertex -2.02254 -1.46946 -1.9
    endloop
  endfacet
  facet normal 0.951057 0.309016 0
    outer loop
      vertex -2.44537 -0.519779 5.7
      vertex -2.28386 -1.01684 5.7
      vertex -2.28386 -1.01684 -1.9
    endloop
  endfacet
  facet normal 0.951057 0.309016 0
    outer loop
      vertex -2.44537 -0.519779 -1.9
      vertex -2.44537 -0.519779 5.7
      vertex -2.28386 -1.01684 -1.9
    endloop
  endfacet
  facet normal -1 -0 -0
    outer loop
      vertex -10 -10 -1.9
      vertex -10 -10 1.9
      vertex -10 -2.85 -1.9
    endloop
  endfacet
  facet normal -1 0 -0
    outer loop
      vertex -10 -2.85 1.6
      vertex -10 -10 1.9
      vertex -10 -1.50354 1.9
    endloop
  endfacet
  facet normal -1 0 -0
    outer loop
      vertex -10 2.85 1.6
      vertex -10 0.01 1.9
      vertex -10 10 1.9
    endloop
  endfacet
  facet normal -1 -0 0
    outer loop
      vertex -10 2.85 -1.9
      vertex -10 10 1.9
      vertex -10 10 -1.9
    endloop
  endfacet
  facet normal -1 0 0
    outer loop
      vertex -10 -2.85 1.6
      vertex -10 -1.5 1.89
      vertex -10 0 1.89
    endloop
  endfacet
  facet normal -1 0 0
    outer loop
      vertex -10 -2.85 1.6
      vertex -10 -1.50354 1.9
      vertex -10 -1.5 1.89
    endloop
  endfacet
  facet normal -1 0 0
    outer loop
      vertex -10 -2.85 -1.9
      vertex -10 -10 1.9
      vertex -10 -2.85 1.6
    endloop
  endfacet
  facet normal -1 -0 0
    outer loop
      vertex -10 2.85 1.6
      vertex -10 10 1.9
      vertex -10 2.85 -1.9
    endloop
  endfacet
  facet normal -1 -0 0
    outer loop
      vertex -10 0 1.89
      vertex -10 0.01 1.9
      vertex -10 2.85 1.6
    endloop
  endfacet
  facet normal -1 -0 0
    outer loop
      vertex -10 -2.85 1.6
      vertex -10 0 1.89
      vertex -10 2.85 1.6
    endloop
  endfacet
  facet normal -0 -0 -1
    outer loop
      vertex -10 -10 -1.9
      vertex -10 -2.85 -1.9
      vertex 10 -10 -1.9
    endloop
  endfacet
  facet normal 0 0 -1
    outer loop
      vertex 10 -10 -1.9
      vertex -10 -2.85 -1.9
      vertex 10 -2.85 -1.9
    endloop
  endfacet
  facet normal 1 0 -0
    outer loop
      vertex 10 -10 1.9
      vertex 10 -10 -1.9
      vertex 10 -2.85 -1.9
    endloop
  endfacet
  facet normal 1 -0 0
    outer loop
      vertex 10 2.85 1.6
      vertex 10 -10 1.9
      vertex 10 -2.85 1.6
    endloop
  endfacet
  facet normal 1 -0 0
    outer loop
      vertex 10 -2.85 1.6
      vertex 10 -10 1.9
      vertex 10 -2.85 -1.9
    endloop
  endfacet
  facet normal 1 -0 -0
    outer loop
      vertex 10 -4.44089e-15 1.89
      vertex 10 -10 1.9
      vertex 10 2.85 1.6
    endloop
  endfacet
  facet normal 1 -0 0
    outer loop
      vertex 10 10 -1.9
      vertex 10 2.85 1.6
      vertex 10 2.85 -1.9
    endloop
  endfacet
  facet normal 1 0 0
    outer loop
      vertex 10 10 1.9
      vertex 10 2.85 1.6
      vertex 10 10 -1.9
    endloop
  endfacet
  facet normal 1 0 0
    outer loop
      vertex 10 10 1.9
      vertex 10 1.50354 1.9
      vertex 10 2.85 1.6
    endloop
  endfacet
  facet normal 1 0 -0
    outer loop
      vertex 10 1.50354 1.9
      vertex 10 1.5 1.89
      vertex 10 2.85 1.6
    endloop
  endfacet
  facet normal 1 -0 -0
    outer loop
      vertex 10 1.5 1.89
      vertex 10 -4.44089e-15 1.89
      vertex 10 2.85 1.6
    endloop
  endfacet
  facet normal 1 0 0
    outer loop
      vertex 10 -4.44089e-15 1.89
      vertex 10 0.01 1.9
      vertex 10 -10 1.9
    endloop
  endfacet
  facet normal 0 -0 1
    outer loop
      vertex 10 2.85 1.6
      vertex 10 -2.85 1.6
      vertex 14.5 -2.85 1.6
    endloop
  endfacet
  facet normal 0 0 1
    outer loop
      vertex 16.5 -3.85 1.6
      vertex 10 2.85 1.6
      vertex 14.5 -2.85 1.6
    endloop
  endfacet
  facet normal 0 0 1
    outer loop
      vertex 14.5 -3.85 1.6
      vertex 16.5 -3.85 1.6
      vertex 14.5 -2.85 1.6
    endloop
  endfacet
  facet normal 0 0 1
    outer loop
      vertex 16.5 -3.85 1.6
      vertex 14.5 2.85 1.6
      vertex 10 2.85 1.6
    endloop
  endfacet
  facet normal 0 0 1
    outer loop
      vertex 16.5 -3.85 1.6
      vertex 16.5 3.85 1.6
      vertex 14.5 2.85 1.6
    endloop
  endfacet
  facet normal 0 -0 1
    outer loop
      vertex 14.5 3.85 1.6
      vertex 14.5 2.85 1.6
      vertex 16.5 3.85 1.6
    endloop
  endfacet
  facet normal -0 -0 -1
    outer loop
      vertex -10 2.85 -1.9
      vertex -10 10 -1.9
      vertex 10 2.85 -1.9
    endloop
  endfacet
  facet normal 0 0 -1
    outer loop
      vertex 10 2.85 -1.9
      vertex -10 10 -1.9
      vertex 10 10 -1.9
    endloop
  endfacet
  facet normal -2.22045e-16 1.38059e-15 1
    outer loop
      vertex 0.261321 -2.4863 5.7
      vertex -10 -2.85 5.7
      vertex 10 -2.85 5.7
    endloop
  endfacet
  facet normal -2.32716e-16 -1.09484e-15 1
    outer loop
      vertex 0.261321 2.4863 5.7
      vertex 0.772542 2.37764 5.7
      vertex 10 2.85 5.7
    endloop
  endfacet
  facet normal -1.55144e-16 -7.29892e-16 1
    outer loop
      vertex -0.261321 -2.4863 5.7
      vertex -0.772542 -2.37764 5.7
      vertex -10 -2.85 5.7
    endloop
  endfacet
  facet normal -2.35135e-16 0 1
    outer loop
      vertex -10 2.85 5.7
      vertex -10 -2.85 5.7
      vertex -2.44537 -0.519779 5.7
    endloop
  endfacet
  facet normal -1.83267e-16 -2.52245e-16 1
    outer loop
      vertex -1.25 -2.16506 5.7
      vertex -1.67283 -1.85786 5.7
      vertex -10 -2.85 5.7
    endloop
  endfacet
  facet normal -2.46701e-16 -2.59293e-17 1
    outer loop
      vertex -10 2.85 5.7
      vertex -2.44537 -0.519779 5.7
      vertex -2.5 0 5.7
    endloop
  endfacet
  facet normal -1.83267e-16 -2.52245e-16 1
    outer loop
      vertex 1.25 2.16506 5.7
      vertex 1.67283 1.85786 5.7
      vertex 10 2.85 5.7
    endloop
  endfacet
  facet normal -2.27751e-16 2.39376e-17 1
    outer loop
      vertex -10 2.85 5.7
      vertex -2.5 0 5.7
      vertex -2.44537 0.519779 5.7
    endloop
  endfacet
  facet normal -2.13716e-16 6.94403e-17 1
    outer loop
      vertex 2.44537 -0.519779 5.7
      vertex 2.28386 -1.01684 5.7
      vertex 10 -2.85 5.7
    endloop
  endfacet
  facet normal -2.02445e-16 1.16882e-16 1
    outer loop
      vertex -2.02254 1.46946 5.7
      vertex -10 2.85 5.7
      vertex -2.28386 1.01684 5.7
    endloop
  endfacet
  facet normal -1.92653e-16 1.73465e-16 1
    outer loop
      vertex -1.67283 1.85786 5.7
      vertex -10 2.85 5.7
      vertex -2.02254 1.46946 5.7
    endloop
  endfacet
  facet normal -1.92653e-16 -1.73465e-16 1
    outer loop
      vertex 1.67283 1.85786 5.7
      vertex 2.02254 1.46946 5.7
      vertex 10 2.85 5.7
    endloop
  endfacet
  facet normal -1.83267e-16 2.52245e-16 1
    outer loop
      vertex -1.25 2.16506 5.7
      vertex -10 2.85 5.7
      vertex -1.67283 1.85786 5.7
    endloop
  endfacet
  facet normal -1.72656e-16 3.87794e-16 1
    outer loop
      vertex -0.772542 2.37764 5.7
      vertex -10 2.85 5.7
      vertex -1.25 2.16506 5.7
    endloop
  endfacet
  facet normal -1.55144e-16 7.29892e-16 1
    outer loop
      vertex -0.261321 2.4863 5.7
      vertex -10 2.85 5.7
      vertex -0.772542 2.37764 5.7
    endloop
  endfacet
  facet normal -2.22045e-16 -1.06151e-15 1
    outer loop
      vertex 10 2.85 5.7
      vertex -10 2.85 5.7
      vertex -0.261321 2.4863 5.7
    endloop
  endfacet
  facet normal -4.50811e-16 3.16561e-15 1
    outer loop
      vertex 0.772542 2.37764 5.7
      vertex 1.25 2.16506 5.7
      vertex 10 2.85 5.7
    endloop
  endfacet
  facet normal -8.3348e-32 -7.32629e-15 1
    outer loop
      vertex 10 2.85 5.7
      vertex -0.261321 2.4863 5.7
      vertex 0.261321 2.4863 5.7
    endloop
  endfacet
  facet normal -2.02445e-16 1.16882e-16 1
    outer loop
      vertex 2.28386 -1.01684 5.7
      vertex 2.02254 -1.46946 5.7
      vertex 10 -2.85 5.7
    endloop
  endfacet
  facet normal -2.27751e-16 2.39376e-17 1
    outer loop
      vertex 2.5 0 5.7
      vertex 2.44537 -0.519779 5.7
      vertex 10 -2.85 5.7
    endloop
  endfacet
  facet normal -2.22672e-16 0 1
    outer loop
      vertex 10 2.85 5.7
      vertex 2.02254 1.46946 5.7
      vertex 10 -2.85 5.7
    endloop
  endfacet
  facet normal -3.2394e-16 -1.87027e-16 1
    outer loop
      vertex 2.02254 1.46946 5.7
      vertex 2.28386 1.01684 5.7
      vertex 10 -2.85 5.7
    endloop
  endfacet
  facet normal -2.74989e-16 -8.93492e-17 1
    outer loop
      vertex 2.28386 1.01684 5.7
      vertex 2.44537 0.519779 5.7
      vertex 10 -2.85 5.7
    endloop
  endfacet
  facet normal -2.46701e-16 -2.59293e-17 1
    outer loop
      vertex 2.44537 0.519779 5.7
      vertex 2.5 0 5.7
      vertex 10 -2.85 5.7
    endloop
  endfacet
  facet normal -1.92653e-16 1.73465e-16 1
    outer loop
      vertex 2.02254 -1.46946 5.7
      vertex 1.67283 -1.85786 5.7
      vertex 10 -2.85 5.7
    endloop
  endfacet
  facet normal -1.83267e-16 2.52245e-16 1
    outer loop
      vertex 1.67283 -1.85786 5.7
      vertex 1.25 -2.16506 5.7
      vertex 10 -2.85 5.7
    endloop
  endfacet
  facet normal -4.50811e-16 -3.16561e-15 1
    outer loop
      vertex 1.25 -2.16506 5.7
      vertex 0.772542 -2.37764 5.7
      vertex 10 -2.85 5.7
    endloop
  endfacet
  facet normal -2.32716e-16 1.09484e-15 1
    outer loop
      vertex 0.772542 -2.37764 5.7
      vertex 0.261321 -2.4863 5.7
      vertex 10 -2.85 5.7
    endloop
  endfacet
  facet normal 0 -4.88419e-15 1
    outer loop
      vertex -0.261321 -2.4863 5.7
      vertex -10 -2.85 5.7
      vertex 0.261321 -2.4863 5.7
    endloop
  endfacet
  facet normal -1.72656e-16 -3.87794e-16 1
    outer loop
      vertex -0.772542 -2.37764 5.7
      vertex -1.25 -2.16506 5.7
      vertex -10 -2.85 5.7
    endloop
  endfacet
  facet normal -1.92653e-16 -1.73465e-16 1
    outer loop
      vertex -2.02254 -1.46946 5.7
      vertex -10 -2.85 5.7
      vertex -1.67283 -1.85786 5.7
    endloop
  endfacet
  facet normal -2.02445e-16 -1.16882e-16 1
    outer loop
      vertex -2.28386 -1.01684 5.7
      vertex -10 -2.85 5.7
      vertex -2.02254 -1.46946 5.7
    endloop
  endfacet
  facet normal -2.13716e-16 -6.94403e-17 1
    outer loop
      vertex -2.44537 -0.519779 5.7
      vertex -10 -2.85 5.7
      vertex -2.28386 -1.01684 5.7
    endloop
  endfacet
  facet normal -2.13716e-16 6.94403e-17 1
    outer loop
      vertex -2.44537 0.519779 5.7
      vertex -2.28386 1.01684 5.7
      vertex -10 2.85 5.7
    endloop
  endfacet
  facet normal 0 1 0
    outer loop
      vertex -10 10 -1.9
      vertex -10 10 1.9
      vertex 10 10 -1.9
    endloop
  endfacet
  facet normal 0 1 0
    outer loop
      vertex 10 10 -1.9
      vertex -10 10 1.9
      vertex 10 10 1.9
    endloop
  endfacet
  facet normal 0 0 1
    outer loop
      vertex -4.56773 2.03368 1.9
      vertex -4.04508 2.93893 1.9
      vertex -10 10 1.9
    endloop
  endfacet
  facet normal 0 -0 1.77813e-16
    outer loop
      vertex -10 10 1.9
      vertex -10 0.01 1.9
      vertex -10 1.50354 1.9
    endloop
  endfacet
  facet normal 0 0 1
    outer loop
      vertex 4.04508 2.93893 1.9
      vertex 10 1.50354 1.9
      vertex 3.34565 3.71572 1.9
    endloop
  endfacet
  facet normal 0 0 1
    outer loop
      vertex -4.73998 1.50354 1.9
      vertex -10 10 1.9
      vertex -10 1.50354 1.9
    endloop
  endfacet
  facet normal 0 0 1
    outer loop
      vertex -4.73998 1.50354 1.9
      vertex -4.56773 2.03368 1.9
      vertex -10 10 1.9
    endloop
  endfacet
  facet normal 0 0 1
    outer loop
      vertex -4.04508 2.93893 1.9
      vertex -3.34565 3.71572 1.9
      vertex -10 10 1.9
    endloop
  endfacet
  facet normal 0 0 1
    outer loop
      vertex -3.34565 3.71572 1.9
      vertex -2.5 4.33013 1.9
      vertex -10 10 1.9
    endloop
  endfacet
  facet normal 0 0 1
    outer loop
      vertex -2.5 4.33013 1.9
      vertex -1.54508 4.75528 1.9
      vertex -10 10 1.9
    endloop
  endfacet
  facet normal 0 0 1
    outer loop
      vertex -1.54508 4.75528 1.9
      vertex -0.522642 4.97261 1.9
      vertex -10 10 1.9
    endloop
  endfacet
  facet normal 0 0 1
    outer loop
      vertex -0.522642 4.97261 1.9
      vertex 0.522642 4.97261 1.9
      vertex -10 10 1.9
    endloop
  endfacet
  facet normal 0 0 1
    outer loop
      vertex 0.522642 4.97261 1.9
      vertex 1.54508 4.75528 1.9
      vertex -10 10 1.9
    endloop
  endfacet
  facet normal 0 0 1
    outer loop
      vertex 1.54508 4.75528 1.9
      vertex 2.5 4.33013 1.9
      vertex -10 10 1.9
    endloop
  endfacet
  facet normal 0 0 1
    outer loop
      vertex 2.5 4.33013 1.9
      vertex 10 1.50354 1.9
      vertex -10 10 1.9
    endloop
  endfacet
  facet normal 0 0 1
    outer loop
      vertex 3.34565 3.71572 1.9
      vertex 10 1.50354 1.9
      vertex 2.5 4.33013 1.9
    endloop
  endfacet
  facet normal 0 0 1
    outer loop
      vertex 4.56773 2.03368 1.9
      vertex 10 1.50354 1.9
      vertex 4.04508 2.93893 1.9
    endloop
  endfacet
  facet normal 0 0 1
    outer loop
      vertex 4.73998 1.50354 1.9
      vertex 10 1.50354 1.9
      vertex 4.56773 2.03368 1.9
    endloop
  endfacet
  facet normal 0 0 1
    outer loop
      vertex 10 1.50354 1.9
      vertex 10 10 1.9
      vertex -10 10 1.9
    endloop
  endfacet
  facet normal -1 0 0
    outer loop
      vertex -10 -2.85 5.7
      vertex -10 2.85 5.7
      vertex -10 -1.5 1.89
    endloop
  endfacet
  facet normal -1 1.18936e-15 -8.88888e-16
    outer loop
      vertex -10 0.01 1.9
      vertex -10 2.85 5.7
      vertex -10 1.50354 1.9
    endloop
  endfacet
  facet normal -1 0 0
    outer loop
      vertex -10 -1.5 1.89
      vertex -10 2.85 5.7
      vertex -10 0.01 1.9
    endloop
  endfacet
  facet normal -1 0 -0
    outer loop
      vertex -10 0 1.89
      vertex -10 -1.5 1.89
      vertex -10 0.01 1.9
    endloop
  endfacet
  facet normal 4.96565e-17 -0 -0
    outer loop
      vertex -10 -1.50354 1.9
      vertex -10 -2.85 5.7
      vertex -10 -1.5 1.89
    endloop
  endfacet
  facet normal -1.56346e-16 -0.942579 -0.333985
    outer loop
      vertex -4.56773 -2.03368 3.39617
      vertex -10 -2.85 5.7
      vertex -10 -1.50354 1.9
    endloop
  endfacet
  facet normal -1.41809e-16 -0.942579 -0.333985
    outer loop
      vertex -4.09643 -2.85 5.7
      vertex -10 -2.85 5.7
      vertex -4.56773 -2.03368 3.39617
    endloop
  endfacet
  facet normal -9.86076e-33 -6.55428e-17 -2.11339e-17
    outer loop
      vertex 10 -2.85 5.7
      vertex -10 -2.85 5.7
      vertex -4.09643 -2.85 5.7
    endloop
  endfacet
  facet normal -1.98496e-32 -1.831e-16 -8.34723e-17
    outer loop
      vertex 10 -2.85 5.7
      vertex -4.09643 -2.85 5.7
      vertex 4.09643 -2.85 5.7
    endloop
  endfacet
  facet normal -8.2094e-17 -0.942579 -0.333985
    outer loop
      vertex 4.73998 -1.50354 1.9
      vertex 10 -2.85 5.7
      vertex 4.56773 -2.03368 3.39617
    endloop
  endfacet
  facet normal -1.19369e-16 -0.942579 -0.333985
    outer loop
      vertex 10 -1.50354 1.9
      vertex 10 -2.85 5.7
      vertex 4.73998 -1.50354 1.9
    endloop
  endfacet
  facet normal -1.59159e-16 -0.942579 -0.333985
    outer loop
      vertex -4.73998 -1.50354 1.9
      vertex -4.56773 -2.03368 3.39617
      vertex -10 -1.50354 1.9
    endloop
  endfacet
  facet normal -1.7419e-16 -0.942579 -0.333985
    outer loop
      vertex 4.09643 -2.85 5.7
      vertex 4.56773 -2.03368 3.39617
      vertex 10 -2.85 5.7
    endloop
  endfacet
  facet normal 0 -0 1
    outer loop
      vertex -10 -1.50354 1.9
      vertex -10 -10 1.9
      vertex 10 -10 1.9
    endloop
  endfacet
  facet normal -0 -0 1
    outer loop
      vertex 10 -1.50354 1.9
      vertex 4.73998 -1.50354 1.9
      vertex 10 -10 1.9
    endloop
  endfacet
  facet normal 0 0 1.77458e-16
    outer loop
      vertex 10 0.01 1.9
      vertex 10 -1.50354 1.9
      vertex 10 -10 1.9
    endloop
  endfacet
  facet normal -0 -0 1
    outer loop
      vertex -1.54508 -4.75528 1.9
      vertex -10 -1.50354 1.9
      vertex 10 -10 1.9
    endloop
  endfacet
  facet normal 0 -0 1
    outer loop
      vertex 4.73998 -1.50354 1.9
      vertex 4.56773 -2.03368 1.9
      vertex 10 -10 1.9
    endloop
  endfacet
  facet normal 0 -0 1
    outer loop
      vertex 4.56773 -2.03368 1.9
      vertex 4.04508 -2.93893 1.9
      vertex 10 -10 1.9
    endloop
  endfacet
  facet normal 0 -0 1
    outer loop
      vertex 4.04508 -2.93893 1.9
      vertex 3.34565 -3.71572 1.9
      vertex 10 -10 1.9
    endloop
  endfacet
  facet normal 0 0 1
    outer loop
      vertex -4.56773 -2.03368 1.9
      vertex -4.73998 -1.50354 1.9
      vertex -10 -1.50354 1.9
    endloop
  endfacet
  facet normal 0 -0 1
    outer loop
      vertex 3.34565 -3.71572 1.9
      vertex 2.5 -4.33013 1.9
      vertex 10 -10 1.9
    endloop
  endfacet
  facet normal 0 -0 1
    outer loop
      vertex 2.5 -4.33013 1.9
      vertex 1.54508 -4.75528 1.9
      vertex 10 -10 1.9
    endloop
  endfacet
  facet normal 0 -0 1
    outer loop
      vertex 1.54508 -4.75528 1.9
      vertex 0.522642 -4.97261 1.9
      vertex 10 -10 1.9
    endloop
  endfacet
  facet normal 0 -0 1
    outer loop
      vertex 0.522642 -4.97261 1.9
      vertex -0.522642 -4.97261 1.9
      vertex 10 -10 1.9
    endloop
  endfacet
  facet normal -0 -0 1
    outer loop
      vertex -0.522642 -4.97261 1.9
      vertex -1.54508 -4.75528 1.9
      vertex 10 -10 1.9
    endloop
  endfacet
  facet normal -0 -0 1
    outer loop
      vertex -2.5 -4.33013 1.9
      vertex -10 -1.50354 1.9
      vertex -1.54508 -4.75528 1.9
    endloop
  endfacet
  facet normal 0 0 1
    outer loop
      vertex -2.5 -4.33013 1.9
      vertex -3.34565 -3.71572 1.9
      vertex -10 -1.50354 1.9
    endloop
  endfacet
  facet normal 0 0 1
    outer loop
      vertex -3.34565 -3.71572 1.9
      vertex -4.04508 -2.93893 1.9
      vertex -10 -1.50354 1.9
    endloop
  endfacet
  facet normal 0 0 1
    outer loop
      vertex -4.04508 -2.93893 1.9
      vertex -4.56773 -2.03368 1.9
      vertex -10 -1.50354 1.9
    endloop
  endfacet
  facet normal 0 -1 0
    outer loop
      vertex -10 -10 1.9
      vertex -10 -10 -1.9
      vertex 10 -10 -1.9
    endloop
  endfacet
  facet normal 0 -1 0
    outer loop
      vertex 10 -10 1.9
      vertex -10 -10 1.9
      vertex 10 -10 -1.9
    endloop
  endfacet
  facet normal 1 0 0
    outer loop
      vertex 10 2.85 5.7
      vertex 10 -2.85 5.7
      vertex 10 -1.50354 1.9
    endloop
  endfacet
  facet normal 1 3.12167e-18 4.65129e-16
    outer loop
      vertex 10 1.5 1.89
      vertex 10 2.85 5.7
      vertex 10 0.01 1.9
    endloop
  endfacet
  facet normal 1 -1.17364e-15 1.3446e-15
    outer loop
      vertex 10 0.01 1.9
      vertex 10 2.85 5.7
      vertex 10 -1.50354 1.9
    endloop
  endfacet
  facet normal 1 -0 0
    outer loop
      vertex 10 1.5 1.89
      vertex 10 0.01 1.9
      vertex 10 -4.44089e-15 1.89
    endloop
  endfacet
  facet normal 2.77205e-16 0.942579 -0.333985
    outer loop
      vertex -4.56773 2.03368 3.39617
      vertex -10 2.85 5.7
      vertex -4.09643 2.85 5.7
    endloop
  endfacet
  facet normal -4.45607e-17 -1.23016e-18 4.35885e-19
    outer loop
      vertex 10 1.50354 1.9
      vertex 10 2.85 5.7
      vertex 10 1.5 1.89
    endloop
  endfacet
  facet normal 3.27815e-16 0.942579 -0.333985
    outer loop
      vertex 4.56773 2.03368 3.39617
      vertex 10 2.85 5.7
      vertex 4.73998 1.50354 1.9
    endloop
  endfacet
  facet normal 2.51236e-16 0.942579 -0.333985
    outer loop
      vertex 4.09643 2.85 5.7
      vertex 10 2.85 5.7
      vertex 4.56773 2.03368 3.39617
    endloop
  endfacet
  facet normal 2.51356e-16 0.942579 -0.333985
    outer loop
      vertex 10 2.85 5.7
      vertex 10 1.50354 1.9
      vertex 4.73998 1.50354 1.9
    endloop
  endfacet
  facet normal 5.95489e-32 1.831e-16 -7.91623e-17
    outer loop
      vertex -4.09643 2.85 5.7
      vertex 10 2.85 5.7
      vertex 4.09643 2.85 5.7
    endloop
  endfacet
  facet normal 1.97215e-32 6.55428e-17 -2.3275e-17
    outer loop
      vertex -10 2.85 5.7
      vertex 10 2.85 5.7
      vertex -4.09643 2.85 5.7
    endloop
  endfacet
  facet normal 2.78528e-16 0.942579 -0.333985
    outer loop
      vertex -4.73998 1.50354 1.9
      vertex -10 1.50354 1.9
      vertex -4.56773 2.03368 3.39617
    endloop
  endfacet
  facet normal 2.39654e-16 0.942579 -0.333985
    outer loop
      vertex -10 2.85 5.7
      vertex -4.56773 2.03368 3.39617
      vertex -10 1.50354 1.9
    endloop
  endfacet
  facet normal 0.951056 0.309017 0
    outer loop
      vertex 4.73998 1.50354 1.9
      vertex 4.56773 2.03368 1.9
      vertex 4.56773 2.03368 3.39617
    endloop
  endfacet
  facet normal 0.866026 0.5 0
    outer loop
      vertex 4.56773 2.03368 1.9
      vertex 4.04508 2.93893 1.9
      vertex 4.04508 2.93893 5.7
    endloop
  endfacet
  facet normal 0.866026 0.5 -0
    outer loop
      vertex 4.56773 2.03368 3.39617
      vertex 4.56773 2.03368 1.9
      vertex 4.09643 2.85 5.7
    endloop
  endfacet
  facet normal 0.866026 0.5 1.34745e-15
    outer loop
      vertex 4.09643 2.85 5.7
      vertex 4.56773 2.03368 1.9
      vertex 4.04508 2.93893 5.7
    endloop
  endfacet
  facet normal 0.743145 0.669131 0
    outer loop
      vertex 4.04508 2.93893 1.9
      vertex 3.34565 3.71572 1.9
      vertex 3.34565 3.71572 5.7
    endloop
  endfacet
  facet normal 0.743145 0.669131 -0
    outer loop
      vertex 4.04508 2.93893 5.7
      vertex 4.04508 2.93893 1.9
      vertex 3.34565 3.71572 5.7
    endloop
  endfacet
  facet normal 0.587785 0.809017 0
    outer loop
      vertex 2.5 4.33013 1.9
      vertex 2.5 4.33013 5.7
      vertex 3.34565 3.71572 1.9
    endloop
  endfacet
  facet normal 0.587785 0.809017 0
    outer loop
      vertex 3.34565 3.71572 1.9
      vertex 2.5 4.33013 5.7
      vertex 3.34565 3.71572 5.7
    endloop
  endfacet
  facet normal 0.406737 0.913545 0
    outer loop
      vertex 1.54508 4.75528 1.9
      vertex 1.54508 4.75528 5.7
      vertex 2.5 4.33013 1.9
    endloop
  endfacet
  facet normal 0.406737 0.913545 0
    outer loop
      vertex 2.5 4.33013 1.9
      vertex 1.54508 4.75528 5.7
      vertex 2.5 4.33013 5.7
    endloop
  endfacet
  facet normal 0.207911 0.978148 0
    outer loop
      vertex 0.522642 4.97261 1.9
      vertex 0.522642 4.97261 5.7
      vertex 1.54508 4.75528 1.9
    endloop
  endfacet
  facet normal 0.207911 0.978148 0
    outer loop
      vertex 1.54508 4.75528 1.9
      vertex 0.522642 4.97261 5.7
      vertex 1.54508 4.75528 5.7
    endloop
  endfacet
  facet normal 0 1 0
    outer loop
      vertex -0.522642 4.97261 1.9
      vertex -0.522642 4.97261 5.7
      vertex 0.522642 4.97261 1.9
    endloop
  endfacet
  facet normal 0 1 0
    outer loop
      vertex 0.522642 4.97261 1.9
      vertex -0.522642 4.97261 5.7
      vertex 0.522642 4.97261 5.7
    endloop
  endfacet
  facet normal -0.207911 0.978148 0
    outer loop
      vertex -1.54508 4.75528 1.9
      vertex -1.54508 4.75528 5.7
      vertex -0.522642 4.97261 1.9
    endloop
  endfacet
  facet normal -0.207911 0.978148 0
    outer loop
      vertex -0.522642 4.97261 1.9
      vertex -1.54508 4.75528 5.7
      vertex -0.522642 4.97261 5.7
    endloop
  endfacet
  facet normal -0.406737 0.913545 0
    outer loop
      vertex -2.5 4.33013 1.9
      vertex -2.5 4.33013 5.7
      vertex -1.54508 4.75528 1.9
    endloop
  endfacet
  facet normal -0.406737 0.913545 0
    outer loop
      vertex -1.54508 4.75528 1.9
      vertex -2.5 4.33013 5.7
      vertex -1.54508 4.75528 5.7
    endloop
  endfacet
  facet normal -0.587785 0.809017 0
    outer loop
      vertex -3.34565 3.71572 1.9
      vertex -3.34565 3.71572 5.7
      vertex -2.5 4.33013 1.9
    endloop
  endfacet
  facet normal -0.587785 0.809017 0
    outer loop
      vertex -2.5 4.33013 1.9
      vertex -3.34565 3.71572 5.7
      vertex -2.5 4.33013 5.7
    endloop
  endfacet
  facet normal -0.743145 0.669131 0
    outer loop
      vertex -4.04508 2.93893 1.9
      vertex -4.04508 2.93893 5.7
      vertex -3.34565 3.71572 1.9
    endloop
  endfacet
  facet normal -0.743145 0.669131 0
    outer loop
      vertex -3.34565 3.71572 1.9
      vertex -4.04508 2.93893 5.7
      vertex -3.34565 3.71572 5.7
    endloop
  endfacet
  facet normal -0.866026 0.5 0
    outer loop
      vertex -4.56773 2.03368 1.9
      vertex -4.56773 2.03368 3.39617
      vertex -4.04508 2.93893 1.9
    endloop
  endfacet
  facet normal -0.866026 0.5 1.93742e-16
    outer loop
      vertex -4.04508 2.93893 1.9
      vertex -4.56773 2.03368 3.39617
      vertex -4.09643 2.85 5.7
    endloop
  endfacet
  facet normal -0.866026 0.5 0
    outer loop
      vertex -4.04508 2.93893 1.9
      vertex -4.09643 2.85 5.7
      vertex -4.04508 2.93893 5.7
    endloop
  endfacet
  facet normal -0.951056 0.309017 0
    outer loop
      vertex -4.56773 2.03368 1.9
      vertex -4.73998 1.50354 1.9
      vertex -4.56773 2.03368 3.39617
    endloop
  endfacet
  facet normal 0.951056 -0.309017 0
    outer loop
      vertex 4.56773 -2.03368 3.39617
      vertex 4.56773 -2.03368 1.9
      vertex 4.73998 -1.50354 1.9
    endloop
  endfacet
  facet normal 0.866026 -0.5 0
    outer loop
      vertex 4.04508 -2.93893 5.7
      vertex 4.04508 -2.93893 1.9
      vertex 4.56773 -2.03368 1.9
    endloop
  endfacet
  facet normal 0.866026 -0.5 2.12472e-15
    outer loop
      vertex 4.09643 -2.85 5.7
      vertex 4.04508 -2.93893 5.7
      vertex 4.56773 -2.03368 3.39617
    endloop
  endfacet
  facet normal 0.866026 -0.5 0
    outer loop
      vertex 4.56773 -2.03368 3.39617
      vertex 4.04508 -2.93893 5.7
      vertex 4.56773 -2.03368 1.9
    endloop
  endfacet
  facet normal -0 0 1
    outer loop
      vertex 4.09643 -2.85 5.7
      vertex -4.09643 -2.85 5.7
      vertex -4.04508 -2.93893 5.7
    endloop
  endfacet
  facet normal 0 0 1
    outer loop
      vertex -2.5 -4.33013 5.7
      vertex 4.09643 -2.85 5.7
      vertex -3.34565 -3.71572 5.7
    endloop
  endfacet
  facet normal 0 0 1
    outer loop
      vertex -3.34565 -3.71572 5.7
      vertex 4.09643 -2.85 5.7
      vertex -4.04508 -2.93893 5.7
    endloop
  endfacet
  facet normal 0 0 1
    outer loop
      vertex -1.54508 -4.75528 5.7
      vertex 4.09643 -2.85 5.7
      vertex -2.5 -4.33013 5.7
    endloop
  endfacet
  facet normal 0 0 1
    outer loop
      vertex -0.522642 -4.97261 5.7
      vertex 4.09643 -2.85 5.7
      vertex -1.54508 -4.75528 5.7
    endloop
  endfacet
  facet normal -0 0 1
    outer loop
      vertex 0.522642 -4.97261 5.7
      vertex 4.09643 -2.85 5.7
      vertex -0.522642 -4.97261 5.7
    endloop
  endfacet
  facet normal -0 0 1
    outer loop
      vertex 1.54508 -4.75528 5.7
      vertex 4.09643 -2.85 5.7
      vertex 0.522642 -4.97261 5.7
    endloop
  endfacet
  facet normal -0 0 1
    outer loop
      vertex 2.5 -4.33013 5.7
      vertex 4.09643 -2.85 5.7
      vertex 1.54508 -4.75528 5.7
    endloop
  endfacet
  facet normal -0 0 1
    outer loop
      vertex 3.34565 -3.71572 5.7
      vertex 4.09643 -2.85 5.7
      vertex 2.5 -4.33013 5.7
    endloop
  endfacet
  facet normal -0 0 1
    outer loop
      vertex 4.04508 -2.93893 5.7
      vertex 4.09643 -2.85 5.7
      vertex 3.34565 -3.71572 5.7
    endloop
  endfacet
  facet normal -0.866026 -0.5 -0
    outer loop
      vertex -4.56773 -2.03368 1.9
      vertex -4.04508 -2.93893 1.9
      vertex -4.56773 -2.03368 3.39617
    endloop
  endfacet
  facet normal -0.866026 -0.5 0
    outer loop
      vertex -4.56773 -2.03368 3.39617
      vertex -4.04508 -2.93893 1.9
      vertex -4.04508 -2.93893 5.7
    endloop
  endfacet
  facet normal -0.866026 -0.5 7.89059e-16
    outer loop
      vertex -4.56773 -2.03368 3.39617
      vertex -4.04508 -2.93893 5.7
      vertex -4.09643 -2.85 5.7
    endloop
  endfacet
  facet normal -0.951056 -0.309017 0
    outer loop
      vertex -4.56773 -2.03368 3.39617
      vertex -4.73998 -1.50354 1.9
      vertex -4.56773 -2.03368 1.9
    endloop
  endfacet
  facet normal -0.743145 -0.669131 -0
    outer loop
      vertex -4.04508 -2.93893 1.9
      vertex -3.34565 -3.71572 1.9
      vertex -4.04508 -2.93893 5.7
    endloop
  endfacet
  facet normal -0.743145 -0.669131 0
    outer loop
      vertex -4.04508 -2.93893 5.7
      vertex -3.34565 -3.71572 1.9
      vertex -3.34565 -3.71572 5.7
    endloop
  endfacet
  facet normal -0.587785 -0.809017 0
    outer loop
      vertex -3.34565 -3.71572 5.7
      vertex -3.34565 -3.71572 1.9
      vertex -2.5 -4.33013 1.9
    endloop
  endfacet
  facet normal -0.587785 -0.809017 0
    outer loop
      vertex -2.5 -4.33013 5.7
      vertex -3.34565 -3.71572 5.7
      vertex -2.5 -4.33013 1.9
    endloop
  endfacet
  facet normal -0.406737 -0.913545 0
    outer loop
      vertex -2.5 -4.33013 5.7
      vertex -2.5 -4.33013 1.9
      vertex -1.54508 -4.75528 1.9
    endloop
  endfacet
  facet normal -0.406737 -0.913545 0
    outer loop
      vertex -1.54508 -4.75528 5.7
      vertex -2.5 -4.33013 5.7
      vertex -1.54508 -4.75528 1.9
    endloop
  endfacet
  facet normal -0.207911 -0.978148 0
    outer loop
      vertex -1.54508 -4.75528 5.7
      vertex -1.54508 -4.75528 1.9
      vertex -0.522642 -4.97261 1.9
    endloop
  endfacet
  facet normal -0.207911 -0.978148 0
    outer loop
      vertex -0.522642 -4.97261 5.7
      vertex -1.54508 -4.75528 5.7
      vertex -0.522642 -4.97261 1.9
    endloop
  endfacet
  facet normal 0 -1 0
    outer loop
      vertex -0.522642 -4.97261 5.7
      vertex -0.522642 -4.97261 1.9
      vertex 0.522642 -4.97261 1.9
    endloop
  endfacet
  facet normal 0 -1 0
    outer loop
      vertex 0.522642 -4.97261 5.7
      vertex -0.522642 -4.97261 5.7
      vertex 0.522642 -4.97261 1.9
    endloop
  endfacet
  facet normal 0.207911 -0.978148 0
    outer loop
      vertex 0.522642 -4.97261 5.7
      vertex 0.522642 -4.97261 1.9
      vertex 1.54508 -4.75528 1.9
    endloop
  endfacet
  facet normal 0.207911 -0.978148 0
    outer loop
      vertex 1.54508 -4.75528 5.7
      vertex 0.522642 -4.97261 5.7
      vertex 1.54508 -4.75528 1.9
    endloop
  endfacet
  facet normal 0.406737 -0.913545 0
    outer loop
      vertex 1.54508 -4.75528 5.7
      vertex 1.54508 -4.75528 1.9
      vertex 2.5 -4.33013 1.9
    endloop
  endfacet
  facet normal 0.406737 -0.913545 0
    outer loop
      vertex 2.5 -4.33013 5.7
      vertex 1.54508 -4.75528 5.7
      vertex 2.5 -4.33013 1.9
    endloop
  endfacet
  facet normal 0.587785 -0.809017 0
    outer loop
      vertex 2.5 -4.33013 5.7
      vertex 2.5 -4.33013 1.9
      vertex 3.34565 -3.71572 1.9
    endloop
  endfacet
  facet normal 0.587785 -0.809017 0
    outer loop
      vertex 3.34565 -3.71572 5.7
      vertex 2.5 -4.33013 5.7
      vertex 3.34565 -3.71572 1.9
    endloop
  endfacet
  facet normal 0.743145 -0.669131 0
    outer loop
      vertex 3.34565 -3.71572 5.7
      vertex 3.34565 -3.71572 1.9
      vertex 4.04508 -2.93893 1.9
    endloop
  endfacet
  facet normal 0.743145 -0.669131 0
    outer loop
      vertex 4.04508 -2.93893 5.7
      vertex 3.34565 -3.71572 5.7
      vertex 4.04508 -2.93893 1.9
    endloop
  endfacet
  facet normal 0 -0 1
    outer loop
      vertex -4.04508 2.93893 5.7
      vertex -4.09643 2.85 5.7
      vertex 4.09643 2.85 5.7
    endloop
  endfacet
  facet normal 0 -0 1
    outer loop
      vertex 3.34565 3.71572 5.7
      vertex -4.04508 2.93893 5.7
      vertex 4.04508 2.93893 5.7
    endloop
  endfacet
  facet normal 0 -0 1
    outer loop
      vertex 4.04508 2.93893 5.7
      vertex -4.04508 2.93893 5.7
      vertex 4.09643 2.85 5.7
    endloop
  endfacet
  facet normal 0 -0 1
    outer loop
      vertex 2.5 4.33013 5.7
      vertex -4.04508 2.93893 5.7
      vertex 3.34565 3.71572 5.7
    endloop
  endfacet
  facet normal 0 -0 1
    outer loop
      vertex 1.54508 4.75528 5.7
      vertex -4.04508 2.93893 5.7
      vertex 2.5 4.33013 5.7
    endloop
  endfacet
  facet normal 0 -0 1
    outer loop
      vertex 0.522642 4.97261 5.7
      vertex -4.04508 2.93893 5.7
      vertex 1.54508 4.75528 5.7
    endloop
  endfacet
  facet normal 0 -0 1
    outer loop
      vertex -0.522642 4.97261 5.7
      vertex -4.04508 2.93893 5.7
      vertex 0.522642 4.97261 5.7
    endloop
  endfacet
  facet normal 0 -0 1
    outer loop
      vertex -1.54508 4.75528 5.7
      vertex -4.04508 2.93893 5.7
      vertex -0.522642 4.97261 5.7
    endloop
  endfacet
  facet normal 0 -0 1
    outer loop
      vertex -2.5 4.33013 5.7
      vertex -4.04508 2.93893 5.7
      vertex -1.54508 4.75528 5.7
    endloop
  endfacet
  facet normal 0 -0 1
    outer loop
      vertex -3.34565 3.71572 5.7
      vertex -4.04508 2.93893 5.7
      vertex -2.5 4.33013 5.7
    endloop
  endfacet
endsolid OpenSCAD_Model
