solid OpenSCAD_Model
  facet normal -1 -0 -0
    outer loop
      vertex -7.1 -15 0
      vertex -7.1 -15 3.8
      vertex -7.1 -13 0
    endloop
  endfacet
  facet normal -1 0 0
    outer loop
      vertex -7.1 -13 0
      vertex -7.1 -15 3.8
      vertex -7.1 -13 3.8
    endloop
  endfacet
  facet normal 0 -1 0
    outer loop
      vertex -7.1 -15 3.8
      vertex -7.1 -15 0
      vertex 4.6 -15 0
    endloop
  endfacet
  facet normal 0 -1 0
    outer loop
      vertex 4.6 -15 3.8
      vertex -7.1 -15 3.8
      vertex 4.6 -15 0
    endloop
  endfacet
  facet normal -0 -0 -1
    outer loop
      vertex -7.1 -15 0
      vertex -7.1 -13 0
      vertex 4.6 -15 0
    endloop
  endfacet
  facet normal 0 0 -1
    outer loop
      vertex 4.6 -15 0
      vertex -7.1 -13 0
      vertex 4.6 -13 0
    endloop
  endfacet
  facet normal 0 -0 -1
    outer loop
      vertex 4.6 -15 0
      vertex 4.6 -13 0
      vertex 4.75451 -12.9755 0
    endloop
  endfacet
  facet normal -0 0 -1
    outer loop
      vertex 4.75451 -12.9755 0
      vertex 4.89389 -12.9045 0
      vertex 4.6 -15 0
    endloop
  endfacet
  facet normal -0 0 -1
    outer loop
      vertex 4.89389 -12.9045 0
      vertex 5.00451 -12.7939 0
      vertex 4.6 -15 0
    endloop
  endfacet
  facet normal -0 0 -1
    outer loop
      vertex 5.00451 -12.7939 0
      vertex 5.07553 -12.6545 0
      vertex 4.6 -15 0
    endloop
  endfacet
  facet normal -0 -0 -1
    outer loop
      vertex -4.6 -9 0
      vertex -4.6 -7 0
      vertex 4.6 -9 0
    endloop
  endfacet
  facet normal 0 0 -1
    outer loop
      vertex -4.6 -9 0
      vertex -5.37254 -7.12236 0
      vertex -4.6 -7 0
    endloop
  endfacet
  facet normal 0 0 -1
    outer loop
      vertex 4.6 -12 0
      vertex -4.6 -12 0
      vertex -5.37254 -11.8776 0
    endloop
  endfacet
  facet normal 0 0 -1
    outer loop
      vertex 4.6 -12 0
      vertex -5.37254 -11.8776 0
      vertex -6.06946 -11.5225 0
    endloop
  endfacet
  facet normal 0 0 -1
    outer loop
      vertex 4.6 -12 0
      vertex -6.06946 -11.5225 0
      vertex -6.62254 -10.9695 0
    endloop
  endfacet
  facet normal 0 0 -1
    outer loop
      vertex 4.6 -12 0
      vertex -6.62254 -10.9695 0
      vertex -6.97764 -10.2725 0
    endloop
  endfacet
  facet normal 0 0 -1
    outer loop
      vertex 4.6 -12 0
      vertex -6.97764 -10.2725 0
      vertex -7.1 -9.5 0
    endloop
  endfacet
  facet normal -0 -0 -1
    outer loop
      vertex 4.6 -12 0
      vertex -7.1 -9.5 0
      vertex 4.75451 -12.0245 0
    endloop
  endfacet
  facet normal 0 0 -1
    outer loop
      vertex -5.07553 -9.34549 0
      vertex -7.1 -9.5 0
      vertex -6.97764 -8.72746 0
    endloop
  endfacet
  facet normal 0 0 -1
    outer loop
      vertex -4.6 -9 0
      vertex -6.97764 -8.72746 0
      vertex -6.62254 -8.03054 0
    endloop
  endfacet
  facet normal 0 0 -1
    outer loop
      vertex 4.6 -9 0
      vertex -4.6 -7 0
      vertex 4.6 -7 0
    endloop
  endfacet
  facet normal 0 0 -1
    outer loop
      vertex -4.6 -9 0
      vertex -6.06946 -7.47746 0
      vertex -5.37254 -7.12236 0
    endloop
  endfacet
  facet normal 0 0 -1
    outer loop
      vertex 4.6 -10 0
      vertex 4.89389 -12.0955 0
      vertex 4.75451 -12.0245 0
    endloop
  endfacet
  facet normal 0 0 -1
    outer loop
      vertex 5.37254 -10.1224 0
      vertex 5.1 -12.5 0
      vertex 5.07553 -12.3455 0
    endloop
  endfacet
  facet normal -0 -0 -1
    outer loop
      vertex -4.6 -3 0
      vertex -4.6 -1 0
      vertex 4.6 -3 0
    endloop
  endfacet
  facet normal 0 0 -1
    outer loop
      vertex -4.6 -3 0
      vertex -5.37254 -1.12236 0
      vertex -4.6 -1 0
    endloop
  endfacet
  facet normal -0 -0 -1
    outer loop
      vertex -4.6 -6 0
      vertex -5.37254 -5.87764 0
      vertex 4.6 -6 0
    endloop
  endfacet
  facet normal 0 0 -1
    outer loop
      vertex 4.6 -6 0
      vertex -5.37254 -5.87764 0
      vertex -6.06946 -5.52254 0
    endloop
  endfacet
  facet normal -0 -0 -1
    outer loop
      vertex -6.06946 -5.52254 0
      vertex -6.62254 -4.96946 0
      vertex 4.6 -6 0
    endloop
  endfacet
  facet normal -0 -0 -1
    outer loop
      vertex -6.62254 -4.96946 0
      vertex -6.97764 -4.27254 0
      vertex 4.6 -6 0
    endloop
  endfacet
  facet normal 0 0 -1
    outer loop
      vertex 4.6 -6 0
      vertex -6.97764 -4.27254 0
      vertex -7.1 -3.5 0
    endloop
  endfacet
  facet normal -0 -0 -1
    outer loop
      vertex 4.6 -6 0
      vertex -7.1 -3.5 0
      vertex 4.75451 -6.02447 0
    endloop
  endfacet
  facet normal 0 0 -1
    outer loop
      vertex -5.07553 -3.34549 0
      vertex -7.1 -3.5 0
      vertex -6.97764 -2.72746 0
    endloop
  endfacet
  facet normal 0 0 -1
    outer loop
      vertex -4.6 -3 0
      vertex -6.97764 -2.72746 0
      vertex -6.62254 -2.03054 0
    endloop
  endfacet
  facet normal 0 0 -1
    outer loop
      vertex 4.6 -3 0
      vertex -4.6 -1 0
      vertex 4.6 -1 0
    endloop
  endfacet
  facet normal 0 0 -1
    outer loop
      vertex -4.6 -3 0
      vertex -6.06946 -1.47746 0
      vertex -5.37254 -1.12236 0
    endloop
  endfacet
  facet normal 0 0 -1
    outer loop
      vertex 4.6 -4 0
      vertex 4.89389 -6.09549 0
      vertex 4.75451 -6.02447 0
    endloop
  endfacet
  facet normal 0 0 -1
    outer loop
      vertex 5.37254 -4.12236 0
      vertex 5.1 -6.5 0
      vertex 5.07553 -6.34549 0
    endloop
  endfacet
  facet normal -0 -0 -1
    outer loop
      vertex -4.6 0 0
      vertex -5.37254 0.122359 0
      vertex 4.6 0 0
    endloop
  endfacet
  facet normal 0 0 -1
    outer loop
      vertex 4.6 0 0
      vertex -5.37254 0.122359 0
      vertex -6.06946 0.477458 0
    endloop
  endfacet
  facet normal -0 -0 -1
    outer loop
      vertex -6.06946 0.477458 0
      vertex -6.62254 1.03054 0
      vertex 4.6 0 0
    endloop
  endfacet
  facet normal -0 -0 -1
    outer loop
      vertex -6.62254 1.03054 0
      vertex -6.97764 1.72746 0
      vertex 4.6 0 0
    endloop
  endfacet
  facet normal 0 0 -1
    outer loop
      vertex 4.6 0 0
      vertex -6.97764 1.72746 0
      vertex -7.1 2.5 0
    endloop
  endfacet
  facet normal -0 -0 -1
    outer loop
      vertex 4.6 0 0
      vertex -7.1 2.5 0
      vertex 4.75451 -0.024472 0
    endloop
  endfacet
  facet normal 0 0 -1
    outer loop
      vertex -5.07553 2.65451 0
      vertex -7.1 2.5 0
      vertex -6.97764 3.27254 0
    endloop
  endfacet
  facet normal 0 0 -1
    outer loop
      vertex -4.6 3 0
      vertex -6.97764 3.27254 0
      vertex -6.62254 3.96946 0
    endloop
  endfacet
  facet normal 0 0 -1
    outer loop
      vertex -6.092 4.5 0
      vertex -7.1 4.5 0
      vertex -7.1 9.443 0
    endloop
  endfacet
  facet normal 0 -0 -1
    outer loop
      vertex -4.6 3 0
      vertex -6.092 4.5 0
      vertex -2.9355 5.529 0
    endloop
  endfacet
  facet normal 0 -0 -1
    outer loop
      vertex -6.092 4.5 0
      vertex -7.1 9.443 0
      vertex -2.9355 5.529 0
    endloop
  endfacet
  facet normal 0 0 -1
    outer loop
      vertex -4.6 3 0
      vertex -6.62254 3.96946 0
      vertex -6.092 4.5 0
    endloop
  endfacet
  facet normal 0 -0 -1
    outer loop
      vertex -4.75451 2.97553 0
      vertex -6.97764 3.27254 0
      vertex -4.6 3 0
    endloop
  endfacet
  facet normal 0 -0 -1
    outer loop
      vertex -5.07553 2.65451 0
      vertex -6.97764 3.27254 0
      vertex -5.00451 2.79389 0
    endloop
  endfacet
  facet normal 0 -0 -1
    outer loop
      vertex -4.89389 2.90451 0
      vertex -6.97764 3.27254 0
      vertex -4.75451 2.97553 0
    endloop
  endfacet
  facet normal -0 0 -1
    outer loop
      vertex 5.07553 -0.654508 0
      vertex 5.1 -0.5 0
      vertex 5.37254 -2.87764 0
    endloop
  endfacet
  facet normal 0 -0 -1
    outer loop
      vertex -5.00451 2.79389 0
      vertex -6.97764 3.27254 0
      vertex -4.89389 2.90451 0
    endloop
  endfacet
  facet normal 0 -0 -1
    outer loop
      vertex -5.1 2.5 0
      vertex -7.1 2.5 0
      vertex -5.07553 2.65451 0
    endloop
  endfacet
  facet normal 0 0 -1
    outer loop
      vertex 4.6 2 0
      vertex 4.75451 -0.024472 0
      vertex -4.6 2 0
    endloop
  endfacet
  facet normal 0 0 -1
    outer loop
      vertex -5.07553 2.34549 0
      vertex -7.1 2.5 0
      vertex -5.1 2.5 0
    endloop
  endfacet
  facet normal 0 0 -1
    outer loop
      vertex 4.6 -3 0
      vertex 5.07553 -0.654508 0
      vertex 5.37254 -2.87764 0
    endloop
  endfacet
  facet normal 0 0 -1
    outer loop
      vertex -5.00451 2.20611 0
      vertex -7.1 2.5 0
      vertex -5.07553 2.34549 0
    endloop
  endfacet
  facet normal 0 -0 -1
    outer loop
      vertex 4.6 -9 0
      vertex 4.6 -7 0
      vertex 4.75451 -6.97553 0
    endloop
  endfacet
  facet normal 0 0 -1
    outer loop
      vertex -4.89389 2.09549 0
      vertex -7.1 2.5 0
      vertex -5.00451 2.20611 0
    endloop
  endfacet
  facet normal 0 0 -1
    outer loop
      vertex 6.06946 -4.47746 0
      vertex 5.37254 -8.87764 0
      vertex 5.1 -6.5 0
    endloop
  endfacet
  facet normal 0 0 -1
    outer loop
      vertex -4.75451 2.02447 0
      vertex -7.1 2.5 0
      vertex -4.89389 2.09549 0
    endloop
  endfacet
  facet normal 0 0 -1
    outer loop
      vertex 6.06946 -4.47746 0
      vertex 5.1 -6.5 0
      vertex 5.37254 -4.12236 0
    endloop
  endfacet
  facet normal 0 0 -1
    outer loop
      vertex 4.75451 -0.024472 0
      vertex -7.1 2.5 0
      vertex -4.75451 2.02447 0
    endloop
  endfacet
  facet normal 0 0 -1
    outer loop
      vertex 4.75451 -0.024472 0
      vertex -4.75451 2.02447 0
      vertex -4.6 2 0
    endloop
  endfacet
  facet normal 0 -0 -1
    outer loop
      vertex 5.07553 -0.345492 0
      vertex 4.6 2 0
      vertex 5.37254 1.87764 0
    endloop
  endfacet
  facet normal 0 0 -1
    outer loop
      vertex 4.6 -3 0
      vertex 4.75451 -0.975528 0
      vertex 4.89389 -0.904508 0
    endloop
  endfacet
  facet normal 0 0 -1
    outer loop
      vertex 6.62254 -1.96946 0
      vertex 6.97764 0.272542 0
      vertex 7.1 -0.5 0
    endloop
  endfacet
  facet normal 0 0 -1
    outer loop
      vertex 6.06946 -2.52254 0
      vertex 6.97764 0.272542 0
      vertex 6.62254 -1.96946 0
    endloop
  endfacet
  facet normal 0 0 -1
    outer loop
      vertex 4.6 -9 0
      vertex 4.89389 -6.90451 0
      vertex 5.00451 -6.79389 0
    endloop
  endfacet
  facet normal 0 0 -1
    outer loop
      vertex 4.6 -9 0
      vertex 5.00451 -6.79389 0
      vertex 5.07553 -6.65451 0
    endloop
  endfacet
  facet normal 0 0 -1
    outer loop
      vertex 6.62254 -1.96946 0
      vertex 7.1 -0.5 0
      vertex 6.97764 -1.27254 0
    endloop
  endfacet
  facet normal 0 0 -1
    outer loop
      vertex 6.06946 -2.52254 0
      vertex 6.62254 0.969463 0
      vertex 6.97764 0.272542 0
    endloop
  endfacet
  facet normal 0 0 -1
    outer loop
      vertex 5.37254 -2.87764 0
      vertex 6.06946 1.52254 0
      vertex 6.62254 0.969463 0
    endloop
  endfacet
  facet normal -0 0 -1
    outer loop
      vertex 5.1 -0.5 0
      vertex 6.06946 1.52254 0
      vertex 5.37254 -2.87764 0
    endloop
  endfacet
  facet normal 0 0 -1
    outer loop
      vertex -4.6 -3 0
      vertex -6.62254 -2.03054 0
      vertex -6.06946 -1.47746 0
    endloop
  endfacet
  facet normal 0 -0 -1
    outer loop
      vertex -4.75451 -3.02447 0
      vertex -6.97764 -2.72746 0
      vertex -4.6 -3 0
    endloop
  endfacet
  facet normal 0 -0 -1
    outer loop
      vertex -5.07553 -3.34549 0
      vertex -6.97764 -2.72746 0
      vertex -5.00451 -3.20611 0
    endloop
  endfacet
  facet normal 0 -0 -1
    outer loop
      vertex -4.89389 -3.09549 0
      vertex -6.97764 -2.72746 0
      vertex -4.75451 -3.02447 0
    endloop
  endfacet
  facet normal 0 0 -1
    outer loop
      vertex 5.37254 -4.12236 0
      vertex 5.07553 -6.34549 0
      vertex 5.00451 -6.20611 0
    endloop
  endfacet
  facet normal 0 -0 -1
    outer loop
      vertex -5.00451 -3.20611 0
      vertex -6.97764 -2.72746 0
      vertex -4.89389 -3.09549 0
    endloop
  endfacet
  facet normal 0 0 -1
    outer loop
      vertex 5.37254 -4.12236 0
      vertex 5.00451 -6.20611 0
      vertex 4.89389 -6.09549 0
    endloop
  endfacet
  facet normal 0 0 -1
    outer loop
      vertex 5.37254 -4.12236 0
      vertex 4.89389 -6.09549 0
      vertex 4.6 -4 0
    endloop
  endfacet
  facet normal 0 -0 -1
    outer loop
      vertex -5.1 -3.5 0
      vertex -7.1 -3.5 0
      vertex -5.07553 -3.34549 0
    endloop
  endfacet
  facet normal 0 0 -1
    outer loop
      vertex 4.6 -4 0
      vertex 4.75451 -6.02447 0
      vertex -4.6 -4 0
    endloop
  endfacet
  facet normal 0 0 -1
    outer loop
      vertex -5.07553 -3.65451 0
      vertex -7.1 -3.5 0
      vertex -5.1 -3.5 0
    endloop
  endfacet
  facet normal 0 0 -1
    outer loop
      vertex -5.00451 -3.79389 0
      vertex -7.1 -3.5 0
      vertex -5.07553 -3.65451 0
    endloop
  endfacet
  facet normal 0 0 -1
    outer loop
      vertex 6.06946 -10.4775 0
      vertex 5.07553 -12.6545 0
      vertex 5.1 -12.5 0
    endloop
  endfacet
  facet normal 0 0 -1
    outer loop
      vertex -4.89389 -3.90451 0
      vertex -7.1 -3.5 0
      vertex -5.00451 -3.79389 0
    endloop
  endfacet
  facet normal 0 0 -1
    outer loop
      vertex 6.06946 -10.4775 0
      vertex 5.1 -12.5 0
      vertex 5.37254 -10.1224 0
    endloop
  endfacet
  facet normal 0 0 -1
    outer loop
      vertex -4.75451 -3.97553 0
      vertex -7.1 -3.5 0
      vertex -4.89389 -3.90451 0
    endloop
  endfacet
  facet normal 0 0 -1
    outer loop
      vertex 4.75451 -6.02447 0
      vertex -7.1 -3.5 0
      vertex -4.75451 -3.97553 0
    endloop
  endfacet
  facet normal 0 0 -1
    outer loop
      vertex 4.75451 -6.02447 0
      vertex -4.75451 -3.97553 0
      vertex -4.6 -4 0
    endloop
  endfacet
  facet normal 0 -0 -1
    outer loop
      vertex 4.6 -3 0
      vertex 4.6 -1 0
      vertex 4.75451 -0.975528 0
    endloop
  endfacet
  facet normal 0 0 -1
    outer loop
      vertex 6.06946 -10.4775 0
      vertex 4.6 -15 0
      vertex 5.07553 -12.6545 0
    endloop
  endfacet
  facet normal 0 0 -1
    outer loop
      vertex 6.62254 -7.96946 0
      vertex 7.1 -6.5 0
      vertex 6.97764 -7.27254 0
    endloop
  endfacet
  facet normal -0 0 -1
    outer loop
      vertex 5.07553 -6.65451 0
      vertex 5.1 -6.5 0
      vertex 5.37254 -8.87764 0
    endloop
  endfacet
  facet normal 0 0 -1
    outer loop
      vertex 5.37254 -8.87764 0
      vertex 6.06946 -4.47746 0
      vertex 6.62254 -5.03054 0
    endloop
  endfacet
  facet normal 0 0 -1
    outer loop
      vertex 6.62254 -7.96946 0
      vertex 6.97764 -5.72746 0
      vertex 7.1 -6.5 0
    endloop
  endfacet
  facet normal 0 0 -1
    outer loop
      vertex 5.37254 -8.87764 0
      vertex 6.62254 -5.03054 0
      vertex 6.06946 -8.52254 0
    endloop
  endfacet
  facet normal 0 0 -1
    outer loop
      vertex 6.06946 -8.52254 0
      vertex 6.97764 -5.72746 0
      vertex 6.62254 -7.96946 0
    endloop
  endfacet
  facet normal 0 0 -1
    outer loop
      vertex 6.62254 -5.03054 0
      vertex 6.97764 -5.72746 0
      vertex 6.06946 -8.52254 0
    endloop
  endfacet
  facet normal 0 0 -1
    outer loop
      vertex 4.6 -9 0
      vertex 5.07553 -6.65451 0
      vertex 5.37254 -8.87764 0
    endloop
  endfacet
  facet normal 0 0 -1
    outer loop
      vertex -4.6 -9 0
      vertex -6.62254 -8.03054 0
      vertex -6.06946 -7.47746 0
    endloop
  endfacet
  facet normal 0 -0 -1
    outer loop
      vertex -4.75451 -9.02447 0
      vertex -6.97764 -8.72746 0
      vertex -4.6 -9 0
    endloop
  endfacet
  facet normal 0 -0 -1
    outer loop
      vertex -5.07553 -9.34549 0
      vertex -6.97764 -8.72746 0
      vertex -5.00451 -9.20611 0
    endloop
  endfacet
  facet normal 0 -0 -1
    outer loop
      vertex -4.89389 -9.09549 0
      vertex -6.97764 -8.72746 0
      vertex -4.75451 -9.02447 0
    endloop
  endfacet
  facet normal 0 0 -1
    outer loop
      vertex 5.37254 -10.1224 0
      vertex 5.07553 -12.3455 0
      vertex 5.00451 -12.2061 0
    endloop
  endfacet
  facet normal 0 -0 -1
    outer loop
      vertex -5.00451 -9.20611 0
      vertex -6.97764 -8.72746 0
      vertex -4.89389 -9.09549 0
    endloop
  endfacet
  facet normal 0 0 -1
    outer loop
      vertex 5.37254 -10.1224 0
      vertex 5.00451 -12.2061 0
      vertex 4.89389 -12.0955 0
    endloop
  endfacet
  facet normal 0 0 -1
    outer loop
      vertex 5.37254 -10.1224 0
      vertex 4.89389 -12.0955 0
      vertex 4.6 -10 0
    endloop
  endfacet
  facet normal 0 -0 -1
    outer loop
      vertex -5.1 -9.5 0
      vertex -7.1 -9.5 0
      vertex -5.07553 -9.34549 0
    endloop
  endfacet
  facet normal 0 0 -1
    outer loop
      vertex 4.6 -10 0
      vertex 4.75451 -12.0245 0
      vertex -4.6 -10 0
    endloop
  endfacet
  facet normal 0 0 -1
    outer loop
      vertex -5.07553 -9.65451 0
      vertex -7.1 -9.5 0
      vertex -5.1 -9.5 0
    endloop
  endfacet
  facet normal 0 0 -1
    outer loop
      vertex -5.00451 -9.79389 0
      vertex -7.1 -9.5 0
      vertex -5.07553 -9.65451 0
    endloop
  endfacet
  facet normal 0 0 -1
    outer loop
      vertex -4.89389 -9.90451 0
      vertex -7.1 -9.5 0
      vertex -5.00451 -9.79389 0
    endloop
  endfacet
  facet normal 0 0 -1
    outer loop
      vertex -4.75451 -9.97553 0
      vertex -7.1 -9.5 0
      vertex -4.89389 -9.90451 0
    endloop
  endfacet
  facet normal 0 0 -1
    outer loop
      vertex 4.75451 -12.0245 0
      vertex -7.1 -9.5 0
      vertex -4.75451 -9.97553 0
    endloop
  endfacet
  facet normal 0 0 -1
    outer loop
      vertex 4.75451 -12.0245 0
      vertex -4.75451 -9.97553 0
      vertex -4.6 -10 0
    endloop
  endfacet
  facet normal 0 0 -1
    outer loop
      vertex 5.37254 -2.87764 0
      vertex 6.62254 0.969463 0
      vertex 6.06946 -2.52254 0
    endloop
  endfacet
  facet normal 0 0 -1
    outer loop
      vertex 4.6 -9 0
      vertex 4.75451 -6.97553 0
      vertex 4.89389 -6.90451 0
    endloop
  endfacet
  facet normal 0 0 -1
    outer loop
      vertex 4.6 -15 0
      vertex 6.06946 -10.4775 0
      vertex 6.62254 -11.0305 0
    endloop
  endfacet
  facet normal 0 0 -1
    outer loop
      vertex 6.62254 -11.0305 0
      vertex 6.97764 -11.7275 0
      vertex 4.6 -15 0
    endloop
  endfacet
  facet normal 0 0 -1
    outer loop
      vertex 4.6 -15 0
      vertex 6.97764 -11.7275 0
      vertex 7.1 -12.5 0
    endloop
  endfacet
  facet normal 0 0 -1
    outer loop
      vertex 4.6 -15 0
      vertex 7.1 -12.5 0
      vertex 6.97764 -13.2725 0
    endloop
  endfacet
  facet normal 0 0 -1
    outer loop
      vertex 4.6 -15 0
      vertex 6.97764 -13.2725 0
      vertex 6.62254 -13.9695 0
    endloop
  endfacet
  facet normal 0 0 -1
    outer loop
      vertex 4.6 -15 0
      vertex 6.62254 -13.9695 0
      vertex 6.06946 -14.5225 0
    endloop
  endfacet
  facet normal 0 0 -1
    outer loop
      vertex 4.6 -15 0
      vertex 6.06946 -14.5225 0
      vertex 5.37254 -14.8776 0
    endloop
  endfacet
  facet normal 0 -0 -1
    outer loop
      vertex -2.9355 5.529 0
      vertex -7.1 9.443 0
      vertex -1.54865 9.443 0
    endloop
  endfacet
  facet normal 0 0 -1
    outer loop
      vertex -4.6 3 0
      vertex -2.9355 5.529 0
      vertex 2.9355 5.529 0
    endloop
  endfacet
  facet normal 0 -0 -1
    outer loop
      vertex 2.9355 5.529 0
      vertex 1.54865 9.443 0
      vertex 7.1 9.443 0
    endloop
  endfacet
  facet normal -0 0 -1
    outer loop
      vertex 2.9355 5.529 0
      vertex 7.1 9.443 0
      vertex 7.1 3 0
    endloop
  endfacet
  facet normal -0 0 -1
    outer loop
      vertex -4.6 3 0
      vertex 2.9355 5.529 0
      vertex 7.1 3 0
    endloop
  endfacet
  facet normal 0 0 -1
    outer loop
      vertex 4.6 -3 0
      vertex 5.00451 -0.793893 0
      vertex 5.07553 -0.654508 0
    endloop
  endfacet
  facet normal 0 0 -1
    outer loop
      vertex 4.6 -3 0
      vertex 4.89389 -0.904508 0
      vertex 5.00451 -0.793893 0
    endloop
  endfacet
  facet normal 0 0 -1
    outer loop
      vertex 6.06946 1.52254 0
      vertex 5.1 -0.5 0
      vertex 5.07553 -0.345492 0
    endloop
  endfacet
  facet normal 0 0 -1
    outer loop
      vertex 6.06946 1.52254 0
      vertex 5.07553 -0.345492 0
      vertex 5.37254 1.87764 0
    endloop
  endfacet
  facet normal 0 0 -1
    outer loop
      vertex 4.6 2 0
      vertex 5.07553 -0.345492 0
      vertex 5.00451 -0.206107 0
    endloop
  endfacet
  facet normal 0 0 -1
    outer loop
      vertex 4.6 2 0
      vertex 5.00451 -0.206107 0
      vertex 4.89389 -0.095492 0
    endloop
  endfacet
  facet normal 0 0 -1
    outer loop
      vertex 4.6 2 0
      vertex 4.89389 -0.095492 0
      vertex 4.75451 -0.024472 0
    endloop
  endfacet
  facet normal 0 1 0
    outer loop
      vertex -7.1 -13 0
      vertex -7.1 -13 3.8
      vertex 4.6 -13 0
    endloop
  endfacet
  facet normal 0 1 0
    outer loop
      vertex 4.6 -13 0
      vertex -7.1 -13 3.8
      vertex 4.6 -13 3.8
    endloop
  endfacet
  facet normal 0 -0 1
    outer loop
      vertex -7.1 -13 3.8
      vertex -7.1 -15 3.8
      vertex 4.6 -15 3.8
    endloop
  endfacet
  facet normal -0 0 1
    outer loop
      vertex 6.06946 -14.5225 3.8
      vertex -7.1 -13 3.8
      vertex 5.37254 -14.8776 3.8
    endloop
  endfacet
  facet normal -0 0 1
    outer loop
      vertex 5.37254 -14.8776 3.8
      vertex -7.1 -13 3.8
      vertex 4.6 -15 3.8
    endloop
  endfacet
  facet normal -0 0 1
    outer loop
      vertex 6.62254 -13.9695 3.8
      vertex -7.1 -13 3.8
      vertex 6.06946 -14.5225 3.8
    endloop
  endfacet
  facet normal -0 0 1
    outer loop
      vertex 6.97764 -13.2725 3.8
      vertex -7.1 -13 3.8
      vertex 6.62254 -13.9695 3.8
    endloop
  endfacet
  facet normal 0 -0 1
    outer loop
      vertex 4.6 -13 3.8
      vertex -7.1 -13 3.8
      vertex 6.97764 -13.2725 3.8
    endloop
  endfacet
  facet normal 0 0 1
    outer loop
      vertex 4.75451 -12.0245 3.8
      vertex 4.89389 -12.0955 3.8
      vertex 7.1 -12.5 3.8
    endloop
  endfacet
  facet normal 0 0 1
    outer loop
      vertex -4.6 -12 3.8
      vertex 5.37254 -10.1224 3.8
      vertex 4.6 -10 3.8
    endloop
  endfacet
  facet normal 0 0 1
    outer loop
      vertex -4.6 -12 3.8
      vertex 6.06946 -10.4775 3.8
      vertex 5.37254 -10.1224 3.8
    endloop
  endfacet
  facet normal 0 0 1
    outer loop
      vertex -4.6 -12 3.8
      vertex 6.62254 -11.0305 3.8
      vertex 6.06946 -10.4775 3.8
    endloop
  endfacet
  facet normal 0 0 1
    outer loop
      vertex -6.06946 -11.5225 3.8
      vertex -4.75451 -9.97553 3.8
      vertex -4.89389 -9.90451 3.8
    endloop
  endfacet
  facet normal 0 0 1
    outer loop
      vertex -6.06946 -11.5225 3.8
      vertex -4.6 -10 3.8
      vertex -4.75451 -9.97553 3.8
    endloop
  endfacet
  facet normal 0 0 1
    outer loop
      vertex -6.06946 -11.5225 3.8
      vertex -5.37254 -11.8776 3.8
      vertex -4.6 -10 3.8
    endloop
  endfacet
  facet normal 0 0 1
    outer loop
      vertex -4.6 -12 3.8
      vertex 6.97764 -11.7275 3.8
      vertex 6.62254 -11.0305 3.8
    endloop
  endfacet
  facet normal 0 0 1
    outer loop
      vertex -4.6 -12 3.8
      vertex 4.6 -12 3.8
      vertex 6.97764 -11.7275 3.8
    endloop
  endfacet
  facet normal 0 0 1
    outer loop
      vertex 7.1 -6.5 3.8
      vertex -4.75451 -9.02447 3.8
      vertex -4.6 -9 3.8
    endloop
  endfacet
  facet normal 0 0 1
    outer loop
      vertex 5.37254 -8.87764 3.8
      vertex -4.6 -9 3.8
      vertex 4.6 -9 3.8
    endloop
  endfacet
  facet normal 0 0 1
    outer loop
      vertex 6.06946 -8.52254 3.8
      vertex -4.6 -9 3.8
      vertex 5.37254 -8.87764 3.8
    endloop
  endfacet
  facet normal 0 0 1
    outer loop
      vertex 6.62254 -7.96946 3.8
      vertex -4.6 -9 3.8
      vertex 6.06946 -8.52254 3.8
    endloop
  endfacet
  facet normal 0 0 1
    outer loop
      vertex 6.97764 -7.27254 3.8
      vertex -4.6 -9 3.8
      vertex 6.62254 -7.96946 3.8
    endloop
  endfacet
  facet normal 0 0 1
    outer loop
      vertex 7.1 -6.5 3.8
      vertex -4.6 -9 3.8
      vertex 6.97764 -7.27254 3.8
    endloop
  endfacet
  facet normal 0 -0 1
    outer loop
      vertex 4.75451 -6.97553 3.8
      vertex -4.75451 -9.02447 3.8
      vertex 7.1 -6.5 3.8
    endloop
  endfacet
  facet normal 0 0 1
    outer loop
      vertex 5.00451 -6.20611 3.8
      vertex 5.07553 -6.34549 3.8
      vertex 6.97764 -5.72746 3.8
    endloop
  endfacet
  facet normal 0 0 1
    outer loop
      vertex -4.6 -6 3.8
      vertex 6.06946 -4.47746 3.8
      vertex 5.37254 -4.12236 3.8
    endloop
  endfacet
  facet normal 0 0 1
    outer loop
      vertex -4.6 -6 3.8
      vertex 6.62254 -5.03054 3.8
      vertex 6.06946 -4.47746 3.8
    endloop
  endfacet
  facet normal 0 0 1
    outer loop
      vertex -4.6 -6 3.8
      vertex 4.6 -6 3.8
      vertex 6.62254 -5.03054 3.8
    endloop
  endfacet
  facet normal 0 0 1
    outer loop
      vertex -6.62254 -8.03054 3.8
      vertex -6.97764 -8.72746 3.8
      vertex -6.97764 -10.2725 3.8
    endloop
  endfacet
  facet normal 0 0 1
    outer loop
      vertex -5.37254 -5.87764 3.8
      vertex -4.75451 -3.97553 3.8
      vertex -4.89389 -3.90451 3.8
    endloop
  endfacet
  facet normal 0 0 1
    outer loop
      vertex -5.37254 -5.87764 3.8
      vertex -4.6 -4 3.8
      vertex -4.75451 -3.97553 3.8
    endloop
  endfacet
  facet normal 0 0 1
    outer loop
      vertex 7.1 -0.5 3.8
      vertex -4.75451 -3.02447 3.8
      vertex -4.6 -3 3.8
    endloop
  endfacet
  facet normal 0 0 1
    outer loop
      vertex 5.37254 -2.87764 3.8
      vertex -4.6 -3 3.8
      vertex 4.6 -3 3.8
    endloop
  endfacet
  facet normal 0 0 1
    outer loop
      vertex 6.06946 -2.52254 3.8
      vertex -4.6 -3 3.8
      vertex 5.37254 -2.87764 3.8
    endloop
  endfacet
  facet normal 0 0 1
    outer loop
      vertex 6.62254 -1.96946 3.8
      vertex -4.6 -3 3.8
      vertex 6.06946 -2.52254 3.8
    endloop
  endfacet
  facet normal 0 0 1
    outer loop
      vertex 6.97764 -1.27254 3.8
      vertex -4.6 -3 3.8
      vertex 6.62254 -1.96946 3.8
    endloop
  endfacet
  facet normal 0 0 1
    outer loop
      vertex 7.1 -0.5 3.8
      vertex -4.6 -3 3.8
      vertex 6.97764 -1.27254 3.8
    endloop
  endfacet
  facet normal 0 -0 1
    outer loop
      vertex 4.75451 -0.975528 3.8
      vertex -4.75451 -3.02447 3.8
      vertex 7.1 -0.5 3.8
    endloop
  endfacet
  facet normal 0 0 1
    outer loop
      vertex 5.00451 -0.206107 3.8
      vertex 5.07553 -0.345492 3.8
      vertex 6.97764 0.272542 3.8
    endloop
  endfacet
  facet normal 0 0 1
    outer loop
      vertex -4.6 0 3.8
      vertex 6.62254 0.969463 3.8
      vertex 6.06946 1.52254 3.8
    endloop
  endfacet
  facet normal 0 0 1
    outer loop
      vertex -4.6 0 3.8
      vertex 4.6 0 3.8
      vertex 6.62254 0.969463 3.8
    endloop
  endfacet
  facet normal 0 0 1
    outer loop
      vertex -7.1 9.443 3.8
      vertex -5.1 2.5 3.8
      vertex -5.07553 2.65451 3.8
    endloop
  endfacet
  facet normal 0 0 1
    outer loop
      vertex -7.1 9.443 3.8
      vertex -5.07553 2.65451 3.8
      vertex -5.00451 2.79389 3.8
    endloop
  endfacet
  facet normal 0 -0 1
    outer loop
      vertex -6.092 4.5 3.8
      vertex -6.62254 3.96946 3.8
      vertex -5.1 2.5 3.8
    endloop
  endfacet
  facet normal -0 0 1
    outer loop
      vertex -4.75451 2.97553 3.8
      vertex -2.9355 5.529 3.8
      vertex -4.89389 2.90451 3.8
    endloop
  endfacet
  facet normal -0 0 1
    outer loop
      vertex -4.89389 2.90451 3.8
      vertex -2.9355 5.529 3.8
      vertex -5.00451 2.79389 3.8
    endloop
  endfacet
  facet normal 0 -0 1
    outer loop
      vertex 2.9355 5.529 3.8
      vertex -4.6 3 3.8
      vertex 7.1 3 3.8
    endloop
  endfacet
  facet normal 0 0 1
    outer loop
      vertex 2.9355 5.529 3.8
      vertex -2.9355 5.529 3.8
      vertex -4.75451 2.97553 3.8
    endloop
  endfacet
  facet normal 0 0 1
    outer loop
      vertex 7.1 9.443 3.8
      vertex 2.9355 5.529 3.8
      vertex 7.1 3 3.8
    endloop
  endfacet
  facet normal 0 0 1
    outer loop
      vertex -1.54865 9.443 3.8
      vertex -5.00451 2.79389 3.8
      vertex -2.9355 5.529 3.8
    endloop
  endfacet
  facet normal 0 0 1
    outer loop
      vertex -7.1 9.443 3.8
      vertex -5.00451 2.79389 3.8
      vertex -1.54865 9.443 3.8
    endloop
  endfacet
  facet normal 0 0 1
    outer loop
      vertex -7.1 9.443 3.8
      vertex -6.092 4.5 3.8
      vertex -5.1 2.5 3.8
    endloop
  endfacet
  facet normal 0 -0 1
    outer loop
      vertex -7.1 9.443 3.8
      vertex -7.1 4.5 3.8
      vertex -6.092 4.5 3.8
    endloop
  endfacet
  facet normal 0 -0 1
    outer loop
      vertex -6.97764 3.27254 3.8
      vertex -6.97764 1.72746 3.8
      vertex -6.62254 3.96946 3.8
    endloop
  endfacet
  facet normal 0 0 1
    outer loop
      vertex -7.1 -9.5 3.8
      vertex -6.97764 -10.2725 3.8
      vertex -6.97764 -8.72746 3.8
    endloop
  endfacet
  facet normal 0 -0 1
    outer loop
      vertex -6.62254 3.96946 3.8
      vertex -6.62254 1.03054 3.8
      vertex -5.1 2.5 3.8
    endloop
  endfacet
  facet normal 0 0 1
    outer loop
      vertex -6.62254 1.03054 3.8
      vertex -6.06946 0.477458 3.8
      vertex -5.1 2.5 3.8
    endloop
  endfacet
  facet normal 0 0 1
    outer loop
      vertex -6.62254 -4.96946 3.8
      vertex -5.37254 -1.12236 3.8
      vertex -6.06946 -1.47746 3.8
    endloop
  endfacet
  facet normal 0 -0 1
    outer loop
      vertex -5.1 2.5 3.8
      vertex -5.37254 0.122359 3.8
      vertex -5.07553 2.34549 3.8
    endloop
  endfacet
  facet normal 0 -0 1
    outer loop
      vertex -4.6 2 3.8
      vertex -4.6 0 3.8
      vertex 4.6 2 3.8
    endloop
  endfacet
  facet normal -0 0 1
    outer loop
      vertex -4.75451 -3.02447 3.8
      vertex -4.6 -1 3.8
      vertex -4.89389 -3.09549 3.8
    endloop
  endfacet
  facet normal 0 -0 1
    outer loop
      vertex 6.62254 0.969463 3.8
      vertex 4.6 0 3.8
      vertex 6.97764 0.272542 3.8
    endloop
  endfacet
  facet normal 0 0 1
    outer loop
      vertex 4.6 0 3.8
      vertex 4.75451 -0.024472 3.8
      vertex 6.97764 0.272542 3.8
    endloop
  endfacet
  facet normal 0 0 1
    outer loop
      vertex -4.6 -1 3.8
      vertex -5.00451 -3.20611 3.8
      vertex -4.89389 -3.09549 3.8
    endloop
  endfacet
  facet normal 0 0 1
    outer loop
      vertex 4.75451 -0.024472 3.8
      vertex 4.89389 -0.095492 3.8
      vertex 6.97764 0.272542 3.8
    endloop
  endfacet
  facet normal 0 0 1
    outer loop
      vertex -4.6 -1 3.8
      vertex -5.07553 -3.34549 3.8
      vertex -5.00451 -3.20611 3.8
    endloop
  endfacet
  facet normal 0 0 1
    outer loop
      vertex 4.89389 -0.095492 3.8
      vertex 5.00451 -0.206107 3.8
      vertex 6.97764 0.272542 3.8
    endloop
  endfacet
  facet normal 0 0 1
    outer loop
      vertex -5.37254 -5.87764 3.8
      vertex -4.6 -6 3.8
      vertex -4.6 -4 3.8
    endloop
  endfacet
  facet normal 0 -0 1
    outer loop
      vertex 6.97764 0.272542 3.8
      vertex 5.07553 -0.345492 3.8
      vertex 7.1 -0.5 3.8
    endloop
  endfacet
  facet normal 0 0 1
    outer loop
      vertex 5.07553 -0.345492 3.8
      vertex 5.1 -0.5 3.8
      vertex 7.1 -0.5 3.8
    endloop
  endfacet
  facet normal 0 0 1
    outer loop
      vertex -6.06946 -5.52254 3.8
      vertex -5.07553 -3.34549 3.8
      vertex -4.6 -1 3.8
    endloop
  endfacet
  facet normal 0 -0 1
    outer loop
      vertex 5.1 -0.5 3.8
      vertex 5.07553 -0.654508 3.8
      vertex 7.1 -0.5 3.8
    endloop
  endfacet
  facet normal 0 0 1
    outer loop
      vertex -6.06946 -5.52254 3.8
      vertex -5.1 -3.5 3.8
      vertex -5.07553 -3.34549 3.8
    endloop
  endfacet
  facet normal 0 -0 1
    outer loop
      vertex 5.07553 -0.654508 3.8
      vertex 5.00451 -0.793893 3.8
      vertex 7.1 -0.5 3.8
    endloop
  endfacet
  facet normal 0 0 1
    outer loop
      vertex -6.06946 -5.52254 3.8
      vertex -5.07553 -3.65451 3.8
      vertex -5.1 -3.5 3.8
    endloop
  endfacet
  facet normal 0 -0 1
    outer loop
      vertex 5.00451 -0.793893 3.8
      vertex 4.89389 -0.904508 3.8
      vertex 7.1 -0.5 3.8
    endloop
  endfacet
  facet normal 0 0 1
    outer loop
      vertex -6.06946 -5.52254 3.8
      vertex -5.00451 -3.79389 3.8
      vertex -5.07553 -3.65451 3.8
    endloop
  endfacet
  facet normal 0 -0 1
    outer loop
      vertex 4.89389 -0.904508 3.8
      vertex 4.75451 -0.975528 3.8
      vertex 7.1 -0.5 3.8
    endloop
  endfacet
  facet normal 0 -0 1
    outer loop
      vertex 4.6 -1 3.8
      vertex -4.75451 -3.02447 3.8
      vertex 4.75451 -0.975528 3.8
    endloop
  endfacet
  facet normal 0 0 1
    outer loop
      vertex -6.06946 -5.52254 3.8
      vertex -5.37254 -5.87764 3.8
      vertex -5.00451 -3.79389 3.8
    endloop
  endfacet
  facet normal 0 0 1
    outer loop
      vertex -6.06946 -5.52254 3.8
      vertex -4.6 -1 3.8
      vertex -5.37254 -1.12236 3.8
    endloop
  endfacet
  facet normal 0 0 1
    outer loop
      vertex 4.6 -7 3.8
      vertex -4.6 -7 3.8
      vertex -4.75451 -9.02447 3.8
    endloop
  endfacet
  facet normal 0 0 1
    outer loop
      vertex -6.62254 -4.96946 3.8
      vertex -6.06946 -5.52254 3.8
      vertex -5.37254 -1.12236 3.8
    endloop
  endfacet
  facet normal 0 0 1
    outer loop
      vertex -6.97764 -4.27254 3.8
      vertex -6.62254 -4.96946 3.8
      vertex -6.62254 -2.03054 3.8
    endloop
  endfacet
  facet normal 0 0 1
    outer loop
      vertex -7.1 -3.5 3.8
      vertex -6.97764 -4.27254 3.8
      vertex -6.97764 -2.72746 3.8
    endloop
  endfacet
  facet normal 0 0 1
    outer loop
      vertex -6.06946 0.477458 3.8
      vertex -5.37254 0.122359 3.8
      vertex -5.1 2.5 3.8
    endloop
  endfacet
  facet normal 0 0 1
    outer loop
      vertex -6.97764 -10.2725 3.8
      vertex -6.06946 -7.47746 3.8
      vertex -6.62254 -8.03054 3.8
    endloop
  endfacet
  facet normal 0 0 1
    outer loop
      vertex 4.6 -1 3.8
      vertex -4.6 -1 3.8
      vertex -4.75451 -3.02447 3.8
    endloop
  endfacet
  facet normal 0 -0 1
    outer loop
      vertex -5.00451 -3.79389 3.8
      vertex -5.37254 -5.87764 3.8
      vertex -4.89389 -3.90451 3.8
    endloop
  endfacet
  facet normal 0 0 1
    outer loop
      vertex -6.62254 -10.9695 3.8
      vertex -5.00451 -9.20611 3.8
      vertex -5.37254 -7.12236 3.8
    endloop
  endfacet
  facet normal 0 -0 1
    outer loop
      vertex -4.6 -4 3.8
      vertex -4.6 -6 3.8
      vertex 4.6 -4 3.8
    endloop
  endfacet
  facet normal -0 0 1
    outer loop
      vertex -4.75451 -9.02447 3.8
      vertex -4.6 -7 3.8
      vertex -4.89389 -9.09549 3.8
    endloop
  endfacet
  facet normal 0 -0 1
    outer loop
      vertex 6.62254 -5.03054 3.8
      vertex 4.6 -6 3.8
      vertex 6.97764 -5.72746 3.8
    endloop
  endfacet
  facet normal 0 0 1
    outer loop
      vertex -6.62254 -10.9695 3.8
      vertex -5.07553 -9.65451 3.8
      vertex -5.1 -9.5 3.8
    endloop
  endfacet
  facet normal 0 0 1
    outer loop
      vertex 4.6 -6 3.8
      vertex 4.75451 -6.02447 3.8
      vertex 6.97764 -5.72746 3.8
    endloop
  endfacet
  facet normal 0 0 1
    outer loop
      vertex -4.6 -7 3.8
      vertex -5.00451 -9.20611 3.8
      vertex -4.89389 -9.09549 3.8
    endloop
  endfacet
  facet normal 0 0 1
    outer loop
      vertex 4.75451 -6.02447 3.8
      vertex 4.89389 -6.09549 3.8
      vertex 6.97764 -5.72746 3.8
    endloop
  endfacet
  facet normal 0 0 1
    outer loop
      vertex -4.6 -7 3.8
      vertex -5.37254 -7.12236 3.8
      vertex -5.00451 -9.20611 3.8
    endloop
  endfacet
  facet normal 0 0 1
    outer loop
      vertex 4.89389 -6.09549 3.8
      vertex 5.00451 -6.20611 3.8
      vertex 6.97764 -5.72746 3.8
    endloop
  endfacet
  facet normal 0 0 1
    outer loop
      vertex -6.62254 -10.9695 3.8
      vertex -5.1 -9.5 3.8
      vertex -5.07553 -9.34549 3.8
    endloop
  endfacet
  facet normal 0 -0 1
    outer loop
      vertex 6.97764 -5.72746 3.8
      vertex 5.07553 -6.34549 3.8
      vertex 7.1 -6.5 3.8
    endloop
  endfacet
  facet normal 0 0 1
    outer loop
      vertex 5.07553 -6.34549 3.8
      vertex 5.1 -6.5 3.8
      vertex 7.1 -6.5 3.8
    endloop
  endfacet
  facet normal 0 0 1
    outer loop
      vertex -6.62254 -10.9695 3.8
      vertex -5.00451 -9.79389 3.8
      vertex -5.07553 -9.65451 3.8
    endloop
  endfacet
  facet normal 0 -0 1
    outer loop
      vertex 5.1 -6.5 3.8
      vertex 5.07553 -6.65451 3.8
      vertex 7.1 -6.5 3.8
    endloop
  endfacet
  facet normal 0 0 1
    outer loop
      vertex -6.62254 -10.9695 3.8
      vertex -6.06946 -11.5225 3.8
      vertex -5.00451 -9.79389 3.8
    endloop
  endfacet
  facet normal 0 -0 1
    outer loop
      vertex 5.07553 -6.65451 3.8
      vertex 5.00451 -6.79389 3.8
      vertex 7.1 -6.5 3.8
    endloop
  endfacet
  facet normal 0 -0 1
    outer loop
      vertex 5.00451 -6.79389 3.8
      vertex 4.89389 -6.90451 3.8
      vertex 7.1 -6.5 3.8
    endloop
  endfacet
  facet normal 0 -0 1
    outer loop
      vertex 4.89389 -6.90451 3.8
      vertex 4.75451 -6.97553 3.8
      vertex 7.1 -6.5 3.8
    endloop
  endfacet
  facet normal 0 -0 1
    outer loop
      vertex 4.6 -7 3.8
      vertex -4.75451 -9.02447 3.8
      vertex 4.75451 -6.97553 3.8
    endloop
  endfacet
  facet normal 0 0 1
    outer loop
      vertex -5.37254 -7.12236 3.8
      vertex -6.06946 -7.47746 3.8
      vertex -6.62254 -10.9695 3.8
    endloop
  endfacet
  facet normal 0 0 1
    outer loop
      vertex -4.6 -6 3.8
      vertex 5.37254 -4.12236 3.8
      vertex 4.6 -4 3.8
    endloop
  endfacet
  facet normal 0 0 1
    outer loop
      vertex -4.6 0 3.8
      vertex 5.37254 1.87764 3.8
      vertex 4.6 2 3.8
    endloop
  endfacet
  facet normal 0 0 1
    outer loop
      vertex -4.6 0 3.8
      vertex 6.06946 1.52254 3.8
      vertex 5.37254 1.87764 3.8
    endloop
  endfacet
  facet normal 0 0 1
    outer loop
      vertex -6.62254 -10.9695 3.8
      vertex -5.07553 -9.34549 3.8
      vertex -5.00451 -9.20611 3.8
    endloop
  endfacet
  facet normal 0 0 1
    outer loop
      vertex -6.97764 -10.2725 3.8
      vertex -6.62254 -10.9695 3.8
      vertex -6.06946 -7.47746 3.8
    endloop
  endfacet
  facet normal 0 -0 1
    outer loop
      vertex -5.00451 -9.79389 3.8
      vertex -6.06946 -11.5225 3.8
      vertex -4.89389 -9.90451 3.8
    endloop
  endfacet
  facet normal 0 -0 1
    outer loop
      vertex -4.6 -10 3.8
      vertex -5.37254 -11.8776 3.8
      vertex 4.6 -10 3.8
    endloop
  endfacet
  facet normal 0 0 1
    outer loop
      vertex -5.37254 -11.8776 3.8
      vertex -4.6 -12 3.8
      vertex 4.6 -10 3.8
    endloop
  endfacet
  facet normal 0 -0 1
    outer loop
      vertex 5.1 -12.5 3.8
      vertex 5.07553 -12.6545 3.8
      vertex 7.1 -12.5 3.8
    endloop
  endfacet
  facet normal 0 -0 1
    outer loop
      vertex 6.97764 -11.7275 3.8
      vertex 4.75451 -12.0245 3.8
      vertex 7.1 -12.5 3.8
    endloop
  endfacet
  facet normal 0 0 1
    outer loop
      vertex 6.97764 -11.7275 3.8
      vertex 4.6 -12 3.8
      vertex 4.75451 -12.0245 3.8
    endloop
  endfacet
  facet normal 0 0 1
    outer loop
      vertex 4.89389 -12.0955 3.8
      vertex 5.00451 -12.2061 3.8
      vertex 7.1 -12.5 3.8
    endloop
  endfacet
  facet normal 0 0 1
    outer loop
      vertex 5.00451 -12.2061 3.8
      vertex 5.07553 -12.3455 3.8
      vertex 7.1 -12.5 3.8
    endloop
  endfacet
  facet normal 0 0 1
    outer loop
      vertex 5.07553 -12.3455 3.8
      vertex 5.1 -12.5 3.8
      vertex 7.1 -12.5 3.8
    endloop
  endfacet
  facet normal 0 0 1
    outer loop
      vertex 7.1 -12.5 3.8
      vertex 5.07553 -12.6545 3.8
      vertex 6.97764 -13.2725 3.8
    endloop
  endfacet
  facet normal 0 -0 1
    outer loop
      vertex 5.07553 -12.6545 3.8
      vertex 5.00451 -12.7939 3.8
      vertex 6.97764 -13.2725 3.8
    endloop
  endfacet
  facet normal 0 -0 1
    outer loop
      vertex 5.00451 -12.7939 3.8
      vertex 4.89389 -12.9045 3.8
      vertex 6.97764 -13.2725 3.8
    endloop
  endfacet
  facet normal 0 -0 1
    outer loop
      vertex 4.89389 -12.9045 3.8
      vertex 4.75451 -12.9755 3.8
      vertex 6.97764 -13.2725 3.8
    endloop
  endfacet
  facet normal 0 -0 1
    outer loop
      vertex 4.75451 -12.9755 3.8
      vertex 4.6 -13 3.8
      vertex 6.97764 -13.2725 3.8
    endloop
  endfacet
  facet normal 0 0 1
    outer loop
      vertex 2.9355 5.529 3.8
      vertex -4.75451 2.97553 3.8
      vertex -4.6 3 3.8
    endloop
  endfacet
  facet normal 0 0 1
    outer loop
      vertex -7.1 2.5 3.8
      vertex -6.97764 1.72746 3.8
      vertex -6.97764 3.27254 3.8
    endloop
  endfacet
  facet normal 0 0 1
    outer loop
      vertex 1.54865 9.443 3.8
      vertex 2.9355 5.529 3.8
      vertex 7.1 9.443 3.8
    endloop
  endfacet
  facet normal 0 0 1
    outer loop
      vertex -6.97764 1.72746 3.8
      vertex -6.62254 1.03054 3.8
      vertex -6.62254 3.96946 3.8
    endloop
  endfacet
  facet normal 0 0 1
    outer loop
      vertex -6.06946 -1.47746 3.8
      vertex -6.62254 -2.03054 3.8
      vertex -6.62254 -4.96946 3.8
    endloop
  endfacet
  facet normal 0 0 1
    outer loop
      vertex -6.62254 -2.03054 3.8
      vertex -6.97764 -2.72746 3.8
      vertex -6.97764 -4.27254 3.8
    endloop
  endfacet
  facet normal 0 0 1
    outer loop
      vertex -5.37254 0.122359 3.8
      vertex -5.00451 2.20611 3.8
      vertex -5.07553 2.34549 3.8
    endloop
  endfacet
  facet normal 0 0 1
    outer loop
      vertex -5.37254 0.122359 3.8
      vertex -4.89389 2.09549 3.8
      vertex -5.00451 2.20611 3.8
    endloop
  endfacet
  facet normal 0 0 1
    outer loop
      vertex -5.37254 0.122359 3.8
      vertex -4.75451 2.02447 3.8
      vertex -4.89389 2.09549 3.8
    endloop
  endfacet
  facet normal 0 0 1
    outer loop
      vertex -5.37254 0.122359 3.8
      vertex -4.6 2 3.8
      vertex -4.75451 2.02447 3.8
    endloop
  endfacet
  facet normal 0 0 1
    outer loop
      vertex -5.37254 0.122359 3.8
      vertex -4.6 0 3.8
      vertex -4.6 2 3.8
    endloop
  endfacet
  facet normal 0.156435 -0.987688 0
    outer loop
      vertex 4.6 -15 3.8
      vertex 4.6 -15 0
      vertex 5.37254 -14.8776 0
    endloop
  endfacet
  facet normal 0.156435 -0.987688 0
    outer loop
      vertex 5.37254 -14.8776 3.8
      vertex 4.6 -15 3.8
      vertex 5.37254 -14.8776 0
    endloop
  endfacet
  facet normal 0.453991 -0.891007 0
    outer loop
      vertex 5.37254 -14.8776 3.8
      vertex 5.37254 -14.8776 0
      vertex 6.06946 -14.5225 0
    endloop
  endfacet
  facet normal 0.453991 -0.891007 0
    outer loop
      vertex 6.06946 -14.5225 3.8
      vertex 5.37254 -14.8776 3.8
      vertex 6.06946 -14.5225 0
    endloop
  endfacet
  facet normal 0.707107 -0.707107 0
    outer loop
      vertex 6.06946 -14.5225 3.8
      vertex 6.06946 -14.5225 0
      vertex 6.62254 -13.9695 0
    endloop
  endfacet
  facet normal 0.707107 -0.707107 0
    outer loop
      vertex 6.62254 -13.9695 3.8
      vertex 6.06946 -14.5225 3.8
      vertex 6.62254 -13.9695 0
    endloop
  endfacet
  facet normal 0.891007 -0.453991 0
    outer loop
      vertex 6.62254 -13.9695 3.8
      vertex 6.62254 -13.9695 0
      vertex 6.97764 -13.2725 0
    endloop
  endfacet
  facet normal 0.891007 -0.453991 0
    outer loop
      vertex 6.97764 -13.2725 3.8
      vertex 6.62254 -13.9695 3.8
      vertex 6.97764 -13.2725 0
    endloop
  endfacet
  facet normal 0.987688 -0.156435 0
    outer loop
      vertex 6.97764 -13.2725 3.8
      vertex 6.97764 -13.2725 0
      vertex 7.1 -12.5 0
    endloop
  endfacet
  facet normal 0.987688 -0.156435 0
    outer loop
      vertex 7.1 -12.5 3.8
      vertex 6.97764 -13.2725 3.8
      vertex 7.1 -12.5 0
    endloop
  endfacet
  facet normal 0.987688 0.156435 0
    outer loop
      vertex 7.1 -12.5 0
      vertex 6.97764 -11.7275 0
      vertex 6.97764 -11.7275 3.8
    endloop
  endfacet
  facet normal 0.987688 0.156435 -0
    outer loop
      vertex 7.1 -12.5 3.8
      vertex 7.1 -12.5 0
      vertex 6.97764 -11.7275 3.8
    endloop
  endfacet
  facet normal 0.891007 0.453991 0
    outer loop
      vertex 6.97764 -11.7275 0
      vertex 6.62254 -11.0305 0
      vertex 6.62254 -11.0305 3.8
    endloop
  endfacet
  facet normal 0.891007 0.453991 -0
    outer loop
      vertex 6.97764 -11.7275 3.8
      vertex 6.97764 -11.7275 0
      vertex 6.62254 -11.0305 3.8
    endloop
  endfacet
  facet normal 0.707107 0.707107 0
    outer loop
      vertex 6.06946 -10.4775 0
      vertex 6.06946 -10.4775 3.8
      vertex 6.62254 -11.0305 0
    endloop
  endfacet
  facet normal 0.707107 0.707107 0
    outer loop
      vertex 6.62254 -11.0305 0
      vertex 6.06946 -10.4775 3.8
      vertex 6.62254 -11.0305 3.8
    endloop
  endfacet
  facet normal 0.453991 0.891007 0
    outer loop
      vertex 5.37254 -10.1224 0
      vertex 5.37254 -10.1224 3.8
      vertex 6.06946 -10.4775 0
    endloop
  endfacet
  facet normal 0.453991 0.891007 0
    outer loop
      vertex 6.06946 -10.4775 0
      vertex 5.37254 -10.1224 3.8
      vertex 6.06946 -10.4775 3.8
    endloop
  endfacet
  facet normal 0.156435 0.987688 0
    outer loop
      vertex 4.6 -10 0
      vertex 4.6 -10 3.8
      vertex 5.37254 -10.1224 0
    endloop
  endfacet
  facet normal 0.156435 0.987688 0
    outer loop
      vertex 5.37254 -10.1224 0
      vertex 4.6 -10 3.8
      vertex 5.37254 -10.1224 3.8
    endloop
  endfacet
  facet normal 0 1 0
    outer loop
      vertex -4.6 -10 0
      vertex -4.6 -10 3.8
      vertex 4.6 -10 0
    endloop
  endfacet
  facet normal 0 1 0
    outer loop
      vertex 4.6 -10 0
      vertex -4.6 -10 3.8
      vertex 4.6 -10 3.8
    endloop
  endfacet
  facet normal 0.156437 0.987688 0
    outer loop
      vertex -4.75451 -9.97553 0
      vertex -4.75451 -9.97553 3.8
      vertex -4.6 -10 0
    endloop
  endfacet
  facet normal 0.156437 0.987688 0
    outer loop
      vertex -4.6 -10 0
      vertex -4.75451 -9.97553 3.8
      vertex -4.6 -10 3.8
    endloop
  endfacet
  facet normal 0.453989 0.891007 0
    outer loop
      vertex -4.89389 -9.90451 0
      vertex -4.89389 -9.90451 3.8
      vertex -4.75451 -9.97553 0
    endloop
  endfacet
  facet normal 0.453989 0.891007 0
    outer loop
      vertex -4.75451 -9.97553 0
      vertex -4.89389 -9.90451 3.8
      vertex -4.75451 -9.97553 3.8
    endloop
  endfacet
  facet normal 0.707107 0.707107 0
    outer loop
      vertex -5.00451 -9.79389 0
      vertex -5.00451 -9.79389 3.8
      vertex -4.89389 -9.90451 0
    endloop
  endfacet
  facet normal 0.707107 0.707107 0
    outer loop
      vertex -4.89389 -9.90451 0
      vertex -5.00451 -9.79389 3.8
      vertex -4.89389 -9.90451 3.8
    endloop
  endfacet
  facet normal 0.891007 0.453989 0
    outer loop
      vertex -5.00451 -9.79389 0
      vertex -5.07553 -9.65451 0
      vertex -5.07553 -9.65451 3.8
    endloop
  endfacet
  facet normal 0.891007 0.453989 -0
    outer loop
      vertex -5.00451 -9.79389 3.8
      vertex -5.00451 -9.79389 0
      vertex -5.07553 -9.65451 3.8
    endloop
  endfacet
  facet normal 0.987688 0.156437 0
    outer loop
      vertex -5.07553 -9.65451 0
      vertex -5.1 -9.5 0
      vertex -5.1 -9.5 3.8
    endloop
  endfacet
  facet normal 0.987688 0.156437 -0
    outer loop
      vertex -5.07553 -9.65451 3.8
      vertex -5.07553 -9.65451 0
      vertex -5.1 -9.5 3.8
    endloop
  endfacet
  facet normal 0.987688 -0.156437 0
    outer loop
      vertex -5.1 -9.5 3.8
      vertex -5.1 -9.5 0
      vertex -5.07553 -9.34549 0
    endloop
  endfacet
  facet normal 0.987688 -0.156437 0
    outer loop
      vertex -5.07553 -9.34549 3.8
      vertex -5.1 -9.5 3.8
      vertex -5.07553 -9.34549 0
    endloop
  endfacet
  facet normal 0.891007 -0.453989 0
    outer loop
      vertex -5.07553 -9.34549 3.8
      vertex -5.07553 -9.34549 0
      vertex -5.00451 -9.20611 0
    endloop
  endfacet
  facet normal 0.891007 -0.453989 0
    outer loop
      vertex -5.00451 -9.20611 3.8
      vertex -5.07553 -9.34549 3.8
      vertex -5.00451 -9.20611 0
    endloop
  endfacet
  facet normal 0.707107 -0.707107 0
    outer loop
      vertex -5.00451 -9.20611 3.8
      vertex -5.00451 -9.20611 0
      vertex -4.89389 -9.09549 0
    endloop
  endfacet
  facet normal 0.707107 -0.707107 0
    outer loop
      vertex -4.89389 -9.09549 3.8
      vertex -5.00451 -9.20611 3.8
      vertex -4.89389 -9.09549 0
    endloop
  endfacet
  facet normal 0.453989 -0.891007 0
    outer loop
      vertex -4.89389 -9.09549 3.8
      vertex -4.89389 -9.09549 0
      vertex -4.75451 -9.02447 0
    endloop
  endfacet
  facet normal 0.453989 -0.891007 0
    outer loop
      vertex -4.75451 -9.02447 3.8
      vertex -4.89389 -9.09549 3.8
      vertex -4.75451 -9.02447 0
    endloop
  endfacet
  facet normal 0.156437 -0.987688 0
    outer loop
      vertex -4.75451 -9.02447 3.8
      vertex -4.75451 -9.02447 0
      vertex -4.6 -9 0
    endloop
  endfacet
  facet normal 0.156437 -0.987688 0
    outer loop
      vertex -4.6 -9 3.8
      vertex -4.75451 -9.02447 3.8
      vertex -4.6 -9 0
    endloop
  endfacet
  facet normal 0 -1 0
    outer loop
      vertex -4.6 -9 3.8
      vertex -4.6 -9 0
      vertex 4.6 -9 0
    endloop
  endfacet
  facet normal 0 -1 0
    outer loop
      vertex 4.6 -9 3.8
      vertex -4.6 -9 3.8
      vertex 4.6 -9 0
    endloop
  endfacet
  facet normal 0.156435 -0.987688 0
    outer loop
      vertex 4.6 -9 3.8
      vertex 4.6 -9 0
      vertex 5.37254 -8.87764 0
    endloop
  endfacet
  facet normal 0.156435 -0.987688 0
    outer loop
      vertex 5.37254 -8.87764 3.8
      vertex 4.6 -9 3.8
      vertex 5.37254 -8.87764 0
    endloop
  endfacet
  facet normal 0.453991 -0.891007 0
    outer loop
      vertex 5.37254 -8.87764 3.8
      vertex 5.37254 -8.87764 0
      vertex 6.06946 -8.52254 0
    endloop
  endfacet
  facet normal 0.453991 -0.891007 0
    outer loop
      vertex 6.06946 -8.52254 3.8
      vertex 5.37254 -8.87764 3.8
      vertex 6.06946 -8.52254 0
    endloop
  endfacet
  facet normal 0.707107 -0.707107 0
    outer loop
      vertex 6.06946 -8.52254 3.8
      vertex 6.06946 -8.52254 0
      vertex 6.62254 -7.96946 0
    endloop
  endfacet
  facet normal 0.707107 -0.707107 0
    outer loop
      vertex 6.62254 -7.96946 3.8
      vertex 6.06946 -8.52254 3.8
      vertex 6.62254 -7.96946 0
    endloop
  endfacet
  facet normal 0.891007 -0.453991 0
    outer loop
      vertex 6.62254 -7.96946 3.8
      vertex 6.62254 -7.96946 0
      vertex 6.97764 -7.27254 0
    endloop
  endfacet
  facet normal 0.891007 -0.453991 0
    outer loop
      vertex 6.97764 -7.27254 3.8
      vertex 6.62254 -7.96946 3.8
      vertex 6.97764 -7.27254 0
    endloop
  endfacet
  facet normal 0.987688 -0.156435 0
    outer loop
      vertex 6.97764 -7.27254 3.8
      vertex 6.97764 -7.27254 0
      vertex 7.1 -6.5 0
    endloop
  endfacet
  facet normal 0.987688 -0.156435 0
    outer loop
      vertex 7.1 -6.5 3.8
      vertex 6.97764 -7.27254 3.8
      vertex 7.1 -6.5 0
    endloop
  endfacet
  facet normal 0.987688 0.156435 0
    outer loop
      vertex 7.1 -6.5 0
      vertex 6.97764 -5.72746 0
      vertex 6.97764 -5.72746 3.8
    endloop
  endfacet
  facet normal 0.987688 0.156435 -0
    outer loop
      vertex 7.1 -6.5 3.8
      vertex 7.1 -6.5 0
      vertex 6.97764 -5.72746 3.8
    endloop
  endfacet
  facet normal 0.891007 0.453991 0
    outer loop
      vertex 6.97764 -5.72746 0
      vertex 6.62254 -5.03054 0
      vertex 6.62254 -5.03054 3.8
    endloop
  endfacet
  facet normal 0.891007 0.453991 -0
    outer loop
      vertex 6.97764 -5.72746 3.8
      vertex 6.97764 -5.72746 0
      vertex 6.62254 -5.03054 3.8
    endloop
  endfacet
  facet normal 0.707107 0.707107 0
    outer loop
      vertex 6.06946 -4.47746 0
      vertex 6.06946 -4.47746 3.8
      vertex 6.62254 -5.03054 0
    endloop
  endfacet
  facet normal 0.707107 0.707107 0
    outer loop
      vertex 6.62254 -5.03054 0
      vertex 6.06946 -4.47746 3.8
      vertex 6.62254 -5.03054 3.8
    endloop
  endfacet
  facet normal 0.453991 0.891007 0
    outer loop
      vertex 5.37254 -4.12236 0
      vertex 5.37254 -4.12236 3.8
      vertex 6.06946 -4.47746 0
    endloop
  endfacet
  facet normal 0.453991 0.891007 0
    outer loop
      vertex 6.06946 -4.47746 0
      vertex 5.37254 -4.12236 3.8
      vertex 6.06946 -4.47746 3.8
    endloop
  endfacet
  facet normal 0.156435 0.987688 0
    outer loop
      vertex 4.6 -4 0
      vertex 4.6 -4 3.8
      vertex 5.37254 -4.12236 0
    endloop
  endfacet
  facet normal 0.156435 0.987688 0
    outer loop
      vertex 5.37254 -4.12236 0
      vertex 4.6 -4 3.8
      vertex 5.37254 -4.12236 3.8
    endloop
  endfacet
  facet normal 0 1 0
    outer loop
      vertex -4.6 -4 0
      vertex -4.6 -4 3.8
      vertex 4.6 -4 0
    endloop
  endfacet
  facet normal 0 1 0
    outer loop
      vertex 4.6 -4 0
      vertex -4.6 -4 3.8
      vertex 4.6 -4 3.8
    endloop
  endfacet
  facet normal 0.156437 0.987688 0
    outer loop
      vertex -4.75451 -3.97553 0
      vertex -4.75451 -3.97553 3.8
      vertex -4.6 -4 0
    endloop
  endfacet
  facet normal 0.156437 0.987688 0
    outer loop
      vertex -4.6 -4 0
      vertex -4.75451 -3.97553 3.8
      vertex -4.6 -4 3.8
    endloop
  endfacet
  facet normal 0.453989 0.891007 0
    outer loop
      vertex -4.89389 -3.90451 0
      vertex -4.89389 -3.90451 3.8
      vertex -4.75451 -3.97553 0
    endloop
  endfacet
  facet normal 0.453989 0.891007 0
    outer loop
      vertex -4.75451 -3.97553 0
      vertex -4.89389 -3.90451 3.8
      vertex -4.75451 -3.97553 3.8
    endloop
  endfacet
  facet normal 0.707107 0.707107 0
    outer loop
      vertex -5.00451 -3.79389 0
      vertex -5.00451 -3.79389 3.8
      vertex -4.89389 -3.90451 0
    endloop
  endfacet
  facet normal 0.707107 0.707107 0
    outer loop
      vertex -4.89389 -3.90451 0
      vertex -5.00451 -3.79389 3.8
      vertex -4.89389 -3.90451 3.8
    endloop
  endfacet
  facet normal 0.891007 0.453989 0
    outer loop
      vertex -5.00451 -3.79389 0
      vertex -5.07553 -3.65451 0
      vertex -5.07553 -3.65451 3.8
    endloop
  endfacet
  facet normal 0.891007 0.453989 -0
    outer loop
      vertex -5.00451 -3.79389 3.8
      vertex -5.00451 -3.79389 0
      vertex -5.07553 -3.65451 3.8
    endloop
  endfacet
  facet normal 0.987688 0.156437 0
    outer loop
      vertex -5.07553 -3.65451 0
      vertex -5.1 -3.5 0
      vertex -5.1 -3.5 3.8
    endloop
  endfacet
  facet normal 0.987688 0.156437 -0
    outer loop
      vertex -5.07553 -3.65451 3.8
      vertex -5.07553 -3.65451 0
      vertex -5.1 -3.5 3.8
    endloop
  endfacet
  facet normal 0.987688 -0.156437 0
    outer loop
      vertex -5.1 -3.5 3.8
      vertex -5.1 -3.5 0
      vertex -5.07553 -3.34549 0
    endloop
  endfacet
  facet normal 0.987688 -0.156437 0
    outer loop
      vertex -5.07553 -3.34549 3.8
      vertex -5.1 -3.5 3.8
      vertex -5.07553 -3.34549 0
    endloop
  endfacet
  facet normal 0.891007 -0.453989 0
    outer loop
      vertex -5.07553 -3.34549 3.8
      vertex -5.07553 -3.34549 0
      vertex -5.00451 -3.20611 0
    endloop
  endfacet
  facet normal 0.891007 -0.453989 0
    outer loop
      vertex -5.00451 -3.20611 3.8
      vertex -5.07553 -3.34549 3.8
      vertex -5.00451 -3.20611 0
    endloop
  endfacet
  facet normal 0.707107 -0.707107 0
    outer loop
      vertex -5.00451 -3.20611 3.8
      vertex -5.00451 -3.20611 0
      vertex -4.89389 -3.09549 0
    endloop
  endfacet
  facet normal 0.707107 -0.707107 0
    outer loop
      vertex -4.89389 -3.09549 3.8
      vertex -5.00451 -3.20611 3.8
      vertex -4.89389 -3.09549 0
    endloop
  endfacet
  facet normal 0.453989 -0.891007 0
    outer loop
      vertex -4.89389 -3.09549 3.8
      vertex -4.89389 -3.09549 0
      vertex -4.75451 -3.02447 0
    endloop
  endfacet
  facet normal 0.453989 -0.891007 0
    outer loop
      vertex -4.75451 -3.02447 3.8
      vertex -4.89389 -3.09549 3.8
      vertex -4.75451 -3.02447 0
    endloop
  endfacet
  facet normal 0.156437 -0.987688 0
    outer loop
      vertex -4.75451 -3.02447 3.8
      vertex -4.75451 -3.02447 0
      vertex -4.6 -3 0
    endloop
  endfacet
  facet normal 0.156437 -0.987688 0
    outer loop
      vertex -4.6 -3 3.8
      vertex -4.75451 -3.02447 3.8
      vertex -4.6 -3 0
    endloop
  endfacet
  facet normal 0 -1 0
    outer loop
      vertex -4.6 -3 3.8
      vertex -4.6 -3 0
      vertex 4.6 -3 0
    endloop
  endfacet
  facet normal 0 -1 0
    outer loop
      vertex 4.6 -3 3.8
      vertex -4.6 -3 3.8
      vertex 4.6 -3 0
    endloop
  endfacet
  facet normal 0.156435 -0.987688 0
    outer loop
      vertex 4.6 -3 3.8
      vertex 4.6 -3 0
      vertex 5.37254 -2.87764 0
    endloop
  endfacet
  facet normal 0.156435 -0.987688 0
    outer loop
      vertex 5.37254 -2.87764 3.8
      vertex 4.6 -3 3.8
      vertex 5.37254 -2.87764 0
    endloop
  endfacet
  facet normal 0.453991 -0.891007 0
    outer loop
      vertex 5.37254 -2.87764 3.8
      vertex 5.37254 -2.87764 0
      vertex 6.06946 -2.52254 0
    endloop
  endfacet
  facet normal 0.453991 -0.891007 0
    outer loop
      vertex 6.06946 -2.52254 3.8
      vertex 5.37254 -2.87764 3.8
      vertex 6.06946 -2.52254 0
    endloop
  endfacet
  facet normal 0.707107 -0.707107 0
    outer loop
      vertex 6.06946 -2.52254 3.8
      vertex 6.06946 -2.52254 0
      vertex 6.62254 -1.96946 0
    endloop
  endfacet
  facet normal 0.707107 -0.707107 0
    outer loop
      vertex 6.62254 -1.96946 3.8
      vertex 6.06946 -2.52254 3.8
      vertex 6.62254 -1.96946 0
    endloop
  endfacet
  facet normal 0.891007 -0.453991 0
    outer loop
      vertex 6.62254 -1.96946 3.8
      vertex 6.62254 -1.96946 0
      vertex 6.97764 -1.27254 0
    endloop
  endfacet
  facet normal 0.891007 -0.453991 0
    outer loop
      vertex 6.97764 -1.27254 3.8
      vertex 6.62254 -1.96946 3.8
      vertex 6.97764 -1.27254 0
    endloop
  endfacet
  facet normal 0.987688 -0.156435 0
    outer loop
      vertex 6.97764 -1.27254 3.8
      vertex 6.97764 -1.27254 0
      vertex 7.1 -0.5 0
    endloop
  endfacet
  facet normal 0.987688 -0.156435 0
    outer loop
      vertex 7.1 -0.5 3.8
      vertex 6.97764 -1.27254 3.8
      vertex 7.1 -0.5 0
    endloop
  endfacet
  facet normal 0.987688 0.156435 0
    outer loop
      vertex 7.1 -0.5 0
      vertex 6.97764 0.272542 0
      vertex 6.97764 0.272542 3.8
    endloop
  endfacet
  facet normal 0.987688 0.156435 -0
    outer loop
      vertex 7.1 -0.5 3.8
      vertex 7.1 -0.5 0
      vertex 6.97764 0.272542 3.8
    endloop
  endfacet
  facet normal 0.891007 0.453991 0
    outer loop
      vertex 6.97764 0.272542 0
      vertex 6.62254 0.969463 0
      vertex 6.62254 0.969463 3.8
    endloop
  endfacet
  facet normal 0.891007 0.453991 -0
    outer loop
      vertex 6.97764 0.272542 3.8
      vertex 6.97764 0.272542 0
      vertex 6.62254 0.969463 3.8
    endloop
  endfacet
  facet normal 0.707107 0.707107 0
    outer loop
      vertex 6.06946 1.52254 0
      vertex 6.06946 1.52254 3.8
      vertex 6.62254 0.969463 0
    endloop
  endfacet
  facet normal 0.707107 0.707107 0
    outer loop
      vertex 6.62254 0.969463 0
      vertex 6.06946 1.52254 3.8
      vertex 6.62254 0.969463 3.8
    endloop
  endfacet
  facet normal 0.453991 0.891007 0
    outer loop
      vertex 5.37254 1.87764 0
      vertex 5.37254 1.87764 3.8
      vertex 6.06946 1.52254 0
    endloop
  endfacet
  facet normal 0.453991 0.891007 0
    outer loop
      vertex 6.06946 1.52254 0
      vertex 5.37254 1.87764 3.8
      vertex 6.06946 1.52254 3.8
    endloop
  endfacet
  facet normal 0.156435 0.987688 0
    outer loop
      vertex 4.6 2 0
      vertex 4.6 2 3.8
      vertex 5.37254 1.87764 0
    endloop
  endfacet
  facet normal 0.156435 0.987688 0
    outer loop
      vertex 5.37254 1.87764 0
      vertex 4.6 2 3.8
      vertex 5.37254 1.87764 3.8
    endloop
  endfacet
  facet normal 0 1 0
    outer loop
      vertex -4.6 2 0
      vertex -4.6 2 3.8
      vertex 4.6 2 0
    endloop
  endfacet
  facet normal 0 1 0
    outer loop
      vertex 4.6 2 0
      vertex -4.6 2 3.8
      vertex 4.6 2 3.8
    endloop
  endfacet
  facet normal 0.156437 0.987688 0
    outer loop
      vertex -4.75451 2.02447 0
      vertex -4.75451 2.02447 3.8
      vertex -4.6 2 0
    endloop
  endfacet
  facet normal 0.156437 0.987688 0
    outer loop
      vertex -4.6 2 0
      vertex -4.75451 2.02447 3.8
      vertex -4.6 2 3.8
    endloop
  endfacet
  facet normal 0.453989 0.891007 0
    outer loop
      vertex -4.89389 2.09549 0
      vertex -4.89389 2.09549 3.8
      vertex -4.75451 2.02447 0
    endloop
  endfacet
  facet normal 0.453989 0.891007 0
    outer loop
      vertex -4.75451 2.02447 0
      vertex -4.89389 2.09549 3.8
      vertex -4.75451 2.02447 3.8
    endloop
  endfacet
  facet normal 0.707107 0.707107 0
    outer loop
      vertex -5.00451 2.20611 0
      vertex -5.00451 2.20611 3.8
      vertex -4.89389 2.09549 0
    endloop
  endfacet
  facet normal 0.707107 0.707107 0
    outer loop
      vertex -4.89389 2.09549 0
      vertex -5.00451 2.20611 3.8
      vertex -4.89389 2.09549 3.8
    endloop
  endfacet
  facet normal 0.891007 0.453989 0
    outer loop
      vertex -5.00451 2.20611 0
      vertex -5.07553 2.34549 0
      vertex -5.07553 2.34549 3.8
    endloop
  endfacet
  facet normal 0.891007 0.453989 -0
    outer loop
      vertex -5.00451 2.20611 3.8
      vertex -5.00451 2.20611 0
      vertex -5.07553 2.34549 3.8
    endloop
  endfacet
  facet normal 0.987688 0.156437 0
    outer loop
      vertex -5.07553 2.34549 0
      vertex -5.1 2.5 0
      vertex -5.1 2.5 3.8
    endloop
  endfacet
  facet normal 0.987688 0.156437 -0
    outer loop
      vertex -5.07553 2.34549 3.8
      vertex -5.07553 2.34549 0
      vertex -5.1 2.5 3.8
    endloop
  endfacet
  facet normal 0.987688 -0.156437 0
    outer loop
      vertex -5.1 2.5 3.8
      vertex -5.1 2.5 0
      vertex -5.07553 2.65451 0
    endloop
  endfacet
  facet normal 0.987688 -0.156437 0
    outer loop
      vertex -5.07553 2.65451 3.8
      vertex -5.1 2.5 3.8
      vertex -5.07553 2.65451 0
    endloop
  endfacet
  facet normal 0.891007 -0.453989 0
    outer loop
      vertex -5.07553 2.65451 3.8
      vertex -5.07553 2.65451 0
      vertex -5.00451 2.79389 0
    endloop
  endfacet
  facet normal 0.891007 -0.453989 0
    outer loop
      vertex -5.00451 2.79389 3.8
      vertex -5.07553 2.65451 3.8
      vertex -5.00451 2.79389 0
    endloop
  endfacet
  facet normal 0.707107 -0.707107 0
    outer loop
      vertex -5.00451 2.79389 3.8
      vertex -5.00451 2.79389 0
      vertex -4.89389 2.90451 0
    endloop
  endfacet
  facet normal 0.707107 -0.707107 0
    outer loop
      vertex -4.89389 2.90451 3.8
      vertex -5.00451 2.79389 3.8
      vertex -4.89389 2.90451 0
    endloop
  endfacet
  facet normal 0.453989 -0.891007 0
    outer loop
      vertex -4.89389 2.90451 3.8
      vertex -4.89389 2.90451 0
      vertex -4.75451 2.97553 0
    endloop
  endfacet
  facet normal 0.453989 -0.891007 0
    outer loop
      vertex -4.75451 2.97553 3.8
      vertex -4.89389 2.90451 3.8
      vertex -4.75451 2.97553 0
    endloop
  endfacet
  facet normal 0.156437 -0.987688 0
    outer loop
      vertex -4.75451 2.97553 3.8
      vertex -4.75451 2.97553 0
      vertex -4.6 3 0
    endloop
  endfacet
  facet normal 0.156437 -0.987688 0
    outer loop
      vertex -4.6 3 3.8
      vertex -4.75451 2.97553 3.8
      vertex -4.6 3 0
    endloop
  endfacet
  facet normal 0 -1 0
    outer loop
      vertex 7.1 3 0
      vertex 7.1 3 3.8
      vertex -4.6 3 3.8
    endloop
  endfacet
  facet normal -0 -1 -0
    outer loop
      vertex -4.6 3 0
      vertex 7.1 3 0
      vertex -4.6 3 3.8
    endloop
  endfacet
  facet normal 1 0 -0
    outer loop
      vertex 7.1 3 3.8
      vertex 7.1 3 0
      vertex 7.1 9.443 0
    endloop
  endfacet
  facet normal 1 0 0
    outer loop
      vertex 7.1 9.443 3.8
      vertex 7.1 3 3.8
      vertex 7.1 9.443 0
    endloop
  endfacet
  facet normal 0 1 0
    outer loop
      vertex 7.1 9.443 3.8
      vertex 7.1 9.443 0
      vertex 1.54865 9.443 3.8
    endloop
  endfacet
  facet normal -3.19986e-16 1 -4.67462e-16
    outer loop
      vertex 1.54865 9.443 3.8
      vertex 7.1 9.443 0
      vertex 1.54865 9.443 0
    endloop
  endfacet
  facet normal -0.942579 -0.333985 3.76435e-16
    outer loop
      vertex 2.9355 5.529 3.8
      vertex 1.54865 9.443 3.8
      vertex 2.9355 5.529 0
    endloop
  endfacet
  facet normal -0.942579 -0.333985 4.22226e-16
    outer loop
      vertex 2.9355 5.529 0
      vertex 1.54865 9.443 3.8
      vertex 1.54865 9.443 0
    endloop
  endfacet
  facet normal -3.02565e-16 1 -4.67462e-16
    outer loop
      vertex 2.9355 5.529 3.8
      vertex 2.9355 5.529 0
      vertex -2.9355 5.529 3.8
    endloop
  endfacet
  facet normal -1.51282e-16 1 -2.33731e-16
    outer loop
      vertex -2.9355 5.529 3.8
      vertex 2.9355 5.529 0
      vertex -2.9355 5.529 0
    endloop
  endfacet
  facet normal 0.942579 -0.333985 -1.10155e-16
    outer loop
      vertex -1.54865 9.443 0
      vertex -1.54865 9.443 3.8
      vertex -2.9355 5.529 3.8
    endloop
  endfacet
  facet normal 0.942579 -0.333985 -1.42247e-16
    outer loop
      vertex -2.9355 5.529 0
      vertex -1.54865 9.443 0
      vertex -2.9355 5.529 3.8
    endloop
  endfacet
  facet normal 0 1 0
    outer loop
      vertex -1.54865 9.443 3.8
      vertex -1.54865 9.443 0
      vertex -7.1 9.443 3.8
    endloop
  endfacet
  facet normal -3.19986e-16 1 -4.67462e-16
    outer loop
      vertex -7.1 9.443 3.8
      vertex -1.54865 9.443 0
      vertex -7.1 9.443 0
    endloop
  endfacet
  facet normal -1 -0 -0
    outer loop
      vertex -7.1 4.5 0
      vertex -7.1 4.5 3.8
      vertex -7.1 9.443 0
    endloop
  endfacet
  facet normal -1 0 -0
    outer loop
      vertex -7.1 9.443 0
      vertex -7.1 4.5 3.8
      vertex -7.1 9.443 3.8
    endloop
  endfacet
  facet normal 0 -1 0
    outer loop
      vertex -7.1 4.5 3.8
      vertex -7.1 4.5 0
      vertex -6.092 4.5 0
    endloop
  endfacet
  facet normal 0 -1 0
    outer loop
      vertex -6.092 4.5 3.8
      vertex -7.1 4.5 3.8
      vertex -6.092 4.5 0
    endloop
  endfacet
  facet normal -0.707107 0.707107 0
    outer loop
      vertex -6.092 4.5 3.8
      vertex -6.092 4.5 0
      vertex -6.62254 3.96946 3.8
    endloop
  endfacet
  facet normal -0.707107 0.707107 0
    outer loop
      vertex -6.62254 3.96946 3.8
      vertex -6.092 4.5 0
      vertex -6.62254 3.96946 0
    endloop
  endfacet
  facet normal -0.891007 0.453991 0
    outer loop
      vertex -6.62254 3.96946 3.8
      vertex -6.62254 3.96946 0
      vertex -6.97764 3.27254 3.8
    endloop
  endfacet
  facet normal -0.891007 0.453991 0
    outer loop
      vertex -6.97764 3.27254 3.8
      vertex -6.62254 3.96946 0
      vertex -6.97764 3.27254 0
    endloop
  endfacet
  facet normal -0.987688 0.156435 0
    outer loop
      vertex -6.97764 3.27254 3.8
      vertex -6.97764 3.27254 0
      vertex -7.1 2.5 3.8
    endloop
  endfacet
  facet normal -0.987688 0.156435 0
    outer loop
      vertex -7.1 2.5 3.8
      vertex -6.97764 3.27254 0
      vertex -7.1 2.5 0
    endloop
  endfacet
  facet normal -0.987688 -0.156435 0
    outer loop
      vertex -6.97764 1.72746 3.8
      vertex -7.1 2.5 3.8
      vertex -6.97764 1.72746 0
    endloop
  endfacet
  facet normal -0.987688 -0.156435 0
    outer loop
      vertex -6.97764 1.72746 0
      vertex -7.1 2.5 3.8
      vertex -7.1 2.5 0
    endloop
  endfacet
  facet normal -0.891007 -0.453991 0
    outer loop
      vertex -6.62254 1.03054 3.8
      vertex -6.97764 1.72746 3.8
      vertex -6.62254 1.03054 0
    endloop
  endfacet
  facet normal -0.891007 -0.453991 0
    outer loop
      vertex -6.62254 1.03054 0
      vertex -6.97764 1.72746 3.8
      vertex -6.97764 1.72746 0
    endloop
  endfacet
  facet normal -0.707107 -0.707107 -0
    outer loop
      vertex -6.06946 0.477458 0
      vertex -6.06946 0.477458 3.8
      vertex -6.62254 1.03054 3.8
    endloop
  endfacet
  facet normal -0.707107 -0.707107 -0
    outer loop
      vertex -6.62254 1.03054 0
      vertex -6.06946 0.477458 0
      vertex -6.62254 1.03054 3.8
    endloop
  endfacet
  facet normal -0.453991 -0.891007 -0
    outer loop
      vertex -5.37254 0.122359 0
      vertex -5.37254 0.122359 3.8
      vertex -6.06946 0.477458 3.8
    endloop
  endfacet
  facet normal -0.453991 -0.891007 -0
    outer loop
      vertex -6.06946 0.477458 0
      vertex -5.37254 0.122359 0
      vertex -6.06946 0.477458 3.8
    endloop
  endfacet
  facet normal -0.156435 -0.987688 -0
    outer loop
      vertex -4.6 0 0
      vertex -4.6 0 3.8
      vertex -5.37254 0.122359 3.8
    endloop
  endfacet
  facet normal -0.156435 -0.987688 -0
    outer loop
      vertex -5.37254 0.122359 0
      vertex -4.6 0 0
      vertex -5.37254 0.122359 3.8
    endloop
  endfacet
  facet normal 0 -1 0
    outer loop
      vertex -4.6 0 3.8
      vertex -4.6 0 0
      vertex 4.6 0 0
    endloop
  endfacet
  facet normal 0 -1 0
    outer loop
      vertex 4.6 0 3.8
      vertex -4.6 0 3.8
      vertex 4.6 0 0
    endloop
  endfacet
  facet normal -0.156437 -0.987688 -0
    outer loop
      vertex 4.75451 -0.024472 0
      vertex 4.75451 -0.024472 3.8
      vertex 4.6 0 3.8
    endloop
  endfacet
  facet normal -0.156437 -0.987688 -0
    outer loop
      vertex 4.6 0 0
      vertex 4.75451 -0.024472 0
      vertex 4.6 0 3.8
    endloop
  endfacet
  facet normal -0.453989 -0.891007 -0
    outer loop
      vertex 4.89389 -0.095492 0
      vertex 4.89389 -0.095492 3.8
      vertex 4.75451 -0.024472 3.8
    endloop
  endfacet
  facet normal -0.453989 -0.891007 -0
    outer loop
      vertex 4.75451 -0.024472 0
      vertex 4.89389 -0.095492 0
      vertex 4.75451 -0.024472 3.8
    endloop
  endfacet
  facet normal -0.707107 -0.707107 -0
    outer loop
      vertex 5.00451 -0.206107 0
      vertex 5.00451 -0.206107 3.8
      vertex 4.89389 -0.095492 3.8
    endloop
  endfacet
  facet normal -0.707107 -0.707107 -0
    outer loop
      vertex 4.89389 -0.095492 0
      vertex 5.00451 -0.206107 0
      vertex 4.89389 -0.095492 3.8
    endloop
  endfacet
  facet normal -0.891007 -0.453989 0
    outer loop
      vertex 5.07553 -0.345492 3.8
      vertex 5.00451 -0.206107 3.8
      vertex 5.07553 -0.345492 0
    endloop
  endfacet
  facet normal -0.891007 -0.453989 0
    outer loop
      vertex 5.07553 -0.345492 0
      vertex 5.00451 -0.206107 3.8
      vertex 5.00451 -0.206107 0
    endloop
  endfacet
  facet normal -0.987688 -0.156437 0
    outer loop
      vertex 5.1 -0.5 3.8
      vertex 5.07553 -0.345492 3.8
      vertex 5.1 -0.5 0
    endloop
  endfacet
  facet normal -0.987688 -0.156437 0
    outer loop
      vertex 5.1 -0.5 0
      vertex 5.07553 -0.345492 3.8
      vertex 5.07553 -0.345492 0
    endloop
  endfacet
  facet normal -0.987688 0.156437 0
    outer loop
      vertex 5.1 -0.5 3.8
      vertex 5.1 -0.5 0
      vertex 5.07553 -0.654508 3.8
    endloop
  endfacet
  facet normal -0.987688 0.156437 0
    outer loop
      vertex 5.07553 -0.654508 3.8
      vertex 5.1 -0.5 0
      vertex 5.07553 -0.654508 0
    endloop
  endfacet
  facet normal -0.891007 0.453989 0
    outer loop
      vertex 5.07553 -0.654508 3.8
      vertex 5.07553 -0.654508 0
      vertex 5.00451 -0.793893 3.8
    endloop
  endfacet
  facet normal -0.891007 0.453989 0
    outer loop
      vertex 5.00451 -0.793893 3.8
      vertex 5.07553 -0.654508 0
      vertex 5.00451 -0.793893 0
    endloop
  endfacet
  facet normal -0.707107 0.707107 0
    outer loop
      vertex 5.00451 -0.793893 3.8
      vertex 5.00451 -0.793893 0
      vertex 4.89389 -0.904508 3.8
    endloop
  endfacet
  facet normal -0.707107 0.707107 0
    outer loop
      vertex 4.89389 -0.904508 3.8
      vertex 5.00451 -0.793893 0
      vertex 4.89389 -0.904508 0
    endloop
  endfacet
  facet normal -0.453989 0.891007 0
    outer loop
      vertex 4.89389 -0.904508 3.8
      vertex 4.89389 -0.904508 0
      vertex 4.75451 -0.975528 3.8
    endloop
  endfacet
  facet normal -0.453989 0.891007 0
    outer loop
      vertex 4.75451 -0.975528 3.8
      vertex 4.89389 -0.904508 0
      vertex 4.75451 -0.975528 0
    endloop
  endfacet
  facet normal -0.156437 0.987688 0
    outer loop
      vertex 4.75451 -0.975528 3.8
      vertex 4.75451 -0.975528 0
      vertex 4.6 -1 3.8
    endloop
  endfacet
  facet normal -0.156437 0.987688 0
    outer loop
      vertex 4.6 -1 3.8
      vertex 4.75451 -0.975528 0
      vertex 4.6 -1 0
    endloop
  endfacet
  facet normal 0 1 0
    outer loop
      vertex -4.6 -1 0
      vertex -4.6 -1 3.8
      vertex 4.6 -1 0
    endloop
  endfacet
  facet normal 0 1 0
    outer loop
      vertex 4.6 -1 0
      vertex -4.6 -1 3.8
      vertex 4.6 -1 3.8
    endloop
  endfacet
  facet normal -0.156435 0.987688 0
    outer loop
      vertex -4.6 -1 3.8
      vertex -4.6 -1 0
      vertex -5.37254 -1.12236 3.8
    endloop
  endfacet
  facet normal -0.156435 0.987688 0
    outer loop
      vertex -5.37254 -1.12236 3.8
      vertex -4.6 -1 0
      vertex -5.37254 -1.12236 0
    endloop
  endfacet
  facet normal -0.453991 0.891007 0
    outer loop
      vertex -5.37254 -1.12236 3.8
      vertex -5.37254 -1.12236 0
      vertex -6.06946 -1.47746 3.8
    endloop
  endfacet
  facet normal -0.453991 0.891007 0
    outer loop
      vertex -6.06946 -1.47746 3.8
      vertex -5.37254 -1.12236 0
      vertex -6.06946 -1.47746 0
    endloop
  endfacet
  facet normal -0.707107 0.707107 0
    outer loop
      vertex -6.06946 -1.47746 3.8
      vertex -6.06946 -1.47746 0
      vertex -6.62254 -2.03054 3.8
    endloop
  endfacet
  facet normal -0.707107 0.707107 0
    outer loop
      vertex -6.62254 -2.03054 3.8
      vertex -6.06946 -1.47746 0
      vertex -6.62254 -2.03054 0
    endloop
  endfacet
  facet normal -0.891007 0.453991 0
    outer loop
      vertex -6.62254 -2.03054 3.8
      vertex -6.62254 -2.03054 0
      vertex -6.97764 -2.72746 3.8
    endloop
  endfacet
  facet normal -0.891007 0.453991 0
    outer loop
      vertex -6.97764 -2.72746 3.8
      vertex -6.62254 -2.03054 0
      vertex -6.97764 -2.72746 0
    endloop
  endfacet
  facet normal -0.987688 0.156435 0
    outer loop
      vertex -6.97764 -2.72746 3.8
      vertex -6.97764 -2.72746 0
      vertex -7.1 -3.5 3.8
    endloop
  endfacet
  facet normal -0.987688 0.156435 0
    outer loop
      vertex -7.1 -3.5 3.8
      vertex -6.97764 -2.72746 0
      vertex -7.1 -3.5 0
    endloop
  endfacet
  facet normal -0.987688 -0.156435 0
    outer loop
      vertex -6.97764 -4.27254 3.8
      vertex -7.1 -3.5 3.8
      vertex -6.97764 -4.27254 0
    endloop
  endfacet
  facet normal -0.987688 -0.156435 0
    outer loop
      vertex -6.97764 -4.27254 0
      vertex -7.1 -3.5 3.8
      vertex -7.1 -3.5 0
    endloop
  endfacet
  facet normal -0.891007 -0.453991 0
    outer loop
      vertex -6.62254 -4.96946 3.8
      vertex -6.97764 -4.27254 3.8
      vertex -6.62254 -4.96946 0
    endloop
  endfacet
  facet normal -0.891007 -0.453991 0
    outer loop
      vertex -6.62254 -4.96946 0
      vertex -6.97764 -4.27254 3.8
      vertex -6.97764 -4.27254 0
    endloop
  endfacet
  facet normal -0.707107 -0.707107 -0
    outer loop
      vertex -6.06946 -5.52254 0
      vertex -6.06946 -5.52254 3.8
      vertex -6.62254 -4.96946 3.8
    endloop
  endfacet
  facet normal -0.707107 -0.707107 -0
    outer loop
      vertex -6.62254 -4.96946 0
      vertex -6.06946 -5.52254 0
      vertex -6.62254 -4.96946 3.8
    endloop
  endfacet
  facet normal -0.453991 -0.891007 -0
    outer loop
      vertex -5.37254 -5.87764 0
      vertex -5.37254 -5.87764 3.8
      vertex -6.06946 -5.52254 3.8
    endloop
  endfacet
  facet normal -0.453991 -0.891007 -0
    outer loop
      vertex -6.06946 -5.52254 0
      vertex -5.37254 -5.87764 0
      vertex -6.06946 -5.52254 3.8
    endloop
  endfacet
  facet normal -0.156435 -0.987688 -0
    outer loop
      vertex -4.6 -6 0
      vertex -4.6 -6 3.8
      vertex -5.37254 -5.87764 3.8
    endloop
  endfacet
  facet normal -0.156435 -0.987688 -0
    outer loop
      vertex -5.37254 -5.87764 0
      vertex -4.6 -6 0
      vertex -5.37254 -5.87764 3.8
    endloop
  endfacet
  facet normal 0 -1 0
    outer loop
      vertex -4.6 -6 3.8
      vertex -4.6 -6 0
      vertex 4.6 -6 0
    endloop
  endfacet
  facet normal 0 -1 0
    outer loop
      vertex 4.6 -6 3.8
      vertex -4.6 -6 3.8
      vertex 4.6 -6 0
    endloop
  endfacet
  facet normal -0.156437 -0.987688 -0
    outer loop
      vertex 4.75451 -6.02447 0
      vertex 4.75451 -6.02447 3.8
      vertex 4.6 -6 3.8
    endloop
  endfacet
  facet normal -0.156437 -0.987688 -0
    outer loop
      vertex 4.6 -6 0
      vertex 4.75451 -6.02447 0
      vertex 4.6 -6 3.8
    endloop
  endfacet
  facet normal -0.453989 -0.891007 -0
    outer loop
      vertex 4.89389 -6.09549 0
      vertex 4.89389 -6.09549 3.8
      vertex 4.75451 -6.02447 3.8
    endloop
  endfacet
  facet normal -0.453989 -0.891007 -0
    outer loop
      vertex 4.75451 -6.02447 0
      vertex 4.89389 -6.09549 0
      vertex 4.75451 -6.02447 3.8
    endloop
  endfacet
  facet normal -0.707107 -0.707107 -0
    outer loop
      vertex 5.00451 -6.20611 0
      vertex 5.00451 -6.20611 3.8
      vertex 4.89389 -6.09549 3.8
    endloop
  endfacet
  facet normal -0.707107 -0.707107 -0
    outer loop
      vertex 4.89389 -6.09549 0
      vertex 5.00451 -6.20611 0
      vertex 4.89389 -6.09549 3.8
    endloop
  endfacet
  facet normal -0.891007 -0.453989 0
    outer loop
      vertex 5.07553 -6.34549 3.8
      vertex 5.00451 -6.20611 3.8
      vertex 5.07553 -6.34549 0
    endloop
  endfacet
  facet normal -0.891007 -0.453989 0
    outer loop
      vertex 5.07553 -6.34549 0
      vertex 5.00451 -6.20611 3.8
      vertex 5.00451 -6.20611 0
    endloop
  endfacet
  facet normal -0.987688 -0.156437 0
    outer loop
      vertex 5.1 -6.5 3.8
      vertex 5.07553 -6.34549 3.8
      vertex 5.1 -6.5 0
    endloop
  endfacet
  facet normal -0.987688 -0.156437 0
    outer loop
      vertex 5.1 -6.5 0
      vertex 5.07553 -6.34549 3.8
      vertex 5.07553 -6.34549 0
    endloop
  endfacet
  facet normal -0.987688 0.156437 0
    outer loop
      vertex 5.1 -6.5 3.8
      vertex 5.1 -6.5 0
      vertex 5.07553 -6.65451 3.8
    endloop
  endfacet
  facet normal -0.987688 0.156437 0
    outer loop
      vertex 5.07553 -6.65451 3.8
      vertex 5.1 -6.5 0
      vertex 5.07553 -6.65451 0
    endloop
  endfacet
  facet normal -0.891007 0.453989 0
    outer loop
      vertex 5.07553 -6.65451 3.8
      vertex 5.07553 -6.65451 0
      vertex 5.00451 -6.79389 3.8
    endloop
  endfacet
  facet normal -0.891007 0.453989 0
    outer loop
      vertex 5.00451 -6.79389 3.8
      vertex 5.07553 -6.65451 0
      vertex 5.00451 -6.79389 0
    endloop
  endfacet
  facet normal -0.707107 0.707107 0
    outer loop
      vertex 5.00451 -6.79389 3.8
      vertex 5.00451 -6.79389 0
      vertex 4.89389 -6.90451 3.8
    endloop
  endfacet
  facet normal -0.707107 0.707107 0
    outer loop
      vertex 4.89389 -6.90451 3.8
      vertex 5.00451 -6.79389 0
      vertex 4.89389 -6.90451 0
    endloop
  endfacet
  facet normal -0.453989 0.891007 0
    outer loop
      vertex 4.89389 -6.90451 3.8
      vertex 4.89389 -6.90451 0
      vertex 4.75451 -6.97553 3.8
    endloop
  endfacet
  facet normal -0.453989 0.891007 0
    outer loop
      vertex 4.75451 -6.97553 3.8
      vertex 4.89389 -6.90451 0
      vertex 4.75451 -6.97553 0
    endloop
  endfacet
  facet normal -0.156437 0.987688 0
    outer loop
      vertex 4.75451 -6.97553 3.8
      vertex 4.75451 -6.97553 0
      vertex 4.6 -7 3.8
    endloop
  endfacet
  facet normal -0.156437 0.987688 0
    outer loop
      vertex 4.6 -7 3.8
      vertex 4.75451 -6.97553 0
      vertex 4.6 -7 0
    endloop
  endfacet
  facet normal 0 1 0
    outer loop
      vertex -4.6 -7 0
      vertex -4.6 -7 3.8
      vertex 4.6 -7 0
    endloop
  endfacet
  facet normal 0 1 0
    outer loop
      vertex 4.6 -7 0
      vertex -4.6 -7 3.8
      vertex 4.6 -7 3.8
    endloop
  endfacet
  facet normal -0.156435 0.987688 0
    outer loop
      vertex -4.6 -7 3.8
      vertex -4.6 -7 0
      vertex -5.37254 -7.12236 3.8
    endloop
  endfacet
  facet normal -0.156435 0.987688 0
    outer loop
      vertex -5.37254 -7.12236 3.8
      vertex -4.6 -7 0
      vertex -5.37254 -7.12236 0
    endloop
  endfacet
  facet normal -0.453991 0.891007 0
    outer loop
      vertex -5.37254 -7.12236 3.8
      vertex -5.37254 -7.12236 0
      vertex -6.06946 -7.47746 3.8
    endloop
  endfacet
  facet normal -0.453991 0.891007 0
    outer loop
      vertex -6.06946 -7.47746 3.8
      vertex -5.37254 -7.12236 0
      vertex -6.06946 -7.47746 0
    endloop
  endfacet
  facet normal -0.707107 0.707107 0
    outer loop
      vertex -6.06946 -7.47746 3.8
      vertex -6.06946 -7.47746 0
      vertex -6.62254 -8.03054 3.8
    endloop
  endfacet
  facet normal -0.707107 0.707107 0
    outer loop
      vertex -6.62254 -8.03054 3.8
      vertex -6.06946 -7.47746 0
      vertex -6.62254 -8.03054 0
    endloop
  endfacet
  facet normal -0.891007 0.453991 0
    outer loop
      vertex -6.62254 -8.03054 3.8
      vertex -6.62254 -8.03054 0
      vertex -6.97764 -8.72746 3.8
    endloop
  endfacet
  facet normal -0.891007 0.453991 0
    outer loop
      vertex -6.97764 -8.72746 3.8
      vertex -6.62254 -8.03054 0
      vertex -6.97764 -8.72746 0
    endloop
  endfacet
  facet normal -0.987688 0.156435 0
    outer loop
      vertex -6.97764 -8.72746 3.8
      vertex -6.97764 -8.72746 0
      vertex -7.1 -9.5 3.8
    endloop
  endfacet
  facet normal -0.987688 0.156435 0
    outer loop
      vertex -7.1 -9.5 3.8
      vertex -6.97764 -8.72746 0
      vertex -7.1 -9.5 0
    endloop
  endfacet
  facet normal -0.987688 -0.156435 0
    outer loop
      vertex -6.97764 -10.2725 3.8
      vertex -7.1 -9.5 3.8
      vertex -6.97764 -10.2725 0
    endloop
  endfacet
  facet normal -0.987688 -0.156435 0
    outer loop
      vertex -6.97764 -10.2725 0
      vertex -7.1 -9.5 3.8
      vertex -7.1 -9.5 0
    endloop
  endfacet
  facet normal -0.891007 -0.453991 0
    outer loop
      vertex -6.62254 -10.9695 3.8
      vertex -6.97764 -10.2725 3.8
      vertex -6.62254 -10.9695 0
    endloop
  endfacet
  facet normal -0.891007 -0.453991 0
    outer loop
      vertex -6.62254 -10.9695 0
      vertex -6.97764 -10.2725 3.8
      vertex -6.97764 -10.2725 0
    endloop
  endfacet
  facet normal -0.707107 -0.707107 -0
    outer loop
      vertex -6.06946 -11.5225 0
      vertex -6.06946 -11.5225 3.8
      vertex -6.62254 -10.9695 3.8
    endloop
  endfacet
  facet normal -0.707107 -0.707107 -0
    outer loop
      vertex -6.62254 -10.9695 0
      vertex -6.06946 -11.5225 0
      vertex -6.62254 -10.9695 3.8
    endloop
  endfacet
  facet normal -0.453991 -0.891007 -0
    outer loop
      vertex -5.37254 -11.8776 0
      vertex -5.37254 -11.8776 3.8
      vertex -6.06946 -11.5225 3.8
    endloop
  endfacet
  facet normal -0.453991 -0.891007 -0
    outer loop
      vertex -6.06946 -11.5225 0
      vertex -5.37254 -11.8776 0
      vertex -6.06946 -11.5225 3.8
    endloop
  endfacet
  facet normal -0.156435 -0.987688 -0
    outer loop
      vertex -4.6 -12 0
      vertex -4.6 -12 3.8
      vertex -5.37254 -11.8776 3.8
    endloop
  endfacet
  facet normal -0.156435 -0.987688 -0
    outer loop
      vertex -5.37254 -11.8776 0
      vertex -4.6 -12 0
      vertex -5.37254 -11.8776 3.8
    endloop
  endfacet
  facet normal 0 -1 0
    outer loop
      vertex -4.6 -12 3.8
      vertex -4.6 -12 0
      vertex 4.6 -12 0
    endloop
  endfacet
  facet normal 0 -1 0
    outer loop
      vertex 4.6 -12 3.8
      vertex -4.6 -12 3.8
      vertex 4.6 -12 0
    endloop
  endfacet
  facet normal -0.156437 -0.987688 -0
    outer loop
      vertex 4.75451 -12.0245 0
      vertex 4.75451 -12.0245 3.8
      vertex 4.6 -12 3.8
    endloop
  endfacet
  facet normal -0.156437 -0.987688 -0
    outer loop
      vertex 4.6 -12 0
      vertex 4.75451 -12.0245 0
      vertex 4.6 -12 3.8
    endloop
  endfacet
  facet normal -0.453989 -0.891007 -0
    outer loop
      vertex 4.89389 -12.0955 0
      vertex 4.89389 -12.0955 3.8
      vertex 4.75451 -12.0245 3.8
    endloop
  endfacet
  facet normal -0.453989 -0.891007 -0
    outer loop
      vertex 4.75451 -12.0245 0
      vertex 4.89389 -12.0955 0
      vertex 4.75451 -12.0245 3.8
    endloop
  endfacet
  facet normal -0.707107 -0.707107 -0
    outer loop
      vertex 5.00451 -12.2061 0
      vertex 5.00451 -12.2061 3.8
      vertex 4.89389 -12.0955 3.8
    endloop
  endfacet
  facet normal -0.707107 -0.707107 -0
    outer loop
      vertex 4.89389 -12.0955 0
      vertex 5.00451 -12.2061 0
      vertex 4.89389 -12.0955 3.8
    endloop
  endfacet
  facet normal -0.891007 -0.453989 0
    outer loop
      vertex 5.07553 -12.3455 3.8
      vertex 5.00451 -12.2061 3.8
      vertex 5.07553 -12.3455 0
    endloop
  endfacet
  facet normal -0.891007 -0.453989 0
    outer loop
      vertex 5.07553 -12.3455 0
      vertex 5.00451 -12.2061 3.8
      vertex 5.00451 -12.2061 0
    endloop
  endfacet
  facet normal -0.987688 -0.156437 0
    outer loop
      vertex 5.1 -12.5 3.8
      vertex 5.07553 -12.3455 3.8
      vertex 5.1 -12.5 0
    endloop
  endfacet
  facet normal -0.987688 -0.156437 0
    outer loop
      vertex 5.1 -12.5 0
      vertex 5.07553 -12.3455 3.8
      vertex 5.07553 -12.3455 0
    endloop
  endfacet
  facet normal -0.987688 0.156437 0
    outer loop
      vertex 5.1 -12.5 3.8
      vertex 5.1 -12.5 0
      vertex 5.07553 -12.6545 3.8
    endloop
  endfacet
  facet normal -0.987688 0.156437 0
    outer loop
      vertex 5.07553 -12.6545 3.8
      vertex 5.1 -12.5 0
      vertex 5.07553 -12.6545 0
    endloop
  endfacet
  facet normal -0.891007 0.453989 0
    outer loop
      vertex 5.07553 -12.6545 3.8
      vertex 5.07553 -12.6545 0
      vertex 5.00451 -12.7939 3.8
    endloop
  endfacet
  facet normal -0.891007 0.453989 0
    outer loop
      vertex 5.00451 -12.7939 3.8
      vertex 5.07553 -12.6545 0
      vertex 5.00451 -12.7939 0
    endloop
  endfacet
  facet normal -0.707107 0.707107 0
    outer loop
      vertex 5.00451 -12.7939 3.8
      vertex 5.00451 -12.7939 0
      vertex 4.89389 -12.9045 3.8
    endloop
  endfacet
  facet normal -0.707107 0.707107 0
    outer loop
      vertex 4.89389 -12.9045 3.8
      vertex 5.00451 -12.7939 0
      vertex 4.89389 -12.9045 0
    endloop
  endfacet
  facet normal -0.453989 0.891007 0
    outer loop
      vertex 4.89389 -12.9045 3.8
      vertex 4.89389 -12.9045 0
      vertex 4.75451 -12.9755 3.8
    endloop
  endfacet
  facet normal -0.453989 0.891007 0
    outer loop
      vertex 4.75451 -12.9755 3.8
      vertex 4.89389 -12.9045 0
      vertex 4.75451 -12.9755 0
    endloop
  endfacet
  facet normal -0.156437 0.987688 0
    outer loop
      vertex 4.75451 -12.9755 3.8
      vertex 4.75451 -12.9755 0
      vertex 4.6 -13 3.8
    endloop
  endfacet
  facet normal -0.156437 0.987688 0
    outer loop
      vertex 4.6 -13 3.8
      vertex 4.75451 -12.9755 0
      vertex 4.6 -13 0
    endloop
  endfacet
endsolid OpenSCAD_Model
