G75*
G70*
%OFA0B0*%
%FSLAX24Y24*%
%IPPOS*%
%LPD*%
%AMOC8*
5,1,8,0,0,1.08239X$1,22.5*
%
%ADD10C,0.0000*%
%ADD11C,0.0040*%
%ADD12C,0.0070*%
%ADD13C,0.0080*%
%ADD14C,0.0001*%
%ADD15C,0.0060*%
%ADD16C,0.0020*%
%ADD17C,0.0050*%
%ADD18C,0.0100*%
%ADD19C,0.0030*%
%ADD20R,0.0079X0.0079*%
%ADD21R,0.0197X0.0295*%
D10*
X000500Y000500D02*
X000500Y021500D01*
X025900Y021500D01*
X026500Y020900D01*
X026500Y016400D01*
X027500Y015400D01*
X027500Y002500D01*
X026500Y001500D01*
X026500Y000500D01*
X000500Y000500D01*
X005409Y001500D02*
X005411Y001548D01*
X005417Y001596D01*
X005427Y001643D01*
X005440Y001689D01*
X005458Y001734D01*
X005478Y001778D01*
X005503Y001820D01*
X005531Y001859D01*
X005561Y001896D01*
X005595Y001930D01*
X005632Y001962D01*
X005670Y001991D01*
X005711Y002016D01*
X005754Y002038D01*
X005799Y002056D01*
X005845Y002070D01*
X005892Y002081D01*
X005940Y002088D01*
X005988Y002091D01*
X006036Y002090D01*
X006084Y002085D01*
X006132Y002076D01*
X006178Y002064D01*
X006223Y002047D01*
X006267Y002027D01*
X006309Y002004D01*
X006349Y001977D01*
X006387Y001947D01*
X006422Y001914D01*
X006454Y001878D01*
X006484Y001840D01*
X006510Y001799D01*
X006532Y001756D01*
X006552Y001712D01*
X006567Y001667D01*
X006579Y001620D01*
X006587Y001572D01*
X006591Y001524D01*
X006591Y001476D01*
X006587Y001428D01*
X006579Y001380D01*
X006567Y001333D01*
X006552Y001288D01*
X006532Y001244D01*
X006510Y001201D01*
X006484Y001160D01*
X006454Y001122D01*
X006422Y001086D01*
X006387Y001053D01*
X006349Y001023D01*
X006309Y000996D01*
X006267Y000973D01*
X006223Y000953D01*
X006178Y000936D01*
X006132Y000924D01*
X006084Y000915D01*
X006036Y000910D01*
X005988Y000909D01*
X005940Y000912D01*
X005892Y000919D01*
X005845Y000930D01*
X005799Y000944D01*
X005754Y000962D01*
X005711Y000984D01*
X005670Y001009D01*
X005632Y001038D01*
X005595Y001070D01*
X005561Y001104D01*
X005531Y001141D01*
X005503Y001180D01*
X005478Y001222D01*
X005458Y001266D01*
X005440Y001311D01*
X005427Y001357D01*
X005417Y001404D01*
X005411Y001452D01*
X005409Y001500D01*
X025909Y003500D02*
X025911Y003548D01*
X025917Y003596D01*
X025927Y003643D01*
X025940Y003689D01*
X025958Y003734D01*
X025978Y003778D01*
X026003Y003820D01*
X026031Y003859D01*
X026061Y003896D01*
X026095Y003930D01*
X026132Y003962D01*
X026170Y003991D01*
X026211Y004016D01*
X026254Y004038D01*
X026299Y004056D01*
X026345Y004070D01*
X026392Y004081D01*
X026440Y004088D01*
X026488Y004091D01*
X026536Y004090D01*
X026584Y004085D01*
X026632Y004076D01*
X026678Y004064D01*
X026723Y004047D01*
X026767Y004027D01*
X026809Y004004D01*
X026849Y003977D01*
X026887Y003947D01*
X026922Y003914D01*
X026954Y003878D01*
X026984Y003840D01*
X027010Y003799D01*
X027032Y003756D01*
X027052Y003712D01*
X027067Y003667D01*
X027079Y003620D01*
X027087Y003572D01*
X027091Y003524D01*
X027091Y003476D01*
X027087Y003428D01*
X027079Y003380D01*
X027067Y003333D01*
X027052Y003288D01*
X027032Y003244D01*
X027010Y003201D01*
X026984Y003160D01*
X026954Y003122D01*
X026922Y003086D01*
X026887Y003053D01*
X026849Y003023D01*
X026809Y002996D01*
X026767Y002973D01*
X026723Y002953D01*
X026678Y002936D01*
X026632Y002924D01*
X026584Y002915D01*
X026536Y002910D01*
X026488Y002909D01*
X026440Y002912D01*
X026392Y002919D01*
X026345Y002930D01*
X026299Y002944D01*
X026254Y002962D01*
X026211Y002984D01*
X026170Y003009D01*
X026132Y003038D01*
X026095Y003070D01*
X026061Y003104D01*
X026031Y003141D01*
X026003Y003180D01*
X025978Y003222D01*
X025958Y003266D01*
X025940Y003311D01*
X025927Y003357D01*
X025917Y003404D01*
X025911Y003452D01*
X025909Y003500D01*
X025909Y014500D02*
X025911Y014548D01*
X025917Y014596D01*
X025927Y014643D01*
X025940Y014689D01*
X025958Y014734D01*
X025978Y014778D01*
X026003Y014820D01*
X026031Y014859D01*
X026061Y014896D01*
X026095Y014930D01*
X026132Y014962D01*
X026170Y014991D01*
X026211Y015016D01*
X026254Y015038D01*
X026299Y015056D01*
X026345Y015070D01*
X026392Y015081D01*
X026440Y015088D01*
X026488Y015091D01*
X026536Y015090D01*
X026584Y015085D01*
X026632Y015076D01*
X026678Y015064D01*
X026723Y015047D01*
X026767Y015027D01*
X026809Y015004D01*
X026849Y014977D01*
X026887Y014947D01*
X026922Y014914D01*
X026954Y014878D01*
X026984Y014840D01*
X027010Y014799D01*
X027032Y014756D01*
X027052Y014712D01*
X027067Y014667D01*
X027079Y014620D01*
X027087Y014572D01*
X027091Y014524D01*
X027091Y014476D01*
X027087Y014428D01*
X027079Y014380D01*
X027067Y014333D01*
X027052Y014288D01*
X027032Y014244D01*
X027010Y014201D01*
X026984Y014160D01*
X026954Y014122D01*
X026922Y014086D01*
X026887Y014053D01*
X026849Y014023D01*
X026809Y013996D01*
X026767Y013973D01*
X026723Y013953D01*
X026678Y013936D01*
X026632Y013924D01*
X026584Y013915D01*
X026536Y013910D01*
X026488Y013909D01*
X026440Y013912D01*
X026392Y013919D01*
X026345Y013930D01*
X026299Y013944D01*
X026254Y013962D01*
X026211Y013984D01*
X026170Y014009D01*
X026132Y014038D01*
X026095Y014070D01*
X026061Y014104D01*
X026031Y014141D01*
X026003Y014180D01*
X025978Y014222D01*
X025958Y014266D01*
X025940Y014311D01*
X025927Y014357D01*
X025917Y014404D01*
X025911Y014452D01*
X025909Y014500D01*
X005909Y020500D02*
X005911Y020548D01*
X005917Y020596D01*
X005927Y020643D01*
X005940Y020689D01*
X005958Y020734D01*
X005978Y020778D01*
X006003Y020820D01*
X006031Y020859D01*
X006061Y020896D01*
X006095Y020930D01*
X006132Y020962D01*
X006170Y020991D01*
X006211Y021016D01*
X006254Y021038D01*
X006299Y021056D01*
X006345Y021070D01*
X006392Y021081D01*
X006440Y021088D01*
X006488Y021091D01*
X006536Y021090D01*
X006584Y021085D01*
X006632Y021076D01*
X006678Y021064D01*
X006723Y021047D01*
X006767Y021027D01*
X006809Y021004D01*
X006849Y020977D01*
X006887Y020947D01*
X006922Y020914D01*
X006954Y020878D01*
X006984Y020840D01*
X007010Y020799D01*
X007032Y020756D01*
X007052Y020712D01*
X007067Y020667D01*
X007079Y020620D01*
X007087Y020572D01*
X007091Y020524D01*
X007091Y020476D01*
X007087Y020428D01*
X007079Y020380D01*
X007067Y020333D01*
X007052Y020288D01*
X007032Y020244D01*
X007010Y020201D01*
X006984Y020160D01*
X006954Y020122D01*
X006922Y020086D01*
X006887Y020053D01*
X006849Y020023D01*
X006809Y019996D01*
X006767Y019973D01*
X006723Y019953D01*
X006678Y019936D01*
X006632Y019924D01*
X006584Y019915D01*
X006536Y019910D01*
X006488Y019909D01*
X006440Y019912D01*
X006392Y019919D01*
X006345Y019930D01*
X006299Y019944D01*
X006254Y019962D01*
X006211Y019984D01*
X006170Y020009D01*
X006132Y020038D01*
X006095Y020070D01*
X006061Y020104D01*
X006031Y020141D01*
X006003Y020180D01*
X005978Y020222D01*
X005958Y020266D01*
X005940Y020311D01*
X005927Y020357D01*
X005917Y020404D01*
X005911Y020452D01*
X005909Y020500D01*
D11*
X005912Y019730D02*
X005912Y019270D01*
X005605Y019730D01*
X005605Y019270D01*
X005452Y019347D02*
X005452Y019654D01*
X005375Y019730D01*
X005222Y019730D01*
X005145Y019654D01*
X005145Y019347D01*
X005222Y019270D01*
X005375Y019270D01*
X005452Y019347D01*
X005500Y018305D02*
X005347Y018305D01*
X005270Y018229D01*
X005270Y017922D01*
X005347Y017845D01*
X005500Y017845D01*
X005577Y017922D01*
X005730Y017845D02*
X006037Y017845D01*
X005884Y017845D02*
X005884Y018305D01*
X005730Y018152D01*
X005577Y018229D02*
X005500Y018305D01*
X005350Y016396D02*
X005350Y016210D01*
X005350Y016303D02*
X005070Y016303D01*
X005163Y016210D01*
X005159Y015545D02*
X005113Y015545D01*
X005066Y015499D01*
X005066Y015405D01*
X005113Y015358D01*
X005159Y015545D02*
X005346Y015358D01*
X005346Y015545D01*
X005303Y014635D02*
X005350Y014589D01*
X005350Y014495D01*
X005303Y014448D01*
X005210Y014542D02*
X005210Y014589D01*
X005257Y014635D01*
X005303Y014635D01*
X005210Y014589D02*
X005163Y014635D01*
X005116Y014635D01*
X005070Y014589D01*
X005070Y014495D01*
X005116Y014448D01*
X006395Y012855D02*
X006625Y012855D01*
X006702Y012779D01*
X006702Y012625D01*
X006625Y012548D01*
X006395Y012548D01*
X006395Y012395D02*
X006395Y012855D01*
X006855Y012779D02*
X006855Y012702D01*
X006932Y012625D01*
X007086Y012625D01*
X007162Y012548D01*
X007162Y012472D01*
X007086Y012395D01*
X006932Y012395D01*
X006855Y012472D01*
X006702Y012395D02*
X006548Y012548D01*
X006855Y012779D02*
X006932Y012855D01*
X007086Y012855D01*
X007162Y012779D01*
X007316Y012855D02*
X007316Y012395D01*
X007623Y012395D01*
X007776Y012395D02*
X007776Y012855D01*
X008083Y012395D01*
X008083Y012855D01*
X008237Y012779D02*
X008237Y012702D01*
X008313Y012625D01*
X008467Y012625D01*
X008543Y012548D01*
X008543Y012472D01*
X008467Y012395D01*
X008313Y012395D01*
X008237Y012472D01*
X008237Y012779D02*
X008313Y012855D01*
X008467Y012855D01*
X008543Y012779D01*
X008697Y012855D02*
X008697Y012395D01*
X009004Y012395D01*
X008850Y012625D02*
X008697Y012625D01*
X008697Y012855D02*
X009004Y012855D01*
X007623Y012855D02*
X007316Y012855D01*
X007316Y012625D02*
X007469Y012625D01*
X007910Y014100D02*
X007910Y014287D01*
X008050Y014240D02*
X007770Y014240D01*
X007910Y014100D01*
X007798Y016040D02*
X007645Y016040D01*
X007722Y016040D02*
X007722Y016500D01*
X007798Y016500D02*
X007645Y016500D01*
X007952Y016424D02*
X007952Y016117D01*
X008029Y016040D01*
X008182Y016040D01*
X008259Y016117D01*
X008412Y016040D02*
X008719Y016347D01*
X008719Y016424D01*
X008643Y016500D01*
X008489Y016500D01*
X008412Y016424D01*
X008259Y016424D02*
X008182Y016500D01*
X008029Y016500D01*
X007952Y016424D01*
X008412Y016040D02*
X008719Y016040D01*
X009440Y016750D02*
X010081Y017390D01*
X010610Y017919D02*
X011250Y018560D01*
X012586Y017223D01*
X012586Y016277D01*
X012419Y016110D01*
X011890Y015581D02*
X011723Y015414D01*
X010777Y015414D01*
X009440Y016750D01*
X010164Y017307D02*
X010135Y017245D01*
X010109Y017182D01*
X010087Y017117D01*
X010068Y017052D01*
X010053Y016985D01*
X010042Y016918D01*
X010034Y016850D01*
X010030Y016782D01*
X010031Y016714D01*
X010034Y016645D01*
X010042Y016578D01*
X010054Y016510D01*
X010069Y016444D01*
X010088Y016378D01*
X010111Y016314D01*
X010137Y016251D01*
X010167Y016189D01*
X010200Y016130D01*
X010236Y016072D01*
X010275Y016016D01*
X010318Y015963D01*
X010364Y015912D01*
X010412Y015864D01*
X010463Y015818D01*
X010516Y015775D01*
X010572Y015736D01*
X010630Y015700D01*
X010689Y015667D01*
X010751Y015637D01*
X010814Y015611D01*
X010878Y015588D01*
X010944Y015569D01*
X011010Y015554D01*
X011078Y015542D01*
X011145Y015534D01*
X011214Y015531D01*
X011282Y015530D01*
X011350Y015534D01*
X011418Y015542D01*
X011485Y015553D01*
X011552Y015568D01*
X011617Y015587D01*
X011682Y015609D01*
X011745Y015635D01*
X011807Y015664D01*
X012336Y016193D02*
X012365Y016255D01*
X012391Y016318D01*
X012413Y016383D01*
X012432Y016448D01*
X012447Y016515D01*
X012458Y016582D01*
X012466Y016650D01*
X012470Y016718D01*
X012469Y016786D01*
X012466Y016855D01*
X012458Y016922D01*
X012446Y016990D01*
X012431Y017056D01*
X012412Y017122D01*
X012389Y017186D01*
X012363Y017249D01*
X012333Y017311D01*
X012300Y017370D01*
X012264Y017428D01*
X012225Y017484D01*
X012182Y017537D01*
X012136Y017588D01*
X012088Y017636D01*
X012037Y017682D01*
X011984Y017725D01*
X011928Y017764D01*
X011870Y017800D01*
X011811Y017833D01*
X011749Y017863D01*
X011686Y017889D01*
X011622Y017912D01*
X011556Y017931D01*
X011490Y017946D01*
X011422Y017958D01*
X011355Y017966D01*
X011286Y017969D01*
X011218Y017970D01*
X011150Y017966D01*
X011082Y017958D01*
X011015Y017947D01*
X010948Y017932D01*
X010883Y017913D01*
X010818Y017891D01*
X010755Y017865D01*
X010693Y017836D01*
X001992Y018645D02*
X001992Y019105D01*
X001685Y019105D02*
X001685Y018645D01*
X001838Y018798D01*
X001992Y018645D01*
X001531Y018875D02*
X001454Y018798D01*
X001224Y018798D01*
X001224Y018645D02*
X001224Y019105D01*
X001454Y019105D01*
X001531Y019029D01*
X001531Y018875D01*
X001511Y014405D02*
X001435Y014329D01*
X001511Y014405D02*
X001665Y014405D01*
X001742Y014329D01*
X001742Y014252D01*
X001435Y013945D01*
X001742Y013945D01*
X001281Y014022D02*
X001204Y013945D01*
X001051Y013945D01*
X000974Y014022D01*
X000974Y014329D01*
X001051Y014405D01*
X001204Y014405D01*
X001281Y014329D01*
X001329Y010780D02*
X001176Y010780D01*
X001099Y010704D01*
X001099Y010397D01*
X001176Y010320D01*
X001329Y010320D01*
X001406Y010397D01*
X001560Y010397D02*
X001636Y010320D01*
X001790Y010320D01*
X001867Y010397D01*
X001867Y010473D01*
X001790Y010550D01*
X001713Y010550D01*
X001790Y010550D02*
X001867Y010627D01*
X001867Y010704D01*
X001790Y010780D01*
X001636Y010780D01*
X001560Y010704D01*
X001406Y010704D02*
X001329Y010780D01*
X001250Y009605D02*
X001020Y009605D01*
X001020Y009145D01*
X001250Y009145D01*
X001327Y009222D01*
X001327Y009529D01*
X001250Y009605D01*
X001480Y009529D02*
X001557Y009605D01*
X001711Y009605D01*
X001787Y009529D01*
X001787Y009452D01*
X001480Y009145D01*
X001787Y009145D01*
X005395Y008230D02*
X005395Y007770D01*
X005395Y007923D02*
X005625Y007923D01*
X005702Y008000D01*
X005702Y008154D01*
X005625Y008230D01*
X005395Y008230D01*
X005548Y007923D02*
X005702Y007770D01*
X005855Y007847D02*
X005932Y007770D01*
X006086Y007770D01*
X006162Y007847D01*
X006162Y008000D01*
X006086Y008077D01*
X006009Y008077D01*
X005855Y008000D01*
X005855Y008230D01*
X006162Y008230D01*
X007152Y006711D02*
X008098Y006711D01*
X008265Y006544D01*
X008794Y006015D02*
X008961Y005848D01*
X008961Y004902D01*
X007625Y003565D01*
X006985Y004206D01*
X006992Y003855D02*
X006838Y003779D01*
X006685Y003625D01*
X006915Y003625D01*
X006992Y003548D01*
X006992Y003472D01*
X006915Y003395D01*
X006761Y003395D01*
X006685Y003472D01*
X006685Y003625D01*
X006531Y003625D02*
X006454Y003548D01*
X006224Y003548D01*
X006224Y003395D02*
X006224Y003855D01*
X006454Y003855D01*
X006531Y003779D01*
X006531Y003625D01*
X006378Y003548D02*
X006531Y003395D01*
X007230Y002492D02*
X007230Y002185D01*
X007230Y002338D02*
X006770Y002338D01*
X006923Y002185D01*
X006846Y002031D02*
X007153Y002031D01*
X007230Y001954D01*
X007230Y001724D01*
X006770Y001724D01*
X006770Y001954D01*
X006846Y002031D01*
X006770Y001571D02*
X006770Y001264D01*
X007230Y001264D01*
X007230Y001571D01*
X007000Y001417D02*
X007000Y001264D01*
X007230Y001110D02*
X007230Y000803D01*
X006770Y000803D01*
X008020Y002645D02*
X008020Y003105D01*
X008250Y003105D01*
X008327Y003029D01*
X008327Y002875D01*
X008250Y002798D01*
X008020Y002798D01*
X008173Y002798D02*
X008327Y002645D01*
X008480Y002875D02*
X008787Y002875D01*
X008711Y002645D02*
X008711Y003105D01*
X008480Y002875D01*
X009145Y002798D02*
X009375Y002798D01*
X009452Y002875D01*
X009452Y003029D01*
X009375Y003105D01*
X009145Y003105D01*
X009145Y002645D01*
X009298Y002798D02*
X009452Y002645D01*
X009605Y002722D02*
X009682Y002645D01*
X009836Y002645D01*
X009912Y002722D01*
X009912Y002798D01*
X009836Y002875D01*
X009759Y002875D01*
X009836Y002875D02*
X009912Y002952D01*
X009912Y003029D01*
X009836Y003105D01*
X009682Y003105D01*
X009605Y003029D01*
X010895Y002941D02*
X010895Y003171D01*
X010971Y003248D01*
X011278Y003248D01*
X011355Y003171D01*
X011355Y002941D01*
X010895Y002941D01*
X010895Y002787D02*
X010895Y002480D01*
X011355Y002480D01*
X011355Y002787D01*
X011125Y002634D02*
X011125Y002480D01*
X011355Y002327D02*
X011355Y002020D01*
X010895Y002020D01*
X010971Y003401D02*
X010895Y003478D01*
X010895Y003631D01*
X010971Y003708D01*
X011278Y003401D01*
X011355Y003478D01*
X011355Y003631D01*
X011278Y003708D01*
X010971Y003708D01*
X010971Y003401D02*
X011278Y003401D01*
X013011Y003356D02*
X013011Y002136D01*
X015334Y002136D01*
X016239Y003041D01*
X016239Y003356D01*
X017099Y003105D02*
X017099Y002645D01*
X017099Y002798D02*
X017329Y002798D01*
X017406Y002875D01*
X017406Y003029D01*
X017329Y003105D01*
X017099Y003105D01*
X017253Y002798D02*
X017406Y002645D01*
X017560Y002645D02*
X017867Y002645D01*
X017713Y002645D02*
X017713Y003105D01*
X017560Y002952D01*
X016239Y004144D02*
X016239Y004459D01*
X015334Y005364D01*
X013011Y005364D01*
X013011Y004144D01*
X013109Y003396D02*
X013129Y003319D01*
X013152Y003244D01*
X013180Y003170D01*
X013211Y003098D01*
X013246Y003027D01*
X013284Y002958D01*
X013326Y002892D01*
X013371Y002827D01*
X013419Y002765D01*
X013471Y002705D01*
X013525Y002648D01*
X013582Y002594D01*
X013642Y002542D01*
X013704Y002494D01*
X013769Y002449D01*
X013836Y002408D01*
X013905Y002370D01*
X013976Y002335D01*
X014048Y002304D01*
X014122Y002276D01*
X014197Y002253D01*
X014273Y002233D01*
X014351Y002217D01*
X014429Y002205D01*
X014507Y002197D01*
X014586Y002193D01*
X014664Y002193D01*
X014743Y002197D01*
X014821Y002205D01*
X014899Y002217D01*
X014977Y002233D01*
X015053Y002253D01*
X015128Y002276D01*
X015202Y002304D01*
X015274Y002335D01*
X015345Y002370D01*
X015414Y002408D01*
X015481Y002449D01*
X015546Y002494D01*
X015608Y002542D01*
X015668Y002594D01*
X015725Y002648D01*
X015779Y002705D01*
X015831Y002765D01*
X015879Y002827D01*
X015924Y002892D01*
X015966Y002958D01*
X016004Y003027D01*
X016039Y003098D01*
X016070Y003170D01*
X016098Y003244D01*
X016121Y003319D01*
X016141Y003396D01*
X016141Y004104D02*
X016121Y004181D01*
X016098Y004256D01*
X016070Y004330D01*
X016039Y004402D01*
X016004Y004473D01*
X015966Y004542D01*
X015924Y004608D01*
X015879Y004673D01*
X015831Y004735D01*
X015779Y004795D01*
X015725Y004852D01*
X015668Y004906D01*
X015608Y004958D01*
X015546Y005006D01*
X015481Y005051D01*
X015414Y005092D01*
X015345Y005130D01*
X015274Y005165D01*
X015202Y005196D01*
X015128Y005224D01*
X015053Y005247D01*
X014977Y005267D01*
X014899Y005283D01*
X014821Y005295D01*
X014743Y005303D01*
X014664Y005307D01*
X014586Y005307D01*
X014507Y005303D01*
X014429Y005295D01*
X014351Y005283D01*
X014273Y005267D01*
X014197Y005247D01*
X014122Y005224D01*
X014048Y005196D01*
X013976Y005165D01*
X013905Y005130D01*
X013836Y005092D01*
X013769Y005051D01*
X013704Y005006D01*
X013642Y004958D01*
X013582Y004906D01*
X013525Y004852D01*
X013471Y004795D01*
X013419Y004735D01*
X013371Y004673D01*
X013326Y004608D01*
X013284Y004542D01*
X013246Y004473D01*
X013211Y004402D01*
X013180Y004330D01*
X013152Y004256D01*
X013129Y004181D01*
X013109Y004104D01*
X013270Y005645D02*
X013270Y006105D01*
X013500Y006105D01*
X013577Y006029D01*
X013577Y005875D01*
X013500Y005798D01*
X013270Y005798D01*
X013423Y005798D02*
X013577Y005645D01*
X013730Y005645D02*
X013730Y005722D01*
X014037Y006029D01*
X014037Y006105D01*
X013730Y006105D01*
X015395Y006672D02*
X015472Y006595D01*
X015625Y006595D01*
X015702Y006672D01*
X015855Y006672D02*
X015855Y006825D01*
X016086Y006825D01*
X016162Y006748D01*
X016162Y006672D01*
X016086Y006595D01*
X015932Y006595D01*
X015855Y006672D01*
X015855Y006825D02*
X016009Y006979D01*
X016162Y007055D01*
X015702Y006979D02*
X015625Y007055D01*
X015472Y007055D01*
X015395Y006979D01*
X015395Y006672D01*
X017333Y006734D02*
X017409Y006658D01*
X017563Y006658D01*
X017639Y006734D01*
X017793Y006734D02*
X017793Y006658D01*
X017793Y006734D02*
X018100Y007041D01*
X018100Y007118D01*
X017793Y007118D01*
X017639Y007041D02*
X017563Y007118D01*
X017409Y007118D01*
X017333Y007041D01*
X017333Y006734D01*
X020724Y006834D02*
X020801Y006758D01*
X020954Y006758D01*
X021031Y006834D01*
X021185Y006834D02*
X021185Y006911D01*
X021261Y006988D01*
X021415Y006988D01*
X021492Y006911D01*
X021492Y006834D01*
X021415Y006758D01*
X021261Y006758D01*
X021185Y006834D01*
X021261Y006988D02*
X021185Y007064D01*
X021185Y007141D01*
X021261Y007218D01*
X021415Y007218D01*
X021492Y007141D01*
X021492Y007064D01*
X021415Y006988D01*
X021031Y007141D02*
X020954Y007218D01*
X020801Y007218D01*
X020724Y007141D01*
X020724Y006834D01*
X021328Y009183D02*
X021251Y009260D01*
X021328Y009183D02*
X021481Y009183D01*
X021558Y009260D01*
X021558Y009337D01*
X021481Y009414D01*
X021328Y009414D01*
X021251Y009490D01*
X021251Y009567D01*
X021328Y009644D01*
X021481Y009644D01*
X021558Y009567D01*
X021712Y009567D02*
X021712Y009260D01*
X021788Y009183D01*
X021942Y009183D01*
X022019Y009260D01*
X022172Y009183D02*
X022479Y009183D01*
X022172Y009183D02*
X022172Y009644D01*
X022019Y009567D02*
X021942Y009644D01*
X021788Y009644D01*
X021712Y009567D01*
X021712Y009996D02*
X021942Y009996D01*
X022019Y010073D01*
X022019Y010380D01*
X021942Y010456D01*
X021712Y010456D01*
X021712Y009996D01*
X021558Y010073D02*
X021481Y009996D01*
X021328Y009996D01*
X021251Y010073D01*
X021328Y010226D02*
X021251Y010303D01*
X021251Y010380D01*
X021328Y010456D01*
X021481Y010456D01*
X021558Y010380D01*
X021481Y010226D02*
X021558Y010149D01*
X021558Y010073D01*
X021481Y010226D02*
X021328Y010226D01*
X022172Y010226D02*
X022479Y010226D01*
X022479Y010303D02*
X022479Y009996D01*
X022479Y010303D02*
X022326Y010456D01*
X022172Y010303D01*
X022172Y009996D01*
X026270Y008626D02*
X026423Y008473D01*
X026270Y008626D02*
X026730Y008626D01*
X026730Y008473D02*
X026730Y008780D01*
X026730Y008319D02*
X026730Y008243D01*
X026653Y008243D01*
X026653Y008319D01*
X026730Y008319D01*
X026730Y008089D02*
X026730Y007782D01*
X026423Y008089D01*
X026346Y008089D01*
X026270Y008013D01*
X026270Y007859D01*
X026346Y007782D01*
X026653Y007629D02*
X026730Y007629D01*
X026730Y007552D01*
X026653Y007552D01*
X026653Y007629D01*
X026730Y007399D02*
X026730Y007092D01*
X026730Y007245D02*
X026270Y007245D01*
X026423Y007092D01*
X026653Y006478D02*
X026730Y006478D01*
X026730Y006401D01*
X026653Y006401D01*
X026653Y006478D01*
X026423Y006248D02*
X026730Y006094D01*
X026423Y005941D01*
X026500Y005787D02*
X026423Y005711D01*
X026423Y005557D01*
X026500Y005480D01*
X026653Y005480D01*
X026730Y005557D01*
X026730Y005711D01*
X026577Y005787D02*
X026577Y005480D01*
X026500Y005327D02*
X026346Y005327D01*
X026270Y005250D01*
X026270Y005020D01*
X026730Y005020D01*
X026577Y005020D02*
X026577Y005250D01*
X026500Y005327D01*
X026577Y005173D02*
X026730Y005327D01*
X026577Y005787D02*
X026500Y005787D01*
X023790Y003105D02*
X023636Y003105D01*
X023560Y003029D01*
X023406Y003029D02*
X023406Y002875D01*
X023329Y002798D01*
X023099Y002798D01*
X023099Y002645D02*
X023099Y003105D01*
X023329Y003105D01*
X023406Y003029D01*
X023253Y002798D02*
X023406Y002645D01*
X023560Y002645D02*
X023867Y002952D01*
X023867Y003029D01*
X023790Y003105D01*
X023867Y002645D02*
X023560Y002645D01*
X020117Y002029D02*
X020117Y001952D01*
X020040Y001875D01*
X020117Y001798D01*
X020117Y001722D01*
X020040Y001645D01*
X019886Y001645D01*
X019810Y001722D01*
X019656Y001722D02*
X019656Y002029D01*
X019579Y002105D01*
X019349Y002105D01*
X019349Y001645D01*
X019579Y001645D01*
X019656Y001722D01*
X019963Y001875D02*
X020040Y001875D01*
X020117Y002029D02*
X020040Y002105D01*
X019886Y002105D01*
X019810Y002029D01*
X008711Y005932D02*
X008740Y005870D01*
X008766Y005807D01*
X008788Y005742D01*
X008807Y005677D01*
X008822Y005610D01*
X008833Y005543D01*
X008841Y005475D01*
X008845Y005407D01*
X008844Y005339D01*
X008841Y005270D01*
X008833Y005203D01*
X008821Y005135D01*
X008806Y005069D01*
X008787Y005003D01*
X008764Y004939D01*
X008738Y004876D01*
X008708Y004814D01*
X008675Y004755D01*
X008639Y004697D01*
X008600Y004641D01*
X008557Y004588D01*
X008511Y004537D01*
X008463Y004489D01*
X008412Y004443D01*
X008359Y004400D01*
X008303Y004361D01*
X008245Y004325D01*
X008186Y004292D01*
X008124Y004262D01*
X008061Y004236D01*
X007997Y004213D01*
X007931Y004194D01*
X007865Y004179D01*
X007797Y004167D01*
X007730Y004159D01*
X007661Y004156D01*
X007593Y004155D01*
X007525Y004159D01*
X007457Y004167D01*
X007390Y004178D01*
X007323Y004193D01*
X007258Y004212D01*
X007193Y004234D01*
X007130Y004260D01*
X007068Y004289D01*
X006456Y004735D02*
X005815Y005375D01*
X007152Y006711D01*
X008182Y006461D02*
X008120Y006490D01*
X008057Y006516D01*
X007992Y006538D01*
X007927Y006557D01*
X007860Y006572D01*
X007793Y006583D01*
X007725Y006591D01*
X007657Y006595D01*
X007589Y006594D01*
X007520Y006591D01*
X007453Y006583D01*
X007385Y006571D01*
X007319Y006556D01*
X007253Y006537D01*
X007189Y006514D01*
X007126Y006488D01*
X007064Y006458D01*
X007005Y006425D01*
X006947Y006389D01*
X006891Y006350D01*
X006838Y006307D01*
X006787Y006261D01*
X006739Y006213D01*
X006693Y006162D01*
X006650Y006109D01*
X006611Y006053D01*
X006575Y005995D01*
X006542Y005936D01*
X006512Y005874D01*
X006486Y005811D01*
X006463Y005747D01*
X006444Y005681D01*
X006429Y005615D01*
X006417Y005547D01*
X006409Y005480D01*
X006406Y005411D01*
X006405Y005343D01*
X006409Y005275D01*
X006417Y005207D01*
X006428Y005140D01*
X006443Y005073D01*
X006462Y005008D01*
X006484Y004943D01*
X006510Y004880D01*
X006539Y004818D01*
D12*
X016410Y018660D02*
X016805Y018660D01*
X016937Y018792D01*
X016937Y018924D01*
X016805Y019055D01*
X016410Y019055D01*
X016410Y018660D02*
X016410Y019451D01*
X016805Y019451D01*
X016937Y019319D01*
X016937Y019187D01*
X016805Y019055D01*
X017202Y018660D02*
X017465Y018660D01*
X017334Y018660D02*
X017334Y019451D01*
X017202Y019451D01*
X017730Y019055D02*
X017862Y019187D01*
X018125Y019187D01*
X018257Y019055D01*
X018257Y018924D01*
X017730Y018924D01*
X017730Y019055D02*
X017730Y018792D01*
X017862Y018660D01*
X018125Y018660D01*
X018522Y018792D02*
X018522Y019187D01*
X018522Y018792D02*
X018653Y018660D01*
X019049Y018660D01*
X019049Y019187D01*
X019314Y019055D02*
X019445Y019187D01*
X019709Y019187D01*
X019841Y019055D01*
X019841Y018924D01*
X019314Y018924D01*
X019314Y019055D02*
X019314Y018792D01*
X019445Y018660D01*
X019709Y018660D01*
X020237Y018792D02*
X020369Y018660D01*
X020237Y018792D02*
X020237Y019319D01*
X020105Y019187D02*
X020369Y019187D01*
X020633Y019187D02*
X020897Y019187D01*
X020765Y019319D02*
X020765Y018792D01*
X020897Y018660D01*
X021161Y018792D02*
X021161Y019055D01*
X021293Y019187D01*
X021557Y019187D01*
X021688Y019055D01*
X021688Y018924D01*
X021161Y018924D01*
X021161Y018792D02*
X021293Y018660D01*
X021557Y018660D01*
D13*
X022500Y018630D02*
X022500Y018760D01*
X022650Y018780D01*
X022710Y018910D01*
X022620Y019040D01*
X022710Y019130D01*
X022840Y019040D01*
X022960Y019090D01*
X022990Y019250D01*
X023120Y019250D01*
X023150Y019090D01*
X023270Y019040D01*
X023410Y019130D01*
X023500Y019040D01*
X023410Y018910D01*
X023460Y018790D01*
X023610Y018760D01*
X023610Y018630D01*
X023470Y018600D01*
X023410Y018470D01*
X023500Y018340D01*
X023410Y018250D01*
X023290Y018330D01*
X023230Y018300D01*
X023140Y018530D01*
X022980Y018530D02*
X022880Y018300D01*
X022830Y018330D01*
X022710Y018250D01*
X022620Y018340D01*
X022700Y018470D01*
X022650Y018600D01*
X022500Y018630D01*
X022980Y018530D02*
X022958Y018543D01*
X022938Y018559D01*
X022920Y018578D01*
X022905Y018600D01*
X022894Y018623D01*
X022886Y018648D01*
X022882Y018673D01*
X022881Y018699D01*
X022884Y018725D01*
X022891Y018750D01*
X022902Y018773D01*
X022915Y018795D01*
X022932Y018815D01*
X022951Y018832D01*
X022973Y018847D01*
X022997Y018857D01*
X023021Y018865D01*
X023047Y018869D01*
X023073Y018869D01*
X023099Y018865D01*
X023123Y018857D01*
X023147Y018847D01*
X023169Y018832D01*
X023188Y018815D01*
X023205Y018795D01*
X023218Y018773D01*
X023229Y018750D01*
X023236Y018725D01*
X023239Y018699D01*
X023238Y018673D01*
X023234Y018648D01*
X023226Y018623D01*
X023215Y018600D01*
X023200Y018578D01*
X023182Y018559D01*
X023162Y018543D01*
X023140Y018530D01*
X019732Y011890D02*
X016268Y011890D01*
X016110Y011732D01*
X016110Y008268D01*
X016268Y008110D01*
X019732Y008110D01*
X019890Y008268D01*
X019890Y011732D01*
X019732Y011890D01*
X009079Y011859D02*
X009079Y007401D01*
X006421Y007401D02*
X006421Y011859D01*
X006050Y013835D02*
X006050Y016415D01*
X007450Y016415D01*
X007450Y013835D01*
X006050Y013835D01*
X005029Y015625D02*
X004415Y015625D01*
X004597Y017318D02*
X004597Y017932D01*
X004290Y017625D02*
X004904Y017625D01*
X005000Y019125D02*
X005000Y021125D01*
X001000Y021125D01*
X001000Y019125D01*
X005000Y019125D01*
D14*
X017356Y004294D02*
X017372Y004305D01*
X017371Y004305D02*
X017404Y004260D01*
X017439Y004218D01*
X017478Y004179D01*
X017518Y004142D01*
X017562Y004109D01*
X017607Y004078D01*
X017655Y004051D01*
X017704Y004027D01*
X017755Y004006D01*
X017808Y003989D01*
X017861Y003976D01*
X017915Y003967D01*
X017970Y003961D01*
X018025Y003959D01*
X018025Y003941D01*
X018025Y003940D01*
X017968Y003942D01*
X017912Y003948D01*
X017857Y003958D01*
X017802Y003971D01*
X017749Y003988D01*
X017697Y004009D01*
X017646Y004034D01*
X017597Y004062D01*
X017551Y004093D01*
X017506Y004128D01*
X017464Y004165D01*
X017425Y004206D01*
X017389Y004249D01*
X017356Y004294D01*
X017356Y004295D01*
X017390Y004249D01*
X017426Y004206D01*
X017465Y004166D01*
X017507Y004129D01*
X017551Y004094D01*
X017598Y004063D01*
X017647Y004035D01*
X017697Y004010D01*
X017749Y003989D01*
X017803Y003972D01*
X017857Y003959D01*
X017913Y003949D01*
X017968Y003943D01*
X018025Y003941D01*
X018025Y003942D01*
X017968Y003944D01*
X017913Y003950D01*
X017857Y003960D01*
X017803Y003973D01*
X017750Y003990D01*
X017698Y004011D01*
X017647Y004036D01*
X017598Y004064D01*
X017552Y004095D01*
X017508Y004129D01*
X017466Y004167D01*
X017427Y004207D01*
X017390Y004250D01*
X017357Y004295D01*
X017358Y004296D01*
X017391Y004250D01*
X017427Y004208D01*
X017466Y004168D01*
X017508Y004130D01*
X017552Y004096D01*
X017599Y004065D01*
X017648Y004037D01*
X017698Y004012D01*
X017750Y003991D01*
X017803Y003974D01*
X017858Y003961D01*
X017913Y003951D01*
X017969Y003945D01*
X018025Y003943D01*
X018025Y003944D01*
X017969Y003946D01*
X017913Y003952D01*
X017858Y003962D01*
X017804Y003975D01*
X017750Y003992D01*
X017698Y004013D01*
X017648Y004038D01*
X017600Y004065D01*
X017553Y004097D01*
X017509Y004131D01*
X017467Y004168D01*
X017428Y004208D01*
X017392Y004251D01*
X017359Y004296D01*
X017360Y004297D01*
X017393Y004252D01*
X017429Y004209D01*
X017468Y004169D01*
X017509Y004132D01*
X017554Y004097D01*
X017600Y004066D01*
X017649Y004038D01*
X017699Y004014D01*
X017751Y003993D01*
X017804Y003976D01*
X017858Y003963D01*
X017913Y003953D01*
X017969Y003947D01*
X018025Y003945D01*
X018025Y003946D01*
X017969Y003948D01*
X017913Y003954D01*
X017858Y003963D01*
X017804Y003977D01*
X017751Y003994D01*
X017699Y004015D01*
X017649Y004039D01*
X017601Y004067D01*
X017554Y004098D01*
X017510Y004132D01*
X017469Y004170D01*
X017430Y004210D01*
X017394Y004252D01*
X017361Y004297D01*
X017361Y004298D01*
X017394Y004253D01*
X017430Y004210D01*
X017469Y004170D01*
X017511Y004133D01*
X017555Y004099D01*
X017601Y004068D01*
X017649Y004040D01*
X017700Y004016D01*
X017751Y003995D01*
X017804Y003978D01*
X017858Y003964D01*
X017913Y003955D01*
X017969Y003949D01*
X018025Y003947D01*
X018025Y003948D01*
X017969Y003950D01*
X017913Y003956D01*
X017859Y003965D01*
X017805Y003979D01*
X017752Y003996D01*
X017700Y004017D01*
X017650Y004041D01*
X017602Y004069D01*
X017555Y004100D01*
X017511Y004134D01*
X017470Y004171D01*
X017431Y004211D01*
X017395Y004254D01*
X017362Y004298D01*
X017363Y004299D01*
X017396Y004254D01*
X017432Y004212D01*
X017471Y004172D01*
X017512Y004135D01*
X017556Y004101D01*
X017602Y004070D01*
X017650Y004042D01*
X017700Y004018D01*
X017752Y003997D01*
X017805Y003980D01*
X017859Y003966D01*
X017914Y003957D01*
X017969Y003951D01*
X018025Y003949D01*
X018025Y003950D01*
X017969Y003952D01*
X017914Y003958D01*
X017859Y003967D01*
X017805Y003981D01*
X017752Y003998D01*
X017701Y004019D01*
X017651Y004043D01*
X017603Y004071D01*
X017557Y004101D01*
X017513Y004136D01*
X017471Y004173D01*
X017433Y004212D01*
X017397Y004255D01*
X017364Y004300D01*
X017365Y004300D01*
X017397Y004255D01*
X017433Y004213D01*
X017472Y004173D01*
X017513Y004136D01*
X017557Y004102D01*
X017603Y004071D01*
X017651Y004044D01*
X017701Y004020D01*
X017753Y003999D01*
X017805Y003982D01*
X017859Y003968D01*
X017914Y003959D01*
X017969Y003953D01*
X018025Y003951D01*
X018025Y003952D01*
X017969Y003954D01*
X017914Y003960D01*
X017859Y003969D01*
X017806Y003983D01*
X017753Y004000D01*
X017702Y004020D01*
X017652Y004045D01*
X017604Y004072D01*
X017558Y004103D01*
X017514Y004137D01*
X017473Y004174D01*
X017434Y004214D01*
X017398Y004256D01*
X017365Y004301D01*
X017366Y004301D01*
X017399Y004257D01*
X017435Y004214D01*
X017473Y004175D01*
X017515Y004138D01*
X017558Y004104D01*
X017604Y004073D01*
X017652Y004046D01*
X017702Y004021D01*
X017753Y004001D01*
X017806Y003984D01*
X017860Y003970D01*
X017914Y003961D01*
X017969Y003955D01*
X018025Y003953D01*
X018025Y003954D01*
X017969Y003956D01*
X017914Y003962D01*
X017860Y003971D01*
X017806Y003985D01*
X017754Y004002D01*
X017702Y004022D01*
X017653Y004046D01*
X017605Y004074D01*
X017559Y004105D01*
X017515Y004139D01*
X017474Y004175D01*
X017436Y004215D01*
X017400Y004257D01*
X017367Y004302D01*
X017368Y004302D01*
X017401Y004258D01*
X017436Y004216D01*
X017475Y004176D01*
X017516Y004139D01*
X017559Y004106D01*
X017605Y004075D01*
X017653Y004047D01*
X017703Y004023D01*
X017754Y004003D01*
X017807Y003986D01*
X017860Y003972D01*
X017914Y003963D01*
X017969Y003957D01*
X018025Y003955D01*
X018025Y003956D01*
X017969Y003958D01*
X017915Y003964D01*
X017860Y003973D01*
X017807Y003987D01*
X017754Y004004D01*
X017703Y004024D01*
X017654Y004048D01*
X017606Y004076D01*
X017560Y004106D01*
X017517Y004140D01*
X017475Y004177D01*
X017437Y004216D01*
X017401Y004259D01*
X017369Y004303D01*
X017370Y004304D01*
X017402Y004259D01*
X017438Y004217D01*
X017476Y004178D01*
X017517Y004141D01*
X017561Y004107D01*
X017606Y004076D01*
X017654Y004049D01*
X017704Y004025D01*
X017755Y004004D01*
X017807Y003988D01*
X017861Y003974D01*
X017915Y003965D01*
X017969Y003959D01*
X018025Y003957D01*
X018025Y003958D01*
X017970Y003960D01*
X017915Y003966D01*
X017861Y003975D01*
X017807Y003988D01*
X017755Y004005D01*
X017704Y004026D01*
X017655Y004050D01*
X017607Y004077D01*
X017561Y004108D01*
X017518Y004142D01*
X017477Y004178D01*
X017438Y004218D01*
X017403Y004260D01*
X017370Y004304D01*
X017804Y004291D02*
X017812Y004308D01*
X017811Y004308D02*
X017845Y004293D01*
X017880Y004281D01*
X017915Y004271D01*
X017951Y004265D01*
X017988Y004260D01*
X018025Y004259D01*
X018025Y004241D01*
X018025Y004240D01*
X017986Y004241D01*
X017948Y004246D01*
X017911Y004253D01*
X017874Y004263D01*
X017838Y004275D01*
X017803Y004291D01*
X017804Y004292D01*
X017838Y004276D01*
X017874Y004264D01*
X017911Y004254D01*
X017949Y004247D01*
X017986Y004242D01*
X018025Y004241D01*
X018025Y004242D01*
X017987Y004243D01*
X017949Y004248D01*
X017911Y004255D01*
X017875Y004265D01*
X017839Y004277D01*
X017804Y004293D01*
X017839Y004278D01*
X017875Y004266D01*
X017912Y004256D01*
X017949Y004249D01*
X017987Y004244D01*
X018025Y004243D01*
X018025Y004244D01*
X017987Y004245D01*
X017949Y004250D01*
X017912Y004257D01*
X017875Y004267D01*
X017840Y004279D01*
X017805Y004294D01*
X017805Y004295D01*
X017840Y004280D01*
X017876Y004268D01*
X017912Y004258D01*
X017949Y004251D01*
X017987Y004246D01*
X018025Y004245D01*
X018025Y004246D01*
X017987Y004247D01*
X017949Y004252D01*
X017912Y004259D01*
X017876Y004269D01*
X017840Y004281D01*
X017806Y004296D01*
X017806Y004297D01*
X017841Y004282D01*
X017876Y004270D01*
X017913Y004260D01*
X017950Y004253D01*
X017987Y004248D01*
X018025Y004247D01*
X018025Y004248D01*
X017987Y004249D01*
X017950Y004254D01*
X017913Y004261D01*
X017876Y004270D01*
X017841Y004283D01*
X017807Y004298D01*
X017807Y004299D01*
X017841Y004284D01*
X017877Y004271D01*
X017913Y004262D01*
X017950Y004255D01*
X017987Y004250D01*
X018025Y004249D01*
X018025Y004250D01*
X017987Y004251D01*
X017950Y004256D01*
X017913Y004263D01*
X017877Y004272D01*
X017842Y004285D01*
X017808Y004300D01*
X017808Y004301D01*
X017842Y004286D01*
X017877Y004273D01*
X017913Y004264D01*
X017950Y004257D01*
X017987Y004252D01*
X018025Y004251D01*
X018025Y004252D01*
X017987Y004253D01*
X017950Y004258D01*
X017914Y004265D01*
X017878Y004274D01*
X017843Y004287D01*
X017808Y004302D01*
X017809Y004302D01*
X017843Y004288D01*
X017878Y004275D01*
X017914Y004266D01*
X017950Y004259D01*
X017987Y004254D01*
X018025Y004253D01*
X018025Y004254D01*
X017987Y004255D01*
X017951Y004260D01*
X017914Y004267D01*
X017878Y004276D01*
X017843Y004289D01*
X017809Y004303D01*
X017810Y004304D01*
X017844Y004289D01*
X017879Y004277D01*
X017914Y004268D01*
X017951Y004261D01*
X017987Y004256D01*
X018025Y004255D01*
X018025Y004256D01*
X017988Y004257D01*
X017951Y004262D01*
X017915Y004269D01*
X017879Y004278D01*
X017844Y004290D01*
X017810Y004305D01*
X017811Y004306D01*
X017844Y004291D01*
X017879Y004279D01*
X017915Y004269D01*
X017951Y004263D01*
X017988Y004258D01*
X018025Y004257D01*
X018025Y004258D01*
X017988Y004259D01*
X017951Y004264D01*
X017915Y004270D01*
X017879Y004280D01*
X017845Y004292D01*
X017811Y004307D01*
X018025Y005259D02*
X018025Y005240D01*
X018025Y005241D02*
X017988Y005240D01*
X017951Y005235D01*
X017915Y005229D01*
X017880Y005219D01*
X017845Y005207D01*
X017811Y005192D01*
X017804Y005209D01*
X017803Y005209D01*
X017838Y005225D01*
X017874Y005237D01*
X017911Y005247D01*
X017948Y005254D01*
X017986Y005259D01*
X018025Y005260D01*
X018025Y005259D01*
X017986Y005258D01*
X017949Y005253D01*
X017911Y005246D01*
X017874Y005236D01*
X017838Y005224D01*
X017804Y005208D01*
X017804Y005207D01*
X017839Y005223D01*
X017875Y005235D01*
X017911Y005245D01*
X017949Y005252D01*
X017987Y005257D01*
X018025Y005258D01*
X018025Y005257D01*
X017987Y005256D01*
X017949Y005251D01*
X017912Y005244D01*
X017875Y005234D01*
X017839Y005222D01*
X017804Y005207D01*
X017805Y005206D01*
X017840Y005221D01*
X017875Y005233D01*
X017912Y005243D01*
X017949Y005250D01*
X017987Y005255D01*
X018025Y005256D01*
X018025Y005255D01*
X017987Y005254D01*
X017949Y005249D01*
X017912Y005242D01*
X017876Y005232D01*
X017840Y005220D01*
X017805Y005205D01*
X017806Y005204D01*
X017840Y005219D01*
X017876Y005231D01*
X017912Y005241D01*
X017949Y005248D01*
X017987Y005253D01*
X018025Y005254D01*
X018025Y005253D01*
X017987Y005252D01*
X017950Y005247D01*
X017913Y005240D01*
X017876Y005230D01*
X017841Y005218D01*
X017806Y005203D01*
X017807Y005202D01*
X017841Y005217D01*
X017876Y005230D01*
X017913Y005239D01*
X017950Y005246D01*
X017987Y005251D01*
X018025Y005252D01*
X018025Y005251D01*
X017987Y005250D01*
X017950Y005245D01*
X017913Y005238D01*
X017877Y005229D01*
X017841Y005216D01*
X017807Y005201D01*
X017808Y005200D01*
X017842Y005215D01*
X017877Y005228D01*
X017913Y005237D01*
X017950Y005244D01*
X017987Y005249D01*
X018025Y005250D01*
X018025Y005249D01*
X017987Y005248D01*
X017950Y005243D01*
X017913Y005236D01*
X017877Y005227D01*
X017842Y005214D01*
X017808Y005199D01*
X017808Y005198D01*
X017843Y005213D01*
X017878Y005226D01*
X017914Y005235D01*
X017950Y005242D01*
X017987Y005247D01*
X018025Y005248D01*
X018025Y005247D01*
X017987Y005246D01*
X017950Y005241D01*
X017914Y005234D01*
X017878Y005225D01*
X017843Y005212D01*
X017809Y005198D01*
X017809Y005197D01*
X017843Y005211D01*
X017878Y005224D01*
X017914Y005233D01*
X017951Y005240D01*
X017987Y005245D01*
X018025Y005246D01*
X018025Y005245D01*
X017987Y005244D01*
X017951Y005239D01*
X017914Y005232D01*
X017879Y005223D01*
X017844Y005211D01*
X017810Y005196D01*
X017810Y005195D01*
X017844Y005210D01*
X017879Y005222D01*
X017915Y005231D01*
X017951Y005238D01*
X017988Y005243D01*
X018025Y005244D01*
X018025Y005243D01*
X017988Y005242D01*
X017951Y005237D01*
X017915Y005231D01*
X017879Y005221D01*
X017844Y005209D01*
X017811Y005194D01*
X017811Y005193D01*
X017845Y005208D01*
X017879Y005220D01*
X017915Y005230D01*
X017951Y005236D01*
X017988Y005241D01*
X018025Y005242D01*
X018025Y005559D02*
X018025Y005540D01*
X018024Y005541D02*
X017970Y005539D01*
X017915Y005533D01*
X017861Y005524D01*
X017808Y005511D01*
X017755Y005494D01*
X017704Y005473D01*
X017655Y005449D01*
X017607Y005422D01*
X017562Y005391D01*
X017518Y005357D01*
X017477Y005321D01*
X017439Y005282D01*
X017404Y005240D01*
X017371Y005195D01*
X017356Y005205D01*
X017356Y005206D01*
X017389Y005251D01*
X017425Y005294D01*
X017464Y005335D01*
X017506Y005372D01*
X017551Y005407D01*
X017597Y005438D01*
X017646Y005466D01*
X017697Y005490D01*
X017749Y005511D01*
X017802Y005529D01*
X017857Y005542D01*
X017912Y005552D01*
X017968Y005558D01*
X018024Y005560D01*
X018024Y005559D01*
X017968Y005557D01*
X017912Y005551D01*
X017857Y005541D01*
X017803Y005528D01*
X017749Y005511D01*
X017697Y005490D01*
X017647Y005465D01*
X017598Y005437D01*
X017551Y005406D01*
X017507Y005371D01*
X017465Y005334D01*
X017426Y005294D01*
X017390Y005251D01*
X017356Y005205D01*
X017357Y005205D01*
X017390Y005250D01*
X017427Y005293D01*
X017466Y005333D01*
X017508Y005371D01*
X017552Y005405D01*
X017598Y005436D01*
X017647Y005464D01*
X017698Y005489D01*
X017750Y005510D01*
X017803Y005527D01*
X017857Y005540D01*
X017913Y005550D01*
X017968Y005556D01*
X018024Y005558D01*
X018024Y005557D01*
X017968Y005555D01*
X017913Y005549D01*
X017858Y005539D01*
X017803Y005526D01*
X017750Y005509D01*
X017698Y005488D01*
X017648Y005463D01*
X017599Y005435D01*
X017552Y005404D01*
X017508Y005370D01*
X017466Y005332D01*
X017427Y005292D01*
X017391Y005249D01*
X017358Y005204D01*
X017359Y005204D01*
X017392Y005249D01*
X017428Y005292D01*
X017467Y005332D01*
X017509Y005369D01*
X017553Y005403D01*
X017599Y005435D01*
X017648Y005462D01*
X017698Y005487D01*
X017750Y005508D01*
X017803Y005525D01*
X017858Y005538D01*
X017913Y005548D01*
X017969Y005554D01*
X018024Y005556D01*
X018024Y005555D01*
X017969Y005553D01*
X017913Y005547D01*
X017858Y005537D01*
X017804Y005524D01*
X017751Y005507D01*
X017699Y005486D01*
X017648Y005462D01*
X017600Y005434D01*
X017554Y005403D01*
X017509Y005368D01*
X017468Y005331D01*
X017429Y005291D01*
X017393Y005248D01*
X017360Y005203D01*
X017361Y005203D01*
X017394Y005248D01*
X017430Y005290D01*
X017468Y005330D01*
X017510Y005367D01*
X017554Y005402D01*
X017601Y005433D01*
X017649Y005461D01*
X017699Y005485D01*
X017751Y005506D01*
X017804Y005523D01*
X017858Y005537D01*
X017913Y005546D01*
X017969Y005552D01*
X018024Y005554D01*
X018024Y005553D01*
X017969Y005551D01*
X017913Y005545D01*
X017858Y005536D01*
X017804Y005522D01*
X017751Y005505D01*
X017700Y005484D01*
X017649Y005460D01*
X017601Y005432D01*
X017555Y005401D01*
X017511Y005367D01*
X017469Y005330D01*
X017430Y005290D01*
X017394Y005247D01*
X017361Y005202D01*
X017362Y005201D01*
X017395Y005246D01*
X017431Y005289D01*
X017470Y005329D01*
X017511Y005366D01*
X017555Y005400D01*
X017602Y005431D01*
X017650Y005459D01*
X017700Y005483D01*
X017752Y005504D01*
X017805Y005521D01*
X017859Y005535D01*
X017913Y005544D01*
X017969Y005550D01*
X018024Y005552D01*
X018024Y005551D01*
X017969Y005549D01*
X017914Y005543D01*
X017859Y005534D01*
X017805Y005520D01*
X017752Y005503D01*
X017700Y005482D01*
X017650Y005458D01*
X017602Y005430D01*
X017556Y005399D01*
X017512Y005365D01*
X017471Y005328D01*
X017432Y005288D01*
X017396Y005246D01*
X017363Y005201D01*
X017364Y005200D01*
X017397Y005245D01*
X017433Y005288D01*
X017471Y005327D01*
X017513Y005364D01*
X017557Y005398D01*
X017603Y005429D01*
X017651Y005457D01*
X017701Y005481D01*
X017752Y005502D01*
X017805Y005519D01*
X017859Y005533D01*
X017914Y005542D01*
X017969Y005548D01*
X018024Y005550D01*
X018024Y005549D01*
X017969Y005547D01*
X017914Y005541D01*
X017859Y005532D01*
X017805Y005518D01*
X017753Y005501D01*
X017701Y005480D01*
X017651Y005456D01*
X017603Y005429D01*
X017557Y005398D01*
X017513Y005364D01*
X017472Y005327D01*
X017433Y005287D01*
X017397Y005245D01*
X017365Y005200D01*
X017365Y005199D01*
X017398Y005244D01*
X017434Y005286D01*
X017473Y005326D01*
X017514Y005363D01*
X017558Y005397D01*
X017604Y005428D01*
X017652Y005455D01*
X017702Y005480D01*
X017753Y005500D01*
X017806Y005517D01*
X017859Y005531D01*
X017914Y005540D01*
X017969Y005546D01*
X018024Y005548D01*
X018024Y005547D01*
X017969Y005545D01*
X017914Y005539D01*
X017860Y005530D01*
X017806Y005516D01*
X017753Y005499D01*
X017702Y005479D01*
X017652Y005454D01*
X017604Y005427D01*
X017558Y005396D01*
X017515Y005362D01*
X017473Y005325D01*
X017435Y005286D01*
X017399Y005243D01*
X017366Y005199D01*
X017367Y005198D01*
X017400Y005243D01*
X017435Y005285D01*
X017474Y005324D01*
X017515Y005361D01*
X017559Y005395D01*
X017605Y005426D01*
X017653Y005454D01*
X017702Y005478D01*
X017754Y005498D01*
X017806Y005515D01*
X017860Y005529D01*
X017914Y005538D01*
X017969Y005544D01*
X018024Y005546D01*
X018024Y005545D01*
X017969Y005543D01*
X017914Y005537D01*
X017860Y005528D01*
X017806Y005514D01*
X017754Y005497D01*
X017703Y005477D01*
X017653Y005453D01*
X017605Y005425D01*
X017559Y005394D01*
X017516Y005361D01*
X017475Y005324D01*
X017436Y005284D01*
X017401Y005242D01*
X017368Y005198D01*
X017369Y005197D01*
X017401Y005241D01*
X017437Y005284D01*
X017475Y005323D01*
X017516Y005360D01*
X017560Y005394D01*
X017606Y005424D01*
X017654Y005452D01*
X017703Y005476D01*
X017754Y005496D01*
X017807Y005513D01*
X017860Y005527D01*
X017915Y005536D01*
X017969Y005542D01*
X018024Y005544D01*
X018024Y005543D01*
X017969Y005541D01*
X017915Y005535D01*
X017860Y005526D01*
X017807Y005512D01*
X017755Y005495D01*
X017704Y005475D01*
X017654Y005451D01*
X017606Y005423D01*
X017561Y005393D01*
X017517Y005359D01*
X017476Y005322D01*
X017438Y005283D01*
X017402Y005241D01*
X017370Y005196D01*
X017403Y005240D01*
X017438Y005282D01*
X017477Y005322D01*
X017518Y005358D01*
X017561Y005392D01*
X017607Y005423D01*
X017655Y005450D01*
X017704Y005474D01*
X017755Y005495D01*
X017807Y005511D01*
X017861Y005525D01*
X017915Y005534D01*
X017970Y005540D01*
X018024Y005542D01*
X020725Y003941D02*
X020725Y003960D01*
X020726Y003959D02*
X020780Y003961D01*
X020835Y003967D01*
X020889Y003976D01*
X020942Y003989D01*
X020995Y004006D01*
X021046Y004027D01*
X021095Y004051D01*
X021143Y004078D01*
X021188Y004109D01*
X021232Y004142D01*
X021272Y004179D01*
X021311Y004218D01*
X021346Y004260D01*
X021379Y004305D01*
X021394Y004294D01*
X021361Y004249D01*
X021325Y004206D01*
X021286Y004165D01*
X021244Y004128D01*
X021199Y004093D01*
X021153Y004062D01*
X021104Y004034D01*
X021053Y004010D01*
X021001Y003989D01*
X020948Y003971D01*
X020893Y003958D01*
X020838Y003948D01*
X020782Y003942D01*
X020726Y003940D01*
X020726Y003941D01*
X020782Y003943D01*
X020838Y003949D01*
X020893Y003959D01*
X020947Y003972D01*
X021001Y003989D01*
X021053Y004010D01*
X021103Y004035D01*
X021152Y004063D01*
X021199Y004094D01*
X021243Y004129D01*
X021285Y004166D01*
X021324Y004206D01*
X021360Y004249D01*
X021394Y004295D01*
X021393Y004295D01*
X021360Y004250D01*
X021323Y004207D01*
X021284Y004167D01*
X021242Y004129D01*
X021198Y004095D01*
X021152Y004064D01*
X021103Y004036D01*
X021052Y004011D01*
X021000Y003990D01*
X020947Y003973D01*
X020893Y003960D01*
X020837Y003950D01*
X020782Y003944D01*
X020726Y003942D01*
X020726Y003943D01*
X020782Y003945D01*
X020837Y003951D01*
X020892Y003961D01*
X020947Y003974D01*
X021000Y003991D01*
X021052Y004012D01*
X021102Y004037D01*
X021151Y004065D01*
X021198Y004096D01*
X021242Y004130D01*
X021284Y004168D01*
X021323Y004208D01*
X021359Y004250D01*
X021392Y004296D01*
X021391Y004296D01*
X021358Y004251D01*
X021322Y004208D01*
X021283Y004168D01*
X021241Y004131D01*
X021197Y004097D01*
X021151Y004065D01*
X021102Y004038D01*
X021052Y004013D01*
X021000Y003992D01*
X020947Y003975D01*
X020892Y003962D01*
X020837Y003952D01*
X020781Y003946D01*
X020726Y003944D01*
X020726Y003945D01*
X020781Y003947D01*
X020837Y003953D01*
X020892Y003963D01*
X020946Y003976D01*
X020999Y003993D01*
X021051Y004014D01*
X021102Y004038D01*
X021150Y004066D01*
X021196Y004097D01*
X021241Y004132D01*
X021282Y004169D01*
X021321Y004209D01*
X021357Y004252D01*
X021390Y004297D01*
X021389Y004297D01*
X021356Y004252D01*
X021320Y004210D01*
X021282Y004170D01*
X021240Y004133D01*
X021196Y004098D01*
X021149Y004067D01*
X021101Y004039D01*
X021051Y004015D01*
X020999Y003994D01*
X020946Y003977D01*
X020892Y003963D01*
X020837Y003954D01*
X020781Y003948D01*
X020726Y003946D01*
X020726Y003947D01*
X020781Y003949D01*
X020837Y003955D01*
X020892Y003964D01*
X020946Y003978D01*
X020999Y003995D01*
X021050Y004016D01*
X021101Y004040D01*
X021149Y004068D01*
X021195Y004099D01*
X021239Y004133D01*
X021281Y004170D01*
X021320Y004210D01*
X021356Y004253D01*
X021389Y004298D01*
X021388Y004298D01*
X021355Y004254D01*
X021319Y004211D01*
X021280Y004171D01*
X021239Y004134D01*
X021195Y004100D01*
X021148Y004069D01*
X021100Y004041D01*
X021050Y004017D01*
X020998Y003996D01*
X020945Y003979D01*
X020891Y003965D01*
X020837Y003956D01*
X020781Y003950D01*
X020726Y003948D01*
X020726Y003949D01*
X020781Y003951D01*
X020836Y003957D01*
X020891Y003966D01*
X020945Y003980D01*
X020998Y003997D01*
X021050Y004018D01*
X021100Y004042D01*
X021148Y004070D01*
X021194Y004101D01*
X021238Y004135D01*
X021279Y004172D01*
X021318Y004212D01*
X021354Y004254D01*
X021387Y004299D01*
X021386Y004300D01*
X021353Y004255D01*
X021317Y004212D01*
X021279Y004173D01*
X021237Y004136D01*
X021193Y004102D01*
X021147Y004071D01*
X021099Y004043D01*
X021049Y004019D01*
X020998Y003998D01*
X020945Y003981D01*
X020891Y003967D01*
X020836Y003958D01*
X020781Y003952D01*
X020726Y003950D01*
X020726Y003951D01*
X020781Y003953D01*
X020836Y003959D01*
X020891Y003968D01*
X020945Y003982D01*
X020997Y003999D01*
X021049Y004020D01*
X021099Y004044D01*
X021147Y004071D01*
X021193Y004102D01*
X021237Y004136D01*
X021278Y004173D01*
X021317Y004213D01*
X021353Y004255D01*
X021385Y004300D01*
X021385Y004301D01*
X021352Y004256D01*
X021316Y004214D01*
X021277Y004174D01*
X021236Y004137D01*
X021192Y004103D01*
X021146Y004072D01*
X021098Y004045D01*
X021048Y004020D01*
X020997Y004000D01*
X020944Y003983D01*
X020891Y003969D01*
X020836Y003960D01*
X020781Y003954D01*
X020726Y003952D01*
X020726Y003953D01*
X020781Y003955D01*
X020836Y003961D01*
X020890Y003970D01*
X020944Y003984D01*
X020997Y004001D01*
X021048Y004021D01*
X021098Y004046D01*
X021146Y004073D01*
X021192Y004104D01*
X021235Y004138D01*
X021277Y004175D01*
X021315Y004214D01*
X021351Y004257D01*
X021384Y004301D01*
X021383Y004302D01*
X021350Y004257D01*
X021314Y004215D01*
X021276Y004175D01*
X021235Y004139D01*
X021191Y004105D01*
X021145Y004074D01*
X021097Y004046D01*
X021048Y004022D01*
X020996Y004002D01*
X020944Y003985D01*
X020890Y003971D01*
X020836Y003962D01*
X020781Y003956D01*
X020726Y003954D01*
X020726Y003955D01*
X020781Y003957D01*
X020836Y003963D01*
X020890Y003972D01*
X020943Y003986D01*
X020996Y004003D01*
X021047Y004023D01*
X021097Y004047D01*
X021145Y004075D01*
X021191Y004106D01*
X021234Y004139D01*
X021275Y004176D01*
X021314Y004216D01*
X021349Y004258D01*
X021382Y004302D01*
X021381Y004303D01*
X021349Y004259D01*
X021313Y004216D01*
X021275Y004177D01*
X021233Y004140D01*
X021190Y004106D01*
X021144Y004076D01*
X021096Y004048D01*
X021047Y004024D01*
X020996Y004004D01*
X020943Y003987D01*
X020890Y003973D01*
X020835Y003964D01*
X020781Y003958D01*
X020726Y003956D01*
X020726Y003957D01*
X020781Y003959D01*
X020835Y003965D01*
X020890Y003974D01*
X020943Y003988D01*
X020995Y004004D01*
X021046Y004025D01*
X021096Y004049D01*
X021144Y004077D01*
X021189Y004107D01*
X021233Y004141D01*
X021274Y004178D01*
X021312Y004217D01*
X021348Y004259D01*
X021380Y004304D01*
X021347Y004260D01*
X021312Y004218D01*
X021273Y004178D01*
X021232Y004142D01*
X021189Y004108D01*
X021143Y004077D01*
X021095Y004050D01*
X021046Y004026D01*
X020995Y004005D01*
X020943Y003988D01*
X020889Y003975D01*
X020835Y003966D01*
X020780Y003960D01*
X020726Y003958D01*
X020725Y004241D02*
X020725Y004260D01*
X020725Y004259D02*
X020762Y004260D01*
X020799Y004265D01*
X020835Y004271D01*
X020870Y004281D01*
X020905Y004293D01*
X020939Y004308D01*
X020946Y004291D01*
X020947Y004291D01*
X020912Y004275D01*
X020876Y004263D01*
X020839Y004253D01*
X020802Y004246D01*
X020764Y004241D01*
X020725Y004240D01*
X020725Y004241D01*
X020764Y004242D01*
X020801Y004247D01*
X020839Y004254D01*
X020876Y004264D01*
X020912Y004276D01*
X020946Y004292D01*
X020946Y004293D01*
X020911Y004277D01*
X020875Y004265D01*
X020839Y004255D01*
X020801Y004248D01*
X020763Y004243D01*
X020725Y004242D01*
X020725Y004243D01*
X020763Y004244D01*
X020801Y004249D01*
X020838Y004256D01*
X020875Y004266D01*
X020911Y004278D01*
X020946Y004293D01*
X020945Y004294D01*
X020910Y004279D01*
X020875Y004267D01*
X020838Y004257D01*
X020801Y004250D01*
X020763Y004245D01*
X020725Y004244D01*
X020725Y004245D01*
X020763Y004246D01*
X020801Y004251D01*
X020838Y004258D01*
X020874Y004268D01*
X020910Y004280D01*
X020945Y004295D01*
X020944Y004296D01*
X020910Y004281D01*
X020874Y004269D01*
X020838Y004259D01*
X020801Y004252D01*
X020763Y004247D01*
X020725Y004246D01*
X020725Y004247D01*
X020763Y004248D01*
X020800Y004253D01*
X020837Y004260D01*
X020874Y004270D01*
X020909Y004282D01*
X020944Y004297D01*
X020943Y004298D01*
X020909Y004283D01*
X020874Y004270D01*
X020837Y004261D01*
X020800Y004254D01*
X020763Y004249D01*
X020725Y004248D01*
X020725Y004249D01*
X020763Y004250D01*
X020800Y004255D01*
X020837Y004262D01*
X020873Y004271D01*
X020909Y004284D01*
X020943Y004299D01*
X020942Y004300D01*
X020908Y004285D01*
X020873Y004272D01*
X020837Y004263D01*
X020800Y004256D01*
X020763Y004251D01*
X020725Y004250D01*
X020725Y004251D01*
X020763Y004252D01*
X020800Y004257D01*
X020837Y004264D01*
X020873Y004273D01*
X020908Y004286D01*
X020942Y004301D01*
X020942Y004302D01*
X020907Y004287D01*
X020872Y004274D01*
X020836Y004265D01*
X020800Y004258D01*
X020763Y004253D01*
X020725Y004252D01*
X020725Y004253D01*
X020763Y004254D01*
X020800Y004259D01*
X020836Y004266D01*
X020872Y004275D01*
X020907Y004288D01*
X020941Y004302D01*
X020941Y004303D01*
X020907Y004289D01*
X020872Y004276D01*
X020836Y004267D01*
X020799Y004260D01*
X020763Y004255D01*
X020725Y004254D01*
X020725Y004255D01*
X020763Y004256D01*
X020799Y004261D01*
X020836Y004268D01*
X020871Y004277D01*
X020906Y004289D01*
X020940Y004304D01*
X020940Y004305D01*
X020906Y004290D01*
X020871Y004278D01*
X020835Y004269D01*
X020799Y004262D01*
X020762Y004257D01*
X020725Y004256D01*
X020725Y004257D01*
X020762Y004258D01*
X020799Y004263D01*
X020835Y004269D01*
X020871Y004279D01*
X020906Y004291D01*
X020939Y004306D01*
X020939Y004307D01*
X020905Y004292D01*
X020871Y004280D01*
X020835Y004270D01*
X020799Y004264D01*
X020762Y004259D01*
X020725Y004258D01*
X020946Y005209D02*
X020938Y005192D01*
X020939Y005192D02*
X020905Y005207D01*
X020870Y005219D01*
X020835Y005229D01*
X020799Y005235D01*
X020762Y005240D01*
X020725Y005241D01*
X020725Y005259D01*
X020725Y005260D01*
X020764Y005259D01*
X020802Y005254D01*
X020839Y005247D01*
X020876Y005237D01*
X020912Y005225D01*
X020947Y005209D01*
X020946Y005208D01*
X020912Y005224D01*
X020876Y005236D01*
X020839Y005246D01*
X020801Y005253D01*
X020764Y005258D01*
X020725Y005259D01*
X020725Y005258D01*
X020763Y005257D01*
X020801Y005252D01*
X020839Y005245D01*
X020875Y005235D01*
X020911Y005223D01*
X020946Y005207D01*
X020911Y005222D01*
X020875Y005234D01*
X020838Y005244D01*
X020801Y005251D01*
X020763Y005256D01*
X020725Y005257D01*
X020725Y005256D01*
X020763Y005255D01*
X020801Y005250D01*
X020838Y005243D01*
X020875Y005233D01*
X020910Y005221D01*
X020945Y005206D01*
X020945Y005205D01*
X020910Y005220D01*
X020874Y005232D01*
X020838Y005242D01*
X020801Y005249D01*
X020763Y005254D01*
X020725Y005255D01*
X020725Y005254D01*
X020763Y005253D01*
X020801Y005248D01*
X020838Y005241D01*
X020874Y005231D01*
X020910Y005219D01*
X020944Y005204D01*
X020944Y005203D01*
X020909Y005218D01*
X020874Y005230D01*
X020837Y005240D01*
X020800Y005247D01*
X020763Y005252D01*
X020725Y005253D01*
X020725Y005252D01*
X020763Y005251D01*
X020800Y005246D01*
X020837Y005239D01*
X020874Y005230D01*
X020909Y005217D01*
X020943Y005202D01*
X020943Y005201D01*
X020909Y005216D01*
X020873Y005229D01*
X020837Y005238D01*
X020800Y005245D01*
X020763Y005250D01*
X020725Y005251D01*
X020725Y005250D01*
X020763Y005249D01*
X020800Y005244D01*
X020837Y005237D01*
X020873Y005228D01*
X020908Y005215D01*
X020942Y005200D01*
X020942Y005199D01*
X020908Y005214D01*
X020873Y005227D01*
X020837Y005236D01*
X020800Y005243D01*
X020763Y005248D01*
X020725Y005249D01*
X020725Y005248D01*
X020763Y005247D01*
X020800Y005242D01*
X020836Y005235D01*
X020872Y005226D01*
X020907Y005213D01*
X020942Y005198D01*
X020941Y005198D01*
X020907Y005212D01*
X020872Y005225D01*
X020836Y005234D01*
X020800Y005241D01*
X020763Y005246D01*
X020725Y005247D01*
X020725Y005246D01*
X020763Y005245D01*
X020799Y005240D01*
X020836Y005233D01*
X020872Y005224D01*
X020907Y005211D01*
X020941Y005197D01*
X020940Y005196D01*
X020906Y005211D01*
X020871Y005223D01*
X020836Y005232D01*
X020799Y005239D01*
X020763Y005244D01*
X020725Y005245D01*
X020725Y005244D01*
X020762Y005243D01*
X020799Y005238D01*
X020835Y005231D01*
X020871Y005222D01*
X020906Y005210D01*
X020940Y005195D01*
X020939Y005194D01*
X020906Y005209D01*
X020871Y005221D01*
X020835Y005231D01*
X020799Y005237D01*
X020762Y005242D01*
X020725Y005243D01*
X020725Y005242D01*
X020762Y005241D01*
X020799Y005236D01*
X020835Y005230D01*
X020871Y005220D01*
X020905Y005208D01*
X020939Y005193D01*
X021394Y005206D02*
X021378Y005195D01*
X021379Y005195D02*
X021346Y005240D01*
X021311Y005282D01*
X021272Y005321D01*
X021232Y005358D01*
X021188Y005391D01*
X021143Y005422D01*
X021095Y005449D01*
X021046Y005473D01*
X020995Y005494D01*
X020942Y005511D01*
X020889Y005524D01*
X020835Y005533D01*
X020780Y005539D01*
X020725Y005541D01*
X020725Y005559D01*
X020725Y005560D01*
X020782Y005558D01*
X020838Y005552D01*
X020893Y005542D01*
X020948Y005529D01*
X021001Y005512D01*
X021053Y005491D01*
X021104Y005466D01*
X021153Y005438D01*
X021199Y005407D01*
X021244Y005372D01*
X021286Y005335D01*
X021325Y005294D01*
X021361Y005251D01*
X021394Y005206D01*
X021394Y005205D01*
X021360Y005251D01*
X021324Y005294D01*
X021285Y005334D01*
X021243Y005371D01*
X021199Y005406D01*
X021152Y005437D01*
X021103Y005465D01*
X021053Y005490D01*
X021001Y005511D01*
X020947Y005528D01*
X020893Y005541D01*
X020837Y005551D01*
X020782Y005557D01*
X020725Y005559D01*
X020725Y005558D01*
X020782Y005556D01*
X020837Y005550D01*
X020893Y005540D01*
X020947Y005527D01*
X021000Y005510D01*
X021052Y005489D01*
X021103Y005464D01*
X021152Y005436D01*
X021198Y005405D01*
X021242Y005371D01*
X021284Y005333D01*
X021323Y005293D01*
X021360Y005250D01*
X021393Y005205D01*
X021392Y005204D01*
X021359Y005250D01*
X021323Y005292D01*
X021284Y005332D01*
X021242Y005370D01*
X021198Y005404D01*
X021151Y005435D01*
X021102Y005463D01*
X021052Y005488D01*
X021000Y005509D01*
X020947Y005526D01*
X020892Y005539D01*
X020837Y005549D01*
X020781Y005555D01*
X020725Y005557D01*
X020725Y005556D01*
X020781Y005554D01*
X020837Y005548D01*
X020892Y005538D01*
X020946Y005525D01*
X021000Y005508D01*
X021052Y005487D01*
X021102Y005462D01*
X021150Y005435D01*
X021197Y005403D01*
X021241Y005369D01*
X021283Y005332D01*
X021322Y005292D01*
X021358Y005249D01*
X021391Y005204D01*
X021390Y005203D01*
X021357Y005248D01*
X021321Y005291D01*
X021282Y005331D01*
X021241Y005368D01*
X021196Y005403D01*
X021150Y005434D01*
X021101Y005462D01*
X021051Y005486D01*
X020999Y005507D01*
X020946Y005524D01*
X020892Y005537D01*
X020837Y005547D01*
X020781Y005553D01*
X020725Y005555D01*
X020725Y005554D01*
X020781Y005552D01*
X020837Y005546D01*
X020892Y005537D01*
X020946Y005523D01*
X020999Y005506D01*
X021051Y005485D01*
X021101Y005461D01*
X021149Y005433D01*
X021196Y005402D01*
X021240Y005368D01*
X021281Y005330D01*
X021320Y005290D01*
X021356Y005248D01*
X021389Y005203D01*
X021389Y005202D01*
X021356Y005247D01*
X021320Y005290D01*
X021281Y005330D01*
X021239Y005367D01*
X021195Y005401D01*
X021149Y005432D01*
X021101Y005460D01*
X021050Y005484D01*
X020999Y005505D01*
X020946Y005522D01*
X020892Y005536D01*
X020837Y005545D01*
X020781Y005551D01*
X020725Y005553D01*
X020725Y005552D01*
X020781Y005550D01*
X020837Y005544D01*
X020891Y005535D01*
X020945Y005521D01*
X020998Y005504D01*
X021050Y005483D01*
X021100Y005459D01*
X021148Y005431D01*
X021195Y005400D01*
X021239Y005366D01*
X021280Y005329D01*
X021319Y005289D01*
X021355Y005246D01*
X021388Y005202D01*
X021387Y005201D01*
X021354Y005246D01*
X021318Y005288D01*
X021279Y005328D01*
X021238Y005365D01*
X021194Y005399D01*
X021148Y005430D01*
X021100Y005458D01*
X021050Y005482D01*
X020998Y005503D01*
X020945Y005520D01*
X020891Y005534D01*
X020836Y005543D01*
X020781Y005549D01*
X020725Y005551D01*
X020725Y005550D01*
X020781Y005548D01*
X020836Y005542D01*
X020891Y005533D01*
X020945Y005519D01*
X020998Y005502D01*
X021049Y005481D01*
X021099Y005457D01*
X021147Y005429D01*
X021193Y005399D01*
X021237Y005364D01*
X021279Y005327D01*
X021317Y005288D01*
X021353Y005245D01*
X021386Y005200D01*
X021385Y005200D01*
X021353Y005245D01*
X021317Y005287D01*
X021278Y005327D01*
X021237Y005364D01*
X021193Y005398D01*
X021147Y005429D01*
X021099Y005456D01*
X021049Y005480D01*
X020997Y005501D01*
X020945Y005518D01*
X020891Y005532D01*
X020836Y005541D01*
X020781Y005547D01*
X020725Y005549D01*
X020725Y005548D01*
X020781Y005546D01*
X020836Y005540D01*
X020891Y005531D01*
X020944Y005517D01*
X020997Y005500D01*
X021048Y005480D01*
X021098Y005455D01*
X021146Y005428D01*
X021192Y005397D01*
X021236Y005363D01*
X021277Y005326D01*
X021316Y005286D01*
X021352Y005244D01*
X021385Y005199D01*
X021384Y005199D01*
X021351Y005243D01*
X021315Y005286D01*
X021277Y005325D01*
X021235Y005362D01*
X021192Y005396D01*
X021146Y005427D01*
X021098Y005454D01*
X021048Y005479D01*
X020997Y005499D01*
X020944Y005516D01*
X020890Y005530D01*
X020836Y005539D01*
X020781Y005545D01*
X020725Y005547D01*
X020725Y005546D01*
X020781Y005544D01*
X020836Y005538D01*
X020890Y005529D01*
X020944Y005515D01*
X020996Y005498D01*
X021048Y005478D01*
X021097Y005454D01*
X021145Y005426D01*
X021191Y005395D01*
X021235Y005361D01*
X021276Y005325D01*
X021314Y005285D01*
X021350Y005243D01*
X021383Y005198D01*
X021382Y005198D01*
X021349Y005242D01*
X021314Y005284D01*
X021275Y005324D01*
X021234Y005361D01*
X021191Y005394D01*
X021145Y005425D01*
X021097Y005453D01*
X021047Y005477D01*
X020996Y005497D01*
X020943Y005514D01*
X020890Y005528D01*
X020836Y005537D01*
X020781Y005543D01*
X020725Y005545D01*
X020725Y005544D01*
X020781Y005542D01*
X020835Y005536D01*
X020890Y005527D01*
X020943Y005513D01*
X020996Y005496D01*
X021047Y005476D01*
X021096Y005452D01*
X021144Y005424D01*
X021190Y005394D01*
X021233Y005360D01*
X021275Y005323D01*
X021313Y005284D01*
X021349Y005241D01*
X021381Y005197D01*
X021380Y005196D01*
X021348Y005241D01*
X021312Y005283D01*
X021274Y005322D01*
X021233Y005359D01*
X021189Y005393D01*
X021144Y005424D01*
X021096Y005451D01*
X021046Y005475D01*
X020995Y005496D01*
X020943Y005512D01*
X020889Y005526D01*
X020835Y005535D01*
X020781Y005541D01*
X020725Y005543D01*
X020725Y005542D01*
X020780Y005540D01*
X020835Y005534D01*
X020889Y005525D01*
X020943Y005512D01*
X020995Y005495D01*
X021046Y005474D01*
X021095Y005450D01*
X021143Y005423D01*
X021189Y005392D01*
X021232Y005358D01*
X021273Y005322D01*
X021312Y005282D01*
X021347Y005240D01*
X021380Y005196D01*
D15*
X021625Y005200D02*
X021625Y005600D01*
X021623Y005617D01*
X021619Y005634D01*
X021612Y005650D01*
X021602Y005664D01*
X021589Y005677D01*
X021575Y005687D01*
X021559Y005694D01*
X021542Y005698D01*
X021525Y005700D01*
X017225Y005700D01*
X017208Y005698D01*
X017191Y005694D01*
X017175Y005687D01*
X017161Y005677D01*
X017148Y005664D01*
X017138Y005650D01*
X017131Y005634D01*
X017127Y005617D01*
X017125Y005600D01*
X017125Y005200D01*
X017125Y004300D02*
X017125Y003900D01*
X017127Y003883D01*
X017131Y003866D01*
X017138Y003850D01*
X017148Y003836D01*
X017161Y003823D01*
X017175Y003813D01*
X017191Y003806D01*
X017208Y003802D01*
X017225Y003800D01*
X021525Y003800D01*
X021542Y003802D01*
X021559Y003806D01*
X021575Y003813D01*
X021589Y003823D01*
X021602Y003836D01*
X021612Y003850D01*
X021619Y003866D01*
X021623Y003883D01*
X021625Y003900D01*
X021625Y004300D01*
X023000Y004250D02*
X023000Y004750D01*
X023250Y005000D01*
X023000Y005250D01*
X023000Y005750D01*
X023250Y006000D01*
X023000Y006250D01*
X023000Y006750D01*
X023250Y007000D01*
X024750Y007000D01*
X025000Y006750D01*
X025000Y006250D01*
X024750Y006000D01*
X025000Y005750D01*
X025000Y005250D01*
X024750Y005000D01*
X025000Y004750D01*
X025000Y004250D01*
X024750Y004000D01*
X023250Y004000D01*
X023000Y004250D01*
X021060Y002685D02*
X021060Y002365D01*
X020840Y002365D01*
X020160Y002365D02*
X019940Y002365D01*
X019940Y002685D01*
X019625Y004500D02*
X019625Y004750D01*
X019625Y005000D01*
X019475Y005000D02*
X019275Y005000D01*
X019275Y004500D01*
X019475Y004500D01*
X019475Y005000D01*
X019125Y005000D02*
X019125Y004750D01*
X019125Y004500D01*
X023750Y009000D02*
X023500Y009250D01*
X023500Y009750D01*
X023750Y010000D01*
X024250Y010000D01*
X024500Y009750D01*
X024750Y010000D01*
X025250Y010000D01*
X025500Y009750D01*
X025750Y010000D01*
X026250Y010000D01*
X026500Y009750D01*
X026500Y009250D01*
X026250Y009000D01*
X025750Y009000D01*
X025500Y009250D01*
X025250Y009000D01*
X024750Y009000D01*
X024500Y009250D01*
X024250Y009000D01*
X023750Y009000D01*
X023750Y010500D02*
X023500Y010750D01*
X023500Y011250D01*
X023750Y011500D01*
X024250Y011500D01*
X024500Y011250D01*
X024750Y011500D01*
X025250Y011500D01*
X025500Y011250D01*
X025750Y011500D01*
X026250Y011500D01*
X026500Y011250D01*
X026500Y010750D01*
X026250Y010500D01*
X025750Y010500D01*
X025500Y010750D01*
X025250Y010500D01*
X024750Y010500D01*
X024500Y010750D01*
X024250Y010500D01*
X023750Y010500D01*
X021431Y011980D02*
X021004Y011980D01*
X021218Y011980D02*
X021218Y012621D01*
X021004Y012407D01*
X020787Y012514D02*
X020680Y012621D01*
X020466Y012621D01*
X020360Y012514D01*
X020360Y012087D01*
X020466Y011980D01*
X020680Y011980D01*
X020787Y012087D01*
X020144Y011980D02*
X019930Y011980D01*
X020037Y011980D02*
X020037Y012621D01*
X019930Y012621D02*
X020144Y012621D01*
X020375Y015000D02*
X020875Y015000D01*
X021125Y015250D01*
X021125Y015750D01*
X020875Y016000D01*
X021125Y016250D01*
X021125Y016750D01*
X020875Y017000D01*
X021125Y017250D01*
X021125Y017750D01*
X020875Y018000D01*
X020375Y018000D01*
X020125Y017750D01*
X020125Y017250D01*
X020375Y017000D01*
X020125Y016750D01*
X020125Y016250D01*
X020375Y016000D01*
X020125Y015750D01*
X020125Y015250D01*
X020375Y015000D01*
X019125Y015250D02*
X019125Y015750D01*
X018875Y016000D01*
X019125Y016250D01*
X019125Y016750D01*
X018875Y017000D01*
X019125Y017250D01*
X019125Y017750D01*
X018875Y018000D01*
X018375Y018000D01*
X018125Y017750D01*
X018125Y017250D01*
X018375Y017000D01*
X018125Y016750D01*
X018125Y016250D01*
X018375Y016000D01*
X018125Y015750D01*
X018125Y015250D01*
X018375Y015000D01*
X018875Y015000D01*
X019125Y015250D01*
X017625Y015250D02*
X017375Y015000D01*
X016875Y015000D01*
X016625Y015250D01*
X016625Y015750D01*
X016875Y016000D01*
X016625Y016250D01*
X016625Y016750D01*
X016875Y017000D01*
X016625Y017250D01*
X016625Y017750D01*
X016875Y018000D01*
X017375Y018000D01*
X017625Y017750D01*
X017625Y017250D01*
X017375Y017000D01*
X017625Y016750D01*
X017625Y016250D01*
X017375Y016000D01*
X017625Y015750D01*
X017625Y015250D01*
X015625Y015250D02*
X015375Y015000D01*
X014875Y015000D01*
X014625Y015250D01*
X014625Y015750D01*
X014875Y016000D01*
X014625Y016250D01*
X014625Y016750D01*
X014875Y017000D01*
X014625Y017250D01*
X014625Y017750D01*
X014875Y018000D01*
X015375Y018000D01*
X015625Y017750D01*
X015625Y017250D01*
X015375Y017000D01*
X015625Y016750D01*
X015625Y016250D01*
X015375Y016000D01*
X015625Y015750D01*
X015625Y015250D01*
X014125Y015250D02*
X013875Y015000D01*
X013375Y015000D01*
X013125Y015250D01*
X013125Y015750D01*
X013375Y016000D01*
X013125Y016250D01*
X013125Y016750D01*
X013375Y017000D01*
X013125Y017250D01*
X013125Y017750D01*
X013375Y018000D01*
X013875Y018000D01*
X014125Y017750D01*
X014125Y017250D01*
X013875Y017000D01*
X014125Y016750D01*
X014125Y016250D01*
X013875Y016000D01*
X014125Y015750D01*
X014125Y015250D01*
X012500Y014750D02*
X012500Y014250D01*
X012250Y014000D01*
X011750Y014000D01*
X011500Y014250D01*
X011250Y014000D01*
X010750Y014000D01*
X010500Y014250D01*
X010250Y014000D01*
X009750Y014000D01*
X009500Y014250D01*
X009500Y014750D01*
X009750Y015000D01*
X010250Y015000D01*
X010500Y014750D01*
X010750Y015000D01*
X011250Y015000D01*
X011500Y014750D01*
X011750Y015000D01*
X012250Y015000D01*
X012500Y014750D01*
X012250Y013500D02*
X011750Y013500D01*
X011500Y013250D01*
X011250Y013500D01*
X010750Y013500D01*
X010500Y013250D01*
X010250Y013500D01*
X009750Y013500D01*
X009500Y013250D01*
X009500Y012750D01*
X009750Y012500D01*
X010250Y012500D01*
X010500Y012750D01*
X010750Y012500D01*
X011250Y012500D01*
X011500Y012750D01*
X011750Y012500D01*
X012250Y012500D01*
X012500Y012750D01*
X012500Y013250D01*
X012250Y013500D01*
X012250Y011500D02*
X011750Y011500D01*
X011500Y011250D01*
X011250Y011500D01*
X010750Y011500D01*
X010500Y011250D01*
X010250Y011500D01*
X009750Y011500D01*
X009500Y011250D01*
X009500Y010750D01*
X009750Y010500D01*
X010250Y010500D01*
X010500Y010750D01*
X010750Y010500D01*
X011250Y010500D01*
X011500Y010750D01*
X011750Y010500D01*
X012250Y010500D01*
X012500Y010750D01*
X012500Y011250D01*
X012250Y011500D01*
X012250Y010000D02*
X011750Y010000D01*
X011500Y009750D01*
X011250Y010000D01*
X010750Y010000D01*
X010500Y009750D01*
X010250Y010000D01*
X009750Y010000D01*
X009500Y009750D01*
X009500Y009250D01*
X009750Y009000D01*
X010250Y009000D01*
X010500Y009250D01*
X010750Y009000D01*
X011250Y009000D01*
X011500Y009250D01*
X011750Y009000D01*
X012250Y009000D01*
X012500Y009250D01*
X012500Y009750D01*
X012250Y010000D01*
X012250Y008000D02*
X011750Y008000D01*
X011500Y007750D01*
X011250Y008000D01*
X010750Y008000D01*
X010500Y007750D01*
X010250Y008000D01*
X009750Y008000D01*
X009500Y007750D01*
X009500Y007250D01*
X009750Y007000D01*
X010250Y007000D01*
X010500Y007250D01*
X010750Y007000D01*
X011250Y007000D01*
X011500Y007250D01*
X011750Y007000D01*
X012250Y007000D01*
X012500Y007250D01*
X012500Y007750D01*
X012250Y008000D01*
X012250Y006500D02*
X011750Y006500D01*
X011500Y006250D01*
X011250Y006500D01*
X010750Y006500D01*
X010500Y006250D01*
X010250Y006500D01*
X009750Y006500D01*
X009500Y006250D01*
X009500Y005750D01*
X009750Y005500D01*
X010250Y005500D01*
X010500Y005750D01*
X010750Y005500D01*
X011250Y005500D01*
X011500Y005750D01*
X011750Y005500D01*
X012250Y005500D01*
X012500Y005750D01*
X012500Y006250D01*
X012250Y006500D01*
X004675Y006200D02*
X004675Y006800D01*
X004575Y006800D01*
X004575Y006900D01*
X004575Y006200D02*
X004575Y006100D01*
X004575Y006200D02*
X004675Y006200D01*
X004225Y005300D02*
X003825Y005300D01*
X002875Y005300D01*
X002525Y005300D01*
X002525Y004700D02*
X002925Y004700D01*
X003875Y004700D01*
X004225Y004700D01*
X004575Y003900D02*
X004575Y003800D01*
X004675Y003800D01*
X004675Y003200D01*
X004575Y003200D01*
X004575Y003100D01*
X004225Y002300D02*
X003875Y002300D01*
X002875Y002300D01*
X002525Y002300D01*
X002175Y003100D02*
X002175Y003200D01*
X002075Y003200D01*
X002075Y003800D01*
X002175Y003800D01*
X002175Y003900D01*
X003275Y003500D02*
X003277Y003520D01*
X003283Y003538D01*
X003292Y003556D01*
X003304Y003571D01*
X003319Y003583D01*
X003337Y003592D01*
X003355Y003598D01*
X003375Y003600D01*
X003395Y003598D01*
X003413Y003592D01*
X003431Y003583D01*
X003446Y003571D01*
X003458Y003556D01*
X003467Y003538D01*
X003473Y003520D01*
X003475Y003500D01*
X003473Y003480D01*
X003467Y003462D01*
X003458Y003444D01*
X003446Y003429D01*
X003431Y003417D01*
X003413Y003408D01*
X003395Y003402D01*
X003375Y003400D01*
X003355Y003402D01*
X003337Y003408D01*
X003319Y003417D01*
X003304Y003429D01*
X003292Y003444D01*
X003283Y003462D01*
X003277Y003480D01*
X003275Y003500D01*
X002675Y003500D02*
X002677Y003552D01*
X002683Y003604D01*
X002693Y003656D01*
X002706Y003706D01*
X002723Y003756D01*
X002744Y003804D01*
X002769Y003850D01*
X002797Y003894D01*
X002828Y003936D01*
X002862Y003976D01*
X002899Y004013D01*
X002939Y004047D01*
X002981Y004078D01*
X003025Y004106D01*
X003071Y004131D01*
X003119Y004152D01*
X003169Y004169D01*
X003219Y004182D01*
X003271Y004192D01*
X003323Y004198D01*
X003375Y004200D01*
X003427Y004198D01*
X003479Y004192D01*
X003531Y004182D01*
X003581Y004169D01*
X003631Y004152D01*
X003679Y004131D01*
X003725Y004106D01*
X003769Y004078D01*
X003811Y004047D01*
X003851Y004013D01*
X003888Y003976D01*
X003922Y003936D01*
X003953Y003894D01*
X003981Y003850D01*
X004006Y003804D01*
X004027Y003756D01*
X004044Y003706D01*
X004057Y003656D01*
X004067Y003604D01*
X004073Y003552D01*
X004075Y003500D01*
X004073Y003448D01*
X004067Y003396D01*
X004057Y003344D01*
X004044Y003294D01*
X004027Y003244D01*
X004006Y003196D01*
X003981Y003150D01*
X003953Y003106D01*
X003922Y003064D01*
X003888Y003024D01*
X003851Y002987D01*
X003811Y002953D01*
X003769Y002922D01*
X003725Y002894D01*
X003679Y002869D01*
X003631Y002848D01*
X003581Y002831D01*
X003531Y002818D01*
X003479Y002808D01*
X003427Y002802D01*
X003375Y002800D01*
X003323Y002802D01*
X003271Y002808D01*
X003219Y002818D01*
X003169Y002831D01*
X003119Y002848D01*
X003071Y002869D01*
X003025Y002894D01*
X002981Y002922D01*
X002939Y002953D01*
X002899Y002987D01*
X002862Y003024D01*
X002828Y003064D01*
X002797Y003106D01*
X002769Y003150D01*
X002744Y003196D01*
X002723Y003244D01*
X002706Y003294D01*
X002693Y003344D01*
X002683Y003396D01*
X002677Y003448D01*
X002675Y003500D01*
X002175Y006100D02*
X002175Y006200D01*
X002075Y006200D01*
X002075Y006800D01*
X002175Y006800D01*
X002175Y006900D01*
X002525Y007700D02*
X002875Y007700D01*
X003875Y007700D01*
X004225Y007700D01*
X004335Y008945D02*
X002915Y008945D01*
X002385Y008935D02*
X002385Y008715D01*
X002385Y008935D02*
X002065Y008935D01*
X002385Y008035D02*
X002385Y007815D01*
X002065Y007815D01*
X003275Y006500D02*
X003277Y006520D01*
X003283Y006538D01*
X003292Y006556D01*
X003304Y006571D01*
X003319Y006583D01*
X003337Y006592D01*
X003355Y006598D01*
X003375Y006600D01*
X003395Y006598D01*
X003413Y006592D01*
X003431Y006583D01*
X003446Y006571D01*
X003458Y006556D01*
X003467Y006538D01*
X003473Y006520D01*
X003475Y006500D01*
X003473Y006480D01*
X003467Y006462D01*
X003458Y006444D01*
X003446Y006429D01*
X003431Y006417D01*
X003413Y006408D01*
X003395Y006402D01*
X003375Y006400D01*
X003355Y006402D01*
X003337Y006408D01*
X003319Y006417D01*
X003304Y006429D01*
X003292Y006444D01*
X003283Y006462D01*
X003277Y006480D01*
X003275Y006500D01*
X002675Y006500D02*
X002677Y006552D01*
X002683Y006604D01*
X002693Y006656D01*
X002706Y006706D01*
X002723Y006756D01*
X002744Y006804D01*
X002769Y006850D01*
X002797Y006894D01*
X002828Y006936D01*
X002862Y006976D01*
X002899Y007013D01*
X002939Y007047D01*
X002981Y007078D01*
X003025Y007106D01*
X003071Y007131D01*
X003119Y007152D01*
X003169Y007169D01*
X003219Y007182D01*
X003271Y007192D01*
X003323Y007198D01*
X003375Y007200D01*
X003427Y007198D01*
X003479Y007192D01*
X003531Y007182D01*
X003581Y007169D01*
X003631Y007152D01*
X003679Y007131D01*
X003725Y007106D01*
X003769Y007078D01*
X003811Y007047D01*
X003851Y007013D01*
X003888Y006976D01*
X003922Y006936D01*
X003953Y006894D01*
X003981Y006850D01*
X004006Y006804D01*
X004027Y006756D01*
X004044Y006706D01*
X004057Y006656D01*
X004067Y006604D01*
X004073Y006552D01*
X004075Y006500D01*
X004073Y006448D01*
X004067Y006396D01*
X004057Y006344D01*
X004044Y006294D01*
X004027Y006244D01*
X004006Y006196D01*
X003981Y006150D01*
X003953Y006106D01*
X003922Y006064D01*
X003888Y006024D01*
X003851Y005987D01*
X003811Y005953D01*
X003769Y005922D01*
X003725Y005894D01*
X003679Y005869D01*
X003631Y005848D01*
X003581Y005831D01*
X003531Y005818D01*
X003479Y005808D01*
X003427Y005802D01*
X003375Y005800D01*
X003323Y005802D01*
X003271Y005808D01*
X003219Y005818D01*
X003169Y005831D01*
X003119Y005848D01*
X003071Y005869D01*
X003025Y005894D01*
X002981Y005922D01*
X002939Y005953D01*
X002899Y005987D01*
X002862Y006024D01*
X002828Y006064D01*
X002797Y006106D01*
X002769Y006150D01*
X002744Y006196D01*
X002723Y006244D01*
X002706Y006294D01*
X002693Y006344D01*
X002683Y006396D01*
X002677Y006448D01*
X002675Y006500D01*
X002915Y010805D02*
X004335Y010805D01*
X004150Y014536D02*
X003210Y014536D01*
X000610Y014536D01*
X000530Y014536D01*
X000530Y018466D01*
X000610Y018466D01*
X003210Y018466D01*
X004150Y018466D01*
X004150Y014536D01*
X003210Y014536D02*
X003210Y015166D01*
X003210Y015866D02*
X003210Y017136D01*
X003210Y017836D02*
X003210Y018466D01*
X000930Y017486D02*
X000932Y017514D01*
X000938Y017541D01*
X000947Y017567D01*
X000960Y017592D01*
X000977Y017615D01*
X000996Y017635D01*
X001018Y017652D01*
X001042Y017666D01*
X001068Y017676D01*
X001095Y017683D01*
X001123Y017686D01*
X001151Y017685D01*
X001178Y017680D01*
X001205Y017671D01*
X001230Y017659D01*
X001253Y017644D01*
X001274Y017625D01*
X001292Y017604D01*
X001307Y017580D01*
X001318Y017554D01*
X001326Y017528D01*
X001330Y017500D01*
X001330Y017472D01*
X001326Y017444D01*
X001318Y017418D01*
X001307Y017392D01*
X001292Y017368D01*
X001274Y017347D01*
X001253Y017328D01*
X001230Y017313D01*
X001205Y017301D01*
X001178Y017292D01*
X001151Y017287D01*
X001123Y017286D01*
X001095Y017289D01*
X001068Y017296D01*
X001042Y017306D01*
X001018Y017320D01*
X000996Y017337D01*
X000977Y017357D01*
X000960Y017380D01*
X000947Y017405D01*
X000938Y017431D01*
X000932Y017458D01*
X000930Y017486D01*
X000610Y018466D02*
X000610Y014536D01*
X000930Y015516D02*
X000932Y015544D01*
X000938Y015571D01*
X000947Y015597D01*
X000960Y015622D01*
X000977Y015645D01*
X000996Y015665D01*
X001018Y015682D01*
X001042Y015696D01*
X001068Y015706D01*
X001095Y015713D01*
X001123Y015716D01*
X001151Y015715D01*
X001178Y015710D01*
X001205Y015701D01*
X001230Y015689D01*
X001253Y015674D01*
X001274Y015655D01*
X001292Y015634D01*
X001307Y015610D01*
X001318Y015584D01*
X001326Y015558D01*
X001330Y015530D01*
X001330Y015502D01*
X001326Y015474D01*
X001318Y015448D01*
X001307Y015422D01*
X001292Y015398D01*
X001274Y015377D01*
X001253Y015358D01*
X001230Y015343D01*
X001205Y015331D01*
X001178Y015322D01*
X001151Y015317D01*
X001123Y015316D01*
X001095Y015319D01*
X001068Y015326D01*
X001042Y015336D01*
X001018Y015350D01*
X000996Y015367D01*
X000977Y015387D01*
X000960Y015410D01*
X000947Y015435D01*
X000938Y015461D01*
X000932Y015488D01*
X000930Y015516D01*
X021625Y015250D02*
X021625Y015750D01*
X021875Y016000D01*
X021625Y016250D01*
X021625Y016750D01*
X021875Y017000D01*
X021625Y017250D01*
X021625Y017750D01*
X021875Y018000D01*
X022375Y018000D01*
X022625Y017750D01*
X022625Y017250D01*
X022375Y017000D01*
X022625Y016750D01*
X022625Y016250D01*
X022375Y016000D01*
X022625Y015750D01*
X022625Y015250D01*
X022375Y015000D01*
X021875Y015000D01*
X021625Y015250D01*
D16*
X020725Y005550D02*
X018025Y005550D01*
X018025Y005250D02*
X020725Y005250D01*
X019775Y004750D02*
X019625Y004750D01*
X019125Y004750D02*
X018975Y004750D01*
X018025Y004250D02*
X020725Y004250D01*
X020725Y003950D02*
X018025Y003950D01*
X003875Y004600D02*
X003875Y004700D01*
X003875Y004600D02*
X002925Y004600D01*
X002925Y004700D01*
X002875Y005300D02*
X002875Y005400D01*
X003825Y005400D01*
X003825Y005300D01*
X003875Y007600D02*
X002875Y007600D01*
X002875Y007700D01*
X003875Y007700D02*
X003875Y007600D01*
X003095Y010585D02*
X003097Y010608D01*
X003103Y010630D01*
X003112Y010652D01*
X003125Y010671D01*
X003140Y010688D01*
X003158Y010702D01*
X003179Y010713D01*
X003201Y010721D01*
X003223Y010725D01*
X003247Y010725D01*
X003269Y010721D01*
X003291Y010713D01*
X003312Y010702D01*
X003330Y010688D01*
X003345Y010671D01*
X003358Y010652D01*
X003367Y010630D01*
X003373Y010608D01*
X003375Y010585D01*
X003373Y010562D01*
X003367Y010540D01*
X003358Y010518D01*
X003345Y010499D01*
X003330Y010482D01*
X003312Y010468D01*
X003291Y010457D01*
X003269Y010449D01*
X003247Y010445D01*
X003223Y010445D01*
X003201Y010449D01*
X003179Y010457D01*
X003158Y010468D01*
X003140Y010482D01*
X003125Y010499D01*
X003112Y010518D01*
X003103Y010540D01*
X003097Y010562D01*
X003095Y010585D01*
X002875Y002400D02*
X002875Y002300D01*
X002875Y002400D02*
X003875Y002400D01*
X003875Y002300D01*
D17*
X001690Y003275D02*
X001615Y003200D01*
X001465Y003200D01*
X001390Y003275D01*
X001690Y003575D01*
X001690Y003275D01*
X001690Y003575D02*
X001615Y003650D01*
X001465Y003650D01*
X001390Y003575D01*
X001390Y003275D01*
X001229Y003275D02*
X001154Y003200D01*
X001004Y003200D01*
X000929Y003275D01*
X001004Y003425D02*
X001154Y003425D01*
X001229Y003350D01*
X001229Y003275D01*
X001004Y003425D02*
X000929Y003500D01*
X000929Y003575D01*
X001004Y003650D01*
X001154Y003650D01*
X001229Y003575D01*
X001300Y006350D02*
X001150Y006350D01*
X001075Y006425D01*
X001150Y006575D02*
X001075Y006650D01*
X001075Y006725D01*
X001150Y006800D01*
X001300Y006800D01*
X001375Y006725D01*
X001300Y006575D02*
X001375Y006500D01*
X001375Y006425D01*
X001300Y006350D01*
X001300Y006575D02*
X001150Y006575D01*
X001535Y006650D02*
X001686Y006800D01*
X001686Y006350D01*
X001836Y006350D02*
X001535Y006350D01*
X002850Y010975D02*
X003000Y010975D01*
X002925Y010975D02*
X002925Y011425D01*
X002850Y011425D02*
X003000Y011425D01*
X003157Y011350D02*
X003157Y011050D01*
X003232Y010975D01*
X003382Y010975D01*
X003457Y011050D01*
X003617Y011050D02*
X003692Y010975D01*
X003843Y010975D01*
X003918Y011050D01*
X003918Y011125D01*
X003843Y011200D01*
X003767Y011200D01*
X003843Y011200D02*
X003918Y011275D01*
X003918Y011350D01*
X003843Y011425D01*
X003692Y011425D01*
X003617Y011350D01*
X003457Y011350D02*
X003382Y011425D01*
X003232Y011425D01*
X003157Y011350D01*
X004562Y013238D02*
X004787Y013238D01*
X004862Y013313D01*
X004862Y013613D01*
X004787Y013688D01*
X004562Y013688D01*
X004562Y013238D01*
X005022Y013238D02*
X005323Y013238D01*
X005172Y013238D02*
X005172Y013688D01*
X005022Y013538D01*
X002879Y016245D02*
X002579Y016245D01*
X002729Y016245D02*
X002729Y016695D01*
X002579Y016545D01*
X002419Y016695D02*
X002118Y016245D01*
X002419Y016245D02*
X002118Y016695D01*
X001725Y016691D02*
X001725Y016991D01*
X001725Y016691D02*
X001425Y016991D01*
X001350Y016991D01*
X001275Y016916D01*
X001275Y016766D01*
X001350Y016691D01*
X001725Y015041D02*
X001725Y014741D01*
X001725Y014891D02*
X001275Y014891D01*
X001425Y014741D01*
X009025Y014575D02*
X009175Y014725D01*
X009175Y014275D01*
X009025Y014275D02*
X009325Y014275D01*
X009175Y013225D02*
X009025Y013075D01*
X009175Y013225D02*
X009175Y012775D01*
X009025Y012775D02*
X009325Y012775D01*
X010150Y012050D02*
X010150Y011975D01*
X010225Y011900D01*
X010375Y011900D01*
X010450Y011825D01*
X010450Y011750D01*
X010375Y011675D01*
X010225Y011675D01*
X010150Y011750D01*
X010150Y012050D02*
X010225Y012125D01*
X010375Y012125D01*
X010450Y012050D01*
X010610Y012125D02*
X010836Y012125D01*
X010911Y012050D01*
X010911Y011900D01*
X010836Y011825D01*
X010610Y011825D01*
X010610Y011675D02*
X010610Y012125D01*
X010761Y011825D02*
X010911Y011675D01*
X011071Y011825D02*
X011221Y011675D01*
X011371Y011825D01*
X011371Y012125D01*
X011531Y012050D02*
X011606Y012125D01*
X011756Y012125D01*
X011831Y012050D01*
X011831Y011975D01*
X011531Y011675D01*
X011831Y011675D01*
X011071Y011825D02*
X011071Y012125D01*
X012650Y012875D02*
X012725Y012800D01*
X012875Y012800D01*
X012950Y012875D01*
X012950Y012950D01*
X012875Y013025D01*
X012725Y013025D01*
X012650Y013100D01*
X012650Y013175D01*
X012725Y013250D01*
X012875Y013250D01*
X012950Y013175D01*
X013110Y013250D02*
X013336Y013250D01*
X013411Y013175D01*
X013411Y013025D01*
X013336Y012950D01*
X013110Y012950D01*
X013110Y012800D02*
X013110Y013250D01*
X013261Y012950D02*
X013411Y012800D01*
X013571Y012950D02*
X013721Y012800D01*
X013871Y012950D01*
X013871Y013250D01*
X014031Y013100D02*
X014181Y013250D01*
X014181Y012800D01*
X014031Y012800D02*
X014331Y012800D01*
X014875Y012725D02*
X014950Y012650D01*
X015025Y012650D01*
X015100Y012725D01*
X015100Y012875D01*
X015175Y012950D01*
X015250Y012950D01*
X015325Y012875D01*
X015325Y012725D01*
X015250Y012650D01*
X014950Y012950D02*
X014875Y012875D01*
X014875Y012725D01*
X014875Y013110D02*
X014875Y013336D01*
X014950Y013411D01*
X015100Y013411D01*
X015175Y013336D01*
X015175Y013110D01*
X015325Y013110D02*
X014875Y013110D01*
X015175Y013261D02*
X015325Y013411D01*
X015175Y013571D02*
X015325Y013721D01*
X015175Y013871D01*
X014875Y013871D01*
X015025Y014031D02*
X014875Y014181D01*
X015325Y014181D01*
X015325Y014031D02*
X015325Y014331D01*
X015250Y014492D02*
X014950Y014492D01*
X014875Y014567D01*
X014875Y014717D01*
X014950Y014792D01*
X015250Y014492D01*
X015325Y014567D01*
X015325Y014717D01*
X015250Y014792D01*
X014950Y014792D01*
X014331Y014675D02*
X014331Y014375D01*
X014256Y014300D01*
X014106Y014300D01*
X014031Y014375D01*
X014331Y014675D01*
X014256Y014750D01*
X014106Y014750D01*
X014031Y014675D01*
X014031Y014375D01*
X013871Y014450D02*
X013871Y014750D01*
X013871Y014450D02*
X013721Y014300D01*
X013571Y014450D01*
X013571Y014750D01*
X013411Y014675D02*
X013411Y014525D01*
X013336Y014450D01*
X013110Y014450D01*
X013110Y014300D02*
X013110Y014750D01*
X013336Y014750D01*
X013411Y014675D01*
X013261Y014450D02*
X013411Y014300D01*
X012950Y014375D02*
X012875Y014300D01*
X012725Y014300D01*
X012650Y014375D01*
X012725Y014525D02*
X012650Y014600D01*
X012650Y014675D01*
X012725Y014750D01*
X012875Y014750D01*
X012950Y014675D01*
X012875Y014525D02*
X012950Y014450D01*
X012950Y014375D01*
X012875Y014525D02*
X012725Y014525D01*
X013571Y013250D02*
X013571Y012950D01*
X014875Y013571D02*
X015175Y013571D01*
X016875Y013485D02*
X016875Y013711D01*
X016950Y013786D01*
X017100Y013786D01*
X017175Y013711D01*
X017175Y013485D01*
X017325Y013485D02*
X016875Y013485D01*
X016950Y013325D02*
X016875Y013250D01*
X016875Y013100D01*
X016950Y013025D01*
X017025Y013025D01*
X017100Y013100D01*
X017100Y013250D01*
X017175Y013325D01*
X017250Y013325D01*
X017325Y013250D01*
X017325Y013100D01*
X017250Y013025D01*
X017175Y013636D02*
X017325Y013786D01*
X017175Y013946D02*
X016875Y013946D01*
X017175Y013946D02*
X017325Y014096D01*
X017175Y014246D01*
X016875Y014246D01*
X016950Y014406D02*
X017025Y014406D01*
X017100Y014481D01*
X017100Y014706D01*
X017250Y014706D02*
X016950Y014706D01*
X016875Y014631D01*
X016875Y014481D01*
X016950Y014406D01*
X017250Y014406D02*
X017325Y014481D01*
X017325Y014631D01*
X017250Y014706D01*
X018425Y014540D02*
X018500Y014615D01*
X018575Y014615D01*
X018650Y014540D01*
X018650Y014390D01*
X018575Y014315D01*
X018500Y014315D01*
X018425Y014390D01*
X018425Y014540D01*
X018650Y014540D02*
X018725Y014615D01*
X018800Y014615D01*
X018875Y014540D01*
X018875Y014390D01*
X018800Y014315D01*
X018725Y014315D01*
X018650Y014390D01*
X018725Y014154D02*
X018425Y014154D01*
X018725Y014154D02*
X018875Y014004D01*
X018725Y013854D01*
X018425Y013854D01*
X018500Y013694D02*
X018425Y013619D01*
X018425Y013394D01*
X018875Y013394D01*
X018725Y013394D02*
X018725Y013619D01*
X018650Y013694D01*
X018500Y013694D01*
X018725Y013544D02*
X018875Y013694D01*
X018800Y013234D02*
X018725Y013234D01*
X018650Y013159D01*
X018650Y013008D01*
X018575Y012933D01*
X018500Y012933D01*
X018425Y013008D01*
X018425Y013159D01*
X018500Y013234D01*
X018800Y013234D02*
X018875Y013159D01*
X018875Y013008D01*
X018800Y012933D01*
X020425Y013008D02*
X020500Y012933D01*
X020575Y012933D01*
X020650Y013008D01*
X020650Y013159D01*
X020725Y013234D01*
X020800Y013234D01*
X020875Y013159D01*
X020875Y013008D01*
X020800Y012933D01*
X020425Y013008D02*
X020425Y013159D01*
X020500Y013234D01*
X020425Y013394D02*
X020425Y013619D01*
X020500Y013694D01*
X020650Y013694D01*
X020725Y013619D01*
X020725Y013394D01*
X020725Y013544D02*
X020875Y013694D01*
X020725Y013854D02*
X020425Y013854D01*
X020725Y013854D02*
X020875Y014004D01*
X020725Y014154D01*
X020425Y014154D01*
X020425Y014315D02*
X020425Y014615D01*
X020500Y014615D01*
X020800Y014315D01*
X020875Y014315D01*
X020875Y013394D02*
X020425Y013394D01*
X021925Y013394D02*
X021925Y013619D01*
X022000Y013694D01*
X022150Y013694D01*
X022225Y013619D01*
X022225Y013394D01*
X022225Y013544D02*
X022375Y013694D01*
X022225Y013854D02*
X022375Y014004D01*
X022225Y014154D01*
X021925Y014154D01*
X022150Y014315D02*
X022000Y014465D01*
X021925Y014615D01*
X022150Y014540D02*
X022150Y014315D01*
X022300Y014315D01*
X022375Y014390D01*
X022375Y014540D01*
X022300Y014615D01*
X022225Y014615D01*
X022150Y014540D01*
X022225Y013854D02*
X021925Y013854D01*
X021925Y013394D02*
X022375Y013394D01*
X022300Y013234D02*
X022375Y013159D01*
X022375Y013008D01*
X022300Y012933D01*
X022150Y013008D02*
X022150Y013159D01*
X022225Y013234D01*
X022300Y013234D01*
X022150Y013008D02*
X022075Y012933D01*
X022000Y012933D01*
X021925Y013008D01*
X021925Y013159D01*
X022000Y013234D01*
X023558Y012125D02*
X023558Y012050D01*
X023633Y011975D01*
X023784Y011975D01*
X023859Y011900D01*
X023859Y011825D01*
X023784Y011750D01*
X023633Y011750D01*
X023558Y011825D01*
X023558Y012125D02*
X023633Y012200D01*
X023784Y012200D01*
X023859Y012125D01*
X024019Y012200D02*
X024019Y011750D01*
X024019Y011900D02*
X024244Y011900D01*
X024319Y011975D01*
X024319Y012125D01*
X024244Y012200D01*
X024019Y012200D01*
X024479Y012200D02*
X024479Y011900D01*
X024629Y011750D01*
X024779Y011900D01*
X024779Y012200D01*
X024940Y012200D02*
X024940Y012125D01*
X025090Y011975D01*
X025090Y011750D01*
X025090Y011975D02*
X025240Y012125D01*
X025240Y012200D01*
X024319Y011750D02*
X024169Y011900D01*
X026565Y011075D02*
X026715Y011225D01*
X026715Y010775D01*
X026565Y010775D02*
X026865Y010775D01*
X026715Y009725D02*
X026715Y009275D01*
X026565Y009275D02*
X026865Y009275D01*
X026565Y009575D02*
X026715Y009725D01*
X025240Y008700D02*
X024940Y008250D01*
X024779Y008400D02*
X024779Y008700D01*
X024940Y008700D02*
X025240Y008250D01*
X024779Y008400D02*
X024629Y008250D01*
X024479Y008400D01*
X024479Y008700D01*
X024319Y008625D02*
X024319Y008475D01*
X024244Y008400D01*
X024019Y008400D01*
X024169Y008400D02*
X024319Y008250D01*
X024019Y008250D02*
X024019Y008700D01*
X024244Y008700D01*
X024319Y008625D01*
X023859Y008625D02*
X023784Y008700D01*
X023633Y008700D01*
X023558Y008625D01*
X023558Y008550D01*
X023633Y008475D01*
X023784Y008475D01*
X023859Y008400D01*
X023859Y008325D01*
X023784Y008250D01*
X023633Y008250D01*
X023558Y008325D01*
X023485Y007625D02*
X023786Y007175D01*
X023485Y007175D02*
X023786Y007625D01*
X023946Y007625D02*
X024246Y007625D01*
X024096Y007625D02*
X024096Y007175D01*
X023325Y007175D02*
X023025Y007175D01*
X023025Y007625D01*
X023325Y007625D01*
X023175Y007400D02*
X023025Y007400D01*
X022825Y006615D02*
X022825Y006315D01*
X022825Y006465D02*
X022375Y006465D01*
X022525Y006315D01*
X022465Y005875D02*
X022465Y005425D01*
X022315Y005425D02*
X022615Y005425D01*
X022315Y005725D02*
X022465Y005875D01*
X022154Y005800D02*
X022154Y005500D01*
X022079Y005425D01*
X021929Y005425D01*
X021854Y005500D01*
X021854Y005800D01*
X021929Y005875D01*
X022079Y005875D01*
X022154Y005800D01*
X022004Y005575D02*
X022154Y005425D01*
X024275Y003765D02*
X024350Y003615D01*
X024500Y003465D01*
X024500Y003690D01*
X024575Y003765D01*
X024650Y003765D01*
X024725Y003690D01*
X024725Y003540D01*
X024650Y003465D01*
X024500Y003465D01*
X014256Y007675D02*
X014256Y008125D01*
X014031Y007900D01*
X014331Y007900D01*
X013871Y007825D02*
X013871Y008125D01*
X013571Y008125D02*
X013571Y007825D01*
X013721Y007675D01*
X013871Y007825D01*
X013411Y007900D02*
X013336Y007825D01*
X013110Y007825D01*
X013110Y007675D02*
X013110Y008125D01*
X013336Y008125D01*
X013411Y008050D01*
X013411Y007900D01*
X013261Y007825D02*
X013411Y007675D01*
X012950Y007750D02*
X012875Y007675D01*
X012725Y007675D01*
X012650Y007750D01*
X012725Y007900D02*
X012650Y007975D01*
X012650Y008050D01*
X012725Y008125D01*
X012875Y008125D01*
X012950Y008050D01*
X012875Y007900D02*
X012950Y007825D01*
X012950Y007750D01*
X012875Y007900D02*
X012725Y007900D01*
X012725Y008925D02*
X012650Y009000D01*
X012725Y008925D02*
X012875Y008925D01*
X012950Y009000D01*
X012950Y009075D01*
X012875Y009150D01*
X012725Y009150D01*
X012650Y009225D01*
X012650Y009300D01*
X012725Y009375D01*
X012875Y009375D01*
X012950Y009300D01*
X013110Y009375D02*
X013336Y009375D01*
X013411Y009300D01*
X013411Y009150D01*
X013336Y009075D01*
X013110Y009075D01*
X013110Y008925D02*
X013110Y009375D01*
X013261Y009075D02*
X013411Y008925D01*
X013571Y009075D02*
X013721Y008925D01*
X013871Y009075D01*
X013871Y009375D01*
X014031Y009300D02*
X014106Y009375D01*
X014256Y009375D01*
X014331Y009300D01*
X014331Y009225D01*
X014256Y009150D01*
X014331Y009075D01*
X014331Y009000D01*
X014256Y008925D01*
X014106Y008925D01*
X014031Y009000D01*
X014181Y009150D02*
X014256Y009150D01*
X013571Y009075D02*
X013571Y009375D01*
X009325Y009275D02*
X009025Y009275D01*
X009175Y009275D02*
X009175Y009725D01*
X009025Y009575D01*
X009025Y010775D02*
X009325Y010775D01*
X009175Y010775D02*
X009175Y011225D01*
X009025Y011075D01*
X009175Y007725D02*
X009175Y007275D01*
X009025Y007275D02*
X009325Y007275D01*
X009025Y007575D02*
X009175Y007725D01*
X009175Y006225D02*
X009025Y006075D01*
X009175Y006225D02*
X009175Y005775D01*
X009025Y005775D02*
X009325Y005775D01*
X010150Y005175D02*
X010150Y005100D01*
X010225Y005025D01*
X010375Y005025D01*
X010450Y004950D01*
X010450Y004875D01*
X010375Y004800D01*
X010225Y004800D01*
X010150Y004875D01*
X010150Y005175D02*
X010225Y005250D01*
X010375Y005250D01*
X010450Y005175D01*
X010610Y005250D02*
X010836Y005250D01*
X010911Y005175D01*
X010911Y005025D01*
X010836Y004950D01*
X010610Y004950D01*
X010610Y004800D02*
X010610Y005250D01*
X010761Y004950D02*
X010911Y004800D01*
X011071Y004950D02*
X011221Y004800D01*
X011371Y004950D01*
X011371Y005250D01*
X011531Y005250D02*
X011531Y005025D01*
X011681Y005100D01*
X011756Y005100D01*
X011831Y005025D01*
X011831Y004875D01*
X011756Y004800D01*
X011606Y004800D01*
X011531Y004875D01*
X011071Y004950D02*
X011071Y005250D01*
X011531Y005250D02*
X011831Y005250D01*
X013550Y018065D02*
X013400Y018215D01*
X013850Y018215D01*
X013850Y018065D02*
X013850Y018365D01*
X013871Y018450D02*
X013871Y018750D01*
X014031Y018600D02*
X014181Y018750D01*
X014181Y018300D01*
X014031Y018300D02*
X014331Y018300D01*
X014492Y018300D02*
X014792Y018300D01*
X014900Y018215D02*
X015350Y018215D01*
X015350Y018065D02*
X015350Y018365D01*
X015050Y018065D02*
X014900Y018215D01*
X014642Y018300D02*
X014642Y018750D01*
X014492Y018600D01*
X013871Y018450D02*
X013721Y018300D01*
X013571Y018450D01*
X013571Y018750D01*
X013411Y018675D02*
X013411Y018525D01*
X013336Y018450D01*
X013110Y018450D01*
X013110Y018300D02*
X013110Y018750D01*
X013336Y018750D01*
X013411Y018675D01*
X013261Y018450D02*
X013411Y018300D01*
X012950Y018375D02*
X012875Y018300D01*
X012725Y018300D01*
X012650Y018375D01*
X012725Y018525D02*
X012650Y018600D01*
X012650Y018675D01*
X012725Y018750D01*
X012875Y018750D01*
X012950Y018675D01*
X012875Y018525D02*
X012950Y018450D01*
X012950Y018375D01*
X012875Y018525D02*
X012725Y018525D01*
X016900Y018215D02*
X017050Y018065D01*
X016900Y018215D02*
X017350Y018215D01*
X017350Y018065D02*
X017350Y018365D01*
X018400Y018215D02*
X018850Y018215D01*
X018850Y018065D02*
X018850Y018365D01*
X018550Y018065D02*
X018400Y018215D01*
X020400Y018215D02*
X020850Y018215D01*
X020850Y018065D02*
X020850Y018365D01*
X020550Y018065D02*
X020400Y018215D01*
X021900Y018215D02*
X022050Y018065D01*
X021900Y018215D02*
X022350Y018215D01*
X022350Y018065D02*
X022350Y018365D01*
D18*
X019464Y011575D02*
X019466Y011595D01*
X019471Y011615D01*
X019481Y011633D01*
X019493Y011650D01*
X019508Y011664D01*
X019526Y011674D01*
X019545Y011682D01*
X019565Y011686D01*
X019585Y011686D01*
X019605Y011682D01*
X019624Y011674D01*
X019642Y011664D01*
X019657Y011650D01*
X019669Y011633D01*
X019679Y011615D01*
X019684Y011595D01*
X019686Y011575D01*
X019684Y011555D01*
X019679Y011535D01*
X019669Y011517D01*
X019657Y011500D01*
X019642Y011486D01*
X019624Y011476D01*
X019605Y011468D01*
X019585Y011464D01*
X019565Y011464D01*
X019545Y011468D01*
X019526Y011476D01*
X019508Y011486D01*
X019493Y011500D01*
X019481Y011517D01*
X019471Y011535D01*
X019466Y011555D01*
X019464Y011575D01*
X004469Y011864D02*
X004242Y011864D01*
X004469Y011864D02*
X004469Y013636D01*
X003258Y013636D02*
X003031Y013636D01*
X003031Y011864D01*
X003258Y011864D01*
X004242Y013636D02*
X004468Y013636D01*
D19*
X009715Y018938D02*
X009838Y018815D01*
X010085Y018815D01*
X009900Y018815D02*
X009900Y019061D01*
X009838Y019061D02*
X010085Y019061D01*
X010085Y019183D02*
X009715Y019183D01*
X009715Y019368D01*
X009776Y019430D01*
X009900Y019430D01*
X009962Y019368D01*
X009962Y019183D01*
X009962Y019306D02*
X010085Y019430D01*
X010023Y019551D02*
X009900Y019551D01*
X009838Y019613D01*
X009838Y019736D01*
X009900Y019798D01*
X009962Y019798D01*
X009962Y019551D01*
X010023Y019551D02*
X010085Y019613D01*
X010085Y019736D01*
X010085Y019981D02*
X009776Y019981D01*
X009715Y020043D01*
X009900Y020043D02*
X009900Y019919D01*
X010715Y019994D02*
X011085Y019994D01*
X011085Y019808D01*
X011023Y019747D01*
X010900Y019747D01*
X010838Y019808D01*
X010838Y019994D01*
X010900Y019625D02*
X011085Y019625D01*
X010900Y019625D02*
X010838Y019564D01*
X010838Y019378D01*
X011085Y019378D01*
X011085Y019257D02*
X011085Y019072D01*
X011023Y019010D01*
X010900Y019010D01*
X010838Y019072D01*
X010838Y019257D01*
X011147Y019257D01*
X011208Y019195D01*
X011208Y019133D01*
X011628Y019615D02*
X011875Y019615D01*
X011752Y019615D02*
X011752Y019985D01*
X011628Y019862D01*
X011997Y019924D02*
X012058Y019985D01*
X012182Y019985D01*
X012244Y019924D01*
X012244Y019862D01*
X012182Y019800D01*
X012244Y019738D01*
X012244Y019677D01*
X012182Y019615D01*
X012058Y019615D01*
X011997Y019677D01*
X012120Y019800D02*
X012182Y019800D01*
X012628Y019862D02*
X012752Y019985D01*
X012752Y019615D01*
X012875Y019615D02*
X012628Y019615D01*
X012997Y019615D02*
X013244Y019862D01*
X013244Y019924D01*
X013182Y019985D01*
X013058Y019985D01*
X012997Y019924D01*
X012997Y019615D02*
X013244Y019615D01*
X013628Y019615D02*
X013875Y019615D01*
X013997Y019615D02*
X014244Y019615D01*
X014120Y019615D02*
X014120Y019985D01*
X013997Y019862D01*
X013752Y019985D02*
X013752Y019615D01*
X013628Y019862D02*
X013752Y019985D01*
X014628Y019862D02*
X014752Y019985D01*
X014752Y019615D01*
X014875Y019615D02*
X014628Y019615D01*
X014997Y019677D02*
X014997Y019924D01*
X015058Y019985D01*
X015182Y019985D01*
X015244Y019924D01*
X014997Y019677D01*
X015058Y019615D01*
X015182Y019615D01*
X015244Y019677D01*
X015244Y019924D01*
X015797Y019924D02*
X015797Y019862D01*
X015858Y019800D01*
X016044Y019800D01*
X016044Y019677D02*
X016044Y019924D01*
X015982Y019985D01*
X015858Y019985D01*
X015797Y019924D01*
X015797Y019677D02*
X015858Y019615D01*
X015982Y019615D01*
X016044Y019677D01*
X016797Y019677D02*
X016797Y019738D01*
X016858Y019800D01*
X016982Y019800D01*
X017044Y019738D01*
X017044Y019677D01*
X016982Y019615D01*
X016858Y019615D01*
X016797Y019677D01*
X016858Y019800D02*
X016797Y019862D01*
X016797Y019924D01*
X016858Y019985D01*
X016982Y019985D01*
X017044Y019924D01*
X017044Y019862D01*
X016982Y019800D01*
X018397Y019677D02*
X018397Y019615D01*
X018397Y019677D02*
X018644Y019924D01*
X018644Y019985D01*
X018397Y019985D01*
X019397Y019800D02*
X019397Y019677D01*
X019458Y019615D01*
X019582Y019615D01*
X019644Y019677D01*
X019644Y019738D01*
X019582Y019800D01*
X019397Y019800D01*
X019520Y019924D01*
X019644Y019985D01*
X020397Y019985D02*
X020397Y019800D01*
X020520Y019862D01*
X020582Y019862D01*
X020644Y019800D01*
X020644Y019677D01*
X020582Y019615D01*
X020458Y019615D01*
X020397Y019677D01*
X020397Y019985D02*
X020644Y019985D01*
X021397Y019800D02*
X021644Y019800D01*
X021582Y019615D02*
X021582Y019985D01*
X021397Y019800D01*
X022397Y019677D02*
X022458Y019615D01*
X022582Y019615D01*
X022644Y019677D01*
X022644Y019738D01*
X022582Y019800D01*
X022520Y019800D01*
X022582Y019800D02*
X022644Y019862D01*
X022644Y019924D01*
X022582Y019985D01*
X022458Y019985D01*
X022397Y019924D01*
X023397Y019924D02*
X023458Y019985D01*
X023582Y019985D01*
X023644Y019924D01*
X023644Y019862D01*
X023397Y019615D01*
X023644Y019615D01*
X024397Y019615D02*
X024644Y019615D01*
X024520Y019615D02*
X024520Y019985D01*
X024397Y019862D01*
X025397Y019924D02*
X025397Y019677D01*
X025644Y019924D01*
X025644Y019677D01*
X025582Y019615D01*
X025458Y019615D01*
X025397Y019677D01*
X025397Y019924D02*
X025458Y019985D01*
X025582Y019985D01*
X025644Y019924D01*
X023881Y021077D02*
X023881Y021324D01*
X023819Y021385D01*
X023696Y021385D01*
X023634Y021324D01*
X023634Y021077D01*
X023696Y021015D01*
X023819Y021015D01*
X023881Y021077D01*
X023513Y021385D02*
X023266Y021015D01*
X023144Y021015D02*
X023020Y021015D01*
X023082Y021015D02*
X023082Y021385D01*
X023020Y021385D02*
X023144Y021385D01*
X022468Y021385D02*
X022468Y021015D01*
X022407Y021015D02*
X022530Y021015D01*
X022285Y021015D02*
X022285Y021200D01*
X022223Y021262D01*
X022100Y021262D01*
X022100Y021138D02*
X022285Y021138D01*
X022285Y021015D02*
X022100Y021015D01*
X022038Y021077D01*
X022100Y021138D01*
X021916Y021015D02*
X021854Y021077D01*
X021854Y021324D01*
X021793Y021262D02*
X021916Y021262D01*
X021609Y021262D02*
X021609Y021015D01*
X021547Y021015D02*
X021671Y021015D01*
X021426Y021015D02*
X021241Y021015D01*
X021179Y021077D01*
X021179Y021200D01*
X021241Y021262D01*
X021426Y021262D01*
X021426Y020953D01*
X021364Y020892D01*
X021302Y020892D01*
X021057Y021015D02*
X020933Y021015D01*
X020995Y021015D02*
X020995Y021262D01*
X020933Y021262D01*
X020812Y021324D02*
X020750Y021385D01*
X020565Y021385D01*
X020565Y021015D01*
X020750Y021015D01*
X020812Y021077D01*
X020812Y021324D01*
X020995Y021385D02*
X020995Y021447D01*
X021547Y021262D02*
X021609Y021262D01*
X021609Y021385D02*
X021609Y021447D01*
X022407Y021385D02*
X022468Y021385D01*
X016281Y021324D02*
X016281Y021077D01*
X016219Y021015D01*
X016096Y021015D01*
X016034Y021077D01*
X016034Y021324D01*
X016096Y021385D01*
X016219Y021385D01*
X016281Y021324D01*
X015913Y021385D02*
X015666Y021015D01*
X015544Y021015D02*
X015420Y021015D01*
X015482Y021015D02*
X015482Y021385D01*
X015420Y021385D02*
X015544Y021385D01*
X014930Y021015D02*
X014807Y021015D01*
X014868Y021015D02*
X014868Y021385D01*
X014807Y021385D01*
X014623Y021262D02*
X014685Y021200D01*
X014685Y021015D01*
X014500Y021015D01*
X014438Y021077D01*
X014500Y021138D01*
X014685Y021138D01*
X014623Y021262D02*
X014500Y021262D01*
X014316Y021262D02*
X014193Y021262D01*
X014254Y021324D02*
X014254Y021077D01*
X014316Y021015D01*
X014071Y021015D02*
X013947Y021015D01*
X014009Y021015D02*
X014009Y021262D01*
X013947Y021262D01*
X013826Y021262D02*
X013641Y021262D01*
X013579Y021200D01*
X013579Y021077D01*
X013641Y021015D01*
X013826Y021015D01*
X013826Y020953D02*
X013826Y021262D01*
X014009Y021385D02*
X014009Y021447D01*
X013826Y020953D02*
X013764Y020892D01*
X013702Y020892D01*
X013457Y021015D02*
X013333Y021015D01*
X013395Y021015D02*
X013395Y021262D01*
X013333Y021262D01*
X013212Y021324D02*
X013212Y021077D01*
X013150Y021015D01*
X012965Y021015D01*
X012965Y021385D01*
X013150Y021385D01*
X013212Y021324D01*
X013395Y021385D02*
X013395Y021447D01*
X012152Y018659D02*
X011967Y018473D01*
X012214Y018473D01*
X012152Y018288D02*
X012152Y018659D01*
X011846Y018597D02*
X011784Y018659D01*
X011660Y018659D01*
X011599Y018597D01*
X011599Y018350D01*
X011660Y018288D01*
X011784Y018288D01*
X011846Y018350D01*
X009838Y019061D02*
X009715Y018938D01*
X009085Y019122D02*
X009023Y019060D01*
X009085Y019122D02*
X009085Y019245D01*
X009023Y019307D01*
X008962Y019307D01*
X008900Y019245D01*
X008900Y019122D01*
X008838Y019060D01*
X008776Y019060D01*
X008715Y019122D01*
X008715Y019245D01*
X008776Y019307D01*
X008715Y019428D02*
X008715Y019614D01*
X008776Y019675D01*
X009023Y019675D01*
X009085Y019614D01*
X009085Y019428D01*
X008715Y019428D01*
X008838Y019797D02*
X008715Y019920D01*
X008838Y020044D01*
X009085Y020044D01*
X008900Y020044D02*
X008900Y019797D01*
X008838Y019797D02*
X009085Y019797D01*
X008085Y019797D02*
X008085Y020044D01*
X008085Y019797D02*
X007715Y019797D01*
X007776Y019675D02*
X007715Y019614D01*
X007715Y019490D01*
X007776Y019428D01*
X008023Y019428D01*
X008085Y019490D01*
X008085Y019614D01*
X008023Y019675D01*
X008023Y019307D02*
X007962Y019307D01*
X007900Y019245D01*
X007900Y019122D01*
X007838Y019060D01*
X007776Y019060D01*
X007715Y019122D01*
X007715Y019245D01*
X007776Y019307D01*
X008023Y019307D02*
X008085Y019245D01*
X008085Y019122D01*
X008023Y019060D01*
X015763Y005397D02*
X015701Y005335D01*
X015701Y005089D01*
X015763Y005027D01*
X015886Y005027D01*
X015948Y005089D01*
X016069Y005089D02*
X016131Y005027D01*
X016254Y005027D01*
X016316Y005089D01*
X016316Y005335D01*
X016254Y005397D01*
X016131Y005397D01*
X016069Y005335D01*
X016069Y005274D01*
X016131Y005212D01*
X016316Y005212D01*
X015948Y005335D02*
X015886Y005397D01*
X015763Y005397D01*
X013315Y002995D02*
X013315Y002748D01*
X013315Y002871D02*
X013685Y002871D01*
X013623Y002626D02*
X013685Y002564D01*
X013685Y002441D01*
X013623Y002379D01*
X013685Y002258D02*
X013562Y002134D01*
X013562Y002196D02*
X013562Y002011D01*
X013685Y002011D02*
X013315Y002011D01*
X013315Y002196D01*
X013376Y002258D01*
X013500Y002258D01*
X013562Y002196D01*
X013438Y002379D02*
X013500Y002441D01*
X013500Y002564D01*
X013562Y002626D01*
X013623Y002626D01*
X013376Y002626D02*
X013315Y002564D01*
X013315Y002441D01*
X013376Y002379D01*
X013438Y002379D01*
X012685Y002318D02*
X012685Y002442D01*
X012623Y002503D01*
X012376Y002503D01*
X012315Y002442D01*
X012315Y002318D01*
X012376Y002257D01*
X012623Y002257D01*
X012685Y002318D01*
X012685Y002134D02*
X012685Y002011D01*
X012685Y002073D02*
X012315Y002073D01*
X012315Y002134D02*
X012315Y002011D01*
X012438Y002625D02*
X012685Y002625D01*
X012562Y002625D02*
X012438Y002748D01*
X012438Y002810D01*
X014197Y002324D02*
X014259Y002385D01*
X014382Y002385D01*
X014444Y002324D01*
X014444Y002262D01*
X014382Y002200D01*
X014444Y002138D01*
X014444Y002077D01*
X014382Y002015D01*
X014259Y002015D01*
X014197Y002077D01*
X014320Y002200D02*
X014382Y002200D01*
X014565Y002262D02*
X014689Y002015D01*
X014812Y002262D01*
X015297Y002200D02*
X015420Y002262D01*
X015482Y002262D01*
X015544Y002200D01*
X015544Y002077D01*
X015482Y002015D01*
X015359Y002015D01*
X015297Y002077D01*
X015297Y002200D02*
X015297Y002385D01*
X015544Y002385D01*
X015665Y002262D02*
X015789Y002015D01*
X015912Y002262D01*
X016569Y002324D02*
X016569Y002077D01*
X016631Y002015D01*
X016754Y002015D01*
X016816Y002077D01*
X016816Y002200D01*
X016692Y002200D01*
X016569Y002324D02*
X016631Y002385D01*
X016754Y002385D01*
X016816Y002324D01*
X016937Y002262D02*
X017122Y002262D01*
X017184Y002200D01*
X017184Y002015D01*
X017306Y002077D02*
X017367Y002015D01*
X017552Y002015D01*
X017552Y002385D01*
X017552Y002262D02*
X017367Y002262D01*
X017306Y002200D01*
X017306Y002077D01*
X016937Y002015D02*
X016937Y002262D01*
X018147Y002385D02*
X018147Y002138D01*
X018270Y002015D01*
X018394Y002138D01*
X018394Y002385D01*
X018515Y002262D02*
X018577Y002262D01*
X018577Y002015D01*
X018515Y002015D02*
X018639Y002015D01*
X018761Y002015D02*
X018761Y002262D01*
X018946Y002262D01*
X019008Y002200D01*
X019008Y002015D01*
X018577Y002385D02*
X018577Y002447D01*
X020365Y002324D02*
X020365Y002077D01*
X020612Y002324D01*
X020612Y002077D01*
X020550Y002015D01*
X020427Y002015D01*
X020365Y002077D01*
X020365Y002324D02*
X020427Y002385D01*
X020550Y002385D01*
X020612Y002324D01*
X021365Y002262D02*
X021488Y002385D01*
X021488Y002015D01*
X021365Y002015D02*
X021612Y002015D01*
X022365Y002015D02*
X022612Y002262D01*
X022612Y002324D01*
X022550Y002385D01*
X022427Y002385D01*
X022365Y002324D01*
X022365Y002015D02*
X022612Y002015D01*
X023365Y002077D02*
X023427Y002015D01*
X023550Y002015D01*
X023612Y002077D01*
X023612Y002138D01*
X023550Y002200D01*
X023488Y002200D01*
X023550Y002200D02*
X023612Y002262D01*
X023612Y002324D01*
X023550Y002385D01*
X023427Y002385D01*
X023365Y002324D01*
X024365Y002200D02*
X024612Y002200D01*
X024550Y002015D02*
X024550Y002385D01*
X024365Y002200D01*
X025365Y002200D02*
X025488Y002262D01*
X025550Y002262D01*
X025612Y002200D01*
X025612Y002077D01*
X025550Y002015D01*
X025427Y002015D01*
X025365Y002077D01*
X025365Y002200D02*
X025365Y002385D01*
X025612Y002385D01*
X024705Y000944D02*
X024520Y000944D01*
X024520Y000697D01*
X024398Y000697D02*
X024274Y000697D01*
X024336Y000697D02*
X024336Y001067D01*
X024274Y001067D02*
X024398Y001067D01*
X024705Y000944D02*
X024767Y000882D01*
X024767Y000697D01*
X023785Y000697D02*
X023599Y000697D01*
X023538Y000759D01*
X023538Y000882D01*
X023599Y000944D01*
X023785Y000944D01*
X023785Y000635D01*
X023723Y000574D01*
X023661Y000574D01*
X023416Y000759D02*
X023416Y000882D01*
X023355Y000944D01*
X023231Y000944D01*
X023169Y000882D01*
X023169Y000759D01*
X023231Y000697D01*
X023355Y000697D01*
X023416Y000759D01*
X023047Y000697D02*
X022924Y000697D01*
X022986Y000697D02*
X022986Y001067D01*
X022924Y001067D01*
X022741Y000944D02*
X022802Y000882D01*
X022802Y000697D01*
X022617Y000697D01*
X022556Y000759D01*
X022617Y000820D01*
X022802Y000820D01*
X022741Y000944D02*
X022617Y000944D01*
X022434Y000882D02*
X022372Y000944D01*
X022187Y000944D01*
X022187Y000697D01*
X022066Y000697D02*
X022066Y000944D01*
X021942Y001067D01*
X021819Y000944D01*
X021819Y000697D01*
X021819Y000882D02*
X022066Y000882D01*
X022434Y000882D02*
X022434Y000697D01*
X008625Y003637D02*
X008564Y003575D01*
X008440Y003575D01*
X008379Y003637D01*
X008257Y003637D02*
X008195Y003575D01*
X008072Y003575D01*
X008010Y003637D01*
X008010Y003883D01*
X008072Y003945D01*
X008195Y003945D01*
X008257Y003883D01*
X008379Y003945D02*
X008379Y003760D01*
X008502Y003822D01*
X008564Y003822D01*
X008625Y003760D01*
X008625Y003637D01*
X008625Y003945D02*
X008379Y003945D01*
D20*
X007625Y001789D03*
X010375Y001789D03*
D21*
X004341Y012307D03*
X003159Y012307D03*
M02*
